<?xml version='1.0' encoding='UTF-8'?>
<svg xmlns="http://www.w3.org/2000/svg" xmlns:xlink="http://www.w3.org/1999/xlink" version="1.2" width="215.90mm" height="279.40mm" viewBox="0.0000 -0.0000 153.5737 198.7425">
<style type="text/css">

tspan { white-space: pre; }

</style>
<g transform="translate(65.6796, 9.7784)">
<text font-family="Songti SC" font-weight="bold" font-size="3.1113" text-anchor="start" fill="currentColor">
<tspan>主举爱旗遮盖我们</tspan>
</text>
</g>
<g transform="translate(68.1550, 13.2784)">
<text font-family="Songti SC" font-weight="bold" font-size="2.2001" text-anchor="start" fill="currentColor">
<tspan>赞美主－对祂的记念</tspan>
</text>
</g>
<g transform="translate(135.2146, 17.7560)">
<text font-family="Songti SC" font-size="5.8741" text-anchor="start" fill="currentColor">
<tspan>C174</tspan>
</text>
</g>
<g transform="translate(9.0337, 19.6981)">
<text font-family="Songti SC" font-weight="bold" font-style="italic" font-size="2.2001" text-anchor="start" fill="currentColor">
<tspan>(吉他)</tspan>
</text>
</g>
<g transform="translate(33.5858, 29.3239)">
<rect x="0.0000" y="-2.0000" width="0.2212" height="4.0000" ry="0.0000" fill="currentColor"/>
</g>
<g transform="translate(9.0337, 32.3239)">
<rect x="73.7551" y="-0.1082" width="1.9513" height="0.2164" ry="0.1082" fill="currentColor"/>
</g>
<g transform="translate(9.0337, 31.3239)">
<line stroke-linejoin="round" stroke-linecap="round" stroke-width="0.1164" stroke="currentColor" x1="0.0582" y1="0" x2="138.1582" y2="0"/>
</g>
<g transform="translate(9.0337, 30.3239)">
<line stroke-linejoin="round" stroke-linecap="round" stroke-width="0.1164" stroke="currentColor" x1="0.0582" y1="0" x2="138.1582" y2="0"/>
</g>
<g transform="translate(9.0337, 29.3239)">
<line stroke-linejoin="round" stroke-linecap="round" stroke-width="0.1164" stroke="currentColor" x1="0.0582" y1="0" x2="138.1582" y2="0"/>
</g>
<g transform="translate(9.0337, 28.3239)">
<line stroke-linejoin="round" stroke-linecap="round" stroke-width="0.1164" stroke="currentColor" x1="0.0582" y1="0" x2="138.1582" y2="0"/>
</g>
<g transform="translate(9.0337, 27.3239)">
<line stroke-linejoin="round" stroke-linecap="round" stroke-width="0.1164" stroke="currentColor" x1="0.0582" y1="0" x2="138.1582" y2="0"/>
</g>
<g transform="translate(147.0289, 29.3239)">
<rect x="0.0000" y="-2.0000" width="0.2212" height="4.0000" ry="0.0000" fill="currentColor"/>
</g>
<g transform="translate(108.7626, 29.3239)">
<rect x="0.0000" y="-2.0000" width="0.2212" height="4.0000" ry="0.0000" fill="currentColor"/>
</g>
<g transform="translate(70.4598, 29.3239)">
<rect x="0.0000" y="-2.0000" width="0.2212" height="4.0000" ry="0.0000" fill="currentColor"/>
</g>
<g transform="translate(19.2056, 25.7495)">
<text font-family="Hiragino Sans GB" font-size="1.9604" text-anchor="start" fill="currentColor">
<tspan>G</tspan>
</text>
</g>
<g transform="translate(19.2056, 30.3239)">
<path transform="scale(0.0040, -0.0040)" d="M212 138c68 0 113 -38 113 -95c0 -90 -109 -181 -212 -181c-68 0 -113 38 -113 95c0 90 109 181 212 181z" fill="currentColor"/>
</g>
<g transform="translate(9.8338, 30.3239)">
<path transform="scale(0.0040, -0.0040)" d="M647 2c0 -114 -75 -214 -180 -248c3 -33 4 -66 4 -99c0 -21 0 -41 -1 -62c-7 -122 -92 -229 -211 -229c-108 0 -196 88 -196 197c0 58 54 103 113 103c54 0 95 -47 95 -103c0 -52 -43 -95 -95 -95c-9 0 -18 1 -27 4c25 -37 66 -61 113 -61c93 0 156 91 162 191 c1 19 2 38 2 57c0 29 -1 58 -3 87c-5 -1 -44 -8 -88 -8c-194 0 -333 181 -333 376c0 177 129 308 244 443c-34 103 -55 171 -55 347c0 114 54 221 147 288c8 6 18 5 25 -1c68 -79 135 -242 135 -356c0 -142 -84 -255 -176 -364c21 -68 40 -136 57 -205c1 0 5 1 10 1 c157 0 258 -129 258 -263zM463 -201c64 24 110 88 110 161c0 88 -64 175 -167 188c28 -133 49 -269 57 -349zM77 25c0 -144 141 -243 261 -243c1 0 46 -1 81 5c-7 66 -27 208 -60 362c-79 -8 -124 -60 -124 -118c0 -43 25 -88 80 -120c5 -5 7 -11 7 -17 c0 -12 -10 -23 -23 -23c-16 0 -128 62 -128 188c0 89 60 177 163 200c-14 57 -30 113 -47 169c-105 -122 -210 -243 -210 -403zM242 784c0 -39 10 -95 39 -188c78 97 142 199 142 324c0 33 0 60 -20 118c-99 -46 -161 -145 -161 -254z" fill="currentColor"/>
</g>
<g transform="translate(13.3337, 27.3239)">
<path transform="scale(0.0040, -0.0040)" d="M0 116c0 10 6 19 16 23l40 15v154c0 12 9 21 21 21s21 -9 21 -21v-138l79 30v154c0 12 9 21 21 21s21 -9 21 -21v-138l22 8c3 1 6 2 9 2c13 0 25 -11 25 -25v-54c0 -10 -6 -20 -16 -24l-40 -15v-155l22 9c3 1 6 1 9 1c13 0 25 -11 25 -25v-54c0 -10 -6 -19 -16 -23 l-40 -15v-154c0 -12 -9 -21 -21 -21s-21 9 -21 21v138l-79 -30v-154c0 -12 -9 -21 -21 -21s-21 9 -21 21v138l-22 -8c-3 -1 -6 -2 -9 -2c-13 0 -25 11 -25 25v54c0 10 6 20 16 24l40 15v155l-22 -9c-3 -1 -6 -1 -9 -1c-13 0 -25 11 -25 25v54zM177 92l-79 -30v-154l79 30 v154z" fill="currentColor"/>
</g>
<g transform="translate(15.7118, 29.3239)">
<path transform="scale(0.0040, -0.0040)" d="M266 265c0 -36 73 -25 73 -125c0 -93 -81 -140 -182 -140c-80 0 -157 43 -157 116c0 35 29 64 64 64s64 -29 64 -64c0 -24 -39 -29 -39 -53c0 -29 35 -37 68 -37c47 0 59 59 59 114v28c0 47 -2 81 -46 81h-77c-11 0 -16 8 -16 16s5 16 16 16h77c44 0 46 37 46 86v19 c0 53 -15 88 -63 88c-30 0 -62 -8 -62 -34c0 -21 35 -25 35 -46c0 -31 -25 -56 -56 -56s-56 25 -56 56c0 65 68 106 139 106c92 0 171 -32 171 -114c0 -117 -58 -79 -58 -121z" fill="currentColor"/>
</g>
<g transform="translate(15.5838, 31.3361)">
<path transform="scale(0.0040, -0.0040)" d="M223 487c37 0 71 14 79 14c9 0 15 -7 15 -13c0 -2 0 -4 -2 -6l-283 -325h160v115c0 36 36 28 71 75c23 31 24 58 38 58c7 0 14 -5 14 -15v-233h76c11 0 16 -8 16 -16s-5 -16 -16 -16h-76v-2c0 -50 30 -97 77 -97c9 0 12 -7 12 -13s-3 -13 -12 -13c-46 0 -92 13 -138 13 s-93 -13 -139 -13c-9 0 -12 7 -12 13s3 13 12 13c47 0 77 47 77 97v2h-160c-26 0 -34 15 -34 25c0 12 133 136 133 332c0 11 8 21 18 18c24 -7 49 -13 74 -13z" fill="currentColor"/>
</g>
<g transform="translate(18.6183,36.2929)">
<text font-family="Songti SC" font-size="2.7" text-anchor="start" fill="currentColor">
<tspan font-size="2.7">主</tspan>
</text>
</g>
<g transform="translate(16.1245,36.2929)">
<text font-family="Songti SC" font-weight="bold" font-size="2.7" text-anchor="start" fill="currentColor">
<tspan font-size="2.7">1.</tspan>
</text>
</g>
<g transform="translate(20.9479, 29.8239)">
<path transform="scale(0.0040, -0.0040)" d="M0 0c0 30 25 55 55 55s55 -25 55 -55s-25 -55 -55 -55s-55 25 -55 55z" fill="currentColor"/>
</g>
<g transform="translate(20.4307, 29.3239)">
<rect x="-0.0757" y="-2.8196" width="0.1514" height="3.6483" ry="0.0500" fill="currentColor"/>
</g>
<g transform="translate(131.4227, 32.1421)">
<polygon stroke-linejoin="round" stroke-linecap="round" stroke-width="0.1000" fill="currentColor" stroke="currentColor" points="8.1305 -0.8264 8.1305 -0.4464 0.0500 0.1900 0.0500 -0.1900"/>
</g>
<g transform="translate(28.8795, 29.8239)">
<path transform="scale(0.0040, -0.0040)" d="M212 138c68 0 113 -38 113 -95c0 -90 -109 -181 -212 -181c-68 0 -113 38 -113 95c0 90 109 181 212 181z" fill="currentColor"/>
</g>
<g transform="translate(28.2922,36.2929)">
<text font-family="Songti SC" font-size="2.7" text-anchor="start" fill="currentColor">
<tspan font-size="2.7">举</tspan>
</text>
</g>
<g transform="translate(30.1046, 29.3239)">
<rect x="-0.0757" y="-2.9986" width="0.1514" height="3.3273" ry="0.0500" fill="currentColor"/>
</g>
<g transform="translate(35.5762, 29.3239)">
<path transform="scale(0.0040, -0.0040)" d="M212 138c68 0 113 -38 113 -95c0 -90 -109 -181 -212 -181c-68 0 -113 38 -113 95c0 90 109 181 212 181z" fill="currentColor"/>
</g>
<g transform="translate(34.9889,36.2929)">
<text font-family="Songti SC" font-size="2.7" text-anchor="start" fill="currentColor">
<tspan font-size="2.7">爱</tspan>
</text>
</g>
<g transform="translate(37.3185, 28.8239)">
<path transform="scale(0.0040, -0.0040)" d="M0 0c0 30 25 55 55 55s55 -25 55 -55s-25 -55 -55 -55s-55 25 -55 55z" fill="currentColor"/>
</g>
<g transform="translate(35.6519, 29.3239)">
<rect x="-0.0757" y="0.1713" width="0.1514" height="3.1620" ry="0.0500" fill="currentColor"/>
</g>
<g transform="translate(48.4668, 29.8239)">
<path transform="scale(0.0040, -0.0040)" d="M212 138c68 0 113 -38 113 -95c0 -90 -109 -181 -212 -181c-68 0 -113 38 -113 95c0 90 109 181 212 181z" fill="currentColor"/>
</g>
<g transform="translate(47.8795,36.2929)">
<text font-family="Songti SC" font-size="2.7" text-anchor="start" fill="currentColor">
<tspan font-size="2.7">旗</tspan>
</text>
</g>
<g transform="translate(49.6920, 29.3239)">
<rect x="-0.0757" y="-3.0000" width="0.1514" height="3.3287" ry="0.0500" fill="currentColor"/>
</g>
<g transform="translate(49.7676, 26.3739)">
<path transform="scale(0.0040, -0.0040)" d="M0 -250h-19v250h19c0 -197 207 -334 207 -531c0 -71 -15 -140 -41 -206c-5 -9 -14 -13 -22 -13c-14 0 -29 12 -26 30c26 60 43 124 43 189c0 102 -92 206 -161 281z" fill="currentColor"/>
</g>
<g transform="translate(95.5318, 26.5057)">
<polygon stroke-linejoin="round" stroke-linecap="round" stroke-width="0.1000" fill="currentColor" stroke="currentColor" points="9.7753 -0.3718 9.7753 0.0082 0.0500 0.1900 0.0500 -0.1900"/>
</g>
<g transform="translate(104.1814, 27.1638)">
<polygon stroke-linejoin="round" stroke-linecap="round" stroke-width="0.1000" fill="currentColor" stroke="currentColor" points="1.1257 -0.2118 1.1257 0.1682 0.0500 0.1900 0.0500 -0.1900"/>
</g>
<g transform="translate(56.2459, 25.7495)">
<text font-family="Hiragino Sans GB" font-size="1.9604" text-anchor="start" fill="currentColor">
<tspan>C</tspan>
</text>
</g>
<g transform="translate(56.2459, 30.3239)">
<path transform="scale(0.0040, -0.0040)" d="M212 138c68 0 113 -38 113 -95c0 -90 -109 -181 -212 -181c-68 0 -113 38 -113 95c0 90 109 181 212 181z" fill="currentColor"/>
</g>
<g transform="translate(55.6587,36.2929)">
<text font-family="Songti SC" font-size="2.7" text-anchor="start" fill="currentColor">
<tspan font-size="2.7">遮</tspan>
</text>
</g>
<g transform="translate(57.9882, 29.8239)">
<path transform="scale(0.0040, -0.0040)" d="M0 0c0 30 25 55 55 55s55 -25 55 -55s-25 -55 -55 -55s-55 25 -55 55z" fill="currentColor"/>
</g>
<g transform="translate(57.4711, 29.3239)">
<rect x="-0.0757" y="-2.1789" width="0.1514" height="3.0076" ry="0.0500" fill="currentColor"/>
</g>
<g transform="translate(65.6699, 31.3239)">
<path transform="scale(0.0040, -0.0040)" d="M212 138c68 0 113 -38 113 -95c0 -90 -109 -181 -212 -181c-68 0 -113 38 -113 95c0 90 109 181 212 181z" fill="currentColor"/>
</g>
<g transform="translate(65.0826,36.2929)">
<text font-family="Songti SC" font-size="2.7" text-anchor="start" fill="currentColor">
<tspan font-size="2.7">盖</tspan>
</text>
</g>
<g transform="translate(66.8950, 29.3239)">
<rect x="-0.0757" y="-1.8211" width="0.1514" height="3.6498" ry="0.0500" fill="currentColor"/>
</g>
<g transform="translate(72.3457, 25.7495)">
<text font-family="Hiragino Sans GB" font-size="1.9604" text-anchor="start" fill="currentColor">
<tspan>G</tspan>
</text>
</g>
<g transform="translate(72.3457, 31.8239)">
<path transform="scale(0.0040, -0.0040)" d="M212 138c68 0 113 -38 113 -95c0 -90 -109 -181 -212 -181c-68 0 -113 38 -113 95c0 90 109 181 212 181z" fill="currentColor"/>
</g>
<g transform="translate(71.7585,36.2929)">
<text font-family="Songti SC" font-size="2.7" text-anchor="start" fill="currentColor">
<tspan font-size="2.7">我</tspan>
</text>
</g>
<g transform="translate(73.5709, 29.3239)">
<rect x="-0.0757" y="-1.0000" width="0.1514" height="3.3287" ry="0.0500" fill="currentColor"/>
</g>
<g transform="translate(83.1140, 32.8239)">
<path transform="scale(0.0040, -0.0040)" d="M212 138c68 0 113 -38 113 -95c0 -90 -109 -181 -212 -181c-68 0 -113 38 -113 95c0 90 109 181 212 181z" fill="currentColor"/>
</g>
<g transform="translate(82.5267,36.2929)">
<text font-family="Songti SC" font-size="2.7" text-anchor="start" fill="currentColor">
<tspan font-size="2.7">们</tspan>
</text>
</g>
<g transform="translate(84.3392, 29.3239)">
<rect x="-0.0757" y="-0.0000" width="0.1514" height="3.3287" ry="0.0500" fill="currentColor"/>
</g>
<g transform="translate(57.3954, 27.1421)">
<polygon stroke-linejoin="round" stroke-linecap="round" stroke-width="0.1000" fill="currentColor" stroke="currentColor" points="9.5253 0.1736 9.5253 0.5536 0.0500 0.1900 0.0500 -0.1900"/>
</g>
<g transform="translate(65.7950, 28.2792)">
<polygon stroke-linejoin="round" stroke-linecap="round" stroke-width="0.1000" fill="currentColor" stroke="currentColor" points="1.1257 -0.1454 1.1257 0.2346 0.0500 0.1900 0.0500 -0.1900"/>
</g>
<g transform="translate(94.3823, 30.3239)">
<path transform="scale(0.0040, -0.0040)" d="M212 138c68 0 113 -38 113 -95c0 -90 -109 -181 -212 -181c-68 0 -113 38 -113 95c0 90 109 181 212 181z" fill="currentColor"/>
</g>
<g transform="translate(93.795,36.2929)">
<text font-family="Songti SC" font-size="2.7" text-anchor="start" fill="currentColor">
<tspan font-size="2.7">同</tspan>
</text>
</g>
<g transform="translate(96.1246, 29.8239)">
<path transform="scale(0.0040, -0.0040)" d="M0 0c0 30 25 55 55 55s55 -25 55 -55s-25 -55 -55 -55s-55 25 -55 55z" fill="currentColor"/>
</g>
<g transform="translate(95.6075, 29.3239)">
<rect x="-0.0757" y="-2.8196" width="0.1514" height="3.6483" ry="0.0500" fill="currentColor"/>
</g>
<g transform="translate(104.0562, 29.8239)">
<path transform="scale(0.0040, -0.0040)" d="M212 138c68 0 113 -38 113 -95c0 -90 -109 -181 -212 -181c-68 0 -113 38 -113 95c0 90 109 181 212 181z" fill="currentColor"/>
</g>
<g transform="translate(103.469,36.2929)">
<text font-family="Songti SC" font-size="2.7" text-anchor="start" fill="currentColor">
<tspan font-size="2.7">来</tspan>
</text>
</g>
<g transform="translate(105.2814, 29.3239)">
<rect x="-0.0757" y="-2.9986" width="0.1514" height="3.3273" ry="0.0500" fill="currentColor"/>
</g>
<g transform="translate(110.7529, 29.3239)">
<path transform="scale(0.0040, -0.0040)" d="M212 138c68 0 113 -38 113 -95c0 -90 -109 -181 -212 -181c-68 0 -113 38 -113 95c0 90 109 181 212 181z" fill="currentColor"/>
</g>
<g transform="translate(110.1657,36.2929)">
<text font-family="Songti SC" font-size="2.7" text-anchor="start" fill="currentColor">
<tspan font-size="2.7">享</tspan>
</text>
</g>
<g transform="translate(112.4952, 28.8239)">
<path transform="scale(0.0040, -0.0040)" d="M0 0c0 30 25 55 55 55s55 -25 55 -55s-25 -55 -55 -55s-55 25 -55 55z" fill="currentColor"/>
</g>
<g transform="translate(110.8286, 29.3239)">
<rect x="-0.0757" y="0.1713" width="0.1514" height="3.1620" ry="0.0500" fill="currentColor"/>
</g>
<g transform="translate(123.6435, 29.8239)">
<path transform="scale(0.0040, -0.0040)" d="M212 138c68 0 113 -38 113 -95c0 -90 -109 -181 -212 -181c-68 0 -113 38 -113 95c0 90 109 181 212 181z" fill="currentColor"/>
</g>
<g transform="translate(123.0563,36.2929)">
<text font-family="Songti SC" font-size="2.7" text-anchor="start" fill="currentColor">
<tspan font-size="2.7">受</tspan>
</text>
</g>
<g transform="translate(124.8687, 29.3239)">
<rect x="-0.0757" y="-3.0000" width="0.1514" height="3.3287" ry="0.0500" fill="currentColor"/>
</g>
<g transform="translate(124.9444, 26.3739)">
<path transform="scale(0.0040, -0.0040)" d="M0 -250h-19v250h19c0 -197 207 -334 207 -531c0 -71 -15 -140 -41 -206c-5 -9 -14 -13 -22 -13c-14 0 -29 12 -26 30c26 60 43 124 43 189c0 102 -92 206 -161 281z" fill="currentColor"/>
</g>
<g transform="translate(20.3550, 26.5057)">
<polygon stroke-linejoin="round" stroke-linecap="round" stroke-width="0.1000" fill="currentColor" stroke="currentColor" points="9.7753 -0.3718 9.7753 0.0082 0.0500 0.1900 0.0500 -0.1900"/>
</g>
<g transform="translate(29.0046, 27.1638)">
<polygon stroke-linejoin="round" stroke-linecap="round" stroke-width="0.1000" fill="currentColor" stroke="currentColor" points="1.1257 -0.2118 1.1257 0.1682 0.0500 0.1900 0.0500 -0.1900"/>
</g>
<g transform="translate(131.4227, 29.3239)">
<path transform="scale(0.0040, -0.0040)" d="M212 138c68 0 113 -38 113 -95c0 -90 -109 -181 -212 -181c-68 0 -113 38 -113 95c0 90 109 181 212 181z" fill="currentColor"/>
</g>
<g transform="translate(130.8354,36.2929)">
<text font-family="Songti SC" font-size="2.7" text-anchor="start" fill="currentColor">
<tspan font-size="2.7">祂</tspan>
</text>
</g>
<g transform="translate(131.4984, 29.3239)">
<rect x="-0.0757" y="0.1713" width="0.1514" height="2.6410" ry="0.0500" fill="currentColor"/>
</g>
<g transform="translate(139.4518, 28.3239)">
<path transform="scale(0.0040, -0.0040)" d="M212 138c68 0 113 -38 113 -95c0 -90 -109 -181 -212 -181c-68 0 -113 38 -113 95c0 90 109 181 212 181z" fill="currentColor"/>
</g>
<g transform="translate(138.8645,36.2929)">
<text font-family="Songti SC" font-size="2.7" text-anchor="start" fill="currentColor">
<tspan font-size="2.7">爱</tspan>
</text>
</g>
<g transform="translate(139.5275, 29.3239)">
<rect x="-0.0757" y="-0.8287" width="0.1514" height="3.0163" ry="0.0500" fill="currentColor"/>
</g>
<g transform="translate(43.4721,53.1564)">
<rect x="0.0000" y="-2.0000" width="0.2212" height="4.0000" ry="0.0000" fill="currentColor"/>
</g>
<g transform="translate(9.0337,56.1564)">
<rect x="79.9240" y="-0.1082" width="1.9513" height="0.2164" ry="0.1082" fill="currentColor"/>
</g>
<g transform="translate(9.0337,55.1564)">
<line stroke-linejoin="round" stroke-linecap="round" stroke-width="0.1164" stroke="currentColor" x1="0.0582" y1="0" x2="138.1582" y2="0"/>
</g>
<g transform="translate(9.0337,54.1564)">
<line stroke-linejoin="round" stroke-linecap="round" stroke-width="0.1164" stroke="currentColor" x1="0.0582" y1="0" x2="138.1582" y2="0"/>
</g>
<g transform="translate(9.0337,53.1564)">
<line stroke-linejoin="round" stroke-linecap="round" stroke-width="0.1164" stroke="currentColor" x1="0.0582" y1="0" x2="138.1582" y2="0"/>
</g>
<g transform="translate(9.0337,52.1564)">
<line stroke-linejoin="round" stroke-linecap="round" stroke-width="0.1164" stroke="currentColor" x1="0.0582" y1="0" x2="138.1582" y2="0"/>
</g>
<g transform="translate(9.0337,51.1564)">
<line stroke-linejoin="round" stroke-linecap="round" stroke-width="0.1164" stroke="currentColor" x1="0.0582" y1="0" x2="138.1582" y2="0"/>
</g>
<g transform="translate(147.0289,53.1564)">
<rect x="0.0000" y="-2.0000" width="0.2212" height="4.0000" ry="0.0000" fill="currentColor"/>
</g>
<g transform="translate(112.9409,53.1564)">
<rect x="0.0000" y="-2.0000" width="0.2212" height="4.0000" ry="0.0000" fill="currentColor"/>
</g>
<g transform="translate(77.5998,53.1564)">
<rect x="0.0000" y="-2.0000" width="0.2212" height="4.0000" ry="0.0000" fill="currentColor"/>
</g>
<g transform="translate(9.8338,54.1564)">
<path transform="scale(0.0040, -0.0040)" d="M647 2c0 -114 -75 -214 -180 -248c3 -33 4 -66 4 -99c0 -21 0 -41 -1 -62c-7 -122 -92 -229 -211 -229c-108 0 -196 88 -196 197c0 58 54 103 113 103c54 0 95 -47 95 -103c0 -52 -43 -95 -95 -95c-9 0 -18 1 -27 4c25 -37 66 -61 113 -61c93 0 156 91 162 191 c1 19 2 38 2 57c0 29 -1 58 -3 87c-5 -1 -44 -8 -88 -8c-194 0 -333 181 -333 376c0 177 129 308 244 443c-34 103 -55 171 -55 347c0 114 54 221 147 288c8 6 18 5 25 -1c68 -79 135 -242 135 -356c0 -142 -84 -255 -176 -364c21 -68 40 -136 57 -205c1 0 5 1 10 1 c157 0 258 -129 258 -263zM463 -201c64 24 110 88 110 161c0 88 -64 175 -167 188c28 -133 49 -269 57 -349zM77 25c0 -144 141 -243 261 -243c1 0 46 -1 81 5c-7 66 -27 208 -60 362c-79 -8 -124 -60 -124 -118c0 -43 25 -88 80 -120c5 -5 7 -11 7 -17 c0 -12 -10 -23 -23 -23c-16 0 -128 62 -128 188c0 89 60 177 163 200c-14 57 -30 113 -47 169c-105 -122 -210 -243 -210 -403zM242 784c0 -39 10 -95 39 -188c78 97 142 199 142 324c0 33 0 60 -20 118c-99 -46 -161 -145 -161 -254z" fill="currentColor"/>
</g>
<g transform="translate(13.3337,51.1564)">
<path transform="scale(0.0040, -0.0040)" d="M0 116c0 10 6 19 16 23l40 15v154c0 12 9 21 21 21s21 -9 21 -21v-138l79 30v154c0 12 9 21 21 21s21 -9 21 -21v-138l22 8c3 1 6 2 9 2c13 0 25 -11 25 -25v-54c0 -10 -6 -20 -16 -24l-40 -15v-155l22 9c3 1 6 1 9 1c13 0 25 -11 25 -25v-54c0 -10 -6 -19 -16 -23 l-40 -15v-154c0 -12 -9 -21 -21 -21s-21 9 -21 21v138l-79 -30v-154c0 -12 -9 -21 -21 -21s-21 9 -21 21v138l-22 -8c-3 -1 -6 -2 -9 -2c-13 0 -25 11 -25 25v54c0 10 6 20 16 24l40 15v155l-22 -9c-3 -1 -6 -1 -9 -1c-13 0 -25 11 -25 25v54zM177 92l-79 -30v-154l79 30 v154z" fill="currentColor"/>
</g>
<g transform="translate(8.2228,50.1832)">
<text font-family="Songti SC" font-size="1.7463" text-anchor="start" fill="currentColor">
<tspan>4</tspan>
</text>
</g>
<g transform="translate(134.8653,49.9746)">
<polygon stroke-linejoin="round" stroke-linecap="round" stroke-width="0.1000" fill="currentColor" stroke="currentColor" points="9.0315 -0.5082 9.0315 -0.1282 0.0500 0.1900 0.0500 -0.1900"/>
</g>
<g transform="translate(142.7712,50.5158)">
<polygon stroke-linejoin="round" stroke-linecap="round" stroke-width="0.1000" fill="currentColor" stroke="currentColor" points="1.1257 -0.2312 1.1257 0.1488 0.0500 0.1900 0.0500 -0.1900"/>
</g>
<g transform="translate(16.9338,49.197)">
<text font-family="Hiragino Sans GB" font-size="1.9604" text-anchor="start" fill="currentColor">
<tspan>D</tspan>
</text>
</g>
<g transform="translate(16.9338,53.6564)">
<path transform="scale(0.0040, -0.0040)" d="M310 63c0 22 -17 40 -40 40c-38 0 -197 -107 -224 -139c-7 -8 -10 -17 -10 -27c0 -22 17 -40 40 -40c38 0 197 107 224 139c7 8 10 17 10 27zM256 138c55 0 90 -22 90 -77c0 -25 -15 -112 -73 -151c-34 -23 -92 -48 -183 -48c-55 0 -90 22 -90 77c0 25 15 112 73 151 c34 23 92 48 183 48z" fill="currentColor"/>
</g>
<g transform="translate(15.1503,60.0488)">
<text font-family="Songti SC" font-size="2.7" text-anchor="start" fill="currentColor">
<tspan font-size="2.7">筵；</tspan>
</text>
</g>
<g transform="translate(18.242,53.1564)">
<rect x="-0.0757" y="-3.0000" width="0.1514" height="3.2544" ry="0.0500" fill="currentColor"/>
</g>
<g transform="translate(30.1233,54.1564)">
<path transform="scale(0.0040, -0.0040)" d="M212 138c68 0 113 -38 113 -95c0 -90 -109 -181 -212 -181c-68 0 -113 38 -113 95c0 90 109 181 212 181z" fill="currentColor"/>
</g>
<g transform="translate(29.5361,60.0488)">
<text font-family="Songti SC" font-size="2.7" text-anchor="start" fill="currentColor">
<tspan font-size="2.7">我</tspan>
</text>
</g>
<g transform="translate(31.8656,53.6564)">
<path transform="scale(0.0040, -0.0040)" d="M0 0c0 30 25 55 55 55s55 -25 55 -55s-25 -55 -55 -55s-55 25 -55 55z" fill="currentColor"/>
</g>
<g transform="translate(31.3485,53.1564)">
<rect x="-0.0757" y="-2.8197" width="0.1514" height="3.6484" ry="0.0500" fill="currentColor"/>
</g>
<g transform="translate(39.0535,53.6564)">
<path transform="scale(0.0040, -0.0040)" d="M212 138c68 0 113 -38 113 -95c0 -90 -109 -181 -212 -181c-68 0 -113 38 -113 95c0 90 109 181 212 181z" fill="currentColor"/>
</g>
<g transform="translate(38.4662,60.0488)">
<text font-family="Songti SC" font-size="2.7" text-anchor="start" fill="currentColor">
<tspan font-size="2.7">们</tspan>
</text>
</g>
<g transform="translate(40.2787,53.1564)">
<rect x="-0.0757" y="-2.9985" width="0.1514" height="3.3272" ry="0.0500" fill="currentColor"/>
</g>
<g transform="translate(45.3546,49.197)">
<text font-family="Hiragino Sans GB" font-size="1.9604" text-anchor="start" fill="currentColor">
<tspan>G</tspan>
</text>
</g>
<g transform="translate(45.3546,53.1564)">
<path transform="scale(0.0040, -0.0040)" d="M212 138c68 0 113 -38 113 -95c0 -90 -109 -181 -212 -181c-68 0 -113 38 -113 95c0 90 109 181 212 181z" fill="currentColor"/>
</g>
<g transform="translate(44.7673,60.0488)">
<text font-family="Songti SC" font-size="2.7" text-anchor="start" fill="currentColor">
<tspan font-size="2.7">感</tspan>
</text>
</g>
<g transform="translate(47.0969,52.6564)">
<path transform="scale(0.0040, -0.0040)" d="M0 0c0 30 25 55 55 55s55 -25 55 -55s-25 -55 -55 -55s-55 25 -55 55z" fill="currentColor"/>
</g>
<g transform="translate(45.4303,53.1564)">
<rect x="-0.0757" y="0.1713" width="0.1514" height="3.1620" ry="0.0500" fill="currentColor"/>
</g>
<g transform="translate(107.9021,54.5271)">
<polygon stroke-linejoin="round" stroke-linecap="round" stroke-width="0.1000" fill="currentColor" stroke="currentColor" points="1.1257 -0.3790 1.1257 0.0010 0.0500 0.1900 0.0500 -0.1900"/>
</g>
<g transform="translate(99.7463,56.6564)">
<polygon stroke-linejoin="round" stroke-linecap="round" stroke-width="0.1000" fill="currentColor" stroke="currentColor" points="9.2815 -1.6900 9.2815 -1.3100 0.0500 0.1900 0.0500 -0.1900"/>
</g>
<g transform="translate(57.2137,53.6564)">
<path transform="scale(0.0040, -0.0040)" d="M212 138c68 0 113 -38 113 -95c0 -90 -109 -181 -212 -181c-68 0 -113 38 -113 95c0 90 109 181 212 181z" fill="currentColor"/>
</g>
<g transform="translate(56.6264,60.0488)">
<text font-family="Songti SC" font-size="2.7" text-anchor="start" fill="currentColor">
<tspan font-size="2.7">激</tspan>
</text>
</g>
<g transform="translate(58.4389,53.1564)">
<rect x="-0.0757" y="-3.0000" width="0.1514" height="3.3287" ry="0.0500" fill="currentColor"/>
</g>
<g transform="translate(58.5146,50.2064)">
<path transform="scale(0.0040, -0.0040)" d="M0 -250h-19v250h19c0 -197 207 -334 207 -531c0 -71 -15 -140 -41 -206c-5 -9 -14 -13 -22 -13c-14 0 -29 12 -26 30c26 60 43 124 43 189c0 102 -92 206 -161 281z" fill="currentColor"/>
</g>
<g transform="translate(64.4174,49.197)">
<text font-family="Hiragino Sans GB" font-size="1.9604" text-anchor="start" fill="currentColor">
<tspan>C</tspan>
</text>
</g>
<g transform="translate(64.4174,54.1564)">
<path transform="scale(0.0040, -0.0040)" d="M212 138c68 0 113 -38 113 -95c0 -90 -109 -181 -212 -181c-68 0 -113 38 -113 95c0 90 109 181 212 181z" fill="currentColor"/>
</g>
<g transform="translate(63.8301,60.0488)">
<text font-family="Songti SC" font-size="2.7" text-anchor="start" fill="currentColor">
<tspan font-size="2.7">救</tspan>
</text>
</g>
<g transform="translate(66.1597,53.6564)">
<path transform="scale(0.0040, -0.0040)" d="M0 0c0 30 25 55 55 55s55 -25 55 -55s-25 -55 -55 -55s-55 25 -55 55z" fill="currentColor"/>
</g>
<g transform="translate(65.6426,53.1564)">
<rect x="-0.0757" y="-2.1787" width="0.1514" height="3.0073" ry="0.0500" fill="currentColor"/>
</g>
<g transform="translate(73.0976,55.1564)">
<path transform="scale(0.0040, -0.0040)" d="M212 138c68 0 113 -38 113 -95c0 -90 -109 -181 -212 -181c-68 0 -113 38 -113 95c0 90 109 181 212 181z" fill="currentColor"/>
</g>
<g transform="translate(72.5103,60.0488)">
<text font-family="Songti SC" font-size="2.7" text-anchor="start" fill="currentColor">
<tspan font-size="2.7">赎</tspan>
</text>
</g>
<g transform="translate(74.3227,53.1564)">
<rect x="-0.0757" y="-1.8213" width="0.1514" height="3.6500" ry="0.0500" fill="currentColor"/>
</g>
<g transform="translate(79.3778,49.197)">
<text font-family="Hiragino Sans GB" font-size="1.9604" text-anchor="start" fill="currentColor">
<tspan>G</tspan>
</text>
</g>
<g transform="translate(79.3778,55.6564)">
<path transform="scale(0.0040, -0.0040)" d="M212 138c68 0 113 -38 113 -95c0 -90 -109 -181 -212 -181c-68 0 -113 38 -113 95c0 90 109 181 212 181z" fill="currentColor"/>
</g>
<g transform="translate(78.7906,60.0488)">
<text font-family="Songti SC" font-size="2.7" text-anchor="start" fill="currentColor">
<tspan font-size="2.7">大</tspan>
</text>
</g>
<g transform="translate(80.603,53.1564)">
<rect x="-0.0757" y="-1.0000" width="0.1514" height="3.3287" ry="0.0500" fill="currentColor"/>
</g>
<g transform="translate(65.5669,50.9746)">
<polygon stroke-linejoin="round" stroke-linecap="round" stroke-width="0.1000" fill="currentColor" stroke="currentColor" points="8.7815 0.1736 8.7815 0.5536 0.0500 0.1900 0.0500 -0.1900"/>
</g>
<g transform="translate(73.2227,52.108)">
<polygon stroke-linejoin="round" stroke-linecap="round" stroke-width="0.1000" fill="currentColor" stroke="currentColor" points="1.1257 -0.1416 1.1257 0.2384 0.0500 0.1900 0.0500 -0.1900"/>
</g>
<g transform="translate(89.283,56.6564)">
<path transform="scale(0.0040, -0.0040)" d="M212 138c68 0 113 -38 113 -95c0 -90 -109 -181 -212 -181c-68 0 -113 38 -113 95c0 90 109 181 212 181z" fill="currentColor"/>
</g>
<g transform="translate(87.458,60.0488)">
<text font-family="Songti SC" font-size="2.7" text-anchor="start" fill="currentColor">
<tspan font-size="2.7">恩，</tspan>
</text>
</g>
<g transform="translate(90.5081,53.1564)">
<rect x="-0.0757" y="-0.0000" width="0.1514" height="3.3287" ry="0.0500" fill="currentColor"/>
</g>
<g transform="translate(99.7463,49.197)">
<text font-family="Hiragino Sans GB" font-size="1.9604" text-anchor="start" fill="currentColor">
<tspan>C</tspan>
</text>
</g>
<g transform="translate(99.7463,54.1564)">
<path transform="scale(0.0040, -0.0040)" d="M212 138c68 0 113 -38 113 -95c0 -90 -109 -181 -212 -181c-68 0 -113 38 -113 95c0 90 109 181 212 181z" fill="currentColor"/>
</g>
<g transform="translate(99.159,60.0488)">
<text font-family="Songti SC" font-size="2.7" text-anchor="start" fill="currentColor">
<tspan font-size="2.7">全</tspan>
</text>
</g>
<g transform="translate(101.4886,53.6564)">
<path transform="scale(0.0040, -0.0040)" d="M0 0c0 30 25 55 55 55s55 -25 55 -55s-25 -55 -55 -55s-55 25 -55 55z" fill="currentColor"/>
</g>
<g transform="translate(99.8219,53.1564)">
<rect x="-0.0757" y="1.1713" width="0.1514" height="2.3165" ry="0.0500" fill="currentColor"/>
</g>
<g transform="translate(108.9264,51.6564)">
<path transform="scale(0.0040, -0.0040)" d="M212 138c68 0 113 -38 113 -95c0 -90 -109 -181 -212 -181c-68 0 -113 38 -113 95c0 90 109 181 212 181z" fill="currentColor"/>
</g>
<g transform="translate(108.3392,60.0488)">
<text font-family="Songti SC" font-size="2.7" text-anchor="start" fill="currentColor">
<tspan font-size="2.7">心</tspan>
</text>
</g>
<g transform="translate(109.0021,53.1564)">
<rect x="-0.0757" y="-1.3287" width="0.1514" height="3.3408" ry="0.0500" fill="currentColor"/>
</g>
<g transform="translate(114.8806,49.197)">
<text font-family="Hiragino Sans GB" font-size="1.9604" text-anchor="start" fill="currentColor">
<tspan>G</tspan>
</text>
</g>
<g transform="translate(114.8806,52.1564)">
<path transform="scale(0.0040, -0.0040)" d="M212 138c68 0 113 -38 113 -95c0 -90 -109 -181 -212 -181c-68 0 -113 38 -113 95c0 90 109 181 212 181z" fill="currentColor"/>
</g>
<g transform="translate(114.2933,60.0488)">
<text font-family="Songti SC" font-size="2.7" text-anchor="start" fill="currentColor">
<tspan font-size="2.7">虔</tspan>
</text>
</g>
<g transform="translate(116.6229,51.6564)">
<path transform="scale(0.0040, -0.0040)" d="M0 0c0 30 25 55 55 55s55 -25 55 -55s-25 -55 -55 -55s-55 25 -55 55z" fill="currentColor"/>
</g>
<g transform="translate(114.9563,53.1564)">
<rect x="-0.0757" y="-0.8287" width="0.1514" height="3.3287" ry="0.0500" fill="currentColor"/>
</g>
<g transform="translate(31.2728,50.3381)">
<polygon stroke-linejoin="round" stroke-linecap="round" stroke-width="0.1000" fill="currentColor" stroke="currentColor" points="9.0315 -0.3718 9.0315 0.0082 0.0500 0.1900 0.0500 -0.1900"/>
</g>
<g transform="translate(39.1787,50.9981)">
<polygon stroke-linejoin="round" stroke-linecap="round" stroke-width="0.1000" fill="currentColor" stroke="currentColor" points="1.1257 -0.2135 1.1257 0.1665 0.0500 0.1900 0.0500 -0.1900"/>
</g>
<g transform="translate(126.5122,53.1564)">
<path transform="scale(0.0040, -0.0040)" d="M212 138c68 0 113 -38 113 -95c0 -90 -109 -181 -212 -181c-68 0 -113 38 -113 95c0 90 109 181 212 181z" fill="currentColor"/>
</g>
<g transform="translate(125.9249,60.0488)">
<text font-family="Songti SC" font-size="2.7" text-anchor="start" fill="currentColor">
<tspan font-size="2.7">诚</tspan>
</text>
</g>
<g transform="translate(126.5878,53.1564)">
<rect x="-0.0757" y="0.1713" width="0.1514" height="3.2037" ry="0.0500" fill="currentColor"/>
</g>
<g transform="translate(126.6635,56.4814)">
<path transform="scale(0.0040, -0.0040)" d="M0 0h-19v250h19v-250zM0 0v250c95 59 220 149 220 259c0 56 -16 111 -41 161c-3 18 12 30 26 30c8 0 17 -4 22 -13c25 -56 40 -116 40 -178c0 -203 -267 -306 -267 -509z" fill="currentColor"/>
</g>
<g transform="translate(133.7159,49.197)">
<text font-family="Hiragino Sans GB" font-size="1.9604" text-anchor="start" fill="currentColor">
<tspan>D</tspan>
</text>
</g>
<g transform="translate(135.2096,48.3061)">
<text font-family="Hiragino Sans GB" font-size="1.3856" text-anchor="start" fill="currentColor">
<tspan>7</tspan>
</text>
</g>
<g transform="translate(133.7159,53.6564)">
<path transform="scale(0.0040, -0.0040)" d="M212 138c68 0 113 -38 113 -95c0 -90 -109 -181 -212 -181c-68 0 -113 38 -113 95c0 90 109 181 212 181z" fill="currentColor"/>
</g>
<g transform="translate(133.1286,60.0488)">
<text font-family="Songti SC" font-size="2.7" text-anchor="start" fill="currentColor">
<tspan font-size="2.7">来</tspan>
</text>
</g>
<g transform="translate(135.4581,53.6564)">
<path transform="scale(0.0040, -0.0040)" d="M0 0c0 30 25 55 55 55s55 -25 55 -55s-25 -55 -55 -55s-55 25 -55 55z" fill="currentColor"/>
</g>
<g transform="translate(134.941,53.1564)">
<rect x="-0.0757" y="-3.1844" width="0.1514" height="3.5131" ry="0.0500" fill="currentColor"/>
</g>
<g transform="translate(142.646,53.1564)">
<path transform="scale(0.0040, -0.0040)" d="M212 138c68 0 113 -38 113 -95c0 -90 -109 -181 -212 -181c-68 0 -113 38 -113 95c0 90 109 181 212 181z" fill="currentColor"/>
</g>
<g transform="translate(142.0588,60.0488)">
<text font-family="Songti SC" font-size="2.7" text-anchor="start" fill="currentColor">
<tspan font-size="2.7">记</tspan>
</text>
</g>
<g transform="translate(143.8712,53.1564)">
<rect x="-0.0757" y="-3.4973" width="0.1514" height="3.3260" ry="0.0500" fill="currentColor"/>
</g>
<g transform="translate(42.2096,76.6515)">
<rect x="0.0000" y="-2.0000" width="0.2212" height="4.0000" ry="0.0000" fill="currentColor"/>
</g>
<g transform="translate(9.0337,78.6515)">
<line stroke-linejoin="round" stroke-linecap="round" stroke-width="0.1164" stroke="currentColor" x1="0.0582" y1="0" x2="138.1582" y2="0"/>
</g>
<g transform="translate(9.0337,77.6515)">
<line stroke-linejoin="round" stroke-linecap="round" stroke-width="0.1164" stroke="currentColor" x1="0.0582" y1="0" x2="138.1582" y2="0"/>
</g>
<g transform="translate(9.0337,76.6515)">
<line stroke-linejoin="round" stroke-linecap="round" stroke-width="0.1164" stroke="currentColor" x1="0.0582" y1="0" x2="138.1582" y2="0"/>
</g>
<g transform="translate(9.0337,75.6515)">
<line stroke-linejoin="round" stroke-linecap="round" stroke-width="0.1164" stroke="currentColor" x1="0.0582" y1="0" x2="138.1582" y2="0"/>
</g>
<g transform="translate(9.0337,74.6515)">
<line stroke-linejoin="round" stroke-linecap="round" stroke-width="0.1164" stroke="currentColor" x1="0.0582" y1="0" x2="138.1582" y2="0"/>
</g>
<g transform="translate(147.0289,76.6515)">
<rect x="0.0000" y="-2.0000" width="0.2212" height="4.0000" ry="0.0000" fill="currentColor"/>
</g>
<g transform="translate(108.6858,76.6515)">
<rect x="0.0000" y="-2.0000" width="0.2212" height="4.0000" ry="0.0000" fill="currentColor"/>
</g>
<g transform="translate(74.7614,76.6515)">
<rect x="0.0000" y="-2.0000" width="0.2212" height="4.0000" ry="0.0000" fill="currentColor"/>
</g>
<g transform="translate(9.8338,77.6515)">
<path transform="scale(0.0040, -0.0040)" d="M647 2c0 -114 -75 -214 -180 -248c3 -33 4 -66 4 -99c0 -21 0 -41 -1 -62c-7 -122 -92 -229 -211 -229c-108 0 -196 88 -196 197c0 58 54 103 113 103c54 0 95 -47 95 -103c0 -52 -43 -95 -95 -95c-9 0 -18 1 -27 4c25 -37 66 -61 113 -61c93 0 156 91 162 191 c1 19 2 38 2 57c0 29 -1 58 -3 87c-5 -1 -44 -8 -88 -8c-194 0 -333 181 -333 376c0 177 129 308 244 443c-34 103 -55 171 -55 347c0 114 54 221 147 288c8 6 18 5 25 -1c68 -79 135 -242 135 -356c0 -142 -84 -255 -176 -364c21 -68 40 -136 57 -205c1 0 5 1 10 1 c157 0 258 -129 258 -263zM463 -201c64 24 110 88 110 161c0 88 -64 175 -167 188c28 -133 49 -269 57 -349zM77 25c0 -144 141 -243 261 -243c1 0 46 -1 81 5c-7 66 -27 208 -60 362c-79 -8 -124 -60 -124 -118c0 -43 25 -88 80 -120c5 -5 7 -11 7 -17 c0 -12 -10 -23 -23 -23c-16 0 -128 62 -128 188c0 89 60 177 163 200c-14 57 -30 113 -47 169c-105 -122 -210 -243 -210 -403zM242 784c0 -39 10 -95 39 -188c78 97 142 199 142 324c0 33 0 60 -20 118c-99 -46 -161 -145 -161 -254z" fill="currentColor"/>
</g>
<g transform="translate(13.3337,74.6515)">
<path transform="scale(0.0040, -0.0040)" d="M0 116c0 10 6 19 16 23l40 15v154c0 12 9 21 21 21s21 -9 21 -21v-138l79 30v154c0 12 9 21 21 21s21 -9 21 -21v-138l22 8c3 1 6 2 9 2c13 0 25 -11 25 -25v-54c0 -10 -6 -20 -16 -24l-40 -15v-155l22 9c3 1 6 1 9 1c13 0 25 -11 25 -25v-54c0 -10 -6 -19 -16 -23 l-40 -15v-154c0 -12 -9 -21 -21 -21s-21 9 -21 21v138l-79 -30v-154c0 -12 -9 -21 -21 -21s-21 9 -21 21v138l-22 -8c-3 -1 -6 -2 -9 -2c-13 0 -25 11 -25 25v54c0 10 6 20 16 24l40 15v155l-22 -9c-3 -1 -6 -1 -9 -1c-13 0 -25 11 -25 25v54zM177 92l-79 -30v-154l79 30 v154z" fill="currentColor"/>
</g>
<g transform="translate(8.2228,73.67840000000001)">
<text font-family="Songti SC" font-size="1.7463" text-anchor="start" fill="currentColor">
<tspan>8</tspan>
</text>
</g>
<g transform="translate(16.9338,72.9233)">
<text font-family="Hiragino Sans GB" font-size="1.9604" text-anchor="start" fill="currentColor">
<tspan>G</tspan>
</text>
</g>
<g transform="translate(16.9338,77.6515)">
<path transform="scale(0.0040, -0.0040)" d="M310 63c0 22 -17 40 -40 40c-38 0 -197 -107 -224 -139c-7 -8 -10 -17 -10 -27c0 -22 17 -40 40 -40c38 0 197 107 224 139c7 8 10 17 10 27zM256 138c55 0 90 -22 90 -77c0 -25 -15 -112 -73 -151c-34 -23 -92 -48 -183 -48c-55 0 -90 22 -90 77c0 25 15 112 73 151 c34 23 92 48 183 48z" fill="currentColor"/>
</g>
<g transform="translate(15.1503,82.9427)">
<text font-family="Songti SC" font-size="2.7" text-anchor="start" fill="currentColor">
<tspan font-size="2.7">念。</tspan>
</text>
</g>
<g transform="translate(18.242,76.6515)">
<rect x="-0.0757" y="-2.5000" width="0.1514" height="3.2544" ry="0.0500" fill="currentColor"/>
</g>
<g transform="translate(120.2726,79.4697)">
<polygon stroke-linejoin="round" stroke-linecap="round" stroke-width="0.1000" fill="currentColor" stroke="currentColor" points="7.0379 0.1736 7.0379 0.5536 0.0500 0.1900 0.0500 -0.1900"/>
</g>
<g transform="translate(29.6724,76.6515)">
<path transform="scale(0.0040, -0.0040)" d="M212 138c68 0 113 -38 113 -95c0 -90 -109 -181 -212 -181c-68 0 -113 38 -113 95c0 90 109 181 212 181z" fill="currentColor"/>
</g>
<g transform="translate(29.0851,82.9427)">
<text font-family="Songti SC" font-size="2.7" text-anchor="start" fill="currentColor">
<tspan font-size="2.7">桌</tspan>
</text>
</g>
<g transform="translate(31.4146,76.1515)">
<path transform="scale(0.0040, -0.0040)" d="M0 0c0 30 25 55 55 55s55 -25 55 -55s-25 -55 -55 -55s-55 25 -55 55z" fill="currentColor"/>
</g>
<g transform="translate(29.748,76.6515)">
<rect x="-0.0757" y="0.1713" width="0.1514" height="3.0073" ry="0.0500" fill="currentColor"/>
</g>
<g transform="translate(38.2573,76.1515)">
<path transform="scale(0.0040, -0.0040)" d="M212 138c68 0 113 -38 113 -95c0 -90 -109 -181 -212 -181c-68 0 -113 38 -113 95c0 90 109 181 212 181z" fill="currentColor"/>
</g>
<g transform="translate(37.67,82.9427)">
<text font-family="Songti SC" font-size="2.7" text-anchor="start" fill="currentColor">
<tspan font-size="2.7">上</tspan>
</text>
</g>
<g transform="translate(38.3329,76.6515)">
<rect x="-0.0757" y="-0.3287" width="0.1514" height="3.1500" ry="0.0500" fill="currentColor"/>
</g>
<g transform="translate(110.5182,76.6515)">
<path stroke-width="0.0931" stroke-linejoin="round" stroke-linecap="round" stroke="currentColor" fill="currentColor" d="M0.6349 -1.2027C2.3433 -2.7225 8.5763 -2.9461 10.3893 -1.5527L10.3893 -1.5527C8.5814 -2.8065 2.3483 -2.5828 0.6349 -1.2027z"/>
</g>
<g transform="translate(44.0992,75.6515)">
<path transform="scale(0.0040, -0.0040)" d="M212 138c68 0 113 -38 113 -95c0 -90 -109 -181 -212 -181c-68 0 -113 38 -113 95c0 90 109 181 212 181z" fill="currentColor"/>
</g>
<g transform="translate(43.5119,82.9427)">
<text font-family="Songti SC" font-size="2.7" text-anchor="start" fill="currentColor">
<tspan font-size="2.7">陈</tspan>
</text>
</g>
<g transform="translate(45.8415,75.1515)">
<path transform="scale(0.0040, -0.0040)" d="M0 0c0 30 25 55 55 55s55 -25 55 -55s-25 -55 -55 -55s-55 25 -55 55z" fill="currentColor"/>
</g>
<g transform="translate(44.1748,76.6515)">
<rect x="-0.0757" y="-0.8287" width="0.1514" height="3.3287" ry="0.0500" fill="currentColor"/>
</g>
<g transform="translate(55.5019,75.1515)">
<path transform="scale(0.0040, -0.0040)" d="M212 138c68 0 113 -38 113 -95c0 -90 -109 -181 -212 -181c-68 0 -113 38 -113 95c0 90 109 181 212 181z" fill="currentColor"/>
</g>
<g transform="translate(54.9146,82.9427)">
<text font-family="Songti SC" font-size="2.7" text-anchor="start" fill="currentColor">
<tspan font-size="2.7">设</tspan>
</text>
</g>
<g transform="translate(55.5776,76.6515)">
<rect x="-0.0757" y="-1.3287" width="0.1514" height="3.3287" ry="0.0500" fill="currentColor"/>
</g>
<g transform="translate(55.6533,78.6015)">
<path transform="scale(0.0040, -0.0040)" d="M0 0h-19v250h19v-250zM0 0v250c95 59 220 149 220 259c0 56 -16 111 -41 161c-3 18 12 30 26 30c8 0 17 -4 22 -13c25 -56 40 -116 40 -178c0 -203 -267 -306 -267 -509z" fill="currentColor"/>
</g>
<g transform="translate(96.9654,73.83330000000001)">
<polygon stroke-linejoin="round" stroke-linecap="round" stroke-width="0.1000" fill="currentColor" stroke="currentColor" points="8.6863 -0.3718 8.6863 0.0082 0.0500 0.1900 0.0500 -0.1900"/>
</g>
<g transform="translate(104.526,74.4942)">
<polygon stroke-linejoin="round" stroke-linecap="round" stroke-width="0.1000" fill="currentColor" stroke="currentColor" points="1.1257 -0.2145 1.1257 0.1655 0.0500 0.1900 0.0500 -0.1900"/>
</g>
<g transform="translate(62.4385,72.9233)">
<text font-family="Hiragino Sans GB" font-size="1.9604" text-anchor="start" fill="currentColor">
<tspan>C</tspan>
</text>
</g>
<g transform="translate(62.4385,75.6515)">
<path transform="scale(0.0040, -0.0040)" d="M212 138c68 0 113 -38 113 -95c0 -90 -109 -181 -212 -181c-68 0 -113 38 -113 95c0 90 109 181 212 181z" fill="currentColor"/>
</g>
<g transform="translate(61.8512,82.9427)">
<text font-family="Songti SC" font-size="2.7" text-anchor="start" fill="currentColor">
<tspan font-size="2.7">这</tspan>
</text>
</g>
<g transform="translate(64.1808,75.1515)">
<path transform="scale(0.0040, -0.0040)" d="M0 0c0 30 25 55 55 55s55 -25 55 -55s-25 -55 -55 -55s-55 25 -55 55z" fill="currentColor"/>
</g>
<g transform="translate(62.5142,76.6515)">
<rect x="-0.0757" y="-0.8287" width="0.1514" height="3.0161" ry="0.0500" fill="currentColor"/>
</g>
<g transform="translate(70.7734,76.6515)">
<path transform="scale(0.0040, -0.0040)" d="M212 138c68 0 113 -38 113 -95c0 -90 -109 -181 -212 -181c-68 0 -113 38 -113 95c0 90 109 181 212 181z" fill="currentColor"/>
</g>
<g transform="translate(70.1861,82.9427)">
<text font-family="Songti SC" font-size="2.7" text-anchor="start" fill="currentColor">
<tspan font-size="2.7">饼</tspan>
</text>
</g>
<g transform="translate(70.849,76.6515)">
<rect x="-0.0757" y="0.1713" width="0.1514" height="2.6412" ry="0.0500" fill="currentColor"/>
</g>
<g transform="translate(76.651,72.9233)">
<text font-family="Hiragino Sans GB" font-size="1.9604" text-anchor="start" fill="currentColor">
<tspan>G</tspan>
</text>
</g>
<g transform="translate(76.651,75.6515)">
<path transform="scale(0.0040, -0.0040)" d="M212 138c68 0 113 -38 113 -95c0 -90 -109 -181 -212 -181c-68 0 -113 38 -113 95c0 90 109 181 212 181z" fill="currentColor"/>
</g>
<g transform="translate(76.0637,82.9427)">
<text font-family="Songti SC" font-size="2.7" text-anchor="start" fill="currentColor">
<tspan font-size="2.7">和</tspan>
</text>
</g>
<g transform="translate(76.7267,76.6515)">
<rect x="-0.0757" y="-0.8287" width="0.1514" height="3.3287" ry="0.0500" fill="currentColor"/>
</g>
<g transform="translate(135.2728,73.6515)">
<polygon stroke-linejoin="round" stroke-linecap="round" stroke-width="0.1000" fill="currentColor" stroke="currentColor" points="8.6863 -0.0082 8.6863 0.3718 0.0500 0.1900 0.0500 -0.1900"/>
</g>
<g transform="translate(142.8333,74.62700000000001)">
<polygon stroke-linejoin="round" stroke-linecap="round" stroke-width="0.1000" fill="currentColor" stroke="currentColor" points="1.1257 -0.1655 1.1257 0.2145 0.0500 0.1900 0.0500 -0.1900"/>
</g>
<g transform="translate(84.3304,82.9427)">
<text font-family="Songti SC" font-size="2.7" text-anchor="start" fill="currentColor">
<tspan font-size="2.7">杯，</tspan>
</text>
</g>
<g transform="translate(86.2311,76.6515)">
<rect x="-0.0757" y="0.1713" width="0.1514" height="3.1620" ry="0.0500" fill="currentColor"/>
</g>
<g transform="translate(95.8159,77.6515)">
<path transform="scale(0.0040, -0.0040)" d="M212 138c68 0 113 -38 113 -95c0 -90 -109 -181 -212 -181c-68 0 -113 38 -113 95c0 90 109 181 212 181z" fill="currentColor"/>
</g>
<g transform="translate(95.2286,82.9427)">
<text font-family="Songti SC" font-size="2.7" text-anchor="start" fill="currentColor">
<tspan font-size="2.7">都</tspan>
</text>
</g>
<g transform="translate(97.5582,77.1515)">
<path transform="scale(0.0040, -0.0040)" d="M0 0c0 30 25 55 55 55s55 -25 55 -55s-25 -55 -55 -55s-55 25 -55 55z" fill="currentColor"/>
</g>
<g transform="translate(97.0411,76.6515)">
<rect x="-0.0757" y="-2.8198" width="0.1514" height="3.6485" ry="0.0500" fill="currentColor"/>
</g>
<g transform="translate(69.749,78.5633)">
<polygon stroke-linejoin="round" stroke-linecap="round" stroke-width="0.1000" fill="currentColor" stroke="currentColor" points="1.1257 -0.1018 1.1257 0.2782 0.0500 0.1900 0.0500 -0.1900"/>
</g>
<g transform="translate(62.4385,78.83330000000001)">
<polygon stroke-linejoin="round" stroke-linecap="round" stroke-width="0.1000" fill="currentColor" stroke="currentColor" points="8.4363 0.4464 8.4363 0.8264 0.0500 0.1900 0.0500 -0.1900"/>
</g>
<g transform="translate(104.4008,77.1515)">
<path transform="scale(0.0040, -0.0040)" d="M212 138c68 0 113 -38 113 -95c0 -90 -109 -181 -212 -181c-68 0 -113 38 -113 95c0 90 109 181 212 181z" fill="currentColor"/>
</g>
<g transform="translate(103.8135,82.9427)">
<text font-family="Songti SC" font-size="2.7" text-anchor="start" fill="currentColor">
<tspan font-size="2.7">是</tspan>
</text>
</g>
<g transform="translate(105.626,76.6515)">
<rect x="-0.0757" y="-2.9984" width="0.1514" height="3.3271" ry="0.0500" fill="currentColor"/>
</g>
<g transform="translate(110.5182,76.6515)">
<path transform="scale(0.0040, -0.0040)" d="M212 138c68 0 113 -38 113 -95c0 -90 -109 -181 -212 -181c-68 0 -113 38 -113 95c0 90 109 181 212 181z" fill="currentColor"/>
</g>
<g transform="translate(110.5182,82.9427)">
<text font-family="Songti SC" font-size="2.7" text-anchor="start" fill="currentColor">
<tspan font-size="2.7">表</tspan>
</text>
</g>
<g transform="translate(110.5939,76.6515)">
<rect x="-0.0757" y="0.1713" width="0.1514" height="3.1620" ry="0.0500" fill="currentColor"/>
</g>
<g transform="translate(120.2726,72.9233)">
<text font-family="Hiragino Sans GB" font-size="1.9604" text-anchor="start" fill="currentColor">
<tspan>C</tspan>
</text>
</g>
<g transform="translate(120.2726,76.1515)">
<path transform="scale(0.0040, -0.0040)" d="M212 138c68 0 113 -38 113 -95c0 -90 -109 -181 -212 -181c-68 0 -113 38 -113 95c0 90 109 181 212 181z" fill="currentColor"/>
</g>
<g transform="translate(120.3483,76.6515)">
<rect x="-0.0757" y="-0.3287" width="0.1514" height="3.1508" ry="0.0500" fill="currentColor"/>
</g>
<g transform="translate(127.2092,76.6515)">
<path transform="scale(0.0040, -0.0040)" d="M212 138c68 0 113 -38 113 -95c0 -90 -109 -181 -212 -181c-68 0 -113 38 -113 95c0 90 109 181 212 181z" fill="currentColor"/>
</g>
<g transform="translate(126.6219,82.9427)">
<text font-family="Songti SC" font-size="2.7" text-anchor="start" fill="currentColor">
<tspan font-size="2.7">明</tspan>
</text>
</g>
<g transform="translate(127.2849,76.6515)">
<rect x="-0.0757" y="0.1713" width="0.1514" height="3.0066" ry="0.0500" fill="currentColor"/>
</g>
<g transform="translate(37.2329,78.7004)">
<polygon stroke-linejoin="round" stroke-linecap="round" stroke-width="0.1000" fill="currentColor" stroke="currentColor" points="1.1257 -0.2389 1.1257 0.1411 0.0500 0.1900 0.0500 -0.1900"/>
</g>
<g transform="translate(29.6724,79.83330000000001)">
<polygon stroke-linejoin="round" stroke-linecap="round" stroke-width="0.1000" fill="currentColor" stroke="currentColor" points="8.6863 -0.5536 8.6863 -0.1736 0.0500 0.1900 0.0500 -0.1900"/>
</g>
<g transform="translate(134.1233,72.9233)">
<text font-family="Hiragino Sans GB" font-size="1.9604" text-anchor="start" fill="currentColor">
<tspan>A</tspan>
</text>
</g>
<g transform="translate(135.5744,72.0324)">
<text font-family="Hiragino Sans GB" font-size="1.3856" text-anchor="start" fill="currentColor">
<tspan>7</tspan>
</text>
</g>
<g transform="translate(134.1233,77.1515)">
<path transform="scale(0.0040, -0.0040)" d="M212 138c68 0 113 -38 113 -95c0 -90 -109 -181 -212 -181c-68 0 -113 38 -113 95c0 90 109 181 212 181z" fill="currentColor"/>
</g>
<g transform="translate(133.536,82.9427)">
<text font-family="Songti SC" font-size="2.7" text-anchor="start" fill="currentColor">
<tspan font-size="2.7">你</tspan>
</text>
</g>
<g transform="translate(135.8656,77.1515)">
<path transform="scale(0.0040, -0.0040)" d="M0 0c0 30 25 55 55 55s55 -25 55 -55s-25 -55 -55 -55s-55 25 -55 55z" fill="currentColor"/>
</g>
<g transform="translate(135.3484,76.6515)">
<rect x="-0.0757" y="-2.9984" width="0.1514" height="3.3271" ry="0.0500" fill="currentColor"/>
</g>
<g transform="translate(142.7082,77.6515)">
<path transform="scale(0.0040, -0.0040)" d="M212 138c68 0 113 -38 113 -95c0 -90 -109 -181 -212 -181c-68 0 -113 38 -113 95c0 90 109 181 212 181z" fill="currentColor"/>
</g>
<g transform="translate(142.1209,82.9427)">
<text font-family="Songti SC" font-size="2.7" text-anchor="start" fill="currentColor">
<tspan font-size="2.7">的</tspan>
</text>
</g>
<g transform="translate(143.9333,76.6515)">
<rect x="-0.0757" y="-2.8198" width="0.1514" height="3.6485" ry="0.0500" fill="currentColor"/>
</g>
<g transform="translate(86.1554,76.6515)">
<path transform="scale(0.0040, -0.0040)" d="M212 138c68 0 113 -38 113 -95c0 -90 -109 -181 -212 -181c-68 0 -113 38 -113 95c0 90 109 181 212 181z" fill="currentColor"/>
</g>
<g transform="translate(43.7305,99.5442)">
<rect x="0.0000" y="-2.0000" width="0.2212" height="4.0000" ry="0.0000" fill="currentColor"/>
</g>
<g transform="translate(9.0337,102.5442)">
<rect x="70.9324" y="-0.1082" width="1.9513" height="0.2164" ry="0.1082" fill="currentColor"/>
</g>
<g transform="translate(9.0337,101.5442)">
<line stroke-linejoin="round" stroke-linecap="round" stroke-width="0.1164" stroke="currentColor" x1="0.0582" y1="0" x2="138.1582" y2="0"/>
</g>
<g transform="translate(9.0337,100.5442)">
<line stroke-linejoin="round" stroke-linecap="round" stroke-width="0.1164" stroke="currentColor" x1="0.0582" y1="0" x2="138.1582" y2="0"/>
</g>
<g transform="translate(9.0337,99.5442)">
<line stroke-linejoin="round" stroke-linecap="round" stroke-width="0.1164" stroke="currentColor" x1="0.0582" y1="0" x2="138.1582" y2="0"/>
</g>
<g transform="translate(9.0337,98.5442)">
<line stroke-linejoin="round" stroke-linecap="round" stroke-width="0.1164" stroke="currentColor" x1="0.0582" y1="0" x2="138.1582" y2="0"/>
</g>
<g transform="translate(9.0337,97.5442)">
<line stroke-linejoin="round" stroke-linecap="round" stroke-width="0.1164" stroke="currentColor" x1="0.0582" y1="0" x2="138.1582" y2="0"/>
</g>
<g transform="translate(146.5516,99.5442)">
<rect x="0.0000" y="-2.0000" width="0.6986" height="4.0000" ry="0.0000" fill="currentColor"/>
</g>
<g transform="translate(145.9811,99.5442)">
<rect x="0.0000" y="-2.0000" width="0.2212" height="4.0000" ry="0.0000" fill="currentColor"/>
</g>
<g transform="translate(126.4893,99.5442)">
<rect x="0.0000" y="-2.0000" width="0.2212" height="4.0000" ry="0.0000" fill="currentColor"/>
</g>
<g transform="translate(99.2349,99.5442)">
<rect x="0.0000" y="-2.0000" width="0.2212" height="4.0000" ry="0.0000" fill="currentColor"/>
</g>
<g transform="translate(71.0246,99.5442)">
<rect x="0.0000" y="-2.0000" width="0.2212" height="4.0000" ry="0.0000" fill="currentColor"/>
</g>
<g transform="translate(88.6069,95.5738)">
<text font-family="Hiragino Sans GB" font-size="1.9604" text-anchor="start" fill="currentColor">
<tspan>C</tspan>
</text>
</g>
<g transform="translate(9.8338,100.5442)">
<path transform="scale(0.0040, -0.0040)" d="M647 2c0 -114 -75 -214 -180 -248c3 -33 4 -66 4 -99c0 -21 0 -41 -1 -62c-7 -122 -92 -229 -211 -229c-108 0 -196 88 -196 197c0 58 54 103 113 103c54 0 95 -47 95 -103c0 -52 -43 -95 -95 -95c-9 0 -18 1 -27 4c25 -37 66 -61 113 -61c93 0 156 91 162 191 c1 19 2 38 2 57c0 29 -1 58 -3 87c-5 -1 -44 -8 -88 -8c-194 0 -333 181 -333 376c0 177 129 308 244 443c-34 103 -55 171 -55 347c0 114 54 221 147 288c8 6 18 5 25 -1c68 -79 135 -242 135 -356c0 -142 -84 -255 -176 -364c21 -68 40 -136 57 -205c1 0 5 1 10 1 c157 0 258 -129 258 -263zM463 -201c64 24 110 88 110 161c0 88 -64 175 -167 188c28 -133 49 -269 57 -349zM77 25c0 -144 141 -243 261 -243c1 0 46 -1 81 5c-7 66 -27 208 -60 362c-79 -8 -124 -60 -124 -118c0 -43 25 -88 80 -120c5 -5 7 -11 7 -17 c0 -12 -10 -23 -23 -23c-16 0 -128 62 -128 188c0 89 60 177 163 200c-14 57 -30 113 -47 169c-105 -122 -210 -243 -210 -403zM242 784c0 -39 10 -95 39 -188c78 97 142 199 142 324c0 33 0 60 -20 118c-99 -46 -161 -145 -161 -254z" fill="currentColor"/>
</g>
<g transform="translate(13.3337,97.5442)">
<path transform="scale(0.0040, -0.0040)" d="M0 116c0 10 6 19 16 23l40 15v154c0 12 9 21 21 21s21 -9 21 -21v-138l79 30v154c0 12 9 21 21 21s21 -9 21 -21v-138l22 8c3 1 6 2 9 2c13 0 25 -11 25 -25v-54c0 -10 -6 -20 -16 -24l-40 -15v-155l22 9c3 1 6 1 9 1c13 0 25 -11 25 -25v-54c0 -10 -6 -19 -16 -23 l-40 -15v-154c0 -12 -9 -21 -21 -21s-21 9 -21 21v138l-79 -30v-154c0 -12 -9 -21 -21 -21s-21 9 -21 21v138l-22 -8c-3 -1 -6 -2 -9 -2c-13 0 -25 11 -25 25v54c0 10 6 20 16 24l40 15v155l-22 -9c-3 -1 -6 -1 -9 -1c-13 0 -25 11 -25 25v54zM177 92l-79 -30v-154l79 30 v154z" fill="currentColor"/>
</g>
<g transform="translate(7.4119,96.5938)">
<text font-family="Songti SC" font-size="1.7463" text-anchor="start" fill="currentColor">
<tspan>12</tspan>
</text>
</g>
<g transform="translate(16.9338,95.5738)">
<text font-family="Hiragino Sans GB" font-size="1.9604" text-anchor="start" fill="currentColor">
<tspan>D</tspan>
</text>
</g>
<g transform="translate(16.9338,100.5442)">
<path transform="scale(0.0040, -0.0040)" d="M212 138c68 0 113 -38 113 -95c0 -90 -109 -181 -212 -181c-68 0 -113 38 -113 95c0 90 109 181 212 181z" fill="currentColor"/>
</g>
<g transform="translate(16.9338,106.4762)">
<text font-family="Songti SC" font-size="2.7" text-anchor="start" fill="currentColor">
<tspan font-size="2.7">爱；</tspan>
</text>
</g>
<g transform="translate(18.1589,99.5442)">
<rect x="-0.0757" y="-2.5000" width="0.1514" height="3.3287" ry="0.0500" fill="currentColor"/>
</g>
<g transform="translate(116.8923,96.3624)">
<polygon stroke-linejoin="round" stroke-linecap="round" stroke-width="0.1000" fill="currentColor" stroke="currentColor" points="7.1808 -0.5082 7.1808 -0.1282 0.0500 0.1900 0.0500 -0.1900"/>
</g>
<g transform="translate(122.9475,96.9142)">
<polygon stroke-linejoin="round" stroke-linecap="round" stroke-width="0.1000" fill="currentColor" stroke="currentColor" points="1.1257 -0.2417 1.1257 0.1383 0.0500 0.1900 0.0500 -0.1900"/>
</g>
<g transform="translate(24.9411,101.0442)">
<path transform="scale(0.0040, -0.0040)" d="M212 138c68 0 113 -38 113 -95c0 -90 -109 -181 -212 -181c-68 0 -113 38 -113 95c0 90 109 181 212 181z" fill="currentColor"/>
</g>
<g transform="translate(26.1662,99.5442)">
<rect x="-0.0757" y="-2.0000" width="0.1514" height="3.3287" ry="0.0500" fill="currentColor"/>
</g>
<g transform="translate(32.9483,95.5738)">
<text font-family="Hiragino Sans GB" font-size="1.9604" text-anchor="start" fill="currentColor">
<tspan>D</tspan>
</text>
</g>
<g transform="translate(34.4421,94.6829)">
<text font-family="Hiragino Sans GB" font-size="1.3856" text-anchor="start" fill="currentColor">
<tspan>7</tspan>
</text>
</g>
<g transform="translate(32.9483,100.5442)">
<path transform="scale(0.0040, -0.0040)" d="M212 138c68 0 113 -38 113 -95c0 -90 -109 -181 -212 -181c-68 0 -113 38 -113 95c0 90 109 181 212 181z" fill="currentColor"/>
</g>
<g transform="translate(32.3611,106.4762)">
<text font-family="Songti SC" font-size="2.7" text-anchor="start" fill="currentColor">
<tspan font-size="2.7">我</tspan>
</text>
</g>
<g transform="translate(34.6906,100.0442)">
<path transform="scale(0.0040, -0.0040)" d="M0 0c0 30 25 55 55 55s55 -25 55 -55s-25 -55 -55 -55s-55 25 -55 55z" fill="currentColor"/>
</g>
<g transform="translate(34.1735,99.5442)">
<rect x="-0.0757" y="-2.8201" width="0.1514" height="3.6488" ry="0.0500" fill="currentColor"/>
</g>
<g transform="translate(40.0278,100.0442)">
<path transform="scale(0.0040, -0.0040)" d="M212 138c68 0 113 -38 113 -95c0 -90 -109 -181 -212 -181c-68 0 -113 38 -113 95c0 90 109 181 212 181z" fill="currentColor"/>
</g>
<g transform="translate(39.4405,106.4762)">
<text font-family="Songti SC" font-size="2.7" text-anchor="start" fill="currentColor">
<tspan font-size="2.7">们</tspan>
</text>
</g>
<g transform="translate(41.253,99.5442)">
<rect x="-0.0757" y="-2.9981" width="0.1514" height="3.3268" ry="0.0500" fill="currentColor"/>
</g>
<g transform="translate(45.3445,95.5738)">
<text font-family="Hiragino Sans GB" font-size="1.9604" text-anchor="start" fill="currentColor">
<tspan>G</tspan>
</text>
</g>
<g transform="translate(45.3445,99.5442)">
<path transform="scale(0.0040, -0.0040)" d="M212 138c68 0 113 -38 113 -95c0 -90 -109 -181 -212 -181c-68 0 -113 38 -113 95c0 90 109 181 212 181z" fill="currentColor"/>
</g>
<g transform="translate(44.7572,106.4762)">
<text font-family="Songti SC" font-size="2.7" text-anchor="start" fill="currentColor">
<tspan font-size="2.7">一</tspan>
</text>
</g>
<g transform="translate(47.0868,99.0442)">
<path transform="scale(0.0040, -0.0040)" d="M0 0c0 30 25 55 55 55s55 -25 55 -55s-25 -55 -55 -55s-55 25 -55 55z" fill="currentColor"/>
</g>
<g transform="translate(45.4202,99.5442)">
<rect x="-0.0757" y="0.1713" width="0.1514" height="3.1620" ry="0.0500" fill="currentColor"/>
</g>
<g transform="translate(94.912,100.9618)">
<polygon stroke-linejoin="round" stroke-linecap="round" stroke-width="0.1000" fill="currentColor" stroke="currentColor" points="1.1257 -0.4257 1.1257 -0.0457 0.0500 0.1900 0.0500 -0.1900"/>
</g>
<g transform="translate(88.6069,103.0442)">
<polygon stroke-linejoin="round" stroke-linecap="round" stroke-width="0.1000" fill="currentColor" stroke="currentColor" points="7.4308 -1.6900 7.4308 -1.3100 0.0500 0.1900 0.0500 -0.1900"/>
</g>
<g transform="translate(54.637,100.0442)">
<path transform="scale(0.0040, -0.0040)" d="M212 138c68 0 113 -38 113 -95c0 -90 -109 -181 -212 -181c-68 0 -113 38 -113 95c0 90 109 181 212 181z" fill="currentColor"/>
</g>
<g transform="translate(54.0497,106.4762)">
<text font-family="Songti SC" font-size="2.7" text-anchor="start" fill="currentColor">
<tspan font-size="2.7">同</tspan>
</text>
</g>
<g transform="translate(55.8621,99.5442)">
<rect x="-0.0757" y="-3.0000" width="0.1514" height="3.3287" ry="0.0500" fill="currentColor"/>
</g>
<g transform="translate(55.9378,96.5942)">
<path transform="scale(0.0040, -0.0040)" d="M0 -250h-19v250h19c0 -197 207 -334 207 -531c0 -71 -15 -140 -41 -206c-5 -9 -14 -13 -22 -13c-14 0 -29 12 -26 30c26 60 43 124 43 189c0 102 -92 206 -161 281z" fill="currentColor"/>
</g>
<g transform="translate(60.4088,95.5738)">
<text font-family="Hiragino Sans GB" font-size="1.9604" text-anchor="start" fill="currentColor">
<tspan>C</tspan>
</text>
</g>
<g transform="translate(60.4088,100.5442)">
<path transform="scale(0.0040, -0.0040)" d="M212 138c68 0 113 -38 113 -95c0 -90 -109 -181 -212 -181c-68 0 -113 38 -113 95c0 90 109 181 212 181z" fill="currentColor"/>
</g>
<g transform="translate(59.8215,106.4762)">
<text font-family="Songti SC" font-size="2.7" text-anchor="start" fill="currentColor">
<tspan font-size="2.7">领</tspan>
</text>
</g>
<g transform="translate(62.1511,100.0442)">
<path transform="scale(0.0040, -0.0040)" d="M0 0c0 30 25 55 55 55s55 -25 55 -55s-25 -55 -55 -55s-55 25 -55 55z" fill="currentColor"/>
</g>
<g transform="translate(61.6339,99.5442)">
<rect x="-0.0757" y="-2.1778" width="0.1514" height="3.0065" ry="0.0500" fill="currentColor"/>
</g>
<g transform="translate(67.2383,101.5442)">
<path transform="scale(0.0040, -0.0040)" d="M212 138c68 0 113 -38 113 -95c0 -90 -109 -181 -212 -181c-68 0 -113 38 -113 95c0 90 109 181 212 181z" fill="currentColor"/>
</g>
<g transform="translate(66.651,106.4762)">
<text font-family="Songti SC" font-size="2.7" text-anchor="start" fill="currentColor">
<tspan font-size="2.7">你</tspan>
</text>
</g>
<g transform="translate(68.4634,99.5442)">
<rect x="-0.0757" y="-1.8222" width="0.1514" height="3.6508" ry="0.0500" fill="currentColor"/>
</g>
<g transform="translate(72.5341,95.5738)">
<text font-family="Hiragino Sans GB" font-size="1.9604" text-anchor="start" fill="currentColor">
<tspan>G</tspan>
</text>
</g>
<g transform="translate(72.5341,102.0442)">
<path transform="scale(0.0040, -0.0040)" d="M212 138c68 0 113 -38 113 -95c0 -90 -109 -181 -212 -181c-68 0 -113 38 -113 95c0 90 109 181 212 181z" fill="currentColor"/>
</g>
<g transform="translate(71.9468,106.4762)">
<text font-family="Songti SC" font-size="2.7" text-anchor="start" fill="currentColor">
<tspan font-size="2.7">恩</tspan>
</text>
</g>
<g transform="translate(73.7593,99.5442)">
<rect x="-0.0757" y="-1.0000" width="0.1514" height="3.3287" ry="0.0500" fill="currentColor"/>
</g>
<g transform="translate(61.5583,97.3624)">
<polygon stroke-linejoin="round" stroke-linecap="round" stroke-width="0.1000" fill="currentColor" stroke="currentColor" points="6.9308 0.1736 6.9308 0.5536 0.0500 0.1900 0.0500 -0.1900"/>
</g>
<g transform="translate(67.3634,98.483)">
<polygon stroke-linejoin="round" stroke-linecap="round" stroke-width="0.1000" fill="currentColor" stroke="currentColor" points="1.1257 -0.1288 1.1257 0.2512 0.0500 0.1900 0.0500 -0.1900"/>
</g>
<g transform="translate(80.2914,103.0442)">
<path transform="scale(0.0040, -0.0040)" d="M212 138c68 0 113 -38 113 -95c0 -90 -109 -181 -212 -181c-68 0 -113 38 -113 95c0 90 109 181 212 181z" fill="currentColor"/>
</g>
<g transform="translate(78.4664,106.4762)">
<text font-family="Songti SC" font-size="2.7" text-anchor="start" fill="currentColor">
<tspan font-size="2.7">惠，</tspan>
</text>
</g>
<g transform="translate(81.5166,99.5442)">
<rect x="-0.0757" y="-0.0000" width="0.1514" height="3.3287" ry="0.0500" fill="currentColor"/>
</g>
<g transform="translate(88.0196,106.4762)">
<text font-family="Songti SC" font-size="2.7" text-anchor="start" fill="currentColor">
<tspan font-size="2.7">我</tspan>
</text>
</g>
<g transform="translate(90.3492,100.0442)">
<path transform="scale(0.0040, -0.0040)" d="M0 0c0 30 25 55 55 55s55 -25 55 -55s-25 -55 -55 -55s-55 25 -55 55z" fill="currentColor"/>
</g>
<g transform="translate(88.6826,99.5442)">
<rect x="-0.0757" y="1.1713" width="0.1514" height="2.3135" ry="0.0500" fill="currentColor"/>
</g>
<g transform="translate(95.9364,98.0442)">
<path transform="scale(0.0040, -0.0040)" d="M212 138c68 0 113 -38 113 -95c0 -90 -109 -181 -212 -181c-68 0 -113 38 -113 95c0 90 109 181 212 181z" fill="currentColor"/>
</g>
<g transform="translate(95.3491,106.4762)">
<text font-family="Songti SC" font-size="2.7" text-anchor="start" fill="currentColor">
<tspan font-size="2.7">们</tspan>
</text>
</g>
<g transform="translate(96.012,99.5442)">
<rect x="-0.0757" y="-1.3287" width="0.1514" height="3.3438" ry="0.0500" fill="currentColor"/>
</g>
<g transform="translate(100.9061,95.5738)">
<text font-family="Hiragino Sans GB" font-size="1.9604" text-anchor="start" fill="currentColor">
<tspan>G</tspan>
</text>
</g>
<g transform="translate(100.9061,98.5442)">
<path transform="scale(0.0040, -0.0040)" d="M212 138c68 0 113 -38 113 -95c0 -90 -109 -181 -212 -181c-68 0 -113 38 -113 95c0 90 109 181 212 181z" fill="currentColor"/>
</g>
<g transform="translate(100.3188,106.4762)">
<text font-family="Songti SC" font-size="2.7" text-anchor="start" fill="currentColor">
<tspan font-size="2.7">一</tspan>
</text>
</g>
<g transform="translate(102.6484,98.0442)">
<path transform="scale(0.0040, -0.0040)" d="M0 0c0 30 25 55 55 55s55 -25 55 -55s-25 -55 -55 -55s-55 25 -55 55z" fill="currentColor"/>
</g>
<g transform="translate(100.9818,99.5442)">
<rect x="-0.0757" y="-0.8287" width="0.1514" height="3.3287" ry="0.0500" fill="currentColor"/>
</g>
<g transform="translate(34.0978,96.726)">
<polygon stroke-linejoin="round" stroke-linecap="round" stroke-width="0.1000" fill="currentColor" stroke="currentColor" points="7.1808 -0.3718 7.1808 0.0082 0.0500 0.1900 0.0500 -0.1900"/>
</g>
<g transform="translate(40.153,97.392)">
<polygon stroke-linejoin="round" stroke-linecap="round" stroke-width="0.1000" fill="currentColor" stroke="currentColor" points="1.1257 -0.2196 1.1257 0.1604 0.0500 0.1900 0.0500 -0.1900"/>
</g>
<g transform="translate(109.971,99.5442)">
<path transform="scale(0.0040, -0.0040)" d="M212 138c68 0 113 -38 113 -95c0 -90 -109 -181 -212 -181c-68 0 -113 38 -113 95c0 90 109 181 212 181z" fill="currentColor"/>
</g>
<g transform="translate(109.3838,106.4762)">
<text font-family="Songti SC" font-size="2.7" text-anchor="start" fill="currentColor">
<tspan font-size="2.7">同</tspan>
</text>
</g>
<g transform="translate(110.0467,99.5442)">
<rect x="-0.0757" y="0.1713" width="0.1514" height="3.2037" ry="0.0500" fill="currentColor"/>
</g>
<g transform="translate(110.1224,102.8692)">
<path transform="scale(0.0040, -0.0040)" d="M0 0h-19v250h19v-250zM0 0v250c95 59 220 149 220 259c0 56 -16 111 -41 161c-3 18 12 30 26 30c8 0 17 -4 22 -13c25 -56 40 -116 40 -178c0 -203 -267 -306 -267 -509z" fill="currentColor"/>
</g>
<g transform="translate(115.7429,95.5738)">
<text font-family="Hiragino Sans GB" font-size="1.9604" text-anchor="start" fill="currentColor">
<tspan>D</tspan>
</text>
</g>
<g transform="translate(117.2366,94.6829)">
<text font-family="Hiragino Sans GB" font-size="1.3856" text-anchor="start" fill="currentColor">
<tspan>7</tspan>
</text>
</g>
<g transform="translate(115.7429,100.0442)">
<path transform="scale(0.0040, -0.0040)" d="M212 138c68 0 113 -38 113 -95c0 -90 -109 -181 -212 -181c-68 0 -113 38 -113 95c0 90 109 181 212 181z" fill="currentColor"/>
</g>
<g transform="translate(115.1556,106.4762)">
<text font-family="Songti SC" font-size="2.7" text-anchor="start" fill="currentColor">
<tspan font-size="2.7">来</tspan>
</text>
</g>
<g transform="translate(117.4851,100.0442)">
<path transform="scale(0.0040, -0.0040)" d="M0 0c0 30 25 55 55 55s55 -25 55 -55s-25 -55 -55 -55s-55 25 -55 55z" fill="currentColor"/>
</g>
<g transform="translate(116.968,99.5442)">
<rect x="-0.0757" y="-3.1851" width="0.1514" height="3.5138" ry="0.0500" fill="currentColor"/>
</g>
<g transform="translate(16.9338,99.5442)">
<path stroke-width="0.0931" stroke-linejoin="round" stroke-linecap="round" stroke="currentColor" fill="currentColor" d="M0.6315 2.2027C2.1415 3.6191 7.0110 3.8320 8.6388 2.5527L8.6388 2.5527C7.0171 3.6924 2.1476 3.4795 0.6315 2.2027z"/>
</g>
<g transform="translate(122.8223,99.5442)">
<path transform="scale(0.0040, -0.0040)" d="M212 138c68 0 113 -38 113 -95c0 -90 -109 -181 -212 -181c-68 0 -113 38 -113 95c0 90 109 181 212 181z" fill="currentColor"/>
</g>
<g transform="translate(122.2351,106.4762)">
<text font-family="Songti SC" font-size="2.7" text-anchor="start" fill="currentColor">
<tspan font-size="2.7">敬</tspan>
</text>
</g>
<g transform="translate(124.0475,99.5442)">
<rect x="-0.0757" y="-3.4967" width="0.1514" height="3.3253" ry="0.0500" fill="currentColor"/>
</g>
<g transform="translate(127.9988,95.5738)">
<text font-family="Hiragino Sans GB" font-size="1.9604" text-anchor="start" fill="currentColor">
<tspan>G</tspan>
</text>
</g>
<g transform="translate(127.9988,100.5442)">
<path transform="scale(0.0040, -0.0040)" d="M310 63c0 22 -17 40 -40 40c-38 0 -197 -107 -224 -139c-7 -8 -10 -17 -10 -27c0 -22 17 -40 40 -40c38 0 197 107 224 139c7 8 10 17 10 27zM256 138c55 0 90 -22 90 -77c0 -25 -15 -112 -73 -151c-34 -23 -92 -48 -183 -48c-55 0 -90 22 -90 77c0 25 15 112 73 151 c34 23 92 48 183 48z" fill="currentColor"/>
</g>
<g transform="translate(126.2153,106.4762)">
<text font-family="Songti SC" font-size="2.7" text-anchor="start" fill="currentColor">
<tspan font-size="2.7">拜。</tspan>
</text>
</g>
<g transform="translate(129.307,99.5442)">
<rect x="-0.0757" y="-2.5000" width="0.1514" height="3.2544" ry="0.0500" fill="currentColor"/>
</g>
<g transform="translate(138.3246,99.5442)">
<path transform="scale(0.0040, -0.0040)" d="M-9 78c0 59 124 84 124 182c0 25 -9 50 -26 70l-31 37c-3 4 -4 8 -4 12c0 10 9 18 19 18c5 0 9 -1 13 -6l149 -178c7 -9 11 -17 11 -26c0 -59 -124 -84 -124 -182c0 -25 9 -51 26 -71l79 -94c3 -4 4 -8 4 -12c0 -10 -9 -18 -19 -18c-11 0 -38 40 -102 40 c-23 0 -55 -4 -55 -65c0 -33 11 -73 27 -92c8 -9 -6 -20 -14 -11c-44 53 -92 145 -92 199c0 41 26 43 46 43c30 0 69 -9 106 -23l-126 151c-7 9 -11 17 -11 26z" fill="currentColor"/>
</g>
<g transform="translate(88.6069,100.5442)">
<path transform="scale(0.0040, -0.0040)" d="M212 138c68 0 113 -38 113 -95c0 -90 -109 -181 -212 -181c-68 0 -113 38 -113 95c0 90 109 181 212 181z" fill="currentColor"/>
</g>
<g transform="translate(67.8148,147.5442)">
<text font-family="Songti SC" font-size="1.5560" text-anchor="start" fill="currentColor">
<tspan> </tspan>
</text>
</g>
<g transform="translate(67.8148,173.5442)">
<text font-family="Songti SC" font-size="1.5560" text-anchor="start" fill="currentColor">
<tspan> </tspan>
</text>
</g>
<g transform="translate(69.8408,231.9677)">
<text font-family="Trebuchet MS" font-size="2.2001" text-anchor="start" fill="currentColor">
<tspan>www.hymnal.net</tspan>
</text>
</g>
<g transform="translate(16.1245,40.2929)">
<text font-family="Songti SC" font-weight="bold" font-size="2.7" text-anchor="start" fill="currentColor">2.</text></g>
<g transform="translate(18.6183,40.2929)">
<text font-family="Songti SC" font-size="2.7" text-anchor="start" fill="currentColor">我</text></g>
<g transform="translate(28.2922,40.2929)">
<text font-family="Songti SC" font-size="2.7" text-anchor="start" fill="currentColor">们</text></g>
<g transform="translate(34.9889,40.2929)">
<text font-family="Songti SC" font-size="2.7" text-anchor="start" fill="currentColor">记</text></g>
<g transform="translate(47.8795,40.2929)">
<text font-family="Songti SC" font-size="2.7" text-anchor="start" fill="currentColor">念</text></g>
<g transform="translate(55.6587,40.2929)">
<text font-family="Songti SC" font-size="2.7" text-anchor="start" fill="currentColor">你</text></g>
<g transform="translate(65.0826,40.2929)">
<text font-family="Songti SC" font-size="2.7" text-anchor="start" fill="currentColor">曾</text></g>
<g transform="translate(71.7585,40.2929)">
<text font-family="Songti SC" font-size="2.7" text-anchor="start" fill="currentColor">临</text></g>
<g transform="translate(82.5267,40.2929)">
<text font-family="Songti SC" font-size="2.7" text-anchor="start" fill="currentColor">世</text></g>
<g transform="translate(93.795,40.2929)">
<text font-family="Songti SC" font-size="2.7" text-anchor="start" fill="currentColor">成</text></g>
<g transform="translate(103.469,40.2929)">
<text font-family="Songti SC" font-size="2.7" text-anchor="start" fill="currentColor">了</text></g>
<g transform="translate(110.1657,40.2929)">
<text font-family="Songti SC" font-size="2.7" text-anchor="start" fill="currentColor">奴</text></g>
<g transform="translate(123.0563,40.2929)">
<text font-family="Songti SC" font-size="2.7" text-anchor="start" fill="currentColor">仆</text></g>
<g transform="translate(130.8354,40.2929)">
<text font-family="Songti SC" font-size="2.7" text-anchor="start" fill="currentColor">历</text></g>
<g transform="translate(138.8645,40.2929)">
<text font-family="Songti SC" font-size="2.7" text-anchor="start" fill="currentColor">艰</text></g>
<g transform="translate(15.1503,64.0488)">
<text font-family="Songti SC" font-size="2.7" text-anchor="start" fill="currentColor">苦</text></g>
<g transform="translate(29.5361,64.0488)">
<text font-family="Songti SC" font-size="2.7" text-anchor="start" fill="currentColor">你</text></g>
<g transform="translate(38.4662,64.0488)">
<text font-family="Songti SC" font-size="2.7" text-anchor="start" fill="currentColor">受</text></g>
<g transform="translate(44.7673,64.0488)">
<text font-family="Songti SC" font-size="2.7" text-anchor="start" fill="currentColor">试</text></g>
<g transform="translate(56.6264,64.0488)">
<text font-family="Songti SC" font-size="2.7" text-anchor="start" fill="currentColor">探</text></g>
<g transform="translate(63.8301,64.0488)">
<text font-family="Songti SC" font-size="2.7" text-anchor="start" fill="currentColor">你</text></g>
<g transform="translate(72.5103,64.0488)">
<text font-family="Songti SC" font-size="2.7" text-anchor="start" fill="currentColor">常</text></g>
<g transform="translate(78.7906,64.0488)">
<text font-family="Songti SC" font-size="2.7" text-anchor="start" fill="currentColor">禁</text></g>
<g transform="translate(87.458,64.0488)">
<text font-family="Songti SC" font-size="2.7" text-anchor="start" fill="currentColor">食</text></g>
<g transform="translate(99.159,64.0488)">
<text font-family="Songti SC" font-size="2.7" text-anchor="start" fill="currentColor">劳</text></g>
<g transform="translate(108.3392,64.0488)">
<text font-family="Songti SC" font-size="2.7" text-anchor="start" fill="currentColor">碌</text></g>
<g transform="translate(114.2933,64.0488)">
<text font-family="Songti SC" font-size="2.7" text-anchor="start" fill="currentColor">并</text></g>
<g transform="translate(125.9249,64.0488)">
<text font-family="Songti SC" font-size="2.7" text-anchor="start" fill="currentColor">无</text></g>
<g transform="translate(133.1286,64.0488)">
<text font-family="Songti SC" font-size="2.7" text-anchor="start" fill="currentColor">枕</text></g>
<g transform="translate(142.0588,64.0488)">
<text font-family="Songti SC" font-size="2.7" text-anchor="start" fill="currentColor">首</text></g>
<g transform="translate(15.1503,86.9427)">
<text font-family="Songti SC" font-size="2.7" text-anchor="start" fill="currentColor">处</text></g>
<g transform="translate(29.0851,86.9427)">
<text font-family="Songti SC" font-size="2.7" text-anchor="start" fill="currentColor">我</text></g>
<g transform="translate(37.67,86.9427)">
<text font-family="Songti SC" font-size="2.7" text-anchor="start" fill="currentColor">们</text></g>
<g transform="translate(43.5119,86.9427)">
<text font-family="Songti SC" font-size="2.7" text-anchor="start" fill="currentColor">记</text></g>
<g transform="translate(54.9146,86.9427)">
<text font-family="Songti SC" font-size="2.7" text-anchor="start" fill="currentColor">念</text></g>
<g transform="translate(61.8512,86.9427)">
<text font-family="Songti SC" font-size="2.7" text-anchor="start" fill="currentColor">你</text></g>
<g transform="translate(70.1861,86.9427)">
<text font-family="Songti SC" font-size="2.7" text-anchor="start" fill="currentColor">寻</text></g>
<g transform="translate(76.0637,86.9427)">
<text font-family="Songti SC" font-size="2.7" text-anchor="start" fill="currentColor">罪</text></g>
<g transform="translate(84.3304,86.9427)">
<text font-family="Songti SC" font-size="2.7" text-anchor="start" fill="currentColor">人</text></g>
<g transform="translate(95.2286,86.9427)">
<text font-family="Songti SC" font-size="2.7" text-anchor="start" fill="currentColor">常</text></g>
<g transform="translate(103.8135,86.9427)">
<text font-family="Songti SC" font-size="2.7" text-anchor="start" fill="currentColor">受</text></g>
<g transform="translate(110.5182,86.9427)">
<text font-family="Songti SC" font-size="2.7" text-anchor="start" fill="currentColor">顶</text></g>
<g transform="translate(126.6219,86.9427)">
<text font-family="Songti SC" font-size="2.7" text-anchor="start" fill="currentColor">撞</text></g>
<g transform="translate(133.536,86.9427)">
<text font-family="Songti SC" font-size="2.7" text-anchor="start" fill="currentColor">和</text></g>
<g transform="translate(142.1209,86.9427)">
<text font-family="Songti SC" font-size="2.7" text-anchor="start" fill="currentColor">饥</text></g>
<g transform="translate(16.9338,110.4762)">
<text font-family="Songti SC" font-size="2.7" text-anchor="start" fill="currentColor">渴</text></g>
<g transform="translate(32.3611,110.4762)">
<text font-family="Songti SC" font-size="2.7" text-anchor="start" fill="currentColor">如</text></g>
<g transform="translate(39.4405,110.4762)">
<text font-family="Songti SC" font-size="2.7" text-anchor="start" fill="currentColor">有</text></g>
<g transform="translate(44.7572,110.4762)">
<text font-family="Songti SC" font-size="2.7" text-anchor="start" fill="currentColor">一</text></g>
<g transform="translate(54.0497,110.4762)">
<text font-family="Songti SC" font-size="2.7" text-anchor="start" fill="currentColor">人</text></g>
<g transform="translate(59.8215,110.4762)">
<text font-family="Songti SC" font-size="2.7" text-anchor="start" fill="currentColor">悔</text></g>
<g transform="translate(66.651,110.4762)">
<text font-family="Songti SC" font-size="2.7" text-anchor="start" fill="currentColor">改</text></g>
<g transform="translate(71.9468,110.4762)">
<text font-family="Songti SC" font-size="2.7" text-anchor="start" fill="currentColor">归</text></g>
<g transform="translate(78.4664,110.4762)">
<text font-family="Songti SC" font-size="2.7" text-anchor="start" fill="currentColor">神</text></g>
<g transform="translate(88.0196,110.4762)">
<text font-family="Songti SC" font-size="2.7" text-anchor="start" fill="currentColor">你</text></g>
<g transform="translate(95.3491,110.4762)">
<text font-family="Songti SC" font-size="2.7" text-anchor="start" fill="currentColor">认</text></g>
<g transform="translate(100.3188,110.4762)">
<text font-family="Songti SC" font-size="2.7" text-anchor="start" fill="currentColor">流</text></g>
<g transform="translate(109.3838,110.4762)">
<text font-family="Songti SC" font-size="2.7" text-anchor="start" fill="currentColor">血</text></g>
<g transform="translate(115.1556,110.4762)">
<text font-family="Songti SC" font-size="2.7" text-anchor="start" fill="currentColor">也</text></g>
<g transform="translate(122.2351,110.4762)">
<text font-family="Songti SC" font-size="2.7" text-anchor="start" fill="currentColor">值</text></g>
<g transform="translate(126.2153,110.4762)">
<text font-family="Songti SC" font-size="2.7" text-anchor="start" fill="currentColor">得</text></g>
<g transform="translate(16.1245,44.2929)">
<text font-family="Songti SC" font-weight="bold" font-size="2.7" text-anchor="start" fill="currentColor">3.</text></g>
<g transform="translate(18.6183,44.2929)">
<text font-family="Songti SC" font-size="2.7" text-anchor="start" fill="currentColor">我</text></g>
<g transform="translate(28.2922,44.2929)">
<text font-family="Songti SC" font-size="2.7" text-anchor="start" fill="currentColor">们</text></g>
<g transform="translate(34.9889,44.2929)">
<text font-family="Songti SC" font-size="2.7" text-anchor="start" fill="currentColor">记</text></g>
<g transform="translate(47.8795,44.2929)">
<text font-family="Songti SC" font-size="2.7" text-anchor="start" fill="currentColor">念</text></g>
<g transform="translate(55.6587,44.2929)">
<text font-family="Songti SC" font-size="2.7" text-anchor="start" fill="currentColor">你</text></g>
<g transform="translate(65.0826,44.2929)">
<text font-family="Songti SC" font-size="2.7" text-anchor="start" fill="currentColor">钉</text></g>
<g transform="translate(71.7585,44.2929)">
<text font-family="Songti SC" font-size="2.7" text-anchor="start" fill="currentColor">十</text></g>
<g transform="translate(82.5267,44.2929)">
<text font-family="Songti SC" font-size="2.7" text-anchor="start" fill="currentColor">架</text></g>
<g transform="translate(93.795,44.2929)">
<text font-family="Songti SC" font-size="2.7" text-anchor="start" fill="currentColor">被</text></g>
<g transform="translate(103.469,44.2929)">
<text font-family="Songti SC" font-size="2.7" text-anchor="start" fill="currentColor">人</text></g>
<g transform="translate(110.1657,44.2929)">
<text font-family="Songti SC" font-size="2.7" text-anchor="start" fill="currentColor">定</text></g>
<g transform="translate(123.0563,44.2929)">
<text font-family="Songti SC" font-size="2.7" text-anchor="start" fill="currentColor">罪</text></g>
<g transform="translate(130.8354,44.2929)">
<text font-family="Songti SC" font-size="2.7" text-anchor="start" fill="currentColor">被</text></g>
<g transform="translate(138.8645,44.2929)">
<text font-family="Songti SC" font-size="2.7" text-anchor="start" fill="currentColor">神</text></g>
<g transform="translate(15.1503,68.0488)">
<text font-family="Songti SC" font-size="2.7" text-anchor="start" fill="currentColor">弃</text></g>
<g transform="translate(29.5361,68.0488)">
<text font-family="Songti SC" font-size="2.7" text-anchor="start" fill="currentColor">独</text></g>
<g transform="translate(38.4662,68.0488)">
<text font-family="Songti SC" font-size="2.7" text-anchor="start" fill="currentColor">自</text></g>
<g transform="translate(44.7673,68.0488)">
<text font-family="Songti SC" font-size="2.7" text-anchor="start" fill="currentColor">支</text></g>
<g transform="translate(56.6264,68.0488)">
<text font-family="Songti SC" font-size="2.7" text-anchor="start" fill="currentColor">付</text></g>
<g transform="translate(63.8301,68.0488)">
<text font-family="Songti SC" font-size="2.7" text-anchor="start" fill="currentColor">我</text></g>
<g transform="translate(72.5103,68.0488)">
<text font-family="Songti SC" font-size="2.7" text-anchor="start" fill="currentColor">们</text></g>
<g transform="translate(78.7906,68.0488)">
<text font-family="Songti SC" font-size="2.7" text-anchor="start" fill="currentColor">赎</text></g>
<g transform="translate(87.458,68.0488)">
<text font-family="Songti SC" font-size="2.7" text-anchor="start" fill="currentColor">价</text></g>
<g transform="translate(99.159,68.0488)">
<text font-family="Songti SC" font-size="2.7" text-anchor="start" fill="currentColor">你</text></g>
<g transform="translate(108.3392,68.0488)">
<text font-family="Songti SC" font-size="2.7" text-anchor="start" fill="currentColor">显</text></g>
<g transform="translate(114.2933,68.0488)">
<text font-family="Songti SC" font-size="2.7" text-anchor="start" fill="currentColor">你</text></g>
<g transform="translate(125.9249,68.0488)">
<text font-family="Songti SC" font-size="2.7" text-anchor="start" fill="currentColor">爱</text></g>
<g transform="translate(133.1286,68.0488)">
<text font-family="Songti SC" font-size="2.7" text-anchor="start" fill="currentColor">的</text></g>
<g transform="translate(142.0588,68.0488)">
<text font-family="Songti SC" font-size="2.7" text-anchor="start" fill="currentColor">无</text></g>
<g transform="translate(15.1503,90.9427)">
<text font-family="Songti SC" font-size="2.7" text-anchor="start" fill="currentColor">极</text></g>
<g transform="translate(29.0851,90.9427)">
<text font-family="Songti SC" font-size="2.7" text-anchor="start" fill="currentColor">我</text></g>
<g transform="translate(37.67,90.9427)">
<text font-family="Songti SC" font-size="2.7" text-anchor="start" fill="currentColor">们</text></g>
<g transform="translate(43.5119,90.9427)">
<text font-family="Songti SC" font-size="2.7" text-anchor="start" fill="currentColor">记</text></g>
<g transform="translate(54.9146,90.9427)">
<text font-family="Songti SC" font-size="2.7" text-anchor="start" fill="currentColor">念</text></g>
<g transform="translate(61.8512,90.9427)">
<text font-family="Songti SC" font-size="2.7" text-anchor="start" fill="currentColor">你</text></g>
<g transform="translate(70.1861,90.9427)">
<text font-family="Songti SC" font-size="2.7" text-anchor="start" fill="currentColor">今</text></g>
<g transform="translate(76.0637,90.9427)">
<text font-family="Songti SC" font-size="2.7" text-anchor="start" fill="currentColor">在</text></g>
<g transform="translate(84.3304,90.9427)">
<text font-family="Songti SC" font-size="2.7" text-anchor="start" fill="currentColor">天</text></g>
<g transform="translate(95.2286,90.9427)">
<text font-family="Songti SC" font-size="2.7" text-anchor="start" fill="currentColor">在</text></g>
<g transform="translate(103.8135,90.9427)">
<text font-family="Songti SC" font-size="2.7" text-anchor="start" fill="currentColor">神</text></g>
<g transform="translate(110.5182,90.9427)">
<text font-family="Songti SC" font-size="2.7" text-anchor="start" fill="currentColor">右</text></g>
<g transform="translate(126.6219,90.9427)">
<text font-family="Songti SC" font-size="2.7" text-anchor="start" fill="currentColor">边</text></g>
<g transform="translate(133.536,90.9427)">
<text font-family="Songti SC" font-size="2.7" text-anchor="start" fill="currentColor">常</text></g>
<g transform="translate(142.1209,90.9427)">
<text font-family="Songti SC" font-size="2.7" text-anchor="start" fill="currentColor">代</text></g>
<g transform="translate(16.9338,114.4762)">
<text font-family="Songti SC" font-size="2.7" text-anchor="start" fill="currentColor">求</text></g>
<g transform="translate(32.3611,114.4762)">
<text font-family="Songti SC" font-size="2.7" text-anchor="start" fill="currentColor">你</text></g>
<g transform="translate(39.4405,114.4762)">
<text font-family="Songti SC" font-size="2.7" text-anchor="start" fill="currentColor">曾</text></g>
<g transform="translate(44.7572,114.4762)">
<text font-family="Songti SC" font-size="2.7" text-anchor="start" fill="currentColor">应</text></g>
<g transform="translate(54.0497,114.4762)">
<text font-family="Songti SC" font-size="2.7" text-anchor="start" fill="currentColor">许</text></g>
<g transform="translate(59.8215,114.4762)">
<text font-family="Songti SC" font-size="2.7" text-anchor="start" fill="currentColor">还</text></g>
<g transform="translate(66.651,114.4762)">
<text font-family="Songti SC" font-size="2.7" text-anchor="start" fill="currentColor">要</text></g>
<g transform="translate(71.9468,114.4762)">
<text font-family="Songti SC" font-size="2.7" text-anchor="start" fill="currentColor">显</text></g>
<g transform="translate(78.4664,114.4762)">
<text font-family="Songti SC" font-size="2.7" text-anchor="start" fill="currentColor">现</text></g>
<g transform="translate(88.0196,114.4762)">
<text font-family="Songti SC" font-size="2.7" text-anchor="start" fill="currentColor">主</text></g>
<g transform="translate(95.3491,114.4762)">
<text font-family="Songti SC" font-size="2.7" text-anchor="start" fill="currentColor">阿</text></g>
<g transform="translate(100.3188,114.4762)">
<text font-family="Songti SC" font-size="2.7" text-anchor="start" fill="currentColor">求</text></g>
<g transform="translate(109.3838,114.4762)">
<text font-family="Songti SC" font-size="2.7" text-anchor="start" fill="currentColor">你</text></g>
<g transform="translate(115.1556,114.4762)">
<text font-family="Songti SC" font-size="2.7" text-anchor="start" fill="currentColor">快</text></g>
<g transform="translate(122.2351,114.4762)">
<text font-family="Songti SC" font-size="2.7" text-anchor="start" fill="currentColor">成</text></g>
<g transform="translate(126.2153,114.4762)">
<text font-family="Songti SC" font-size="2.7" text-anchor="start" fill="currentColor">就</text></g>
</svg>