<?xml version='1.0' encoding='UTF-8'?>
<svg xmlns="http://www.w3.org/2000/svg" xmlns:xlink="http://www.w3.org/1999/xlink" version="1.2" width="215.90mm" height="279.40mm" viewBox="0.0000 -0.0000 153.5737 198.7425">
<style type="text/css">

tspan { white-space: pre; }

</style>
<g transform="translate(65.6796, 9.7380)">
<text font-family="Songti SC" font-weight="bold" font-size="3.1113" text-anchor="start" fill="currentColor">
<tspan>阿利路亚我已得到</tspan>
</text>
</g>
<g transform="translate(61.4971, 13.2380)">
<text font-family="Songti SC" font-weight="bold" font-size="2.2001" text-anchor="start" fill="currentColor">
<tspan>得救的证实与快乐－因基督得满足</tspan>
</text>
</g>
<g transform="translate(135.2146, 17.7743)">
<text font-family="Songti SC" font-size="5.8741" text-anchor="start" fill="currentColor">
<tspan>C257</tspan>
</text>
</g>
<g transform="translate(9.0337, 19.7163)">
<text font-family="Songti SC" font-weight="bold" font-style="italic" font-size="2.2001" text-anchor="start" fill="currentColor">
<tspan>(吉他: Capo 1)</tspan>
</text>
</g>
<g transform="translate(33.7308, 29.2384)">
<rect x="0.0000" y="-2.0000" width="0.2212" height="4.0000" ry="0.0000" fill="currentColor"/>
</g>
<g transform="translate(9.0337, 31.2384)">
<line stroke-linejoin="round" stroke-linecap="round" stroke-width="0.1164" stroke="currentColor" x1="0.0582" y1="0" x2="138.1582" y2="0"/>
</g>
<g transform="translate(9.0337, 30.2384)">
<line stroke-linejoin="round" stroke-linecap="round" stroke-width="0.1164" stroke="currentColor" x1="0.0582" y1="0" x2="138.1582" y2="0"/>
</g>
<g transform="translate(9.0337, 29.2384)">
<line stroke-linejoin="round" stroke-linecap="round" stroke-width="0.1164" stroke="currentColor" x1="0.0582" y1="0" x2="138.1582" y2="0"/>
</g>
<g transform="translate(9.0337, 28.2384)">
<line stroke-linejoin="round" stroke-linecap="round" stroke-width="0.1164" stroke="currentColor" x1="0.0582" y1="0" x2="138.1582" y2="0"/>
</g>
<g transform="translate(9.0337, 27.2384)">
<line stroke-linejoin="round" stroke-linecap="round" stroke-width="0.1164" stroke="currentColor" x1="0.0582" y1="0" x2="138.1582" y2="0"/>
</g>
<g transform="translate(147.0289, 29.2384)">
<rect x="0.0000" y="-2.0000" width="0.2212" height="4.0000" ry="0.0000" fill="currentColor"/>
</g>
<g transform="translate(109.3700, 29.2384)">
<rect x="0.0000" y="-2.0000" width="0.2212" height="4.0000" ry="0.0000" fill="currentColor"/>
</g>
<g transform="translate(71.5325, 29.2384)">
<rect x="0.0000" y="-2.0000" width="0.2212" height="4.0000" ry="0.0000" fill="currentColor"/>
</g>
<g transform="translate(84.4998,35.1646)">
<text font-family="Songti SC" font-size="2.7" text-anchor="start" fill="currentColor">
<tspan font-size="2.7">于</tspan>
</text>
</g>
<g transform="translate(20.9271, 25.7364)">
<text font-family="Hiragino Sans GB" font-size="1.9604" text-anchor="start" fill="currentColor">
<tspan>A</tspan>
</text>
</g>
<g transform="translate(20.9271, 31.2384)">
<path transform="scale(0.0040, -0.0040)" d="M212 138c68 0 113 -38 113 -95c0 -90 -109 -181 -212 -181c-68 0 -113 38 -113 95c0 90 109 181 212 181z" fill="currentColor"/>
</g>
<g transform="translate(9.8338, 30.2384)">
<path transform="scale(0.0040, -0.0040)" d="M647 2c0 -114 -75 -214 -180 -248c3 -33 4 -66 4 -99c0 -21 0 -41 -1 -62c-7 -122 -92 -229 -211 -229c-108 0 -196 88 -196 197c0 58 54 103 113 103c54 0 95 -47 95 -103c0 -52 -43 -95 -95 -95c-9 0 -18 1 -27 4c25 -37 66 -61 113 -61c93 0 156 91 162 191 c1 19 2 38 2 57c0 29 -1 58 -3 87c-5 -1 -44 -8 -88 -8c-194 0 -333 181 -333 376c0 177 129 308 244 443c-34 103 -55 171 -55 347c0 114 54 221 147 288c8 6 18 5 25 -1c68 -79 135 -242 135 -356c0 -142 -84 -255 -176 -364c21 -68 40 -136 57 -205c1 0 5 1 10 1 c157 0 258 -129 258 -263zM463 -201c64 24 110 88 110 161c0 88 -64 175 -167 188c28 -133 49 -269 57 -349zM77 25c0 -144 141 -243 261 -243c1 0 46 -1 81 5c-7 66 -27 208 -60 362c-79 -8 -124 -60 -124 -118c0 -43 25 -88 80 -120c5 -5 7 -11 7 -17 c0 -12 -10 -23 -23 -23c-16 0 -128 62 -128 188c0 89 60 177 163 200c-14 57 -30 113 -47 169c-105 -122 -210 -243 -210 -403zM242 784c0 -39 10 -95 39 -188c78 97 142 199 142 324c0 33 0 60 -20 118c-99 -46 -161 -145 -161 -254z" fill="currentColor"/>
</g>
<g transform="translate(13.4743, 29.2384)">
<path transform="scale(0.0040, -0.0040)" d="M31 37l-2 -62v-11c0 -22 2 -43 5 -64c43 38 89 80 89 137c0 32 -14 65 -42 65c-31 0 -49 -32 -50 -65zM-30 450c9 5 20 8 30 8s21 -3 30 -8l-8 -340c25 24 59 38 94 38c50 0 84 -50 84 -104c0 -78 -83 -117 -141 -169c-17 -15 -25 -44 -49 -44c-15 0 -26 13 -26 29z" fill="currentColor"/>
</g>
<g transform="translate(14.4148, 27.7384)">
<path transform="scale(0.0040, -0.0040)" d="M31 37l-2 -62v-11c0 -22 2 -43 5 -64c43 38 89 80 89 137c0 32 -14 65 -42 65c-31 0 -49 -32 -50 -65zM-30 450c9 5 20 8 30 8s21 -3 30 -8l-8 -340c25 24 59 38 94 38c50 0 84 -50 84 -104c0 -78 -83 -117 -141 -169c-17 -15 -25 -44 -49 -44c-15 0 -26 13 -26 29z" fill="currentColor"/>
</g>
<g transform="translate(15.3553, 29.7384)">
<path transform="scale(0.0040, -0.0040)" d="M31 37l-2 -62v-11c0 -22 2 -43 5 -64c43 38 89 80 89 137c0 32 -14 65 -42 65c-31 0 -49 -32 -50 -65zM-30 450c9 5 20 8 30 8s21 -3 30 -8l-8 -340c25 24 59 38 94 38c50 0 84 -50 84 -104c0 -78 -83 -117 -141 -169c-17 -15 -25 -44 -49 -44c-15 0 -26 13 -26 29z" fill="currentColor"/>
</g>
<g transform="translate(17.4334, 29.2384)">
<path transform="scale(0.0040, -0.0040)" d="M266 265c0 -36 73 -25 73 -125c0 -93 -81 -140 -182 -140c-80 0 -157 43 -157 116c0 35 29 64 64 64s64 -29 64 -64c0 -24 -39 -29 -39 -53c0 -29 35 -37 68 -37c47 0 59 59 59 114v28c0 47 -2 81 -46 81h-77c-11 0 -16 8 -16 16s5 16 16 16h77c44 0 46 37 46 86v19 c0 53 -15 88 -63 88c-30 0 -62 -8 -62 -34c0 -21 35 -25 35 -46c0 -31 -25 -56 -56 -56s-56 25 -56 56c0 65 68 106 139 106c92 0 171 -32 171 -114c0 -117 -58 -79 -58 -121z" fill="currentColor"/>
</g>
<g transform="translate(17.3053, 31.2506)">
<path transform="scale(0.0040, -0.0040)" d="M223 487c37 0 71 14 79 14c9 0 15 -7 15 -13c0 -2 0 -4 -2 -6l-283 -325h160v115c0 36 36 28 71 75c23 31 24 58 38 58c7 0 14 -5 14 -15v-233h76c11 0 16 -8 16 -16s-5 -16 -16 -16h-76v-2c0 -50 30 -97 77 -97c9 0 12 -7 12 -13s-3 -13 -12 -13c-46 0 -92 13 -138 13 s-93 -13 -139 -13c-9 0 -12 7 -12 13s3 13 12 13c47 0 77 47 77 97v2h-160c-26 0 -34 15 -34 25c0 12 133 136 133 332c0 11 8 21 18 18c24 -7 49 -13 74 -13z" fill="currentColor"/>
</g>
<g transform="translate(20.3399,35.1646)">
<text font-family="Songti SC" font-size="2.7" text-anchor="start" fill="currentColor">
<tspan font-size="2.7">一</tspan>
</text>
</g>
<g transform="translate(17.8461,35.1646)">
<text font-family="Songti SC" font-weight="bold" font-size="2.7" text-anchor="start" fill="currentColor">
<tspan font-size="2.7">1.</tspan>
</text>
</g>
<g transform="translate(22.1523, 29.2384)">
<rect x="-0.0757" y="-1.0021" width="0.1514" height="2.8308" ry="0.0500" fill="currentColor"/>
</g>
<g transform="translate(27.2101, 30.7384)">
<path transform="scale(0.0040, -0.0040)" d="M212 138c68 0 113 -38 113 -95c0 -90 -109 -181 -212 -181c-68 0 -113 38 -113 95c0 90 109 181 212 181z" fill="currentColor"/>
</g>
<g transform="translate(26.6228,35.1646)">
<text font-family="Songti SC" font-size="2.7" text-anchor="start" fill="currentColor">
<tspan font-size="2.7">生</tspan>
</text>
</g>
<g transform="translate(28.4352, 29.2384)">
<rect x="-0.0757" y="-1.1796" width="0.1514" height="2.5083" ry="0.0500" fill="currentColor"/>
</g>
<g transform="translate(36.2703, 25.7364)">
<text font-family="Hiragino Sans GB" font-size="1.9604" text-anchor="start" fill="currentColor">
<tspan>D</tspan>
</text>
</g>
<g transform="translate(36.2703, 30.2384)">
<path transform="scale(0.0040, -0.0040)" d="M212 138c68 0 113 -38 113 -95c0 -90 -109 -181 -212 -181c-68 0 -113 38 -113 95c0 90 109 181 212 181z" fill="currentColor"/>
</g>
<g transform="translate(35.683,35.1646)">
<text font-family="Songti SC" font-size="2.7" text-anchor="start" fill="currentColor">
<tspan font-size="2.7">渴</tspan>
</text>
</g>
<g transform="translate(37.4954, 29.2384)">
<rect x="-0.0757" y="-2.5000" width="0.1514" height="3.3287" ry="0.0500" fill="currentColor"/>
</g>
<g transform="translate(97.7516, 27.2384)">
<polygon stroke-linejoin="round" stroke-linecap="round" stroke-width="0.1000" fill="currentColor" stroke="currentColor" points="6.3843 -0.1900 6.3843 0.1900 0.0500 0.1900 0.0500 -0.1900"/>
</g>
<g transform="translate(47.2853, 31.2384)">
<path transform="scale(0.0040, -0.0040)" d="M212 138c68 0 113 -38 113 -95c0 -90 -109 -181 -212 -181c-68 0 -113 38 -113 95c0 90 109 181 212 181z" fill="currentColor"/>
</g>
<g transform="translate(46.698,35.1646)">
<text font-family="Songti SC" font-size="2.7" text-anchor="start" fill="currentColor">
<tspan font-size="2.7">慕</tspan>
</text>
</g>
<g transform="translate(48.5105, 29.2384)">
<rect x="-0.0757" y="-1.5000" width="0.1514" height="3.3287" ry="0.0500" fill="currentColor"/>
</g>
<g transform="translate(58.5503, 25.7364)">
<text font-family="Hiragino Sans GB" font-size="1.9604" text-anchor="start" fill="currentColor">
<tspan>A</tspan>
</text>
</g>
<g transform="translate(60.0014, 24.8455)">
<text font-family="Hiragino Sans GB" font-size="1.3856" text-anchor="start" fill="currentColor">
<tspan>7</tspan>
</text>
</g>
<g transform="translate(58.5503, 30.7384)">
<path transform="scale(0.0040, -0.0040)" d="M212 138c68 0 113 -38 113 -95c0 -90 -109 -181 -212 -181c-68 0 -113 38 -113 95c0 90 109 181 212 181z" fill="currentColor"/>
</g>
<g transform="translate(57.9631,35.1646)">
<text font-family="Songti SC" font-size="2.7" text-anchor="start" fill="currentColor">
<tspan font-size="2.7">我</tspan>
</text>
</g>
<g transform="translate(59.7755, 29.2384)">
<rect x="-0.0757" y="-2.1890" width="0.1514" height="3.5177" ry="0.0500" fill="currentColor"/>
</g>
<g transform="translate(65.0833, 29.7384)">
<path transform="scale(0.0040, -0.0040)" d="M212 138c68 0 113 -38 113 -95c0 -90 -109 -181 -212 -181c-68 0 -113 38 -113 95c0 90 109 181 212 181z" fill="currentColor"/>
</g>
<g transform="translate(64.496,35.1646)">
<text font-family="Songti SC" font-size="2.7" text-anchor="start" fill="currentColor">
<tspan font-size="2.7">能</tspan>
</text>
</g>
<g transform="translate(66.3084, 29.2384)">
<rect x="-0.0757" y="-2.8110" width="0.1514" height="3.1397" ry="0.0500" fill="currentColor"/>
</g>
<g transform="translate(74.0720, 25.7364)">
<text font-family="Hiragino Sans GB" font-size="1.9604" text-anchor="start" fill="currentColor">
<tspan>D</tspan>
</text>
</g>
<g transform="translate(74.0720, 30.2384)">
<path transform="scale(0.0040, -0.0040)" d="M212 138c68 0 113 -38 113 -95c0 -90 -109 -181 -212 -181c-68 0 -113 38 -113 95c0 90 109 181 212 181z" fill="currentColor"/>
</g>
<g transform="translate(73.4848,35.1646)">
<text font-family="Songti SC" font-size="2.7" text-anchor="start" fill="currentColor">
<tspan font-size="2.7">饮</tspan>
</text>
</g>
<g transform="translate(75.2972, 29.2384)">
<rect x="-0.0757" y="-2.5000" width="0.1514" height="3.3287" ry="0.0500" fill="currentColor"/>
</g>
<g transform="translate(135.6605, 26.4202)">
<polygon stroke-linejoin="round" stroke-linecap="round" stroke-width="0.1000" fill="currentColor" stroke="currentColor" points="6.1343 0.4464 6.1343 0.8264 0.0500 0.1900 0.0500 -0.1900"/>
</g>
<g transform="translate(86.3122, 29.2384)">
<rect x="-0.0757" y="-1.5000" width="0.1514" height="3.3287" ry="0.0500" fill="currentColor"/>
</g>
<g transform="translate(59.6998, 27.0566)">
<polygon stroke-linejoin="round" stroke-linecap="round" stroke-width="0.1000" fill="currentColor" stroke="currentColor" points="6.6343 -0.8264 6.6343 -0.4464 0.0500 0.1900 0.0500 -0.1900"/>
</g>
<g transform="translate(96.6021, 30.2384)">
<path transform="scale(0.0040, -0.0040)" d="M212 138c68 0 113 -38 113 -95c0 -90 -109 -181 -212 -181c-68 0 -113 38 -113 95c0 90 109 181 212 181z" fill="currentColor"/>
</g>
<g transform="translate(96.0148,35.1646)">
<text font-family="Songti SC" font-size="2.7" text-anchor="start" fill="currentColor">
<tspan font-size="2.7">一</tspan>
</text>
</g>
<g transform="translate(97.8273, 29.2384)">
<rect x="-0.0757" y="-2.0000" width="0.1514" height="2.8287" ry="0.0500" fill="currentColor"/>
</g>
<g transform="translate(102.8850, 30.2384)">
<path transform="scale(0.0040, -0.0040)" d="M212 138c68 0 113 -38 113 -95c0 -90 -109 -181 -212 -181c-68 0 -113 38 -113 95c0 90 109 181 212 181z" fill="currentColor"/>
</g>
<g transform="translate(102.2978,35.1646)">
<text font-family="Songti SC" font-size="2.7" text-anchor="start" fill="currentColor">
<tspan font-size="2.7">个</tspan>
</text>
</g>
<g transform="translate(104.1102, 29.2384)">
<rect x="-0.0757" y="-2.0000" width="0.1514" height="2.8287" ry="0.0500" fill="currentColor"/>
</g>
<g transform="translate(111.9095, 25.7364)">
<text font-family="Hiragino Sans GB" font-size="1.9604" text-anchor="start" fill="currentColor">
<tspan>E</tspan>
</text>
</g>
<g transform="translate(113.1899, 25.7364)">
<text font-family="Hiragino Sans GB" font-size="1.9604" text-anchor="start" fill="currentColor">
<tspan>m</tspan>
</text>
</g>
<g transform="translate(111.9095, 29.7384)">
<path transform="scale(0.0040, -0.0040)" d="M212 138c68 0 113 -38 113 -95c0 -90 -109 -181 -212 -181c-68 0 -113 38 -113 95c0 90 109 181 212 181z" fill="currentColor"/>
</g>
<g transform="translate(111.3222,35.1646)">
<text font-family="Songti SC" font-size="2.7" text-anchor="start" fill="currentColor">
<tspan font-size="2.7">清</tspan>
</text>
</g>
<g transform="translate(113.1347, 29.2384)">
<rect x="-0.0757" y="-3.0000" width="0.1514" height="3.3287" ry="0.0500" fill="currentColor"/>
</g>
<g transform="translate(123.2684, 28.7384)">
<path transform="scale(0.0040, -0.0040)" d="M212 138c68 0 113 -38 113 -95c0 -90 -109 -181 -212 -181c-68 0 -113 38 -113 95c0 90 109 181 212 181z" fill="currentColor"/>
</g>
<g transform="translate(122.6812,35.1646)">
<text font-family="Songti SC" font-size="2.7" text-anchor="start" fill="currentColor">
<tspan font-size="2.7">凉</tspan>
</text>
</g>
<g transform="translate(123.3441, 29.2384)">
<rect x="-0.0757" y="-0.3287" width="0.1514" height="3.3287" ry="0.0500" fill="currentColor"/>
</g>
<g transform="translate(22.0766, 28.2384)">
<polygon stroke-linejoin="round" stroke-linecap="round" stroke-width="0.1000" fill="currentColor" stroke="currentColor" points="6.3843 -0.3718 6.3843 0.0082 0.0500 0.1900 0.0500 -0.1900"/>
</g>
<g transform="translate(134.5110, 29.2384)">
<path transform="scale(0.0040, -0.0040)" d="M212 138c68 0 113 -38 113 -95c0 -90 -109 -181 -212 -181c-68 0 -113 38 -113 95c0 90 109 181 212 181z" fill="currentColor"/>
</g>
<g transform="translate(133.9237,35.1646)">
<text font-family="Songti SC" font-size="2.7" text-anchor="start" fill="currentColor">
<tspan font-size="2.7">的</tspan>
</text>
</g>
<g transform="translate(135.7362, 29.2384)">
<rect x="-0.0757" y="-2.8104" width="0.1514" height="2.6391" ry="0.0500" fill="currentColor"/>
</g>
<g transform="translate(140.5439, 30.2384)">
<path transform="scale(0.0040, -0.0040)" d="M212 138c68 0 113 -38 113 -95c0 -90 -109 -181 -212 -181c-68 0 -113 38 -113 95c0 90 109 181 212 181z" fill="currentColor"/>
</g>
<g transform="translate(139.9567,35.1646)">
<text font-family="Songti SC" font-size="2.7" text-anchor="start" fill="currentColor">
<tspan font-size="2.7">泉</tspan>
</text>
</g>
<g transform="translate(141.7691, 29.2384)">
<rect x="-0.0757" y="-2.1896" width="0.1514" height="3.0182" ry="0.0500" fill="currentColor"/>
</g>
<g transform="translate(85.0871, 31.2384)">
<path transform="scale(0.0040, -0.0040)" d="M212 138c68 0 113 -38 113 -95c0 -90 -109 -181 -212 -181c-68 0 -113 38 -113 95c0 90 109 181 212 181z" fill="currentColor"/>
</g>
<g transform="translate(44.821,55.5979)">
<rect x="0.0000" y="-2.0000" width="0.2212" height="4.0000" ry="0.0000" fill="currentColor"/>
</g>
<g transform="translate(9.0337,57.5979)">
<line stroke-linejoin="round" stroke-linecap="round" stroke-width="0.1164" stroke="currentColor" x1="0.0582" y1="0" x2="138.1582" y2="0"/>
</g>
<g transform="translate(9.0337,56.5979)">
<line stroke-linejoin="round" stroke-linecap="round" stroke-width="0.1164" stroke="currentColor" x1="0.0582" y1="0" x2="138.1582" y2="0"/>
</g>
<g transform="translate(9.0337,55.5979)">
<line stroke-linejoin="round" stroke-linecap="round" stroke-width="0.1164" stroke="currentColor" x1="0.0582" y1="0" x2="138.1582" y2="0"/>
</g>
<g transform="translate(9.0337,54.5979)">
<line stroke-linejoin="round" stroke-linecap="round" stroke-width="0.1164" stroke="currentColor" x1="0.0582" y1="0" x2="138.1582" y2="0"/>
</g>
<g transform="translate(9.0337,53.5979)">
<line stroke-linejoin="round" stroke-linecap="round" stroke-width="0.1164" stroke="currentColor" x1="0.0582" y1="0" x2="138.1582" y2="0"/>
</g>
<g transform="translate(147.0289,55.5979)">
<rect x="0.0000" y="-2.0000" width="0.2212" height="4.0000" ry="0.0000" fill="currentColor"/>
</g>
<g transform="translate(113.0276,55.5979)">
<rect x="0.0000" y="-2.0000" width="0.2212" height="4.0000" ry="0.0000" fill="currentColor"/>
</g>
<g transform="translate(78.9513,55.5979)">
<rect x="0.0000" y="-2.0000" width="0.2212" height="4.0000" ry="0.0000" fill="currentColor"/>
</g>
<g transform="translate(9.8338,56.5979)">
<path transform="scale(0.0040, -0.0040)" d="M647 2c0 -114 -75 -214 -180 -248c3 -33 4 -66 4 -99c0 -21 0 -41 -1 -62c-7 -122 -92 -229 -211 -229c-108 0 -196 88 -196 197c0 58 54 103 113 103c54 0 95 -47 95 -103c0 -52 -43 -95 -95 -95c-9 0 -18 1 -27 4c25 -37 66 -61 113 -61c93 0 156 91 162 191 c1 19 2 38 2 57c0 29 -1 58 -3 87c-5 -1 -44 -8 -88 -8c-194 0 -333 181 -333 376c0 177 129 308 244 443c-34 103 -55 171 -55 347c0 114 54 221 147 288c8 6 18 5 25 -1c68 -79 135 -242 135 -356c0 -142 -84 -255 -176 -364c21 -68 40 -136 57 -205c1 0 5 1 10 1 c157 0 258 -129 258 -263zM463 -201c64 24 110 88 110 161c0 88 -64 175 -167 188c28 -133 49 -269 57 -349zM77 25c0 -144 141 -243 261 -243c1 0 46 -1 81 5c-7 66 -27 208 -60 362c-79 -8 -124 -60 -124 -118c0 -43 25 -88 80 -120c5 -5 7 -11 7 -17 c0 -12 -10 -23 -23 -23c-16 0 -128 62 -128 188c0 89 60 177 163 200c-14 57 -30 113 -47 169c-105 -122 -210 -243 -210 -403zM242 784c0 -39 10 -95 39 -188c78 97 142 199 142 324c0 33 0 60 -20 118c-99 -46 -161 -145 -161 -254z" fill="currentColor"/>
</g>
<g transform="translate(13.4743,55.5979)">
<path transform="scale(0.0040, -0.0040)" d="M31 37l-2 -62v-11c0 -22 2 -43 5 -64c43 38 89 80 89 137c0 32 -14 65 -42 65c-31 0 -49 -32 -50 -65zM-30 450c9 5 20 8 30 8s21 -3 30 -8l-8 -340c25 24 59 38 94 38c50 0 84 -50 84 -104c0 -78 -83 -117 -141 -169c-17 -15 -25 -44 -49 -44c-15 0 -26 13 -26 29z" fill="currentColor"/>
</g>
<g transform="translate(14.4148,54.0979)">
<path transform="scale(0.0040, -0.0040)" d="M31 37l-2 -62v-11c0 -22 2 -43 5 -64c43 38 89 80 89 137c0 32 -14 65 -42 65c-31 0 -49 -32 -50 -65zM-30 450c9 5 20 8 30 8s21 -3 30 -8l-8 -340c25 24 59 38 94 38c50 0 84 -50 84 -104c0 -78 -83 -117 -141 -169c-17 -15 -25 -44 -49 -44c-15 0 -26 13 -26 29z" fill="currentColor"/>
</g>
<g transform="translate(15.3553,56.0979)">
<path transform="scale(0.0040, -0.0040)" d="M31 37l-2 -62v-11c0 -22 2 -43 5 -64c43 38 89 80 89 137c0 32 -14 65 -42 65c-31 0 -49 -32 -50 -65zM-30 450c9 5 20 8 30 8s21 -3 30 -8l-8 -340c25 24 59 38 94 38c50 0 84 -50 84 -104c0 -78 -83 -117 -141 -169c-17 -15 -25 -44 -49 -44c-15 0 -26 13 -26 29z" fill="currentColor"/>
</g>
<g transform="translate(8.2228,52.6247)">
<text font-family="Songti SC" font-size="1.7463" text-anchor="start" fill="currentColor">
<tspan>4</tspan>
</text>
</g>
<g transform="translate(136.7834,52.7796)">
<polygon stroke-linejoin="round" stroke-linecap="round" stroke-width="0.1000" fill="currentColor" stroke="currentColor" points="5.5550 0.4464 5.5550 0.8264 0.0500 0.1900 0.0500 -0.1900"/>
</g>
<g transform="translate(18.6553,52.0514)">
<text font-family="Hiragino Sans GB" font-size="1.9604" text-anchor="start" fill="currentColor">
<tspan>A</tspan>
</text>
</g>
<g transform="translate(18.6553,57.0979)">
<path transform="scale(0.0040, -0.0040)" d="M310 63c0 22 -17 40 -40 40c-38 0 -197 -107 -224 -139c-7 -8 -10 -17 -10 -27c0 -22 17 -40 40 -40c38 0 197 107 224 139c7 8 10 17 10 27zM256 138c55 0 90 -22 90 -77c0 -25 -15 -112 -73 -151c-34 -23 -92 -48 -183 -48c-55 0 -90 22 -90 77c0 25 15 112 73 151 c34 23 92 48 183 48z" fill="currentColor"/>
</g>
<g transform="translate(16.8719,61.8623)">
<text font-family="Songti SC" font-size="2.7" text-anchor="start" fill="currentColor">
<tspan font-size="2.7">源，</tspan>
</text>
</g>
<g transform="translate(19.9635,55.5979)">
<rect x="-0.0757" y="-2.0000" width="0.1514" height="3.2544" ry="0.0500" fill="currentColor"/>
</g>
<g transform="translate(33.2475,52.0514)">
<text font-family="Hiragino Sans GB" font-size="1.9604" text-anchor="start" fill="currentColor">
<tspan>A</tspan>
</text>
</g>
<g transform="translate(34.6986,51.1605)">
<text font-family="Hiragino Sans GB" font-size="1.3856" text-anchor="start" fill="currentColor">
<tspan>7</tspan>
</text>
</g>
<g transform="translate(33.2475,56.5979)">
<path transform="scale(0.0040, -0.0040)" d="M212 138c68 0 113 -38 113 -95c0 -90 -109 -181 -212 -181c-68 0 -113 38 -113 95c0 90 109 181 212 181z" fill="currentColor"/>
</g>
<g transform="translate(32.6602,61.8623)">
<text font-family="Songti SC" font-size="2.7" text-anchor="start" fill="currentColor">
<tspan font-size="2.7">得</tspan>
</text>
</g>
<g transform="translate(34.4726,55.5979)">
<rect x="-0.0757" y="-2.0023" width="0.1514" height="2.8310" ry="0.0500" fill="currentColor"/>
</g>
<g transform="translate(38.9511,56.0979)">
<path transform="scale(0.0040, -0.0040)" d="M212 138c68 0 113 -38 113 -95c0 -90 -109 -181 -212 -181c-68 0 -113 38 -113 95c0 90 109 181 212 181z" fill="currentColor"/>
</g>
<g transform="translate(38.3638,61.8623)">
<text font-family="Songti SC" font-size="2.7" text-anchor="start" fill="currentColor">
<tspan font-size="2.7">以</tspan>
</text>
</g>
<g transform="translate(40.1762,55.5979)">
<rect x="-0.0757" y="-2.1794" width="0.1514" height="2.5081" ry="0.0500" fill="currentColor"/>
</g>
<g transform="translate(47.2478,52.0514)">
<text font-family="Hiragino Sans GB" font-size="1.9604" text-anchor="start" fill="currentColor">
<tspan>D</tspan>
</text>
</g>
<g transform="translate(47.2478,55.5979)">
<path transform="scale(0.0040, -0.0040)" d="M212 138c68 0 113 -38 113 -95c0 -90 -109 -181 -212 -181c-68 0 -113 38 -113 95c0 90 109 181 212 181z" fill="currentColor"/>
</g>
<g transform="translate(46.6605,61.8623)">
<text font-family="Songti SC" font-size="2.7" text-anchor="start" fill="currentColor">
<tspan font-size="2.7">解</tspan>
</text>
</g>
<g transform="translate(47.3234,55.5979)">
<rect x="-0.0757" y="0.1713" width="0.1514" height="3.1620" ry="0.0500" fill="currentColor"/>
</g>
<g transform="translate(102.5321,54.5979)">
<polygon stroke-linejoin="round" stroke-linecap="round" stroke-width="0.1000" fill="currentColor" stroke="currentColor" points="5.8050 -0.3718 5.8050 0.0082 0.0500 0.1900 0.0500 -0.1900"/>
</g>
<g transform="translate(57.6041,54.0979)">
<path transform="scale(0.0040, -0.0040)" d="M212 138c68 0 113 -38 113 -95c0 -90 -109 -181 -212 -181c-68 0 -113 38 -113 95c0 90 109 181 212 181z" fill="currentColor"/>
</g>
<g transform="translate(57.0168,61.8623)">
<text font-family="Songti SC" font-size="2.7" text-anchor="start" fill="currentColor">
<tspan font-size="2.7">除</tspan>
</text>
</g>
<g transform="translate(57.6798,55.5979)">
<rect x="-0.0757" y="-1.3287" width="0.1514" height="3.3287" ry="0.0500" fill="currentColor"/>
</g>
<g transform="translate(67.7105,52.0514)">
<text font-family="Hiragino Sans GB" font-size="1.9604" text-anchor="start" fill="currentColor">
<tspan>G</tspan>
</text>
</g>
<g transform="translate(67.7105,54.5979)">
<path transform="scale(0.0040, -0.0040)" d="M212 138c68 0 113 -38 113 -95c0 -90 -109 -181 -212 -181c-68 0 -113 38 -113 95c0 90 109 181 212 181z" fill="currentColor"/>
</g>
<g transform="translate(67.1232,61.8623)">
<text font-family="Songti SC" font-size="2.7" text-anchor="start" fill="currentColor">
<tspan font-size="2.7">里</tspan>
</text>
</g>
<g transform="translate(67.7862,55.5979)">
<rect x="-0.0757" y="-0.8287" width="0.1514" height="2.8310" ry="0.0500" fill="currentColor"/>
</g>
<g transform="translate(73.4141,55.0979)">
<path transform="scale(0.0040, -0.0040)" d="M212 138c68 0 113 -38 113 -95c0 -90 -109 -181 -212 -181c-68 0 -113 38 -113 95c0 90 109 181 212 181z" fill="currentColor"/>
</g>
<g transform="translate(72.8268,61.8623)">
<text font-family="Songti SC" font-size="2.7" text-anchor="start" fill="currentColor">
<tspan font-size="2.7">面</tspan>
</text>
</g>
<g transform="translate(73.4898,55.5979)">
<rect x="-0.0757" y="-0.3287" width="0.1514" height="2.5081" ry="0.0500" fill="currentColor"/>
</g>
<g transform="translate(81.4067,52.0514)">
<text font-family="Hiragino Sans GB" font-size="1.9604" text-anchor="start" fill="currentColor">
<tspan>F</tspan>
</text>
</g>
<g transform="translate(82.6017,51.4514)">
<path transform="scale(0.0032, -0.0032)" d="M0 112c0 13 8 25 20 30l34 13v148c0 13 10 24 23 24s24 -11 24 -24v-129l73 29v148c0 13 11 24 24 24s23 -11 23 -24v-129l10 4c4 2 8 2 12 2c17 0 32 -14 32 -32v-46c0 -13 -8 -24 -20 -29l-34 -14v-148l10 4c4 2 8 3 12 3c17 0 32 -14 32 -32v-46c0 -13 -8 -25 -20 -30 l-34 -13v-148c0 -13 -10 -24 -23 -24s-24 11 -24 24v129l-73 -29v-148c0 -13 -11 -24 -24 -24s-23 11 -23 24v129l-10 -4c-4 -2 -8 -2 -12 -2c-17 0 -32 14 -32 32v46c0 13 8 24 20 29l34 14v148l-10 -4c-4 -2 -8 -3 -12 -3c-17 0 -32 14 -32 32v46zM174 89l-73 -30v-148 l73 30v148z" fill="currentColor"/>
</g>
<g transform="translate(83.4747,52.0514)">
<text font-family="Hiragino Sans GB" font-size="1.9604" text-anchor="start" fill="currentColor">
<tspan>m</tspan>
</text>
</g>
<g transform="translate(81.4067,55.0979)">
<path transform="scale(0.0040, -0.0040)" d="M212 138c68 0 113 -38 113 -95c0 -90 -109 -181 -212 -181c-68 0 -113 38 -113 95c0 90 109 181 212 181z" fill="currentColor"/>
</g>
<g transform="translate(80.8194,61.8623)">
<text font-family="Songti SC" font-size="2.7" text-anchor="start" fill="currentColor">
<tspan font-size="2.7">所</tspan>
</text>
</g>
<g transform="translate(81.4823,55.5979)">
<rect x="-0.0757" y="-0.3287" width="0.1514" height="3.3287" ry="0.0500" fill="currentColor"/>
</g>
<g transform="translate(67.7105,57.5979)">
<polygon stroke-linejoin="round" stroke-linecap="round" stroke-width="0.1000" fill="currentColor" stroke="currentColor" points="5.8050 -0.0082 5.8050 0.3718 0.0500 0.1900 0.0500 -0.1900"/>
</g>
<g transform="translate(91.513,55.5979)">
<path transform="scale(0.0040, -0.0040)" d="M212 138c68 0 113 -38 113 -95c0 -90 -109 -181 -212 -181c-68 0 -113 38 -113 95c0 90 109 181 212 181z" fill="currentColor"/>
</g>
<g transform="translate(90.9257,61.8623)">
<text font-family="Songti SC" font-size="2.7" text-anchor="start" fill="currentColor">
<tspan font-size="2.7">感</tspan>
</text>
</g>
<g transform="translate(91.5887,55.5979)">
<rect x="-0.0757" y="0.1713" width="0.1514" height="3.1620" ry="0.0500" fill="currentColor"/>
</g>
<g transform="translate(101.3826,52.0514)">
<text font-family="Hiragino Sans GB" font-size="1.9604" text-anchor="start" fill="currentColor">
<tspan>B</tspan>
</text>
</g>
<g transform="translate(102.791,52.0514)">
<text font-family="Hiragino Sans GB" font-size="1.9604" text-anchor="start" fill="currentColor">
<tspan>m</tspan>
</text>
</g>
<g transform="translate(101.3826,57.5979)">
<path transform="scale(0.0040, -0.0040)" d="M212 138c68 0 113 -38 113 -95c0 -90 -109 -181 -212 -181c-68 0 -113 38 -113 95c0 90 109 181 212 181z" fill="currentColor"/>
</g>
<g transform="translate(100.7953,61.8623)">
<text font-family="Songti SC" font-size="2.7" text-anchor="start" fill="currentColor">
<tspan font-size="2.7">火</tspan>
</text>
</g>
<g transform="translate(102.6078,55.5979)">
<rect x="-0.0757" y="-1.0023" width="0.1514" height="2.8310" ry="0.0500" fill="currentColor"/>
</g>
<g transform="translate(107.0862,57.0979)">
<path transform="scale(0.0040, -0.0040)" d="M212 138c68 0 113 -38 113 -95c0 -90 -109 -181 -212 -181c-68 0 -113 38 -113 95c0 90 109 181 212 181z" fill="currentColor"/>
</g>
<g transform="translate(106.4989,61.8623)">
<text font-family="Songti SC" font-size="2.7" text-anchor="start" fill="currentColor">
<tspan font-size="2.7">烧</tspan>
</text>
</g>
<g transform="translate(108.3114,55.5979)">
<rect x="-0.0757" y="-1.1794" width="0.1514" height="2.5081" ry="0.0500" fill="currentColor"/>
</g>
<g transform="translate(115.3498,52.0514)">
<text font-family="Hiragino Sans GB" font-size="1.9604" text-anchor="start" fill="currentColor">
<tspan>G</tspan>
</text>
</g>
<g transform="translate(115.3498,56.5979)">
<path transform="scale(0.0040, -0.0040)" d="M212 138c68 0 113 -38 113 -95c0 -90 -109 -181 -212 -181c-68 0 -113 38 -113 95c0 90 109 181 212 181z" fill="currentColor"/>
</g>
<g transform="translate(114.7625,61.8623)">
<text font-family="Songti SC" font-size="2.7" text-anchor="start" fill="currentColor">
<tspan font-size="2.7">一</tspan>
</text>
</g>
<g transform="translate(116.575,55.5979)">
<rect x="-0.0757" y="-2.5000" width="0.1514" height="3.3287" ry="0.0500" fill="currentColor"/>
</g>
<g transform="translate(34.397,53.5979)">
<polygon stroke-linejoin="round" stroke-linecap="round" stroke-width="0.1000" fill="currentColor" stroke="currentColor" points="5.8050 -0.3718 5.8050 0.0082 0.0500 0.1900 0.0500 -0.1900"/>
</g>
<g transform="translate(125.5501,55.5979)">
<path transform="scale(0.0040, -0.0040)" d="M212 138c68 0 113 -38 113 -95c0 -90 -109 -181 -212 -181c-68 0 -113 38 -113 95c0 90 109 181 212 181z" fill="currentColor"/>
</g>
<g transform="translate(124.9628,61.8623)">
<text font-family="Songti SC" font-size="2.7" text-anchor="start" fill="currentColor">
<tspan font-size="2.7">般</tspan>
</text>
</g>
<g transform="translate(125.6258,55.5979)">
<rect x="-0.0757" y="0.1713" width="0.1514" height="3.1620" ry="0.0500" fill="currentColor"/>
</g>
<g transform="translate(135.634,52.0514)">
<text font-family="Hiragino Sans GB" font-size="1.9604" text-anchor="start" fill="currentColor">
<tspan>A</tspan>
</text>
</g>
<g transform="translate(137.085,51.1605)">
<text font-family="Hiragino Sans GB" font-size="1.3856" text-anchor="start" fill="currentColor">
<tspan>7</tspan>
</text>
</g>
<g transform="translate(135.634,56.0979)">
<path transform="scale(0.0040, -0.0040)" d="M212 138c68 0 113 -38 113 -95c0 -90 -109 -181 -212 -181c-68 0 -113 38 -113 95c0 90 109 181 212 181z" fill="currentColor"/>
</g>
<g transform="translate(135.0467,61.8623)">
<text font-family="Songti SC" font-size="2.7" text-anchor="start" fill="currentColor">
<tspan font-size="2.7">的</tspan>
</text>
</g>
<g transform="translate(136.8591,55.5979)">
<rect x="-0.0757" y="-2.8096" width="0.1514" height="3.1383" ry="0.0500" fill="currentColor"/>
</g>
<g transform="translate(141.0876,57.0979)">
<path transform="scale(0.0040, -0.0040)" d="M212 138c68 0 113 -38 113 -95c0 -90 -109 -181 -212 -181c-68 0 -113 38 -113 95c0 90 109 181 212 181z" fill="currentColor"/>
</g>
<g transform="translate(140.5003,61.8623)">
<text font-family="Songti SC" font-size="2.7" text-anchor="start" fill="currentColor">
<tspan font-size="2.7">渴</tspan>
</text>
</g>
<g transform="translate(142.3127,55.5979)">
<rect x="-0.0757" y="-2.1904" width="0.1514" height="3.5190" ry="0.0500" fill="currentColor"/>
</g>
<g transform="translate(45.7022,84.98490000000001)">
<rect x="0.0000" y="-2.0000" width="0.2212" height="4.0000" ry="0.0000" fill="currentColor"/>
</g>
<g transform="translate(9.0337,86.98490000000001)">
<line stroke-linejoin="round" stroke-linecap="round" stroke-width="0.1164" stroke="currentColor" x1="0.0582" y1="0" x2="138.1582" y2="0"/>
</g>
<g transform="translate(9.0337,85.98490000000001)">
<line stroke-linejoin="round" stroke-linecap="round" stroke-width="0.1164" stroke="currentColor" x1="0.0582" y1="0" x2="138.1582" y2="0"/>
</g>
<g transform="translate(9.0337,84.98490000000001)">
<line stroke-linejoin="round" stroke-linecap="round" stroke-width="0.1164" stroke="currentColor" x1="0.0582" y1="0" x2="138.1582" y2="0"/>
</g>
<g transform="translate(9.0337,83.98490000000001)">
<line stroke-linejoin="round" stroke-linecap="round" stroke-width="0.1164" stroke="currentColor" x1="0.0582" y1="0" x2="138.1582" y2="0"/>
</g>
<g transform="translate(9.0337,82.98490000000001)">
<line stroke-linejoin="round" stroke-linecap="round" stroke-width="0.1164" stroke="currentColor" x1="0.0582" y1="0" x2="138.1582" y2="0"/>
</g>
<g transform="translate(147.0289,84.98490000000001)">
<rect x="0.0000" y="-2.0000" width="0.2212" height="4.0000" ry="0.0000" fill="currentColor"/>
</g>
<g transform="translate(114.034,84.98490000000001)">
<rect x="0.0000" y="-2.0000" width="0.2212" height="4.0000" ry="0.0000" fill="currentColor"/>
</g>
<g transform="translate(78.7614,84.98490000000001)">
<rect x="0.0000" y="-2.0000" width="0.2212" height="4.0000" ry="0.0000" fill="currentColor"/>
</g>
<g transform="translate(9.8338,85.98490000000001)">
<path transform="scale(0.0040, -0.0040)" d="M647 2c0 -114 -75 -214 -180 -248c3 -33 4 -66 4 -99c0 -21 0 -41 -1 -62c-7 -122 -92 -229 -211 -229c-108 0 -196 88 -196 197c0 58 54 103 113 103c54 0 95 -47 95 -103c0 -52 -43 -95 -95 -95c-9 0 -18 1 -27 4c25 -37 66 -61 113 -61c93 0 156 91 162 191 c1 19 2 38 2 57c0 29 -1 58 -3 87c-5 -1 -44 -8 -88 -8c-194 0 -333 181 -333 376c0 177 129 308 244 443c-34 103 -55 171 -55 347c0 114 54 221 147 288c8 6 18 5 25 -1c68 -79 135 -242 135 -356c0 -142 -84 -255 -176 -364c21 -68 40 -136 57 -205c1 0 5 1 10 1 c157 0 258 -129 258 -263zM463 -201c64 24 110 88 110 161c0 88 -64 175 -167 188c28 -133 49 -269 57 -349zM77 25c0 -144 141 -243 261 -243c1 0 46 -1 81 5c-7 66 -27 208 -60 362c-79 -8 -124 -60 -124 -118c0 -43 25 -88 80 -120c5 -5 7 -11 7 -17 c0 -12 -10 -23 -23 -23c-16 0 -128 62 -128 188c0 89 60 177 163 200c-14 57 -30 113 -47 169c-105 -122 -210 -243 -210 -403zM242 784c0 -39 10 -95 39 -188c78 97 142 199 142 324c0 33 0 60 -20 118c-99 -46 -161 -145 -161 -254z" fill="currentColor"/>
</g>
<g transform="translate(13.4743,84.98490000000001)">
<path transform="scale(0.0040, -0.0040)" d="M31 37l-2 -62v-11c0 -22 2 -43 5 -64c43 38 89 80 89 137c0 32 -14 65 -42 65c-31 0 -49 -32 -50 -65zM-30 450c9 5 20 8 30 8s21 -3 30 -8l-8 -340c25 24 59 38 94 38c50 0 84 -50 84 -104c0 -78 -83 -117 -141 -169c-17 -15 -25 -44 -49 -44c-15 0 -26 13 -26 29z" fill="currentColor"/>
</g>
<g transform="translate(14.4148,83.48490000000001)">
<path transform="scale(0.0040, -0.0040)" d="M31 37l-2 -62v-11c0 -22 2 -43 5 -64c43 38 89 80 89 137c0 32 -14 65 -42 65c-31 0 -49 -32 -50 -65zM-30 450c9 5 20 8 30 8s21 -3 30 -8l-8 -340c25 24 59 38 94 38c50 0 84 -50 84 -104c0 -78 -83 -117 -141 -169c-17 -15 -25 -44 -49 -44c-15 0 -26 13 -26 29z" fill="currentColor"/>
</g>
<g transform="translate(15.3553,85.48490000000001)">
<path transform="scale(0.0040, -0.0040)" d="M31 37l-2 -62v-11c0 -22 2 -43 5 -64c43 38 89 80 89 137c0 32 -14 65 -42 65c-31 0 -49 -32 -50 -65zM-30 450c9 5 20 8 30 8s21 -3 30 -8l-8 -340c25 24 59 38 94 38c50 0 84 -50 84 -104c0 -78 -83 -117 -141 -169c-17 -15 -25 -44 -49 -44c-15 0 -26 13 -26 29z" fill="currentColor"/>
</g>
<g transform="translate(8.2228,82.01169999999999)">
<text font-family="Songti SC" font-size="1.7463" text-anchor="start" fill="currentColor">
<tspan>8</tspan>
</text>
</g>
<g transform="translate(135.4073,86.98490000000001)">
<polygon stroke-linejoin="round" stroke-linecap="round" stroke-width="0.1000" fill="currentColor" stroke="currentColor" points="5.9953 -0.0082 5.9953 0.3718 0.0500 0.1900 0.0500 -0.1900"/>
</g>
<g transform="translate(18.6553,78.7393)">
<text font-family="Hiragino Sans GB" font-size="1.9604" text-anchor="start" fill="currentColor">
<tspan>D</tspan>
</text>
</g>
<g transform="translate(18.6553,86.98490000000001)">
<path transform="scale(0.0040, -0.0040)" d="M310 63c0 22 -17 40 -40 40c-38 0 -197 -107 -224 -139c-7 -8 -10 -17 -10 -27c0 -22 17 -40 40 -40c38 0 197 107 224 139c7 8 10 17 10 27zM256 138c55 0 90 -22 90 -77c0 -25 -15 -112 -73 -151c-34 -23 -92 -48 -183 -48c-55 0 -90 22 -90 77c0 25 15 112 73 151 c34 23 92 48 183 48z" fill="currentColor"/>
</g>
<g transform="translate(16.8719,91.237)">
<text font-family="Songti SC" font-size="2.7" text-anchor="start" fill="currentColor">
<tspan font-size="2.7">干。</tspan>
</text>
</g>
<g transform="translate(19.9635,84.98490000000001)">
<rect x="-0.0757" y="-1.5000" width="0.1514" height="3.2544" ry="0.0500" fill="currentColor"/>
</g>
<g transform="translate(34.0448,78.7393)">
<text font-family="Hiragino Sans GB" font-size="1.9604" text-anchor="start" fill="currentColor">
<tspan>A</tspan>
</text>
</g>
<g transform="translate(35.4959,77.8484)">
<text font-family="Hiragino Sans GB" font-size="1.3856" text-anchor="start" fill="currentColor">
<tspan>7</tspan>
</text>
</g>
<g transform="translate(34.0448,84.98490000000001)">
<path transform="scale(0.0040, -0.0040)" d="M212 138c68 0 113 -38 113 -95c0 -90 -109 -181 -212 -181c-68 0 -113 38 -113 95c0 90 109 181 212 181z" fill="currentColor"/>
</g>
<g transform="translate(34.0448,82.4666)">
<rect x="-0.6164" y="-0.1164" width="3.4522" height="0.1164" ry="0.0000" fill="currentColor"/>
</g>
<g transform="translate(34.0448,79.34389999999999)">
<rect x="-0.6164" y="-0.1164" width="3.4522" height="0.1164" ry="0.0000" fill="currentColor"/>
</g>
<g transform="translate(33.4284,81.5004)">
<rect x="0" y="-2.1565" width="0.1164" height="3.0063" ry="0.0000" fill="currentColor"/>
</g>
<g transform="translate(36.7641,81.5004)">
<rect x="0" y="-2.1565" width="0.1164" height="3.0063" ry="0.0000" fill="currentColor"/>
</g>
<g transform="translate(34.0448,81.5004)">
<text font-family="Songti SC" font-weight="bold" font-size="2.2001" text-anchor="start" fill="currentColor">
<tspan>副</tspan>
</text>
</g>
<g transform="translate(33.4576,91.237)">
<text font-family="Songti SC" font-size="2.7" text-anchor="start" fill="currentColor">
<tspan font-size="2.7">阿</tspan>
</text>
</g>
<g transform="translate(34.1205,84.98490000000001)">
<rect x="-0.0757" y="0.1713" width="0.1514" height="2.8287" ry="0.0500" fill="currentColor"/>
</g>
<g transform="translate(39.9388,84.98490000000001)">
<path transform="scale(0.0040, -0.0040)" d="M212 138c68 0 113 -38 113 -95c0 -90 -109 -181 -212 -181c-68 0 -113 38 -113 95c0 90 109 181 212 181z" fill="currentColor"/>
</g>
<g transform="translate(39.3515,91.237)">
<text font-family="Songti SC" font-size="2.7" text-anchor="start" fill="currentColor">
<tspan font-size="2.7">利</tspan>
</text>
</g>
<g transform="translate(40.0145,84.98490000000001)">
<rect x="-0.0757" y="0.1713" width="0.1514" height="2.8287" ry="0.0500" fill="currentColor"/>
</g>
<g transform="translate(48.286,78.7393)">
<text font-family="Hiragino Sans GB" font-size="1.9604" text-anchor="start" fill="currentColor">
<tspan>D</tspan>
</text>
</g>
<g transform="translate(48.286,83.48490000000001)">
<path transform="scale(0.0040, -0.0040)" d="M212 138c68 0 113 -38 113 -95c0 -90 -109 -181 -212 -181c-68 0 -113 38 -113 95c0 90 109 181 212 181z" fill="currentColor"/>
</g>
<g transform="translate(47.6988,91.237)">
<text font-family="Songti SC" font-size="2.7" text-anchor="start" fill="currentColor">
<tspan font-size="2.7">路</tspan>
</text>
</g>
<g transform="translate(50.0283,83.48490000000001)">
<path transform="scale(0.0040, -0.0040)" d="M0 0c0 30 25 55 55 55s55 -25 55 -55s-25 -55 -55 -55s-55 25 -55 55z" fill="currentColor"/>
</g>
<g transform="translate(48.3617,84.98490000000001)">
<rect x="-0.0757" y="-1.3287" width="0.1514" height="3.3287" ry="0.0500" fill="currentColor"/>
</g>
<g transform="translate(102.2338,87.98490000000001)">
<polygon stroke-linejoin="round" stroke-linecap="round" stroke-width="0.1000" fill="currentColor" stroke="currentColor" points="6.2453 -1.0082 6.2453 -0.6282 0.0500 0.1900 0.0500 -0.1900"/>
</g>
<g transform="translate(61.21,84.98490000000001)">
<path transform="scale(0.0040, -0.0040)" d="M212 138c68 0 113 -38 113 -95c0 -90 -109 -181 -212 -181c-68 0 -113 38 -113 95c0 90 109 181 212 181z" fill="currentColor"/>
</g>
<g transform="translate(59.385,91.237)">
<text font-family="Songti SC" font-size="2.7" text-anchor="start" fill="currentColor">
<tspan font-size="2.7">亚！</tspan>
</text>
</g>
<g transform="translate(61.2857,84.98490000000001)">
<rect x="-0.0757" y="0.1713" width="0.1514" height="3.2037" ry="0.0500" fill="currentColor"/>
</g>
<g transform="translate(61.3614,88.3099)">
<path transform="scale(0.0040, -0.0040)" d="M0 0h-19v250h19v-250zM0 0v250c95 59 220 149 220 259c0 56 -16 111 -41 161c-3 18 12 30 26 30c8 0 17 -4 22 -13c25 -56 40 -116 40 -178c0 -203 -267 -306 -267 -509z" fill="currentColor"/>
</g>
<g transform="translate(67.104,78.7393)">
<text font-family="Hiragino Sans GB" font-size="1.9604" text-anchor="start" fill="currentColor">
<tspan>G</tspan>
</text>
</g>
<g transform="translate(67.104,84.48490000000001)">
<path transform="scale(0.0040, -0.0040)" d="M212 138c68 0 113 -38 113 -95c0 -90 -109 -181 -212 -181c-68 0 -113 38 -113 95c0 90 109 181 212 181z" fill="currentColor"/>
</g>
<g transform="translate(66.5167,91.237)">
<text font-family="Songti SC" font-size="2.7" text-anchor="start" fill="currentColor">
<tspan font-size="2.7">我</tspan>
</text>
</g>
<g transform="translate(67.1797,84.98490000000001)">
<rect x="-0.0757" y="-0.3287" width="0.1514" height="3.1514" ry="0.0500" fill="currentColor"/>
</g>
<g transform="translate(72.998,84.98490000000001)">
<path transform="scale(0.0040, -0.0040)" d="M212 138c68 0 113 -38 113 -95c0 -90 -109 -181 -212 -181c-68 0 -113 38 -113 95c0 90 109 181 212 181z" fill="currentColor"/>
</g>
<g transform="translate(72.4107,91.237)">
<text font-family="Songti SC" font-size="2.7" text-anchor="start" fill="currentColor">
<tspan font-size="2.7">已</tspan>
</text>
</g>
<g transform="translate(73.0737,84.98490000000001)">
<rect x="-0.0757" y="0.1713" width="0.1514" height="3.0059" ry="0.0500" fill="currentColor"/>
</g>
<g transform="translate(81.2595,78.7393)">
<text font-family="Hiragino Sans GB" font-size="1.9604" text-anchor="start" fill="currentColor">
<tspan>D</tspan>
</text>
</g>
<g transform="translate(81.2595,84.98490000000001)">
<path transform="scale(0.0040, -0.0040)" d="M212 138c68 0 113 -38 113 -95c0 -90 -109 -181 -212 -181c-68 0 -113 38 -113 95c0 90 109 181 212 181z" fill="currentColor"/>
</g>
<g transform="translate(80.6722,91.237)">
<text font-family="Songti SC" font-size="2.7" text-anchor="start" fill="currentColor">
<tspan font-size="2.7">得</tspan>
</text>
</g>
<g transform="translate(81.3352,84.98490000000001)">
<rect x="-0.0757" y="0.1713" width="0.1514" height="3.1620" ry="0.0500" fill="currentColor"/>
</g>
<g transform="translate(67.104,87.8031)">
<polygon stroke-linejoin="round" stroke-linecap="round" stroke-width="0.1000" fill="currentColor" stroke="currentColor" points="5.9953 0.1736 5.9953 0.5536 0.0500 0.1900 0.0500 -0.1900"/>
</g>
<g transform="translate(91.6527,85.98490000000001)">
<path transform="scale(0.0040, -0.0040)" d="M212 138c68 0 113 -38 113 -95c0 -90 -109 -181 -212 -181c-68 0 -113 38 -113 95c0 90 109 181 212 181z" fill="currentColor"/>
</g>
<g transform="translate(91.0655,91.237)">
<text font-family="Songti SC" font-size="2.7" text-anchor="start" fill="currentColor">
<tspan font-size="2.7">到</tspan>
</text>
</g>
<g transform="translate(92.8779,84.98490000000001)">
<rect x="-0.0757" y="-2.5000" width="0.1514" height="3.3287" ry="0.0500" fill="currentColor"/>
</g>
<g transform="translate(102.2338,84.98490000000001)">
<path transform="scale(0.0040, -0.0040)" d="M212 138c68 0 113 -38 113 -95c0 -90 -109 -181 -212 -181c-68 0 -113 38 -113 95c0 90 109 181 212 181z" fill="currentColor"/>
</g>
<g transform="translate(101.6465,91.237)">
<text font-family="Songti SC" font-size="2.7" text-anchor="start" fill="currentColor">
<tspan font-size="2.7">我</tspan>
</text>
</g>
<g transform="translate(102.3095,84.98490000000001)">
<rect x="-0.0757" y="0.1713" width="0.1514" height="2.8188" ry="0.0500" fill="currentColor"/>
</g>
<g transform="translate(108.3778,83.48490000000001)">
<path transform="scale(0.0040, -0.0040)" d="M212 138c68 0 113 -38 113 -95c0 -90 -109 -181 -212 -181c-68 0 -113 38 -113 95c0 90 109 181 212 181z" fill="currentColor"/>
</g>
<g transform="translate(107.7905,91.237)">
<text font-family="Songti SC" font-size="2.7" text-anchor="start" fill="currentColor">
<tspan font-size="2.7">心</tspan>
</text>
</g>
<g transform="translate(108.4535,84.98490000000001)">
<rect x="-0.0757" y="-1.3287" width="0.1514" height="3.5203" ry="0.0500" fill="currentColor"/>
</g>
<g transform="translate(116.5893,78.7393)">
<text font-family="Hiragino Sans GB" font-size="1.9604" text-anchor="start" fill="currentColor">
<tspan>A</tspan>
</text>
</g>
<g transform="translate(116.5893,83.98490000000001)">
<path transform="scale(0.0040, -0.0040)" d="M212 138c68 0 113 -38 113 -95c0 -90 -109 -181 -212 -181c-68 0 -113 38 -113 95c0 90 109 181 212 181z" fill="currentColor"/>
</g>
<g transform="translate(116.002,91.237)">
<text font-family="Songti SC" font-size="2.7" text-anchor="start" fill="currentColor">
<tspan font-size="2.7">久</tspan>
</text>
</g>
<g transform="translate(118.3316,83.48490000000001)">
<path transform="scale(0.0040, -0.0040)" d="M0 0c0 30 25 55 55 55s55 -25 55 -55s-25 -55 -55 -55s-55 25 -55 55z" fill="currentColor"/>
</g>
<g transform="translate(116.665,84.98490000000001)">
<rect x="-0.0757" y="-0.8287" width="0.1514" height="3.3287" ry="0.0500" fill="currentColor"/>
</g>
<g transform="translate(34.0448,87.98490000000001)">
<polygon stroke-linejoin="round" stroke-linecap="round" stroke-width="0.1000" fill="currentColor" stroke="currentColor" points="5.9953 -0.1900 5.9953 0.1900 0.0500 0.1900 0.0500 -0.1900"/>
</g>
<g transform="translate(129.5133,84.98490000000001)">
<path transform="scale(0.0040, -0.0040)" d="M212 138c68 0 113 -38 113 -95c0 -90 -109 -181 -212 -181c-68 0 -113 38 -113 95c0 90 109 181 212 181z" fill="currentColor"/>
</g>
<g transform="translate(128.926,91.237)">
<text font-family="Songti SC" font-size="2.7" text-anchor="start" fill="currentColor">
<tspan font-size="2.7">所</tspan>
</text>
</g>
<g transform="translate(129.589,84.98490000000001)">
<rect x="-0.0757" y="0.1713" width="0.1514" height="3.2037" ry="0.0500" fill="currentColor"/>
</g>
<g transform="translate(129.6646,88.3099)">
<path transform="scale(0.0040, -0.0040)" d="M0 0h-19v250h19v-250zM0 0v250c95 59 220 149 220 259c0 56 -16 111 -41 161c-3 18 12 30 26 30c8 0 17 -4 22 -13c25 -56 40 -116 40 -178c0 -203 -267 -306 -267 -509z" fill="currentColor"/>
</g>
<g transform="translate(135.4073,78.7393)">
<text font-family="Hiragino Sans GB" font-size="1.9604" text-anchor="start" fill="currentColor">
<tspan>E</tspan>
</text>
</g>
<g transform="translate(136.6876,77.8484)">
<text font-family="Hiragino Sans GB" font-size="1.3856" text-anchor="start" fill="currentColor">
<tspan>7</tspan>
</text>
</g>
<g transform="translate(135.4073,83.98490000000001)">
<path transform="scale(0.0040, -0.0040)" d="M212 138c68 0 113 -38 113 -95c0 -90 -109 -181 -212 -181c-68 0 -113 38 -113 95c0 90 109 181 212 181z" fill="currentColor"/>
</g>
<g transform="translate(134.82,91.237)">
<text font-family="Songti SC" font-size="2.7" text-anchor="start" fill="currentColor">
<tspan font-size="2.7">渴</tspan>
</text>
</g>
<g transform="translate(135.4829,84.98490000000001)">
<rect x="-0.0757" y="-0.8287" width="0.1514" height="2.8309" ry="0.0500" fill="currentColor"/>
</g>
<g transform="translate(141.3013,84.48490000000001)">
<path transform="scale(0.0040, -0.0040)" d="M212 138c68 0 113 -38 113 -95c0 -90 -109 -181 -212 -181c-68 0 -113 38 -113 95c0 90 109 181 212 181z" fill="currentColor"/>
</g>
<g transform="translate(140.714,91.237)">
<text font-family="Songti SC" font-size="2.7" text-anchor="start" fill="currentColor">
<tspan font-size="2.7">慕</tspan>
</text>
</g>
<g transform="translate(141.3769,84.98490000000001)">
<rect x="-0.0757" y="-0.3287" width="0.1514" height="2.5082" ry="0.0500" fill="currentColor"/>
</g>
<g transform="translate(39.4658,110.9849)">
<rect x="0.0000" y="-2.0000" width="0.2212" height="4.0000" ry="0.0000" fill="currentColor"/>
</g>
<g transform="translate(9.0337,112.9849)">
<line stroke-linejoin="round" stroke-linecap="round" stroke-width="0.1164" stroke="currentColor" x1="0.0582" y1="0" x2="138.1582" y2="0"/>
</g>
<g transform="translate(9.0337,111.9849)">
<line stroke-linejoin="round" stroke-linecap="round" stroke-width="0.1164" stroke="currentColor" x1="0.0582" y1="0" x2="138.1582" y2="0"/>
</g>
<g transform="translate(9.0337,110.9849)">
<line stroke-linejoin="round" stroke-linecap="round" stroke-width="0.1164" stroke="currentColor" x1="0.0582" y1="0" x2="138.1582" y2="0"/>
</g>
<g transform="translate(9.0337,109.9849)">
<line stroke-linejoin="round" stroke-linecap="round" stroke-width="0.1164" stroke="currentColor" x1="0.0582" y1="0" x2="138.1582" y2="0"/>
</g>
<g transform="translate(9.0337,108.9849)">
<line stroke-linejoin="round" stroke-linecap="round" stroke-width="0.1164" stroke="currentColor" x1="0.0582" y1="0" x2="138.1582" y2="0"/>
</g>
<g transform="translate(146.5516,110.9849)">
<rect x="0.0000" y="-2.0000" width="0.6986" height="4.0000" ry="0.0000" fill="currentColor"/>
</g>
<g transform="translate(145.9811,110.9849)">
<rect x="0.0000" y="-2.0000" width="0.2212" height="4.0000" ry="0.0000" fill="currentColor"/>
</g>
<g transform="translate(119.4128,110.9849)">
<rect x="0.0000" y="-2.0000" width="0.2212" height="4.0000" ry="0.0000" fill="currentColor"/>
</g>
<g transform="translate(92.1368,110.9849)">
<rect x="0.0000" y="-2.0000" width="0.2212" height="4.0000" ry="0.0000" fill="currentColor"/>
</g>
<g transform="translate(65.1001,110.9849)">
<rect x="0.0000" y="-2.0000" width="0.2212" height="4.0000" ry="0.0000" fill="currentColor"/>
</g>
<g transform="translate(82.0705,117.3205)">
<text font-family="Songti SC" font-size="2.7" text-anchor="start" fill="currentColor">
<tspan font-size="2.7">借</tspan>
</text>
</g>
<g transform="translate(9.8338,111.9849)">
<path transform="scale(0.0040, -0.0040)" d="M647 2c0 -114 -75 -214 -180 -248c3 -33 4 -66 4 -99c0 -21 0 -41 -1 -62c-7 -122 -92 -229 -211 -229c-108 0 -196 88 -196 197c0 58 54 103 113 103c54 0 95 -47 95 -103c0 -52 -43 -95 -95 -95c-9 0 -18 1 -27 4c25 -37 66 -61 113 -61c93 0 156 91 162 191 c1 19 2 38 2 57c0 29 -1 58 -3 87c-5 -1 -44 -8 -88 -8c-194 0 -333 181 -333 376c0 177 129 308 244 443c-34 103 -55 171 -55 347c0 114 54 221 147 288c8 6 18 5 25 -1c68 -79 135 -242 135 -356c0 -142 -84 -255 -176 -364c21 -68 40 -136 57 -205c1 0 5 1 10 1 c157 0 258 -129 258 -263zM463 -201c64 24 110 88 110 161c0 88 -64 175 -167 188c28 -133 49 -269 57 -349zM77 25c0 -144 141 -243 261 -243c1 0 46 -1 81 5c-7 66 -27 208 -60 362c-79 -8 -124 -60 -124 -118c0 -43 25 -88 80 -120c5 -5 7 -11 7 -17 c0 -12 -10 -23 -23 -23c-16 0 -128 62 -128 188c0 89 60 177 163 200c-14 57 -30 113 -47 169c-105 -122 -210 -243 -210 -403zM242 784c0 -39 10 -95 39 -188c78 97 142 199 142 324c0 33 0 60 -20 118c-99 -46 -161 -145 -161 -254z" fill="currentColor"/>
</g>
<g transform="translate(13.4743,110.9849)">
<path transform="scale(0.0040, -0.0040)" d="M31 37l-2 -62v-11c0 -22 2 -43 5 -64c43 38 89 80 89 137c0 32 -14 65 -42 65c-31 0 -49 -32 -50 -65zM-30 450c9 5 20 8 30 8s21 -3 30 -8l-8 -340c25 24 59 38 94 38c50 0 84 -50 84 -104c0 -78 -83 -117 -141 -169c-17 -15 -25 -44 -49 -44c-15 0 -26 13 -26 29z" fill="currentColor"/>
</g>
<g transform="translate(14.4148,109.4849)">
<path transform="scale(0.0040, -0.0040)" d="M31 37l-2 -62v-11c0 -22 2 -43 5 -64c43 38 89 80 89 137c0 32 -14 65 -42 65c-31 0 -49 -32 -50 -65zM-30 450c9 5 20 8 30 8s21 -3 30 -8l-8 -340c25 24 59 38 94 38c50 0 84 -50 84 -104c0 -78 -83 -117 -141 -169c-17 -15 -25 -44 -49 -44c-15 0 -26 13 -26 29z" fill="currentColor"/>
</g>
<g transform="translate(15.3553,111.4849)">
<path transform="scale(0.0040, -0.0040)" d="M31 37l-2 -62v-11c0 -22 2 -43 5 -64c43 38 89 80 89 137c0 32 -14 65 -42 65c-31 0 -49 -32 -50 -65zM-30 450c9 5 20 8 30 8s21 -3 30 -8l-8 -340c25 24 59 38 94 38c50 0 84 -50 84 -104c0 -78 -83 -117 -141 -169c-17 -15 -25 -44 -49 -44c-15 0 -26 13 -26 29z" fill="currentColor"/>
</g>
<g transform="translate(7.4119,108.0344)">
<text font-family="Songti SC" font-size="1.7463" text-anchor="start" fill="currentColor">
<tspan>12</tspan>
</text>
</g>
<g transform="translate(18.6553,108.2377)">
<text font-family="Hiragino Sans GB" font-size="1.9604" text-anchor="start" fill="currentColor">
<tspan>A</tspan>
</text>
</g>
<g transform="translate(18.6553,110.9849)">
<path transform="scale(0.0040, -0.0040)" d="M310 63c0 22 -17 40 -40 40c-38 0 -197 -107 -224 -139c-7 -8 -10 -17 -10 -27c0 -22 17 -40 40 -40c38 0 197 107 224 139c7 8 10 17 10 27zM256 138c55 0 90 -22 90 -77c0 -25 -15 -112 -73 -151c-34 -23 -92 -48 -183 -48c-55 0 -90 22 -90 77c0 25 15 112 73 151 c34 23 92 48 183 48z" fill="currentColor"/>
</g>
<g transform="translate(16.8719,117.3205)">
<text font-family="Songti SC" font-size="2.7" text-anchor="start" fill="currentColor">
<tspan font-size="2.7">者！</tspan>
</text>
</g>
<g transform="translate(18.731,110.9849)">
<rect x="-0.0757" y="0.2456" width="0.1514" height="3.0878" ry="0.0500" fill="currentColor"/>
</g>
<g transform="translate(29.7725,108.2377)">
<text font-family="Hiragino Sans GB" font-size="1.9604" text-anchor="start" fill="currentColor">
<tspan>A</tspan>
</text>
</g>
<g transform="translate(31.2235,107.3468)">
<text font-family="Hiragino Sans GB" font-size="1.3856" text-anchor="start" fill="currentColor">
<tspan>7</tspan>
</text>
</g>
<g transform="translate(29.7725,112.9849)">
<path transform="scale(0.0040, -0.0040)" d="M212 138c68 0 113 -38 113 -95c0 -90 -109 -181 -212 -181c-68 0 -113 38 -113 95c0 90 109 181 212 181z" fill="currentColor"/>
</g>
<g transform="translate(29.1852,117.3205)">
<text font-family="Songti SC" font-size="2.7" text-anchor="start" fill="currentColor">
<tspan font-size="2.7">基</tspan>
</text>
</g>
<g transform="translate(30.9976,110.9849)">
<rect x="-0.0757" y="-1.1914" width="0.1514" height="3.0200" ry="0.0500" fill="currentColor"/>
</g>
<g transform="translate(95.2024,108.9849)">
<polygon stroke-linejoin="round" stroke-linecap="round" stroke-width="0.1000" fill="currentColor" stroke="currentColor" points="4.7220 -0.3718 4.7220 0.0082 0.0500 0.1900 0.0500 -0.1900"/>
</g>
<g transform="translate(34.6431,111.9849)">
<path transform="scale(0.0040, -0.0040)" d="M212 138c68 0 113 -38 113 -95c0 -90 -109 -181 -212 -181c-68 0 -113 38 -113 95c0 90 109 181 212 181z" fill="currentColor"/>
</g>
<g transform="translate(34.0558,117.3205)">
<text font-family="Songti SC" font-size="2.7" text-anchor="start" fill="currentColor">
<tspan font-size="2.7">督</tspan>
</text>
</g>
<g transform="translate(35.8683,110.9849)">
<rect x="-0.0757" y="-1.8086" width="0.1514" height="2.6373" ry="0.0500" fill="currentColor"/>
</g>
<g transform="translate(41.4864,108.2377)">
<text font-family="Hiragino Sans GB" font-size="1.9604" text-anchor="start" fill="currentColor">
<tspan>D</tspan>
</text>
</g>
<g transform="translate(41.4864,110.9849)">
<path transform="scale(0.0040, -0.0040)" d="M212 138c68 0 113 -38 113 -95c0 -90 -109 -181 -212 -181c-68 0 -113 38 -113 95c0 90 109 181 212 181z" fill="currentColor"/>
</g>
<g transform="translate(40.8991,117.3205)">
<text font-family="Songti SC" font-size="2.7" text-anchor="start" fill="currentColor">
<tspan font-size="2.7">满</tspan>
</text>
</g>
<g transform="translate(43.2287,110.4849)">
<path transform="scale(0.0040, -0.0040)" d="M0 0c0 30 25 55 55 55s55 -25 55 -55s-25 -55 -55 -55s-55 25 -55 55z" fill="currentColor"/>
</g>
<g transform="translate(41.5621,110.9849)">
<rect x="-0.0757" y="0.1713" width="0.1514" height="3.1620" ry="0.0500" fill="currentColor"/>
</g>
<g transform="translate(83.8072,109.9849)">
<polygon stroke-linejoin="round" stroke-linecap="round" stroke-width="0.1000" fill="currentColor" stroke="currentColor" points="4.7220 -0.3718 4.7220 0.0082 0.0500 0.1900 0.0500 -0.1900"/>
</g>
<g transform="translate(51.3688,110.9849)">
<path transform="scale(0.0040, -0.0040)" d="M212 138c68 0 113 -38 113 -95c0 -90 -109 -181 -212 -181c-68 0 -113 38 -113 95c0 90 109 181 212 181z" fill="currentColor"/>
</g>
<g transform="translate(50.7815,117.3205)">
<text font-family="Songti SC" font-size="2.7" text-anchor="start" fill="currentColor">
<tspan font-size="2.7">足</tspan>
</text>
</g>
<g transform="translate(51.4445,110.9849)">
<rect x="-0.0757" y="0.1713" width="0.1514" height="3.2037" ry="0.0500" fill="currentColor"/>
</g>
<g transform="translate(51.5202,114.3099)">
<path transform="scale(0.0040, -0.0040)" d="M0 0h-19v250h19v-250zM0 0v250c95 59 220 149 220 259c0 56 -16 111 -41 161c-3 18 12 30 26 30c8 0 17 -4 22 -13c25 -56 40 -116 40 -178c0 -203 -267 -306 -267 -509z" fill="currentColor"/>
</g>
<g transform="translate(55.9895,108.2377)">
<text font-family="Hiragino Sans GB" font-size="1.9604" text-anchor="start" fill="currentColor">
<tspan>A</tspan>
</text>
</g>
<g transform="translate(57.4406,107.3468)">
<text font-family="Hiragino Sans GB" font-size="1.3856" text-anchor="start" fill="currentColor">
<tspan>7</tspan>
</text>
</g>
<g transform="translate(55.9895,110.4849)">
<path transform="scale(0.0040, -0.0040)" d="M212 138c68 0 113 -38 113 -95c0 -90 -109 -181 -212 -181c-68 0 -113 38 -113 95c0 90 109 181 212 181z" fill="currentColor"/>
</g>
<g transform="translate(55.4022,117.3205)">
<text font-family="Songti SC" font-size="2.7" text-anchor="start" fill="currentColor">
<tspan font-size="2.7">我</tspan>
</text>
</g>
<g transform="translate(56.0651,110.9849)">
<rect x="-0.0757" y="-0.3287" width="0.1514" height="3.1526" ry="0.0500" fill="currentColor"/>
</g>
<g transform="translate(60.6101,110.9849)">
<path transform="scale(0.0040, -0.0040)" d="M212 138c68 0 113 -38 113 -95c0 -90 -109 -181 -212 -181c-68 0 -113 38 -113 95c0 90 109 181 212 181z" fill="currentColor"/>
</g>
<g transform="translate(60.0228,117.3205)">
<text font-family="Songti SC" font-size="2.7" text-anchor="start" fill="currentColor">
<tspan font-size="2.7">的</tspan>
</text>
</g>
<g transform="translate(60.6858,110.9849)">
<rect x="-0.0757" y="0.1713" width="0.1514" height="3.0047" ry="0.0500" fill="currentColor"/>
</g>
<g transform="translate(67.1208,108.2377)">
<text font-family="Hiragino Sans GB" font-size="1.9604" text-anchor="start" fill="currentColor">
<tspan>D</tspan>
</text>
</g>
<g transform="translate(67.1208,110.9849)">
<path transform="scale(0.0040, -0.0040)" d="M212 138c68 0 113 -38 113 -95c0 -90 -109 -181 -212 -181c-68 0 -113 38 -113 95c0 90 109 181 212 181z" fill="currentColor"/>
</g>
<g transform="translate(66.5335,117.3205)">
<text font-family="Songti SC" font-size="2.7" text-anchor="start" fill="currentColor">
<tspan font-size="2.7">愿</tspan>
</text>
</g>
<g transform="translate(67.1964,110.9849)">
<rect x="-0.0757" y="0.1713" width="0.1514" height="3.1620" ry="0.0500" fill="currentColor"/>
</g>
<g transform="translate(55.9895,113.8031)">
<polygon stroke-linejoin="round" stroke-linecap="round" stroke-width="0.1000" fill="currentColor" stroke="currentColor" points="4.7220 0.1736 4.7220 0.5536 0.0500 0.1900 0.0500 -0.1900"/>
</g>
<g transform="translate(74.9673,111.9849)">
<path transform="scale(0.0040, -0.0040)" d="M212 138c68 0 113 -38 113 -95c0 -90 -109 -181 -212 -181c-68 0 -113 38 -113 95c0 90 109 181 212 181z" fill="currentColor"/>
</g>
<g transform="translate(73.1423,117.3205)">
<text font-family="Songti SC" font-size="2.7" text-anchor="start" fill="currentColor">
<tspan font-size="2.7">望，</tspan>
</text>
</g>
<g transform="translate(76.1925,110.9849)">
<rect x="-0.0757" y="-2.5000" width="0.1514" height="3.3287" ry="0.0500" fill="currentColor"/>
</g>
<g transform="translate(82.6577,108.2377)">
<text font-family="Hiragino Sans GB" font-size="1.9604" text-anchor="start" fill="currentColor">
<tspan>G</tspan>
</text>
</g>
<g transform="translate(82.6577,112.9849)">
<path transform="scale(0.0040, -0.0040)" d="M212 138c68 0 113 -38 113 -95c0 -90 -109 -181 -212 -181c-68 0 -113 38 -113 95c0 90 109 181 212 181z" fill="currentColor"/>
</g>
<g transform="translate(87.2784,112.4849)">
<path transform="scale(0.0040, -0.0040)" d="M212 138c68 0 113 -38 113 -95c0 -90 -109 -181 -212 -181c-68 0 -113 38 -113 95c0 90 109 181 212 181z" fill="currentColor"/>
</g>
<g transform="translate(86.6911,117.3205)">
<text font-family="Songti SC" font-size="2.7" text-anchor="start" fill="currentColor">
<tspan font-size="2.7">祂</tspan>
</text>
</g>
<g transform="translate(88.5035,110.9849)">
<rect x="-0.0757" y="-1.1789" width="0.1514" height="2.5076" ry="0.0500" fill="currentColor"/>
</g>
<g transform="translate(94.0529,108.2377)">
<text font-family="Hiragino Sans GB" font-size="1.9604" text-anchor="start" fill="currentColor">
<tspan>D</tspan>
</text>
</g>
<g transform="translate(94.0529,111.9849)">
<path transform="scale(0.0040, -0.0040)" d="M212 138c68 0 113 -38 113 -95c0 -90 -109 -181 -212 -181c-68 0 -113 38 -113 95c0 90 109 181 212 181z" fill="currentColor"/>
</g>
<g transform="translate(93.4656,117.3205)">
<text font-family="Songti SC" font-size="2.7" text-anchor="start" fill="currentColor">
<tspan font-size="2.7">生</tspan>
</text>
</g>
<g transform="translate(95.2781,110.9849)">
<rect x="-0.0757" y="-2.0029" width="0.1514" height="2.8316" ry="0.0500" fill="currentColor"/>
</g>
<g transform="translate(98.6736,111.4849)">
<path transform="scale(0.0040, -0.0040)" d="M212 138c68 0 113 -38 113 -95c0 -90 -109 -181 -212 -181c-68 0 -113 38 -113 95c0 90 109 181 212 181z" fill="currentColor"/>
</g>
<g transform="translate(98.0863,117.3205)">
<text font-family="Songti SC" font-size="2.7" text-anchor="start" fill="currentColor">
<tspan font-size="2.7">命</tspan>
</text>
</g>
<g transform="translate(99.8987,110.9849)">
<rect x="-0.0757" y="-2.1789" width="0.1514" height="2.5076" ry="0.0500" fill="currentColor"/>
</g>
<g transform="translate(30.9219,109.8031)">
<polygon stroke-linejoin="round" stroke-linecap="round" stroke-width="0.1000" fill="currentColor" stroke="currentColor" points="4.9720 -0.8264 4.9720 -0.4464 0.0500 0.1900 0.0500 -0.1900"/>
</g>
<g transform="translate(103.2942,111.9849)">
<path transform="scale(0.0040, -0.0040)" d="M212 138c68 0 113 -38 113 -95c0 -90 -109 -181 -212 -181c-68 0 -113 38 -113 95c0 90 109 181 212 181z" fill="currentColor"/>
</g>
<g transform="translate(102.7069,117.3205)">
<text font-family="Songti SC" font-size="2.7" text-anchor="start" fill="currentColor">
<tspan font-size="2.7">救</tspan>
</text>
</g>
<g transform="translate(104.5194,110.9849)">
<rect x="-0.0757" y="-2.5000" width="0.1514" height="3.3287" ry="0.0500" fill="currentColor"/>
</g>
<g transform="translate(111.2346,108.2377)">
<text font-family="Hiragino Sans GB" font-size="1.9604" text-anchor="start" fill="currentColor">
<tspan>A</tspan>
</text>
</g>
<g transform="translate(112.6857,107.3468)">
<text font-family="Hiragino Sans GB" font-size="1.3856" text-anchor="start" fill="currentColor">
<tspan>7</tspan>
</text>
</g>
<g transform="translate(111.2346,112.4849)">
<path transform="scale(0.0040, -0.0040)" d="M212 138c68 0 113 -38 113 -95c0 -90 -109 -181 -212 -181c-68 0 -113 38 -113 95c0 90 109 181 212 181z" fill="currentColor"/>
</g>
<g transform="translate(110.6474,117.3205)">
<text font-family="Songti SC" font-size="2.7" text-anchor="start" fill="currentColor">
<tspan font-size="2.7">了</tspan>
</text>
</g>
<g transform="translate(112.4598,110.9849)">
<rect x="-0.0757" y="-2.0000" width="0.1514" height="3.3287" ry="0.0500" fill="currentColor"/>
</g>
<g transform="translate(121.329,108.2377)">
<text font-family="Hiragino Sans GB" font-size="1.9604" text-anchor="start" fill="currentColor">
<tspan>G</tspan>
</text>
</g>
<g transform="translate(121.329,112.9849)">
<path transform="scale(0.0040, -0.0040)" d="M310 63c0 22 -17 40 -40 40c-38 0 -197 -107 -224 -139c-7 -8 -10 -17 -10 -27c0 -22 17 -40 40 -40c38 0 197 107 224 139c7 8 10 17 10 27zM256 138c55 0 90 -22 90 -77c0 -25 -15 -112 -73 -151c-34 -23 -92 -48 -183 -48c-55 0 -90 22 -90 77c0 25 15 112 73 151 c34 23 92 48 183 48z" fill="currentColor"/>
</g>
<g transform="translate(119.5455,117.3205)">
<text font-family="Songti SC" font-size="2.7" text-anchor="start" fill="currentColor">
<tspan font-size="2.7">我。</tspan>
</text>
</g>
<g transform="translate(122.6372,110.9849)">
<rect x="-0.0757" y="-1.5000" width="0.1514" height="3.2544" ry="0.0500" fill="currentColor"/>
</g>
<g transform="translate(129.1686,108.2377)">
<text font-family="Hiragino Sans GB" font-size="1.9604" text-anchor="start" fill="currentColor">
<tspan>D</tspan>
</text>
</g>
<g transform="translate(138.3914,110.9849)">
<path transform="scale(0.0040, -0.0040)" d="M-9 78c0 59 124 84 124 182c0 25 -9 50 -26 70l-31 37c-3 4 -4 8 -4 12c0 10 9 18 19 18c5 0 9 -1 13 -6l149 -178c7 -9 11 -17 11 -26c0 -59 -124 -84 -124 -182c0 -25 9 -51 26 -71l79 -94c3 -4 4 -8 4 -12c0 -10 -9 -18 -19 -18c-11 0 -38 40 -102 40 c-23 0 -55 -4 -55 -65c0 -33 11 -73 27 -92c8 -9 -6 -20 -14 -11c-44 53 -92 145 -92 199c0 41 26 43 46 43c30 0 69 -9 106 -23l-126 151c-7 9 -11 17 -11 26z" fill="currentColor"/>
</g>
<g transform="translate(83.8829,110.9849)">
<rect x="-0.0757" y="-1.0029" width="0.1514" height="2.8316" ry="0.0500" fill="currentColor"/>
</g>
<g transform="translate(67.8148,150.98489999999998)">
<text font-family="Songti SC" font-size="1.5560" text-anchor="start" fill="currentColor">
<tspan> </tspan>
</text>
</g>
<g transform="translate(67.8148,164.98489999999998)">
<text font-family="Songti SC" font-size="1.5560" text-anchor="start" fill="currentColor">
<tspan> </tspan>
</text>
</g>
<g transform="translate(67.8148,178.98489999999998)">
<text font-family="Songti SC" font-size="1.5560" text-anchor="start" fill="currentColor">
<tspan> </tspan>
</text>
</g>
<g transform="translate(69.8408,247.9677)">
<text font-family="Trebuchet MS" font-size="2.2001" text-anchor="start" fill="currentColor">
<tspan>www.hymnal.net</tspan>
</text>
</g>
<g transform="translate(17.8461,39.1646)">
<text font-family="Songti SC" font-weight="bold" font-size="2.7" text-anchor="start" fill="currentColor">2.</text></g>
<g transform="translate(20.3399,39.1646)">
<text font-family="Songti SC" font-size="2.7" text-anchor="start" fill="currentColor">前</text></g>
<g transform="translate(26.6228,39.1646)">
<text font-family="Songti SC" font-size="2.7" text-anchor="start" fill="currentColor">吃</text></g>
<g transform="translate(35.683,39.1646)">
<text font-family="Songti SC" font-size="2.7" text-anchor="start" fill="currentColor">豆</text></g>
<g transform="translate(46.698,39.1646)">
<text font-family="Songti SC" font-size="2.7" text-anchor="start" fill="currentColor">荚</text></g>
<g transform="translate(57.9631,39.1646)">
<text font-family="Songti SC" font-size="2.7" text-anchor="start" fill="currentColor">勉</text></g>
<g transform="translate(64.496,39.1646)">
<text font-family="Songti SC" font-size="2.7" text-anchor="start" fill="currentColor">以</text></g>
<g transform="translate(73.4848,39.1646)">
<text font-family="Songti SC" font-size="2.7" text-anchor="start" fill="currentColor">充</text></g>
<g transform="translate(84.4998,39.1646)">
<text font-family="Songti SC" font-size="2.7" text-anchor="start" fill="currentColor">饥</text></g>
<g transform="translate(96.0148,39.1646)">
<text font-family="Songti SC" font-size="2.7" text-anchor="start" fill="currentColor">直</text></g>
<g transform="translate(102.2978,39.1646)">
<text font-family="Songti SC" font-size="2.7" text-anchor="start" fill="currentColor">到</text></g>
<g transform="translate(111.3222,39.1646)">
<text font-family="Songti SC" font-size="2.7" text-anchor="start" fill="currentColor">力</text></g>
<g transform="translate(122.6812,39.1646)">
<text font-family="Songti SC" font-size="2.7" text-anchor="start" fill="currentColor">量</text></g>
<g transform="translate(133.9237,39.1646)">
<text font-family="Songti SC" font-size="2.7" text-anchor="start" fill="currentColor">几</text></g>
<g transform="translate(139.9567,39.1646)">
<text font-family="Songti SC" font-size="2.7" text-anchor="start" fill="currentColor">消</text></g>
<g transform="translate(16.8719,65.8623)">
<text font-family="Songti SC" font-size="2.7" text-anchor="start" fill="currentColor">没</text></g>
<g transform="translate(32.6602,65.8623)">
<text font-family="Songti SC" font-size="2.7" text-anchor="start" fill="currentColor">虽</text></g>
<g transform="translate(38.3638,65.8623)">
<text font-family="Songti SC" font-size="2.7" text-anchor="start" fill="currentColor">然</text></g>
<g transform="translate(46.6605,65.8623)">
<text font-family="Songti SC" font-size="2.7" text-anchor="start" fill="currentColor">想</text></g>
<g transform="translate(57.0168,65.8623)">
<text font-family="Songti SC" font-size="2.7" text-anchor="start" fill="currentColor">吃</text></g>
<g transform="translate(67.1232,65.8623)">
<text font-family="Songti SC" font-size="2.7" text-anchor="start" fill="currentColor">较</text></g>
<g transform="translate(72.8268,65.8623)">
<text font-family="Songti SC" font-size="2.7" text-anchor="start" fill="currentColor">佳</text></g>
<g transform="translate(80.8194,65.8623)">
<text font-family="Songti SC" font-size="2.7" text-anchor="start" fill="currentColor">之</text></g>
<g transform="translate(90.9257,65.8623)">
<text font-family="Songti SC" font-size="2.7" text-anchor="start" fill="currentColor">物</text></g>
<g transform="translate(100.7953,65.8623)">
<text font-family="Songti SC" font-size="2.7" text-anchor="start" fill="currentColor">但</text></g>
<g transform="translate(106.4989,65.8623)">
<text font-family="Songti SC" font-size="2.7" text-anchor="start" fill="currentColor">仍</text></g>
<g transform="translate(114.7625,65.8623)">
<text font-family="Songti SC" font-size="2.7" text-anchor="start" fill="currentColor">只</text></g>
<g transform="translate(124.9628,65.8623)">
<text font-family="Songti SC" font-size="2.7" text-anchor="start" fill="currentColor">有</text></g>
<g transform="translate(135.0467,65.8623)">
<text font-family="Songti SC" font-size="2.7" text-anchor="start" fill="currentColor">忍</text></g>
<g transform="translate(140.5003,65.8623)">
<text font-family="Songti SC" font-size="2.7" text-anchor="start" fill="currentColor">饥</text></g>
<g transform="translate(16.8719,95.237)">
<text font-family="Songti SC" font-size="2.7" text-anchor="start" fill="currentColor">饿</text></g>
<g transform="translate(17.8461,43.1646)">
<text font-family="Songti SC" font-weight="bold" font-size="2.7" text-anchor="start" fill="currentColor">3.</text></g>
<g transform="translate(20.3399,43.1646)">
<text font-family="Songti SC" font-size="2.7" text-anchor="start" fill="currentColor">我</text></g>
<g transform="translate(26.6228,43.1646)">
<text font-family="Songti SC" font-size="2.7" text-anchor="start" fill="currentColor">前</text></g>
<g transform="translate(35.683,43.1646)">
<text font-family="Songti SC" font-size="2.7" text-anchor="start" fill="currentColor">贫</text></g>
<g transform="translate(46.698,43.1646)">
<text font-family="Songti SC" font-size="2.7" text-anchor="start" fill="currentColor">穷</text></g>
<g transform="translate(57.9631,43.1646)">
<text font-family="Songti SC" font-size="2.7" text-anchor="start" fill="currentColor">寻</text></g>
<g transform="translate(64.496,43.1646)">
<text font-family="Songti SC" font-size="2.7" text-anchor="start" fill="currentColor">求</text></g>
<g transform="translate(73.4848,43.1646)">
<text font-family="Songti SC" font-size="2.7" text-anchor="start" fill="currentColor">丰</text></g>
<g transform="translate(84.4998,43.1646)">
<text font-family="Songti SC" font-size="2.7" text-anchor="start" fill="currentColor">富</text></g>
<g transform="translate(96.0148,43.1646)">
<text font-family="Songti SC" font-size="2.7" text-anchor="start" fill="currentColor">使</text></g>
<g transform="translate(102.2978,43.1646)">
<text font-family="Songti SC" font-size="2.7" text-anchor="start" fill="currentColor">我</text></g>
<g transform="translate(111.3222,43.1646)">
<text font-family="Songti SC" font-size="2.7" text-anchor="start" fill="currentColor">饥</text></g>
<g transform="translate(122.6812,43.1646)">
<text font-family="Songti SC" font-size="2.7" text-anchor="start" fill="currentColor">饿</text></g>
<g transform="translate(133.9237,43.1646)">
<text font-family="Songti SC" font-size="2.7" text-anchor="start" fill="currentColor">得</text></g>
<g transform="translate(139.9567,43.1646)">
<text font-family="Songti SC" font-size="2.7" text-anchor="start" fill="currentColor">满</text></g>
<g transform="translate(16.8719,69.8623)">
<text font-family="Songti SC" font-size="2.7" text-anchor="start" fill="currentColor">足</text></g>
<g transform="translate(32.6602,69.8623)">
<text font-family="Songti SC" font-size="2.7" text-anchor="start" fill="currentColor">但</text></g>
<g transform="translate(38.3638,69.8623)">
<text font-family="Songti SC" font-size="2.7" text-anchor="start" fill="currentColor">我</text></g>
<g transform="translate(46.6605,69.8623)">
<text font-family="Songti SC" font-size="2.7" text-anchor="start" fill="currentColor">所</text></g>
<g transform="translate(57.0168,69.8623)">
<text font-family="Songti SC" font-size="2.7" text-anchor="start" fill="currentColor">得</text></g>
<g transform="translate(67.1232,69.8623)">
<text font-family="Songti SC" font-size="2.7" text-anchor="start" fill="currentColor">一</text></g>
<g transform="translate(72.8268,69.8623)">
<text font-family="Songti SC" font-size="2.7" text-anchor="start" fill="currentColor">切</text></g>
<g transform="translate(80.8194,69.8623)">
<text font-family="Songti SC" font-size="2.7" text-anchor="start" fill="currentColor">粪</text></g>
<g transform="translate(90.9257,69.8623)">
<text font-family="Songti SC" font-size="2.7" text-anchor="start" fill="currentColor">土</text></g>
<g transform="translate(100.7953,69.8623)">
<text font-family="Songti SC" font-size="2.7" text-anchor="start" fill="currentColor">只</text></g>
<g transform="translate(106.4989,69.8623)">
<text font-family="Songti SC" font-size="2.7" text-anchor="start" fill="currentColor">使</text></g>
<g transform="translate(114.7625,69.8623)">
<text font-family="Songti SC" font-size="2.7" text-anchor="start" fill="currentColor">我</text></g>
<g transform="translate(124.9628,69.8623)">
<text font-family="Songti SC" font-size="2.7" text-anchor="start" fill="currentColor">求</text></g>
<g transform="translate(135.0467,69.8623)">
<text font-family="Songti SC" font-size="2.7" text-anchor="start" fill="currentColor">受</text></g>
<g transform="translate(140.5003,69.8623)">
<text font-family="Songti SC" font-size="2.7" text-anchor="start" fill="currentColor">侮</text></g>
<g transform="translate(16.8719,99.237)">
<text font-family="Songti SC" font-size="2.7" text-anchor="start" fill="currentColor">辱</text></g>
<g transform="translate(17.8461,47.1646)">
<text font-family="Songti SC" font-weight="bold" font-size="2.7" text-anchor="start" fill="currentColor">4.</text></g>
<g transform="translate(20.3399,47.1646)">
<text font-family="Songti SC" font-size="2.7" text-anchor="start" fill="currentColor">活</text></g>
<g transform="translate(26.6228,47.1646)">
<text font-family="Songti SC" font-size="2.7" text-anchor="start" fill="currentColor">水</text></g>
<g transform="translate(35.683,47.1646)">
<text font-family="Songti SC" font-size="2.7" text-anchor="start" fill="currentColor">之</text></g>
<g transform="translate(46.698,47.1646)">
<text font-family="Songti SC" font-size="2.7" text-anchor="start" fill="currentColor">泉</text></g>
<g transform="translate(57.9631,47.1646)">
<text font-family="Songti SC" font-size="2.7" text-anchor="start" fill="currentColor">涌</text></g>
<g transform="translate(64.496,47.1646)">
<text font-family="Songti SC" font-size="2.7" text-anchor="start" fill="currentColor">流</text></g>
<g transform="translate(73.4848,47.1646)">
<text font-family="Songti SC" font-size="2.7" text-anchor="start" fill="currentColor">不</text></g>
<g transform="translate(84.4998,47.1646)">
<text font-family="Songti SC" font-size="2.7" text-anchor="start" fill="currentColor">息</text></g>
<g transform="translate(96.0148,47.1646)">
<text font-family="Songti SC" font-size="2.7" text-anchor="start" fill="currentColor">生</text></g>
<g transform="translate(102.2978,47.1646)">
<text font-family="Songti SC" font-size="2.7" text-anchor="start" fill="currentColor">命</text></g>
<g transform="translate(111.3222,47.1646)">
<text font-family="Songti SC" font-size="2.7" text-anchor="start" fill="currentColor">的</text></g>
<g transform="translate(122.6812,47.1646)">
<text font-family="Songti SC" font-size="2.7" text-anchor="start" fill="currentColor">粮</text></g>
<g transform="translate(133.9237,47.1646)">
<text font-family="Songti SC" font-size="2.7" text-anchor="start" fill="currentColor">可</text></g>
<g transform="translate(139.9567,47.1646)">
<text font-family="Songti SC" font-size="2.7" text-anchor="start" fill="currentColor">白</text></g>
<g transform="translate(16.8719,73.8623)">
<text font-family="Songti SC" font-size="2.7" text-anchor="start" fill="currentColor">得</text></g>
<g transform="translate(32.6602,73.8623)">
<text font-family="Songti SC" font-size="2.7" text-anchor="start" fill="currentColor">难</text></g>
<g transform="translate(38.3638,73.8623)">
<text font-family="Songti SC" font-size="2.7" text-anchor="start" fill="currentColor">言</text></g>
<g transform="translate(46.6605,73.8623)">
<text font-family="Songti SC" font-size="2.7" text-anchor="start" fill="currentColor">丰</text></g>
<g transform="translate(57.0168,73.8623)">
<text font-family="Songti SC" font-size="2.7" text-anchor="start" fill="currentColor">富</text></g>
<g transform="translate(67.1232,73.8623)">
<text font-family="Songti SC" font-size="2.7" text-anchor="start" fill="currentColor">永</text></g>
<g transform="translate(72.8268,73.8623)">
<text font-family="Songti SC" font-size="2.7" text-anchor="start" fill="currentColor">无</text></g>
<g transform="translate(80.8194,73.8623)">
<text font-family="Songti SC" font-size="2.7" text-anchor="start" fill="currentColor">不</text></g>
<g transform="translate(90.9257,73.8623)">
<text font-family="Songti SC" font-size="2.7" text-anchor="start" fill="currentColor">足</text></g>
<g transform="translate(100.7953,73.8623)">
<text font-family="Songti SC" font-size="2.7" text-anchor="start" fill="currentColor">我</text></g>
<g transform="translate(106.4989,73.8623)">
<text font-family="Songti SC" font-size="2.7" text-anchor="start" fill="currentColor">的</text></g>
<g transform="translate(114.7625,73.8623)">
<text font-family="Songti SC" font-size="2.7" text-anchor="start" fill="currentColor">救</text></g>
<g transform="translate(124.9628,73.8623)">
<text font-family="Songti SC" font-size="2.7" text-anchor="start" fill="currentColor">主</text></g>
<g transform="translate(135.0467,73.8623)">
<text font-family="Songti SC" font-size="2.7" text-anchor="start" fill="currentColor">之</text></g>
<g transform="translate(140.5003,73.8623)">
<text font-family="Songti SC" font-size="2.7" text-anchor="start" fill="currentColor">于</text></g>
<g transform="translate(16.8719,103.237)">
<text font-family="Songti SC" font-size="2.7" text-anchor="start" fill="currentColor">我</text></g>
</svg>