<?xml version='1.0' encoding='UTF-8'?>
<svg xmlns="http://www.w3.org/2000/svg" xmlns:xlink="http://www.w3.org/1999/xlink" version="1.2" width="215.90mm" height="279.40mm" viewBox="0.0000 -0.0000 153.5737 198.7425">
<style type="text/css">

tspan { white-space: pre; }

</style>
<g transform="translate(65.6796, 9.7598)">
<text font-family="Songti SC" font-weight="bold" font-size="3.1113" text-anchor="start" fill="currentColor">
<tspan>全能的神非受造的</tspan>
</text>
</g>
<g transform="translate(70.3743, 13.2598)">
<text font-family="Songti SC" font-weight="bold" font-size="2.2001" text-anchor="start" fill="currentColor">
<tspan>羡慕－神作生命</tspan>
</text>
</g>
<g transform="translate(135.2146, 17.7461)">
<text font-family="Songti SC" font-size="5.8741" text-anchor="start" fill="currentColor">
<tspan>C271</tspan>
</text>
</g>
<g transform="translate(9.0337, 19.6882)">
<text font-family="Songti SC" font-weight="bold" font-style="italic" font-size="2.2001" text-anchor="start" fill="currentColor">
<tspan>(吉他: Capo 1)</tspan>
</text>
</g>
<g transform="translate(42.6196, 29.4612)">
<rect x="0.0000" y="-2.0000" width="0.2212" height="4.0000" ry="0.0000" fill="currentColor"/>
</g>
<g transform="translate(9.0337, 32.4612)">
<rect x="19.1375" y="-0.1082" width="1.9513" height="0.2164" ry="0.1082" fill="currentColor"/>
</g>
<g transform="translate(9.0337, 31.4612)">
<line stroke-linejoin="round" stroke-linecap="round" stroke-width="0.1164" stroke="currentColor" x1="0.0582" y1="0" x2="138.1582" y2="0"/>
</g>
<g transform="translate(9.0337, 30.4612)">
<line stroke-linejoin="round" stroke-linecap="round" stroke-width="0.1164" stroke="currentColor" x1="0.0582" y1="0" x2="138.1582" y2="0"/>
</g>
<g transform="translate(9.0337, 29.4612)">
<line stroke-linejoin="round" stroke-linecap="round" stroke-width="0.1164" stroke="currentColor" x1="0.0582" y1="0" x2="138.1582" y2="0"/>
</g>
<g transform="translate(9.0337, 28.4612)">
<line stroke-linejoin="round" stroke-linecap="round" stroke-width="0.1164" stroke="currentColor" x1="0.0582" y1="0" x2="138.1582" y2="0"/>
</g>
<g transform="translate(9.0337, 27.4612)">
<line stroke-linejoin="round" stroke-linecap="round" stroke-width="0.1164" stroke="currentColor" x1="0.0582" y1="0" x2="138.1582" y2="0"/>
</g>
<g transform="translate(147.0289, 29.4612)">
<rect x="0.0000" y="-2.0000" width="0.2212" height="4.0000" ry="0.0000" fill="currentColor"/>
</g>
<g transform="translate(95.3090, 29.4612)">
<rect x="0.0000" y="-2.0000" width="0.2212" height="4.0000" ry="0.0000" fill="currentColor"/>
</g>
<g transform="translate(81.2574, 30.9612)">
<path transform="scale(0.0040, -0.0040)" d="M212 138c68 0 113 -38 113 -95c0 -90 -109 -181 -212 -181c-68 0 -113 38 -113 95c0 90 109 181 212 181z" fill="currentColor"/>
</g>
<g transform="translate(21.9288, 25.7396)">
<text font-family="Hiragino Sans GB" font-size="1.9604" text-anchor="start" fill="currentColor">
<tspan>G</tspan>
</text>
</g>
<g transform="translate(21.9288, 31.4612)">
<path transform="scale(0.0040, -0.0040)" d="M212 138c68 0 113 -38 113 -95c0 -90 -109 -181 -212 -181c-68 0 -113 38 -113 95c0 90 109 181 212 181z" fill="currentColor"/>
</g>
<g transform="translate(9.8338, 30.4612)">
<path transform="scale(0.0040, -0.0040)" d="M647 2c0 -114 -75 -214 -180 -248c3 -33 4 -66 4 -99c0 -21 0 -41 -1 -62c-7 -122 -92 -229 -211 -229c-108 0 -196 88 -196 197c0 58 54 103 113 103c54 0 95 -47 95 -103c0 -52 -43 -95 -95 -95c-9 0 -18 1 -27 4c25 -37 66 -61 113 -61c93 0 156 91 162 191 c1 19 2 38 2 57c0 29 -1 58 -3 87c-5 -1 -44 -8 -88 -8c-194 0 -333 181 -333 376c0 177 129 308 244 443c-34 103 -55 171 -55 347c0 114 54 221 147 288c8 6 18 5 25 -1c68 -79 135 -242 135 -356c0 -142 -84 -255 -176 -364c21 -68 40 -136 57 -205c1 0 5 1 10 1 c157 0 258 -129 258 -263zM463 -201c64 24 110 88 110 161c0 88 -64 175 -167 188c28 -133 49 -269 57 -349zM77 25c0 -144 141 -243 261 -243c1 0 46 -1 81 5c-7 66 -27 208 -60 362c-79 -8 -124 -60 -124 -118c0 -43 25 -88 80 -120c5 -5 7 -11 7 -17 c0 -12 -10 -23 -23 -23c-16 0 -128 62 -128 188c0 89 60 177 163 200c-14 57 -30 113 -47 169c-105 -122 -210 -243 -210 -403zM242 784c0 -39 10 -95 39 -188c78 97 142 199 142 324c0 33 0 60 -20 118c-99 -46 -161 -145 -161 -254z" fill="currentColor"/>
</g>
<g transform="translate(13.4743, 29.4612)">
<path transform="scale(0.0040, -0.0040)" d="M31 37l-2 -62v-11c0 -22 2 -43 5 -64c43 38 89 80 89 137c0 32 -14 65 -42 65c-31 0 -49 -32 -50 -65zM-30 450c9 5 20 8 30 8s21 -3 30 -8l-8 -340c25 24 59 38 94 38c50 0 84 -50 84 -104c0 -78 -83 -117 -141 -169c-17 -15 -25 -44 -49 -44c-15 0 -26 13 -26 29z" fill="currentColor"/>
</g>
<g transform="translate(14.4148, 27.9612)">
<path transform="scale(0.0040, -0.0040)" d="M31 37l-2 -62v-11c0 -22 2 -43 5 -64c43 38 89 80 89 137c0 32 -14 65 -42 65c-31 0 -49 -32 -50 -65zM-30 450c9 5 20 8 30 8s21 -3 30 -8l-8 -340c25 24 59 38 94 38c50 0 84 -50 84 -104c0 -78 -83 -117 -141 -169c-17 -15 -25 -44 -49 -44c-15 0 -26 13 -26 29z" fill="currentColor"/>
</g>
<g transform="translate(15.3553, 29.9612)">
<path transform="scale(0.0040, -0.0040)" d="M31 37l-2 -62v-11c0 -22 2 -43 5 -64c43 38 89 80 89 137c0 32 -14 65 -42 65c-31 0 -49 -32 -50 -65zM-30 450c9 5 20 8 30 8s21 -3 30 -8l-8 -340c25 24 59 38 94 38c50 0 84 -50 84 -104c0 -78 -83 -117 -141 -169c-17 -15 -25 -44 -49 -44c-15 0 -26 13 -26 29z" fill="currentColor"/>
</g>
<g transform="translate(16.2959, 28.4612)">
<path transform="scale(0.0040, -0.0040)" d="M31 37l-2 -62v-11c0 -22 2 -43 5 -64c43 38 89 80 89 137c0 32 -14 65 -42 65c-31 0 -49 -32 -50 -65zM-30 450c9 5 20 8 30 8s21 -3 30 -8l-8 -340c25 24 59 38 94 38c50 0 84 -50 84 -104c0 -78 -83 -117 -141 -169c-17 -15 -25 -44 -49 -44c-15 0 -26 13 -26 29z" fill="currentColor"/>
</g>
<g transform="translate(18.2459, 29.4612)">
<path transform="scale(0.0040, -0.0040)" d="M250 265c114 0 172 -112 172 -166c0 -38 -30 -69 -66 -69c-30 0 -72 23 -72 72c0 37 26 75 70 75c3 0 6 -1 9 -1c-26 36 -67 59 -113 59c-107 0 -113 -74 -113 -189c0 -15 1 -30 1 -46s-1 -31 -1 -46c0 -115 6 -189 113 -189c78 0 133 70 151 149c2 8 8 11 14 11 c7 0 15 -5 15 -14c0 -21 -49 -176 -180 -176c-145 0 -250 88 -250 265c0 63 18 265 250 265z" fill="currentColor"/>
</g>
<g transform="translate(21.3415,35.898)">
<text font-family="Songti SC" font-size="2.7" text-anchor="start" fill="currentColor">
<tspan font-size="2.7">全</tspan>
</text>
</g>
<g transform="translate(18.8477,35.898)">
<text font-family="Songti SC" font-weight="bold" font-size="2.7" text-anchor="start" fill="currentColor">
<tspan font-size="2.7">1.</tspan>
</text>
</g>
<g transform="translate(23.1539, 29.4612)">
<rect x="-0.0757" y="-1.0000" width="0.1514" height="2.8287" ry="0.0500" fill="currentColor"/>
</g>
<g transform="translate(127.0947, 27.6430)">
<polygon stroke-linejoin="round" stroke-linecap="round" stroke-width="0.1000" fill="currentColor" stroke="currentColor" points="14.2367 -1.3718 14.2367 -0.9918 0.0500 0.1900 0.0500 -0.1900"/>
</g>
<g transform="translate(28.4964, 32.4612)">
<path transform="scale(0.0040, -0.0040)" d="M212 138c68 0 113 -38 113 -95c0 -90 -109 -181 -212 -181c-68 0 -113 38 -113 95c0 90 109 181 212 181z" fill="currentColor"/>
</g>
<g transform="translate(27.9092,35.898)">
<text font-family="Songti SC" font-size="2.7" text-anchor="start" fill="currentColor">
<tspan font-size="2.7">能</tspan>
</text>
</g>
<g transform="translate(29.7216, 29.4612)">
<rect x="-0.0757" y="-1.0000" width="0.1514" height="3.8287" ry="0.0500" fill="currentColor"/>
</g>
<g transform="translate(35.5641, 31.4612)">
<path transform="scale(0.0040, -0.0040)" d="M212 138c68 0 113 -38 113 -95c0 -90 -109 -181 -212 -181c-68 0 -113 38 -113 95c0 90 109 181 212 181z" fill="currentColor"/>
</g>
<g transform="translate(34.9768,35.898)">
<text font-family="Songti SC" font-size="2.7" text-anchor="start" fill="currentColor">
<tspan font-size="2.7">的</tspan>
</text>
</g>
<g transform="translate(36.7893, 29.4612)">
<rect x="-0.0757" y="-1.0000" width="0.1514" height="2.8287" ry="0.0500" fill="currentColor"/>
</g>
<g transform="translate(98.0491, 29.4612)">
<path stroke-width="0.0931" stroke-linejoin="round" stroke-linecap="round" stroke="currentColor" fill="currentColor" d="M0.6329 2.5527C2.5631 4.2039 10.9098 4.5422 12.9674 3.0527L12.9674 3.0527C10.9155 4.4026 2.5687 4.0643 0.6329 2.5527z"/>
</g>
<g transform="translate(45.4927, 28.9612)">
<path transform="scale(0.0040, -0.0040)" d="M212 138c68 0 113 -38 113 -95c0 -90 -109 -181 -212 -181c-68 0 -113 38 -113 95c0 90 109 181 212 181z" fill="currentColor"/>
</g>
<g transform="translate(43.6677,35.898)">
<text font-family="Songti SC" font-size="2.7" text-anchor="start" fill="currentColor">
<tspan font-size="2.7">神，</tspan>
</text>
</g>
<g transform="translate(47.2349, 28.9612)">
<path transform="scale(0.0040, -0.0040)" d="M0 0c0 30 25 55 55 55s55 -25 55 -55s-25 -55 -55 -55s-55 25 -55 55z" fill="currentColor"/>
</g>
<g transform="translate(45.5683, 29.4612)">
<rect x="-0.0757" y="-0.3287" width="0.1514" height="3.3287" ry="0.0500" fill="currentColor"/>
</g>
<g transform="translate(61.0543, 28.9612)">
<path transform="scale(0.0040, -0.0040)" d="M212 138c68 0 113 -38 113 -95c0 -90 -109 -181 -212 -181c-68 0 -113 38 -113 95c0 90 109 181 212 181z" fill="currentColor"/>
</g>
<g transform="translate(60.467,35.898)">
<text font-family="Songti SC" font-size="2.7" text-anchor="start" fill="currentColor">
<tspan font-size="2.7">非</tspan>
</text>
</g>
<g transform="translate(61.1300, 29.4612)">
<rect x="-0.0757" y="-0.3287" width="0.1514" height="3.3287" ry="0.0500" fill="currentColor"/>
</g>
<g transform="translate(61.2057, 32.4112)">
<path transform="scale(0.0040, -0.0040)" d="M0 0h-19v250h19v-250zM0 0v250c95 59 220 149 220 259c0 56 -16 111 -41 161c-3 18 12 30 26 30c8 0 17 -4 22 -13c25 -56 40 -116 40 -178c0 -203 -267 -306 -267 -509z" fill="currentColor"/>
</g>
<g transform="translate(67.8720, 29.4612)">
<path transform="scale(0.0040, -0.0040)" d="M212 138c68 0 113 -38 113 -95c0 -90 -109 -181 -212 -181c-68 0 -113 38 -113 95c0 90 109 181 212 181z" fill="currentColor"/>
</g>
<g transform="translate(67.2847,35.898)">
<text font-family="Songti SC" font-size="2.7" text-anchor="start" fill="currentColor">
<tspan font-size="2.7">受</tspan>
</text>
</g>
<g transform="translate(69.0972, 29.4612)">
<rect x="-0.0757" y="-3.1805" width="0.1514" height="3.0091" ry="0.0500" fill="currentColor"/>
</g>
<g transform="translate(74.6897, 29.9612)">
<path transform="scale(0.0040, -0.0040)" d="M212 138c68 0 113 -38 113 -95c0 -90 -109 -181 -212 -181c-68 0 -113 38 -113 95c0 90 109 181 212 181z" fill="currentColor"/>
</g>
<g transform="translate(74.1024,35.898)">
<text font-family="Songti SC" font-size="2.7" text-anchor="start" fill="currentColor">
<tspan font-size="2.7">造</tspan>
</text>
</g>
<g transform="translate(75.9148, 29.4612)">
<rect x="-0.0757" y="-3.0602" width="0.1514" height="3.3888" ry="0.0500" fill="currentColor"/>
</g>
<g transform="translate(69.0215, 26.2794)">
<polygon stroke-linejoin="round" stroke-linecap="round" stroke-width="0.1000" fill="currentColor" stroke="currentColor" points="20.5544 0.1736 20.5544 0.5536 0.0500 0.1900 0.0500 -0.1900"/>
</g>
<g transform="translate(81.2574, 25.7396)">
<text font-family="Hiragino Sans GB" font-size="1.9604" text-anchor="start" fill="currentColor">
<tspan>C</tspan>
</text>
</g>
<g transform="translate(80.6701,35.898)">
<text font-family="Songti SC" font-size="2.7" text-anchor="start" fill="currentColor">
<tspan font-size="2.7">的</tspan>
</text>
</g>
<g transform="translate(82.4825, 29.4612)">
<rect x="-0.0757" y="-2.9443" width="0.1514" height="4.2729" ry="0.0500" fill="currentColor"/>
</g>
<g transform="translate(88.3250, 29.9612)">
<path transform="scale(0.0040, -0.0040)" d="M212 138c68 0 113 -38 113 -95c0 -90 -109 -181 -212 -181c-68 0 -113 38 -113 95c0 90 109 181 212 181z" fill="currentColor"/>
</g>
<g transform="translate(87.7378,35.898)">
<text font-family="Songti SC" font-size="2.7" text-anchor="start" fill="currentColor">
<tspan font-size="2.7">生</tspan>
</text>
</g>
<g transform="translate(89.5502, 29.4612)">
<rect x="-0.0757" y="-2.8195" width="0.1514" height="3.1482" ry="0.0500" fill="currentColor"/>
</g>
<g transform="translate(98.0491, 25.7396)">
<text font-family="Hiragino Sans GB" font-size="1.9604" text-anchor="start" fill="currentColor">
<tspan>G</tspan>
</text>
</g>
<g transform="translate(98.0491, 30.9612)">
<path transform="scale(0.0040, -0.0040)" d="M212 138c68 0 113 -38 113 -95c0 -90 -109 -181 -212 -181c-68 0 -113 38 -113 95c0 90 109 181 212 181z" fill="currentColor"/>
</g>
<g transform="translate(98.0491,35.898)">
<text font-family="Songti SC" font-size="2.7" text-anchor="start" fill="currentColor">
<tspan font-size="2.7">命，</tspan>
</text>
</g>
<g transform="translate(99.2742, 29.4612)">
<rect x="-0.0757" y="-2.0000" width="0.1514" height="3.3287" ry="0.0500" fill="currentColor"/>
</g>
<g transform="translate(110.3836, 31.4612)">
<path transform="scale(0.0040, -0.0040)" d="M212 138c68 0 113 -38 113 -95c0 -90 -109 -181 -212 -181c-68 0 -113 38 -113 95c0 90 109 181 212 181z" fill="currentColor"/>
</g>
<g transform="translate(112.1259, 30.9612)">
<path transform="scale(0.0040, -0.0040)" d="M0 0c0 30 25 55 55 55s55 -25 55 -55s-25 -55 -55 -55s-55 25 -55 55z" fill="currentColor"/>
</g>
<g transform="translate(111.6088, 29.4612)">
<rect x="-0.0757" y="-1.5000" width="0.1514" height="3.3287" ry="0.0500" fill="currentColor"/>
</g>
<g transform="translate(125.9453, 31.4612)">
<path transform="scale(0.0040, -0.0040)" d="M212 138c68 0 113 -38 113 -95c0 -90 -109 -181 -212 -181c-68 0 -113 38 -113 95c0 90 109 181 212 181z" fill="currentColor"/>
</g>
<g transform="translate(125.358,35.898)">
<text font-family="Songti SC" font-size="2.7" text-anchor="start" fill="currentColor">
<tspan font-size="2.7">听</tspan>
</text>
</g>
<g transform="translate(127.1704, 29.4612)">
<rect x="-0.0757" y="-1.8245" width="0.1514" height="3.6531" ry="0.0500" fill="currentColor"/>
</g>
<g transform="translate(23.0782, 28.4612)">
<polygon stroke-linejoin="round" stroke-linecap="round" stroke-width="0.1000" fill="currentColor" stroke="currentColor" points="13.7367 -0.1900 13.7367 0.1900 0.0500 0.1900 0.0500 -0.1900"/>
</g>
<g transform="translate(133.0129, 30.4612)">
<path transform="scale(0.0040, -0.0040)" d="M212 138c68 0 113 -38 113 -95c0 -90 -109 -181 -212 -181c-68 0 -113 38 -113 95c0 90 109 181 212 181z" fill="currentColor"/>
</g>
<g transform="translate(132.4257,35.898)">
<text font-family="Songti SC" font-size="2.7" text-anchor="start" fill="currentColor">
<tspan font-size="2.7">我</tspan>
</text>
</g>
<g transform="translate(134.2381, 29.4612)">
<rect x="-0.0757" y="-2.4091" width="0.1514" height="3.2378" ry="0.0500" fill="currentColor"/>
</g>
<g transform="translate(140.0806, 29.4612)">
<path transform="scale(0.0040, -0.0040)" d="M212 138c68 0 113 -38 113 -95c0 -90 -109 -181 -212 -181c-68 0 -113 38 -113 95c0 90 109 181 212 181z" fill="currentColor"/>
</g>
<g transform="translate(139.4933,35.898)">
<text font-family="Songti SC" font-size="2.7" text-anchor="start" fill="currentColor">
<tspan font-size="2.7">呼</tspan>
</text>
</g>
<g transform="translate(141.3058, 29.4612)">
<rect x="-0.0757" y="-2.9937" width="0.1514" height="2.8224" ry="0.0500" fill="currentColor"/>
</g>
<g transform="translate(84.3731,59.4612)">
<rect x="0.0000" y="-2.0000" width="0.2212" height="4.0000" ry="0.0000" fill="currentColor"/>
</g>
<g transform="translate(9.0337,62.4612)">
<rect x="119.5753" y="-0.1082" width="1.9513" height="0.2164" ry="0.1082" fill="currentColor"/>
</g>
<g transform="translate(9.0337,61.4612)">
<line stroke-linejoin="round" stroke-linecap="round" stroke-width="0.1164" stroke="currentColor" x1="0.0582" y1="0" x2="138.1582" y2="0"/>
</g>
<g transform="translate(9.0337,60.4612)">
<line stroke-linejoin="round" stroke-linecap="round" stroke-width="0.1164" stroke="currentColor" x1="0.0582" y1="0" x2="138.1582" y2="0"/>
</g>
<g transform="translate(9.0337,59.4612)">
<line stroke-linejoin="round" stroke-linecap="round" stroke-width="0.1164" stroke="currentColor" x1="0.0582" y1="0" x2="138.1582" y2="0"/>
</g>
<g transform="translate(9.0337,58.4612)">
<line stroke-linejoin="round" stroke-linecap="round" stroke-width="0.1164" stroke="currentColor" x1="0.0582" y1="0" x2="138.1582" y2="0"/>
</g>
<g transform="translate(9.0337,57.4612)">
<line stroke-linejoin="round" stroke-linecap="round" stroke-width="0.1164" stroke="currentColor" x1="0.0582" y1="0" x2="138.1582" y2="0"/>
</g>
<g transform="translate(147.0289,59.4612)">
<rect x="0.0000" y="-2.0000" width="0.2212" height="4.0000" ry="0.0000" fill="currentColor"/>
</g>
<g transform="translate(9.8338,60.4612)">
<path transform="scale(0.0040, -0.0040)" d="M647 2c0 -114 -75 -214 -180 -248c3 -33 4 -66 4 -99c0 -21 0 -41 -1 -62c-7 -122 -92 -229 -211 -229c-108 0 -196 88 -196 197c0 58 54 103 113 103c54 0 95 -47 95 -103c0 -52 -43 -95 -95 -95c-9 0 -18 1 -27 4c25 -37 66 -61 113 -61c93 0 156 91 162 191 c1 19 2 38 2 57c0 29 -1 58 -3 87c-5 -1 -44 -8 -88 -8c-194 0 -333 181 -333 376c0 177 129 308 244 443c-34 103 -55 171 -55 347c0 114 54 221 147 288c8 6 18 5 25 -1c68 -79 135 -242 135 -356c0 -142 -84 -255 -176 -364c21 -68 40 -136 57 -205c1 0 5 1 10 1 c157 0 258 -129 258 -263zM463 -201c64 24 110 88 110 161c0 88 -64 175 -167 188c28 -133 49 -269 57 -349zM77 25c0 -144 141 -243 261 -243c1 0 46 -1 81 5c-7 66 -27 208 -60 362c-79 -8 -124 -60 -124 -118c0 -43 25 -88 80 -120c5 -5 7 -11 7 -17 c0 -12 -10 -23 -23 -23c-16 0 -128 62 -128 188c0 89 60 177 163 200c-14 57 -30 113 -47 169c-105 -122 -210 -243 -210 -403zM242 784c0 -39 10 -95 39 -188c78 97 142 199 142 324c0 33 0 60 -20 118c-99 -46 -161 -145 -161 -254z" fill="currentColor"/>
</g>
<g transform="translate(13.4743,59.4612)">
<path transform="scale(0.0040, -0.0040)" d="M31 37l-2 -62v-11c0 -22 2 -43 5 -64c43 38 89 80 89 137c0 32 -14 65 -42 65c-31 0 -49 -32 -50 -65zM-30 450c9 5 20 8 30 8s21 -3 30 -8l-8 -340c25 24 59 38 94 38c50 0 84 -50 84 -104c0 -78 -83 -117 -141 -169c-17 -15 -25 -44 -49 -44c-15 0 -26 13 -26 29z" fill="currentColor"/>
</g>
<g transform="translate(14.4148,57.9612)">
<path transform="scale(0.0040, -0.0040)" d="M31 37l-2 -62v-11c0 -22 2 -43 5 -64c43 38 89 80 89 137c0 32 -14 65 -42 65c-31 0 -49 -32 -50 -65zM-30 450c9 5 20 8 30 8s21 -3 30 -8l-8 -340c25 24 59 38 94 38c50 0 84 -50 84 -104c0 -78 -83 -117 -141 -169c-17 -15 -25 -44 -49 -44c-15 0 -26 13 -26 29z" fill="currentColor"/>
</g>
<g transform="translate(15.3553,59.9612)">
<path transform="scale(0.0040, -0.0040)" d="M31 37l-2 -62v-11c0 -22 2 -43 5 -64c43 38 89 80 89 137c0 32 -14 65 -42 65c-31 0 -49 -32 -50 -65zM-30 450c9 5 20 8 30 8s21 -3 30 -8l-8 -340c25 24 59 38 94 38c50 0 84 -50 84 -104c0 -78 -83 -117 -141 -169c-17 -15 -25 -44 -49 -44c-15 0 -26 13 -26 29z" fill="currentColor"/>
</g>
<g transform="translate(16.2959,58.4612)">
<path transform="scale(0.0040, -0.0040)" d="M31 37l-2 -62v-11c0 -22 2 -43 5 -64c43 38 89 80 89 137c0 32 -14 65 -42 65c-31 0 -49 -32 -50 -65zM-30 450c9 5 20 8 30 8s21 -3 30 -8l-8 -340c25 24 59 38 94 38c50 0 84 -50 84 -104c0 -78 -83 -117 -141 -169c-17 -15 -25 -44 -49 -44c-15 0 -26 13 -26 29z" fill="currentColor"/>
</g>
<g transform="translate(8.2228,56.488)">
<text font-family="Songti SC" font-size="1.7463" text-anchor="start" fill="currentColor">
<tspan>3</tspan>
</text>
</g>
<g transform="translate(19.5959,56.8873)">
<text font-family="Hiragino Sans GB" font-size="1.9604" text-anchor="start" fill="currentColor">
<tspan>D</tspan>
</text>
</g>
<g transform="translate(19.5959,58.4612)">
<path transform="scale(0.0040, -0.0040)" d="M212 138c68 0 113 -38 113 -95c0 -90 -109 -181 -212 -181c-68 0 -113 38 -113 95c0 90 109 181 212 181z" fill="currentColor"/>
</g>
<g transform="translate(17.7709,65.8536)">
<text font-family="Songti SC" font-size="2.7" text-anchor="start" fill="currentColor">
<tspan font-size="2.7">求，</tspan>
</text>
</g>
<g transform="translate(21.3382,57.9612)">
<path transform="scale(0.0040, -0.0040)" d="M0 0c0 30 25 55 55 55s55 -25 55 -55s-25 -55 -55 -55s-55 25 -55 55z" fill="currentColor"/>
</g>
<g transform="translate(19.6715,59.4612)">
<rect x="-0.0757" y="-0.8287" width="0.1514" height="3.3287" ry="0.0500" fill="currentColor"/>
</g>
<g transform="translate(40.2906,58.4612)">
<path transform="scale(0.0040, -0.0040)" d="M212 138c68 0 113 -38 113 -95c0 -90 -109 -181 -212 -181c-68 0 -113 38 -113 95c0 90 109 181 212 181z" fill="currentColor"/>
</g>
<g transform="translate(39.7033,65.8536)">
<text font-family="Songti SC" font-size="2.7" text-anchor="start" fill="currentColor">
<tspan font-size="2.7">允</tspan>
</text>
</g>
<g transform="translate(40.3663,59.4612)">
<rect x="-0.0757" y="-0.8287" width="0.1514" height="3.3287" ry="0.0500" fill="currentColor"/>
</g>
<g transform="translate(40.442,61.9112)">
<path transform="scale(0.0040, -0.0040)" d="M0 0h-19v250h19v-250zM0 0v250c95 59 220 149 220 259c0 56 -16 111 -41 161c-3 18 12 30 26 30c8 0 17 -4 22 -13c25 -56 40 -116 40 -178c0 -203 -267 -306 -267 -509z" fill="currentColor"/>
</g>
<g transform="translate(49.094,56.8873)">
<text font-family="Hiragino Sans GB" font-size="1.9604" text-anchor="start" fill="currentColor">
<tspan>D</tspan>
</text>
</g>
<g transform="translate(50.5878,55.9964)">
<text font-family="Hiragino Sans GB" font-size="1.3856" text-anchor="start" fill="currentColor">
<tspan>7</tspan>
</text>
</g>
<g transform="translate(49.094,58.4612)">
<path transform="scale(0.0040, -0.0040)" d="M212 138c68 0 113 -38 113 -95c0 -90 -109 -181 -212 -181c-68 0 -113 38 -113 95c0 90 109 181 212 181z" fill="currentColor"/>
</g>
<g transform="translate(48.5068,65.8536)">
<text font-family="Songti SC" font-size="2.7" text-anchor="start" fill="currentColor">
<tspan font-size="2.7">我</tspan>
</text>
</g>
<g transform="translate(49.1697,59.4612)">
<rect x="-0.0757" y="-0.8287" width="0.1514" height="3.6479" ry="0.0500" fill="currentColor"/>
</g>
<g transform="translate(58.3435,58.4612)">
<path transform="scale(0.0040, -0.0040)" d="M212 138c68 0 113 -38 113 -95c0 -90 -109 -181 -212 -181c-68 0 -113 38 -113 95c0 90 109 181 212 181z" fill="currentColor"/>
</g>
<g transform="translate(57.7562,65.8536)">
<text font-family="Songti SC" font-size="2.7" text-anchor="start" fill="currentColor">
<tspan font-size="2.7">在</tspan>
</text>
</g>
<g transform="translate(58.4191,59.4612)">
<rect x="-0.0757" y="-0.8287" width="0.1514" height="3.7736" ry="0.0500" fill="currentColor"/>
</g>
<g transform="translate(57.2975,58.4612)">
<path transform="scale(0.0040, -0.0040)" d="M-7 375c8 5 17 7 26 7s17 -2 25 -7l-2 -192l102 23h4c10 0 19 -8 19 -18l7 -563c-8 -5 -17 -7 -26 -7s-18 2 -26 7l3 192l-102 -23h-4c-10 0 -19 8 -19 18zM129 110l-88 -19l-3 -201l88 19z" fill="currentColor"/>
</g>
<g transform="translate(67.1469,57.9612)">
<path transform="scale(0.0040, -0.0040)" d="M212 138c68 0 113 -38 113 -95c0 -90 -109 -181 -212 -181c-68 0 -113 38 -113 95c0 90 109 181 212 181z" fill="currentColor"/>
</g>
<g transform="translate(66.5596,65.8536)">
<text font-family="Songti SC" font-size="2.7" text-anchor="start" fill="currentColor">
<tspan font-size="2.7">此</tspan>
</text>
</g>
<g transform="translate(67.2226,59.4612)">
<rect x="-0.0757" y="-1.3287" width="0.1514" height="4.3932" ry="0.0500" fill="currentColor"/>
</g>
<g transform="translate(49.094,62.2794)">
<polygon stroke-linejoin="round" stroke-linecap="round" stroke-width="0.1000" fill="currentColor" stroke="currentColor" points="26.7076 0.1736 26.7076 0.5536 0.0500 0.1900 0.0500 -0.1900"/>
</g>
<g transform="translate(75.7003,59.4612)">
<path transform="scale(0.0040, -0.0040)" d="M212 138c68 0 113 -38 113 -95c0 -90 -109 -181 -212 -181c-68 0 -113 38 -113 95c0 90 109 181 212 181z" fill="currentColor"/>
</g>
<g transform="translate(75.113,65.8536)">
<text font-family="Songti SC" font-size="2.7" text-anchor="start" fill="currentColor">
<tspan font-size="2.7">所</tspan>
</text>
</g>
<g transform="translate(75.776,59.4612)">
<rect x="-0.0757" y="0.1713" width="0.1514" height="3.0094" ry="0.0500" fill="currentColor"/>
</g>
<g transform="translate(121.5303,58.4612)">
<polygon stroke-linejoin="round" stroke-linecap="round" stroke-width="0.1000" fill="currentColor" stroke="currentColor" points="17.7082 -0.1900 17.7082 0.1900 0.0500 0.1900 0.0500 -0.1900"/>
</g>
<g transform="translate(87.9866,58.9612)">
<path transform="scale(0.0040, -0.0040)" d="M310 63c0 22 -17 40 -40 40c-38 0 -197 -107 -224 -139c-7 -8 -10 -17 -10 -27c0 -22 17 -40 40 -40c38 0 197 107 224 139c7 8 10 17 10 27zM256 138c55 0 90 -22 90 -77c0 -25 -15 -112 -73 -151c-34 -23 -92 -48 -183 -48c-55 0 -90 22 -90 77c0 25 15 112 73 151 c34 23 92 48 183 48z" fill="currentColor"/>
</g>
<g transform="translate(86.2032,65.8536)">
<text font-family="Songti SC" font-size="2.7" text-anchor="start" fill="currentColor">
<tspan font-size="2.7">请；</tspan>
</text>
</g>
<g transform="translate(88.0623,59.4612)">
<rect x="-0.0757" y="-0.2544" width="0.1514" height="3.2544" ry="0.0500" fill="currentColor"/>
</g>
<g transform="translate(111.8783,56.8873)">
<text font-family="Hiragino Sans GB" font-size="1.9604" text-anchor="start" fill="currentColor">
<tspan>C</tspan>
</text>
</g>
<g transform="translate(111.8783,59.4612)">
<path transform="scale(0.0040, -0.0040)" d="M70 205c81 0 46 -96 90 -96c14 0 50 42 56 55c7 14 28 14 34 0l-119 -414c-9 -8 -21 -12 -32 -12s-23 4 -32 12l118 326c-33 -12 -66 -22 -101 -22c-47 0 -87 34 -87 79c0 40 33 72 73 72z" fill="currentColor"/>
</g>
<g transform="translate(120.3809,61.4612)">
<path transform="scale(0.0040, -0.0040)" d="M212 138c68 0 113 -38 113 -95c0 -90 -109 -181 -212 -181c-68 0 -113 38 -113 95c0 90 109 181 212 181z" fill="currentColor"/>
</g>
<g transform="translate(119.7936,65.8536)">
<text font-family="Songti SC" font-size="2.7" text-anchor="start" fill="currentColor">
<tspan font-size="2.7">无</tspan>
</text>
</g>
<g transform="translate(121.606,59.4612)">
<rect x="-0.0757" y="-1.0000" width="0.1514" height="2.8287" ry="0.0500" fill="currentColor"/>
</g>
<g transform="translate(128.9343,62.4612)">
<path transform="scale(0.0040, -0.0040)" d="M212 138c68 0 113 -38 113 -95c0 -90 -109 -181 -212 -181c-68 0 -113 38 -113 95c0 90 109 181 212 181z" fill="currentColor"/>
</g>
<g transform="translate(128.347,65.8536)">
<text font-family="Songti SC" font-size="2.7" text-anchor="start" fill="currentColor">
<tspan font-size="2.7">限</tspan>
</text>
</g>
<g transform="translate(130.1595,59.4612)">
<rect x="-0.0757" y="-1.0000" width="0.1514" height="3.8287" ry="0.0500" fill="currentColor"/>
</g>
<g transform="translate(137.9877,61.4612)">
<path transform="scale(0.0040, -0.0040)" d="M212 138c68 0 113 -38 113 -95c0 -90 -109 -181 -212 -181c-68 0 -113 38 -113 95c0 90 109 181 212 181z" fill="currentColor"/>
</g>
<g transform="translate(137.4004,65.8536)">
<text font-family="Songti SC" font-size="2.7" text-anchor="start" fill="currentColor">
<tspan font-size="2.7">荣</tspan>
</text>
</g>
<g transform="translate(139.2129,59.4612)">
<rect x="-0.0757" y="-1.0000" width="0.1514" height="2.8287" ry="0.0500" fill="currentColor"/>
</g>
<g transform="translate(87.9866,56.8873)">
<text font-family="Hiragino Sans GB" font-size="1.9604" text-anchor="start" fill="currentColor">
<tspan>G</tspan>
</text>
</g>
<g transform="translate(82.1149,90.0079)">
<rect x="0.0000" y="-2.0000" width="0.2212" height="4.0000" ry="0.0000" fill="currentColor"/>
</g>
<g transform="translate(9.0337,92.0079)">
<line stroke-linejoin="round" stroke-linecap="round" stroke-width="0.1164" stroke="currentColor" x1="0.0582" y1="0" x2="138.1582" y2="0"/>
</g>
<g transform="translate(9.0337,91.0079)">
<line stroke-linejoin="round" stroke-linecap="round" stroke-width="0.1164" stroke="currentColor" x1="0.0582" y1="0" x2="138.1582" y2="0"/>
</g>
<g transform="translate(9.0337,90.0079)">
<line stroke-linejoin="round" stroke-linecap="round" stroke-width="0.1164" stroke="currentColor" x1="0.0582" y1="0" x2="138.1582" y2="0"/>
</g>
<g transform="translate(9.0337,89.0079)">
<line stroke-linejoin="round" stroke-linecap="round" stroke-width="0.1164" stroke="currentColor" x1="0.0582" y1="0" x2="138.1582" y2="0"/>
</g>
<g transform="translate(9.0337,88.0079)">
<line stroke-linejoin="round" stroke-linecap="round" stroke-width="0.1164" stroke="currentColor" x1="0.0582" y1="0" x2="138.1582" y2="0"/>
</g>
<g transform="translate(147.0289,90.0079)">
<rect x="0.0000" y="-2.0000" width="0.2212" height="4.0000" ry="0.0000" fill="currentColor"/>
</g>
<g transform="translate(85.483,86.2915)">
<text font-family="Hiragino Sans GB" font-size="1.9604" text-anchor="start" fill="currentColor">
<tspan>G</tspan>
</text>
</g>
<g transform="translate(9.8338,91.0079)">
<path transform="scale(0.0040, -0.0040)" d="M647 2c0 -114 -75 -214 -180 -248c3 -33 4 -66 4 -99c0 -21 0 -41 -1 -62c-7 -122 -92 -229 -211 -229c-108 0 -196 88 -196 197c0 58 54 103 113 103c54 0 95 -47 95 -103c0 -52 -43 -95 -95 -95c-9 0 -18 1 -27 4c25 -37 66 -61 113 -61c93 0 156 91 162 191 c1 19 2 38 2 57c0 29 -1 58 -3 87c-5 -1 -44 -8 -88 -8c-194 0 -333 181 -333 376c0 177 129 308 244 443c-34 103 -55 171 -55 347c0 114 54 221 147 288c8 6 18 5 25 -1c68 -79 135 -242 135 -356c0 -142 -84 -255 -176 -364c21 -68 40 -136 57 -205c1 0 5 1 10 1 c157 0 258 -129 258 -263zM463 -201c64 24 110 88 110 161c0 88 -64 175 -167 188c28 -133 49 -269 57 -349zM77 25c0 -144 141 -243 261 -243c1 0 46 -1 81 5c-7 66 -27 208 -60 362c-79 -8 -124 -60 -124 -118c0 -43 25 -88 80 -120c5 -5 7 -11 7 -17 c0 -12 -10 -23 -23 -23c-16 0 -128 62 -128 188c0 89 60 177 163 200c-14 57 -30 113 -47 169c-105 -122 -210 -243 -210 -403zM242 784c0 -39 10 -95 39 -188c78 97 142 199 142 324c0 33 0 60 -20 118c-99 -46 -161 -145 -161 -254z" fill="currentColor"/>
</g>
<g transform="translate(13.4743,90.0079)">
<path transform="scale(0.0040, -0.0040)" d="M31 37l-2 -62v-11c0 -22 2 -43 5 -64c43 38 89 80 89 137c0 32 -14 65 -42 65c-31 0 -49 -32 -50 -65zM-30 450c9 5 20 8 30 8s21 -3 30 -8l-8 -340c25 24 59 38 94 38c50 0 84 -50 84 -104c0 -78 -83 -117 -141 -169c-17 -15 -25 -44 -49 -44c-15 0 -26 13 -26 29z" fill="currentColor"/>
</g>
<g transform="translate(14.4148,88.5079)">
<path transform="scale(0.0040, -0.0040)" d="M31 37l-2 -62v-11c0 -22 2 -43 5 -64c43 38 89 80 89 137c0 32 -14 65 -42 65c-31 0 -49 -32 -50 -65zM-30 450c9 5 20 8 30 8s21 -3 30 -8l-8 -340c25 24 59 38 94 38c50 0 84 -50 84 -104c0 -78 -83 -117 -141 -169c-17 -15 -25 -44 -49 -44c-15 0 -26 13 -26 29z" fill="currentColor"/>
</g>
<g transform="translate(15.3553,90.5079)">
<path transform="scale(0.0040, -0.0040)" d="M31 37l-2 -62v-11c0 -22 2 -43 5 -64c43 38 89 80 89 137c0 32 -14 65 -42 65c-31 0 -49 -32 -50 -65zM-30 450c9 5 20 8 30 8s21 -3 30 -8l-8 -340c25 24 59 38 94 38c50 0 84 -50 84 -104c0 -78 -83 -117 -141 -169c-17 -15 -25 -44 -49 -44c-15 0 -26 13 -26 29z" fill="currentColor"/>
</g>
<g transform="translate(16.2959,89.0079)">
<path transform="scale(0.0040, -0.0040)" d="M31 37l-2 -62v-11c0 -22 2 -43 5 -64c43 38 89 80 89 137c0 32 -14 65 -42 65c-31 0 -49 -32 -50 -65zM-30 450c9 5 20 8 30 8s21 -3 30 -8l-8 -340c25 24 59 38 94 38c50 0 84 -50 84 -104c0 -78 -83 -117 -141 -169c-17 -15 -25 -44 -49 -44c-15 0 -26 13 -26 29z" fill="currentColor"/>
</g>
<g transform="translate(8.2228,87.0347)">
<text font-family="Songti SC" font-size="1.7463" text-anchor="start" fill="currentColor">
<tspan>5</tspan>
</text>
</g>
<g transform="translate(122.1063,88.1897)">
<polygon stroke-linejoin="round" stroke-linecap="round" stroke-width="0.1000" fill="currentColor" stroke="currentColor" points="17.5861 -1.5536 17.5861 -1.1736 0.0500 0.1900 0.0500 -0.1900"/>
</g>
<g transform="translate(19.5959,86.2915)">
<text font-family="Hiragino Sans GB" font-size="1.9604" text-anchor="start" fill="currentColor">
<tspan>G</tspan>
</text>
</g>
<g transform="translate(19.5959,89.5079)">
<path transform="scale(0.0040, -0.0040)" d="M212 138c68 0 113 -38 113 -95c0 -90 -109 -181 -212 -181c-68 0 -113 38 -113 95c0 90 109 181 212 181z" fill="currentColor"/>
</g>
<g transform="translate(17.7709,96.3095)">
<text font-family="Songti SC" font-size="2.7" text-anchor="start" fill="currentColor">
<tspan font-size="2.7">耀，</tspan>
</text>
</g>
<g transform="translate(21.3382,89.5079)">
<path transform="scale(0.0040, -0.0040)" d="M0 0c0 30 25 55 55 55s55 -25 55 -55s-25 -55 -55 -55s-55 25 -55 55z" fill="currentColor"/>
</g>
<g transform="translate(19.6715,90.0079)">
<rect x="-0.0757" y="-0.3287" width="0.1514" height="3.3287" ry="0.0500" fill="currentColor"/>
</g>
<g transform="translate(39.4866,89.5079)">
<path transform="scale(0.0040, -0.0040)" d="M212 138c68 0 113 -38 113 -95c0 -90 -109 -181 -212 -181c-68 0 -113 38 -113 95c0 90 109 181 212 181z" fill="currentColor"/>
</g>
<g transform="translate(38.8993,96.3095)">
<text font-family="Songti SC" font-size="2.7" text-anchor="start" fill="currentColor">
<tspan font-size="2.7">在</tspan>
</text>
</g>
<g transform="translate(39.5623,90.0079)">
<rect x="-0.0757" y="-0.3287" width="0.1514" height="3.3287" ry="0.0500" fill="currentColor"/>
</g>
<g transform="translate(39.638,92.9579)">
<path transform="scale(0.0040, -0.0040)" d="M0 0h-19v250h19v-250zM0 0v250c95 59 220 149 220 259c0 56 -16 111 -41 161c-3 18 12 30 26 30c8 0 17 -4 22 -13c25 -56 40 -116 40 -178c0 -203 -267 -306 -267 -509z" fill="currentColor"/>
</g>
<g transform="translate(85.483,90.0079)">
<path stroke-width="0.0931" stroke-linejoin="round" stroke-linecap="round" stroke="currentColor" fill="currentColor" d="M0.6366 2.5527C2.8166 4.2933 14.0341 4.6509 16.3206 3.0527L16.3206 3.0527C14.0386 4.5113 2.8211 4.1537 0.6366 2.5527z"/>
</g>
<g transform="translate(47.979,90.0079)">
<path transform="scale(0.0040, -0.0040)" d="M212 138c68 0 113 -38 113 -95c0 -90 -109 -181 -212 -181c-68 0 -113 38 -113 95c0 90 109 181 212 181z" fill="currentColor"/>
</g>
<g transform="translate(47.3917,96.3095)">
<text font-family="Songti SC" font-size="2.7" text-anchor="start" fill="currentColor">
<tspan font-size="2.7">你</tspan>
</text>
</g>
<g transform="translate(49.2042,90.0079)">
<rect x="-0.0757" y="-3.1807" width="0.1514" height="3.0094" ry="0.0500" fill="currentColor"/>
</g>
<g transform="translate(56.4714,90.5079)">
<path transform="scale(0.0040, -0.0040)" d="M212 138c68 0 113 -38 113 -95c0 -90 -109 -181 -212 -181c-68 0 -113 38 -113 95c0 90 109 181 212 181z" fill="currentColor"/>
</g>
<g transform="translate(55.8841,96.3095)">
<text font-family="Songti SC" font-size="2.7" text-anchor="start" fill="currentColor">
<tspan font-size="2.7">周</tspan>
</text>
</g>
<g transform="translate(57.6966,90.0079)">
<rect x="-0.0757" y="-3.0602" width="0.1514" height="3.3889" ry="0.0500" fill="currentColor"/>
</g>
<g transform="translate(64.7138,86.2915)">
<text font-family="Hiragino Sans GB" font-size="1.9604" text-anchor="start" fill="currentColor">
<tspan>C</tspan>
</text>
</g>
<g transform="translate(64.7138,91.5079)">
<path transform="scale(0.0040, -0.0040)" d="M212 138c68 0 113 -38 113 -95c0 -90 -109 -181 -212 -181c-68 0 -113 38 -113 95c0 90 109 181 212 181z" fill="currentColor"/>
</g>
<g transform="translate(64.1265,96.3095)">
<text font-family="Songti SC" font-size="2.7" text-anchor="start" fill="currentColor">
<tspan font-size="2.7">身</tspan>
</text>
</g>
<g transform="translate(65.939,90.0079)">
<rect x="-0.0757" y="-2.9433" width="0.1514" height="4.2720" ry="0.0500" fill="currentColor"/>
</g>
<g transform="translate(73.4562,90.5079)">
<path transform="scale(0.0040, -0.0040)" d="M212 138c68 0 113 -38 113 -95c0 -90 -109 -181 -212 -181c-68 0 -113 38 -113 95c0 90 109 181 212 181z" fill="currentColor"/>
</g>
<g transform="translate(72.8689,96.3095)">
<text font-family="Songti SC" font-size="2.7" text-anchor="start" fill="currentColor">
<tspan font-size="2.7">围</tspan>
</text>
</g>
<g transform="translate(74.6813,90.0079)">
<rect x="-0.0757" y="-2.8193" width="0.1514" height="3.1480" ry="0.0500" fill="currentColor"/>
</g>
<g transform="translate(85.483,91.5079)">
<path transform="scale(0.0040, -0.0040)" d="M212 138c68 0 113 -38 113 -95c0 -90 -109 -181 -212 -181c-68 0 -113 38 -113 95c0 90 109 181 212 181z" fill="currentColor"/>
</g>
<g transform="translate(85.483,96.3095)">
<text font-family="Songti SC" font-size="2.7" text-anchor="start" fill="currentColor">
<tspan font-size="2.7">绕，</tspan>
</text>
</g>
<g transform="translate(86.7081,90.0079)">
<rect x="-0.0757" y="-2.0000" width="0.1514" height="3.3287" ry="0.0500" fill="currentColor"/>
</g>
<g transform="translate(49.1285,86.8261)">
<polygon stroke-linejoin="round" stroke-linecap="round" stroke-width="0.1000" fill="currentColor" stroke="currentColor" points="25.5785 0.1736 25.5785 0.5536 0.0500 0.1900 0.0500 -0.1900"/>
</g>
<g transform="translate(101.1669,92.0079)">
<path transform="scale(0.0040, -0.0040)" d="M212 138c68 0 113 -38 113 -95c0 -90 -109 -181 -212 -181c-68 0 -113 38 -113 95c0 90 109 181 212 181z" fill="currentColor"/>
</g>
<g transform="translate(102.9092,91.5079)">
<path transform="scale(0.0040, -0.0040)" d="M0 0c0 30 25 55 55 55s55 -25 55 -55s-25 -55 -55 -55s-55 25 -55 55z" fill="currentColor"/>
</g>
<g transform="translate(102.3921,90.0079)">
<rect x="-0.0757" y="-1.5000" width="0.1514" height="3.3287" ry="0.0500" fill="currentColor"/>
</g>
<g transform="translate(114.3602,86.2915)">
<text font-family="Hiragino Sans GB" font-size="1.9604" text-anchor="start" fill="currentColor">
<tspan>E</tspan>
</text>
</g>
<g transform="translate(115.6406,86.2915)">
<text font-family="Hiragino Sans GB" font-size="1.9604" text-anchor="start" fill="currentColor">
<tspan>m</tspan>
</text>
</g>
<g transform="translate(120.9568,92.0079)">
<path transform="scale(0.0040, -0.0040)" d="M212 138c68 0 113 -38 113 -95c0 -90 -109 -181 -212 -181c-68 0 -113 38 -113 95c0 90 109 181 212 181z" fill="currentColor"/>
</g>
<g transform="translate(120.3695,96.3095)">
<text font-family="Songti SC" font-size="2.7" text-anchor="start" fill="currentColor">
<tspan font-size="2.7">生</tspan>
</text>
</g>
<g transform="translate(122.182,90.0079)">
<rect x="-0.0757" y="-1.8241" width="0.1514" height="3.6527" ry="0.0500" fill="currentColor"/>
</g>
<g transform="translate(129.6992,90.5079)">
<path transform="scale(0.0040, -0.0040)" d="M212 138c68 0 113 -38 113 -95c0 -90 -109 -181 -212 -181c-68 0 -113 38 -113 95c0 90 109 181 212 181z" fill="currentColor"/>
</g>
<g transform="translate(129.1119,96.3095)">
<text font-family="Songti SC" font-size="2.7" text-anchor="start" fill="currentColor">
<tspan font-size="2.7">命</tspan>
</text>
</g>
<g transform="translate(130.9244,90.0079)">
<rect x="-0.0757" y="-2.5000" width="0.1514" height="2.8287" ry="0.0500" fill="currentColor"/>
</g>
<g transform="translate(138.4416,89.5079)">
<path transform="scale(0.0040, -0.0040)" d="M212 138c68 0 113 -38 113 -95c0 -90 -109 -181 -212 -181c-68 0 -113 38 -113 95c0 90 109 181 212 181z" fill="currentColor"/>
</g>
<g transform="translate(137.8543,96.3095)">
<text font-family="Songti SC" font-size="2.7" text-anchor="start" fill="currentColor">
<tspan font-size="2.7">赐</tspan>
</text>
</g>
<g transform="translate(139.6668,90.0079)">
<rect x="-0.0757" y="-3.1759" width="0.1514" height="2.5046" ry="0.0500" fill="currentColor"/>
</g>
<g transform="translate(79.2627,120.6864)">
<rect x="0.0000" y="-2.0000" width="0.2212" height="4.0000" ry="0.0000" fill="currentColor"/>
</g>
<g transform="translate(9.0337,122.6864)">
<line stroke-linejoin="round" stroke-linecap="round" stroke-width="0.1164" stroke="currentColor" x1="0.0582" y1="0" x2="138.1582" y2="0"/>
</g>
<g transform="translate(9.0337,121.6864)">
<line stroke-linejoin="round" stroke-linecap="round" stroke-width="0.1164" stroke="currentColor" x1="0.0582" y1="0" x2="138.1582" y2="0"/>
</g>
<g transform="translate(9.0337,120.6864)">
<line stroke-linejoin="round" stroke-linecap="round" stroke-width="0.1164" stroke="currentColor" x1="0.0582" y1="0" x2="138.1582" y2="0"/>
</g>
<g transform="translate(9.0337,119.6864)">
<line stroke-linejoin="round" stroke-linecap="round" stroke-width="0.1164" stroke="currentColor" x1="0.0582" y1="0" x2="138.1582" y2="0"/>
</g>
<g transform="translate(9.0337,118.6864)">
<line stroke-linejoin="round" stroke-linecap="round" stroke-width="0.1164" stroke="currentColor" x1="0.0582" y1="0" x2="138.1582" y2="0"/>
</g>
<g transform="translate(146.5516,120.6864)">
<rect x="0.0000" y="-2.0000" width="0.6986" height="4.0000" ry="0.0000" fill="currentColor"/>
</g>
<g transform="translate(145.9811,120.6864)">
<rect x="0.0000" y="-2.0000" width="0.2212" height="4.0000" ry="0.0000" fill="currentColor"/>
</g>
<g transform="translate(82.3453,120.6864)">
<path stroke-width="0.0931" stroke-linejoin="round" stroke-linecap="round" stroke="currentColor" fill="currentColor" d="M0.8919 1.5796C2.5528 2.6095 29.5897 2.6095 31.2505 1.5796L31.2505 1.5796C29.5897 2.4697 2.5528 2.4697 0.8919 1.5796z"/>
</g>
<g transform="translate(9.8338,121.6864)">
<path transform="scale(0.0040, -0.0040)" d="M647 2c0 -114 -75 -214 -180 -248c3 -33 4 -66 4 -99c0 -21 0 -41 -1 -62c-7 -122 -92 -229 -211 -229c-108 0 -196 88 -196 197c0 58 54 103 113 103c54 0 95 -47 95 -103c0 -52 -43 -95 -95 -95c-9 0 -18 1 -27 4c25 -37 66 -61 113 -61c93 0 156 91 162 191 c1 19 2 38 2 57c0 29 -1 58 -3 87c-5 -1 -44 -8 -88 -8c-194 0 -333 181 -333 376c0 177 129 308 244 443c-34 103 -55 171 -55 347c0 114 54 221 147 288c8 6 18 5 25 -1c68 -79 135 -242 135 -356c0 -142 -84 -255 -176 -364c21 -68 40 -136 57 -205c1 0 5 1 10 1 c157 0 258 -129 258 -263zM463 -201c64 24 110 88 110 161c0 88 -64 175 -167 188c28 -133 49 -269 57 -349zM77 25c0 -144 141 -243 261 -243c1 0 46 -1 81 5c-7 66 -27 208 -60 362c-79 -8 -124 -60 -124 -118c0 -43 25 -88 80 -120c5 -5 7 -11 7 -17 c0 -12 -10 -23 -23 -23c-16 0 -128 62 -128 188c0 89 60 177 163 200c-14 57 -30 113 -47 169c-105 -122 -210 -243 -210 -403zM242 784c0 -39 10 -95 39 -188c78 97 142 199 142 324c0 33 0 60 -20 118c-99 -46 -161 -145 -161 -254z" fill="currentColor"/>
</g>
<g transform="translate(13.4743,120.6864)">
<path transform="scale(0.0040, -0.0040)" d="M31 37l-2 -62v-11c0 -22 2 -43 5 -64c43 38 89 80 89 137c0 32 -14 65 -42 65c-31 0 -49 -32 -50 -65zM-30 450c9 5 20 8 30 8s21 -3 30 -8l-8 -340c25 24 59 38 94 38c50 0 84 -50 84 -104c0 -78 -83 -117 -141 -169c-17 -15 -25 -44 -49 -44c-15 0 -26 13 -26 29z" fill="currentColor"/>
</g>
<g transform="translate(14.4148,119.1864)">
<path transform="scale(0.0040, -0.0040)" d="M31 37l-2 -62v-11c0 -22 2 -43 5 -64c43 38 89 80 89 137c0 32 -14 65 -42 65c-31 0 -49 -32 -50 -65zM-30 450c9 5 20 8 30 8s21 -3 30 -8l-8 -340c25 24 59 38 94 38c50 0 84 -50 84 -104c0 -78 -83 -117 -141 -169c-17 -15 -25 -44 -49 -44c-15 0 -26 13 -26 29z" fill="currentColor"/>
</g>
<g transform="translate(15.3553,121.1864)">
<path transform="scale(0.0040, -0.0040)" d="M31 37l-2 -62v-11c0 -22 2 -43 5 -64c43 38 89 80 89 137c0 32 -14 65 -42 65c-31 0 -49 -32 -50 -65zM-30 450c9 5 20 8 30 8s21 -3 30 -8l-8 -340c25 24 59 38 94 38c50 0 84 -50 84 -104c0 -78 -83 -117 -141 -169c-17 -15 -25 -44 -49 -44c-15 0 -26 13 -26 29z" fill="currentColor"/>
</g>
<g transform="translate(16.2959,119.6864)">
<path transform="scale(0.0040, -0.0040)" d="M31 37l-2 -62v-11c0 -22 2 -43 5 -64c43 38 89 80 89 137c0 32 -14 65 -42 65c-31 0 -49 -32 -50 -65zM-30 450c9 5 20 8 30 8s21 -3 30 -8l-8 -340c25 24 59 38 94 38c50 0 84 -50 84 -104c0 -78 -83 -117 -141 -169c-17 -15 -25 -44 -49 -44c-15 0 -26 13 -26 29z" fill="currentColor"/>
</g>
<g transform="translate(8.2228,117.74119999999999)">
<text font-family="Songti SC" font-size="1.7463" text-anchor="start" fill="currentColor">
<tspan>7</tspan>
</text>
</g>
<g transform="translate(19.5959,117.17660000000001)">
<text font-family="Hiragino Sans GB" font-size="1.9604" text-anchor="start" fill="currentColor">
<tspan>G</tspan>
</text>
</g>
<g transform="translate(19.5959,119.1864)">
<path transform="scale(0.0040, -0.0040)" d="M212 138c68 0 113 -38 113 -95c0 -90 -109 -181 -212 -181c-68 0 -113 38 -113 95c0 90 109 181 212 181z" fill="currentColor"/>
</g>
<g transform="translate(17.7709,127.3279)">
<text font-family="Songti SC" font-size="2.7" text-anchor="start" fill="currentColor">
<tspan font-size="2.7">者，</tspan>
</text>
</g>
<g transform="translate(19.6715,120.6864)">
<rect x="-0.0757" y="-1.3287" width="0.1514" height="4.1491" ry="0.0500" fill="currentColor"/>
</g>
<g transform="translate(27.0769,120.1864)">
<path transform="scale(0.0040, -0.0040)" d="M212 138c68 0 113 -38 113 -95c0 -90 -109 -181 -212 -181c-68 0 -113 38 -113 95c0 90 109 181 212 181z" fill="currentColor"/>
</g>
<g transform="translate(26.4896,127.3279)">
<text font-family="Songti SC" font-size="2.7" text-anchor="start" fill="currentColor">
<tspan font-size="2.7">求</tspan>
</text>
</g>
<g transform="translate(27.1526,120.6864)">
<rect x="-0.0757" y="-0.3287" width="0.1514" height="3.3724" ry="0.0500" fill="currentColor"/>
</g>
<g transform="translate(50.02,120.6864)">
<path stroke-width="0.0931" stroke-linejoin="round" stroke-linecap="round" stroke="currentColor" fill="currentColor" d="M0.7079 -1.6466C2.3821 -3.0408 6.8629 -2.4418 8.1889 -0.6466L8.1889 -0.6466C6.8444 -2.3033 2.3636 -2.9023 0.7079 -1.6466z"/>
</g>
<g transform="translate(34.5579,121.1864)">
<path transform="scale(0.0040, -0.0040)" d="M212 138c68 0 113 -38 113 -95c0 -90 -109 -181 -212 -181c-68 0 -113 38 -113 95c0 90 109 181 212 181z" fill="currentColor"/>
</g>
<g transform="translate(33.9707,127.3279)">
<text font-family="Songti SC" font-size="2.7" text-anchor="start" fill="currentColor">
<tspan font-size="2.7">你</tspan>
</text>
</g>
<g transform="translate(34.6336,120.6864)">
<rect x="-0.0757" y="0.6713" width="0.1514" height="2.5957" ry="0.0500" fill="currentColor"/>
</g>
<g transform="translate(50.02,122.8682)">
<polygon stroke-linejoin="round" stroke-linecap="round" stroke-width="0.1000" fill="currentColor" stroke="currentColor" points="7.5824 0.4464 7.5824 0.8264 0.0500 0.1900 0.0500 -0.1900"/>
</g>
<g transform="translate(42.289,120.6864)">
<path transform="scale(0.0040, -0.0040)" d="M212 138c68 0 113 -38 113 -95c0 -90 -109 -181 -212 -181c-68 0 -113 38 -113 95c0 90 109 181 212 181z" fill="currentColor"/>
</g>
<g transform="translate(41.7017,127.3279)">
<text font-family="Songti SC" font-size="2.7" text-anchor="start" fill="currentColor">
<tspan font-size="2.7">给</tspan>
</text>
</g>
<g transform="translate(42.3647,120.6864)">
<rect x="-0.0757" y="0.1713" width="0.1514" height="3.3264" ry="0.0500" fill="currentColor"/>
</g>
<g transform="translate(50.02,117.17660000000001)">
<text font-family="Hiragino Sans GB" font-size="1.9604" text-anchor="start" fill="currentColor">
<tspan>D</tspan>
</text>
</g>
<g transform="translate(51.5138,116.28569999999999)">
<text font-family="Hiragino Sans GB" font-size="1.3856" text-anchor="start" fill="currentColor">
<tspan>7</tspan>
</text>
</g>
<g transform="translate(50.02,120.1864)">
<path transform="scale(0.0040, -0.0040)" d="M212 138c68 0 113 -38 113 -95c0 -90 -109 -181 -212 -181c-68 0 -113 38 -113 95c0 90 109 181 212 181z" fill="currentColor"/>
</g>
<g transform="translate(50.02,127.3279)">
<text font-family="Songti SC" font-size="2.7" text-anchor="start" fill="currentColor">
<tspan font-size="2.7">我</tspan>
</text>
</g>
<g transform="translate(50.0957,120.6864)">
<rect x="-0.0757" y="-0.3287" width="0.1514" height="2.5168" ry="0.0500" fill="currentColor"/>
</g>
<g transform="translate(57.5011,121.1864)">
<path transform="scale(0.0040, -0.0040)" d="M212 138c68 0 113 -38 113 -95c0 -90 -109 -181 -212 -181c-68 0 -113 38 -113 95c0 90 109 181 212 181z" fill="currentColor"/>
</g>
<g transform="translate(57.5767,120.6864)">
<rect x="-0.0757" y="0.6713" width="0.1514" height="2.1406" ry="0.0500" fill="currentColor"/>
</g>
<g transform="translate(65.2321,120.6864)">
<path transform="scale(0.0040, -0.0040)" d="M212 138c68 0 113 -38 113 -95c0 -90 -109 -181 -212 -181c-68 0 -113 38 -113 95c0 90 109 181 212 181z" fill="currentColor"/>
</g>
<g transform="translate(65.3078,120.6864)">
<rect x="-0.0757" y="0.1713" width="0.1514" height="3.1620" ry="0.0500" fill="currentColor"/>
</g>
<g transform="translate(82.3453,117.17660000000001)">
<text font-family="Hiragino Sans GB" font-size="1.9604" text-anchor="start" fill="currentColor">
<tspan>G</tspan>
</text>
</g>
<g transform="translate(82.3453,121.1864)">
<path transform="scale(0.0040, -0.0040)" d="M310 63c0 22 -17 40 -40 40c-38 0 -197 -107 -224 -139c-7 -8 -10 -17 -10 -27c0 -22 17 -40 40 -40c38 0 197 107 224 139c7 8 10 17 10 27zM256 138c55 0 90 -22 90 -77c0 -25 -15 -112 -73 -151c-34 -23 -92 -48 -183 -48c-55 0 -90 22 -90 77c0 25 15 112 73 151 c34 23 92 48 183 48z" fill="currentColor"/>
</g>
<g transform="translate(80.5618,127.3279)">
<text font-family="Songti SC" font-size="2.7" text-anchor="start" fill="currentColor">
<tspan font-size="2.7">要。</tspan>
</text>
</g>
<g transform="translate(83.6535,120.6864)">
<rect x="-0.0757" y="-3.0000" width="0.1514" height="3.2544" ry="0.0500" fill="currentColor"/>
</g>
<g transform="translate(19.5959,123.5046)">
<polygon stroke-linejoin="round" stroke-linecap="round" stroke-width="0.1000" fill="currentColor" stroke="currentColor" points="22.7945 0.4918 22.7945 0.8718 0.0500 0.1900 0.0500 -0.1900"/>
</g>
<g transform="translate(96.4057,117.17660000000001)">
<text font-family="Hiragino Sans GB" font-size="1.9604" text-anchor="start" fill="currentColor">
<tspan>C</tspan>
</text>
</g>
<g transform="translate(113.1453,117.17660000000001)">
<text font-family="Hiragino Sans GB" font-size="1.9604" text-anchor="start" fill="currentColor">
<tspan>G</tspan>
</text>
</g>
<g transform="translate(113.1453,121.1864)">
<path transform="scale(0.0040, -0.0040)" d="M212 138c68 0 113 -38 113 -95c0 -90 -109 -181 -212 -181c-68 0 -113 38 -113 95c0 90 109 181 212 181z" fill="currentColor"/>
</g>
<g transform="translate(114.3705,120.6864)">
<rect x="-0.0757" y="-3.0000" width="0.1514" height="3.3287" ry="0.0500" fill="currentColor"/>
</g>
<g transform="translate(114.4462,117.7364)">
<path transform="scale(0.0040, -0.0040)" d="M0 -250h-19v250h19c0 -197 207 -334 207 -531c0 -71 -15 -140 -41 -206c-5 -9 -14 -13 -22 -13c-14 0 -29 12 -26 30c26 60 43 124 43 189c0 102 -92 206 -161 281z" fill="currentColor"/>
</g>
<g transform="translate(120.9293,120.6864)">
<path transform="scale(0.0040, -0.0040)" d="M-9 78c0 59 124 84 124 182c0 25 -9 50 -26 70l-31 37c-3 4 -4 8 -4 12c0 10 9 18 19 18c5 0 9 -1 13 -6l149 -178c7 -9 11 -17 11 -26c0 -59 -124 -84 -124 -182c0 -25 9 -51 26 -71l79 -94c3 -4 4 -8 4 -12c0 -10 -9 -18 -19 -18c-11 0 -38 40 -102 40 c-23 0 -55 -4 -55 -65c0 -33 11 -73 27 -92c8 -9 -6 -20 -14 -11c-44 53 -92 145 -92 199c0 41 26 43 46 43c30 0 69 -9 106 -23l-126 151c-7 9 -11 17 -11 26z" fill="currentColor"/>
</g>
<g transform="translate(122.3208,120.1864)">
<path transform="scale(0.0040, -0.0040)" d="M0 0c0 30 25 55 55 55s55 -25 55 -55s-25 -55 -55 -55s-55 25 -55 55z" fill="currentColor"/>
</g>
<g transform="translate(64.6448,127.3279)">
<text font-family="Songti SC" font-size="2.7" text-anchor="start" fill="currentColor">
<tspan font-size="2.7">所</tspan>
</text>
</g>
<g transform="translate(65.5955,164.6864)">
<text font-family="Songti SC" font-size="1.5560" text-anchor="start" fill="currentColor">
<tspan> </tspan>
</text>
</g>
<g transform="translate(65.5955,178.6864)">
<text font-family="Songti SC" font-size="1.5560" text-anchor="start" fill="currentColor">
<tspan> </tspan>
</text>
</g>
<g transform="translate(65.5955,192.6864)">
<text font-family="Songti SC" font-size="1.5560" text-anchor="start" fill="currentColor">
<tspan> </tspan>
</text>
</g>
<g transform="translate(65.5955,206.6864)">
<text font-family="Songti SC" font-size="1.5560" text-anchor="start" fill="currentColor">
<tspan> </tspan>
</text>
</g>
<g transform="translate(69.8408,263.96770000000004)">
<text font-family="Trebuchet MS" font-size="2.2001" text-anchor="start" fill="currentColor">
<tspan>www.hymnal.net</tspan>
</text>
</g>
<g transform="translate(18.8477,39.898)">
<text font-family="Songti SC" font-weight="bold" font-size="2.7" text-anchor="start" fill="currentColor">2.</text></g>
<g transform="translate(21.3415,39.898)">
<text font-family="Songti SC" font-size="2.7" text-anchor="start" fill="currentColor">借</text></g>
<g transform="translate(27.9092,39.898)">
<text font-family="Songti SC" font-size="2.7" text-anchor="start" fill="currentColor">着</text></g>
<g transform="translate(34.9768,39.898)">
<text font-family="Songti SC" font-size="2.7" text-anchor="start" fill="currentColor">基</text></g>
<g transform="translate(43.6677,39.898)">
<text font-family="Songti SC" font-size="2.7" text-anchor="start" fill="currentColor">督</text></g>
<g transform="translate(60.467,39.898)">
<text font-family="Songti SC" font-size="2.7" text-anchor="start" fill="currentColor">所</text></g>
<g transform="translate(67.2847,39.898)">
<text font-family="Songti SC" font-size="2.7" text-anchor="start" fill="currentColor">经</text></g>
<g transform="translate(74.1024,39.898)">
<text font-family="Songti SC" font-size="2.7" text-anchor="start" fill="currentColor">历</text></g>
<g transform="translate(80.6701,39.898)">
<text font-family="Songti SC" font-size="2.7" text-anchor="start" fill="currentColor">的</text></g>
<g transform="translate(87.7378,39.898)">
<text font-family="Songti SC" font-size="2.7" text-anchor="start" fill="currentColor">十</text></g>
<g transform="translate(98.0491,39.898)">
<text font-family="Songti SC" font-size="2.7" text-anchor="start" fill="currentColor">架</text></g>
<g transform="translate(125.358,39.898)">
<text font-family="Songti SC" font-size="2.7" text-anchor="start" fill="currentColor">借</text></g>
<g transform="translate(132.4257,39.898)">
<text font-family="Songti SC" font-size="2.7" text-anchor="start" fill="currentColor">着</text></g>
<g transform="translate(139.4933,39.898)">
<text font-family="Songti SC" font-size="2.7" text-anchor="start" fill="currentColor">祂</text></g>
<g transform="translate(17.7709,69.8536)">
<text font-family="Songti SC" font-size="2.7" text-anchor="start" fill="currentColor">死</text></g>
<g transform="translate(39.7033,69.8536)">
<text font-family="Songti SC" font-size="2.7" text-anchor="start" fill="currentColor">所</text></g>
<g transform="translate(48.5068,69.8536)">
<text font-family="Songti SC" font-size="2.7" text-anchor="start" fill="currentColor">成</text></g>
<g transform="translate(57.7562,69.8536)">
<text font-family="Songti SC" font-size="2.7" text-anchor="start" fill="currentColor">功</text></g>
<g transform="translate(66.5596,69.8536)">
<text font-family="Songti SC" font-size="2.7" text-anchor="start" fill="currentColor">的</text></g>
<g transform="translate(75.113,69.8536)">
<text font-family="Songti SC" font-size="2.7" text-anchor="start" fill="currentColor">击</text></g>
<g transform="translate(86.2032,69.8536)">
<text font-family="Songti SC" font-size="2.7" text-anchor="start" fill="currentColor">杀</text></g>
<g transform="translate(119.7936,69.8536)">
<text font-family="Songti SC" font-size="2.7" text-anchor="start" fill="currentColor">黑</text></g>
<g transform="translate(128.347,69.8536)">
<text font-family="Songti SC" font-size="2.7" text-anchor="start" fill="currentColor">暗</text></g>
<g transform="translate(137.4004,69.8536)">
<text font-family="Songti SC" font-size="2.7" text-anchor="start" fill="currentColor">权</text></g>
<g transform="translate(17.7709,100.3095)">
<text font-family="Songti SC" font-size="2.7" text-anchor="start" fill="currentColor">势</text></g>
<g transform="translate(38.8993,100.3095)">
<text font-family="Songti SC" font-size="2.7" text-anchor="start" fill="currentColor">救</text></g>
<g transform="translate(47.3917,100.3095)">
<text font-family="Songti SC" font-size="2.7" text-anchor="start" fill="currentColor">我</text></g>
<g transform="translate(55.8841,100.3095)">
<text font-family="Songti SC" font-size="2.7" text-anchor="start" fill="currentColor">全</text></g>
<g transform="translate(64.1265,100.3095)">
<text font-family="Songti SC" font-size="2.7" text-anchor="start" fill="currentColor">然</text></g>
<g transform="translate(72.8689,100.3095)">
<text font-family="Songti SC" font-size="2.7" text-anchor="start" fill="currentColor">脱</text></g>
<g transform="translate(85.483,100.3095)">
<text font-family="Songti SC" font-size="2.7" text-anchor="start" fill="currentColor">离</text></g>
<g transform="translate(120.3695,100.3095)">
<text font-family="Songti SC" font-size="2.7" text-anchor="start" fill="currentColor">迁</text></g>
<g transform="translate(129.1119,100.3095)">
<text font-family="Songti SC" font-size="2.7" text-anchor="start" fill="currentColor">我</text></g>
<g transform="translate(137.8543,100.3095)">
<text font-family="Songti SC" font-size="2.7" text-anchor="start" fill="currentColor">到</text></g>
<g transform="translate(17.7709,131.3279)">
<text font-family="Songti SC" font-size="2.7" text-anchor="start" fill="currentColor">你</text></g>
<g transform="translate(26.4896,131.3279)">
<text font-family="Songti SC" font-size="2.7" text-anchor="start" fill="currentColor">爱</text></g>
<g transform="translate(33.9707,131.3279)">
<text font-family="Songti SC" font-size="2.7" text-anchor="start" fill="currentColor">子</text></g>
<g transform="translate(41.7017,131.3279)">
<text font-family="Songti SC" font-size="2.7" text-anchor="start" fill="currentColor">光</text></g>
<g transform="translate(50.02,131.3279)">
<text font-family="Songti SC" font-size="2.7" text-anchor="start" fill="currentColor">明</text></g>
<g transform="translate(64.6448,131.3279)">
<text font-family="Songti SC" font-size="2.7" text-anchor="start" fill="currentColor">国</text></g>
<g transform="translate(80.5618,131.3279)">
<text font-family="Songti SC" font-size="2.7" text-anchor="start" fill="currentColor">里</text></g>
<g transform="translate(18.8477,43.898)">
<text font-family="Songti SC" font-weight="bold" font-size="2.7" text-anchor="start" fill="currentColor">3.</text></g>
<g transform="translate(21.3415,43.898)">
<text font-family="Songti SC" font-size="2.7" text-anchor="start" fill="currentColor">从</text></g>
<g transform="translate(27.9092,43.898)">
<text font-family="Songti SC" font-size="2.7" text-anchor="start" fill="currentColor">我</text></g>
<g transform="translate(34.9768,43.898)">
<text font-family="Songti SC" font-size="2.7" text-anchor="start" fill="currentColor">中</text></g>
<g transform="translate(43.6677,43.898)">
<text font-family="Songti SC" font-size="2.7" text-anchor="start" fill="currentColor">心</text></g>
<g transform="translate(60.467,43.898)">
<text font-family="Songti SC" font-size="2.7" text-anchor="start" fill="currentColor">将</text></g>
<g transform="translate(67.2847,43.898)">
<text font-family="Songti SC" font-size="2.7" text-anchor="start" fill="currentColor">我</text></g>
<g transform="translate(74.1024,43.898)">
<text font-family="Songti SC" font-size="2.7" text-anchor="start" fill="currentColor">绝</text></g>
<g transform="translate(80.6701,43.898)">
<text font-family="Songti SC" font-size="2.7" text-anchor="start" fill="currentColor">对</text></g>
<g transform="translate(87.7378,43.898)">
<text font-family="Songti SC" font-size="2.7" text-anchor="start" fill="currentColor">充</text></g>
<g transform="translate(98.0491,43.898)">
<text font-family="Songti SC" font-size="2.7" text-anchor="start" fill="currentColor">满</text></g>
<g transform="translate(125.358,43.898)">
<text font-family="Songti SC" font-size="2.7" text-anchor="start" fill="currentColor">满</text></g>
<g transform="translate(132.4257,43.898)">
<text font-family="Songti SC" font-size="2.7" text-anchor="start" fill="currentColor">到</text></g>
<g transform="translate(139.4933,43.898)">
<text font-family="Songti SC" font-size="2.7" text-anchor="start" fill="currentColor">圆</text></g>
<g transform="translate(17.7709,73.8536)">
<text font-family="Songti SC" font-size="2.7" text-anchor="start" fill="currentColor">周</text></g>
<g transform="translate(39.7033,73.8536)">
<text font-family="Songti SC" font-size="2.7" text-anchor="start" fill="currentColor">满</text></g>
<g transform="translate(48.5068,73.8536)">
<text font-family="Songti SC" font-size="2.7" text-anchor="start" fill="currentColor">达</text></g>
<g transform="translate(57.7562,73.8536)">
<text font-family="Songti SC" font-size="2.7" text-anchor="start" fill="currentColor">四</text></g>
<g transform="translate(66.5596,73.8536)">
<text font-family="Songti SC" font-size="2.7" text-anchor="start" fill="currentColor">周</text></g>
<g transform="translate(75.113,73.8536)">
<text font-family="Songti SC" font-size="2.7" text-anchor="start" fill="currentColor">边</text></g>
<g transform="translate(86.2032,73.8536)">
<text font-family="Songti SC" font-size="2.7" text-anchor="start" fill="currentColor">缘</text></g>
<g transform="translate(119.7936,73.8536)">
<text font-family="Songti SC" font-size="2.7" text-anchor="start" fill="currentColor">在</text></g>
<g transform="translate(128.347,73.8536)">
<text font-family="Songti SC" font-size="2.7" text-anchor="start" fill="currentColor">我</text></g>
<g transform="translate(137.4004,73.8536)">
<text font-family="Songti SC" font-size="2.7" text-anchor="start" fill="currentColor">周</text></g>
<g transform="translate(17.7709,104.3095)">
<text font-family="Songti SC" font-size="2.7" text-anchor="start" fill="currentColor">身</text></g>
<g transform="translate(38.8993,104.3095)">
<text font-family="Songti SC" font-size="2.7" text-anchor="start" fill="currentColor">直</text></g>
<g transform="translate(47.3917,104.3095)">
<text font-family="Songti SC" font-size="2.7" text-anchor="start" fill="currentColor">到</text></g>
<g transform="translate(55.8841,104.3095)">
<text font-family="Songti SC" font-size="2.7" text-anchor="start" fill="currentColor">极</text></g>
<g transform="translate(64.1265,104.3095)">
<text font-family="Songti SC" font-size="2.7" text-anchor="start" fill="currentColor">边</text></g>
<g transform="translate(72.8689,104.3095)">
<text font-family="Songti SC" font-size="2.7" text-anchor="start" fill="currentColor">之</text></g>
<g transform="translate(85.483,104.3095)">
<text font-family="Songti SC" font-size="2.7" text-anchor="start" fill="currentColor">上</text></g>
<g transform="translate(120.3695,104.3095)">
<text font-family="Songti SC" font-size="2.7" text-anchor="start" fill="currentColor">射</text></g>
<g transform="translate(129.1119,104.3095)">
<text font-family="Songti SC" font-size="2.7" text-anchor="start" fill="currentColor">出</text></g>
<g transform="translate(137.8543,104.3095)">
<text font-family="Songti SC" font-size="2.7" text-anchor="start" fill="currentColor">你</text></g>
<g transform="translate(17.7709,135.3279)">
<text font-family="Songti SC" font-size="2.7" text-anchor="start" fill="currentColor">的</text></g>
<g transform="translate(26.4896,135.3279)">
<text font-family="Songti SC" font-size="2.7" text-anchor="start" fill="currentColor">荣</text></g>
<g transform="translate(33.9707,135.3279)">
<text font-family="Songti SC" font-size="2.7" text-anchor="start" fill="currentColor">耀</text></g>
<g transform="translate(41.7017,135.3279)">
<text font-family="Songti SC" font-size="2.7" text-anchor="start" fill="currentColor">所</text></g>
<g transform="translate(50.02,135.3279)">
<text font-family="Songti SC" font-size="2.7" text-anchor="start" fill="currentColor">有</text></g>
<g transform="translate(64.6448,135.3279)">
<text font-family="Songti SC" font-size="2.7" text-anchor="start" fill="currentColor">光</text></g>
<g transform="translate(80.5618,135.3279)">
<text font-family="Songti SC" font-size="2.7" text-anchor="start" fill="currentColor">芒</text></g>
<g transform="translate(18.8477,47.898)">
<text font-family="Songti SC" font-weight="bold" font-size="2.7" text-anchor="start" fill="currentColor">4.</text></g>
<g transform="translate(21.3415,47.898)">
<text font-family="Songti SC" font-size="2.7" text-anchor="start" fill="currentColor">非</text></g>
<g transform="translate(27.9092,47.898)">
<text font-family="Songti SC" font-size="2.7" text-anchor="start" fill="currentColor">造</text></g>
<g transform="translate(34.9768,47.898)">
<text font-family="Songti SC" font-size="2.7" text-anchor="start" fill="currentColor">生</text></g>
<g transform="translate(43.6677,47.898)">
<text font-family="Songti SC" font-size="2.7" text-anchor="start" fill="currentColor">命</text></g>
<g transform="translate(60.467,47.898)">
<text font-family="Songti SC" font-size="2.7" text-anchor="start" fill="currentColor">你</text></g>
<g transform="translate(67.2847,47.898)">
<text font-family="Songti SC" font-size="2.7" text-anchor="start" fill="currentColor">是</text></g>
<g transform="translate(74.1024,47.898)">
<text font-family="Songti SC" font-size="2.7" text-anchor="start" fill="currentColor">至</text></g>
<g transform="translate(80.6701,47.898)">
<text font-family="Songti SC" font-size="2.7" text-anchor="start" fill="currentColor">圣</text></g>
<g transform="translate(87.7378,47.898)">
<text font-family="Songti SC" font-size="2.7" text-anchor="start" fill="currentColor">的</text></g>
<g transform="translate(98.0491,47.898)">
<text font-family="Songti SC" font-size="2.7" text-anchor="start" fill="currentColor">神</text></g>
<g transform="translate(125.358,47.898)">
<text font-family="Songti SC" font-size="2.7" text-anchor="start" fill="currentColor">生</text></g>
<g transform="translate(132.4257,47.898)">
<text font-family="Songti SC" font-size="2.7" text-anchor="start" fill="currentColor">命</text></g>
<g transform="translate(139.4933,47.898)">
<text font-family="Songti SC" font-size="2.7" text-anchor="start" fill="currentColor">之</text></g>
<g transform="translate(17.7709,77.8536)">
<text font-family="Songti SC" font-size="2.7" text-anchor="start" fill="currentColor">灵</text></g>
<g transform="translate(39.7033,77.8536)">
<text font-family="Songti SC" font-size="2.7" text-anchor="start" fill="currentColor">求</text></g>
<g transform="translate(48.5068,77.8536)">
<text font-family="Songti SC" font-size="2.7" text-anchor="start" fill="currentColor">你</text></g>
<g transform="translate(57.7562,77.8536)">
<text font-family="Songti SC" font-size="2.7" text-anchor="start" fill="currentColor">今</text></g>
<g transform="translate(66.5596,77.8536)">
<text font-family="Songti SC" font-size="2.7" text-anchor="start" fill="currentColor">在</text></g>
<g transform="translate(75.113,77.8536)">
<text font-family="Songti SC" font-size="2.7" text-anchor="start" fill="currentColor">我</text></g>
<g transform="translate(86.2032,77.8536)">
<text font-family="Songti SC" font-size="2.7" text-anchor="start" fill="currentColor">心</text></g>
<g transform="translate(119.7936,77.8536)">
<text font-family="Songti SC" font-size="2.7" text-anchor="start" fill="currentColor">有</text></g>
<g transform="translate(128.347,77.8536)">
<text font-family="Songti SC" font-size="2.7" text-anchor="start" fill="currentColor">所</text></g>
<g transform="translate(137.4004,77.8536)">
<text font-family="Songti SC" font-size="2.7" text-anchor="start" fill="currentColor">创</text></g>
<g transform="translate(17.7709,108.3095)">
<text font-family="Songti SC" font-size="2.7" text-anchor="start" fill="currentColor">作</text></g>
<g transform="translate(38.8993,108.3095)">
<text font-family="Songti SC" font-size="2.7" text-anchor="start" fill="currentColor">使</text></g>
<g transform="translate(47.3917,108.3095)">
<text font-family="Songti SC" font-size="2.7" text-anchor="start" fill="currentColor">我</text></g>
<g transform="translate(55.8841,108.3095)">
<text font-family="Songti SC" font-size="2.7" text-anchor="start" fill="currentColor">显</text></g>
<g transform="translate(64.1265,108.3095)">
<text font-family="Songti SC" font-size="2.7" text-anchor="start" fill="currentColor">你</text></g>
<g transform="translate(72.8689,108.3095)">
<text font-family="Songti SC" font-size="2.7" text-anchor="start" fill="currentColor">荣</text></g>
<g transform="translate(85.483,108.3095)">
<text font-family="Songti SC" font-size="2.7" text-anchor="start" fill="currentColor">耀</text></g>
<g transform="translate(120.3695,108.3095)">
<text font-family="Songti SC" font-size="2.7" text-anchor="start" fill="currentColor">并</text></g>
<g transform="translate(129.1119,108.3095)">
<text font-family="Songti SC" font-size="2.7" text-anchor="start" fill="currentColor">且</text></g>
<g transform="translate(137.8543,108.3095)">
<text font-family="Songti SC" font-size="2.7" text-anchor="start" fill="currentColor">逼</text></g>
<g transform="translate(17.7709,139.3279)">
<text font-family="Songti SC" font-size="2.7" text-anchor="start" fill="currentColor">我</text></g>
<g transform="translate(26.4896,139.3279)">
<text font-family="Songti SC" font-size="2.7" text-anchor="start" fill="currentColor">除</text></g>
<g transform="translate(33.9707,139.3279)">
<text font-family="Songti SC" font-size="2.7" text-anchor="start" fill="currentColor">你</text></g>
<g transform="translate(41.7017,139.3279)">
<text font-family="Songti SC" font-size="2.7" text-anchor="start" fill="currentColor">别</text></g>
<g transform="translate(50.02,139.3279)">
<text font-family="Songti SC" font-size="2.7" text-anchor="start" fill="currentColor">无</text></g>
<g transform="translate(64.6448,139.3279)">
<text font-family="Songti SC" font-size="2.7" text-anchor="start" fill="currentColor">所</text></g>
<g transform="translate(80.5618,139.3279)">
<text font-family="Songti SC" font-size="2.7" text-anchor="start" fill="currentColor">要</text></g>
<g transform="translate(18.8477,51.898)">
<text font-family="Songti SC" font-weight="bold" font-size="2.7" text-anchor="start" fill="currentColor">5.</text></g>
<g transform="translate(21.3415,51.898)">
<text font-family="Songti SC" font-size="2.7" text-anchor="start" fill="currentColor">感</text></g>
<g transform="translate(27.9092,51.898)">
<text font-family="Songti SC" font-size="2.7" text-anchor="start" fill="currentColor">谢</text></g>
<g transform="translate(34.9768,51.898)">
<text font-family="Songti SC" font-size="2.7" text-anchor="start" fill="currentColor">父</text></g>
<g transform="translate(43.6677,51.898)">
<text font-family="Songti SC" font-size="2.7" text-anchor="start" fill="currentColor">神</text></g>
<g transform="translate(60.467,51.898)">
<text font-family="Songti SC" font-size="2.7" text-anchor="start" fill="currentColor">我</text></g>
<g transform="translate(67.2847,51.898)">
<text font-family="Songti SC" font-size="2.7" text-anchor="start" fill="currentColor">已</text></g>
<g transform="translate(74.1024,51.898)">
<text font-family="Songti SC" font-size="2.7" text-anchor="start" fill="currentColor">得</text></g>
<g transform="translate(80.6701,51.898)">
<text font-family="Songti SC" font-size="2.7" text-anchor="start" fill="currentColor">你</text></g>
<g transform="translate(87.7378,51.898)">
<text font-family="Songti SC" font-size="2.7" text-anchor="start" fill="currentColor">恩</text></g>
<g transform="translate(98.0491,51.898)">
<text font-family="Songti SC" font-size="2.7" text-anchor="start" fill="currentColor">赏</text></g>
<g transform="translate(125.358,51.898)">
<text font-family="Songti SC" font-size="2.7" text-anchor="start" fill="currentColor">同</text></g>
<g transform="translate(132.4257,51.898)">
<text font-family="Songti SC" font-size="2.7" text-anchor="start" fill="currentColor">着</text></g>
<g transform="translate(139.4933,51.898)">
<text font-family="Songti SC" font-size="2.7" text-anchor="start" fill="currentColor">基</text></g>
<g transform="translate(17.7709,81.8536)">
<text font-family="Songti SC" font-size="2.7" text-anchor="start" fill="currentColor">督</text></g>
<g transform="translate(39.7033,81.8536)">
<text font-family="Songti SC" font-size="2.7" text-anchor="start" fill="currentColor">今</text></g>
<g transform="translate(48.5068,81.8536)">
<text font-family="Songti SC" font-size="2.7" text-anchor="start" fill="currentColor">在</text></g>
<g transform="translate(57.7562,81.8536)">
<text font-family="Songti SC" font-size="2.7" text-anchor="start" fill="currentColor">生</text></g>
<g transform="translate(66.5596,81.8536)">
<text font-family="Songti SC" font-size="2.7" text-anchor="start" fill="currentColor">命</text></g>
<g transform="translate(75.113,81.8536)">
<text font-family="Songti SC" font-size="2.7" text-anchor="start" fill="currentColor">作</text></g>
<g transform="translate(86.2032,81.8536)">
<text font-family="Songti SC" font-size="2.7" text-anchor="start" fill="currentColor">王</text></g>
<g transform="translate(119.7936,81.8536)">
<text font-family="Songti SC" font-size="2.7" text-anchor="start" fill="currentColor">我</text></g>
<g transform="translate(128.347,81.8536)">
<text font-family="Songti SC" font-size="2.7" text-anchor="start" fill="currentColor">已</text></g>
<g transform="translate(137.4004,81.8536)">
<text font-family="Songti SC" font-size="2.7" text-anchor="start" fill="currentColor">满</text></g>
<g transform="translate(17.7709,112.3095)">
<text font-family="Songti SC" font-size="2.7" text-anchor="start" fill="currentColor">足</text></g>
<g transform="translate(38.8993,112.3095)">
<text font-family="Songti SC" font-size="2.7" text-anchor="start" fill="currentColor">且</text></g>
<g transform="translate(47.3917,112.3095)">
<text font-family="Songti SC" font-size="2.7" text-anchor="start" fill="currentColor">因</text></g>
<g transform="translate(55.8841,112.3095)">
<text font-family="Songti SC" font-size="2.7" text-anchor="start" fill="currentColor">基</text></g>
<g transform="translate(64.1265,112.3095)">
<text font-family="Songti SC" font-size="2.7" text-anchor="start" fill="currentColor">督</text></g>
<g transform="translate(72.8689,112.3095)">
<text font-family="Songti SC" font-size="2.7" text-anchor="start" fill="currentColor">夸</text></g>
<g transform="translate(85.483,112.3095)">
<text font-family="Songti SC" font-size="2.7" text-anchor="start" fill="currentColor">胜</text></g>
<g transform="translate(120.3695,112.3095)">
<text font-family="Songti SC" font-size="2.7" text-anchor="start" fill="currentColor">借</text></g>
<g transform="translate(129.1119,112.3095)">
<text font-family="Songti SC" font-size="2.7" text-anchor="start" fill="currentColor">祂</text></g>
<g transform="translate(137.8543,112.3095)">
<text font-family="Songti SC" font-size="2.7" text-anchor="start" fill="currentColor">十</text></g>
<g transform="translate(17.7709,143.3279)">
<text font-family="Songti SC" font-size="2.7" text-anchor="start" fill="currentColor">架</text></g>
<g transform="translate(26.4896,143.3279)">
<text font-family="Songti SC" font-size="2.7" text-anchor="start" fill="currentColor">得</text></g>
<g transform="translate(33.9707,143.3279)">
<text font-family="Songti SC" font-size="2.7" text-anchor="start" fill="currentColor">享</text></g>
<g transform="translate(41.7017,143.3279)">
<text font-family="Songti SC" font-size="2.7" text-anchor="start" fill="currentColor">丰</text></g>
<g transform="translate(50.02,143.3279)">
<text font-family="Songti SC" font-size="2.7" text-anchor="start" fill="currentColor">盛</text></g>
<g transform="translate(64.6448,143.3279)">
<text font-family="Songti SC" font-size="2.7" text-anchor="start" fill="currentColor">生</text></g>
<g transform="translate(80.5618,143.3279)">
<text font-family="Songti SC" font-size="2.7" text-anchor="start" fill="currentColor">命</text></g>
</svg>