<?xml version='1.0' encoding='UTF-8'?>
<svg xmlns="http://www.w3.org/2000/svg" xmlns:xlink="http://www.w3.org/1999/xlink" version="1.2" width="215.90mm" height="279.40mm" viewBox="0.0000 -0.0000 153.5737 198.7425">
<style type="text/css">

tspan { white-space: pre; }

</style>
<g transform="translate(67.2374, 9.7598)">
<text font-family="Songti SC" font-weight="bold" font-size="3.1113" text-anchor="start" fill="currentColor">
<tspan>天程旅客的粮食</tspan>
</text>
</g>
<g transform="translate(69.2647, 13.2598)">
<text font-family="Songti SC" font-weight="bold" font-size="2.2001" text-anchor="start" fill="currentColor">
<tspan>羡慕－从主得餧养</tspan>
</text>
</g>
<g transform="translate(135.2146, 17.7403)">
<text font-family="Songti SC" font-size="5.8741" text-anchor="start" fill="currentColor">
<tspan>C299</tspan>
</text>
</g>
<g transform="translate(9.0337, 19.6999)">
<text font-family="Songti SC" font-weight="bold" font-style="italic" font-size="2.2001" text-anchor="start" fill="currentColor">
<tspan>(吉他)</tspan>
</text>
</g>
<g transform="translate(27.0459, 29.2455)">
<rect x="0.0000" y="-2.0000" width="0.2212" height="4.0000" ry="0.0000" fill="currentColor"/>
</g>
<g transform="translate(9.0337, 31.2455)">
<line stroke-linejoin="round" stroke-linecap="round" stroke-width="0.1164" stroke="currentColor" x1="0.0582" y1="0" x2="138.1582" y2="0"/>
</g>
<g transform="translate(9.0337, 30.2455)">
<line stroke-linejoin="round" stroke-linecap="round" stroke-width="0.1164" stroke="currentColor" x1="0.0582" y1="0" x2="138.1582" y2="0"/>
</g>
<g transform="translate(9.0337, 29.2455)">
<line stroke-linejoin="round" stroke-linecap="round" stroke-width="0.1164" stroke="currentColor" x1="0.0582" y1="0" x2="138.1582" y2="0"/>
</g>
<g transform="translate(9.0337, 28.2455)">
<line stroke-linejoin="round" stroke-linecap="round" stroke-width="0.1164" stroke="currentColor" x1="0.0582" y1="0" x2="138.1582" y2="0"/>
</g>
<g transform="translate(9.0337, 27.2455)">
<line stroke-linejoin="round" stroke-linecap="round" stroke-width="0.1164" stroke="currentColor" x1="0.0582" y1="0" x2="138.1582" y2="0"/>
</g>
<g transform="translate(147.0289, 29.2455)">
<rect x="0.0000" y="-2.0000" width="0.2212" height="4.0000" ry="0.0000" fill="currentColor"/>
</g>
<g transform="translate(118.4897, 29.2455)">
<rect x="0.0000" y="-2.0000" width="0.2212" height="4.0000" ry="0.0000" fill="currentColor"/>
</g>
<g transform="translate(86.3496, 29.2455)">
<rect x="0.0000" y="-2.0000" width="0.2212" height="4.0000" ry="0.0000" fill="currentColor"/>
</g>
<g transform="translate(58.3563, 29.2455)">
<rect x="0.0000" y="-2.0000" width="0.2212" height="4.0000" ry="0.0000" fill="currentColor"/>
</g>
<g transform="translate(138.3295, 29.2455)">
<path stroke-width="0.0931" stroke-linejoin="round" stroke-linecap="round" stroke="currentColor" fill="currentColor" d="M0.6163 -1.2804C1.5914 -2.6363 3.9192 -2.8201 5.0492 -1.6304L5.0492 -1.6304C3.9302 -2.6808 1.6024 -2.4970 0.6163 -1.2804z"/>
</g>
<g transform="translate(88.1953, 30.2455)">
<path transform="scale(0.0040, -0.0040)" d="M212 138c68 0 113 -38 113 -95c0 -90 -109 -181 -212 -181c-68 0 -113 38 -113 95c0 90 109 181 212 181z" fill="currentColor"/>
</g>
<g transform="translate(19.2667, 25.7514)">
<text font-family="Hiragino Sans GB" font-size="1.9604" text-anchor="start" fill="currentColor">
<tspan>G</tspan>
</text>
</g>
<g transform="translate(19.2667, 31.7455)">
<path transform="scale(0.0040, -0.0040)" d="M212 138c68 0 113 -38 113 -95c0 -90 -109 -181 -212 -181c-68 0 -113 38 -113 95c0 90 109 181 212 181z" fill="currentColor"/>
</g>
<g transform="translate(9.8338, 30.2455)">
<path transform="scale(0.0040, -0.0040)" d="M647 2c0 -114 -75 -214 -180 -248c3 -33 4 -66 4 -99c0 -21 0 -41 -1 -62c-7 -122 -92 -229 -211 -229c-108 0 -196 88 -196 197c0 58 54 103 113 103c54 0 95 -47 95 -103c0 -52 -43 -95 -95 -95c-9 0 -18 1 -27 4c25 -37 66 -61 113 -61c93 0 156 91 162 191 c1 19 2 38 2 57c0 29 -1 58 -3 87c-5 -1 -44 -8 -88 -8c-194 0 -333 181 -333 376c0 177 129 308 244 443c-34 103 -55 171 -55 347c0 114 54 221 147 288c8 6 18 5 25 -1c68 -79 135 -242 135 -356c0 -142 -84 -255 -176 -364c21 -68 40 -136 57 -205c1 0 5 1 10 1 c157 0 258 -129 258 -263zM463 -201c64 24 110 88 110 161c0 88 -64 175 -167 188c28 -133 49 -269 57 -349zM77 25c0 -144 141 -243 261 -243c1 0 46 -1 81 5c-7 66 -27 208 -60 362c-79 -8 -124 -60 -124 -118c0 -43 25 -88 80 -120c5 -5 7 -11 7 -17 c0 -12 -10 -23 -23 -23c-16 0 -128 62 -128 188c0 89 60 177 163 200c-14 57 -30 113 -47 169c-105 -122 -210 -243 -210 -403zM242 784c0 -39 10 -95 39 -188c78 97 142 199 142 324c0 33 0 60 -20 118c-99 -46 -161 -145 -161 -254z" fill="currentColor"/>
</g>
<g transform="translate(13.3337, 27.2455)">
<path transform="scale(0.0040, -0.0040)" d="M0 116c0 10 6 19 16 23l40 15v154c0 12 9 21 21 21s21 -9 21 -21v-138l79 30v154c0 12 9 21 21 21s21 -9 21 -21v-138l22 8c3 1 6 2 9 2c13 0 25 -11 25 -25v-54c0 -10 -6 -20 -16 -24l-40 -15v-155l22 9c3 1 6 1 9 1c13 0 25 -11 25 -25v-54c0 -10 -6 -19 -16 -23 l-40 -15v-154c0 -12 -9 -21 -21 -21s-21 9 -21 21v138l-79 -30v-154c0 -12 -9 -21 -21 -21s-21 9 -21 21v138l-22 -8c-3 -1 -6 -2 -9 -2c-13 0 -25 11 -25 25v54c0 10 6 20 16 24l40 15v155l-22 -9c-3 -1 -6 -1 -9 -1c-13 0 -25 11 -25 25v54zM177 92l-79 -30v-154l79 30 v154z" fill="currentColor"/>
</g>
<g transform="translate(15.5838, 29.2455)">
<path transform="scale(0.0040, -0.0040)" d="M250 265c114 0 172 -112 172 -166c0 -38 -30 -69 -66 -69c-30 0 -72 23 -72 72c0 37 26 75 70 75c3 0 6 -1 9 -1c-26 36 -67 59 -113 59c-107 0 -113 -74 -113 -189c0 -15 1 -30 1 -46s-1 -31 -1 -46c0 -115 6 -189 113 -189c78 0 133 70 151 149c2 8 8 11 14 11 c7 0 15 -5 15 -14c0 -21 -49 -176 -180 -176c-145 0 -250 88 -250 265c0 63 18 265 250 265z" fill="currentColor"/>
</g>
<g transform="translate(18.6794,35.5613)">
<text font-family="Songti SC" font-size="2.7" text-anchor="start" fill="currentColor">
<tspan font-size="2.7">天</tspan>
</text>
</g>
<g transform="translate(16.1856,35.5613)">
<text font-family="Songti SC" font-weight="bold" font-size="2.7" text-anchor="start" fill="currentColor">
<tspan font-size="2.7">1.</tspan>
</text>
</g>
<g transform="translate(20.4918, 29.2455)">
<rect x="-0.0757" y="-1.0000" width="0.1514" height="3.3287" ry="0.0500" fill="currentColor"/>
</g>
<g transform="translate(28.8916, 31.7455)">
<path transform="scale(0.0040, -0.0040)" d="M212 138c68 0 113 -38 113 -95c0 -90 -109 -181 -212 -181c-68 0 -113 38 -113 95c0 90 109 181 212 181z" fill="currentColor"/>
</g>
<g transform="translate(28.3043,35.5613)">
<text font-family="Songti SC" font-size="2.7" text-anchor="start" fill="currentColor">
<tspan font-size="2.7">程</tspan>
</text>
</g>
<g transform="translate(30.6339, 31.7455)">
<path transform="scale(0.0040, -0.0040)" d="M0 0c0 30 25 55 55 55s55 -25 55 -55s-25 -55 -55 -55s-55 25 -55 55z" fill="currentColor"/>
</g>
<g transform="translate(30.1167, 29.2455)">
<rect x="-0.0757" y="-1.0000" width="0.1514" height="3.3287" ry="0.0500" fill="currentColor"/>
</g>
<g transform="translate(38.2886, 31.2455)">
<path transform="scale(0.0040, -0.0040)" d="M212 138c68 0 113 -38 113 -95c0 -90 -109 -181 -212 -181c-68 0 -113 38 -113 95c0 90 109 181 212 181z" fill="currentColor"/>
</g>
<g transform="translate(37.7013,35.5613)">
<text font-family="Songti SC" font-size="2.7" text-anchor="start" fill="currentColor">
<tspan font-size="2.7">旅</tspan>
</text>
</g>
<g transform="translate(39.5138, 29.2455)">
<rect x="-0.0757" y="-1.5000" width="0.1514" height="3.3287" ry="0.0500" fill="currentColor"/>
</g>
<g transform="translate(39.5895, 27.7955)">
<path transform="scale(0.0040, -0.0040)" d="M0 -250h-19v250h19c0 -197 207 -334 207 -531c0 -71 -15 -140 -41 -206c-5 -9 -14 -13 -22 -13c-14 0 -29 12 -26 30c26 60 43 124 43 189c0 102 -92 206 -161 281z" fill="currentColor"/>
</g>
<g transform="translate(42.7744, 31.7455)">
<path transform="scale(0.0040, -0.0040)" d="M212 138c68 0 113 -38 113 -95c0 -90 -109 -181 -212 -181c-68 0 -113 38 -113 95c0 90 109 181 212 181z" fill="currentColor"/>
</g>
<g transform="translate(42.1871,35.5613)">
<text font-family="Songti SC" font-size="2.7" text-anchor="start" fill="currentColor">
<tspan font-size="2.7">客</tspan>
</text>
</g>
<g transform="translate(43.9996, 29.2455)">
<rect x="-0.0757" y="-1.0000" width="0.1514" height="3.3287" ry="0.0500" fill="currentColor"/>
</g>
<g transform="translate(50.5893, 30.2455)">
<path transform="scale(0.0040, -0.0040)" d="M212 138c68 0 113 -38 113 -95c0 -90 -109 -181 -212 -181c-68 0 -113 38 -113 95c0 90 109 181 212 181z" fill="currentColor"/>
</g>
<g transform="translate(50.0021,35.5613)">
<text font-family="Songti SC" font-size="2.7" text-anchor="start" fill="currentColor">
<tspan font-size="2.7">的</tspan>
</text>
</g>
<g transform="translate(51.8145, 29.2455)">
<rect x="-0.0757" y="-2.5000" width="0.1514" height="3.3287" ry="0.0500" fill="currentColor"/>
</g>
<g transform="translate(60.2020, 25.7514)">
<text font-family="Hiragino Sans GB" font-size="1.9604" text-anchor="start" fill="currentColor">
<tspan>D</tspan>
</text>
</g>
<g transform="translate(60.2020, 30.2455)">
<path transform="scale(0.0040, -0.0040)" d="M310 63c0 22 -17 40 -40 40c-38 0 -197 -107 -224 -139c-7 -8 -10 -17 -10 -27c0 -22 17 -40 40 -40c38 0 197 107 224 139c7 8 10 17 10 27zM256 138c55 0 90 -22 90 -77c0 -25 -15 -112 -73 -151c-34 -23 -92 -48 -183 -48c-55 0 -90 22 -90 77c0 25 15 112 73 151 c34 23 92 48 183 48z" fill="currentColor"/>
</g>
<g transform="translate(59.6563,35.5613)">
<text font-family="Songti SC" font-size="2.7" text-anchor="start" fill="currentColor">
<tspan font-size="2.7">粮</tspan>
</text>
</g>
<g transform="translate(61.5102, 29.2455)">
<rect x="-0.0757" y="-2.5000" width="0.1514" height="3.2544" ry="0.0500" fill="currentColor"/>
</g>
<g transform="translate(70.9820, 25.7514)">
<text font-family="Hiragino Sans GB" font-size="1.9604" text-anchor="start" fill="currentColor">
<tspan>D</tspan>
</text>
</g>
<g transform="translate(72.4758, 24.8605)">
<text font-family="Hiragino Sans GB" font-size="1.3856" text-anchor="start" fill="currentColor">
<tspan>7</tspan>
</text>
</g>
<g transform="translate(70.9820, 30.7455)">
<path transform="scale(0.0040, -0.0040)" d="M212 138c68 0 113 -38 113 -95c0 -90 -109 -181 -212 -181c-68 0 -113 38 -113 95c0 90 109 181 212 181z" fill="currentColor"/>
</g>
<g transform="translate(69.157,35.5613)">
<text font-family="Songti SC" font-size="2.7" text-anchor="start" fill="currentColor">
<tspan font-size="2.7">食，</tspan>
</text>
</g>
<g transform="translate(72.2072, 29.2455)">
<rect x="-0.0757" y="-2.0000" width="0.1514" height="3.3287" ry="0.0500" fill="currentColor"/>
</g>
<g transform="translate(78.5469, 30.7455)">
<path transform="scale(0.0040, -0.0040)" d="M212 138c68 0 113 -38 113 -95c0 -90 -109 -181 -212 -181c-68 0 -113 38 -113 95c0 90 109 181 212 181z" fill="currentColor"/>
</g>
<g transform="translate(77.9597,35.5613)">
<text font-family="Songti SC" font-size="2.7" text-anchor="start" fill="currentColor">
<tspan font-size="2.7">圣</tspan>
</text>
</g>
<g transform="translate(79.7721, 29.2455)">
<rect x="-0.0757" y="-2.0000" width="0.1514" height="3.3287" ry="0.0500" fill="currentColor"/>
</g>
<g transform="translate(88.1953, 25.7514)">
<text font-family="Hiragino Sans GB" font-size="1.9604" text-anchor="start" fill="currentColor">
<tspan>G</tspan>
</text>
</g>
<g transform="translate(138.3295, 32.4272)">
<polygon stroke-linejoin="round" stroke-linecap="round" stroke-width="0.1000" fill="currentColor" stroke="currentColor" points="4.5342 -0.5536 4.5342 -0.1736 0.0500 0.1900 0.0500 -0.1900"/>
</g>
<g transform="translate(87.6081,35.5613)">
<text font-family="Songti SC" font-size="2.7" text-anchor="start" fill="currentColor">
<tspan font-size="2.7">徒</tspan>
</text>
</g>
<g transform="translate(89.4205, 29.2455)">
<rect x="-0.0757" y="-2.5000" width="0.1514" height="3.3287" ry="0.0500" fill="currentColor"/>
</g>
<g transform="translate(95.7602, 30.2455)">
<path transform="scale(0.0040, -0.0040)" d="M212 138c68 0 113 -38 113 -95c0 -90 -109 -181 -212 -181c-68 0 -113 38 -113 95c0 90 109 181 212 181z" fill="currentColor"/>
</g>
<g transform="translate(95.173,35.5613)">
<text font-family="Songti SC" font-size="2.7" text-anchor="start" fill="currentColor">
<tspan font-size="2.7">可</tspan>
</text>
</g>
<g transform="translate(96.9854, 29.2455)">
<rect x="-0.0757" y="-2.5000" width="0.1514" height="3.3287" ry="0.0500" fill="currentColor"/>
</g>
<g transform="translate(103.4905, 28.7455)">
<path transform="scale(0.0040, -0.0040)" d="M212 138c68 0 113 -38 113 -95c0 -90 -109 -181 -212 -181c-68 0 -113 38 -113 95c0 90 109 181 212 181z" fill="currentColor"/>
</g>
<g transform="translate(102.9032,35.5613)">
<text font-family="Songti SC" font-size="2.7" text-anchor="start" fill="currentColor">
<tspan font-size="2.7">食</tspan>
</text>
</g>
<g transform="translate(103.5662, 29.2455)">
<rect x="-0.0757" y="-0.3287" width="0.1514" height="3.3287" ry="0.0500" fill="currentColor"/>
</g>
<g transform="translate(111.0554, 29.2455)">
<path transform="scale(0.0040, -0.0040)" d="M212 138c68 0 113 -38 113 -95c0 -90 -109 -181 -212 -181c-68 0 -113 38 -113 95c0 90 109 181 212 181z" fill="currentColor"/>
</g>
<g transform="translate(110.4681,35.5613)">
<text font-family="Songti SC" font-size="2.7" text-anchor="start" fill="currentColor">
<tspan font-size="2.7">之</tspan>
</text>
</g>
<g transform="translate(111.1311, 29.2455)">
<rect x="-0.0757" y="0.1713" width="0.1514" height="3.1620" ry="0.0500" fill="currentColor"/>
</g>
<g transform="translate(120.3354, 25.7514)">
<text font-family="Hiragino Sans GB" font-size="1.9604" text-anchor="start" fill="currentColor">
<tspan>D</tspan>
</text>
</g>
<g transform="translate(120.3354, 29.7455)">
<path transform="scale(0.0040, -0.0040)" d="M310 63c0 22 -17 40 -40 40c-38 0 -197 -107 -224 -139c-7 -8 -10 -17 -10 -27c0 -22 17 -40 40 -40c38 0 197 107 224 139c7 8 10 17 10 27zM256 138c55 0 90 -22 90 -77c0 -25 -15 -112 -73 -151c-34 -23 -92 -48 -183 -48c-55 0 -90 22 -90 77c0 25 15 112 73 151 c34 23 92 48 183 48z" fill="currentColor"/>
</g>
<g transform="translate(118.552,35.5613)">
<text font-family="Songti SC" font-size="2.7" text-anchor="start" fill="currentColor">
<tspan font-size="2.7">饼，</tspan>
</text>
</g>
<g transform="translate(121.6436, 29.2455)">
<rect x="-0.0757" y="-3.0000" width="0.1514" height="3.2544" ry="0.0500" fill="currentColor"/>
</g>
<g transform="translate(131.1154, 29.2455)">
<path transform="scale(0.0040, -0.0040)" d="M-9 78c0 59 124 84 124 182c0 25 -9 50 -26 70l-31 37c-3 4 -4 8 -4 12c0 10 9 18 19 18c5 0 9 -1 13 -6l149 -178c7 -9 11 -17 11 -26c0 -59 -124 -84 -124 -182c0 -25 9 -51 26 -71l79 -94c3 -4 4 -8 4 -12c0 -10 -9 -18 -19 -18c-11 0 -38 40 -102 40 c-23 0 -55 -4 -55 -65c0 -33 11 -73 27 -92c8 -9 -6 -20 -14 -11c-44 53 -92 145 -92 199c0 41 26 43 46 43c30 0 69 -9 106 -23l-126 151c-7 9 -11 17 -11 26z" fill="currentColor"/>
</g>
<g transform="translate(138.3295, 29.2455)">
<path transform="scale(0.0040, -0.0040)" d="M212 138c68 0 113 -38 113 -95c0 -90 -109 -181 -212 -181c-68 0 -113 38 -113 95c0 90 109 181 212 181z" fill="currentColor"/>
</g>
<g transform="translate(138.3295,35.5613)">
<text font-family="Songti SC" font-size="2.7" text-anchor="start" fill="currentColor">
<tspan font-size="2.7">每</tspan>
</text>
</g>
<g transform="translate(138.4052, 29.2455)">
<rect x="-0.0757" y="0.1713" width="0.1514" height="3.0045" ry="0.0500" fill="currentColor"/>
</g>
<g transform="translate(142.7624, 28.7455)">
<path transform="scale(0.0040, -0.0040)" d="M212 138c68 0 113 -38 113 -95c0 -90 -109 -181 -212 -181c-68 0 -113 38 -113 95c0 90 109 181 212 181z" fill="currentColor"/>
</g>
<g transform="translate(142.8380, 29.2455)">
<rect x="-0.0757" y="-0.3287" width="0.1514" height="3.1529" ry="0.0500" fill="currentColor"/>
</g>
<g transform="translate(48.7473,51.911)">
<rect x="0.0000" y="-2.0000" width="0.2212" height="4.0000" ry="0.0000" fill="currentColor"/>
</g>
<g transform="translate(9.0337,53.911)">
<line stroke-linejoin="round" stroke-linecap="round" stroke-width="0.1164" stroke="currentColor" x1="0.0582" y1="0" x2="138.1582" y2="0"/>
</g>
<g transform="translate(9.0337,52.911)">
<line stroke-linejoin="round" stroke-linecap="round" stroke-width="0.1164" stroke="currentColor" x1="0.0582" y1="0" x2="138.1582" y2="0"/>
</g>
<g transform="translate(9.0337,51.911)">
<line stroke-linejoin="round" stroke-linecap="round" stroke-width="0.1164" stroke="currentColor" x1="0.0582" y1="0" x2="138.1582" y2="0"/>
</g>
<g transform="translate(9.0337,50.911)">
<line stroke-linejoin="round" stroke-linecap="round" stroke-width="0.1164" stroke="currentColor" x1="0.0582" y1="0" x2="138.1582" y2="0"/>
</g>
<g transform="translate(9.0337,49.911)">
<line stroke-linejoin="round" stroke-linecap="round" stroke-width="0.1164" stroke="currentColor" x1="0.0582" y1="0" x2="138.1582" y2="0"/>
</g>
<g transform="translate(147.0289,51.911)">
<rect x="0.0000" y="-2.0000" width="0.2212" height="4.0000" ry="0.0000" fill="currentColor"/>
</g>
<g transform="translate(116.5885,51.911)">
<rect x="0.0000" y="-2.0000" width="0.2212" height="4.0000" ry="0.0000" fill="currentColor"/>
</g>
<g transform="translate(79.312,51.911)">
<rect x="0.0000" y="-2.0000" width="0.2212" height="4.0000" ry="0.0000" fill="currentColor"/>
</g>
<g transform="translate(9.8338,52.911)">
<path transform="scale(0.0040, -0.0040)" d="M647 2c0 -114 -75 -214 -180 -248c3 -33 4 -66 4 -99c0 -21 0 -41 -1 -62c-7 -122 -92 -229 -211 -229c-108 0 -196 88 -196 197c0 58 54 103 113 103c54 0 95 -47 95 -103c0 -52 -43 -95 -95 -95c-9 0 -18 1 -27 4c25 -37 66 -61 113 -61c93 0 156 91 162 191 c1 19 2 38 2 57c0 29 -1 58 -3 87c-5 -1 -44 -8 -88 -8c-194 0 -333 181 -333 376c0 177 129 308 244 443c-34 103 -55 171 -55 347c0 114 54 221 147 288c8 6 18 5 25 -1c68 -79 135 -242 135 -356c0 -142 -84 -255 -176 -364c21 -68 40 -136 57 -205c1 0 5 1 10 1 c157 0 258 -129 258 -263zM463 -201c64 24 110 88 110 161c0 88 -64 175 -167 188c28 -133 49 -269 57 -349zM77 25c0 -144 141 -243 261 -243c1 0 46 -1 81 5c-7 66 -27 208 -60 362c-79 -8 -124 -60 -124 -118c0 -43 25 -88 80 -120c5 -5 7 -11 7 -17 c0 -12 -10 -23 -23 -23c-16 0 -128 62 -128 188c0 89 60 177 163 200c-14 57 -30 113 -47 169c-105 -122 -210 -243 -210 -403zM242 784c0 -39 10 -95 39 -188c78 97 142 199 142 324c0 33 0 60 -20 118c-99 -46 -161 -145 -161 -254z" fill="currentColor"/>
</g>
<g transform="translate(13.3337,49.911)">
<path transform="scale(0.0040, -0.0040)" d="M0 116c0 10 6 19 16 23l40 15v154c0 12 9 21 21 21s21 -9 21 -21v-138l79 30v154c0 12 9 21 21 21s21 -9 21 -21v-138l22 8c3 1 6 2 9 2c13 0 25 -11 25 -25v-54c0 -10 -6 -20 -16 -24l-40 -15v-155l22 9c3 1 6 1 9 1c13 0 25 -11 25 -25v-54c0 -10 -6 -19 -16 -23 l-40 -15v-154c0 -12 -9 -21 -21 -21s-21 9 -21 21v138l-79 -30v-154c0 -12 -9 -21 -21 -21s-21 9 -21 21v138l-22 -8c-3 -1 -6 -2 -9 -2c-13 0 -25 11 -25 25v54c0 10 6 20 16 24l40 15v155l-22 -9c-3 -1 -6 -1 -9 -1c-13 0 -25 11 -25 25v54zM177 92l-79 -30v-154l79 30 v154z" fill="currentColor"/>
</g>
<g transform="translate(8.2228,48.9379)">
<text font-family="Songti SC" font-size="1.7463" text-anchor="start" fill="currentColor">
<tspan>5</tspan>
</text>
</g>
<g transform="translate(16.9338,48.4012)">
<text font-family="Hiragino Sans GB" font-size="1.9604" text-anchor="start" fill="currentColor">
<tspan>G</tspan>
</text>
</g>
<g transform="translate(16.9338,50.911)">
<path transform="scale(0.0040, -0.0040)" d="M212 138c68 0 113 -38 113 -95c0 -90 -109 -181 -212 -181c-68 0 -113 38 -113 95c0 90 109 181 212 181z" fill="currentColor"/>
</g>
<g transform="translate(16.3465,58.1233)">
<text font-family="Songti SC" font-size="2.7" text-anchor="start" fill="currentColor">
<tspan font-size="2.7">日</tspan>
</text>
</g>
<g transform="translate(18.676,50.411)">
<path transform="scale(0.0040, -0.0040)" d="M0 0c0 30 25 55 55 55s55 -25 55 -55s-25 -55 -55 -55s-55 25 -55 55z" fill="currentColor"/>
</g>
<g transform="translate(17.0094,51.911)">
<rect x="-0.0757" y="-0.8287" width="0.1514" height="3.3287" ry="0.0500" fill="currentColor"/>
</g>
<g transform="translate(106.7913,51.911)">
<path stroke-width="0.0931" stroke-linejoin="round" stroke-linecap="round" stroke="currentColor" fill="currentColor" d="M0.6190 1.2697C1.6619 2.6377 4.2413 2.8251 5.4344 1.6197L5.4344 1.6197C4.2514 2.6858 1.6721 2.4983 0.6190 1.2697z"/>
</g>
<g transform="translate(27.0697,51.911)">
<path transform="scale(0.0040, -0.0040)" d="M212 138c68 0 113 -38 113 -95c0 -90 -109 -181 -212 -181c-68 0 -113 38 -113 95c0 90 109 181 212 181z" fill="currentColor"/>
</g>
<g transform="translate(26.4824,58.1233)">
<text font-family="Songti SC" font-size="2.7" text-anchor="start" fill="currentColor">
<tspan font-size="2.7">吗</tspan>
</text>
</g>
<g transform="translate(27.1454,51.911)">
<rect x="-0.0757" y="0.1713" width="0.1514" height="3.2037" ry="0.0500" fill="currentColor"/>
</g>
<g transform="translate(27.2211,55.236)">
<path transform="scale(0.0040, -0.0040)" d="M0 0h-19v250h19v-250zM0 0v250c95 59 220 149 220 259c0 56 -16 111 -41 161c-3 18 12 30 26 30c8 0 17 -4 22 -13c25 -56 40 -116 40 -178c0 -203 -267 -306 -267 -509z" fill="currentColor"/>
</g>
<g transform="translate(107.9408,48.7292)">
<polygon stroke-linejoin="round" stroke-linecap="round" stroke-width="0.1000" fill="currentColor" stroke="currentColor" points="4.9168 0.1736 4.9168 0.5536 0.0500 0.1900 0.0500 -0.1900"/>
</g>
<g transform="translate(31.8852,48.4012)">
<text font-family="Hiragino Sans GB" font-size="1.9604" text-anchor="start" fill="currentColor">
<tspan>G</tspan>
</text>
</g>
<g transform="translate(33.3789,47.5103)">
<text font-family="Hiragino Sans GB" font-size="1.3856" text-anchor="start" fill="currentColor">
<tspan>7</tspan>
</text>
</g>
<g transform="translate(31.8852,52.411)">
<path transform="scale(0.0040, -0.0040)" d="M212 138c68 0 113 -38 113 -95c0 -90 -109 -181 -212 -181c-68 0 -113 38 -113 95c0 90 109 181 212 181z" fill="currentColor"/>
</g>
<g transform="translate(31.2979,58.1233)">
<text font-family="Songti SC" font-size="2.7" text-anchor="start" fill="currentColor">
<tspan font-size="2.7">哪</tspan>
</text>
</g>
<g transform="translate(33.1103,51.911)">
<rect x="-0.0757" y="-3.0000" width="0.1514" height="3.3287" ry="0.0500" fill="currentColor"/>
</g>
<g transform="translate(40.2152,52.911)">
<path transform="scale(0.0040, -0.0040)" d="M212 138c68 0 113 -38 113 -95c0 -90 -109 -181 -212 -181c-68 0 -113 38 -113 95c0 90 109 181 212 181z" fill="currentColor"/>
</g>
<g transform="translate(39.6279,58.1233)">
<text font-family="Songti SC" font-size="2.7" text-anchor="start" fill="currentColor">
<tspan font-size="2.7">天</tspan>
</text>
</g>
<g transform="translate(41.4404,51.911)">
<rect x="-0.0757" y="-2.5000" width="0.1514" height="3.3287" ry="0.0500" fill="currentColor"/>
</g>
<g transform="translate(50.7365,48.4012)">
<text font-family="Hiragino Sans GB" font-size="1.9604" text-anchor="start" fill="currentColor">
<tspan>C</tspan>
</text>
</g>
<g transform="translate(50.7365,52.911)">
<path transform="scale(0.0040, -0.0040)" d="M310 63c0 22 -17 40 -40 40c-38 0 -197 -107 -224 -139c-7 -8 -10 -17 -10 -27c0 -22 17 -40 40 -40c38 0 197 107 224 139c7 8 10 17 10 27zM256 138c55 0 90 -22 90 -77c0 -25 -15 -112 -73 -151c-34 -23 -92 -48 -183 -48c-55 0 -90 22 -90 77c0 25 15 112 73 151 c34 23 92 48 183 48z" fill="currentColor"/>
</g>
<g transform="translate(50.1907,58.1233)">
<text font-family="Songti SC" font-size="2.7" text-anchor="start" fill="currentColor">
<tspan font-size="2.7">所</tspan>
</text>
</g>
<g transform="translate(52.0447,51.911)">
<rect x="-0.0757" y="-2.5000" width="0.1514" height="3.2544" ry="0.0500" fill="currentColor"/>
</g>
<g transform="translate(62.4141,53.911)">
<path transform="scale(0.0040, -0.0040)" d="M212 138c68 0 113 -38 113 -95c0 -90 -109 -181 -212 -181c-68 0 -113 38 -113 95c0 90 109 181 212 181z" fill="currentColor"/>
</g>
<g transform="translate(60.5892,58.1233)">
<text font-family="Songti SC" font-size="2.7" text-anchor="start" fill="currentColor">
<tspan font-size="2.7">赐，</tspan>
</text>
</g>
<g transform="translate(63.6393,51.911)">
<rect x="-0.0757" y="-1.5000" width="0.1514" height="3.3287" ry="0.0500" fill="currentColor"/>
</g>
<g transform="translate(70.7442,53.911)">
<path transform="scale(0.0040, -0.0040)" d="M212 138c68 0 113 -38 113 -95c0 -90 -109 -181 -212 -181c-68 0 -113 38 -113 95c0 90 109 181 212 181z" fill="currentColor"/>
</g>
<g transform="translate(70.1569,58.1233)">
<text font-family="Songti SC" font-size="2.7" text-anchor="start" fill="currentColor">
<tspan font-size="2.7">适</tspan>
</text>
</g>
<g transform="translate(71.9693,51.911)">
<rect x="-0.0757" y="-1.5000" width="0.1514" height="3.3287" ry="0.0500" fill="currentColor"/>
</g>
<g transform="translate(81.3012,48.4012)">
<text font-family="Hiragino Sans GB" font-size="1.9604" text-anchor="start" fill="currentColor">
<tspan>D</tspan>
</text>
</g>
<g transform="translate(81.3012,54.411)">
<path transform="scale(0.0040, -0.0040)" d="M212 138c68 0 113 -38 113 -95c0 -90 -109 -181 -212 -181c-68 0 -113 38 -113 95c0 90 109 181 212 181z" fill="currentColor"/>
</g>
<g transform="translate(80.7139,58.1233)">
<text font-family="Songti SC" font-size="2.7" text-anchor="start" fill="currentColor">
<tspan font-size="2.7">合</tspan>
</text>
</g>
<g transform="translate(82.5263,51.911)">
<rect x="-0.0757" y="-1.0000" width="0.1514" height="3.3287" ry="0.0500" fill="currentColor"/>
</g>
<g transform="translate(89.8812,52.911)">
<path transform="scale(0.0040, -0.0040)" d="M212 138c68 0 113 -38 113 -95c0 -90 -109 -181 -212 -181c-68 0 -113 38 -113 95c0 90 109 181 212 181z" fill="currentColor"/>
</g>
<g transform="translate(89.2939,58.1233)">
<text font-family="Songti SC" font-size="2.7" text-anchor="start" fill="currentColor">
<tspan font-size="2.7">属</tspan>
</text>
</g>
<g transform="translate(91.1064,51.911)">
<rect x="-0.0757" y="-2.5000" width="0.1514" height="3.3287" ry="0.0500" fill="currentColor"/>
</g>
<g transform="translate(98.2113,48.4012)">
<text font-family="Hiragino Sans GB" font-size="1.9604" text-anchor="start" fill="currentColor">
<tspan>D</tspan>
</text>
</g>
<g transform="translate(99.705,47.5103)">
<text font-family="Hiragino Sans GB" font-size="1.3856" text-anchor="start" fill="currentColor">
<tspan>7</tspan>
</text>
</g>
<g transform="translate(98.2113,53.411)">
<path transform="scale(0.0040, -0.0040)" d="M212 138c68 0 113 -38 113 -95c0 -90 -109 -181 -212 -181c-68 0 -113 38 -113 95c0 90 109 181 212 181z" fill="currentColor"/>
</g>
<g transform="translate(97.624,58.1233)">
<text font-family="Songti SC" font-size="2.7" text-anchor="start" fill="currentColor">
<tspan font-size="2.7">天</tspan>
</text>
</g>
<g transform="translate(99.4364,51.911)">
<rect x="-0.0757" y="-2.0000" width="0.1514" height="3.3287" ry="0.0500" fill="currentColor"/>
</g>
<g transform="translate(106.7913,51.911)">
<path transform="scale(0.0040, -0.0040)" d="M212 138c68 0 113 -38 113 -95c0 -90 -109 -181 -212 -181c-68 0 -113 38 -113 95c0 90 109 181 212 181z" fill="currentColor"/>
</g>
<g transform="translate(106.7913,58.1233)">
<text font-family="Songti SC" font-size="2.7" text-anchor="start" fill="currentColor">
<tspan font-size="2.7">性</tspan>
</text>
</g>
<g transform="translate(108.0165,51.911)">
<rect x="-0.0757" y="-3.1762" width="0.1514" height="3.0049" ry="0.0500" fill="currentColor"/>
</g>
<g transform="translate(111.6067,52.411)">
<path transform="scale(0.0040, -0.0040)" d="M212 138c68 0 113 -38 113 -95c0 -90 -109 -181 -212 -181c-68 0 -113 38 -113 95c0 90 109 181 212 181z" fill="currentColor"/>
</g>
<g transform="translate(112.8319,51.911)">
<rect x="-0.0757" y="-2.8238" width="0.1514" height="3.1524" ry="0.0500" fill="currentColor"/>
</g>
<g transform="translate(118.5777,48.4012)">
<text font-family="Hiragino Sans GB" font-size="1.9604" text-anchor="start" fill="currentColor">
<tspan>G</tspan>
</text>
</g>
<g transform="translate(118.5777,52.911)">
<path transform="scale(0.0040, -0.0040)" d="M310 63c0 22 -17 40 -40 40c-38 0 -197 -107 -224 -139c-7 -8 -10 -17 -10 -27c0 -22 17 -40 40 -40c38 0 197 107 224 139c7 8 10 17 10 27zM256 138c55 0 90 -22 90 -77c0 -25 -15 -112 -73 -151c-34 -23 -92 -48 -183 -48c-55 0 -90 22 -90 77c0 25 15 112 73 151 c34 23 92 48 183 48z" fill="currentColor"/>
</g>
<g transform="translate(116.7943,58.1233)">
<text font-family="Songti SC" font-size="2.7" text-anchor="start" fill="currentColor">
<tspan font-size="2.7">情；</tspan>
</text>
</g>
<g transform="translate(119.8859,51.911)">
<rect x="-0.0757" y="-2.5000" width="0.1514" height="3.2544" ry="0.0500" fill="currentColor"/>
</g>
<g transform="translate(130.5054,51.911)">
<path transform="scale(0.0040, -0.0040)" d="M-9 78c0 59 124 84 124 182c0 25 -9 50 -26 70l-31 37c-3 4 -4 8 -4 12c0 10 9 18 19 18c5 0 9 -1 13 -6l149 -178c7 -9 11 -17 11 -26c0 -59 -124 -84 -124 -182c0 -25 9 -51 26 -71l79 -94c3 -4 4 -8 4 -12c0 -10 -9 -18 -19 -18c-11 0 -38 40 -102 40 c-23 0 -55 -4 -55 -65c0 -33 11 -73 27 -92c8 -9 -6 -20 -14 -11c-44 53 -92 145 -92 199c0 41 26 43 46 43c30 0 69 -9 106 -23l-126 151c-7 9 -11 17 -11 26z" fill="currentColor"/>
</g>
<g transform="translate(138.4846,54.411)">
<path transform="scale(0.0040, -0.0040)" d="M212 138c68 0 113 -38 113 -95c0 -90 -109 -181 -212 -181c-68 0 -113 38 -113 95c0 90 109 181 212 181z" fill="currentColor"/>
</g>
<g transform="translate(137.8973,58.1233)">
<text font-family="Songti SC" font-size="2.7" text-anchor="start" fill="currentColor">
<tspan font-size="2.7">长</tspan>
</text>
</g>
<g transform="translate(139.7097,51.911)">
<rect x="-0.0757" y="-1.0000" width="0.1514" height="3.3287" ry="0.0500" fill="currentColor"/>
</g>
<g transform="translate(49.888,74.06020000000001)">
<rect x="0.0000" y="-2.0000" width="0.2212" height="4.0000" ry="0.0000" fill="currentColor"/>
</g>
<g transform="translate(9.0337,76.06020000000001)">
<line stroke-linejoin="round" stroke-linecap="round" stroke-width="0.1164" stroke="currentColor" x1="0.0582" y1="0" x2="138.1582" y2="0"/>
</g>
<g transform="translate(9.0337,75.06020000000001)">
<line stroke-linejoin="round" stroke-linecap="round" stroke-width="0.1164" stroke="currentColor" x1="0.0582" y1="0" x2="138.1582" y2="0"/>
</g>
<g transform="translate(9.0337,74.06020000000001)">
<line stroke-linejoin="round" stroke-linecap="round" stroke-width="0.1164" stroke="currentColor" x1="0.0582" y1="0" x2="138.1582" y2="0"/>
</g>
<g transform="translate(9.0337,73.06020000000001)">
<line stroke-linejoin="round" stroke-linecap="round" stroke-width="0.1164" stroke="currentColor" x1="0.0582" y1="0" x2="138.1582" y2="0"/>
</g>
<g transform="translate(9.0337,72.06020000000001)">
<line stroke-linejoin="round" stroke-linecap="round" stroke-width="0.1164" stroke="currentColor" x1="0.0582" y1="0" x2="138.1582" y2="0"/>
</g>
<g transform="translate(147.0289,74.06020000000001)">
<rect x="0.0000" y="-2.0000" width="0.2212" height="4.0000" ry="0.0000" fill="currentColor"/>
</g>
<g transform="translate(115.6434,74.06020000000001)">
<rect x="0.0000" y="-2.0000" width="0.2212" height="4.0000" ry="0.0000" fill="currentColor"/>
</g>
<g transform="translate(80.3539,74.06020000000001)">
<rect x="0.0000" y="-2.0000" width="0.2212" height="4.0000" ry="0.0000" fill="currentColor"/>
</g>
<g transform="translate(137.5848,74.06020000000001)">
<path stroke-width="0.0931" stroke-linejoin="round" stroke-linecap="round" stroke="currentColor" fill="currentColor" d="M0.6189 -1.2700C1.6601 -2.6376 4.2327 -2.8250 5.4241 -1.6200L5.4241 -1.6200C4.2428 -2.6857 1.6702 -2.4983 0.6189 -1.2700z"/>
</g>
<g transform="translate(9.8338,75.06020000000001)">
<path transform="scale(0.0040, -0.0040)" d="M647 2c0 -114 -75 -214 -180 -248c3 -33 4 -66 4 -99c0 -21 0 -41 -1 -62c-7 -122 -92 -229 -211 -229c-108 0 -196 88 -196 197c0 58 54 103 113 103c54 0 95 -47 95 -103c0 -52 -43 -95 -95 -95c-9 0 -18 1 -27 4c25 -37 66 -61 113 -61c93 0 156 91 162 191 c1 19 2 38 2 57c0 29 -1 58 -3 87c-5 -1 -44 -8 -88 -8c-194 0 -333 181 -333 376c0 177 129 308 244 443c-34 103 -55 171 -55 347c0 114 54 221 147 288c8 6 18 5 25 -1c68 -79 135 -242 135 -356c0 -142 -84 -255 -176 -364c21 -68 40 -136 57 -205c1 0 5 1 10 1 c157 0 258 -129 258 -263zM463 -201c64 24 110 88 110 161c0 88 -64 175 -167 188c28 -133 49 -269 57 -349zM77 25c0 -144 141 -243 261 -243c1 0 46 -1 81 5c-7 66 -27 208 -60 362c-79 -8 -124 -60 -124 -118c0 -43 25 -88 80 -120c5 -5 7 -11 7 -17 c0 -12 -10 -23 -23 -23c-16 0 -128 62 -128 188c0 89 60 177 163 200c-14 57 -30 113 -47 169c-105 -122 -210 -243 -210 -403zM242 784c0 -39 10 -95 39 -188c78 97 142 199 142 324c0 33 0 60 -20 118c-99 -46 -161 -145 -161 -254z" fill="currentColor"/>
</g>
<g transform="translate(13.3337,72.06020000000001)">
<path transform="scale(0.0040, -0.0040)" d="M0 116c0 10 6 19 16 23l40 15v154c0 12 9 21 21 21s21 -9 21 -21v-138l79 30v154c0 12 9 21 21 21s21 -9 21 -21v-138l22 8c3 1 6 2 9 2c13 0 25 -11 25 -25v-54c0 -10 -6 -20 -16 -24l-40 -15v-155l22 9c3 1 6 1 9 1c13 0 25 -11 25 -25v-54c0 -10 -6 -19 -16 -23 l-40 -15v-154c0 -12 -9 -21 -21 -21s-21 9 -21 21v138l-79 -30v-154c0 -12 -9 -21 -21 -21s-21 9 -21 21v138l-22 -8c-3 -1 -6 -2 -9 -2c-13 0 -25 11 -25 25v54c0 10 6 20 16 24l40 15v155l-22 -9c-3 -1 -6 -1 -9 -1c-13 0 -25 11 -25 25v54zM177 92l-79 -30v-154l79 30 v154z" fill="currentColor"/>
</g>
<g transform="translate(8.2228,71.0818)">
<text font-family="Songti SC" font-size="1.7463" text-anchor="start" fill="currentColor">
<tspan>9</tspan>
</text>
</g>
<g transform="translate(137.5848,77.24199999999999)">
<polygon stroke-linejoin="round" stroke-linecap="round" stroke-width="0.1000" fill="currentColor" stroke="currentColor" points="4.9066 -0.5536 4.9066 -0.1736 0.0500 0.1900 0.0500 -0.1900"/>
</g>
<g transform="translate(16.9338,70.5661)">
<text font-family="Hiragino Sans GB" font-size="1.9604" text-anchor="start" fill="currentColor">
<tspan>G</tspan>
</text>
</g>
<g transform="translate(16.9338,73.06020000000001)">
<path transform="scale(0.0040, -0.0040)" d="M212 138c68 0 113 -38 113 -95c0 -90 -109 -181 -212 -181c-68 0 -113 38 -113 95c0 90 109 181 212 181z" fill="currentColor"/>
</g>
<g transform="translate(16.3465,80.36619999999999)">
<text font-family="Songti SC" font-size="2.7" text-anchor="start" fill="currentColor">
<tspan font-size="2.7">久</tspan>
</text>
</g>
<g transform="translate(18.676,72.56020000000001)">
<path transform="scale(0.0040, -0.0040)" d="M0 0c0 30 25 55 55 55s55 -25 55 -55s-25 -55 -55 -55s-55 25 -55 55z" fill="currentColor"/>
</g>
<g transform="translate(17.0094,74.06020000000001)">
<rect x="-0.0757" y="-0.8287" width="0.1514" height="3.3287" ry="0.0500" fill="currentColor"/>
</g>
<g transform="translate(27.2933,73.06020000000001)">
<path transform="scale(0.0040, -0.0040)" d="M212 138c68 0 113 -38 113 -95c0 -90 -109 -181 -212 -181c-68 0 -113 38 -113 95c0 90 109 181 212 181z" fill="currentColor"/>
</g>
<g transform="translate(26.706,80.36619999999999)">
<text font-family="Songti SC" font-size="2.7" text-anchor="start" fill="currentColor">
<tspan font-size="2.7">渴</tspan>
</text>
</g>
<g transform="translate(27.369,74.06020000000001)">
<rect x="-0.0757" y="-0.8287" width="0.1514" height="3.3287" ry="0.0500" fill="currentColor"/>
</g>
<g transform="translate(27.4447,76.5102)">
<path transform="scale(0.0040, -0.0040)" d="M0 0h-19v250h19v-250zM0 0v250c95 59 220 149 220 259c0 56 -16 111 -41 161c-3 18 12 30 26 30c8 0 17 -4 22 -13c25 -56 40 -116 40 -178c0 -203 -267 -306 -267 -509z" fill="currentColor"/>
</g>
<g transform="translate(32.0985,73.06020000000001)">
<path transform="scale(0.0040, -0.0040)" d="M212 138c68 0 113 -38 113 -95c0 -90 -109 -181 -212 -181c-68 0 -113 38 -113 95c0 90 109 181 212 181z" fill="currentColor"/>
</g>
<g transform="translate(31.5113,80.36619999999999)">
<text font-family="Songti SC" font-size="2.7" text-anchor="start" fill="currentColor">
<tspan font-size="2.7">慕</tspan>
</text>
</g>
<g transform="translate(32.1742,74.06020000000001)">
<rect x="-0.0757" y="-0.8287" width="0.1514" height="3.3287" ry="0.0500" fill="currentColor"/>
</g>
<g transform="translate(105.8666,74.06020000000001)">
<path stroke-width="0.0931" stroke-linejoin="round" stroke-linecap="round" stroke="currentColor" fill="currentColor" d="M0.7085 2.2027C1.9621 3.0812 4.5387 2.7327 5.5138 1.5527L5.5138 1.5527C4.5199 2.5942 1.9434 2.9428 0.7085 2.2027z"/>
</g>
<g transform="translate(40.4082,73.56020000000001)">
<path transform="scale(0.0040, -0.0040)" d="M212 138c68 0 113 -38 113 -95c0 -90 -109 -181 -212 -181c-68 0 -113 38 -113 95c0 90 109 181 212 181z" fill="currentColor"/>
</g>
<g transform="translate(40.4082,80.36619999999999)">
<text font-family="Songti SC" font-size="2.7" text-anchor="start" fill="currentColor">
<tspan font-size="2.7">享</tspan>
</text>
</g>
<g transform="translate(40.4838,74.06020000000001)">
<rect x="-0.0757" y="-0.3287" width="0.1514" height="3.1524" ry="0.0500" fill="currentColor"/>
</g>
<g transform="translate(107.0161,72.06020000000001)">
<polygon stroke-linejoin="round" stroke-linecap="round" stroke-width="0.1000" fill="currentColor" stroke="currentColor" points="4.9066 -0.3718 4.9066 0.0082 0.0500 0.1900 0.0500 -0.1900"/>
</g>
<g transform="translate(45.2134,74.06020000000001)">
<path transform="scale(0.0040, -0.0040)" d="M212 138c68 0 113 -38 113 -95c0 -90 -109 -181 -212 -181c-68 0 -113 38 -113 95c0 90 109 181 212 181z" fill="currentColor"/>
</g>
<g transform="translate(45.2891,74.06020000000001)">
<rect x="-0.0757" y="0.1713" width="0.1514" height="3.0049" ry="0.0500" fill="currentColor"/>
</g>
<g transform="translate(51.8733,70.5661)">
<text font-family="Hiragino Sans GB" font-size="1.9604" text-anchor="start" fill="currentColor">
<tspan>D</tspan>
</text>
</g>
<g transform="translate(51.8733,74.56020000000001)">
<path transform="scale(0.0040, -0.0040)" d="M310 63c0 22 -17 40 -40 40c-38 0 -197 -107 -224 -139c-7 -8 -10 -17 -10 -27c0 -22 17 -40 40 -40c38 0 197 107 224 139c7 8 10 17 10 27zM256 138c55 0 90 -22 90 -77c0 -25 -15 -112 -73 -151c-34 -23 -92 -48 -183 -48c-55 0 -90 22 -90 77c0 25 15 112 73 151 c34 23 92 48 183 48z" fill="currentColor"/>
</g>
<g transform="translate(51.3276,80.36619999999999)">
<text font-family="Songti SC" font-size="2.7" text-anchor="start" fill="currentColor">
<tspan font-size="2.7">受</tspan>
</text>
</g>
<g transform="translate(53.1815,74.06020000000001)">
<rect x="-0.0757" y="-3.0000" width="0.1514" height="3.2544" ry="0.0500" fill="currentColor"/>
</g>
<g transform="translate(63.5204,76.56020000000001)">
<path transform="scale(0.0040, -0.0040)" d="M212 138c68 0 113 -38 113 -95c0 -90 -109 -181 -212 -181c-68 0 -113 38 -113 95c0 90 109 181 212 181z" fill="currentColor"/>
</g>
<g transform="translate(61.6954,80.36619999999999)">
<text font-family="Songti SC" font-size="2.7" text-anchor="start" fill="currentColor">
<tspan font-size="2.7">你，</tspan>
</text>
</g>
<g transform="translate(64.7455,74.06020000000001)">
<rect x="-0.0757" y="-1.0000" width="0.1514" height="3.3287" ry="0.0500" fill="currentColor"/>
</g>
<g transform="translate(71.83,76.56020000000001)">
<path transform="scale(0.0040, -0.0040)" d="M212 138c68 0 113 -38 113 -95c0 -90 -109 -181 -212 -181c-68 0 -113 38 -113 95c0 90 109 181 212 181z" fill="currentColor"/>
</g>
<g transform="translate(71.2427,80.36619999999999)">
<text font-family="Songti SC" font-size="2.7" text-anchor="start" fill="currentColor">
<tspan font-size="2.7">饱</tspan>
</text>
</g>
<g transform="translate(73.0552,74.06020000000001)">
<rect x="-0.0757" y="-1.0000" width="0.1514" height="3.3287" ry="0.0500" fill="currentColor"/>
</g>
<g transform="translate(82.3393,74.56020000000001)">
<path transform="scale(0.0040, -0.0040)" d="M212 138c68 0 113 -38 113 -95c0 -90 -109 -181 -212 -181c-68 0 -113 38 -113 95c0 90 109 181 212 181z" fill="currentColor"/>
</g>
<g transform="translate(81.752,80.36619999999999)">
<text font-family="Songti SC" font-size="2.7" text-anchor="start" fill="currentColor">
<tspan font-size="2.7">尝</tspan>
</text>
</g>
<g transform="translate(84.0815,74.56020000000001)">
<path transform="scale(0.0040, -0.0040)" d="M0 0c0 30 25 55 55 55s55 -25 55 -55s-25 -55 -55 -55s-55 25 -55 55z" fill="currentColor"/>
</g>
<g transform="translate(83.5644,74.06020000000001)">
<rect x="-0.0757" y="-3.0000" width="0.1514" height="3.3287" ry="0.0500" fill="currentColor"/>
</g>
<g transform="translate(92.6988,74.56020000000001)">
<path transform="scale(0.0040, -0.0040)" d="M212 138c68 0 113 -38 113 -95c0 -90 -109 -181 -212 -181c-68 0 -113 38 -113 95c0 90 109 181 212 181z" fill="currentColor"/>
</g>
<g transform="translate(92.1115,80.36619999999999)">
<text font-family="Songti SC" font-size="2.7" text-anchor="start" fill="currentColor">
<tspan font-size="2.7">你</tspan>
</text>
</g>
<g transform="translate(93.924,74.06020000000001)">
<rect x="-0.0757" y="-3.0000" width="0.1514" height="3.3287" ry="0.0500" fill="currentColor"/>
</g>
<g transform="translate(93.9996,71.11019999999999)">
<path transform="scale(0.0040, -0.0040)" d="M0 -250h-19v250h19c0 -197 207 -334 207 -531c0 -71 -15 -140 -41 -206c-5 -9 -14 -13 -22 -13c-14 0 -29 12 -26 30c26 60 43 124 43 189c0 102 -92 206 -161 281z" fill="currentColor"/>
</g>
<g transform="translate(40.4082,74.06020000000001)">
<path stroke-width="0.0931" stroke-linejoin="round" stroke-linecap="round" stroke="currentColor" fill="currentColor" d="M0.6819 -1.6200C1.8734 -2.8250 4.4460 -2.6376 5.4871 -1.2700L5.4871 -1.2700C4.4358 -2.4983 1.8633 -2.6857 0.6819 -1.6200z"/>
</g>
<g transform="translate(97.557,74.56020000000001)">
<path transform="scale(0.0040, -0.0040)" d="M212 138c68 0 113 -38 113 -95c0 -90 -109 -181 -212 -181c-68 0 -113 38 -113 95c0 90 109 181 212 181z" fill="currentColor"/>
</g>
<g transform="translate(96.9697,80.36619999999999)">
<text font-family="Songti SC" font-size="2.7" text-anchor="start" fill="currentColor">
<tspan font-size="2.7">的</tspan>
</text>
</g>
<g transform="translate(98.7821,74.06020000000001)">
<rect x="-0.0757" y="-3.0000" width="0.1514" height="3.3287" ry="0.0500" fill="currentColor"/>
</g>
<g transform="translate(40.4082,76.8784)">
<polygon stroke-linejoin="round" stroke-linecap="round" stroke-width="0.1000" fill="currentColor" stroke="currentColor" points="4.9066 0.1736 4.9066 0.5536 0.0500 0.1900 0.0500 -0.1900"/>
</g>
<g transform="translate(105.8666,75.06020000000001)">
<path transform="scale(0.0040, -0.0040)" d="M212 138c68 0 113 -38 113 -95c0 -90 -109 -181 -212 -181c-68 0 -113 38 -113 95c0 90 109 181 212 181z" fill="currentColor"/>
</g>
<g transform="translate(105.8666,80.36619999999999)">
<text font-family="Songti SC" font-size="2.7" text-anchor="start" fill="currentColor">
<tspan font-size="2.7">丰</tspan>
</text>
</g>
<g transform="translate(107.0917,74.06020000000001)">
<rect x="-0.0757" y="-2.0028" width="0.1514" height="2.8314" ry="0.0500" fill="currentColor"/>
</g>
<g transform="translate(110.6718,74.56020000000001)">
<path transform="scale(0.0040, -0.0040)" d="M212 138c68 0 113 -38 113 -95c0 -90 -109 -181 -212 -181c-68 0 -113 38 -113 95c0 90 109 181 212 181z" fill="currentColor"/>
</g>
<g transform="translate(111.897,74.06020000000001)">
<rect x="-0.0757" y="-2.1790" width="0.1514" height="2.5077" ry="0.0500" fill="currentColor"/>
</g>
<g transform="translate(117.729,70.5661)">
<text font-family="Hiragino Sans GB" font-size="1.9604" text-anchor="start" fill="currentColor">
<tspan>G</tspan>
</text>
</g>
<g transform="translate(117.729,74.06020000000001)">
<path transform="scale(0.0040, -0.0040)" d="M310 63c0 22 -17 40 -40 40c-38 0 -197 -107 -224 -139c-7 -8 -10 -17 -10 -27c0 -22 17 -40 40 -40c38 0 197 107 224 139c7 8 10 17 10 27zM256 138c55 0 90 -22 90 -77c0 -25 -15 -112 -73 -151c-34 -23 -92 -48 -183 -48c-55 0 -90 22 -90 77c0 25 15 112 73 151 c34 23 92 48 183 48z" fill="currentColor"/>
</g>
<g transform="translate(115.9455,80.36619999999999)">
<text font-family="Songti SC" font-size="2.7" text-anchor="start" fill="currentColor">
<tspan font-size="2.7">富，</tspan>
</text>
</g>
<g transform="translate(117.8047,74.06020000000001)">
<rect x="-0.0757" y="0.2456" width="0.1514" height="3.0878" ry="0.0500" fill="currentColor"/>
</g>
<g transform="translate(129.626,74.06020000000001)">
<path transform="scale(0.0040, -0.0040)" d="M-9 78c0 59 124 84 124 182c0 25 -9 50 -26 70l-31 37c-3 4 -4 8 -4 12c0 10 9 18 19 18c5 0 9 -1 13 -6l149 -178c7 -9 11 -17 11 -26c0 -59 -124 -84 -124 -182c0 -25 9 -51 26 -71l79 -94c3 -4 4 -8 4 -12c0 -10 -9 -18 -19 -18c-11 0 -38 40 -102 40 c-23 0 -55 -4 -55 -65c0 -33 11 -73 27 -92c8 -9 -6 -20 -14 -11c-44 53 -92 145 -92 199c0 41 26 43 46 43c30 0 69 -9 106 -23l-126 151c-7 9 -11 17 -11 26z" fill="currentColor"/>
</g>
<g transform="translate(137.5848,74.06020000000001)">
<path transform="scale(0.0040, -0.0040)" d="M212 138c68 0 113 -38 113 -95c0 -90 -109 -181 -212 -181c-68 0 -113 38 -113 95c0 90 109 181 212 181z" fill="currentColor"/>
</g>
<g transform="translate(137.5848,80.36619999999999)">
<text font-family="Songti SC" font-size="2.7" text-anchor="start" fill="currentColor">
<tspan font-size="2.7">直</tspan>
</text>
</g>
<g transform="translate(137.6605,74.06020000000001)">
<rect x="-0.0757" y="0.1713" width="0.1514" height="3.0049" ry="0.0500" fill="currentColor"/>
</g>
<g transform="translate(142.39,73.56020000000001)">
<path transform="scale(0.0040, -0.0040)" d="M212 138c68 0 113 -38 113 -95c0 -90 -109 -181 -212 -181c-68 0 -113 38 -113 95c0 90 109 181 212 181z" fill="currentColor"/>
</g>
<g transform="translate(142.4657,74.06020000000001)">
<rect x="-0.0757" y="-0.3287" width="0.1514" height="3.1524" ry="0.0500" fill="currentColor"/>
</g>
<g transform="translate(48.041,96.7678)">
<rect x="0.0000" y="-2.0000" width="0.2212" height="4.0000" ry="0.0000" fill="currentColor"/>
</g>
<g transform="translate(9.0337,98.7678)">
<line stroke-linejoin="round" stroke-linecap="round" stroke-width="0.1164" stroke="currentColor" x1="0.0582" y1="0" x2="138.1582" y2="0"/>
</g>
<g transform="translate(9.0337,97.7678)">
<line stroke-linejoin="round" stroke-linecap="round" stroke-width="0.1164" stroke="currentColor" x1="0.0582" y1="0" x2="138.1582" y2="0"/>
</g>
<g transform="translate(9.0337,96.7678)">
<line stroke-linejoin="round" stroke-linecap="round" stroke-width="0.1164" stroke="currentColor" x1="0.0582" y1="0" x2="138.1582" y2="0"/>
</g>
<g transform="translate(9.0337,95.7678)">
<line stroke-linejoin="round" stroke-linecap="round" stroke-width="0.1164" stroke="currentColor" x1="0.0582" y1="0" x2="138.1582" y2="0"/>
</g>
<g transform="translate(9.0337,94.7678)">
<line stroke-linejoin="round" stroke-linecap="round" stroke-width="0.1164" stroke="currentColor" x1="0.0582" y1="0" x2="138.1582" y2="0"/>
</g>
<g transform="translate(146.5516,96.7678)">
<rect x="0.0000" y="-2.0000" width="0.6986" height="4.0000" ry="0.0000" fill="currentColor"/>
</g>
<g transform="translate(145.9811,96.7678)">
<rect x="0.0000" y="-2.0000" width="0.2212" height="4.0000" ry="0.0000" fill="currentColor"/>
</g>
<g transform="translate(114.4156,96.7678)">
<rect x="0.0000" y="-2.0000" width="0.2212" height="4.0000" ry="0.0000" fill="currentColor"/>
</g>
<g transform="translate(77.919,96.7678)">
<rect x="0.0000" y="-2.0000" width="0.2212" height="4.0000" ry="0.0000" fill="currentColor"/>
</g>
<g transform="translate(9.8338,97.7678)">
<path transform="scale(0.0040, -0.0040)" d="M647 2c0 -114 -75 -214 -180 -248c3 -33 4 -66 4 -99c0 -21 0 -41 -1 -62c-7 -122 -92 -229 -211 -229c-108 0 -196 88 -196 197c0 58 54 103 113 103c54 0 95 -47 95 -103c0 -52 -43 -95 -95 -95c-9 0 -18 1 -27 4c25 -37 66 -61 113 -61c93 0 156 91 162 191 c1 19 2 38 2 57c0 29 -1 58 -3 87c-5 -1 -44 -8 -88 -8c-194 0 -333 181 -333 376c0 177 129 308 244 443c-34 103 -55 171 -55 347c0 114 54 221 147 288c8 6 18 5 25 -1c68 -79 135 -242 135 -356c0 -142 -84 -255 -176 -364c21 -68 40 -136 57 -205c1 0 5 1 10 1 c157 0 258 -129 258 -263zM463 -201c64 24 110 88 110 161c0 88 -64 175 -167 188c28 -133 49 -269 57 -349zM77 25c0 -144 141 -243 261 -243c1 0 46 -1 81 5c-7 66 -27 208 -60 362c-79 -8 -124 -60 -124 -118c0 -43 25 -88 80 -120c5 -5 7 -11 7 -17 c0 -12 -10 -23 -23 -23c-16 0 -128 62 -128 188c0 89 60 177 163 200c-14 57 -30 113 -47 169c-105 -122 -210 -243 -210 -403zM242 784c0 -39 10 -95 39 -188c78 97 142 199 142 324c0 33 0 60 -20 118c-99 -46 -161 -145 -161 -254z" fill="currentColor"/>
</g>
<g transform="translate(13.3337,94.7678)">
<path transform="scale(0.0040, -0.0040)" d="M0 116c0 10 6 19 16 23l40 15v154c0 12 9 21 21 21s21 -9 21 -21v-138l79 30v154c0 12 9 21 21 21s21 -9 21 -21v-138l22 8c3 1 6 2 9 2c13 0 25 -11 25 -25v-54c0 -10 -6 -20 -16 -24l-40 -15v-155l22 9c3 1 6 1 9 1c13 0 25 -11 25 -25v-54c0 -10 -6 -19 -16 -23 l-40 -15v-154c0 -12 -9 -21 -21 -21s-21 9 -21 21v138l-79 -30v-154c0 -12 -9 -21 -21 -21s-21 9 -21 21v138l-22 -8c-3 -1 -6 -2 -9 -2c-13 0 -25 11 -25 25v54c0 10 6 20 16 24l40 15v155l-22 -9c-3 -1 -6 -1 -9 -1c-13 0 -25 11 -25 25v54zM177 92l-79 -30v-154l79 30 v154z" fill="currentColor"/>
</g>
<g transform="translate(7.4119,93.7946)">
<text font-family="Songti SC" font-size="1.7463" text-anchor="start" fill="currentColor">
<tspan>13</tspan>
</text>
</g>
<g transform="translate(16.9338,93.25800000000001)">
<text font-family="Hiragino Sans GB" font-size="1.9604" text-anchor="start" fill="currentColor">
<tspan>G</tspan>
</text>
</g>
<g transform="translate(16.9338,95.7678)">
<path transform="scale(0.0040, -0.0040)" d="M212 138c68 0 113 -38 113 -95c0 -90 -109 -181 -212 -181c-68 0 -113 38 -113 95c0 90 109 181 212 181z" fill="currentColor"/>
</g>
<g transform="translate(16.3465,103.0047)">
<text font-family="Songti SC" font-size="2.7" text-anchor="start" fill="currentColor">
<tspan font-size="2.7">到</tspan>
</text>
</g>
<g transform="translate(18.676,95.2678)">
<path transform="scale(0.0040, -0.0040)" d="M0 0c0 30 25 55 55 55s55 -25 55 -55s-25 -55 -55 -55s-55 25 -55 55z" fill="currentColor"/>
</g>
<g transform="translate(17.0094,96.7678)">
<rect x="-0.0757" y="-0.8287" width="0.1514" height="3.3287" ry="0.0500" fill="currentColor"/>
</g>
<g transform="translate(104.8047,96.7678)">
<path stroke-width="0.0931" stroke-linejoin="round" stroke-linecap="round" stroke="currentColor" fill="currentColor" d="M0.6184 1.2722C1.6451 2.6373 4.1627 2.8239 5.3407 1.6222L5.3407 1.6222C4.1730 2.6846 1.6554 2.4980 0.6184 1.2722z"/>
</g>
<g transform="translate(26.829,96.7678)">
<path transform="scale(0.0040, -0.0040)" d="M212 138c68 0 113 -38 113 -95c0 -90 -109 -181 -212 -181c-68 0 -113 38 -113 95c0 90 109 181 212 181z" fill="currentColor"/>
</g>
<g transform="translate(26.2417,103.0047)">
<text font-family="Songti SC" font-size="2.7" text-anchor="start" fill="currentColor">
<tspan font-size="2.7">地</tspan>
</text>
</g>
<g transform="translate(26.9047,96.7678)">
<rect x="-0.0757" y="0.1713" width="0.1514" height="3.2037" ry="0.0500" fill="currentColor"/>
</g>
<g transform="translate(26.9804,100.0928)">
<path transform="scale(0.0040, -0.0040)" d="M0 0h-19v250h19v-250zM0 0v250c95 59 220 149 220 259c0 56 -16 111 -41 161c-3 18 12 30 26 30c8 0 17 -4 22 -13c25 -56 40 -116 40 -178c0 -203 -267 -306 -267 -509z" fill="currentColor"/>
</g>
<g transform="translate(31.5513,93.25800000000001)">
<text font-family="Hiragino Sans GB" font-size="1.9604" text-anchor="start" fill="currentColor">
<tspan>G</tspan>
</text>
</g>
<g transform="translate(33.0451,92.3671)">
<text font-family="Hiragino Sans GB" font-size="1.3856" text-anchor="start" fill="currentColor">
<tspan>7</tspan>
</text>
</g>
<g transform="translate(31.5513,97.2678)">
<path transform="scale(0.0040, -0.0040)" d="M212 138c68 0 113 -38 113 -95c0 -90 -109 -181 -212 -181c-68 0 -113 38 -113 95c0 90 109 181 212 181z" fill="currentColor"/>
</g>
<g transform="translate(30.9641,103.0047)">
<text font-family="Songti SC" font-size="2.7" text-anchor="start" fill="currentColor">
<tspan font-size="2.7">乐</tspan>
</text>
</g>
<g transform="translate(32.7765,96.7678)">
<rect x="-0.0757" y="-3.0000" width="0.1514" height="3.3287" ry="0.0500" fill="currentColor"/>
</g>
<g transform="translate(39.6951,97.7678)">
<path transform="scale(0.0040, -0.0040)" d="M212 138c68 0 113 -38 113 -95c0 -90 -109 -181 -212 -181c-68 0 -113 38 -113 95c0 90 109 181 212 181z" fill="currentColor"/>
</g>
<g transform="translate(39.1079,103.0047)">
<text font-family="Songti SC" font-size="2.7" text-anchor="start" fill="currentColor">
<tspan font-size="2.7">全</tspan>
</text>
</g>
<g transform="translate(40.9203,96.7678)">
<rect x="-0.0757" y="-2.5000" width="0.1514" height="3.3287" ry="0.0500" fill="currentColor"/>
</g>
<g transform="translate(49.9953,93.25800000000001)">
<text font-family="Hiragino Sans GB" font-size="1.9604" text-anchor="start" fill="currentColor">
<tspan>C</tspan>
</text>
</g>
<g transform="translate(49.9953,97.7678)">
<path transform="scale(0.0040, -0.0040)" d="M310 63c0 22 -17 40 -40 40c-38 0 -197 -107 -224 -139c-7 -8 -10 -17 -10 -27c0 -22 17 -40 40 -40c38 0 197 107 224 139c7 8 10 17 10 27zM256 138c55 0 90 -22 90 -77c0 -25 -15 -112 -73 -151c-34 -23 -92 -48 -183 -48c-55 0 -90 22 -90 77c0 25 15 112 73 151 c34 23 92 48 183 48z" fill="currentColor"/>
</g>
<g transform="translate(49.4495,103.0047)">
<text font-family="Songti SC" font-size="2.7" text-anchor="start" fill="currentColor">
<tspan font-size="2.7">灭</tspan>
</text>
</g>
<g transform="translate(51.3035,96.7678)">
<rect x="-0.0757" y="-2.5000" width="0.1514" height="3.2544" ry="0.0500" fill="currentColor"/>
</g>
<g transform="translate(61.3936,98.7678)">
<path transform="scale(0.0040, -0.0040)" d="M212 138c68 0 113 -38 113 -95c0 -90 -109 -181 -212 -181c-68 0 -113 38 -113 95c0 90 109 181 212 181z" fill="currentColor"/>
</g>
<g transform="translate(59.5686,103.0047)">
<text font-family="Songti SC" font-size="2.7" text-anchor="start" fill="currentColor">
<tspan font-size="2.7">迹，</tspan>
</text>
</g>
<g transform="translate(62.6187,96.7678)">
<rect x="-0.0757" y="-1.5000" width="0.1514" height="3.3287" ry="0.0500" fill="currentColor"/>
</g>
<g transform="translate(69.5374,98.7678)">
<path transform="scale(0.0040, -0.0040)" d="M212 138c68 0 113 -38 113 -95c0 -90 -109 -181 -212 -181c-68 0 -113 38 -113 95c0 90 109 181 212 181z" fill="currentColor"/>
</g>
<g transform="translate(68.9501,103.0047)">
<text font-family="Songti SC" font-size="2.7" text-anchor="start" fill="currentColor">
<tspan font-size="2.7">所</tspan>
</text>
</g>
<g transform="translate(70.7626,96.7678)">
<rect x="-0.0757" y="-1.5000" width="0.1514" height="3.3287" ry="0.0500" fill="currentColor"/>
</g>
<g transform="translate(79.8732,93.25800000000001)">
<text font-family="Hiragino Sans GB" font-size="1.9604" text-anchor="start" fill="currentColor">
<tspan>G</tspan>
</text>
</g>
<g transform="translate(79.8732,99.2678)">
<path transform="scale(0.0040, -0.0040)" d="M212 138c68 0 113 -38 113 -95c0 -90 -109 -181 -212 -181c-68 0 -113 38 -113 95c0 90 109 181 212 181z" fill="currentColor"/>
</g>
<g transform="translate(79.286,103.0047)">
<text font-family="Songti SC" font-size="2.7" text-anchor="start" fill="currentColor">
<tspan font-size="2.7">有</tspan>
</text>
</g>
<g transform="translate(81.0984,96.7678)">
<rect x="-0.0757" y="-1.0000" width="0.1514" height="3.3287" ry="0.0500" fill="currentColor"/>
</g>
<g transform="translate(105.9541,93.586)">
<polygon stroke-linejoin="round" stroke-linecap="round" stroke-width="0.1000" fill="currentColor" stroke="currentColor" points="4.8237 0.1736 4.8237 0.5536 0.0500 0.1900 0.0500 -0.1900"/>
</g>
<g transform="translate(88.267,97.7678)">
<path transform="scale(0.0040, -0.0040)" d="M212 138c68 0 113 -38 113 -95c0 -90 -109 -181 -212 -181c-68 0 -113 38 -113 95c0 90 109 181 212 181z" fill="currentColor"/>
</g>
<g transform="translate(87.6798,103.0047)">
<text font-family="Songti SC" font-size="2.7" text-anchor="start" fill="currentColor">
<tspan font-size="2.7">心</tspan>
</text>
</g>
<g transform="translate(89.4922,96.7678)">
<rect x="-0.0757" y="-2.5000" width="0.1514" height="3.3287" ry="0.0500" fill="currentColor"/>
</g>
<g transform="translate(96.4109,93.25800000000001)">
<text font-family="Hiragino Sans GB" font-size="1.9604" text-anchor="start" fill="currentColor">
<tspan>D</tspan>
</text>
</g>
<g transform="translate(97.9046,92.3671)">
<text font-family="Hiragino Sans GB" font-size="1.3856" text-anchor="start" fill="currentColor">
<tspan>7</tspan>
</text>
</g>
<g transform="translate(96.4109,98.2678)">
<path transform="scale(0.0040, -0.0040)" d="M212 138c68 0 113 -38 113 -95c0 -90 -109 -181 -212 -181c-68 0 -113 38 -113 95c0 90 109 181 212 181z" fill="currentColor"/>
</g>
<g transform="translate(95.8236,103.0047)">
<text font-family="Songti SC" font-size="2.7" text-anchor="start" fill="currentColor">
<tspan font-size="2.7">愿</tspan>
</text>
</g>
<g transform="translate(97.636,96.7678)">
<rect x="-0.0757" y="-2.0000" width="0.1514" height="3.3287" ry="0.0500" fill="currentColor"/>
</g>
<g transform="translate(104.8047,96.7678)">
<path transform="scale(0.0040, -0.0040)" d="M212 138c68 0 113 -38 113 -95c0 -90 -109 -181 -212 -181c-68 0 -113 38 -113 95c0 90 109 181 212 181z" fill="currentColor"/>
</g>
<g transform="translate(105.4551,92.86359999999999)">
<path transform="scale(0.0040, -0.0040)" d="M-71 49c0 39 32 71 71 71s71 -32 71 -71s-32 -71 -71 -71s-71 32 -71 71zM0 366c257 0 335 -332 335 -369c0 -11 -10 -19 -21 -19c-10 0 -20 7 -23 22c-26 146 -145 259 -291 259s-265 -113 -291 -259c-3 -15 -13 -22 -23 -22c-11 0 -21 8 -21 19c0 37 78 369 335 369z " fill="currentColor"/>
</g>
<g transform="translate(104.8047,103.0047)">
<text font-family="Songti SC" font-size="2.7" text-anchor="start" fill="currentColor">
<tspan font-size="2.7">满</tspan>
</text>
</g>
<g transform="translate(106.0298,96.7678)">
<rect x="-0.0757" y="-3.1761" width="0.1514" height="3.0048" ry="0.0500" fill="currentColor"/>
</g>
<g transform="translate(109.527,97.2678)">
<path transform="scale(0.0040, -0.0040)" d="M212 138c68 0 113 -38 113 -95c0 -90 -109 -181 -212 -181c-68 0 -113 38 -113 95c0 90 109 181 212 181z" fill="currentColor"/>
</g>
<g transform="translate(110.7521,96.7678)">
<rect x="-0.0757" y="-2.8239" width="0.1514" height="3.1525" ry="0.0500" fill="currentColor"/>
</g>
<g transform="translate(116.3699,93.25800000000001)">
<text font-family="Hiragino Sans GB" font-size="1.9604" text-anchor="start" fill="currentColor">
<tspan>G</tspan>
</text>
</g>
<g transform="translate(116.3699,97.7678)">
<path transform="scale(0.0040, -0.0040)" d="M310 63c0 22 -17 40 -40 40c-38 0 -197 -107 -224 -139c-7 -8 -10 -17 -10 -27c0 -22 17 -40 40 -40c38 0 197 107 224 139c7 8 10 17 10 27zM256 138c55 0 90 -22 90 -77c0 -25 -15 -112 -73 -151c-34 -23 -92 -48 -183 -48c-55 0 -90 22 -90 77c0 25 15 112 73 151 c34 23 92 48 183 48z" fill="currentColor"/>
</g>
<g transform="translate(114.5865,103.0047)">
<text font-family="Songti SC" font-size="2.7" text-anchor="start" fill="currentColor">
<tspan font-size="2.7">足。</tspan>
</text>
</g>
<g transform="translate(118.1952,97.2678)">
<path transform="scale(0.0040, -0.0040)" d="M0 0c0 30 25 55 55 55s55 -25 55 -55s-25 -55 -55 -55s-55 25 -55 55z" fill="currentColor"/>
</g>
<g transform="translate(117.6781,96.7678)">
<rect x="-0.0757" y="-2.5000" width="0.1514" height="3.2544" ry="0.0500" fill="currentColor"/>
</g>
<g transform="translate(124.4129,93.25800000000001)">
<text font-family="Hiragino Sans GB" font-size="1.9604" text-anchor="start" fill="currentColor">
<tspan>C</tspan>
</text>
</g>
<g transform="translate(132.4559,93.25800000000001)">
<text font-family="Hiragino Sans GB" font-size="1.9604" text-anchor="start" fill="currentColor">
<tspan>G</tspan>
</text>
</g>
<g transform="translate(138.1881,96.7678)">
<path transform="scale(0.0040, -0.0040)" d="M-9 78c0 59 124 84 124 182c0 25 -9 50 -26 70l-31 37c-3 4 -4 8 -4 12c0 10 9 18 19 18c5 0 9 -1 13 -6l149 -178c7 -9 11 -17 11 -26c0 -59 -124 -84 -124 -182c0 -25 9 -51 26 -71l79 -94c3 -4 4 -8 4 -12c0 -10 -9 -18 -19 -18c-11 0 -38 40 -102 40 c-23 0 -55 -4 -55 -65c0 -33 11 -73 27 -92c8 -9 -6 -20 -14 -11c-44 53 -92 145 -92 199c0 41 26 43 46 43c30 0 69 -9 106 -23l-126 151c-7 9 -11 17 -11 26z" fill="currentColor"/>
</g>
<g transform="translate(67.8148,144.7678)">
<text font-family="Songti SC" font-size="1.5560" text-anchor="start" fill="currentColor">
<tspan> </tspan>
</text>
</g>
<g transform="translate(67.8148,170.7678)">
<text font-family="Songti SC" font-size="1.5560" text-anchor="start" fill="currentColor">
<tspan> </tspan>
</text>
</g>
<g transform="translate(69.8408,231.9677)">
<text font-family="Trebuchet MS" font-size="2.2001" text-anchor="start" fill="currentColor">
<tspan>www.hymnal.net</tspan>
</text>
</g>
<g transform="translate(16.1856,39.5613)">
<text font-family="Songti SC" font-weight="bold" font-size="2.7" text-anchor="start" fill="currentColor">2.</text></g>
<g transform="translate(18.6794,39.5613)">
<text font-family="Songti SC" font-size="2.7" text-anchor="start" fill="currentColor">涌</text></g>
<g transform="translate(28.3043,39.5613)">
<text font-family="Songti SC" font-size="2.7" text-anchor="start" fill="currentColor">流</text></g>
<g transform="translate(37.7013,39.5613)">
<text font-family="Songti SC" font-size="2.7" text-anchor="start" fill="currentColor">生</text></g>
<g transform="translate(42.1871,39.5613)">
<text font-family="Songti SC" font-size="2.7" text-anchor="start" fill="currentColor">命</text></g>
<g transform="translate(50.0021,39.5613)">
<text font-family="Songti SC" font-size="2.7" text-anchor="start" fill="currentColor">的</text></g>
<g transform="translate(59.6563,39.5613)">
<text font-family="Songti SC" font-size="2.7" text-anchor="start" fill="currentColor">活</text></g>
<g transform="translate(69.157,39.5613)">
<text font-family="Songti SC" font-size="2.7" text-anchor="start" fill="currentColor">水</text></g>
<g transform="translate(77.9597,39.5613)">
<text font-family="Songti SC" font-size="2.7" text-anchor="start" fill="currentColor">流</text></g>
<g transform="translate(87.6081,39.5613)">
<text font-family="Songti SC" font-size="2.7" text-anchor="start" fill="currentColor">自</text></g>
<g transform="translate(95.173,39.5613)">
<text font-family="Songti SC" font-size="2.7" text-anchor="start" fill="currentColor">裂</text></g>
<g transform="translate(102.9032,39.5613)">
<text font-family="Songti SC" font-size="2.7" text-anchor="start" fill="currentColor">开</text></g>
<g transform="translate(110.4681,39.5613)">
<text font-family="Songti SC" font-size="2.7" text-anchor="start" fill="currentColor">灵</text></g>
<g transform="translate(118.552,39.5613)">
<text font-family="Songti SC" font-size="2.7" text-anchor="start" fill="currentColor">磐</text></g>
<g transform="translate(138.3295,39.5613)">
<text font-family="Songti SC" font-size="2.7" text-anchor="start" fill="currentColor">明</text></g>
<g transform="translate(16.3465,62.1233)">
<text font-family="Songti SC" font-size="2.7" text-anchor="start" fill="currentColor">晶</text></g>
<g transform="translate(26.4824,62.1233)">
<text font-family="Songti SC" font-size="2.7" text-anchor="start" fill="currentColor">活</text></g>
<g transform="translate(31.2979,62.1233)">
<text font-family="Songti SC" font-size="2.7" text-anchor="start" fill="currentColor">泉</text></g>
<g transform="translate(39.6279,62.1233)">
<text font-family="Songti SC" font-size="2.7" text-anchor="start" fill="currentColor">何</text></g>
<g transform="translate(50.1907,62.1233)">
<text font-family="Songti SC" font-size="2.7" text-anchor="start" fill="currentColor">甘</text></g>
<g transform="translate(60.5892,62.1233)">
<text font-family="Songti SC" font-size="2.7" text-anchor="start" fill="currentColor">美</text></g>
<g transform="translate(70.1569,62.1233)">
<text font-family="Songti SC" font-size="2.7" text-anchor="start" fill="currentColor">你</text></g>
<g transform="translate(80.7139,62.1233)">
<text font-family="Songti SC" font-size="2.7" text-anchor="start" fill="currentColor">是</text></g>
<g transform="translate(89.2939,62.1233)">
<text font-family="Songti SC" font-size="2.7" text-anchor="start" fill="currentColor">爱</text></g>
<g transform="translate(97.624,62.1233)">
<text font-family="Songti SC" font-size="2.7" text-anchor="start" fill="currentColor">的</text></g>
<g transform="translate(106.7913,62.1233)">
<text font-family="Songti SC" font-size="2.7" text-anchor="start" fill="currentColor">泉</text></g>
<g transform="translate(116.7943,62.1233)">
<text font-family="Songti SC" font-size="2.7" text-anchor="start" fill="currentColor">源</text></g>
<g transform="translate(137.8973,62.1233)">
<text font-family="Songti SC" font-size="2.7" text-anchor="start" fill="currentColor">让</text></g>
<g transform="translate(16.3465,84.36619999999999)">
<text font-family="Songti SC" font-size="2.7" text-anchor="start" fill="currentColor">我</text></g>
<g transform="translate(26.706,84.36619999999999)">
<text font-family="Songti SC" font-size="2.7" text-anchor="start" fill="currentColor">白</text></g>
<g transform="translate(31.5113,84.36619999999999)">
<text font-family="Songti SC" font-size="2.7" text-anchor="start" fill="currentColor">白</text></g>
<g transform="translate(40.4082,84.36619999999999)">
<text font-family="Songti SC" font-size="2.7" text-anchor="start" fill="currentColor">来</text></g>
<g transform="translate(51.3276,84.36619999999999)">
<text font-family="Songti SC" font-size="2.7" text-anchor="start" fill="currentColor">畅</text></g>
<g transform="translate(61.6954,84.36619999999999)">
<text font-family="Songti SC" font-size="2.7" text-anchor="start" fill="currentColor">饮</text></g>
<g transform="translate(71.2427,84.36619999999999)">
<text font-family="Songti SC" font-size="2.7" text-anchor="start" fill="currentColor">消</text></g>
<g transform="translate(81.752,84.36619999999999)">
<text font-family="Songti SC" font-size="2.7" text-anchor="start" fill="currentColor">除</text></g>
<g transform="translate(92.1115,84.36619999999999)">
<text font-family="Songti SC" font-size="2.7" text-anchor="start" fill="currentColor">我</text></g>
<g transform="translate(96.9697,84.36619999999999)">
<text font-family="Songti SC" font-size="2.7" text-anchor="start" fill="currentColor">的</text></g>
<g transform="translate(105.8666,84.36619999999999)">
<text font-family="Songti SC" font-size="2.7" text-anchor="start" fill="currentColor">干</text></g>
<g transform="translate(115.9455,84.36619999999999)">
<text font-family="Songti SC" font-size="2.7" text-anchor="start" fill="currentColor">渴</text></g>
<g transform="translate(137.5848,84.36619999999999)">
<text font-family="Songti SC" font-size="2.7" text-anchor="start" fill="currentColor">你</text></g>
<g transform="translate(16.3465,107.0047)">
<text font-family="Songti SC" font-size="2.7" text-anchor="start" fill="currentColor">外</text></g>
<g transform="translate(26.2417,107.0047)">
<text font-family="Songti SC" font-size="2.7" text-anchor="start" fill="currentColor">别</text></g>
<g transform="translate(30.9641,107.0047)">
<text font-family="Songti SC" font-size="2.7" text-anchor="start" fill="currentColor">水</text></g>
<g transform="translate(39.1079,107.0047)">
<text font-family="Songti SC" font-size="2.7" text-anchor="start" fill="currentColor">不</text></g>
<g transform="translate(49.4495,107.0047)">
<text font-family="Songti SC" font-size="2.7" text-anchor="start" fill="currentColor">再</text></g>
<g transform="translate(59.5686,107.0047)">
<text font-family="Songti SC" font-size="2.7" text-anchor="start" fill="currentColor">寻</text></g>
<g transform="translate(68.9501,107.0047)">
<text font-family="Songti SC" font-size="2.7" text-anchor="start" fill="currentColor">永</text></g>
<g transform="translate(79.286,107.0047)">
<text font-family="Songti SC" font-size="2.7" text-anchor="start" fill="currentColor">远</text></g>
<g transform="translate(87.6798,107.0047)">
<text font-family="Songti SC" font-size="2.7" text-anchor="start" fill="currentColor">将</text></g>
<g transform="translate(95.8236,107.0047)">
<text font-family="Songti SC" font-size="2.7" text-anchor="start" fill="currentColor">你</text></g>
<g transform="translate(104.8047,107.0047)">
<text font-family="Songti SC" font-size="2.7" text-anchor="start" fill="currentColor">来</text></g>
<g transform="translate(114.5865,107.0047)">
<text font-family="Songti SC" font-size="2.7" text-anchor="start" fill="currentColor">喝</text></g>
<g transform="translate(16.1856,43.5613)">
<text font-family="Songti SC" font-weight="bold" font-size="2.7" text-anchor="start" fill="currentColor">3.</text></g>
<g transform="translate(18.6794,43.5613)">
<text font-family="Songti SC" font-size="2.7" text-anchor="start" fill="currentColor">吃</text></g>
<g transform="translate(28.3043,43.5613)">
<text font-family="Songti SC" font-size="2.7" text-anchor="start" fill="currentColor">你</text></g>
<g transform="translate(37.7013,43.5613)">
<text font-family="Songti SC" font-size="2.7" text-anchor="start" fill="currentColor">喝</text></g>
<g transform="translate(42.1871,43.5613)">
<text font-family="Songti SC" font-size="2.7" text-anchor="start" fill="currentColor">你</text></g>
<g transform="translate(50.0021,43.5613)">
<text font-family="Songti SC" font-size="2.7" text-anchor="start" fill="currentColor">享</text></g>
<g transform="translate(59.6563,43.5613)">
<text font-family="Songti SC" font-size="2.7" text-anchor="start" fill="currentColor">受</text></g>
<g transform="translate(69.157,43.5613)">
<text font-family="Songti SC" font-size="2.7" text-anchor="start" fill="currentColor">你</text></g>
<g transform="translate(77.9597,43.5613)">
<text font-family="Songti SC" font-size="2.7" text-anchor="start" fill="currentColor">我</text></g>
<g transform="translate(87.6081,43.5613)">
<text font-family="Songti SC" font-size="2.7" text-anchor="start" fill="currentColor">们</text></g>
<g transform="translate(95.173,43.5613)">
<text font-family="Songti SC" font-size="2.7" text-anchor="start" fill="currentColor">敬</text></g>
<g transform="translate(102.9032,43.5613)">
<text font-family="Songti SC" font-size="2.7" text-anchor="start" fill="currentColor">拜</text></g>
<g transform="translate(110.4681,43.5613)">
<text font-family="Songti SC" font-size="2.7" text-anchor="start" fill="currentColor">感</text></g>
<g transform="translate(118.552,43.5613)">
<text font-family="Songti SC" font-size="2.7" text-anchor="start" fill="currentColor">戴</text></g>
<g transform="translate(138.3295,43.5613)">
<text font-family="Songti SC" font-size="2.7" text-anchor="start" fill="currentColor">在</text></g>
<g transform="translate(16.3465,66.1233)">
<text font-family="Songti SC" font-size="2.7" text-anchor="start" fill="currentColor">你</text></g>
<g transform="translate(26.4824,66.1233)">
<text font-family="Songti SC" font-size="2.7" text-anchor="start" fill="currentColor">话</text></g>
<g transform="translate(31.2979,66.1233)">
<text font-family="Songti SC" font-size="2.7" text-anchor="start" fill="currentColor">并</text></g>
<g transform="translate(39.6279,66.1233)">
<text font-family="Songti SC" font-size="2.7" text-anchor="start" fill="currentColor">你</text></g>
<g transform="translate(50.1907,66.1233)">
<text font-family="Songti SC" font-size="2.7" text-anchor="start" fill="currentColor">灵</text></g>
<g transform="translate(60.5892,66.1233)">
<text font-family="Songti SC" font-size="2.7" text-anchor="start" fill="currentColor">里</text></g>
<g transform="translate(70.1569,66.1233)">
<text font-family="Songti SC" font-size="2.7" text-anchor="start" fill="currentColor">饱</text></g>
<g transform="translate(80.7139,66.1233)">
<text font-family="Songti SC" font-size="2.7" text-anchor="start" fill="currentColor">尝</text></g>
<g transform="translate(89.2939,66.1233)">
<text font-family="Songti SC" font-size="2.7" text-anchor="start" fill="currentColor">你</text></g>
<g transform="translate(97.624,66.1233)">
<text font-family="Songti SC" font-size="2.7" text-anchor="start" fill="currentColor">的</text></g>
<g transform="translate(106.7913,66.1233)">
<text font-family="Songti SC" font-size="2.7" text-anchor="start" fill="currentColor">大</text></g>
<g transform="translate(116.7943,66.1233)">
<text font-family="Songti SC" font-size="2.7" text-anchor="start" fill="currentColor">爱</text></g>
<g transform="translate(137.8973,66.1233)">
<text font-family="Songti SC" font-size="2.7" text-anchor="start" fill="currentColor">使</text></g>
<g transform="translate(16.3465,88.36619999999999)">
<text font-family="Songti SC" font-size="2.7" text-anchor="start" fill="currentColor">我</text></g>
<g transform="translate(26.706,88.36619999999999)">
<text font-family="Songti SC" font-size="2.7" text-anchor="start" fill="currentColor">从</text></g>
<g transform="translate(31.5113,88.36619999999999)">
<text font-family="Songti SC" font-size="2.7" text-anchor="start" fill="currentColor">你</text></g>
<g transform="translate(40.4082,88.36619999999999)">
<text font-family="Songti SC" font-size="2.7" text-anchor="start" fill="currentColor">得</text></g>
<g transform="translate(51.3276,88.36619999999999)">
<text font-family="Songti SC" font-size="2.7" text-anchor="start" fill="currentColor">餧</text></g>
<g transform="translate(61.6954,88.36619999999999)">
<text font-family="Songti SC" font-size="2.7" text-anchor="start" fill="currentColor">养</text></g>
<g transform="translate(71.2427,88.36619999999999)">
<text font-family="Songti SC" font-size="2.7" text-anchor="start" fill="currentColor">凭</text></g>
<g transform="translate(81.752,88.36619999999999)">
<text font-family="Songti SC" font-size="2.7" text-anchor="start" fill="currentColor">你</text></g>
<g transform="translate(92.1115,88.36619999999999)">
<text font-family="Songti SC" font-size="2.7" text-anchor="start" fill="currentColor">活</text></g>
<g transform="translate(96.9697,88.36619999999999)">
<text font-family="Songti SC" font-size="2.7" text-anchor="start" fill="currentColor">在</text></g>
<g transform="translate(105.8666,88.36619999999999)">
<text font-family="Songti SC" font-size="2.7" text-anchor="start" fill="currentColor">地</text></g>
<g transform="translate(115.9455,88.36619999999999)">
<text font-family="Songti SC" font-size="2.7" text-anchor="start" fill="currentColor">上</text></g>
<g transform="translate(137.5848,88.36619999999999)">
<text font-family="Songti SC" font-size="2.7" text-anchor="start" fill="currentColor">满</text></g>
<g transform="translate(16.3465,111.0047)">
<text font-family="Songti SC" font-size="2.7" text-anchor="start" fill="currentColor">有</text></g>
<g transform="translate(26.2417,111.0047)">
<text font-family="Songti SC" font-size="2.7" text-anchor="start" fill="currentColor">长</text></g>
<g transform="translate(30.9641,111.0047)">
<text font-family="Songti SC" font-size="2.7" text-anchor="start" fill="currentColor">成</text></g>
<g transform="translate(39.1079,111.0047)">
<text font-family="Songti SC" font-size="2.7" text-anchor="start" fill="currentColor">的</text></g>
<g transform="translate(49.4495,111.0047)">
<text font-family="Songti SC" font-size="2.7" text-anchor="start" fill="currentColor">身</text></g>
<g transform="translate(59.5686,111.0047)">
<text font-family="Songti SC" font-size="2.7" text-anchor="start" fill="currentColor">量</text></g>
<g transform="translate(68.9501,111.0047)">
<text font-family="Songti SC" font-size="2.7" text-anchor="start" fill="currentColor">叫</text></g>
<g transform="translate(79.286,111.0047)">
<text font-family="Songti SC" font-size="2.7" text-anchor="start" fill="currentColor">你</text></g>
<g transform="translate(87.6798,111.0047)">
<text font-family="Songti SC" font-size="2.7" text-anchor="start" fill="currentColor">得</text></g>
<g transform="translate(95.8236,111.0047)">
<text font-family="Songti SC" font-size="2.7" text-anchor="start" fill="currentColor">着</text></g>
<g transform="translate(104.8047,111.0047)">
<text font-family="Songti SC" font-size="2.7" text-anchor="start" fill="currentColor">显</text></g>
<g transform="translate(114.5865,111.0047)">
<text font-family="Songti SC" font-size="2.7" text-anchor="start" fill="currentColor">彰</text></g>
</svg>