<?xml version='1.0' encoding='UTF-8'?>
<svg xmlns="http://www.w3.org/2000/svg" xmlns:xlink="http://www.w3.org/1999/xlink" version="1.2" width="215.90mm" height="279.40mm" viewBox="0.0000 -0.0000 153.5737 198.7425">
<style type="text/css">

tspan { white-space: pre; }

</style>
<g transform="translate(65.6796, 9.7784)">
<text font-family="Songti SC" font-weight="bold" font-size="3.1113" text-anchor="start" fill="currentColor">
<tspan>与你合一永远之子</tspan>
</text>
</g>
<g transform="translate(65.9357, 13.2784)">
<text font-family="Songti SC" font-weight="bold" font-size="2.2001" text-anchor="start" fill="currentColor">
<tspan>与基督的联合－与祂合一</tspan>
</text>
</g>
<g transform="translate(135.2146, 17.7949)">
<text font-family="Songti SC" font-size="5.8741" text-anchor="start" fill="currentColor">
<tspan>C356</tspan>
</text>
</g>
<g transform="translate(9.0337, 19.7370)">
<text font-family="Songti SC" font-weight="bold" font-style="italic" font-size="2.2001" text-anchor="start" fill="currentColor">
<tspan>(吉他: Capo 1)</tspan>
</text>
</g>
<g transform="translate(51.5657, 29.2982)">
<rect x="0.0000" y="-2.0000" width="0.2212" height="4.0000" ry="0.0000" fill="currentColor"/>
</g>
<g transform="translate(9.0337, 31.2982)">
<line stroke-linejoin="round" stroke-linecap="round" stroke-width="0.1164" stroke="currentColor" x1="0.0582" y1="0" x2="138.1582" y2="0"/>
</g>
<g transform="translate(9.0337, 30.2982)">
<line stroke-linejoin="round" stroke-linecap="round" stroke-width="0.1164" stroke="currentColor" x1="0.0582" y1="0" x2="138.1582" y2="0"/>
</g>
<g transform="translate(9.0337, 29.2982)">
<line stroke-linejoin="round" stroke-linecap="round" stroke-width="0.1164" stroke="currentColor" x1="0.0582" y1="0" x2="138.1582" y2="0"/>
</g>
<g transform="translate(9.0337, 28.2982)">
<line stroke-linejoin="round" stroke-linecap="round" stroke-width="0.1164" stroke="currentColor" x1="0.0582" y1="0" x2="138.1582" y2="0"/>
</g>
<g transform="translate(9.0337, 27.2982)">
<line stroke-linejoin="round" stroke-linecap="round" stroke-width="0.1164" stroke="currentColor" x1="0.0582" y1="0" x2="138.1582" y2="0"/>
</g>
<g transform="translate(147.0289, 29.2982)">
<rect x="0.0000" y="-2.0000" width="0.2212" height="4.0000" ry="0.0000" fill="currentColor"/>
</g>
<g transform="translate(115.7119, 29.2982)">
<rect x="0.0000" y="-2.0000" width="0.2212" height="4.0000" ry="0.0000" fill="currentColor"/>
</g>
<g transform="translate(84.4520, 29.2982)">
<rect x="0.0000" y="-2.0000" width="0.2212" height="4.0000" ry="0.0000" fill="currentColor"/>
</g>
<g transform="translate(88.1671, 28.7982)">
<path transform="scale(0.0040, -0.0040)" d="M0 0c0 30 25 55 55 55s55 -25 55 -55s-25 -55 -55 -55s-55 25 -55 55z" fill="currentColor"/>
</g>
<g transform="translate(131.7882, 29.2982)">
<path stroke-width="0.0931" stroke-linejoin="round" stroke-linecap="round" stroke="currentColor" fill="currentColor" d="M0.6701 -1.5626C2.2604 -2.8550 6.8861 -2.6444 8.3558 -1.2126L8.3558 -1.2126C6.8798 -2.5048 2.2541 -2.7155 0.6701 -1.5626z"/>
</g>
<g transform="translate(21.9288, 25.7884)">
<text font-family="Hiragino Sans GB" font-size="1.9604" text-anchor="start" fill="currentColor">
<tspan>G</tspan>
</text>
</g>
<g transform="translate(21.9288, 29.7982)">
<path transform="scale(0.0040, -0.0040)" d="M212 138c68 0 113 -38 113 -95c0 -90 -109 -181 -212 -181c-68 0 -113 38 -113 95c0 90 109 181 212 181z" fill="currentColor"/>
</g>
<g transform="translate(9.8338, 30.2982)">
<path transform="scale(0.0040, -0.0040)" d="M647 2c0 -114 -75 -214 -180 -248c3 -33 4 -66 4 -99c0 -21 0 -41 -1 -62c-7 -122 -92 -229 -211 -229c-108 0 -196 88 -196 197c0 58 54 103 113 103c54 0 95 -47 95 -103c0 -52 -43 -95 -95 -95c-9 0 -18 1 -27 4c25 -37 66 -61 113 -61c93 0 156 91 162 191 c1 19 2 38 2 57c0 29 -1 58 -3 87c-5 -1 -44 -8 -88 -8c-194 0 -333 181 -333 376c0 177 129 308 244 443c-34 103 -55 171 -55 347c0 114 54 221 147 288c8 6 18 5 25 -1c68 -79 135 -242 135 -356c0 -142 -84 -255 -176 -364c21 -68 40 -136 57 -205c1 0 5 1 10 1 c157 0 258 -129 258 -263zM463 -201c64 24 110 88 110 161c0 88 -64 175 -167 188c28 -133 49 -269 57 -349zM77 25c0 -144 141 -243 261 -243c1 0 46 -1 81 5c-7 66 -27 208 -60 362c-79 -8 -124 -60 -124 -118c0 -43 25 -88 80 -120c5 -5 7 -11 7 -17 c0 -12 -10 -23 -23 -23c-16 0 -128 62 -128 188c0 89 60 177 163 200c-14 57 -30 113 -47 169c-105 -122 -210 -243 -210 -403zM242 784c0 -39 10 -95 39 -188c78 97 142 199 142 324c0 33 0 60 -20 118c-99 -46 -161 -145 -161 -254z" fill="currentColor"/>
</g>
<g transform="translate(13.4743, 29.2982)">
<path transform="scale(0.0040, -0.0040)" d="M31 37l-2 -62v-11c0 -22 2 -43 5 -64c43 38 89 80 89 137c0 32 -14 65 -42 65c-31 0 -49 -32 -50 -65zM-30 450c9 5 20 8 30 8s21 -3 30 -8l-8 -340c25 24 59 38 94 38c50 0 84 -50 84 -104c0 -78 -83 -117 -141 -169c-17 -15 -25 -44 -49 -44c-15 0 -26 13 -26 29z" fill="currentColor"/>
</g>
<g transform="translate(14.4148, 27.7982)">
<path transform="scale(0.0040, -0.0040)" d="M31 37l-2 -62v-11c0 -22 2 -43 5 -64c43 38 89 80 89 137c0 32 -14 65 -42 65c-31 0 -49 -32 -50 -65zM-30 450c9 5 20 8 30 8s21 -3 30 -8l-8 -340c25 24 59 38 94 38c50 0 84 -50 84 -104c0 -78 -83 -117 -141 -169c-17 -15 -25 -44 -49 -44c-15 0 -26 13 -26 29z" fill="currentColor"/>
</g>
<g transform="translate(15.3553, 29.7982)">
<path transform="scale(0.0040, -0.0040)" d="M31 37l-2 -62v-11c0 -22 2 -43 5 -64c43 38 89 80 89 137c0 32 -14 65 -42 65c-31 0 -49 -32 -50 -65zM-30 450c9 5 20 8 30 8s21 -3 30 -8l-8 -340c25 24 59 38 94 38c50 0 84 -50 84 -104c0 -78 -83 -117 -141 -169c-17 -15 -25 -44 -49 -44c-15 0 -26 13 -26 29z" fill="currentColor"/>
</g>
<g transform="translate(16.2959, 28.2982)">
<path transform="scale(0.0040, -0.0040)" d="M31 37l-2 -62v-11c0 -22 2 -43 5 -64c43 38 89 80 89 137c0 32 -14 65 -42 65c-31 0 -49 -32 -50 -65zM-30 450c9 5 20 8 30 8s21 -3 30 -8l-8 -340c25 24 59 38 94 38c50 0 84 -50 84 -104c0 -78 -83 -117 -141 -169c-17 -15 -25 -44 -49 -44c-15 0 -26 13 -26 29z" fill="currentColor"/>
</g>
<g transform="translate(18.2459, 29.2982)">
<path transform="scale(0.0040, -0.0040)" d="M250 265c114 0 172 -112 172 -166c0 -38 -30 -69 -66 -69c-30 0 -72 23 -72 72c0 37 26 75 70 75c3 0 6 -1 9 -1c-26 36 -67 59 -113 59c-107 0 -113 -74 -113 -189c0 -15 1 -30 1 -46s-1 -31 -1 -46c0 -115 6 -189 113 -189c78 0 133 70 151 149c2 8 8 11 14 11 c7 0 15 -5 15 -14c0 -21 -49 -176 -180 -176c-145 0 -250 88 -250 265c0 63 18 265 250 265z" fill="currentColor"/>
</g>
<g transform="translate(21.3415,35.5722)">
<text font-family="Songti SC" font-size="2.7" text-anchor="start" fill="currentColor">
<tspan font-size="2.7">与</tspan>
</text>
</g>
<g transform="translate(18.8477,35.5722)">
<text font-family="Songti SC" font-weight="bold" font-size="2.7" text-anchor="start" fill="currentColor">
<tspan font-size="2.7">1.</tspan>
</text>
</g>
<g transform="translate(23.6711, 29.7982)">
<path transform="scale(0.0040, -0.0040)" d="M0 0c0 30 25 55 55 55s55 -25 55 -55s-25 -55 -55 -55s-55 25 -55 55z" fill="currentColor"/>
</g>
<g transform="translate(23.1539, 29.2982)">
<rect x="-0.0757" y="-3.0000" width="0.1514" height="3.3287" ry="0.0500" fill="currentColor"/>
</g>
<g transform="translate(31.4819, 29.7982)">
<path transform="scale(0.0040, -0.0040)" d="M212 138c68 0 113 -38 113 -95c0 -90 -109 -181 -212 -181c-68 0 -113 38 -113 95c0 90 109 181 212 181z" fill="currentColor"/>
</g>
<g transform="translate(30.8946,35.5722)">
<text font-family="Songti SC" font-size="2.7" text-anchor="start" fill="currentColor">
<tspan font-size="2.7">你</tspan>
</text>
</g>
<g transform="translate(32.7070, 29.2982)">
<rect x="-0.0757" y="-3.0000" width="0.1514" height="3.3287" ry="0.0500" fill="currentColor"/>
</g>
<g transform="translate(32.7827, 26.3482)">
<path transform="scale(0.0040, -0.0040)" d="M0 -250h-19v250h19c0 -197 207 -334 207 -531c0 -71 -15 -140 -41 -206c-5 -9 -14 -13 -22 -13c-14 0 -29 12 -26 30c26 60 43 124 43 189c0 102 -92 206 -161 281z" fill="currentColor"/>
</g>
<g transform="translate(36.0280, 29.7982)">
<path transform="scale(0.0040, -0.0040)" d="M212 138c68 0 113 -38 113 -95c0 -90 -109 -181 -212 -181c-68 0 -113 38 -113 95c0 90 109 181 212 181z" fill="currentColor"/>
</g>
<g transform="translate(35.4408,35.5722)">
<text font-family="Songti SC" font-size="2.7" text-anchor="start" fill="currentColor">
<tspan font-size="2.7">合</tspan>
</text>
</g>
<g transform="translate(37.2532, 29.2982)">
<rect x="-0.0757" y="-3.0000" width="0.1514" height="3.3287" ry="0.0500" fill="currentColor"/>
</g>
<g transform="translate(43.7137, 29.7982)">
<path transform="scale(0.0040, -0.0040)" d="M212 138c68 0 113 -38 113 -95c0 -90 -109 -181 -212 -181c-68 0 -113 38 -113 95c0 90 109 181 212 181z" fill="currentColor"/>
</g>
<g transform="translate(41.8887,35.5722)">
<text font-family="Songti SC" font-size="2.7" text-anchor="start" fill="currentColor">
<tspan font-size="2.7">一，</tspan>
</text>
</g>
<g transform="translate(44.9389, 29.2982)">
<rect x="-0.0757" y="-3.0000" width="0.1514" height="3.3287" ry="0.0500" fill="currentColor"/>
</g>
<g transform="translate(53.5671, 28.7982)">
<path transform="scale(0.0040, -0.0040)" d="M212 138c68 0 113 -38 113 -95c0 -90 -109 -181 -212 -181c-68 0 -113 38 -113 95c0 90 109 181 212 181z" fill="currentColor"/>
</g>
<g transform="translate(52.9798,35.5722)">
<text font-family="Songti SC" font-size="2.7" text-anchor="start" fill="currentColor">
<tspan font-size="2.7">永</tspan>
</text>
</g>
<g transform="translate(55.3094, 28.7982)">
<path transform="scale(0.0040, -0.0040)" d="M0 0c0 30 25 55 55 55s55 -25 55 -55s-25 -55 -55 -55s-55 25 -55 55z" fill="currentColor"/>
</g>
<g transform="translate(53.6428, 29.2982)">
<rect x="-0.0757" y="-0.3287" width="0.1514" height="3.3287" ry="0.0500" fill="currentColor"/>
</g>
<g transform="translate(63.1202, 29.2982)">
<path transform="scale(0.0040, -0.0040)" d="M212 138c68 0 113 -38 113 -95c0 -90 -109 -181 -212 -181c-68 0 -113 38 -113 95c0 90 109 181 212 181z" fill="currentColor"/>
</g>
<g transform="translate(62.5329,35.5722)">
<text font-family="Songti SC" font-size="2.7" text-anchor="start" fill="currentColor">
<tspan font-size="2.7">远</tspan>
</text>
</g>
<g transform="translate(63.1959, 29.2982)">
<rect x="-0.0757" y="0.1713" width="0.1514" height="3.2037" ry="0.0500" fill="currentColor"/>
</g>
<g transform="translate(63.2716, 32.6232)">
<path transform="scale(0.0040, -0.0040)" d="M0 0h-19v250h19v-250zM0 0v250c95 59 220 149 220 259c0 56 -16 111 -41 161c-3 18 12 30 26 30c8 0 17 -4 22 -13c25 -56 40 -116 40 -178c0 -203 -267 -306 -267 -509z" fill="currentColor"/>
</g>
<g transform="translate(67.6135, 29.2982)">
<path transform="scale(0.0040, -0.0040)" d="M212 138c68 0 113 -38 113 -95c0 -90 -109 -181 -212 -181c-68 0 -113 38 -113 95c0 90 109 181 212 181z" fill="currentColor"/>
</g>
<g transform="translate(67.6135,35.5722)">
<text font-family="Songti SC" font-size="2.7" text-anchor="start" fill="currentColor">
<tspan font-size="2.7">之</tspan>
</text>
</g>
<g transform="translate(68.8386, 29.2982)">
<rect x="-0.0757" y="-3.1759" width="0.1514" height="3.0045" ry="0.0500" fill="currentColor"/>
</g>
<g transform="translate(67.6135, 29.2982)">
<path stroke-width="0.0931" stroke-linejoin="round" stroke-linecap="round" stroke="currentColor" fill="currentColor" d="M0.6167 1.2786C1.6027 2.6365 3.9699 2.8209 5.1100 1.6286L5.1100 1.6286C3.9807 2.6816 1.6136 2.4972 0.6167 1.2786z"/>
</g>
<g transform="translate(72.1067, 29.7982)">
<path transform="scale(0.0040, -0.0040)" d="M212 138c68 0 113 -38 113 -95c0 -90 -109 -181 -212 -181c-68 0 -113 38 -113 95c0 90 109 181 212 181z" fill="currentColor"/>
</g>
<g transform="translate(73.3319, 29.2982)">
<rect x="-0.0757" y="-2.8241" width="0.1514" height="3.1528" ry="0.0500" fill="currentColor"/>
</g>
<g transform="translate(68.7629, 26.1164)">
<polygon stroke-linejoin="round" stroke-linecap="round" stroke-width="0.1000" fill="currentColor" stroke="currentColor" points="4.5946 0.1736 4.5946 0.5536 0.0500 0.1900 0.0500 -0.1900"/>
</g>
<g transform="translate(76.6000, 29.7982)">
<path transform="scale(0.0040, -0.0040)" d="M212 138c68 0 113 -38 113 -95c0 -90 -109 -181 -212 -181c-68 0 -113 38 -113 95c0 90 109 181 212 181z" fill="currentColor"/>
</g>
<g transform="translate(74.775,35.5722)">
<text font-family="Songti SC" font-size="2.7" text-anchor="start" fill="currentColor">
<tspan font-size="2.7">子，</tspan>
</text>
</g>
<g transform="translate(77.8251, 29.2982)">
<rect x="-0.0757" y="-3.0000" width="0.1514" height="3.3287" ry="0.0500" fill="currentColor"/>
</g>
<g transform="translate(86.4248, 25.7884)">
<text font-family="Hiragino Sans GB" font-size="1.9604" text-anchor="start" fill="currentColor">
<tspan>D</tspan>
</text>
</g>
<g transform="translate(86.4248, 29.2982)">
<path transform="scale(0.0040, -0.0040)" d="M212 138c68 0 113 -38 113 -95c0 -90 -109 -181 -212 -181c-68 0 -113 38 -113 95c0 90 109 181 212 181z" fill="currentColor"/>
</g>
<g transform="translate(85.8375,35.5722)">
<text font-family="Songti SC" font-size="2.7" text-anchor="start" fill="currentColor">
<tspan font-size="2.7">因</tspan>
</text>
</g>
<g transform="translate(86.5005, 29.2982)">
<rect x="-0.0757" y="0.1713" width="0.1514" height="3.1620" ry="0.0500" fill="currentColor"/>
</g>
<g transform="translate(95.9779, 29.2982)">
<path transform="scale(0.0040, -0.0040)" d="M212 138c68 0 113 -38 113 -95c0 -90 -109 -181 -212 -181c-68 0 -113 38 -113 95c0 90 109 181 212 181z" fill="currentColor"/>
</g>
<g transform="translate(95.3906,35.5722)">
<text font-family="Songti SC" font-size="2.7" text-anchor="start" fill="currentColor">
<tspan font-size="2.7">信</tspan>
</text>
</g>
<g transform="translate(96.0536, 29.2982)">
<rect x="-0.0757" y="0.1713" width="0.1514" height="3.2037" ry="0.0500" fill="currentColor"/>
</g>
<g transform="translate(96.1293, 32.6232)">
<path transform="scale(0.0040, -0.0040)" d="M0 0h-19v250h19v-250zM0 0v250c95 59 220 149 220 259c0 56 -16 111 -41 161c-3 18 12 30 26 30c8 0 17 -4 22 -13c25 -56 40 -116 40 -178c0 -203 -267 -306 -267 -509z" fill="currentColor"/>
</g>
<g transform="translate(100.4712, 29.2982)">
<path transform="scale(0.0040, -0.0040)" d="M212 138c68 0 113 -38 113 -95c0 -90 -109 -181 -212 -181c-68 0 -113 38 -113 95c0 90 109 181 212 181z" fill="currentColor"/>
</g>
<g transform="translate(99.8839,35.5722)">
<text font-family="Songti SC" font-size="2.7" text-anchor="start" fill="currentColor">
<tspan font-size="2.7">与</tspan>
</text>
</g>
<g transform="translate(100.5468, 29.2982)">
<rect x="-0.0757" y="0.1713" width="0.1514" height="3.1620" ry="0.0500" fill="currentColor"/>
</g>
<g transform="translate(108.1568, 29.2982)">
<path transform="scale(0.0040, -0.0040)" d="M212 138c68 0 113 -38 113 -95c0 -90 -109 -181 -212 -181c-68 0 -113 38 -113 95c0 90 109 181 212 181z" fill="currentColor"/>
</g>
<g transform="translate(107.5695,35.5722)">
<text font-family="Songti SC" font-size="2.7" text-anchor="start" fill="currentColor">
<tspan font-size="2.7">你</tspan>
</text>
</g>
<g transform="translate(108.2325, 29.2982)">
<rect x="-0.0757" y="0.1713" width="0.1514" height="3.1620" ry="0.0500" fill="currentColor"/>
</g>
<g transform="translate(117.7419, 25.7884)">
<text font-family="Hiragino Sans GB" font-size="1.9604" text-anchor="start" fill="currentColor">
<tspan>D</tspan>
</text>
</g>
<g transform="translate(119.2356, 24.8975)">
<text font-family="Hiragino Sans GB" font-size="1.3856" text-anchor="start" fill="currentColor">
<tspan>7</tspan>
</text>
</g>
<g transform="translate(117.7419, 28.2982)">
<path transform="scale(0.0040, -0.0040)" d="M212 138c68 0 113 -38 113 -95c0 -90 -109 -181 -212 -181c-68 0 -113 38 -113 95c0 90 109 181 212 181z" fill="currentColor"/>
</g>
<g transform="translate(117.1546,35.5722)">
<text font-family="Songti SC" font-size="2.7" text-anchor="start" fill="currentColor">
<tspan font-size="2.7">成</tspan>
</text>
</g>
<g transform="translate(119.4842, 27.7982)">
<path transform="scale(0.0040, -0.0040)" d="M0 0c0 30 25 55 55 55s55 -25 55 -55s-25 -55 -55 -55s-55 25 -55 55z" fill="currentColor"/>
</g>
<g transform="translate(117.8175, 29.2982)">
<rect x="-0.0757" y="-0.8287" width="0.1514" height="3.3287" ry="0.0500" fill="currentColor"/>
</g>
<g transform="translate(127.2950, 28.7982)">
<path transform="scale(0.0040, -0.0040)" d="M212 138c68 0 113 -38 113 -95c0 -90 -109 -181 -212 -181c-68 0 -113 38 -113 95c0 90 109 181 212 181z" fill="currentColor"/>
</g>
<g transform="translate(126.7077,35.5722)">
<text font-family="Songti SC" font-size="2.7" text-anchor="start" fill="currentColor">
<tspan font-size="2.7">一</tspan>
</text>
</g>
<g transform="translate(127.3706, 29.2982)">
<rect x="-0.0757" y="-0.3287" width="0.1514" height="3.3287" ry="0.0500" fill="currentColor"/>
</g>
<g transform="translate(127.4463, 32.2482)">
<path transform="scale(0.0040, -0.0040)" d="M0 0h-19v250h19v-250zM0 0v250c95 59 220 149 220 259c0 56 -16 111 -41 161c-3 18 12 30 26 30c8 0 17 -4 22 -13c25 -56 40 -116 40 -178c0 -203 -267 -306 -267 -509z" fill="currentColor"/>
</g>
<g transform="translate(131.7882, 28.7982)">
<path transform="scale(0.0040, -0.0040)" d="M212 138c68 0 113 -38 113 -95c0 -90 -109 -181 -212 -181c-68 0 -113 38 -113 95c0 90 109 181 212 181z" fill="currentColor"/>
</g>
<g transform="translate(131.7882,35.5722)">
<text font-family="Songti SC" font-size="2.7" text-anchor="start" fill="currentColor">
<tspan font-size="2.7">灵，</tspan>
</text>
</g>
<g transform="translate(131.8639, 29.2982)">
<rect x="-0.0757" y="-0.3287" width="0.1514" height="3.3287" ry="0.0500" fill="currentColor"/>
</g>
<g transform="translate(139.4739, 29.2982)">
<path transform="scale(0.0040, -0.0040)" d="M212 138c68 0 113 -38 113 -95c0 -90 -109 -181 -212 -181c-68 0 -113 38 -113 95c0 90 109 181 212 181z" fill="currentColor"/>
</g>
<g transform="translate(139.5496, 29.2982)">
<rect x="-0.0757" y="0.1713" width="0.1514" height="3.1620" ry="0.0500" fill="currentColor"/>
</g>
<g transform="translate(49.5022,55.65)">
<rect x="0.0000" y="-2.0000" width="0.2212" height="4.0000" ry="0.0000" fill="currentColor"/>
</g>
<g transform="translate(9.0337,57.65)">
<line stroke-linejoin="round" stroke-linecap="round" stroke-width="0.1164" stroke="currentColor" x1="0.0582" y1="0" x2="138.1582" y2="0"/>
</g>
<g transform="translate(9.0337,56.65)">
<line stroke-linejoin="round" stroke-linecap="round" stroke-width="0.1164" stroke="currentColor" x1="0.0582" y1="0" x2="138.1582" y2="0"/>
</g>
<g transform="translate(9.0337,55.65)">
<line stroke-linejoin="round" stroke-linecap="round" stroke-width="0.1164" stroke="currentColor" x1="0.0582" y1="0" x2="138.1582" y2="0"/>
</g>
<g transform="translate(9.0337,54.65)">
<line stroke-linejoin="round" stroke-linecap="round" stroke-width="0.1164" stroke="currentColor" x1="0.0582" y1="0" x2="138.1582" y2="0"/>
</g>
<g transform="translate(9.0337,53.65)">
<line stroke-linejoin="round" stroke-linecap="round" stroke-width="0.1164" stroke="currentColor" x1="0.0582" y1="0" x2="138.1582" y2="0"/>
</g>
<g transform="translate(147.0289,55.65)">
<rect x="0.0000" y="-2.0000" width="0.2212" height="4.0000" ry="0.0000" fill="currentColor"/>
</g>
<g transform="translate(118.4052,55.65)">
<rect x="0.0000" y="-2.0000" width="0.2212" height="4.0000" ry="0.0000" fill="currentColor"/>
</g>
<g transform="translate(82.6712,55.65)">
<rect x="0.0000" y="-2.0000" width="0.2212" height="4.0000" ry="0.0000" fill="currentColor"/>
</g>
<g transform="translate(84.733,55.65)">
<rect x="-0.0757" y="0.1713" width="0.1514" height="3.1620" ry="0.0500" fill="currentColor"/>
</g>
<g transform="translate(9.8338,56.65)">
<path transform="scale(0.0040, -0.0040)" d="M647 2c0 -114 -75 -214 -180 -248c3 -33 4 -66 4 -99c0 -21 0 -41 -1 -62c-7 -122 -92 -229 -211 -229c-108 0 -196 88 -196 197c0 58 54 103 113 103c54 0 95 -47 95 -103c0 -52 -43 -95 -95 -95c-9 0 -18 1 -27 4c25 -37 66 -61 113 -61c93 0 156 91 162 191 c1 19 2 38 2 57c0 29 -1 58 -3 87c-5 -1 -44 -8 -88 -8c-194 0 -333 181 -333 376c0 177 129 308 244 443c-34 103 -55 171 -55 347c0 114 54 221 147 288c8 6 18 5 25 -1c68 -79 135 -242 135 -356c0 -142 -84 -255 -176 -364c21 -68 40 -136 57 -205c1 0 5 1 10 1 c157 0 258 -129 258 -263zM463 -201c64 24 110 88 110 161c0 88 -64 175 -167 188c28 -133 49 -269 57 -349zM77 25c0 -144 141 -243 261 -243c1 0 46 -1 81 5c-7 66 -27 208 -60 362c-79 -8 -124 -60 -124 -118c0 -43 25 -88 80 -120c5 -5 7 -11 7 -17 c0 -12 -10 -23 -23 -23c-16 0 -128 62 -128 188c0 89 60 177 163 200c-14 57 -30 113 -47 169c-105 -122 -210 -243 -210 -403zM242 784c0 -39 10 -95 39 -188c78 97 142 199 142 324c0 33 0 60 -20 118c-99 -46 -161 -145 -161 -254z" fill="currentColor"/>
</g>
<g transform="translate(13.4743,55.65)">
<path transform="scale(0.0040, -0.0040)" d="M31 37l-2 -62v-11c0 -22 2 -43 5 -64c43 38 89 80 89 137c0 32 -14 65 -42 65c-31 0 -49 -32 -50 -65zM-30 450c9 5 20 8 30 8s21 -3 30 -8l-8 -340c25 24 59 38 94 38c50 0 84 -50 84 -104c0 -78 -83 -117 -141 -169c-17 -15 -25 -44 -49 -44c-15 0 -26 13 -26 29z" fill="currentColor"/>
</g>
<g transform="translate(14.4148,54.15)">
<path transform="scale(0.0040, -0.0040)" d="M31 37l-2 -62v-11c0 -22 2 -43 5 -64c43 38 89 80 89 137c0 32 -14 65 -42 65c-31 0 -49 -32 -50 -65zM-30 450c9 5 20 8 30 8s21 -3 30 -8l-8 -340c25 24 59 38 94 38c50 0 84 -50 84 -104c0 -78 -83 -117 -141 -169c-17 -15 -25 -44 -49 -44c-15 0 -26 13 -26 29z" fill="currentColor"/>
</g>
<g transform="translate(15.3553,56.15)">
<path transform="scale(0.0040, -0.0040)" d="M31 37l-2 -62v-11c0 -22 2 -43 5 -64c43 38 89 80 89 137c0 32 -14 65 -42 65c-31 0 -49 -32 -50 -65zM-30 450c9 5 20 8 30 8s21 -3 30 -8l-8 -340c25 24 59 38 94 38c50 0 84 -50 84 -104c0 -78 -83 -117 -141 -169c-17 -15 -25 -44 -49 -44c-15 0 -26 13 -26 29z" fill="currentColor"/>
</g>
<g transform="translate(16.2959,54.65)">
<path transform="scale(0.0040, -0.0040)" d="M31 37l-2 -62v-11c0 -22 2 -43 5 -64c43 38 89 80 89 137c0 32 -14 65 -42 65c-31 0 -49 -32 -50 -65zM-30 450c9 5 20 8 30 8s21 -3 30 -8l-8 -340c25 24 59 38 94 38c50 0 84 -50 84 -104c0 -78 -83 -117 -141 -169c-17 -15 -25 -44 -49 -44c-15 0 -26 13 -26 29z" fill="currentColor"/>
</g>
<g transform="translate(8.2228,52.6768)">
<text font-family="Songti SC" font-size="1.7463" text-anchor="start" fill="currentColor">
<tspan>5</tspan>
</text>
</g>
<g transform="translate(19.5959,52.1402)">
<text font-family="Hiragino Sans GB" font-size="1.9604" text-anchor="start" fill="currentColor">
<tspan>G</tspan>
</text>
</g>
<g transform="translate(19.5959,56.15)">
<path transform="scale(0.0040, -0.0040)" d="M212 138c68 0 113 -38 113 -95c0 -90 -109 -181 -212 -181c-68 0 -113 38 -113 95c0 90 109 181 212 181z" fill="currentColor"/>
</g>
<g transform="translate(19.0086,61.9438)">
<text font-family="Songti SC" font-size="2.7" text-anchor="start" fill="currentColor">
<tspan font-size="2.7">得</tspan>
</text>
</g>
<g transform="translate(21.3382,56.15)">
<path transform="scale(0.0040, -0.0040)" d="M0 0c0 30 25 55 55 55s55 -25 55 -55s-25 -55 -55 -55s-55 25 -55 55z" fill="currentColor"/>
</g>
<g transform="translate(20.821,55.65)">
<rect x="-0.0757" y="-3.0000" width="0.1514" height="3.3287" ry="0.0500" fill="currentColor"/>
</g>
<g transform="translate(29.2408,56.15)">
<path transform="scale(0.0040, -0.0040)" d="M212 138c68 0 113 -38 113 -95c0 -90 -109 -181 -212 -181c-68 0 -113 38 -113 95c0 90 109 181 212 181z" fill="currentColor"/>
</g>
<g transform="translate(28.6535,61.9438)">
<text font-family="Songti SC" font-size="2.7" text-anchor="start" fill="currentColor">
<tspan font-size="2.7">你</tspan>
</text>
</g>
<g transform="translate(30.4659,55.65)">
<rect x="-0.0757" y="-3.0000" width="0.1514" height="3.3287" ry="0.0500" fill="currentColor"/>
</g>
<g transform="translate(30.5416,52.7)">
<path transform="scale(0.0040, -0.0040)" d="M0 -250h-19v250h19c0 -197 207 -334 207 -531c0 -71 -15 -140 -41 -206c-5 -9 -14 -13 -22 -13c-14 0 -29 12 -26 30c26 60 43 124 43 189c0 102 -92 206 -161 281z" fill="currentColor"/>
</g>
<g transform="translate(109.4782,55.65)">
<path stroke-width="0.0931" stroke-linejoin="round" stroke-linecap="round" stroke="currentColor" fill="currentColor" d="M0.6838 -1.6276C1.8299 -2.8214 4.2202 -2.6367 5.2126 -1.2776L5.2126 -1.2776C4.2094 -2.4974 1.8191 -2.6821 0.6838 -1.6276z"/>
</g>
<g transform="translate(33.8225,56.15)">
<path transform="scale(0.0040, -0.0040)" d="M212 138c68 0 113 -38 113 -95c0 -90 -109 -181 -212 -181c-68 0 -113 38 -113 95c0 90 109 181 212 181z" fill="currentColor"/>
</g>
<g transform="translate(33.2352,61.9438)">
<text font-family="Songti SC" font-size="2.7" text-anchor="start" fill="currentColor">
<tspan font-size="2.7">包</tspan>
</text>
</g>
<g transform="translate(35.0476,55.65)">
<rect x="-0.0757" y="-3.0000" width="0.1514" height="3.3287" ry="0.0500" fill="currentColor"/>
</g>
<g transform="translate(41.5792,56.15)">
<path transform="scale(0.0040, -0.0040)" d="M212 138c68 0 113 -38 113 -95c0 -90 -109 -181 -212 -181c-68 0 -113 38 -113 95c0 90 109 181 212 181z" fill="currentColor"/>
</g>
<g transform="translate(40.9919,61.9438)">
<text font-family="Songti SC" font-size="2.7" text-anchor="start" fill="currentColor">
<tspan font-size="2.7">罗</tspan>
</text>
</g>
<g transform="translate(42.8043,55.65)">
<rect x="-0.0757" y="-3.0000" width="0.1514" height="3.3287" ry="0.0500" fill="currentColor"/>
</g>
<g transform="translate(100.1707,55.65)">
<path stroke-width="0.0931" stroke-linejoin="round" stroke-linecap="round" stroke="currentColor" fill="currentColor" d="M0.5616 -1.2027C1.4540 -2.4550 4.0207 -2.9921 5.3404 -2.2027L5.3404 -2.2027C4.0493 -2.8554 1.4826 -2.3183 0.5616 -1.2027z"/>
</g>
<g transform="translate(100.1707,58.65)">
<polygon stroke-linejoin="round" stroke-linecap="round" stroke-width="0.1000" fill="currentColor" stroke="currentColor" points="13.9376 -0.1900 13.9376 0.1900 0.0500 0.1900 0.0500 -0.1900"/>
</g>
<g transform="translate(51.5169,55.15)">
<path transform="scale(0.0040, -0.0040)" d="M212 138c68 0 113 -38 113 -95c0 -90 -109 -181 -212 -181c-68 0 -113 38 -113 95c0 90 109 181 212 181z" fill="currentColor"/>
</g>
<g transform="translate(50.9297,61.9438)">
<text font-family="Songti SC" font-size="2.7" text-anchor="start" fill="currentColor">
<tspan font-size="2.7">万</tspan>
</text>
</g>
<g transform="translate(53.2592,55.15)">
<path transform="scale(0.0040, -0.0040)" d="M0 0c0 30 25 55 55 55s55 -25 55 -55s-25 -55 -55 -55s-55 25 -55 55z" fill="currentColor"/>
</g>
<g transform="translate(51.5926,55.65)">
<rect x="-0.0757" y="-0.3287" width="0.1514" height="3.3287" ry="0.0500" fill="currentColor"/>
</g>
<g transform="translate(61.1618,55.65)">
<path transform="scale(0.0040, -0.0040)" d="M212 138c68 0 113 -38 113 -95c0 -90 -109 -181 -212 -181c-68 0 -113 38 -113 95c0 90 109 181 212 181z" fill="currentColor"/>
</g>
<g transform="translate(60.5746,61.9438)">
<text font-family="Songti SC" font-size="2.7" text-anchor="start" fill="currentColor">
<tspan font-size="2.7">有</tspan>
</text>
</g>
<g transform="translate(61.2375,55.65)">
<rect x="-0.0757" y="0.1713" width="0.1514" height="3.2037" ry="0.0500" fill="currentColor"/>
</g>
<g transform="translate(61.3132,58.975)">
<path transform="scale(0.0040, -0.0040)" d="M0 0h-19v250h19v-250zM0 0v250c95 59 220 149 220 259c0 56 -16 111 -41 161c-3 18 12 30 26 30c8 0 17 -4 22 -13c25 -56 40 -116 40 -178c0 -203 -267 -306 -267 -509z" fill="currentColor"/>
</g>
<g transform="translate(65.6906,55.65)">
<path transform="scale(0.0040, -0.0040)" d="M212 138c68 0 113 -38 113 -95c0 -90 -109 -181 -212 -181c-68 0 -113 38 -113 95c0 90 109 181 212 181z" fill="currentColor"/>
</g>
<g transform="translate(65.6906,61.9438)">
<text font-family="Songti SC" font-size="2.7" text-anchor="start" fill="currentColor">
<tspan font-size="2.7">的</tspan>
</text>
</g>
<g transform="translate(66.9158,55.65)">
<rect x="-0.0757" y="-3.1759" width="0.1514" height="3.0046" ry="0.0500" fill="currentColor"/>
</g>
<g transform="translate(70.2194,56.15)">
<path transform="scale(0.0040, -0.0040)" d="M212 138c68 0 113 -38 113 -95c0 -90 -109 -181 -212 -181c-68 0 -113 38 -113 95c0 90 109 181 212 181z" fill="currentColor"/>
</g>
<g transform="translate(71.4445,55.65)">
<rect x="-0.0757" y="-2.8241" width="0.1514" height="3.1528" ry="0.0500" fill="currentColor"/>
</g>
<g transform="translate(74.7481,56.15)">
<path transform="scale(0.0040, -0.0040)" d="M212 138c68 0 113 -38 113 -95c0 -90 -109 -181 -212 -181c-68 0 -113 38 -113 95c0 90 109 181 212 181z" fill="currentColor"/>
</g>
<g transform="translate(72.9232,61.9438)">
<text font-family="Songti SC" font-size="2.7" text-anchor="start" fill="currentColor">
<tspan font-size="2.7">死，</tspan>
</text>
</g>
<g transform="translate(75.9733,55.65)">
<rect x="-0.0757" y="-3.0000" width="0.1514" height="3.3287" ry="0.0500" fill="currentColor"/>
</g>
<g transform="translate(65.6906,55.65)">
<path stroke-width="0.0931" stroke-linejoin="round" stroke-linecap="round" stroke="currentColor" fill="currentColor" d="M0.6170 1.2776C1.6094 2.6367 3.9997 2.8214 5.1458 1.6276L5.1458 1.6276C4.0105 2.6821 1.6202 2.4974 0.6170 1.2776z"/>
</g>
<g transform="translate(66.8401,52.4682)">
<polygon stroke-linejoin="round" stroke-linecap="round" stroke-width="0.1000" fill="currentColor" stroke="currentColor" points="4.6301 0.1736 4.6301 0.5536 0.0500 0.1900 0.0500 -0.1900"/>
</g>
<g transform="translate(84.6573,52.1402)">
<text font-family="Hiragino Sans GB" font-size="1.9604" text-anchor="start" fill="currentColor">
<tspan>D</tspan>
</text>
</g>
<g transform="translate(84.6573,55.65)">
<path transform="scale(0.0040, -0.0040)" d="M212 138c68 0 113 -38 113 -95c0 -90 -109 -181 -212 -181c-68 0 -113 38 -113 95c0 90 109 181 212 181z" fill="currentColor"/>
</g>
<g transform="translate(84.0701,61.9438)">
<text font-family="Songti SC" font-size="2.7" text-anchor="start" fill="currentColor">
<tspan font-size="2.7">和</tspan>
</text>
</g>
<g transform="translate(92.414,55.65)">
<path transform="scale(0.0040, -0.0040)" d="M212 138c68 0 113 -38 113 -95c0 -90 -109 -181 -212 -181c-68 0 -113 38 -113 95c0 90 109 181 212 181z" fill="currentColor"/>
</g>
<g transform="translate(91.8268,61.9438)">
<text font-family="Songti SC" font-size="2.7" text-anchor="start" fill="currentColor">
<tspan font-size="2.7">非</tspan>
</text>
</g>
<g transform="translate(92.4897,55.65)">
<rect x="-0.0757" y="0.1713" width="0.1514" height="3.1620" ry="0.0500" fill="currentColor"/>
</g>
<g transform="translate(100.1707,55.65)">
<path transform="scale(0.0040, -0.0040)" d="M212 138c68 0 113 -38 113 -95c0 -90 -109 -181 -212 -181c-68 0 -113 38 -113 95c0 90 109 181 212 181z" fill="currentColor"/>
</g>
<g transform="translate(100.1707,61.9438)">
<text font-family="Songti SC" font-size="2.7" text-anchor="start" fill="currentColor">
<tspan font-size="2.7">受</tspan>
</text>
</g>
<g transform="translate(100.2464,55.65)">
<rect x="-0.0757" y="0.1713" width="0.1514" height="2.8287" ry="0.0500" fill="currentColor"/>
</g>
<g transform="translate(104.9495,54.65)">
<path transform="scale(0.0040, -0.0040)" d="M212 138c68 0 113 -38 113 -95c0 -90 -109 -181 -212 -181c-68 0 -113 38 -113 95c0 90 109 181 212 181z" fill="currentColor"/>
</g>
<g transform="translate(105.0252,55.65)">
<rect x="-0.0757" y="-0.8287" width="0.1514" height="3.8287" ry="0.0500" fill="currentColor"/>
</g>
<g transform="translate(109.4782,55.15)">
<path transform="scale(0.0040, -0.0040)" d="M212 138c68 0 113 -38 113 -95c0 -90 -109 -181 -212 -181c-68 0 -113 38 -113 95c0 90 109 181 212 181z" fill="currentColor"/>
</g>
<g transform="translate(109.4782,61.9438)">
<text font-family="Songti SC" font-size="2.7" text-anchor="start" fill="currentColor">
<tspan font-size="2.7">造</tspan>
</text>
</g>
<g transform="translate(109.5539,55.65)">
<rect x="-0.0757" y="-0.3287" width="0.1514" height="3.3287" ry="0.0500" fill="currentColor"/>
</g>
<g transform="translate(114.007,55.65)">
<path transform="scale(0.0040, -0.0040)" d="M212 138c68 0 113 -38 113 -95c0 -90 -109 -181 -212 -181c-68 0 -113 38 -113 95c0 90 109 181 212 181z" fill="currentColor"/>
</g>
<g transform="translate(114.0827,55.65)">
<rect x="-0.0757" y="0.1713" width="0.1514" height="2.8287" ry="0.0500" fill="currentColor"/>
</g>
<g transform="translate(120.2868,52.1402)">
<text font-family="Hiragino Sans GB" font-size="1.9604" text-anchor="start" fill="currentColor">
<tspan>G</tspan>
</text>
</g>
<g transform="translate(120.2868,56.15)">
<path transform="scale(0.0040, -0.0040)" d="M212 138c68 0 113 -38 113 -95c0 -90 -109 -181 -212 -181c-68 0 -113 38 -113 95c0 90 109 181 212 181z" fill="currentColor"/>
</g>
<g transform="translate(119.6996,61.9438)">
<text font-family="Songti SC" font-size="2.7" text-anchor="start" fill="currentColor">
<tspan font-size="2.7">的</tspan>
</text>
</g>
<g transform="translate(121.512,55.65)">
<rect x="-0.0757" y="-3.0000" width="0.1514" height="3.3287" ry="0.0500" fill="currentColor"/>
</g>
<g transform="translate(128.0435,52.1402)">
<text font-family="Hiragino Sans GB" font-size="1.9604" text-anchor="start" fill="currentColor">
<tspan>D</tspan>
</text>
</g>
<g transform="translate(129.5373,51.2493)">
<text font-family="Hiragino Sans GB" font-size="1.3856" text-anchor="start" fill="currentColor">
<tspan>7</tspan>
</text>
</g>
<g transform="translate(128.0435,56.65)">
<path transform="scale(0.0040, -0.0040)" d="M212 138c68 0 113 -38 113 -95c0 -90 -109 -181 -212 -181c-68 0 -113 38 -113 95c0 90 109 181 212 181z" fill="currentColor"/>
</g>
<g transform="translate(127.4563,61.9438)">
<text font-family="Songti SC" font-size="2.7" text-anchor="start" fill="currentColor">
<tspan font-size="2.7">生</tspan>
</text>
</g>
<g transform="translate(129.2687,55.65)">
<rect x="-0.0757" y="-2.5000" width="0.1514" height="3.3287" ry="0.0500" fill="currentColor"/>
</g>
<g transform="translate(135.8002,52.1402)">
<text font-family="Hiragino Sans GB" font-size="1.9604" text-anchor="start" fill="currentColor">
<tspan>G</tspan>
</text>
</g>
<g transform="translate(135.8002,56.15)">
<path transform="scale(0.0040, -0.0040)" d="M310 63c0 22 -17 40 -40 40c-38 0 -197 -107 -224 -139c-7 -8 -10 -17 -10 -27c0 -22 17 -40 40 -40c38 0 197 107 224 139c7 8 10 17 10 27zM256 138c55 0 90 -22 90 -77c0 -25 -15 -112 -73 -151c-34 -23 -92 -48 -183 -48c-55 0 -90 22 -90 77c0 25 15 112 73 151 c34 23 92 48 183 48z" fill="currentColor"/>
</g>
<g transform="translate(134.0168,61.9438)">
<text font-family="Songti SC" font-size="2.7" text-anchor="start" fill="currentColor">
<tspan font-size="2.7">命。</tspan>
</text>
</g>
<g transform="translate(137.1084,55.65)">
<rect x="-0.0757" y="-3.0000" width="0.1514" height="3.2544" ry="0.0500" fill="currentColor"/>
</g>
<g transform="translate(49.5223,81.65)">
<rect x="0.0000" y="-2.0000" width="0.2212" height="4.0000" ry="0.0000" fill="currentColor"/>
</g>
<g transform="translate(9.0337,83.65)">
<line stroke-linejoin="round" stroke-linecap="round" stroke-width="0.1164" stroke="currentColor" x1="0.0582" y1="0" x2="138.1582" y2="0"/>
</g>
<g transform="translate(9.0337,82.65)">
<line stroke-linejoin="round" stroke-linecap="round" stroke-width="0.1164" stroke="currentColor" x1="0.0582" y1="0" x2="138.1582" y2="0"/>
</g>
<g transform="translate(9.0337,81.65)">
<line stroke-linejoin="round" stroke-linecap="round" stroke-width="0.1164" stroke="currentColor" x1="0.0582" y1="0" x2="138.1582" y2="0"/>
</g>
<g transform="translate(9.0337,80.65)">
<line stroke-linejoin="round" stroke-linecap="round" stroke-width="0.1164" stroke="currentColor" x1="0.0582" y1="0" x2="138.1582" y2="0"/>
</g>
<g transform="translate(9.0337,79.65)">
<line stroke-linejoin="round" stroke-linecap="round" stroke-width="0.1164" stroke="currentColor" x1="0.0582" y1="0" x2="138.1582" y2="0"/>
</g>
<g transform="translate(147.0289,81.65)">
<rect x="0.0000" y="-2.0000" width="0.2212" height="4.0000" ry="0.0000" fill="currentColor"/>
</g>
<g transform="translate(115.0409,81.65)">
<rect x="0.0000" y="-2.0000" width="0.2212" height="4.0000" ry="0.0000" fill="currentColor"/>
</g>
<g transform="translate(83.1171,81.65)">
<rect x="0.0000" y="-2.0000" width="0.2212" height="4.0000" ry="0.0000" fill="currentColor"/>
</g>
<g transform="translate(131.451,81.65)">
<path stroke-width="0.0931" stroke-linejoin="round" stroke-linecap="round" stroke="currentColor" fill="currentColor" d="M0.6697 -1.5601C2.2798 -2.8564 7.0330 -2.6446 8.5240 -1.2101L8.5240 -1.2101C7.0268 -2.5050 2.2736 -2.7168 0.6697 -1.5601z"/>
</g>
<g transform="translate(9.8338,82.65)">
<path transform="scale(0.0040, -0.0040)" d="M647 2c0 -114 -75 -214 -180 -248c3 -33 4 -66 4 -99c0 -21 0 -41 -1 -62c-7 -122 -92 -229 -211 -229c-108 0 -196 88 -196 197c0 58 54 103 113 103c54 0 95 -47 95 -103c0 -52 -43 -95 -95 -95c-9 0 -18 1 -27 4c25 -37 66 -61 113 -61c93 0 156 91 162 191 c1 19 2 38 2 57c0 29 -1 58 -3 87c-5 -1 -44 -8 -88 -8c-194 0 -333 181 -333 376c0 177 129 308 244 443c-34 103 -55 171 -55 347c0 114 54 221 147 288c8 6 18 5 25 -1c68 -79 135 -242 135 -356c0 -142 -84 -255 -176 -364c21 -68 40 -136 57 -205c1 0 5 1 10 1 c157 0 258 -129 258 -263zM463 -201c64 24 110 88 110 161c0 88 -64 175 -167 188c28 -133 49 -269 57 -349zM77 25c0 -144 141 -243 261 -243c1 0 46 -1 81 5c-7 66 -27 208 -60 362c-79 -8 -124 -60 -124 -118c0 -43 25 -88 80 -120c5 -5 7 -11 7 -17 c0 -12 -10 -23 -23 -23c-16 0 -128 62 -128 188c0 89 60 177 163 200c-14 57 -30 113 -47 169c-105 -122 -210 -243 -210 -403zM242 784c0 -39 10 -95 39 -188c78 97 142 199 142 324c0 33 0 60 -20 118c-99 -46 -161 -145 -161 -254z" fill="currentColor"/>
</g>
<g transform="translate(13.4743,81.65)">
<path transform="scale(0.0040, -0.0040)" d="M31 37l-2 -62v-11c0 -22 2 -43 5 -64c43 38 89 80 89 137c0 32 -14 65 -42 65c-31 0 -49 -32 -50 -65zM-30 450c9 5 20 8 30 8s21 -3 30 -8l-8 -340c25 24 59 38 94 38c50 0 84 -50 84 -104c0 -78 -83 -117 -141 -169c-17 -15 -25 -44 -49 -44c-15 0 -26 13 -26 29z" fill="currentColor"/>
</g>
<g transform="translate(14.4148,80.15)">
<path transform="scale(0.0040, -0.0040)" d="M31 37l-2 -62v-11c0 -22 2 -43 5 -64c43 38 89 80 89 137c0 32 -14 65 -42 65c-31 0 -49 -32 -50 -65zM-30 450c9 5 20 8 30 8s21 -3 30 -8l-8 -340c25 24 59 38 94 38c50 0 84 -50 84 -104c0 -78 -83 -117 -141 -169c-17 -15 -25 -44 -49 -44c-15 0 -26 13 -26 29z" fill="currentColor"/>
</g>
<g transform="translate(15.3553,82.15)">
<path transform="scale(0.0040, -0.0040)" d="M31 37l-2 -62v-11c0 -22 2 -43 5 -64c43 38 89 80 89 137c0 32 -14 65 -42 65c-31 0 -49 -32 -50 -65zM-30 450c9 5 20 8 30 8s21 -3 30 -8l-8 -340c25 24 59 38 94 38c50 0 84 -50 84 -104c0 -78 -83 -117 -141 -169c-17 -15 -25 -44 -49 -44c-15 0 -26 13 -26 29z" fill="currentColor"/>
</g>
<g transform="translate(16.2959,80.65)">
<path transform="scale(0.0040, -0.0040)" d="M31 37l-2 -62v-11c0 -22 2 -43 5 -64c43 38 89 80 89 137c0 32 -14 65 -42 65c-31 0 -49 -32 -50 -65zM-30 450c9 5 20 8 30 8s21 -3 30 -8l-8 -340c25 24 59 38 94 38c50 0 84 -50 84 -104c0 -78 -83 -117 -141 -169c-17 -15 -25 -44 -49 -44c-15 0 -26 13 -26 29z" fill="currentColor"/>
</g>
<g transform="translate(8.2228,78.6716)">
<text font-family="Songti SC" font-size="1.7463" text-anchor="start" fill="currentColor">
<tspan>9</tspan>
</text>
</g>
<g transform="translate(19.5959,79.0761)">
<text font-family="Hiragino Sans GB" font-size="1.9604" text-anchor="start" fill="currentColor">
<tspan>D</tspan>
</text>
</g>
<g transform="translate(19.5959,81.65)">
<path transform="scale(0.0040, -0.0040)" d="M212 138c68 0 113 -38 113 -95c0 -90 -109 -181 -212 -181c-68 0 -113 38 -113 95c0 90 109 181 212 181z" fill="currentColor"/>
</g>
<g transform="translate(19.0086,87.9342)">
<text font-family="Songti SC" font-size="2.7" text-anchor="start" fill="currentColor">
<tspan font-size="2.7">与</tspan>
</text>
</g>
<g transform="translate(21.3382,81.15)">
<path transform="scale(0.0040, -0.0040)" d="M0 0c0 30 25 55 55 55s55 -25 55 -55s-25 -55 -55 -55s-55 25 -55 55z" fill="currentColor"/>
</g>
<g transform="translate(19.6715,81.65)">
<rect x="-0.0757" y="0.1713" width="0.1514" height="3.1620" ry="0.0500" fill="currentColor"/>
</g>
<g transform="translate(29.3669,81.65)">
<path transform="scale(0.0040, -0.0040)" d="M212 138c68 0 113 -38 113 -95c0 -90 -109 -181 -212 -181c-68 0 -113 38 -113 95c0 90 109 181 212 181z" fill="currentColor"/>
</g>
<g transform="translate(28.7796,87.9342)">
<text font-family="Songti SC" font-size="2.7" text-anchor="start" fill="currentColor">
<tspan font-size="2.7">你</tspan>
</text>
</g>
<g transform="translate(29.4425,81.65)">
<rect x="-0.0757" y="0.1713" width="0.1514" height="3.2037" ry="0.0500" fill="currentColor"/>
</g>
<g transform="translate(29.5182,84.975)">
<path transform="scale(0.0040, -0.0040)" d="M0 0h-19v250h19v-250zM0 0v250c95 59 220 149 220 259c0 56 -16 111 -41 161c-3 18 12 30 26 30c8 0 17 -4 22 -13c25 -56 40 -116 40 -178c0 -203 -267 -306 -267 -509z" fill="currentColor"/>
</g>
<g transform="translate(33.9444,81.65)">
<path transform="scale(0.0040, -0.0040)" d="M212 138c68 0 113 -38 113 -95c0 -90 -109 -181 -212 -181c-68 0 -113 38 -113 95c0 90 109 181 212 181z" fill="currentColor"/>
</g>
<g transform="translate(33.3571,87.9342)">
<text font-family="Songti SC" font-size="2.7" text-anchor="start" fill="currentColor">
<tspan font-size="2.7">合</tspan>
</text>
</g>
<g transform="translate(34.0201,81.65)">
<rect x="-0.0757" y="0.1713" width="0.1514" height="3.1620" ry="0.0500" fill="currentColor"/>
</g>
<g transform="translate(41.7987,81.65)">
<path transform="scale(0.0040, -0.0040)" d="M212 138c68 0 113 -38 113 -95c0 -90 -109 -181 -212 -181c-68 0 -113 38 -113 95c0 90 109 181 212 181z" fill="currentColor"/>
</g>
<g transform="translate(39.9737,87.9342)">
<text font-family="Songti SC" font-size="2.7" text-anchor="start" fill="currentColor">
<tspan font-size="2.7">一，</tspan>
</text>
</g>
<g transform="translate(41.8743,81.65)">
<rect x="-0.0757" y="0.1713" width="0.1514" height="3.1620" ry="0.0500" fill="currentColor"/>
</g>
<g transform="translate(51.5268,79.0761)">
<text font-family="Hiragino Sans GB" font-size="1.9604" text-anchor="start" fill="currentColor">
<tspan>D</tspan>
</text>
</g>
<g transform="translate(53.0205,78.18520000000001)">
<text font-family="Hiragino Sans GB" font-size="1.3856" text-anchor="start" fill="currentColor">
<tspan>7</tspan>
</text>
</g>
<g transform="translate(51.5268,81.65)">
<path transform="scale(0.0040, -0.0040)" d="M212 138c68 0 113 -38 113 -95c0 -90 -109 -181 -212 -181c-68 0 -113 38 -113 95c0 90 109 181 212 181z" fill="currentColor"/>
</g>
<g transform="translate(50.9395,87.9342)">
<text font-family="Songti SC" font-size="2.7" text-anchor="start" fill="currentColor">
<tspan font-size="2.7">蒙</tspan>
</text>
</g>
<g transform="translate(53.269,81.15)">
<path transform="scale(0.0040, -0.0040)" d="M0 0c0 30 25 55 55 55s55 -25 55 -55s-25 -55 -55 -55s-55 25 -55 55z" fill="currentColor"/>
</g>
<g transform="translate(51.6024,81.65)">
<rect x="-0.0757" y="0.1713" width="0.1514" height="3.1620" ry="0.0500" fill="currentColor"/>
</g>
<g transform="translate(61.2753,82.15)">
<path transform="scale(0.0040, -0.0040)" d="M212 138c68 0 113 -38 113 -95c0 -90 -109 -181 -212 -181c-68 0 -113 38 -113 95c0 90 109 181 212 181z" fill="currentColor"/>
</g>
<g transform="translate(60.688,87.9342)">
<text font-family="Songti SC" font-size="2.7" text-anchor="start" fill="currentColor">
<tspan font-size="2.7">爱</tspan>
</text>
</g>
<g transform="translate(62.5004,81.65)">
<rect x="-0.0757" y="-3.0000" width="0.1514" height="3.3287" ry="0.0500" fill="currentColor"/>
</g>
<g transform="translate(62.5761,78.7)">
<path transform="scale(0.0040, -0.0040)" d="M0 -250h-19v250h19c0 -197 207 -334 207 -531c0 -71 -15 -140 -41 -206c-5 -9 -14 -13 -22 -13c-14 0 -29 12 -26 30c26 60 43 124 43 189c0 102 -92 206 -161 281z" fill="currentColor"/>
</g>
<g transform="translate(65.9057,82.15)">
<path transform="scale(0.0040, -0.0040)" d="M212 138c68 0 113 -38 113 -95c0 -90 -109 -181 -212 -181c-68 0 -113 38 -113 95c0 90 109 181 212 181z" fill="currentColor"/>
</g>
<g transform="translate(65.9057,87.9342)">
<text font-family="Songti SC" font-size="2.7" text-anchor="start" fill="currentColor">
<tspan font-size="2.7">之</tspan>
</text>
</g>
<g transform="translate(67.1309,81.65)">
<rect x="-0.0757" y="-2.1789" width="0.1514" height="2.5075" ry="0.0500" fill="currentColor"/>
</g>
<g transform="translate(65.9057,81.65)">
<path stroke-width="0.0931" stroke-linejoin="round" stroke-linecap="round" stroke="currentColor" fill="currentColor" d="M0.5895 1.5527C1.5233 2.7038 3.9497 3.0483 5.1670 2.2027L5.1670 2.2027C3.9693 2.9100 1.5429 2.5655 0.5895 1.5527z"/>
</g>
<g transform="translate(70.4833,82.65)">
<path transform="scale(0.0040, -0.0040)" d="M212 138c68 0 113 -38 113 -95c0 -90 -109 -181 -212 -181c-68 0 -113 38 -113 95c0 90 109 181 212 181z" fill="currentColor"/>
</g>
<g transform="translate(71.7084,81.65)">
<rect x="-0.0757" y="-2.0029" width="0.1514" height="2.8316" ry="0.0500" fill="currentColor"/>
</g>
<g transform="translate(67.0552,79.4682)">
<polygon stroke-linejoin="round" stroke-linecap="round" stroke-width="0.1000" fill="currentColor" stroke="currentColor" points="4.6789 -0.0082 4.6789 0.3718 0.0500 0.1900 0.0500 -0.1900"/>
</g>
<g transform="translate(75.0608,82.65)">
<path transform="scale(0.0040, -0.0040)" d="M212 138c68 0 113 -38 113 -95c0 -90 -109 -181 -212 -181c-68 0 -113 38 -113 95c0 90 109 181 212 181z" fill="currentColor"/>
</g>
<g transform="translate(73.2359,87.9342)">
<text font-family="Songti SC" font-size="2.7" text-anchor="start" fill="currentColor">
<tspan font-size="2.7">子，</tspan>
</text>
</g>
<g transform="translate(76.286,81.65)">
<rect x="-0.0757" y="-2.5000" width="0.1514" height="3.3287" ry="0.0500" fill="currentColor"/>
</g>
<g transform="translate(85.1502,79.0761)">
<text font-family="Hiragino Sans GB" font-size="1.9604" text-anchor="start" fill="currentColor">
<tspan>G</tspan>
</text>
</g>
<g transform="translate(85.1502,81.15)">
<path transform="scale(0.0040, -0.0040)" d="M212 138c68 0 113 -38 113 -95c0 -90 -109 -181 -212 -181c-68 0 -113 38 -113 95c0 90 109 181 212 181z" fill="currentColor"/>
</g>
<g transform="translate(84.5629,87.9342)">
<text font-family="Songti SC" font-size="2.7" text-anchor="start" fill="currentColor">
<tspan font-size="2.7">借</tspan>
</text>
</g>
<g transform="translate(85.2259,81.65)">
<rect x="-0.0757" y="-0.3287" width="0.1514" height="3.3287" ry="0.0500" fill="currentColor"/>
</g>
<g transform="translate(94.9212,81.15)">
<path transform="scale(0.0040, -0.0040)" d="M212 138c68 0 113 -38 113 -95c0 -90 -109 -181 -212 -181c-68 0 -113 38 -113 95c0 90 109 181 212 181z" fill="currentColor"/>
</g>
<g transform="translate(94.3339,87.9342)">
<text font-family="Songti SC" font-size="2.7" text-anchor="start" fill="currentColor">
<tspan font-size="2.7">恩</tspan>
</text>
</g>
<g transform="translate(94.9968,81.65)">
<rect x="-0.0757" y="-0.3287" width="0.1514" height="3.3287" ry="0.0500" fill="currentColor"/>
</g>
<g transform="translate(95.0725,84.6)">
<path transform="scale(0.0040, -0.0040)" d="M0 0h-19v250h19v-250zM0 0v250c95 59 220 149 220 259c0 56 -16 111 -41 161c-3 18 12 30 26 30c8 0 17 -4 22 -13c25 -56 40 -116 40 -178c0 -203 -267 -306 -267 -509z" fill="currentColor"/>
</g>
<g transform="translate(99.4987,81.15)">
<path transform="scale(0.0040, -0.0040)" d="M212 138c68 0 113 -38 113 -95c0 -90 -109 -181 -212 -181c-68 0 -113 38 -113 95c0 90 109 181 212 181z" fill="currentColor"/>
</g>
<g transform="translate(98.9114,87.9342)">
<text font-family="Songti SC" font-size="2.7" text-anchor="start" fill="currentColor">
<tspan font-size="2.7">成</tspan>
</text>
</g>
<g transform="translate(99.5744,81.65)">
<rect x="-0.0757" y="-0.3287" width="0.1514" height="3.3287" ry="0.0500" fill="currentColor"/>
</g>
<g transform="translate(107.353,81.15)">
<path transform="scale(0.0040, -0.0040)" d="M212 138c68 0 113 -38 113 -95c0 -90 -109 -181 -212 -181c-68 0 -113 38 -113 95c0 90 109 181 212 181z" fill="currentColor"/>
</g>
<g transform="translate(106.7657,87.9342)">
<text font-family="Songti SC" font-size="2.7" text-anchor="start" fill="currentColor">
<tspan font-size="2.7">为</tspan>
</text>
</g>
<g transform="translate(107.4286,81.65)">
<rect x="-0.0757" y="-0.3287" width="0.1514" height="3.3287" ry="0.0500" fill="currentColor"/>
</g>
<g transform="translate(117.1025,79.0761)">
<text font-family="Hiragino Sans GB" font-size="1.9604" text-anchor="start" fill="currentColor">
<tspan>C</tspan>
</text>
</g>
<g transform="translate(117.1025,80.65)">
<path transform="scale(0.0040, -0.0040)" d="M212 138c68 0 113 -38 113 -95c0 -90 -109 -181 -212 -181c-68 0 -113 38 -113 95c0 90 109 181 212 181z" fill="currentColor"/>
</g>
<g transform="translate(116.5152,87.9342)">
<text font-family="Songti SC" font-size="2.7" text-anchor="start" fill="currentColor">
<tspan font-size="2.7">你</tspan>
</text>
</g>
<g transform="translate(118.8448,80.15)">
<path transform="scale(0.0040, -0.0040)" d="M0 0c0 30 25 55 55 55s55 -25 55 -55s-25 -55 -55 -55s-55 25 -55 55z" fill="currentColor"/>
</g>
<g transform="translate(117.1782,81.65)">
<rect x="-0.0757" y="-0.8287" width="0.1514" height="3.3287" ry="0.0500" fill="currentColor"/>
</g>
<g transform="translate(126.8735,81.15)">
<path transform="scale(0.0040, -0.0040)" d="M212 138c68 0 113 -38 113 -95c0 -90 -109 -181 -212 -181c-68 0 -113 38 -113 95c0 90 109 181 212 181z" fill="currentColor"/>
</g>
<g transform="translate(126.2862,87.9342)">
<text font-family="Songti SC" font-size="2.7" text-anchor="start" fill="currentColor">
<tspan font-size="2.7">一</tspan>
</text>
</g>
<g transform="translate(126.9492,81.65)">
<rect x="-0.0757" y="-0.3287" width="0.1514" height="3.3287" ry="0.0500" fill="currentColor"/>
</g>
<g transform="translate(127.0248,84.6)">
<path transform="scale(0.0040, -0.0040)" d="M0 0h-19v250h19v-250zM0 0v250c95 59 220 149 220 259c0 56 -16 111 -41 161c-3 18 12 30 26 30c8 0 17 -4 22 -13c25 -56 40 -116 40 -178c0 -203 -267 -306 -267 -509z" fill="currentColor"/>
</g>
<g transform="translate(131.451,79.0761)">
<text font-family="Hiragino Sans GB" font-size="1.9604" text-anchor="start" fill="currentColor">
<tspan>D</tspan>
</text>
</g>
<g transform="translate(131.451,81.15)">
<path transform="scale(0.0040, -0.0040)" d="M212 138c68 0 113 -38 113 -95c0 -90 -109 -181 -212 -181c-68 0 -113 38 -113 95c0 90 109 181 212 181z" fill="currentColor"/>
</g>
<g transform="translate(131.451,87.9342)">
<text font-family="Songti SC" font-size="2.7" text-anchor="start" fill="currentColor">
<tspan font-size="2.7">部，</tspan>
</text>
</g>
<g transform="translate(131.5267,81.65)">
<rect x="-0.0757" y="-0.3287" width="0.1514" height="3.3287" ry="0.0500" fill="currentColor"/>
</g>
<g transform="translate(139.3053,81.65)">
<path transform="scale(0.0040, -0.0040)" d="M212 138c68 0 113 -38 113 -95c0 -90 -109 -181 -212 -181c-68 0 -113 38 -113 95c0 90 109 181 212 181z" fill="currentColor"/>
</g>
<g transform="translate(139.381,81.65)">
<rect x="-0.0757" y="0.1713" width="0.1514" height="3.1620" ry="0.0500" fill="currentColor"/>
</g>
<g transform="translate(86.8925,81.15)">
<path transform="scale(0.0040, -0.0040)" d="M0 0c0 30 25 55 55 55s55 -25 55 -55s-25 -55 -55 -55s-55 25 -55 55z" fill="currentColor"/>
</g>
<g transform="translate(49.2482,107.9313)">
<rect x="0.0000" y="-2.0000" width="0.2212" height="4.0000" ry="0.0000" fill="currentColor"/>
</g>
<g transform="translate(9.0337,109.9313)">
<line stroke-linejoin="round" stroke-linecap="round" stroke-width="0.1164" stroke="currentColor" x1="0.0582" y1="0" x2="138.1582" y2="0"/>
</g>
<g transform="translate(9.0337,108.9313)">
<line stroke-linejoin="round" stroke-linecap="round" stroke-width="0.1164" stroke="currentColor" x1="0.0582" y1="0" x2="138.1582" y2="0"/>
</g>
<g transform="translate(9.0337,107.9313)">
<line stroke-linejoin="round" stroke-linecap="round" stroke-width="0.1164" stroke="currentColor" x1="0.0582" y1="0" x2="138.1582" y2="0"/>
</g>
<g transform="translate(9.0337,106.9313)">
<line stroke-linejoin="round" stroke-linecap="round" stroke-width="0.1164" stroke="currentColor" x1="0.0582" y1="0" x2="138.1582" y2="0"/>
</g>
<g transform="translate(9.0337,105.9313)">
<line stroke-linejoin="round" stroke-linecap="round" stroke-width="0.1164" stroke="currentColor" x1="0.0582" y1="0" x2="138.1582" y2="0"/>
</g>
<g transform="translate(146.5516,107.9313)">
<rect x="0.0000" y="-2.0000" width="0.6986" height="4.0000" ry="0.0000" fill="currentColor"/>
</g>
<g transform="translate(145.9811,107.9313)">
<rect x="0.0000" y="-2.0000" width="0.2212" height="4.0000" ry="0.0000" fill="currentColor"/>
</g>
<g transform="translate(117.6042,107.9313)">
<rect x="0.0000" y="-2.0000" width="0.2212" height="4.0000" ry="0.0000" fill="currentColor"/>
</g>
<g transform="translate(82.1507,107.9313)">
<rect x="0.0000" y="-2.0000" width="0.2212" height="4.0000" ry="0.0000" fill="currentColor"/>
</g>
<g transform="translate(84.2,107.9313)">
<rect x="-0.0757" y="0.1713" width="0.1514" height="3.1620" ry="0.0500" fill="currentColor"/>
</g>
<g transform="translate(9.8338,108.9313)">
<path transform="scale(0.0040, -0.0040)" d="M647 2c0 -114 -75 -214 -180 -248c3 -33 4 -66 4 -99c0 -21 0 -41 -1 -62c-7 -122 -92 -229 -211 -229c-108 0 -196 88 -196 197c0 58 54 103 113 103c54 0 95 -47 95 -103c0 -52 -43 -95 -95 -95c-9 0 -18 1 -27 4c25 -37 66 -61 113 -61c93 0 156 91 162 191 c1 19 2 38 2 57c0 29 -1 58 -3 87c-5 -1 -44 -8 -88 -8c-194 0 -333 181 -333 376c0 177 129 308 244 443c-34 103 -55 171 -55 347c0 114 54 221 147 288c8 6 18 5 25 -1c68 -79 135 -242 135 -356c0 -142 -84 -255 -176 -364c21 -68 40 -136 57 -205c1 0 5 1 10 1 c157 0 258 -129 258 -263zM463 -201c64 24 110 88 110 161c0 88 -64 175 -167 188c28 -133 49 -269 57 -349zM77 25c0 -144 141 -243 261 -243c1 0 46 -1 81 5c-7 66 -27 208 -60 362c-79 -8 -124 -60 -124 -118c0 -43 25 -88 80 -120c5 -5 7 -11 7 -17 c0 -12 -10 -23 -23 -23c-16 0 -128 62 -128 188c0 89 60 177 163 200c-14 57 -30 113 -47 169c-105 -122 -210 -243 -210 -403zM242 784c0 -39 10 -95 39 -188c78 97 142 199 142 324c0 33 0 60 -20 118c-99 -46 -161 -145 -161 -254z" fill="currentColor"/>
</g>
<g transform="translate(13.4743,107.9313)">
<path transform="scale(0.0040, -0.0040)" d="M31 37l-2 -62v-11c0 -22 2 -43 5 -64c43 38 89 80 89 137c0 32 -14 65 -42 65c-31 0 -49 -32 -50 -65zM-30 450c9 5 20 8 30 8s21 -3 30 -8l-8 -340c25 24 59 38 94 38c50 0 84 -50 84 -104c0 -78 -83 -117 -141 -169c-17 -15 -25 -44 -49 -44c-15 0 -26 13 -26 29z" fill="currentColor"/>
</g>
<g transform="translate(14.4148,106.4313)">
<path transform="scale(0.0040, -0.0040)" d="M31 37l-2 -62v-11c0 -22 2 -43 5 -64c43 38 89 80 89 137c0 32 -14 65 -42 65c-31 0 -49 -32 -50 -65zM-30 450c9 5 20 8 30 8s21 -3 30 -8l-8 -340c25 24 59 38 94 38c50 0 84 -50 84 -104c0 -78 -83 -117 -141 -169c-17 -15 -25 -44 -49 -44c-15 0 -26 13 -26 29z" fill="currentColor"/>
</g>
<g transform="translate(15.3553,108.4313)">
<path transform="scale(0.0040, -0.0040)" d="M31 37l-2 -62v-11c0 -22 2 -43 5 -64c43 38 89 80 89 137c0 32 -14 65 -42 65c-31 0 -49 -32 -50 -65zM-30 450c9 5 20 8 30 8s21 -3 30 -8l-8 -340c25 24 59 38 94 38c50 0 84 -50 84 -104c0 -78 -83 -117 -141 -169c-17 -15 -25 -44 -49 -44c-15 0 -26 13 -26 29z" fill="currentColor"/>
</g>
<g transform="translate(16.2959,106.9313)">
<path transform="scale(0.0040, -0.0040)" d="M31 37l-2 -62v-11c0 -22 2 -43 5 -64c43 38 89 80 89 137c0 32 -14 65 -42 65c-31 0 -49 -32 -50 -65zM-30 450c9 5 20 8 30 8s21 -3 30 -8l-8 -340c25 24 59 38 94 38c50 0 84 -50 84 -104c0 -78 -83 -117 -141 -169c-17 -15 -25 -44 -49 -44c-15 0 -26 13 -26 29z" fill="currentColor"/>
</g>
<g transform="translate(7.4119,104.9581)">
<text font-family="Songti SC" font-size="1.7463" text-anchor="start" fill="currentColor">
<tspan>13</tspan>
</text>
</g>
<g transform="translate(19.5959,104.42150000000001)">
<text font-family="Hiragino Sans GB" font-size="1.9604" text-anchor="start" fill="currentColor">
<tspan>G</tspan>
</text>
</g>
<g transform="translate(19.5959,108.4313)">
<path transform="scale(0.0040, -0.0040)" d="M212 138c68 0 113 -38 113 -95c0 -90 -109 -181 -212 -181c-68 0 -113 38 -113 95c0 90 109 181 212 181z" fill="currentColor"/>
</g>
<g transform="translate(19.0086,114.2201)">
<text font-family="Songti SC" font-size="2.7" text-anchor="start" fill="currentColor">
<tspan font-size="2.7">与</tspan>
</text>
</g>
<g transform="translate(21.3382,108.4313)">
<path transform="scale(0.0040, -0.0040)" d="M0 0c0 30 25 55 55 55s55 -25 55 -55s-25 -55 -55 -55s-55 25 -55 55z" fill="currentColor"/>
</g>
<g transform="translate(20.821,107.9313)">
<rect x="-0.0757" y="-3.0000" width="0.1514" height="3.3287" ry="0.0500" fill="currentColor"/>
</g>
<g transform="translate(29.1542,108.4313)">
<path transform="scale(0.0040, -0.0040)" d="M212 138c68 0 113 -38 113 -95c0 -90 -109 -181 -212 -181c-68 0 -113 38 -113 95c0 90 109 181 212 181z" fill="currentColor"/>
</g>
<g transform="translate(28.5669,114.2201)">
<text font-family="Songti SC" font-size="2.7" text-anchor="start" fill="currentColor">
<tspan font-size="2.7">你</tspan>
</text>
</g>
<g transform="translate(30.3794,107.9313)">
<rect x="-0.0757" y="-3.0000" width="0.1514" height="3.3287" ry="0.0500" fill="currentColor"/>
</g>
<g transform="translate(30.4551,104.9813)">
<path transform="scale(0.0040, -0.0040)" d="M0 -250h-19v250h19c0 -197 207 -334 207 -531c0 -71 -15 -140 -41 -206c-5 -9 -14 -13 -22 -13c-14 0 -29 12 -26 30c26 60 43 124 43 189c0 102 -92 206 -161 281z" fill="currentColor"/>
</g>
<g transform="translate(108.7443,107.9313)">
<path stroke-width="0.0931" stroke-linejoin="round" stroke-linecap="round" stroke="currentColor" fill="currentColor" d="M0.6841 -1.6286C1.8245 -2.8209 4.1930 -2.6365 5.1794 -1.2786L5.1794 -1.2786C4.1821 -2.4972 1.8137 -2.6816 0.6841 -1.6286z"/>
</g>
<g transform="translate(33.7024,108.4313)">
<path transform="scale(0.0040, -0.0040)" d="M212 138c68 0 113 -38 113 -95c0 -90 -109 -181 -212 -181c-68 0 -113 38 -113 95c0 90 109 181 212 181z" fill="currentColor"/>
</g>
<g transform="translate(33.1151,114.2201)">
<text font-family="Songti SC" font-size="2.7" text-anchor="start" fill="currentColor">
<tspan font-size="2.7">同</tspan>
</text>
</g>
<g transform="translate(34.9276,107.9313)">
<rect x="-0.0757" y="-3.0000" width="0.1514" height="3.3287" ry="0.0500" fill="currentColor"/>
</g>
<g transform="translate(41.3922,108.4313)">
<path transform="scale(0.0040, -0.0040)" d="M212 138c68 0 113 -38 113 -95c0 -90 -109 -181 -212 -181c-68 0 -113 38 -113 95c0 90 109 181 212 181z" fill="currentColor"/>
</g>
<g transform="translate(40.8049,114.2201)">
<text font-family="Songti SC" font-size="2.7" text-anchor="start" fill="currentColor">
<tspan font-size="2.7">为</tspan>
</text>
</g>
<g transform="translate(42.6173,107.9313)">
<rect x="-0.0757" y="-3.0000" width="0.1514" height="3.3287" ry="0.0500" fill="currentColor"/>
</g>
<g transform="translate(99.5037,107.9313)">
<path stroke-width="0.0931" stroke-linejoin="round" stroke-linecap="round" stroke="currentColor" fill="currentColor" d="M0.5610 -1.2027C1.4472 -2.4510 3.9917 -2.9872 5.3063 -2.2027L5.3063 -2.2027C4.0205 -2.8505 1.4760 -2.3142 0.5610 -1.2027z"/>
</g>
<g transform="translate(99.5037,110.9313)">
<polygon stroke-linejoin="round" stroke-linecap="round" stroke-width="0.1000" fill="currentColor" stroke="currentColor" points="13.8372 -0.1900 13.8372 0.1900 0.0500 0.1900 0.0500 -0.1900"/>
</g>
<g transform="translate(51.2504,107.4313)">
<path transform="scale(0.0040, -0.0040)" d="M212 138c68 0 113 -38 113 -95c0 -90 -109 -181 -212 -181c-68 0 -113 38 -113 95c0 90 109 181 212 181z" fill="currentColor"/>
</g>
<g transform="translate(50.6631,114.2201)">
<text font-family="Songti SC" font-size="2.7" text-anchor="start" fill="currentColor">
<tspan font-size="2.7">父</tspan>
</text>
</g>
<g transform="translate(52.9927,107.4313)">
<path transform="scale(0.0040, -0.0040)" d="M0 0c0 30 25 55 55 55s55 -25 55 -55s-25 -55 -55 -55s-55 25 -55 55z" fill="currentColor"/>
</g>
<g transform="translate(51.3261,107.9313)">
<rect x="-0.0757" y="-0.3287" width="0.1514" height="3.3287" ry="0.0500" fill="currentColor"/>
</g>
<g transform="translate(60.8088,107.9313)">
<path transform="scale(0.0040, -0.0040)" d="M212 138c68 0 113 -38 113 -95c0 -90 -109 -181 -212 -181c-68 0 -113 38 -113 95c0 90 109 181 212 181z" fill="currentColor"/>
</g>
<g transform="translate(60.2215,114.2201)">
<text font-family="Songti SC" font-size="2.7" text-anchor="start" fill="currentColor">
<tspan font-size="2.7">的</tspan>
</text>
</g>
<g transform="translate(60.8844,107.9313)">
<rect x="-0.0757" y="0.1713" width="0.1514" height="3.2037" ry="0.0500" fill="currentColor"/>
</g>
<g transform="translate(60.9601,111.2563)">
<path transform="scale(0.0040, -0.0040)" d="M0 0h-19v250h19v-250zM0 0v250c95 59 220 149 220 259c0 56 -16 111 -41 161c-3 18 12 30 26 30c8 0 17 -4 22 -13c25 -56 40 -116 40 -178c0 -203 -267 -306 -267 -509z" fill="currentColor"/>
</g>
<g transform="translate(65.304,107.9313)">
<path transform="scale(0.0040, -0.0040)" d="M212 138c68 0 113 -38 113 -95c0 -90 -109 -181 -212 -181c-68 0 -113 38 -113 95c0 90 109 181 212 181z" fill="currentColor"/>
</g>
<g transform="translate(65.304,114.2201)">
<text font-family="Songti SC" font-size="2.7" text-anchor="start" fill="currentColor">
<tspan font-size="2.7">后</tspan>
</text>
</g>
<g transform="translate(66.5292,107.9313)">
<rect x="-0.0757" y="-3.1759" width="0.1514" height="3.0045" ry="0.0500" fill="currentColor"/>
</g>
<g transform="translate(69.7993,108.4313)">
<path transform="scale(0.0040, -0.0040)" d="M212 138c68 0 113 -38 113 -95c0 -90 -109 -181 -212 -181c-68 0 -113 38 -113 95c0 90 109 181 212 181z" fill="currentColor"/>
</g>
<g transform="translate(71.0245,107.9313)">
<rect x="-0.0757" y="-2.8241" width="0.1514" height="3.1528" ry="0.0500" fill="currentColor"/>
</g>
<g transform="translate(74.2946,108.4313)">
<path transform="scale(0.0040, -0.0040)" d="M212 138c68 0 113 -38 113 -95c0 -90 -109 -181 -212 -181c-68 0 -113 38 -113 95c0 90 109 181 212 181z" fill="currentColor"/>
</g>
<g transform="translate(72.4696,114.2201)">
<text font-family="Songti SC" font-size="2.7" text-anchor="start" fill="currentColor">
<tspan font-size="2.7">嗣，</tspan>
</text>
</g>
<g transform="translate(75.5198,107.9313)">
<rect x="-0.0757" y="-3.0000" width="0.1514" height="3.3287" ry="0.0500" fill="currentColor"/>
</g>
<g transform="translate(65.304,107.9313)">
<path stroke-width="0.0931" stroke-linejoin="round" stroke-linecap="round" stroke="currentColor" fill="currentColor" d="M0.6168 1.2786C1.6031 2.6365 3.9716 2.8209 5.1120 1.6286L5.1120 1.6286C3.9824 2.6816 1.6140 2.4972 0.6168 1.2786z"/>
</g>
<g transform="translate(66.4535,104.7495)">
<polygon stroke-linejoin="round" stroke-linecap="round" stroke-width="0.1000" fill="currentColor" stroke="currentColor" points="4.5966 0.1736 4.5966 0.5536 0.0500 0.1900 0.0500 -0.1900"/>
</g>
<g transform="translate(84.1243,104.42150000000001)">
<text font-family="Hiragino Sans GB" font-size="1.9604" text-anchor="start" fill="currentColor">
<tspan>D</tspan>
</text>
</g>
<g transform="translate(84.1243,107.9313)">
<path transform="scale(0.0040, -0.0040)" d="M212 138c68 0 113 -38 113 -95c0 -90 -109 -181 -212 -181c-68 0 -113 38 -113 95c0 90 109 181 212 181z" fill="currentColor"/>
</g>
<g transform="translate(83.537,114.2201)">
<text font-family="Songti SC" font-size="2.7" text-anchor="start" fill="currentColor">
<tspan font-size="2.7">并</tspan>
</text>
</g>
<g transform="translate(91.814,107.9313)">
<path transform="scale(0.0040, -0.0040)" d="M212 138c68 0 113 -38 113 -95c0 -90 -109 -181 -212 -181c-68 0 -113 38 -113 95c0 90 109 181 212 181z" fill="currentColor"/>
</g>
<g transform="translate(91.2267,114.2201)">
<text font-family="Songti SC" font-size="2.7" text-anchor="start" fill="currentColor">
<tspan font-size="2.7">作</tspan>
</text>
</g>
<g transform="translate(91.8897,107.9313)">
<rect x="-0.0757" y="0.1713" width="0.1514" height="3.1620" ry="0.0500" fill="currentColor"/>
</g>
<g transform="translate(99.5037,107.9313)">
<path transform="scale(0.0040, -0.0040)" d="M212 138c68 0 113 -38 113 -95c0 -90 -109 -181 -212 -181c-68 0 -113 38 -113 95c0 90 109 181 212 181z" fill="currentColor"/>
</g>
<g transform="translate(99.5037,114.2201)">
<text font-family="Songti SC" font-size="2.7" text-anchor="start" fill="currentColor">
<tspan font-size="2.7">圣</tspan>
</text>
</g>
<g transform="translate(99.5794,107.9313)">
<rect x="-0.0757" y="0.1713" width="0.1514" height="2.8287" ry="0.0500" fill="currentColor"/>
</g>
<g transform="translate(104.249,106.9313)">
<path transform="scale(0.0040, -0.0040)" d="M212 138c68 0 113 -38 113 -95c0 -90 -109 -181 -212 -181c-68 0 -113 38 -113 95c0 90 109 181 212 181z" fill="currentColor"/>
</g>
<g transform="translate(104.3247,107.9313)">
<rect x="-0.0757" y="-0.8287" width="0.1514" height="3.8287" ry="0.0500" fill="currentColor"/>
</g>
<g transform="translate(108.7443,107.4313)">
<path transform="scale(0.0040, -0.0040)" d="M212 138c68 0 113 -38 113 -95c0 -90 -109 -181 -212 -181c-68 0 -113 38 -113 95c0 90 109 181 212 181z" fill="currentColor"/>
</g>
<g transform="translate(108.7443,114.2201)">
<text font-family="Songti SC" font-size="2.7" text-anchor="start" fill="currentColor">
<tspan font-size="2.7">灵</tspan>
</text>
</g>
<g transform="translate(108.82,107.9313)">
<rect x="-0.0757" y="-0.3287" width="0.1514" height="3.3287" ry="0.0500" fill="currentColor"/>
</g>
<g transform="translate(113.2396,107.9313)">
<path transform="scale(0.0040, -0.0040)" d="M212 138c68 0 113 -38 113 -95c0 -90 -109 -181 -212 -181c-68 0 -113 38 -113 95c0 90 109 181 212 181z" fill="currentColor"/>
</g>
<g transform="translate(113.3153,107.9313)">
<rect x="-0.0757" y="0.1713" width="0.1514" height="2.8287" ry="0.0500" fill="currentColor"/>
</g>
<g transform="translate(119.4734,104.42150000000001)">
<text font-family="Hiragino Sans GB" font-size="1.9604" text-anchor="start" fill="currentColor">
<tspan>G</tspan>
</text>
</g>
<g transform="translate(119.4734,108.4313)">
<path transform="scale(0.0040, -0.0040)" d="M212 138c68 0 113 -38 113 -95c0 -90 -109 -181 -212 -181c-68 0 -113 38 -113 95c0 90 109 181 212 181z" fill="currentColor"/>
</g>
<g transform="translate(118.8861,114.2201)">
<text font-family="Songti SC" font-size="2.7" text-anchor="start" fill="currentColor">
<tspan font-size="2.7">的</tspan>
</text>
</g>
<g transform="translate(120.6985,107.9313)">
<rect x="-0.0757" y="-3.0000" width="0.1514" height="3.3287" ry="0.0500" fill="currentColor"/>
</g>
<g transform="translate(127.1631,104.42150000000001)">
<text font-family="Hiragino Sans GB" font-size="1.9604" text-anchor="start" fill="currentColor">
<tspan>D</tspan>
</text>
</g>
<g transform="translate(128.6569,103.53059999999999)">
<text font-family="Hiragino Sans GB" font-size="1.3856" text-anchor="start" fill="currentColor">
<tspan>7</tspan>
</text>
</g>
<g transform="translate(127.1631,108.9313)">
<path transform="scale(0.0040, -0.0040)" d="M212 138c68 0 113 -38 113 -95c0 -90 -109 -181 -212 -181c-68 0 -113 38 -113 95c0 90 109 181 212 181z" fill="currentColor"/>
</g>
<g transform="translate(126.5758,114.2201)">
<text font-family="Songti SC" font-size="2.7" text-anchor="start" fill="currentColor">
<tspan font-size="2.7">房</tspan>
</text>
</g>
<g transform="translate(128.3883,107.9313)">
<rect x="-0.0757" y="-2.5000" width="0.1514" height="3.3287" ry="0.0500" fill="currentColor"/>
</g>
<g transform="translate(134.8528,104.42150000000001)">
<text font-family="Hiragino Sans GB" font-size="1.9604" text-anchor="start" fill="currentColor">
<tspan>G</tspan>
</text>
</g>
<g transform="translate(134.8528,108.4313)">
<path transform="scale(0.0040, -0.0040)" d="M310 63c0 22 -17 40 -40 40c-38 0 -197 -107 -224 -139c-7 -8 -10 -17 -10 -27c0 -22 17 -40 40 -40c38 0 197 107 224 139c7 8 10 17 10 27zM256 138c55 0 90 -22 90 -77c0 -25 -15 -112 -73 -151c-34 -23 -92 -48 -183 -48c-55 0 -90 22 -90 77c0 25 15 112 73 151 c34 23 92 48 183 48z" fill="currentColor"/>
</g>
<g transform="translate(133.0694,114.2201)">
<text font-family="Songti SC" font-size="2.7" text-anchor="start" fill="currentColor">
<tspan font-size="2.7">屋。</tspan>
</text>
</g>
<g transform="translate(136.161,107.9313)">
<rect x="-0.0757" y="-3.0000" width="0.1514" height="3.2544" ry="0.0500" fill="currentColor"/>
</g>
<g transform="translate(67.8148,159.9313)">
<text font-family="Songti SC" font-size="1.5560" text-anchor="start" fill="currentColor">
<tspan> </tspan>
</text>
</g>
<g transform="translate(67.8148,185.9313)">
<text font-family="Songti SC" font-size="1.5560" text-anchor="start" fill="currentColor">
<tspan> </tspan>
</text>
</g>
<g transform="translate(67.8148,211.9313)">
<text font-family="Songti SC" font-size="1.5560" text-anchor="start" fill="currentColor">
<tspan> </tspan>
</text>
</g>
<g transform="translate(69.8408,247.9677)">
<text font-family="Trebuchet MS" font-size="2.2001" text-anchor="start" fill="currentColor">
<tspan>www.hymnal.net</tspan>
</text>
</g>
<g transform="translate(18.8477,39.5722)">
<text font-family="Songti SC" font-weight="bold" font-size="2.7" text-anchor="start" fill="currentColor">2.</text></g>
<g transform="translate(21.3415,39.5722)">
<text font-family="Songti SC" font-size="2.7" text-anchor="start" fill="currentColor">与</text></g>
<g transform="translate(30.8946,39.5722)">
<text font-family="Songti SC" font-size="2.7" text-anchor="start" fill="currentColor">你</text></g>
<g transform="translate(35.4408,39.5722)">
<text font-family="Songti SC" font-size="2.7" text-anchor="start" fill="currentColor">合</text></g>
<g transform="translate(41.8887,39.5722)">
<text font-family="Songti SC" font-size="2.7" text-anchor="start" fill="currentColor">一</text></g>
<g transform="translate(52.9798,39.5722)">
<text font-family="Songti SC" font-size="2.7" text-anchor="start" fill="currentColor">化</text></g>
<g transform="translate(62.5329,39.5722)">
<text font-family="Songti SC" font-size="2.7" text-anchor="start" fill="currentColor">身</text></g>
<g transform="translate(67.6135,39.5722)">
<text font-family="Songti SC" font-size="2.7" text-anchor="start" fill="currentColor">之</text></g>
<g transform="translate(74.775,39.5722)">
<text font-family="Songti SC" font-size="2.7" text-anchor="start" fill="currentColor">子</text></g>
<g transform="translate(85.8375,39.5722)">
<text font-family="Songti SC" font-size="2.7" text-anchor="start" fill="currentColor">作</text></g>
<g transform="translate(95.3906,39.5722)">
<text font-family="Songti SC" font-size="2.7" text-anchor="start" fill="currentColor">你</text></g>
<g transform="translate(99.8839,39.5722)">
<text font-family="Songti SC" font-size="2.7" text-anchor="start" fill="currentColor">奥</text></g>
<g transform="translate(107.5695,39.5722)">
<text font-family="Songti SC" font-size="2.7" text-anchor="start" fill="currentColor">秘</text></g>
<g transform="translate(117.1546,39.5722)">
<text font-family="Songti SC" font-size="2.7" text-anchor="start" fill="currentColor">的</text></g>
<g transform="translate(126.7077,39.5722)">
<text font-family="Songti SC" font-size="2.7" text-anchor="start" fill="currentColor">肢</text></g>
<g transform="translate(131.7882,39.5722)">
<text font-family="Songti SC" font-size="2.7" text-anchor="start" fill="currentColor">体</text></g>
<g transform="translate(19.0086,65.94380000000001)">
<text font-family="Songti SC" font-size="2.7" text-anchor="start" fill="currentColor">因</text></g>
<g transform="translate(28.6535,65.94380000000001)">
<text font-family="Songti SC" font-size="2.7" text-anchor="start" fill="currentColor">你</text></g>
<g transform="translate(33.2352,65.94380000000001)">
<text font-family="Songti SC" font-size="2.7" text-anchor="start" fill="currentColor">诞</text></g>
<g transform="translate(40.9919,65.94380000000001)">
<text font-family="Songti SC" font-size="2.7" text-anchor="start" fill="currentColor">生</text></g>
<g transform="translate(50.9297,65.94380000000001)">
<text font-family="Songti SC" font-size="2.7" text-anchor="start" fill="currentColor">与</text></g>
<g transform="translate(60.5746,65.94380000000001)">
<text font-family="Songti SC" font-size="2.7" text-anchor="start" fill="currentColor">你</text></g>
<g transform="translate(65.6906,65.94380000000001)">
<text font-family="Songti SC" font-size="2.7" text-anchor="start" fill="currentColor">连</text></g>
<g transform="translate(72.9232,65.94380000000001)">
<text font-family="Songti SC" font-size="2.7" text-anchor="start" fill="currentColor">枝</text></g>
<g transform="translate(84.0701,65.94380000000001)">
<text font-family="Songti SC" font-size="2.7" text-anchor="start" fill="currentColor">与</text></g>
<g transform="translate(91.8268,65.94380000000001)">
<text font-family="Songti SC" font-size="2.7" text-anchor="start" fill="currentColor">你</text></g>
<g transform="translate(100.1707,65.94380000000001)">
<text font-family="Songti SC" font-size="2.7" text-anchor="start" fill="currentColor">一</text></g>
<g transform="translate(109.4782,65.94380000000001)">
<text font-family="Songti SC" font-size="2.7" text-anchor="start" fill="currentColor">同</text></g>
<g transform="translate(119.6996,65.94380000000001)">
<text font-family="Songti SC" font-size="2.7" text-anchor="start" fill="currentColor">客</text></g>
<g transform="translate(127.4563,65.94380000000001)">
<text font-family="Songti SC" font-size="2.7" text-anchor="start" fill="currentColor">此</text></g>
<g transform="translate(134.0168,65.94380000000001)">
<text font-family="Songti SC" font-size="2.7" text-anchor="start" fill="currentColor">地</text></g>
<g transform="translate(19.0086,91.9342)">
<text font-family="Songti SC" font-size="2.7" text-anchor="start" fill="currentColor">与</text></g>
<g transform="translate(28.7796,91.9342)">
<text font-family="Songti SC" font-size="2.7" text-anchor="start" fill="currentColor">你</text></g>
<g transform="translate(33.3571,91.9342)">
<text font-family="Songti SC" font-size="2.7" text-anchor="start" fill="currentColor">合</text></g>
<g transform="translate(39.9737,91.9342)">
<text font-family="Songti SC" font-size="2.7" text-anchor="start" fill="currentColor">一</text></g>
<g transform="translate(50.9395,91.9342)">
<text font-family="Songti SC" font-size="2.7" text-anchor="start" fill="currentColor">受</text></g>
<g transform="translate(60.688,91.9342)">
<text font-family="Songti SC" font-size="2.7" text-anchor="start" fill="currentColor">膏</text></g>
<g transform="translate(65.9057,91.9342)">
<text font-family="Songti SC" font-size="2.7" text-anchor="start" fill="currentColor">之</text></g>
<g transform="translate(73.2359,91.9342)">
<text font-family="Songti SC" font-size="2.7" text-anchor="start" fill="currentColor">子</text></g>
<g transform="translate(84.5629,91.9342)">
<text font-family="Songti SC" font-size="2.7" text-anchor="start" fill="currentColor">同</text></g>
<g transform="translate(94.3339,91.9342)">
<text font-family="Songti SC" font-size="2.7" text-anchor="start" fill="currentColor">得</text></g>
<g transform="translate(98.9114,91.9342)">
<text font-family="Songti SC" font-size="2.7" text-anchor="start" fill="currentColor">圣</text></g>
<g transform="translate(106.7657,91.9342)">
<text font-family="Songti SC" font-size="2.7" text-anchor="start" fill="currentColor">灵</text></g>
<g transform="translate(116.5152,91.9342)">
<text font-family="Songti SC" font-size="2.7" text-anchor="start" fill="currentColor">的</text></g>
<g transform="translate(126.2862,91.9342)">
<text font-family="Songti SC" font-size="2.7" text-anchor="start" fill="currentColor">能</text></g>
<g transform="translate(131.451,91.9342)">
<text font-family="Songti SC" font-size="2.7" text-anchor="start" fill="currentColor">力</text></g>
<g transform="translate(19.0086,118.2201)">
<text font-family="Songti SC" font-size="2.7" text-anchor="start" fill="currentColor">日</text></g>
<g transform="translate(28.5669,118.2201)">
<text font-family="Songti SC" font-size="2.7" text-anchor="start" fill="currentColor">复</text></g>
<g transform="translate(33.1151,118.2201)">
<text font-family="Songti SC" font-size="2.7" text-anchor="start" fill="currentColor">一</text></g>
<g transform="translate(40.8049,118.2201)">
<text font-family="Songti SC" font-size="2.7" text-anchor="start" fill="currentColor">日</text></g>
<g transform="translate(50.6631,118.2201)">
<text font-family="Songti SC" font-size="2.7" text-anchor="start" fill="currentColor">时</text></g>
<g transform="translate(60.2215,118.2201)">
<text font-family="Songti SC" font-size="2.7" text-anchor="start" fill="currentColor">复</text></g>
<g transform="translate(65.304,118.2201)">
<text font-family="Songti SC" font-size="2.7" text-anchor="start" fill="currentColor">一</text></g>
<g transform="translate(72.4696,118.2201)">
<text font-family="Songti SC" font-size="2.7" text-anchor="start" fill="currentColor">时</text></g>
<g transform="translate(83.537,118.2201)">
<text font-family="Songti SC" font-size="2.7" text-anchor="start" fill="currentColor">与</text></g>
<g transform="translate(91.2267,118.2201)">
<text font-family="Songti SC" font-size="2.7" text-anchor="start" fill="currentColor">你</text></g>
<g transform="translate(99.5037,118.2201)">
<text font-family="Songti SC" font-size="2.7" text-anchor="start" fill="currentColor">合</text></g>
<g transform="translate(108.7443,118.2201)">
<text font-family="Songti SC" font-size="2.7" text-anchor="start" fill="currentColor">作</text></g>
<g transform="translate(118.8861,118.2201)">
<text font-family="Songti SC" font-size="2.7" text-anchor="start" fill="currentColor">不</text></g>
<g transform="translate(126.5758,118.2201)">
<text font-family="Songti SC" font-size="2.7" text-anchor="start" fill="currentColor">稍</text></g>
<g transform="translate(133.0694,118.2201)">
<text font-family="Songti SC" font-size="2.7" text-anchor="start" fill="currentColor">离</text></g>
<g transform="translate(18.8477,43.5722)">
<text font-family="Songti SC" font-weight="bold" font-size="2.7" text-anchor="start" fill="currentColor">3.</text></g>
<g transform="translate(21.3415,43.5722)">
<text font-family="Songti SC" font-size="2.7" text-anchor="start" fill="currentColor">与</text></g>
<g transform="translate(30.8946,43.5722)">
<text font-family="Songti SC" font-size="2.7" text-anchor="start" fill="currentColor">你</text></g>
<g transform="translate(35.4408,43.5722)">
<text font-family="Songti SC" font-size="2.7" text-anchor="start" fill="currentColor">合</text></g>
<g transform="translate(41.8887,43.5722)">
<text font-family="Songti SC" font-size="2.7" text-anchor="start" fill="currentColor">一</text></g>
<g transform="translate(52.9798,43.5722)">
<text font-family="Songti SC" font-size="2.7" text-anchor="start" fill="currentColor">被</text></g>
<g transform="translate(62.5329,43.5722)">
<text font-family="Songti SC" font-size="2.7" text-anchor="start" fill="currentColor">弃</text></g>
<g transform="translate(67.6135,43.5722)">
<text font-family="Songti SC" font-size="2.7" text-anchor="start" fill="currentColor">之</text></g>
<g transform="translate(74.775,43.5722)">
<text font-family="Songti SC" font-size="2.7" text-anchor="start" fill="currentColor">子</text></g>
<g transform="translate(85.8375,43.5722)">
<text font-family="Songti SC" font-size="2.7" text-anchor="start" fill="currentColor">经</text></g>
<g transform="translate(95.3906,43.5722)">
<text font-family="Songti SC" font-size="2.7" text-anchor="start" fill="currentColor">过</text></g>
<g transform="translate(99.8839,43.5722)">
<text font-family="Songti SC" font-size="2.7" text-anchor="start" fill="currentColor">审</text></g>
<g transform="translate(107.5695,43.5722)">
<text font-family="Songti SC" font-size="2.7" text-anchor="start" fill="currentColor">判</text></g>
<g transform="translate(117.1546,43.5722)">
<text font-family="Songti SC" font-size="2.7" text-anchor="start" fill="currentColor">和</text></g>
<g transform="translate(126.7077,43.5722)">
<text font-family="Songti SC" font-size="2.7" text-anchor="start" fill="currentColor">咒</text></g>
<g transform="translate(131.7882,43.5722)">
<text font-family="Songti SC" font-size="2.7" text-anchor="start" fill="currentColor">诅</text></g>
<g transform="translate(19.0086,69.94380000000001)">
<text font-family="Songti SC" font-size="2.7" text-anchor="start" fill="currentColor">永</text></g>
<g transform="translate(28.6535,69.94380000000001)">
<text font-family="Songti SC" font-size="2.7" text-anchor="start" fill="currentColor">远</text></g>
<g transform="translate(33.2352,69.94380000000001)">
<text font-family="Songti SC" font-size="2.7" text-anchor="start" fill="currentColor">同</text></g>
<g transform="translate(40.9919,69.94380000000001)">
<text font-family="Songti SC" font-size="2.7" text-anchor="start" fill="currentColor">你</text></g>
<g transform="translate(50.9297,69.94380000000001)">
<text font-family="Songti SC" font-size="2.7" text-anchor="start" fill="currentColor">向</text></g>
<g transform="translate(60.5746,69.94380000000001)">
<text font-family="Songti SC" font-size="2.7" text-anchor="start" fill="currentColor">罪</text></g>
<g transform="translate(65.6906,69.94380000000001)">
<text font-family="Songti SC" font-size="2.7" text-anchor="start" fill="currentColor">而</text></g>
<g transform="translate(72.9232,69.94380000000001)">
<text font-family="Songti SC" font-size="2.7" text-anchor="start" fill="currentColor">死</text></g>
<g transform="translate(84.0701,69.94380000000001)">
<text font-family="Songti SC" font-size="2.7" text-anchor="start" fill="currentColor">并</text></g>
<g transform="translate(91.8268,69.94380000000001)">
<text font-family="Songti SC" font-size="2.7" text-anchor="start" fill="currentColor">胜</text></g>
<g transform="translate(100.1707,69.94380000000001)">
<text font-family="Songti SC" font-size="2.7" text-anchor="start" fill="currentColor">凶</text></g>
<g transform="translate(109.4782,69.94380000000001)">
<text font-family="Songti SC" font-size="2.7" text-anchor="start" fill="currentColor">恶</text></g>
<g transform="translate(119.6996,69.94380000000001)">
<text font-family="Songti SC" font-size="2.7" text-anchor="start" fill="currentColor">的</text></g>
<g transform="translate(127.4563,69.94380000000001)">
<text font-family="Songti SC" font-size="2.7" text-anchor="start" fill="currentColor">阴</text></g>
<g transform="translate(134.0168,69.94380000000001)">
<text font-family="Songti SC" font-size="2.7" text-anchor="start" fill="currentColor">府</text></g>
<g transform="translate(19.0086,95.9342)">
<text font-family="Songti SC" font-size="2.7" text-anchor="start" fill="currentColor">与</text></g>
<g transform="translate(28.7796,95.9342)">
<text font-family="Songti SC" font-size="2.7" text-anchor="start" fill="currentColor">你</text></g>
<g transform="translate(33.3571,95.9342)">
<text font-family="Songti SC" font-size="2.7" text-anchor="start" fill="currentColor">合</text></g>
<g transform="translate(39.9737,95.9342)">
<text font-family="Songti SC" font-size="2.7" text-anchor="start" fill="currentColor">一</text></g>
<g transform="translate(50.9395,95.9342)">
<text font-family="Songti SC" font-size="2.7" text-anchor="start" fill="currentColor">复</text></g>
<g transform="translate(60.688,95.9342)">
<text font-family="Songti SC" font-size="2.7" text-anchor="start" fill="currentColor">活</text></g>
<g transform="translate(65.9057,95.9342)">
<text font-family="Songti SC" font-size="2.7" text-anchor="start" fill="currentColor">之</text></g>
<g transform="translate(73.2359,95.9342)">
<text font-family="Songti SC" font-size="2.7" text-anchor="start" fill="currentColor">子</text></g>
<g transform="translate(84.5629,95.9342)">
<text font-family="Songti SC" font-size="2.7" text-anchor="start" fill="currentColor">脱</text></g>
<g transform="translate(94.3339,95.9342)">
<text font-family="Songti SC" font-size="2.7" text-anchor="start" fill="currentColor">离</text></g>
<g transform="translate(98.9114,95.9342)">
<text font-family="Songti SC" font-size="2.7" text-anchor="start" fill="currentColor">坟</text></g>
<g transform="translate(106.7657,95.9342)">
<text font-family="Songti SC" font-size="2.7" text-anchor="start" fill="currentColor">墓</text></g>
<g transform="translate(116.5152,95.9342)">
<text font-family="Songti SC" font-size="2.7" text-anchor="start" fill="currentColor">的</text></g>
<g transform="translate(126.2862,95.9342)">
<text font-family="Songti SC" font-size="2.7" text-anchor="start" fill="currentColor">埋</text></g>
<g transform="translate(131.451,95.9342)">
<text font-family="Songti SC" font-size="2.7" text-anchor="start" fill="currentColor">没</text></g>
<g transform="translate(19.0086,122.2201)">
<text font-family="Songti SC" font-size="2.7" text-anchor="start" fill="currentColor">因</text></g>
<g transform="translate(28.5669,122.2201)">
<text font-family="Songti SC" font-size="2.7" text-anchor="start" fill="currentColor">你</text></g>
<g transform="translate(33.1151,122.2201)">
<text font-family="Songti SC" font-size="2.7" text-anchor="start" fill="currentColor">更</text></g>
<g transform="translate(40.8049,122.2201)">
<text font-family="Songti SC" font-size="2.7" text-anchor="start" fill="currentColor">生</text></g>
<g transform="translate(50.6631,122.2201)">
<text font-family="Songti SC" font-size="2.7" text-anchor="start" fill="currentColor">同</text></g>
<g transform="translate(60.2215,122.2201)">
<text font-family="Songti SC" font-size="2.7" text-anchor="start" fill="currentColor">你</text></g>
<g transform="translate(65.304,122.2201)">
<text font-family="Songti SC" font-size="2.7" text-anchor="start" fill="currentColor">更</text></g>
<g transform="translate(72.4696,122.2201)">
<text font-family="Songti SC" font-size="2.7" text-anchor="start" fill="currentColor">始</text></g>
<g transform="translate(83.537,122.2201)">
<text font-family="Songti SC" font-size="2.7" text-anchor="start" fill="currentColor">靠</text></g>
<g transform="translate(91.2267,122.2201)">
<text font-family="Songti SC" font-size="2.7" text-anchor="start" fill="currentColor">你</text></g>
<g transform="translate(99.5037,122.2201)">
<text font-family="Songti SC" font-size="2.7" text-anchor="start" fill="currentColor">逐</text></g>
<g transform="translate(108.7443,122.2201)">
<text font-family="Songti SC" font-size="2.7" text-anchor="start" fill="currentColor">日</text></g>
<g transform="translate(118.8861,122.2201)">
<text font-family="Songti SC" font-size="2.7" text-anchor="start" fill="currentColor">结</text></g>
<g transform="translate(126.5758,122.2201)">
<text font-family="Songti SC" font-size="2.7" text-anchor="start" fill="currentColor">义</text></g>
<g transform="translate(133.0694,122.2201)">
<text font-family="Songti SC" font-size="2.7" text-anchor="start" fill="currentColor">果</text></g>
<g transform="translate(18.8477,47.5722)">
<text font-family="Songti SC" font-weight="bold" font-size="2.7" text-anchor="start" fill="currentColor">4.</text></g>
<g transform="translate(21.3415,47.5722)">
<text font-family="Songti SC" font-size="2.7" text-anchor="start" fill="currentColor">与</text></g>
<g transform="translate(30.8946,47.5722)">
<text font-family="Songti SC" font-size="2.7" text-anchor="start" fill="currentColor">你</text></g>
<g transform="translate(35.4408,47.5722)">
<text font-family="Songti SC" font-size="2.7" text-anchor="start" fill="currentColor">合</text></g>
<g transform="translate(41.8887,47.5722)">
<text font-family="Songti SC" font-size="2.7" text-anchor="start" fill="currentColor">一</text></g>
<g transform="translate(52.9798,47.5722)">
<text font-family="Songti SC" font-size="2.7" text-anchor="start" fill="currentColor">升</text></g>
<g transform="translate(62.5329,47.5722)">
<text font-family="Songti SC" font-size="2.7" text-anchor="start" fill="currentColor">天</text></g>
<g transform="translate(67.6135,47.5722)">
<text font-family="Songti SC" font-size="2.7" text-anchor="start" fill="currentColor">之</text></g>
<g transform="translate(74.775,47.5722)">
<text font-family="Songti SC" font-size="2.7" text-anchor="start" fill="currentColor">子</text></g>
<g transform="translate(85.8375,47.5722)">
<text font-family="Songti SC" font-size="2.7" text-anchor="start" fill="currentColor">同</text></g>
<g transform="translate(95.3906,47.5722)">
<text font-family="Songti SC" font-size="2.7" text-anchor="start" fill="currentColor">登</text></g>
<g transform="translate(99.8839,47.5722)">
<text font-family="Songti SC" font-size="2.7" text-anchor="start" fill="currentColor">宝</text></g>
<g transform="translate(107.5695,47.5722)">
<text font-family="Songti SC" font-size="2.7" text-anchor="start" fill="currentColor">座</text></g>
<g transform="translate(117.1546,47.5722)">
<text font-family="Songti SC" font-size="2.7" text-anchor="start" fill="currentColor">来</text></g>
<g transform="translate(126.7077,47.5722)">
<text font-family="Songti SC" font-size="2.7" text-anchor="start" fill="currentColor">管</text></g>
<g transform="translate(131.7882,47.5722)">
<text font-family="Songti SC" font-size="2.7" text-anchor="start" fill="currentColor">治</text></g>
<g transform="translate(19.0086,73.94380000000001)">
<text font-family="Songti SC" font-size="2.7" text-anchor="start" fill="currentColor">你</text></g>
<g transform="translate(28.6535,73.94380000000001)">
<text font-family="Songti SC" font-size="2.7" text-anchor="start" fill="currentColor">的</text></g>
<g transform="translate(33.2352,73.94380000000001)">
<text font-family="Songti SC" font-size="2.7" text-anchor="start" fill="currentColor">权</text></g>
<g transform="translate(40.9919,73.94380000000001)">
<text font-family="Songti SC" font-size="2.7" text-anchor="start" fill="currentColor">柄</text></g>
<g transform="translate(50.9297,73.94380000000001)">
<text font-family="Songti SC" font-size="2.7" text-anchor="start" fill="currentColor">我</text></g>
<g transform="translate(60.5746,73.94380000000001)">
<text font-family="Songti SC" font-size="2.7" text-anchor="start" fill="currentColor">也</text></g>
<g transform="translate(65.6906,73.94380000000001)">
<text font-family="Songti SC" font-size="2.7" text-anchor="start" fill="currentColor">掌</text></g>
<g transform="translate(72.9232,73.94380000000001)">
<text font-family="Songti SC" font-size="2.7" text-anchor="start" fill="currentColor">执</text></g>
<g transform="translate(84.0701,73.94380000000001)">
<text font-family="Songti SC" font-size="2.7" text-anchor="start" fill="currentColor">因</text></g>
<g transform="translate(91.8268,73.94380000000001)">
<text font-family="Songti SC" font-size="2.7" text-anchor="start" fill="currentColor">我</text></g>
<g transform="translate(100.1707,73.94380000000001)">
<text font-family="Songti SC" font-size="2.7" text-anchor="start" fill="currentColor">和</text></g>
<g transform="translate(109.4782,73.94380000000001)">
<text font-family="Songti SC" font-size="2.7" text-anchor="start" fill="currentColor">你</text></g>
<g transform="translate(119.6996,73.94380000000001)">
<text font-family="Songti SC" font-size="2.7" text-anchor="start" fill="currentColor">同</text></g>
<g transform="translate(127.4563,73.94380000000001)">
<text font-family="Songti SC" font-size="2.7" text-anchor="start" fill="currentColor">位</text></g>
<g transform="translate(134.0168,73.94380000000001)">
<text font-family="Songti SC" font-size="2.7" text-anchor="start" fill="currentColor">置</text></g>
<g transform="translate(19.0086,99.9342)">
<text font-family="Songti SC" font-size="2.7" text-anchor="start" fill="currentColor">与</text></g>
<g transform="translate(28.7796,99.9342)">
<text font-family="Songti SC" font-size="2.7" text-anchor="start" fill="currentColor">你</text></g>
<g transform="translate(33.3571,99.9342)">
<text font-family="Songti SC" font-size="2.7" text-anchor="start" fill="currentColor">合</text></g>
<g transform="translate(39.9737,99.9342)">
<text font-family="Songti SC" font-size="2.7" text-anchor="start" fill="currentColor">一</text></g>
<g transform="translate(50.9395,99.9342)">
<text font-family="Songti SC" font-size="2.7" text-anchor="start" fill="currentColor">再</text></g>
<g transform="translate(60.688,99.9342)">
<text font-family="Songti SC" font-size="2.7" text-anchor="start" fill="currentColor">来</text></g>
<g transform="translate(65.9057,99.9342)">
<text font-family="Songti SC" font-size="2.7" text-anchor="start" fill="currentColor">之</text></g>
<g transform="translate(73.2359,99.9342)">
<text font-family="Songti SC" font-size="2.7" text-anchor="start" fill="currentColor">子</text></g>
<g transform="translate(84.5629,99.9342)">
<text font-family="Songti SC" font-size="2.7" text-anchor="start" fill="currentColor">同</text></g>
<g transform="translate(94.3339,99.9342)">
<text font-family="Songti SC" font-size="2.7" text-anchor="start" fill="currentColor">得</text></g>
<g transform="translate(98.9114,99.9342)">
<text font-family="Songti SC" font-size="2.7" text-anchor="start" fill="currentColor">荣</text></g>
<g transform="translate(106.7657,99.9342)">
<text font-family="Songti SC" font-size="2.7" text-anchor="start" fill="currentColor">耀</text></g>
<g transform="translate(116.5152,99.9342)">
<text font-family="Songti SC" font-size="2.7" text-anchor="start" fill="currentColor">同</text></g>
<g transform="translate(126.2862,99.9342)">
<text font-family="Songti SC" font-size="2.7" text-anchor="start" fill="currentColor">临</text></g>
<g transform="translate(131.451,99.9342)">
<text font-family="Songti SC" font-size="2.7" text-anchor="start" fill="currentColor">世</text></g>
<g transform="translate(19.0086,126.2201)">
<text font-family="Songti SC" font-size="2.7" text-anchor="start" fill="currentColor">那</text></g>
<g transform="translate(28.5669,126.2201)">
<text font-family="Songti SC" font-size="2.7" text-anchor="start" fill="currentColor">时</text></g>
<g transform="translate(33.1151,126.2201)">
<text font-family="Songti SC" font-size="2.7" text-anchor="start" fill="currentColor">都</text></g>
<g transform="translate(40.8049,126.2201)">
<text font-family="Songti SC" font-size="2.7" text-anchor="start" fill="currentColor">要</text></g>
<g transform="translate(50.6631,126.2201)">
<text font-family="Songti SC" font-size="2.7" text-anchor="start" fill="currentColor">显</text></g>
<g transform="translate(60.2215,126.2201)">
<text font-family="Songti SC" font-size="2.7" text-anchor="start" fill="currentColor">你</text></g>
<g transform="translate(65.304,126.2201)">
<text font-family="Songti SC" font-size="2.7" text-anchor="start" fill="currentColor">殊</text></g>
<g transform="translate(72.4696,126.2201)">
<text font-family="Songti SC" font-size="2.7" text-anchor="start" fill="currentColor">姿</text></g>
<g transform="translate(83.537,126.2201)">
<text font-family="Songti SC" font-size="2.7" text-anchor="start" fill="currentColor">与</text></g>
<g transform="translate(91.2267,126.2201)">
<text font-family="Songti SC" font-size="2.7" text-anchor="start" fill="currentColor">你</text></g>
<g transform="translate(99.5037,126.2201)">
<text font-family="Songti SC" font-size="2.7" text-anchor="start" fill="currentColor">合</text></g>
<g transform="translate(108.7443,126.2201)">
<text font-family="Songti SC" font-size="2.7" text-anchor="start" fill="currentColor">一</text></g>
<g transform="translate(118.8861,126.2201)">
<text font-family="Songti SC" font-size="2.7" text-anchor="start" fill="currentColor">无</text></g>
<g transform="translate(126.5758,126.2201)">
<text font-family="Songti SC" font-size="2.7" text-anchor="start" fill="currentColor">已</text></g>
<g transform="translate(133.0694,126.2201)">
<text font-family="Songti SC" font-size="2.7" text-anchor="start" fill="currentColor">时</text></g>
</svg>