<?xml version='1.0' encoding='UTF-8'?>
<svg xmlns="http://www.w3.org/2000/svg" xmlns:xlink="http://www.w3.org/1999/xlink" version="1.2" width="215.90mm" height="279.40mm" viewBox="0.0000 -0.0000 153.5737 198.7425">
<style type="text/css">

tspan { white-space: pre; }

</style>
<g transform="translate(70.3530, 9.7287)">
<text font-family="Songti SC" font-weight="bold" font-size="3.1113" text-anchor="start" fill="currentColor">
<tspan>神所赐恩典</tspan>
</text>
</g>
<g transform="translate(69.2647, 13.2287)">
<text font-family="Songti SC" font-weight="bold" font-size="2.2001" text-anchor="start" fill="currentColor">
<tspan>经历基督－作恩典</tspan>
</text>
</g>
<g transform="translate(135.2146, 17.7180)">
<text font-family="Songti SC" font-size="5.8741" text-anchor="start" fill="currentColor">
<tspan>C376</tspan>
</text>
</g>
<g transform="translate(9.0337, 19.6601)">
<text font-family="Songti SC" font-weight="bold" font-style="italic" font-size="2.2001" text-anchor="start" fill="currentColor">
<tspan>(吉他)</tspan>
</text>
</g>
<g transform="translate(52.8484, 29.1742)">
<rect x="0.0000" y="-2.0000" width="0.2212" height="4.0000" ry="0.0000" fill="currentColor"/>
</g>
<g transform="translate(9.0337, 31.1742)">
<line stroke-linejoin="round" stroke-linecap="round" stroke-width="0.1164" stroke="currentColor" x1="0.0582" y1="0" x2="138.1582" y2="0"/>
</g>
<g transform="translate(9.0337, 30.1742)">
<line stroke-linejoin="round" stroke-linecap="round" stroke-width="0.1164" stroke="currentColor" x1="0.0582" y1="0" x2="138.1582" y2="0"/>
</g>
<g transform="translate(9.0337, 29.1742)">
<line stroke-linejoin="round" stroke-linecap="round" stroke-width="0.1164" stroke="currentColor" x1="0.0582" y1="0" x2="138.1582" y2="0"/>
</g>
<g transform="translate(9.0337, 28.1742)">
<line stroke-linejoin="round" stroke-linecap="round" stroke-width="0.1164" stroke="currentColor" x1="0.0582" y1="0" x2="138.1582" y2="0"/>
</g>
<g transform="translate(9.0337, 27.1742)">
<line stroke-linejoin="round" stroke-linecap="round" stroke-width="0.1164" stroke="currentColor" x1="0.0582" y1="0" x2="138.1582" y2="0"/>
</g>
<g transform="translate(147.0289, 29.1742)">
<rect x="0.0000" y="-2.0000" width="0.2212" height="4.0000" ry="0.0000" fill="currentColor"/>
</g>
<g transform="translate(123.0119, 29.1742)">
<rect x="0.0000" y="-2.0000" width="0.2212" height="4.0000" ry="0.0000" fill="currentColor"/>
</g>
<g transform="translate(84.4918, 29.1742)">
<rect x="0.0000" y="-2.0000" width="0.2212" height="4.0000" ry="0.0000" fill="currentColor"/>
</g>
<g transform="translate(20.3667, 25.6860)">
<text font-family="Hiragino Sans GB" font-size="1.9604" text-anchor="start" fill="currentColor">
<tspan>D</tspan>
</text>
</g>
<g transform="translate(20.3667, 30.6742)">
<path transform="scale(0.0040, -0.0040)" d="M310 63c0 22 -17 40 -40 40c-38 0 -197 -107 -224 -139c-7 -8 -10 -17 -10 -27c0 -22 17 -40 40 -40c38 0 197 107 224 139c7 8 10 17 10 27zM256 138c55 0 90 -22 90 -77c0 -25 -15 -112 -73 -151c-34 -23 -92 -48 -183 -48c-55 0 -90 22 -90 77c0 25 15 112 73 151 c34 23 92 48 183 48z" fill="currentColor"/>
</g>
<g transform="translate(9.8338, 30.1742)">
<path transform="scale(0.0040, -0.0040)" d="M647 2c0 -114 -75 -214 -180 -248c3 -33 4 -66 4 -99c0 -21 0 -41 -1 -62c-7 -122 -92 -229 -211 -229c-108 0 -196 88 -196 197c0 58 54 103 113 103c54 0 95 -47 95 -103c0 -52 -43 -95 -95 -95c-9 0 -18 1 -27 4c25 -37 66 -61 113 -61c93 0 156 91 162 191 c1 19 2 38 2 57c0 29 -1 58 -3 87c-5 -1 -44 -8 -88 -8c-194 0 -333 181 -333 376c0 177 129 308 244 443c-34 103 -55 171 -55 347c0 114 54 221 147 288c8 6 18 5 25 -1c68 -79 135 -242 135 -356c0 -142 -84 -255 -176 -364c21 -68 40 -136 57 -205c1 0 5 1 10 1 c157 0 258 -129 258 -263zM463 -201c64 24 110 88 110 161c0 88 -64 175 -167 188c28 -133 49 -269 57 -349zM77 25c0 -144 141 -243 261 -243c1 0 46 -1 81 5c-7 66 -27 208 -60 362c-79 -8 -124 -60 -124 -118c0 -43 25 -88 80 -120c5 -5 7 -11 7 -17 c0 -12 -10 -23 -23 -23c-16 0 -128 62 -128 188c0 89 60 177 163 200c-14 57 -30 113 -47 169c-105 -122 -210 -243 -210 -403zM242 784c0 -39 10 -95 39 -188c78 97 142 199 142 324c0 33 0 60 -20 118c-99 -46 -161 -145 -161 -254z" fill="currentColor"/>
</g>
<g transform="translate(13.3337, 27.1742)">
<path transform="scale(0.0040, -0.0040)" d="M0 116c0 10 6 19 16 23l40 15v154c0 12 9 21 21 21s21 -9 21 -21v-138l79 30v154c0 12 9 21 21 21s21 -9 21 -21v-138l22 8c3 1 6 2 9 2c13 0 25 -11 25 -25v-54c0 -10 -6 -20 -16 -24l-40 -15v-155l22 9c3 1 6 1 9 1c13 0 25 -11 25 -25v-54c0 -10 -6 -19 -16 -23 l-40 -15v-154c0 -12 -9 -21 -21 -21s-21 9 -21 21v138l-79 -30v-154c0 -12 -9 -21 -21 -21s-21 9 -21 21v138l-22 -8c-3 -1 -6 -2 -9 -2c-13 0 -25 11 -25 25v54c0 10 6 20 16 24l40 15v155l-22 -9c-3 -1 -6 -1 -9 -1c-13 0 -25 11 -25 25v54zM177 92l-79 -30v-154l79 30 v154z" fill="currentColor"/>
</g>
<g transform="translate(14.4338, 28.6742)">
<path transform="scale(0.0040, -0.0040)" d="M0 116c0 10 6 19 16 23l40 15v154c0 12 9 21 21 21s21 -9 21 -21v-138l79 30v154c0 12 9 21 21 21s21 -9 21 -21v-138l22 8c3 1 6 2 9 2c13 0 25 -11 25 -25v-54c0 -10 -6 -20 -16 -24l-40 -15v-155l22 9c3 1 6 1 9 1c13 0 25 -11 25 -25v-54c0 -10 -6 -19 -16 -23 l-40 -15v-154c0 -12 -9 -21 -21 -21s-21 9 -21 21v138l-79 -30v-154c0 -12 -9 -21 -21 -21s-21 9 -21 21v138l-22 -8c-3 -1 -6 -2 -9 -2c-13 0 -25 11 -25 25v54c0 10 6 20 16 24l40 15v155l-22 -9c-3 -1 -6 -1 -9 -1c-13 0 -25 11 -25 25v54zM177 92l-79 -30v-154l79 30 v154z" fill="currentColor"/>
</g>
<g transform="translate(16.6838, 29.1742)">
<path transform="scale(0.0040, -0.0040)" d="M250 265c114 0 172 -112 172 -166c0 -38 -30 -69 -66 -69c-30 0 -72 23 -72 72c0 37 26 75 70 75c3 0 6 -1 9 -1c-26 36 -67 59 -113 59c-107 0 -113 -74 -113 -189c0 -15 1 -30 1 -46s-1 -31 -1 -46c0 -115 6 -189 113 -189c78 0 133 70 151 149c2 8 8 11 14 11 c7 0 15 -5 15 -14c0 -21 -49 -176 -180 -176c-145 0 -250 88 -250 265c0 63 18 265 250 265z" fill="currentColor"/>
</g>
<g transform="translate(19.8209,35.4733)">
<text font-family="Songti SC" font-size="2.7" text-anchor="start" fill="currentColor">
<tspan font-size="2.7">神</tspan>
</text>
</g>
<g transform="translate(17.3271,35.4733)">
<text font-family="Songti SC" font-weight="bold" font-size="2.7" text-anchor="start" fill="currentColor">
<tspan font-size="2.7">1.</tspan>
</text>
</g>
<g transform="translate(21.6749, 29.1742)">
<rect x="-0.0757" y="-2.0000" width="0.1514" height="3.2544" ry="0.0500" fill="currentColor"/>
</g>
<g transform="translate(35.0117, 25.6860)">
<text font-family="Hiragino Sans GB" font-size="1.9604" text-anchor="start" fill="currentColor">
<tspan>A</tspan>
</text>
</g>
<g transform="translate(35.0117, 29.6742)">
<path transform="scale(0.0040, -0.0040)" d="M212 138c68 0 113 -38 113 -95c0 -90 -109 -181 -212 -181c-68 0 -113 38 -113 95c0 90 109 181 212 181z" fill="currentColor"/>
</g>
<g transform="translate(34.4245,35.4733)">
<text font-family="Songti SC" font-size="2.7" text-anchor="start" fill="currentColor">
<tspan font-size="2.7">所</tspan>
</text>
</g>
<g transform="translate(36.2369, 29.1742)">
<rect x="-0.0757" y="-3.0000" width="0.1514" height="3.3287" ry="0.0500" fill="currentColor"/>
</g>
<g transform="translate(43.6862, 31.1742)">
<path transform="scale(0.0040, -0.0040)" d="M212 138c68 0 113 -38 113 -95c0 -90 -109 -181 -212 -181c-68 0 -113 38 -113 95c0 90 109 181 212 181z" fill="currentColor"/>
</g>
<g transform="translate(43.0989,35.4733)">
<text font-family="Songti SC" font-size="2.7" text-anchor="start" fill="currentColor">
<tspan font-size="2.7">赐</tspan>
</text>
</g>
<g transform="translate(44.9114, 29.1742)">
<rect x="-0.0757" y="-1.5000" width="0.1514" height="3.3287" ry="0.0500" fill="currentColor"/>
</g>
<g transform="translate(55.5400, 25.6860)">
<text font-family="Hiragino Sans GB" font-size="1.9604" text-anchor="start" fill="currentColor">
<tspan>D</tspan>
</text>
</g>
<g transform="translate(55.5400, 31.6742)">
<path transform="scale(0.0040, -0.0040)" d="M310 63c0 22 -17 40 -40 40c-38 0 -197 -107 -224 -139c-7 -8 -10 -17 -10 -27c0 -22 17 -40 40 -40c38 0 197 107 224 139c7 8 10 17 10 27zM256 138c55 0 90 -22 90 -77c0 -25 -15 -112 -73 -151c-34 -23 -92 -48 -183 -48c-55 0 -90 22 -90 77c0 25 15 112 73 151 c34 23 92 48 183 48z" fill="currentColor"/>
</g>
<g transform="translate(54.9942,35.4733)">
<text font-family="Songti SC" font-size="2.7" text-anchor="start" fill="currentColor">
<tspan font-size="2.7">恩</tspan>
</text>
</g>
<g transform="translate(56.8482, 29.1742)">
<rect x="-0.0757" y="-1.0000" width="0.1514" height="3.2544" ry="0.0500" fill="currentColor"/>
</g>
<g transform="translate(70.2221, 29.1742)">
<path transform="scale(0.0040, -0.0040)" d="M310 63c0 22 -17 40 -40 40c-38 0 -197 -107 -224 -139c-7 -8 -10 -17 -10 -27c0 -22 17 -40 40 -40c38 0 197 107 224 139c7 8 10 17 10 27zM256 138c55 0 90 -22 90 -77c0 -25 -15 -112 -73 -151c-34 -23 -92 -48 -183 -48c-55 0 -90 22 -90 77c0 25 15 112 73 151 c34 23 92 48 183 48z" fill="currentColor"/>
</g>
<g transform="translate(68.4386,35.4733)">
<text font-family="Songti SC" font-size="2.7" text-anchor="start" fill="currentColor">
<tspan font-size="2.7">典，</tspan>
</text>
</g>
<g transform="translate(70.2977, 29.1742)">
<rect x="-0.0757" y="0.2456" width="0.1514" height="3.0878" ry="0.0500" fill="currentColor"/>
</g>
<g transform="translate(87.1834, 25.6860)">
<text font-family="Hiragino Sans GB" font-size="1.9604" text-anchor="start" fill="currentColor">
<tspan>A</tspan>
</text>
</g>
<g transform="translate(87.1834, 29.6742)">
<path transform="scale(0.0040, -0.0040)" d="M212 138c68 0 113 -38 113 -95c0 -90 -109 -181 -212 -181c-68 0 -113 38 -113 95c0 90 109 181 212 181z" fill="currentColor"/>
</g>
<g transform="translate(86.5961,35.4733)">
<text font-family="Songti SC" font-size="2.7" text-anchor="start" fill="currentColor">
<tspan font-size="2.7">最</tspan>
</text>
</g>
<g transform="translate(96.1303, 29.1742)">
<path transform="scale(0.0040, -0.0040)" d="M212 138c68 0 113 -38 113 -95c0 -90 -109 -181 -212 -181c-68 0 -113 38 -113 95c0 90 109 181 212 181z" fill="currentColor"/>
</g>
<g transform="translate(95.543,35.4733)">
<text font-family="Songti SC" font-size="2.7" text-anchor="start" fill="currentColor">
<tspan font-size="2.7">高</tspan>
</text>
</g>
<g transform="translate(96.2060, 29.1742)">
<rect x="-0.0757" y="0.1713" width="0.1514" height="3.1620" ry="0.0500" fill="currentColor"/>
</g>
<g transform="translate(104.9609, 25.6860)">
<text font-family="Hiragino Sans GB" font-size="1.9604" text-anchor="start" fill="currentColor">
<tspan>A</tspan>
</text>
</g>
<g transform="translate(106.4120, 24.7951)">
<text font-family="Hiragino Sans GB" font-size="1.3856" text-anchor="start" fill="currentColor">
<tspan>7</tspan>
</text>
</g>
<g transform="translate(104.9609, 30.1742)">
<path transform="scale(0.0040, -0.0040)" d="M212 138c68 0 113 -38 113 -95c0 -90 -109 -181 -212 -181c-68 0 -113 38 -113 95c0 90 109 181 212 181z" fill="currentColor"/>
</g>
<g transform="translate(104.3736,35.4733)">
<text font-family="Songti SC" font-size="2.7" text-anchor="start" fill="currentColor">
<tspan font-size="2.7">的</tspan>
</text>
</g>
<g transform="translate(106.1860, 29.1742)">
<rect x="-0.0757" y="-2.5000" width="0.1514" height="3.3287" ry="0.0500" fill="currentColor"/>
</g>
<g transform="translate(113.8853, 30.1742)">
<path transform="scale(0.0040, -0.0040)" d="M212 138c68 0 113 -38 113 -95c0 -90 -109 -181 -212 -181c-68 0 -113 38 -113 95c0 90 109 181 212 181z" fill="currentColor"/>
</g>
<g transform="translate(113.2981,35.4733)">
<text font-family="Songti SC" font-size="2.7" text-anchor="start" fill="currentColor">
<tspan font-size="2.7">定</tspan>
</text>
</g>
<g transform="translate(115.1105, 29.1742)">
<rect x="-0.0757" y="-2.5000" width="0.1514" height="3.3287" ry="0.0500" fill="currentColor"/>
</g>
<g transform="translate(126.7034, 25.6860)">
<text font-family="Hiragino Sans GB" font-size="1.9604" text-anchor="start" fill="currentColor">
<tspan>D</tspan>
</text>
</g>
<g transform="translate(126.7034, 30.6742)">
<path transform="scale(0.0040, -0.0040)" d="M210 110c-18 0 -67 -7 -67 -88c0 -98 87 -132 129 -132c18 0 67 7 67 88c0 98 -87 132 -129 132zM241 138c142 0 241 -66 241 -138s-99 -138 -241 -138s-241 66 -241 138s99 138 241 138z" fill="currentColor"/>
</g>
<g transform="translate(125.1914,35.4733)">
<text font-family="Songti SC" font-size="2.7" text-anchor="start" fill="currentColor">
<tspan font-size="2.7">义，</tspan>
</text>
</g>
<g transform="translate(88.4085, 29.1742)">
<rect x="-0.0757" y="-3.0000" width="0.1514" height="3.3287" ry="0.0500" fill="currentColor"/>
</g>
<g transform="translate(51.3077,59.8409)">
<rect x="0.0000" y="-2.0000" width="0.2212" height="4.0000" ry="0.0000" fill="currentColor"/>
</g>
<g transform="translate(9.0337,61.8409)">
<line stroke-linejoin="round" stroke-linecap="round" stroke-width="0.1164" stroke="currentColor" x1="0.0582" y1="0" x2="138.1582" y2="0"/>
</g>
<g transform="translate(9.0337,60.8409)">
<line stroke-linejoin="round" stroke-linecap="round" stroke-width="0.1164" stroke="currentColor" x1="0.0582" y1="0" x2="138.1582" y2="0"/>
</g>
<g transform="translate(9.0337,59.8409)">
<line stroke-linejoin="round" stroke-linecap="round" stroke-width="0.1164" stroke="currentColor" x1="0.0582" y1="0" x2="138.1582" y2="0"/>
</g>
<g transform="translate(9.0337,58.8409)">
<line stroke-linejoin="round" stroke-linecap="round" stroke-width="0.1164" stroke="currentColor" x1="0.0582" y1="0" x2="138.1582" y2="0"/>
</g>
<g transform="translate(9.0337,57.8409)">
<line stroke-linejoin="round" stroke-linecap="round" stroke-width="0.1164" stroke="currentColor" x1="0.0582" y1="0" x2="138.1582" y2="0"/>
</g>
<g transform="translate(147.0289,59.8409)">
<rect x="0.0000" y="-2.0000" width="0.2212" height="4.0000" ry="0.0000" fill="currentColor"/>
</g>
<g transform="translate(122.6679,59.8409)">
<rect x="0.0000" y="-2.0000" width="0.2212" height="4.0000" ry="0.0000" fill="currentColor"/>
</g>
<g transform="translate(83.2091,59.8409)">
<rect x="0.0000" y="-2.0000" width="0.2212" height="4.0000" ry="0.0000" fill="currentColor"/>
</g>
<g transform="translate(9.8338,60.8409)">
<path transform="scale(0.0040, -0.0040)" d="M647 2c0 -114 -75 -214 -180 -248c3 -33 4 -66 4 -99c0 -21 0 -41 -1 -62c-7 -122 -92 -229 -211 -229c-108 0 -196 88 -196 197c0 58 54 103 113 103c54 0 95 -47 95 -103c0 -52 -43 -95 -95 -95c-9 0 -18 1 -27 4c25 -37 66 -61 113 -61c93 0 156 91 162 191 c1 19 2 38 2 57c0 29 -1 58 -3 87c-5 -1 -44 -8 -88 -8c-194 0 -333 181 -333 376c0 177 129 308 244 443c-34 103 -55 171 -55 347c0 114 54 221 147 288c8 6 18 5 25 -1c68 -79 135 -242 135 -356c0 -142 -84 -255 -176 -364c21 -68 40 -136 57 -205c1 0 5 1 10 1 c157 0 258 -129 258 -263zM463 -201c64 24 110 88 110 161c0 88 -64 175 -167 188c28 -133 49 -269 57 -349zM77 25c0 -144 141 -243 261 -243c1 0 46 -1 81 5c-7 66 -27 208 -60 362c-79 -8 -124 -60 -124 -118c0 -43 25 -88 80 -120c5 -5 7 -11 7 -17 c0 -12 -10 -23 -23 -23c-16 0 -128 62 -128 188c0 89 60 177 163 200c-14 57 -30 113 -47 169c-105 -122 -210 -243 -210 -403zM242 784c0 -39 10 -95 39 -188c78 97 142 199 142 324c0 33 0 60 -20 118c-99 -46 -161 -145 -161 -254z" fill="currentColor"/>
</g>
<g transform="translate(13.3337,57.8409)">
<path transform="scale(0.0040, -0.0040)" d="M0 116c0 10 6 19 16 23l40 15v154c0 12 9 21 21 21s21 -9 21 -21v-138l79 30v154c0 12 9 21 21 21s21 -9 21 -21v-138l22 8c3 1 6 2 9 2c13 0 25 -11 25 -25v-54c0 -10 -6 -20 -16 -24l-40 -15v-155l22 9c3 1 6 1 9 1c13 0 25 -11 25 -25v-54c0 -10 -6 -19 -16 -23 l-40 -15v-154c0 -12 -9 -21 -21 -21s-21 9 -21 21v138l-79 -30v-154c0 -12 -9 -21 -21 -21s-21 9 -21 21v138l-22 -8c-3 -1 -6 -2 -9 -2c-13 0 -25 11 -25 25v54c0 10 6 20 16 24l40 15v155l-22 -9c-3 -1 -6 -1 -9 -1c-13 0 -25 11 -25 25v54zM177 92l-79 -30v-154l79 30 v154z" fill="currentColor"/>
</g>
<g transform="translate(14.4338,59.3409)">
<path transform="scale(0.0040, -0.0040)" d="M0 116c0 10 6 19 16 23l40 15v154c0 12 9 21 21 21s21 -9 21 -21v-138l79 30v154c0 12 9 21 21 21s21 -9 21 -21v-138l22 8c3 1 6 2 9 2c13 0 25 -11 25 -25v-54c0 -10 -6 -20 -16 -24l-40 -15v-155l22 9c3 1 6 1 9 1c13 0 25 -11 25 -25v-54c0 -10 -6 -19 -16 -23 l-40 -15v-154c0 -12 -9 -21 -21 -21s-21 9 -21 21v138l-79 -30v-154c0 -12 -9 -21 -21 -21s-21 9 -21 21v138l-22 -8c-3 -1 -6 -2 -9 -2c-13 0 -25 11 -25 25v54c0 10 6 20 16 24l40 15v155l-22 -9c-3 -1 -6 -1 -9 -1c-13 0 -25 11 -25 25v54zM177 92l-79 -30v-154l79 30 v154z" fill="currentColor"/>
</g>
<g transform="translate(8.2228,56.8678)">
<text font-family="Songti SC" font-size="1.7463" text-anchor="start" fill="currentColor">
<tspan>5</tspan>
</text>
</g>
<g transform="translate(18.0338,56.3527)">
<text font-family="Hiragino Sans GB" font-size="1.9604" text-anchor="start" fill="currentColor">
<tspan>E</tspan>
</text>
</g>
<g transform="translate(19.3141,55.4618)">
<text font-family="Hiragino Sans GB" font-size="1.3856" text-anchor="start" fill="currentColor">
<tspan>7</tspan>
</text>
</g>
<g transform="translate(18.0338,61.3409)">
<path transform="scale(0.0040, -0.0040)" d="M310 63c0 22 -17 40 -40 40c-38 0 -197 -107 -224 -139c-7 -8 -10 -17 -10 -27c0 -22 17 -40 40 -40c38 0 197 107 224 139c7 8 10 17 10 27zM256 138c55 0 90 -22 90 -77c0 -25 -15 -112 -73 -151c-34 -23 -92 -48 -183 -48c-55 0 -90 22 -90 77c0 25 15 112 73 151 c34 23 92 48 183 48z" fill="currentColor"/>
</g>
<g transform="translate(17.488,66.0757)">
<text font-family="Songti SC" font-size="2.7" text-anchor="start" fill="currentColor">
<tspan font-size="2.7">是</tspan>
</text>
</g>
<g transform="translate(19.342,59.8409)">
<rect x="-0.0757" y="-2.0000" width="0.1514" height="3.2544" ry="0.0500" fill="currentColor"/>
</g>
<g transform="translate(32.648,61.3409)">
<path transform="scale(0.0040, -0.0040)" d="M212 138c68 0 113 -38 113 -95c0 -90 -109 -181 -212 -181c-68 0 -113 38 -113 95c0 90 109 181 212 181z" fill="currentColor"/>
</g>
<g transform="translate(32.0607,66.0757)">
<text font-family="Songti SC" font-size="2.7" text-anchor="start" fill="currentColor">
<tspan font-size="2.7">神</tspan>
</text>
</g>
<g transform="translate(33.8732,59.8409)">
<rect x="-0.0757" y="-2.0000" width="0.1514" height="3.3287" ry="0.0500" fill="currentColor"/>
</g>
<g transform="translate(42.0528,60.8409)">
<path transform="scale(0.0040, -0.0040)" d="M212 138c68 0 113 -38 113 -95c0 -90 -109 -181 -212 -181c-68 0 -113 38 -113 95c0 90 109 181 212 181z" fill="currentColor"/>
</g>
<g transform="translate(41.4655,66.0757)">
<text font-family="Songti SC" font-size="2.7" text-anchor="start" fill="currentColor">
<tspan font-size="2.7">在</tspan>
</text>
</g>
<g transform="translate(43.278,59.8409)">
<rect x="-0.0757" y="-2.5000" width="0.1514" height="3.3287" ry="0.0500" fill="currentColor"/>
</g>
<g transform="translate(40.6028,60.8409)">
<path transform="scale(0.0040, -0.0040)" d="M0 116c0 10 6 19 16 23l40 15v154c0 12 9 21 21 21s21 -9 21 -21v-138l79 30v154c0 12 9 21 21 21s21 -9 21 -21v-138l22 8c3 1 6 2 9 2c13 0 25 -11 25 -25v-54c0 -10 -6 -20 -16 -24l-40 -15v-155l22 9c3 1 6 1 9 1c13 0 25 -11 25 -25v-54c0 -10 -6 -19 -16 -23 l-40 -15v-154c0 -12 -9 -21 -21 -21s-21 9 -21 21v138l-79 -30v-154c0 -12 -9 -21 -21 -21s-21 9 -21 21v138l-22 -8c-3 -1 -6 -2 -9 -2c-13 0 -25 11 -25 25v54c0 10 6 20 16 24l40 15v155l-22 -9c-3 -1 -6 -1 -9 -1c-13 0 -25 11 -25 25v54zM177 92l-79 -30v-154l79 30 v154z" fill="currentColor"/>
</g>
<g transform="translate(54.0333,56.3527)">
<text font-family="Hiragino Sans GB" font-size="1.9604" text-anchor="start" fill="currentColor">
<tspan>A</tspan>
</text>
</g>
<g transform="translate(54.0333,60.3409)">
<path transform="scale(0.0040, -0.0040)" d="M310 63c0 22 -17 40 -40 40c-38 0 -197 -107 -224 -139c-7 -8 -10 -17 -10 -27c0 -22 17 -40 40 -40c38 0 197 107 224 139c7 8 10 17 10 27zM256 138c55 0 90 -22 90 -77c0 -25 -15 -112 -73 -151c-34 -23 -92 -48 -183 -48c-55 0 -90 22 -90 77c0 25 15 112 73 151 c34 23 92 48 183 48z" fill="currentColor"/>
</g>
<g transform="translate(53.4876,66.0757)">
<text font-family="Songti SC" font-size="2.7" text-anchor="start" fill="currentColor">
<tspan font-size="2.7">子</tspan>
</text>
</g>
<g transform="translate(55.3415,59.8409)">
<rect x="-0.0757" y="-3.0000" width="0.1514" height="3.2544" ry="0.0500" fill="currentColor"/>
</g>
<g transform="translate(68.7917,58.8409)">
<path transform="scale(0.0040, -0.0040)" d="M310 63c0 22 -17 40 -40 40c-38 0 -197 -107 -224 -139c-7 -8 -10 -17 -10 -27c0 -22 17 -40 40 -40c38 0 197 107 224 139c7 8 10 17 10 27zM256 138c55 0 90 -22 90 -77c0 -25 -15 -112 -73 -151c-34 -23 -92 -48 -183 -48c-55 0 -90 22 -90 77c0 25 15 112 73 151 c34 23 92 48 183 48z" fill="currentColor"/>
</g>
<g transform="translate(68.2459,66.0757)">
<text font-family="Songti SC" font-size="2.7" text-anchor="start" fill="currentColor">
<tspan font-size="2.7">里</tspan>
</text>
</g>
<g transform="translate(68.8673,59.8409)">
<rect x="-0.0757" y="-0.7544" width="0.1514" height="3.2544" ry="0.0500" fill="currentColor"/>
</g>
<g transform="translate(86.0678,56.3527)">
<text font-family="Hiragino Sans GB" font-size="1.9604" text-anchor="start" fill="currentColor">
<tspan>E</tspan>
</text>
</g>
<g transform="translate(87.3482,55.4618)">
<text font-family="Hiragino Sans GB" font-size="1.3856" text-anchor="start" fill="currentColor">
<tspan>7</tspan>
</text>
</g>
<g transform="translate(86.0678,59.3409)">
<path transform="scale(0.0040, -0.0040)" d="M212 138c68 0 113 -38 113 -95c0 -90 -109 -181 -212 -181c-68 0 -113 38 -113 95c0 90 109 181 212 181z" fill="currentColor"/>
</g>
<g transform="translate(85.4805,66.0757)">
<text font-family="Songti SC" font-size="2.7" text-anchor="start" fill="currentColor">
<tspan font-size="2.7">所</tspan>
</text>
</g>
<g transform="translate(95.1207,59.8409)">
<path transform="scale(0.0040, -0.0040)" d="M212 138c68 0 113 -38 113 -95c0 -90 -109 -181 -212 -181c-68 0 -113 38 -113 95c0 90 109 181 212 181z" fill="currentColor"/>
</g>
<g transform="translate(94.5334,66.0757)">
<text font-family="Songti SC" font-size="2.7" text-anchor="start" fill="currentColor">
<tspan font-size="2.7">给</tspan>
</text>
</g>
<g transform="translate(95.1963,59.8409)">
<rect x="-0.0757" y="0.1713" width="0.1514" height="3.1620" ry="0.0500" fill="currentColor"/>
</g>
<g transform="translate(104.0082,61.3409)">
<path transform="scale(0.0040, -0.0040)" d="M212 138c68 0 113 -38 113 -95c0 -90 -109 -181 -212 -181c-68 0 -113 38 -113 95c0 90 109 181 212 181z" fill="currentColor"/>
</g>
<g transform="translate(103.4209,66.0757)">
<text font-family="Songti SC" font-size="2.7" text-anchor="start" fill="currentColor">
<tspan font-size="2.7">的</tspan>
</text>
</g>
<g transform="translate(105.2334,59.8409)">
<rect x="-0.0757" y="-2.0000" width="0.1514" height="3.3287" ry="0.0500" fill="currentColor"/>
</g>
<g transform="translate(113.413,60.8409)">
<path transform="scale(0.0040, -0.0040)" d="M212 138c68 0 113 -38 113 -95c0 -90 -109 -181 -212 -181c-68 0 -113 38 -113 95c0 90 109 181 212 181z" fill="currentColor"/>
</g>
<g transform="translate(112.8257,66.0757)">
<text font-family="Songti SC" font-size="2.7" text-anchor="start" fill="currentColor">
<tspan font-size="2.7">自</tspan>
</text>
</g>
<g transform="translate(114.6382,59.8409)">
<rect x="-0.0757" y="-2.5000" width="0.1514" height="3.3287" ry="0.0500" fill="currentColor"/>
</g>
<g transform="translate(111.963,60.8409)">
<path transform="scale(0.0040, -0.0040)" d="M0 116c0 10 6 19 16 23l40 15v154c0 12 9 21 21 21s21 -9 21 -21v-138l79 30v154c0 12 9 21 21 21s21 -9 21 -21v-138l22 8c3 1 6 2 9 2c13 0 25 -11 25 -25v-54c0 -10 -6 -20 -16 -24l-40 -15v-155l22 9c3 1 6 1 9 1c13 0 25 -11 25 -25v-54c0 -10 -6 -19 -16 -23 l-40 -15v-154c0 -12 -9 -21 -21 -21s-21 9 -21 21v138l-79 -30v-154c0 -12 -9 -21 -21 -21s-21 9 -21 21v138l-22 -8c-3 -1 -6 -2 -9 -2c-13 0 -25 11 -25 25v54c0 10 6 20 16 24l40 15v155l-22 -9c-3 -1 -6 -1 -9 -1c-13 0 -25 11 -25 25v54zM177 92l-79 -30v-154l79 30 v154z" fill="currentColor"/>
</g>
<g transform="translate(126.3935,56.3527)">
<text font-family="Hiragino Sans GB" font-size="1.9604" text-anchor="start" fill="currentColor">
<tspan>A</tspan>
</text>
</g>
<g transform="translate(126.3935,60.3409)">
<path transform="scale(0.0040, -0.0040)" d="M210 110c-18 0 -67 -7 -67 -88c0 -98 87 -132 129 -132c18 0 67 7 67 88c0 98 -87 132 -129 132zM241 138c142 0 241 -66 241 -138s-99 -138 -241 -138s-241 66 -241 138s99 138 241 138z" fill="currentColor"/>
</g>
<g transform="translate(124.8815,66.0757)">
<text font-family="Songti SC" font-size="2.7" text-anchor="start" fill="currentColor">
<tspan font-size="2.7">己；</tspan>
</text>
</g>
<g transform="translate(86.1435,59.8409)">
<rect x="-0.0757" y="-0.3287" width="0.1514" height="3.3287" ry="0.0500" fill="currentColor"/>
</g>
<g transform="translate(50.9579,90.3989)">
<rect x="0.0000" y="-2.0000" width="0.2212" height="4.0000" ry="0.0000" fill="currentColor"/>
</g>
<g transform="translate(9.0337,92.3989)">
<line stroke-linejoin="round" stroke-linecap="round" stroke-width="0.1164" stroke="currentColor" x1="0.0582" y1="0" x2="138.1582" y2="0"/>
</g>
<g transform="translate(9.0337,91.3989)">
<line stroke-linejoin="round" stroke-linecap="round" stroke-width="0.1164" stroke="currentColor" x1="0.0582" y1="0" x2="138.1582" y2="0"/>
</g>
<g transform="translate(9.0337,90.3989)">
<line stroke-linejoin="round" stroke-linecap="round" stroke-width="0.1164" stroke="currentColor" x1="0.0582" y1="0" x2="138.1582" y2="0"/>
</g>
<g transform="translate(9.0337,89.3989)">
<line stroke-linejoin="round" stroke-linecap="round" stroke-width="0.1164" stroke="currentColor" x1="0.0582" y1="0" x2="138.1582" y2="0"/>
</g>
<g transform="translate(9.0337,88.3989)">
<line stroke-linejoin="round" stroke-linecap="round" stroke-width="0.1164" stroke="currentColor" x1="0.0582" y1="0" x2="138.1582" y2="0"/>
</g>
<g transform="translate(147.0289,90.3989)">
<rect x="0.0000" y="-2.0000" width="0.2212" height="4.0000" ry="0.0000" fill="currentColor"/>
</g>
<g transform="translate(122.4853,90.3989)">
<rect x="0.0000" y="-2.0000" width="0.2212" height="4.0000" ry="0.0000" fill="currentColor"/>
</g>
<g transform="translate(83.1591,90.3989)">
<rect x="0.0000" y="-2.0000" width="0.2212" height="4.0000" ry="0.0000" fill="currentColor"/>
</g>
<g transform="translate(9.8338,91.3989)">
<path transform="scale(0.0040, -0.0040)" d="M647 2c0 -114 -75 -214 -180 -248c3 -33 4 -66 4 -99c0 -21 0 -41 -1 -62c-7 -122 -92 -229 -211 -229c-108 0 -196 88 -196 197c0 58 54 103 113 103c54 0 95 -47 95 -103c0 -52 -43 -95 -95 -95c-9 0 -18 1 -27 4c25 -37 66 -61 113 -61c93 0 156 91 162 191 c1 19 2 38 2 57c0 29 -1 58 -3 87c-5 -1 -44 -8 -88 -8c-194 0 -333 181 -333 376c0 177 129 308 244 443c-34 103 -55 171 -55 347c0 114 54 221 147 288c8 6 18 5 25 -1c68 -79 135 -242 135 -356c0 -142 -84 -255 -176 -364c21 -68 40 -136 57 -205c1 0 5 1 10 1 c157 0 258 -129 258 -263zM463 -201c64 24 110 88 110 161c0 88 -64 175 -167 188c28 -133 49 -269 57 -349zM77 25c0 -144 141 -243 261 -243c1 0 46 -1 81 5c-7 66 -27 208 -60 362c-79 -8 -124 -60 -124 -118c0 -43 25 -88 80 -120c5 -5 7 -11 7 -17 c0 -12 -10 -23 -23 -23c-16 0 -128 62 -128 188c0 89 60 177 163 200c-14 57 -30 113 -47 169c-105 -122 -210 -243 -210 -403zM242 784c0 -39 10 -95 39 -188c78 97 142 199 142 324c0 33 0 60 -20 118c-99 -46 -161 -145 -161 -254z" fill="currentColor"/>
</g>
<g transform="translate(13.3337,88.3989)">
<path transform="scale(0.0040, -0.0040)" d="M0 116c0 10 6 19 16 23l40 15v154c0 12 9 21 21 21s21 -9 21 -21v-138l79 30v154c0 12 9 21 21 21s21 -9 21 -21v-138l22 8c3 1 6 2 9 2c13 0 25 -11 25 -25v-54c0 -10 -6 -20 -16 -24l-40 -15v-155l22 9c3 1 6 1 9 1c13 0 25 -11 25 -25v-54c0 -10 -6 -19 -16 -23 l-40 -15v-154c0 -12 -9 -21 -21 -21s-21 9 -21 21v138l-79 -30v-154c0 -12 -9 -21 -21 -21s-21 9 -21 21v138l-22 -8c-3 -1 -6 -2 -9 -2c-13 0 -25 11 -25 25v54c0 10 6 20 16 24l40 15v155l-22 -9c-3 -1 -6 -1 -9 -1c-13 0 -25 11 -25 25v54zM177 92l-79 -30v-154l79 30 v154z" fill="currentColor"/>
</g>
<g transform="translate(14.4338,89.8989)">
<path transform="scale(0.0040, -0.0040)" d="M0 116c0 10 6 19 16 23l40 15v154c0 12 9 21 21 21s21 -9 21 -21v-138l79 30v154c0 12 9 21 21 21s21 -9 21 -21v-138l22 8c3 1 6 2 9 2c13 0 25 -11 25 -25v-54c0 -10 -6 -20 -16 -24l-40 -15v-155l22 9c3 1 6 1 9 1c13 0 25 -11 25 -25v-54c0 -10 -6 -19 -16 -23 l-40 -15v-154c0 -12 -9 -21 -21 -21s-21 9 -21 21v138l-79 -30v-154c0 -12 -9 -21 -21 -21s-21 9 -21 21v138l-22 -8c-3 -1 -6 -2 -9 -2c-13 0 -25 11 -25 25v54c0 10 6 20 16 24l40 15v155l-22 -9c-3 -1 -6 -1 -9 -1c-13 0 -25 11 -25 25v54zM177 92l-79 -30v-154l79 30 v154z" fill="currentColor"/>
</g>
<g transform="translate(8.2228,87.4205)">
<text font-family="Songti SC" font-size="1.7463" text-anchor="start" fill="currentColor">
<tspan>9</tspan>
</text>
</g>
<g transform="translate(18.0338,86.91069999999999)">
<text font-family="Hiragino Sans GB" font-size="1.9604" text-anchor="start" fill="currentColor">
<tspan>A</tspan>
</text>
</g>
<g transform="translate(18.0338,90.3989)">
<path transform="scale(0.0040, -0.0040)" d="M310 63c0 22 -17 40 -40 40c-38 0 -197 -107 -224 -139c-7 -8 -10 -17 -10 -27c0 -22 17 -40 40 -40c38 0 197 107 224 139c7 8 10 17 10 27zM256 138c55 0 90 -22 90 -77c0 -25 -15 -112 -73 -151c-34 -23 -92 -48 -183 -48c-55 0 -90 22 -90 77c0 25 15 112 73 151 c34 23 92 48 183 48z" fill="currentColor"/>
</g>
<g transform="translate(17.488,96.5572)">
<text font-family="Songti SC" font-size="2.7" text-anchor="start" fill="currentColor">
<tspan font-size="2.7">不</tspan>
</text>
</g>
<g transform="translate(18.1094,90.3989)">
<rect x="-0.0757" y="0.2456" width="0.1514" height="3.0878" ry="0.0500" fill="currentColor"/>
</g>
<g transform="translate(32.7525,90.8989)">
<path transform="scale(0.0040, -0.0040)" d="M212 138c68 0 113 -38 113 -95c0 -90 -109 -181 -212 -181c-68 0 -113 38 -113 95c0 90 109 181 212 181z" fill="currentColor"/>
</g>
<g transform="translate(32.1652,96.5572)">
<text font-family="Songti SC" font-size="2.7" text-anchor="start" fill="currentColor">
<tspan font-size="2.7">重</tspan>
</text>
</g>
<g transform="translate(33.9776,90.3989)">
<rect x="-0.0757" y="-3.0000" width="0.1514" height="3.3287" ry="0.0500" fill="currentColor"/>
</g>
<g transform="translate(42.0389,89.3989)">
<path transform="scale(0.0040, -0.0040)" d="M212 138c68 0 113 -38 113 -95c0 -90 -109 -181 -212 -181c-68 0 -113 38 -113 95c0 90 109 181 212 181z" fill="currentColor"/>
</g>
<g transform="translate(41.4516,96.5572)">
<text font-family="Songti SC" font-size="2.7" text-anchor="start" fill="currentColor">
<tspan font-size="2.7">在</tspan>
</text>
</g>
<g transform="translate(42.1146,90.3989)">
<rect x="-0.0757" y="-0.8287" width="0.1514" height="3.3287" ry="0.0500" fill="currentColor"/>
</g>
<g transform="translate(53.8589,89.3989)">
<path transform="scale(0.0040, -0.0040)" d="M310 63c0 22 -17 40 -40 40c-38 0 -197 -107 -224 -139c-7 -8 -10 -17 -10 -27c0 -22 17 -40 40 -40c38 0 197 107 224 139c7 8 10 17 10 27zM256 138c55 0 90 -22 90 -77c0 -25 -15 -112 -73 -151c-34 -23 -92 -48 -183 -48c-55 0 -90 22 -90 77c0 25 15 112 73 151 c34 23 92 48 183 48z" fill="currentColor"/>
</g>
<g transform="translate(53.3132,96.5572)">
<text font-family="Songti SC" font-size="2.7" text-anchor="start" fill="currentColor">
<tspan font-size="2.7">事</tspan>
</text>
</g>
<g transform="translate(53.9346,90.3989)">
<rect x="-0.0757" y="-0.7544" width="0.1514" height="3.2544" ry="0.0500" fill="currentColor"/>
</g>
<g transform="translate(68.5895,89.8989)">
<path transform="scale(0.0040, -0.0040)" d="M310 63c0 22 -17 40 -40 40c-38 0 -197 -107 -224 -139c-7 -8 -10 -17 -10 -27c0 -22 17 -40 40 -40c38 0 197 107 224 139c7 8 10 17 10 27zM256 138c55 0 90 -22 90 -77c0 -25 -15 -112 -73 -151c-34 -23 -92 -48 -183 -48c-55 0 -90 22 -90 77c0 25 15 112 73 151 c34 23 92 48 183 48z" fill="currentColor"/>
</g>
<g transform="translate(66.8061,96.5572)">
<text font-family="Songti SC" font-size="2.7" text-anchor="start" fill="currentColor">
<tspan font-size="2.7">物，</tspan>
</text>
</g>
<g transform="translate(68.6652,90.3989)">
<rect x="-0.0757" y="-0.2544" width="0.1514" height="3.2544" ry="0.0500" fill="currentColor"/>
</g>
<g transform="translate(86.0358,89.8989)">
<path transform="scale(0.0040, -0.0040)" d="M212 138c68 0 113 -38 113 -95c0 -90 -109 -181 -212 -181c-68 0 -113 38 -113 95c0 90 109 181 212 181z" fill="currentColor"/>
</g>
<g transform="translate(85.4485,96.5572)">
<text font-family="Songti SC" font-size="2.7" text-anchor="start" fill="currentColor">
<tspan font-size="2.7">赐</tspan>
</text>
</g>
<g transform="translate(95.1569,90.3989)">
<path transform="scale(0.0040, -0.0040)" d="M212 138c68 0 113 -38 113 -95c0 -90 -109 -181 -212 -181c-68 0 -113 38 -113 95c0 90 109 181 212 181z" fill="currentColor"/>
</g>
<g transform="translate(94.5696,96.5572)">
<text font-family="Songti SC" font-size="2.7" text-anchor="start" fill="currentColor">
<tspan font-size="2.7">于</tspan>
</text>
</g>
<g transform="translate(95.2325,90.3989)">
<rect x="-0.0757" y="0.1713" width="0.1514" height="3.1620" ry="0.0500" fill="currentColor"/>
</g>
<g transform="translate(104.2554,86.91069999999999)">
<text font-family="Hiragino Sans GB" font-size="1.9604" text-anchor="start" fill="currentColor">
<tspan>A</tspan>
</text>
</g>
<g transform="translate(105.7065,86.0198)">
<text font-family="Hiragino Sans GB" font-size="1.3856" text-anchor="start" fill="currentColor">
<tspan>7</tspan>
</text>
</g>
<g transform="translate(104.2554,90.8989)">
<path transform="scale(0.0040, -0.0040)" d="M212 138c68 0 113 -38 113 -95c0 -90 -109 -181 -212 -181c-68 0 -113 38 -113 95c0 90 109 181 212 181z" fill="currentColor"/>
</g>
<g transform="translate(103.6682,96.5572)">
<text font-family="Songti SC" font-size="2.7" text-anchor="start" fill="currentColor">
<tspan font-size="2.7">古</tspan>
</text>
</g>
<g transform="translate(105.4806,90.3989)">
<rect x="-0.0757" y="-3.0000" width="0.1514" height="3.3287" ry="0.0500" fill="currentColor"/>
</g>
<g transform="translate(113.1265,92.3989)">
<path transform="scale(0.0040, -0.0040)" d="M212 138c68 0 113 -38 113 -95c0 -90 -109 -181 -212 -181c-68 0 -113 38 -113 95c0 90 109 181 212 181z" fill="currentColor"/>
</g>
<g transform="translate(112.5392,96.5572)">
<text font-family="Songti SC" font-size="2.7" text-anchor="start" fill="currentColor">
<tspan font-size="2.7">或</tspan>
</text>
</g>
<g transform="translate(114.3517,90.3989)">
<rect x="-0.0757" y="-1.5000" width="0.1514" height="3.3287" ry="0.0500" fill="currentColor"/>
</g>
<g transform="translate(126.229,86.91069999999999)">
<text font-family="Hiragino Sans GB" font-size="1.9604" text-anchor="start" fill="currentColor">
<tspan>D</tspan>
</text>
</g>
<g transform="translate(126.229,91.8989)">
<path transform="scale(0.0040, -0.0040)" d="M210 110c-18 0 -67 -7 -67 -88c0 -98 87 -132 129 -132c18 0 67 7 67 88c0 98 -87 132 -129 132zM241 138c142 0 241 -66 241 -138s-99 -138 -241 -138s-241 66 -241 138s99 138 241 138z" fill="currentColor"/>
</g>
<g transform="translate(124.7169,96.5572)">
<text font-family="Songti SC" font-size="2.7" text-anchor="start" fill="currentColor">
<tspan font-size="2.7">今，</tspan>
</text>
</g>
<g transform="translate(86.1115,90.3989)">
<rect x="-0.0757" y="-0.3287" width="0.1514" height="3.3287" ry="0.0500" fill="currentColor"/>
</g>
<g transform="translate(50.9513,120.9356)">
<rect x="0.0000" y="-2.0000" width="0.2212" height="4.0000" ry="0.0000" fill="currentColor"/>
</g>
<g transform="translate(9.0337,123.9356)">
<rect x="103.0696" y="-0.1082" width="1.9513" height="0.2164" ry="0.1082" fill="currentColor"/>
</g>
<g transform="translate(9.0337,123.9356)">
<rect x="94.0275" y="-0.1082" width="1.9513" height="0.2164" ry="0.1082" fill="currentColor"/>
</g>
<g transform="translate(9.0337,122.9356)">
<line stroke-linejoin="round" stroke-linecap="round" stroke-width="0.1164" stroke="currentColor" x1="0.0582" y1="0" x2="138.1582" y2="0"/>
</g>
<g transform="translate(9.0337,121.9356)">
<line stroke-linejoin="round" stroke-linecap="round" stroke-width="0.1164" stroke="currentColor" x1="0.0582" y1="0" x2="138.1582" y2="0"/>
</g>
<g transform="translate(9.0337,120.9356)">
<line stroke-linejoin="round" stroke-linecap="round" stroke-width="0.1164" stroke="currentColor" x1="0.0582" y1="0" x2="138.1582" y2="0"/>
</g>
<g transform="translate(9.0337,119.9356)">
<line stroke-linejoin="round" stroke-linecap="round" stroke-width="0.1164" stroke="currentColor" x1="0.0582" y1="0" x2="138.1582" y2="0"/>
</g>
<g transform="translate(9.0337,118.9356)">
<line stroke-linejoin="round" stroke-linecap="round" stroke-width="0.1164" stroke="currentColor" x1="0.0582" y1="0" x2="138.1582" y2="0"/>
</g>
<g transform="translate(146.5516,120.9356)">
<rect x="0.0000" y="-2.0000" width="0.6986" height="4.0000" ry="0.0000" fill="currentColor"/>
</g>
<g transform="translate(145.9811,120.9356)">
<rect x="0.0000" y="-2.0000" width="0.2212" height="4.0000" ry="0.0000" fill="currentColor"/>
</g>
<g transform="translate(121.6491,120.9356)">
<rect x="0.0000" y="-2.0000" width="0.2212" height="4.0000" ry="0.0000" fill="currentColor"/>
</g>
<g transform="translate(82.8297,120.9356)">
<rect x="0.0000" y="-2.0000" width="0.2212" height="4.0000" ry="0.0000" fill="currentColor"/>
</g>
<g transform="translate(9.8338,121.9356)">
<path transform="scale(0.0040, -0.0040)" d="M647 2c0 -114 -75 -214 -180 -248c3 -33 4 -66 4 -99c0 -21 0 -41 -1 -62c-7 -122 -92 -229 -211 -229c-108 0 -196 88 -196 197c0 58 54 103 113 103c54 0 95 -47 95 -103c0 -52 -43 -95 -95 -95c-9 0 -18 1 -27 4c25 -37 66 -61 113 -61c93 0 156 91 162 191 c1 19 2 38 2 57c0 29 -1 58 -3 87c-5 -1 -44 -8 -88 -8c-194 0 -333 181 -333 376c0 177 129 308 244 443c-34 103 -55 171 -55 347c0 114 54 221 147 288c8 6 18 5 25 -1c68 -79 135 -242 135 -356c0 -142 -84 -255 -176 -364c21 -68 40 -136 57 -205c1 0 5 1 10 1 c157 0 258 -129 258 -263zM463 -201c64 24 110 88 110 161c0 88 -64 175 -167 188c28 -133 49 -269 57 -349zM77 25c0 -144 141 -243 261 -243c1 0 46 -1 81 5c-7 66 -27 208 -60 362c-79 -8 -124 -60 -124 -118c0 -43 25 -88 80 -120c5 -5 7 -11 7 -17 c0 -12 -10 -23 -23 -23c-16 0 -128 62 -128 188c0 89 60 177 163 200c-14 57 -30 113 -47 169c-105 -122 -210 -243 -210 -403zM242 784c0 -39 10 -95 39 -188c78 97 142 199 142 324c0 33 0 60 -20 118c-99 -46 -161 -145 -161 -254z" fill="currentColor"/>
</g>
<g transform="translate(13.3337,118.9356)">
<path transform="scale(0.0040, -0.0040)" d="M0 116c0 10 6 19 16 23l40 15v154c0 12 9 21 21 21s21 -9 21 -21v-138l79 30v154c0 12 9 21 21 21s21 -9 21 -21v-138l22 8c3 1 6 2 9 2c13 0 25 -11 25 -25v-54c0 -10 -6 -20 -16 -24l-40 -15v-155l22 9c3 1 6 1 9 1c13 0 25 -11 25 -25v-54c0 -10 -6 -19 -16 -23 l-40 -15v-154c0 -12 -9 -21 -21 -21s-21 9 -21 21v138l-79 -30v-154c0 -12 -9 -21 -21 -21s-21 9 -21 21v138l-22 -8c-3 -1 -6 -2 -9 -2c-13 0 -25 11 -25 25v54c0 10 6 20 16 24l40 15v155l-22 -9c-3 -1 -6 -1 -9 -1c-13 0 -25 11 -25 25v54zM177 92l-79 -30v-154l79 30 v154z" fill="currentColor"/>
</g>
<g transform="translate(14.4338,120.4356)">
<path transform="scale(0.0040, -0.0040)" d="M0 116c0 10 6 19 16 23l40 15v154c0 12 9 21 21 21s21 -9 21 -21v-138l79 30v154c0 12 9 21 21 21s21 -9 21 -21v-138l22 8c3 1 6 2 9 2c13 0 25 -11 25 -25v-54c0 -10 -6 -20 -16 -24l-40 -15v-155l22 9c3 1 6 1 9 1c13 0 25 -11 25 -25v-54c0 -10 -6 -19 -16 -23 l-40 -15v-154c0 -12 -9 -21 -21 -21s-21 9 -21 21v138l-79 -30v-154c0 -12 -9 -21 -21 -21s-21 9 -21 21v138l-22 -8c-3 -1 -6 -2 -9 -2c-13 0 -25 11 -25 25v54c0 10 6 20 16 24l40 15v155l-22 -9c-3 -1 -6 -1 -9 -1c-13 0 -25 11 -25 25v54zM177 92l-79 -30v-154l79 30 v154z" fill="currentColor"/>
</g>
<g transform="translate(7.4119,117.9625)">
<text font-family="Songti SC" font-size="1.7463" text-anchor="start" fill="currentColor">
<tspan>13</tspan>
</text>
</g>
<g transform="translate(18.0338,117.44149999999999)">
<text font-family="Hiragino Sans GB" font-size="1.9604" text-anchor="start" fill="currentColor">
<tspan>D</tspan>
</text>
</g>
<g transform="translate(18.0338,122.4356)">
<path transform="scale(0.0040, -0.0040)" d="M310 63c0 22 -17 40 -40 40c-38 0 -197 -107 -224 -139c-7 -8 -10 -17 -10 -27c0 -22 17 -40 40 -40c38 0 197 107 224 139c7 8 10 17 10 27zM256 138c55 0 90 -22 90 -77c0 -25 -15 -112 -73 -151c-34 -23 -92 -48 -183 -48c-55 0 -90 22 -90 77c0 25 15 112 73 151 c34 23 92 48 183 48z" fill="currentColor"/>
</g>
<g transform="translate(17.488,127.9021)">
<text font-family="Songti SC" font-size="2.7" text-anchor="start" fill="currentColor">
<tspan font-size="2.7">乃</tspan>
</text>
</g>
<g transform="translate(19.342,120.9356)">
<rect x="-0.0757" y="-2.0000" width="0.1514" height="3.2544" ry="0.0500" fill="currentColor"/>
</g>
<g transform="translate(32.6295,117.44149999999999)">
<text font-family="Hiragino Sans GB" font-size="1.9604" text-anchor="start" fill="currentColor">
<tspan>A</tspan>
</text>
</g>
<g transform="translate(32.6295,122.4356)">
<path transform="scale(0.0040, -0.0040)" d="M212 138c68 0 113 -38 113 -95c0 -90 -109 -181 -212 -181c-68 0 -113 38 -113 95c0 90 109 181 212 181z" fill="currentColor"/>
</g>
<g transform="translate(32.0422,127.9021)">
<text font-family="Songti SC" font-size="2.7" text-anchor="start" fill="currentColor">
<tspan font-size="2.7">是</tspan>
</text>
</g>
<g transform="translate(33.8546,120.9356)">
<rect x="-0.0757" y="-2.0000" width="0.1514" height="3.3287" ry="0.0500" fill="currentColor"/>
</g>
<g transform="translate(41.6715,122.9356)">
<path transform="scale(0.0040, -0.0040)" d="M212 138c68 0 113 -38 113 -95c0 -90 -109 -181 -212 -181c-68 0 -113 38 -113 95c0 90 109 181 212 181z" fill="currentColor"/>
</g>
<g transform="translate(41.0842,127.9021)">
<text font-family="Songti SC" font-size="2.7" text-anchor="start" fill="currentColor">
<tspan font-size="2.7">神</tspan>
</text>
</g>
<g transform="translate(42.8967,120.9356)">
<rect x="-0.0757" y="-1.5000" width="0.1514" height="3.3287" ry="0.0500" fill="currentColor"/>
</g>
<g transform="translate(53.674,117.44149999999999)">
<text font-family="Hiragino Sans GB" font-size="1.9604" text-anchor="start" fill="currentColor">
<tspan>D</tspan>
</text>
</g>
<g transform="translate(53.674,121.4356)">
<path transform="scale(0.0040, -0.0040)" d="M310 63c0 22 -17 40 -40 40c-38 0 -197 -107 -224 -139c-7 -8 -10 -17 -10 -27c0 -22 17 -40 40 -40c38 0 197 107 224 139c7 8 10 17 10 27zM256 138c55 0 90 -22 90 -77c0 -25 -15 -112 -73 -151c-34 -23 -92 -48 -183 -48c-55 0 -90 22 -90 77c0 25 15 112 73 151 c34 23 92 48 183 48z" fill="currentColor"/>
</g>
<g transform="translate(53.1283,127.9021)">
<text font-family="Songti SC" font-size="2.7" text-anchor="start" fill="currentColor">
<tspan font-size="2.7">自</tspan>
</text>
</g>
<g transform="translate(54.9822,120.9356)">
<rect x="-0.0757" y="-3.0000" width="0.1514" height="3.2544" ry="0.0500" fill="currentColor"/>
</g>
<g transform="translate(68.0197,123.4356)">
<path transform="scale(0.0040, -0.0040)" d="M310 63c0 22 -17 40 -40 40c-38 0 -197 -107 -224 -139c-7 -8 -10 -17 -10 -27c0 -22 17 -40 40 -40c38 0 197 107 224 139c7 8 10 17 10 27zM256 138c55 0 90 -22 90 -77c0 -25 -15 -112 -73 -151c-34 -23 -92 -48 -183 -48c-55 0 -90 22 -90 77c0 25 15 112 73 151 c34 23 92 48 183 48z" fill="currentColor"/>
</g>
<g transform="translate(67.474,127.9021)">
<text font-family="Songti SC" font-size="2.7" text-anchor="start" fill="currentColor">
<tspan font-size="2.7">己</tspan>
</text>
</g>
<g transform="translate(69.3279,120.9356)">
<rect x="-0.0757" y="-1.0000" width="0.1514" height="3.2544" ry="0.0500" fill="currentColor"/>
</g>
<g transform="translate(85.5524,117.44149999999999)">
<text font-family="Hiragino Sans GB" font-size="1.9604" text-anchor="start" fill="currentColor">
<tspan>A</tspan>
</text>
</g>
<g transform="translate(85.5524,122.4356)">
<path transform="scale(0.0040, -0.0040)" d="M212 138c68 0 113 -38 113 -95c0 -90 -109 -181 -212 -181c-68 0 -113 38 -113 95c0 90 109 181 212 181z" fill="currentColor"/>
</g>
<g transform="translate(84.9652,127.9021)">
<text font-family="Songti SC" font-size="2.7" text-anchor="start" fill="currentColor">
<tspan font-size="2.7">作</tspan>
</text>
</g>
<g transform="translate(94.5945,122.9356)">
<path transform="scale(0.0040, -0.0040)" d="M212 138c68 0 113 -38 113 -95c0 -90 -109 -181 -212 -181c-68 0 -113 38 -113 95c0 90 109 181 212 181z" fill="currentColor"/>
</g>
<g transform="translate(94.0072,127.9021)">
<text font-family="Songti SC" font-size="2.7" text-anchor="start" fill="currentColor">
<tspan font-size="2.7">我</tspan>
</text>
</g>
<g transform="translate(95.8196,120.9356)">
<rect x="-0.0757" y="-1.5000" width="0.1514" height="3.3287" ry="0.0500" fill="currentColor"/>
</g>
<g transform="translate(103.3865,117.44149999999999)">
<text font-family="Hiragino Sans GB" font-size="1.9604" text-anchor="start" fill="currentColor">
<tspan>A</tspan>
</text>
</g>
<g transform="translate(104.8376,116.5506)">
<text font-family="Hiragino Sans GB" font-size="1.3856" text-anchor="start" fill="currentColor">
<tspan>7</tspan>
</text>
</g>
<g transform="translate(103.3865,124.4356)">
<path transform="scale(0.0040, -0.0040)" d="M212 138c68 0 113 -38 113 -95c0 -90 -109 -181 -212 -181c-68 0 -113 38 -113 95c0 90 109 181 212 181z" fill="currentColor"/>
</g>
<g transform="translate(102.7992,127.9021)">
<text font-family="Songti SC" font-size="2.7" text-anchor="start" fill="currentColor">
<tspan font-size="2.7">的</tspan>
</text>
</g>
<g transform="translate(104.6117,120.9356)">
<rect x="-0.0757" y="-0.0000" width="0.1514" height="3.3287" ry="0.0500" fill="currentColor"/>
</g>
<g transform="translate(112.4285,123.9356)">
<path transform="scale(0.0040, -0.0040)" d="M212 138c68 0 113 -38 113 -95c0 -90 -109 -181 -212 -181c-68 0 -113 38 -113 95c0 90 109 181 212 181z" fill="currentColor"/>
</g>
<g transform="translate(111.8412,127.9021)">
<text font-family="Songti SC" font-size="2.7" text-anchor="start" fill="currentColor">
<tspan font-size="2.7">永</tspan>
</text>
</g>
<g transform="translate(113.6537,120.9356)">
<rect x="-0.0757" y="-0.5000" width="0.1514" height="3.3287" ry="0.0500" fill="currentColor"/>
</g>
<g transform="translate(125.3718,117.44149999999999)">
<text font-family="Hiragino Sans GB" font-size="1.9604" text-anchor="start" fill="currentColor">
<tspan>D</tspan>
</text>
</g>
<g transform="translate(125.3718,123.4356)">
<path transform="scale(0.0040, -0.0040)" d="M210 110c-18 0 -67 -7 -67 -88c0 -98 87 -132 129 -132c18 0 67 7 67 88c0 98 -87 132 -129 132zM241 138c142 0 241 -66 241 -138s-99 -138 -241 -138s-241 66 -241 138s99 138 241 138z" fill="currentColor"/>
</g>
<g transform="translate(123.8598,127.9021)">
<text font-family="Songti SC" font-size="2.7" text-anchor="start" fill="currentColor">
<tspan font-size="2.7">分。</tspan>
</text>
</g>
<g transform="translate(86.7776,120.9356)">
<rect x="-0.0757" y="-2.0000" width="0.1514" height="3.3287" ry="0.0500" fill="currentColor"/>
</g>
<g transform="translate(72.2535,176.9356)">
<text font-family="Songti SC" font-size="1.5560" text-anchor="start" fill="currentColor">
<tspan> </tspan>
</text>
</g>
<g transform="translate(72.2535,202.9356)">
<text font-family="Songti SC" font-size="1.5560" text-anchor="start" fill="currentColor">
<tspan> </tspan>
</text>
</g>
<g transform="translate(72.2535,228.9356)">
<text font-family="Songti SC" font-size="1.5560" text-anchor="start" fill="currentColor">
<tspan> </tspan>
</text>
</g>
<g transform="translate(72.2535,254.9356)">
<text font-family="Songti SC" font-size="1.5560" text-anchor="start" fill="currentColor">
<tspan> </tspan>
</text>
</g>
<g transform="translate(69.8408,263.96770000000004)">
<text font-family="Trebuchet MS" font-size="2.2001" text-anchor="start" fill="currentColor">
<tspan>www.hymnal.net</tspan>
</text>
</g>
<g transform="translate(17.3271,39.4733)">
<text font-family="Songti SC" font-weight="bold" font-size="2.7" text-anchor="start" fill="currentColor">2.</text></g>
<g transform="translate(19.8209,39.4733)">
<text font-family="Songti SC" font-size="2.7" text-anchor="start" fill="currentColor">神</text></g>
<g transform="translate(34.4245,39.4733)">
<text font-family="Songti SC" font-size="2.7" text-anchor="start" fill="currentColor">成</text></g>
<g transform="translate(43.0989,39.4733)">
<text font-family="Songti SC" font-size="2.7" text-anchor="start" fill="currentColor">为</text></g>
<g transform="translate(54.9942,39.4733)">
<text font-family="Songti SC" font-size="2.7" text-anchor="start" fill="currentColor">肉</text></g>
<g transform="translate(68.4386,39.4733)">
<text font-family="Songti SC" font-size="2.7" text-anchor="start" fill="currentColor">身</text></g>
<g transform="translate(86.5961,39.4733)">
<text font-family="Songti SC" font-size="2.7" text-anchor="start" fill="currentColor">来</text></g>
<g transform="translate(95.543,39.4733)">
<text font-family="Songti SC" font-size="2.7" text-anchor="start" fill="currentColor">与</text></g>
<g transform="translate(104.3736,39.4733)">
<text font-family="Songti SC" font-size="2.7" text-anchor="start" fill="currentColor">人</text></g>
<g transform="translate(113.2981,39.4733)">
<text font-family="Songti SC" font-size="2.7" text-anchor="start" fill="currentColor">调</text></g>
<g transform="translate(125.1914,39.4733)">
<text font-family="Songti SC" font-size="2.7" text-anchor="start" fill="currentColor">和</text></g>
<g transform="translate(17.488,70.0757)">
<text font-family="Songti SC" font-size="2.7" text-anchor="start" fill="currentColor">为</text></g>
<g transform="translate(32.0607,70.0757)">
<text font-family="Songti SC" font-size="2.7" text-anchor="start" fill="currentColor">给</text></g>
<g transform="translate(41.4655,70.0757)">
<text font-family="Songti SC" font-size="2.7" text-anchor="start" fill="currentColor">人</text></g>
<g transform="translate(53.4876,70.0757)">
<text font-family="Songti SC" font-size="2.7" text-anchor="start" fill="currentColor">接</text></g>
<g transform="translate(68.2459,70.0757)">
<text font-family="Songti SC" font-size="2.7" text-anchor="start" fill="currentColor">受</text></g>
<g transform="translate(85.4805,70.0757)">
<text font-family="Songti SC" font-size="2.7" text-anchor="start" fill="currentColor">而</text></g>
<g transform="translate(94.5334,70.0757)">
<text font-family="Songti SC" font-size="2.7" text-anchor="start" fill="currentColor">将</text></g>
<g transform="translate(103.4209,70.0757)">
<text font-family="Songti SC" font-size="2.7" text-anchor="start" fill="currentColor">祂</text></g>
<g transform="translate(112.8257,70.0757)">
<text font-family="Songti SC" font-size="2.7" text-anchor="start" fill="currentColor">得</text></g>
<g transform="translate(124.8815,70.0757)">
<text font-family="Songti SC" font-size="2.7" text-anchor="start" fill="currentColor">着</text></g>
<g transform="translate(17.488,100.5572)">
<text font-family="Songti SC" font-size="2.7" text-anchor="start" fill="currentColor">人</text></g>
<g transform="translate(32.1652,100.5572)">
<text font-family="Songti SC" font-size="2.7" text-anchor="start" fill="currentColor">借</text></g>
<g transform="translate(41.4516,100.5572)">
<text font-family="Songti SC" font-size="2.7" text-anchor="start" fill="currentColor">主</text></g>
<g transform="translate(53.3132,100.5572)">
<text font-family="Songti SC" font-size="2.7" text-anchor="start" fill="currentColor">从</text></g>
<g transform="translate(66.8061,100.5572)">
<text font-family="Songti SC" font-size="2.7" text-anchor="start" fill="currentColor">神</text></g>
<g transform="translate(85.4485,100.5572)">
<text font-family="Songti SC" font-size="2.7" text-anchor="start" fill="currentColor">所</text></g>
<g transform="translate(94.5696,100.5572)">
<text font-family="Songti SC" font-size="2.7" text-anchor="start" fill="currentColor">得</text></g>
<g transform="translate(103.6682,100.5572)">
<text font-family="Songti SC" font-size="2.7" text-anchor="start" fill="currentColor">的</text></g>
<g transform="translate(112.5392,100.5572)">
<text font-family="Songti SC" font-size="2.7" text-anchor="start" fill="currentColor">恩</text></g>
<g transform="translate(124.7169,100.5572)">
<text font-family="Songti SC" font-size="2.7" text-anchor="start" fill="currentColor">典</text></g>
<g transform="translate(17.488,131.90210000000002)">
<text font-family="Songti SC" font-size="2.7" text-anchor="start" fill="currentColor">就</text></g>
<g transform="translate(32.0422,131.90210000000002)">
<text font-family="Songti SC" font-size="2.7" text-anchor="start" fill="currentColor">是</text></g>
<g transform="translate(41.0842,131.90210000000002)">
<text font-family="Songti SC" font-size="2.7" text-anchor="start" fill="currentColor">主</text></g>
<g transform="translate(53.1283,131.90210000000002)">
<text font-family="Songti SC" font-size="2.7" text-anchor="start" fill="currentColor">自</text></g>
<g transform="translate(67.474,131.90210000000002)">
<text font-family="Songti SC" font-size="2.7" text-anchor="start" fill="currentColor">己</text></g>
<g transform="translate(84.9652,131.90210000000002)">
<text font-family="Songti SC" font-size="2.7" text-anchor="start" fill="currentColor">来</text></g>
<g transform="translate(94.0072,131.90210000000002)">
<text font-family="Songti SC" font-size="2.7" text-anchor="start" fill="currentColor">住</text></g>
<g transform="translate(102.7992,131.90210000000002)">
<text font-family="Songti SC" font-size="2.7" text-anchor="start" fill="currentColor">我</text></g>
<g transform="translate(111.8412,131.90210000000002)">
<text font-family="Songti SC" font-size="2.7" text-anchor="start" fill="currentColor">心</text></g>
<g transform="translate(123.8598,131.90210000000002)">
<text font-family="Songti SC" font-size="2.7" text-anchor="start" fill="currentColor">间</text></g>
<g transform="translate(17.3271,43.4733)">
<text font-family="Songti SC" font-weight="bold" font-size="2.7" text-anchor="start" fill="currentColor">3.</text></g>
<g transform="translate(19.8209,43.4733)">
<text font-family="Songti SC" font-size="2.7" text-anchor="start" fill="currentColor">在</text></g>
<g transform="translate(34.4245,43.4733)">
<text font-family="Songti SC" font-size="2.7" text-anchor="start" fill="currentColor">使</text></g>
<g transform="translate(43.0989,43.4733)">
<text font-family="Songti SC" font-size="2.7" text-anchor="start" fill="currentColor">徒</text></g>
<g transform="translate(54.9942,43.4733)">
<text font-family="Songti SC" font-size="2.7" text-anchor="start" fill="currentColor">保</text></g>
<g transform="translate(68.4386,43.4733)">
<text font-family="Songti SC" font-size="2.7" text-anchor="start" fill="currentColor">罗</text></g>
<g transform="translate(86.5961,43.4733)">
<text font-family="Songti SC" font-size="2.7" text-anchor="start" fill="currentColor">万</text></g>
<g transform="translate(95.543,43.4733)">
<text font-family="Songti SC" font-size="2.7" text-anchor="start" fill="currentColor">事</text></g>
<g transform="translate(104.3736,43.4733)">
<text font-family="Songti SC" font-size="2.7" text-anchor="start" fill="currentColor">如</text></g>
<g transform="translate(113.2981,43.4733)">
<text font-family="Songti SC" font-size="2.7" text-anchor="start" fill="currentColor">粪</text></g>
<g transform="translate(125.1914,43.4733)">
<text font-family="Songti SC" font-size="2.7" text-anchor="start" fill="currentColor">土</text></g>
<g transform="translate(17.488,74.0757)">
<text font-family="Songti SC" font-size="2.7" text-anchor="start" fill="currentColor">恩</text></g>
<g transform="translate(32.0607,74.0757)">
<text font-family="Songti SC" font-size="2.7" text-anchor="start" fill="currentColor">典</text></g>
<g transform="translate(41.4655,74.0757)">
<text font-family="Songti SC" font-size="2.7" text-anchor="start" fill="currentColor">之</text></g>
<g transform="translate(53.4876,74.0757)">
<text font-family="Songti SC" font-size="2.7" text-anchor="start" fill="currentColor">于</text></g>
<g transform="translate(68.2459,74.0757)">
<text font-family="Songti SC" font-size="2.7" text-anchor="start" fill="currentColor">他</text></g>
<g transform="translate(85.4805,74.0757)">
<text font-family="Songti SC" font-size="2.7" text-anchor="start" fill="currentColor">只</text></g>
<g transform="translate(94.5334,74.0757)">
<text font-family="Songti SC" font-size="2.7" text-anchor="start" fill="currentColor">是</text></g>
<g transform="translate(103.4209,74.0757)">
<text font-family="Songti SC" font-size="2.7" text-anchor="start" fill="currentColor">神</text></g>
<g transform="translate(112.8257,74.0757)">
<text font-family="Songti SC" font-size="2.7" text-anchor="start" fill="currentColor">基</text></g>
<g transform="translate(124.8815,74.0757)">
<text font-family="Songti SC" font-size="2.7" text-anchor="start" fill="currentColor">督</text></g>
<g transform="translate(17.488,104.5572)">
<text font-family="Songti SC" font-size="2.7" text-anchor="start" fill="currentColor">乃</text></g>
<g transform="translate(32.1652,104.5572)">
<text font-family="Songti SC" font-size="2.7" text-anchor="start" fill="currentColor">借</text></g>
<g transform="translate(41.4516,104.5572)">
<text font-family="Songti SC" font-size="2.7" text-anchor="start" fill="currentColor">这</text></g>
<g transform="translate(53.3132,104.5572)">
<text font-family="Songti SC" font-size="2.7" text-anchor="start" fill="currentColor">恩</text></g>
<g transform="translate(66.8061,104.5572)">
<text font-family="Songti SC" font-size="2.7" text-anchor="start" fill="currentColor">典</text></g>
<g transform="translate(85.4485,104.5572)">
<text font-family="Songti SC" font-size="2.7" text-anchor="start" fill="currentColor">他</text></g>
<g transform="translate(94.5696,104.5572)">
<text font-family="Songti SC" font-size="2.7" text-anchor="start" fill="currentColor">所</text></g>
<g transform="translate(103.6682,104.5572)">
<text font-family="Songti SC" font-size="2.7" text-anchor="start" fill="currentColor">经</text></g>
<g transform="translate(112.5392,104.5572)">
<text font-family="Songti SC" font-size="2.7" text-anchor="start" fill="currentColor">历</text></g>
<g transform="translate(124.7169,104.5572)">
<text font-family="Songti SC" font-size="2.7" text-anchor="start" fill="currentColor">主</text></g>
<g transform="translate(17.488,135.90210000000002)">
<text font-family="Songti SC" font-size="2.7" text-anchor="start" fill="currentColor">他</text></g>
<g transform="translate(32.0422,135.90210000000002)">
<text font-family="Songti SC" font-size="2.7" text-anchor="start" fill="currentColor">为</text></g>
<g transform="translate(41.0842,135.90210000000002)">
<text font-family="Songti SC" font-size="2.7" text-anchor="start" fill="currentColor">主</text></g>
<g transform="translate(53.1283,135.90210000000002)">
<text font-family="Songti SC" font-size="2.7" text-anchor="start" fill="currentColor">劳</text></g>
<g transform="translate(67.474,135.90210000000002)">
<text font-family="Songti SC" font-size="2.7" text-anchor="start" fill="currentColor">苦</text></g>
<g transform="translate(84.9652,135.90210000000002)">
<text font-family="Songti SC" font-size="2.7" text-anchor="start" fill="currentColor">超</text></g>
<g transform="translate(94.0072,135.90210000000002)">
<text font-family="Songti SC" font-size="2.7" text-anchor="start" fill="currentColor">过</text></g>
<g transform="translate(102.7992,135.90210000000002)">
<text font-family="Songti SC" font-size="2.7" text-anchor="start" fill="currentColor">众</text></g>
<g transform="translate(111.8412,135.90210000000002)">
<text font-family="Songti SC" font-size="2.7" text-anchor="start" fill="currentColor">使</text></g>
<g transform="translate(123.8598,135.90210000000002)">
<text font-family="Songti SC" font-size="2.7" text-anchor="start" fill="currentColor">徒</text></g>
<g transform="translate(17.3271,47.4733)">
<text font-family="Songti SC" font-weight="bold" font-size="2.7" text-anchor="start" fill="currentColor">4.</text></g>
<g transform="translate(19.8209,47.4733)">
<text font-family="Songti SC" font-size="2.7" text-anchor="start" fill="currentColor">基</text></g>
<g transform="translate(34.4245,47.4733)">
<text font-family="Songti SC" font-size="2.7" text-anchor="start" fill="currentColor">督</text></g>
<g transform="translate(43.0989,47.4733)">
<text font-family="Songti SC" font-size="2.7" text-anchor="start" fill="currentColor">在</text></g>
<g transform="translate(54.9942,47.4733)">
<text font-family="Songti SC" font-size="2.7" text-anchor="start" fill="currentColor">我</text></g>
<g transform="translate(68.4386,47.4733)">
<text font-family="Songti SC" font-size="2.7" text-anchor="start" fill="currentColor">里</text></g>
<g transform="translate(86.5961,47.4733)">
<text font-family="Songti SC" font-size="2.7" text-anchor="start" fill="currentColor">作</text></g>
<g transform="translate(95.543,47.4733)">
<text font-family="Songti SC" font-size="2.7" text-anchor="start" fill="currentColor">我</text></g>
<g transform="translate(104.3736,47.4733)">
<text font-family="Songti SC" font-size="2.7" text-anchor="start" fill="currentColor">的</text></g>
<g transform="translate(113.2981,47.4733)">
<text font-family="Songti SC" font-size="2.7" text-anchor="start" fill="currentColor">能</text></g>
<g transform="translate(125.1914,47.4733)">
<text font-family="Songti SC" font-size="2.7" text-anchor="start" fill="currentColor">力</text></g>
<g transform="translate(17.488,78.0757)">
<text font-family="Songti SC" font-size="2.7" text-anchor="start" fill="currentColor">乃</text></g>
<g transform="translate(32.0607,78.0757)">
<text font-family="Songti SC" font-size="2.7" text-anchor="start" fill="currentColor">是</text></g>
<g transform="translate(41.4655,78.0757)">
<text font-family="Songti SC" font-size="2.7" text-anchor="start" fill="currentColor">真</text></g>
<g transform="translate(53.4876,78.0757)">
<text font-family="Songti SC" font-size="2.7" text-anchor="start" fill="currentColor">恩</text></g>
<g transform="translate(68.2459,78.0757)">
<text font-family="Songti SC" font-size="2.7" text-anchor="start" fill="currentColor">典</text></g>
<g transform="translate(85.4805,78.0757)">
<text font-family="Songti SC" font-size="2.7" text-anchor="start" fill="currentColor">够</text></g>
<g transform="translate(94.5334,78.0757)">
<text font-family="Songti SC" font-size="2.7" text-anchor="start" fill="currentColor">为</text></g>
<g transform="translate(103.4209,78.0757)">
<text font-family="Songti SC" font-size="2.7" text-anchor="start" fill="currentColor">我</text></g>
<g transform="translate(112.8257,78.0757)">
<text font-family="Songti SC" font-size="2.7" text-anchor="start" fill="currentColor">赖</text></g>
<g transform="translate(124.8815,78.0757)">
<text font-family="Songti SC" font-size="2.7" text-anchor="start" fill="currentColor">倚</text></g>
<g transform="translate(17.488,108.5572)">
<text font-family="Songti SC" font-size="2.7" text-anchor="start" fill="currentColor">这</text></g>
<g transform="translate(32.1652,108.5572)">
<text font-family="Songti SC" font-size="2.7" text-anchor="start" fill="currentColor">够</text></g>
<g transform="translate(41.4516,108.5572)">
<text font-family="Songti SC" font-size="2.7" text-anchor="start" fill="currentColor">用</text></g>
<g transform="translate(53.3132,108.5572)">
<text font-family="Songti SC" font-size="2.7" text-anchor="start" fill="currentColor">恩</text></g>
<g transform="translate(66.8061,108.5572)">
<text font-family="Songti SC" font-size="2.7" text-anchor="start" fill="currentColor">典</text></g>
<g transform="translate(85.4485,108.5572)">
<text font-family="Songti SC" font-size="2.7" text-anchor="start" fill="currentColor">在</text></g>
<g transform="translate(94.5696,108.5572)">
<text font-family="Songti SC" font-size="2.7" text-anchor="start" fill="currentColor">我</text></g>
<g transform="translate(103.6682,108.5572)">
<text font-family="Songti SC" font-size="2.7" text-anchor="start" fill="currentColor">的</text></g>
<g transform="translate(112.5392,108.5572)">
<text font-family="Songti SC" font-size="2.7" text-anchor="start" fill="currentColor">灵</text></g>
<g transform="translate(124.7169,108.5572)">
<text font-family="Songti SC" font-size="2.7" text-anchor="start" fill="currentColor">里</text></g>
<g transform="translate(17.488,139.90210000000002)">
<text font-family="Songti SC" font-size="2.7" text-anchor="start" fill="currentColor">时</text></g>
<g transform="translate(32.0422,139.90210000000002)">
<text font-family="Songti SC" font-size="2.7" text-anchor="start" fill="currentColor">常</text></g>
<g transform="translate(41.0842,139.90210000000002)">
<text font-family="Songti SC" font-size="2.7" text-anchor="start" fill="currentColor">加</text></g>
<g transform="translate(53.1283,139.90210000000002)">
<text font-family="Songti SC" font-size="2.7" text-anchor="start" fill="currentColor">我</text></g>
<g transform="translate(67.474,139.90210000000002)">
<text font-family="Songti SC" font-size="2.7" text-anchor="start" fill="currentColor">力</text></g>
<g transform="translate(84.9652,139.90210000000002)">
<text font-family="Songti SC" font-size="2.7" text-anchor="start" fill="currentColor">完</text></g>
<g transform="translate(94.0072,139.90210000000002)">
<text font-family="Songti SC" font-size="2.7" text-anchor="start" fill="currentColor">成</text></g>
<g transform="translate(102.7992,139.90210000000002)">
<text font-family="Songti SC" font-size="2.7" text-anchor="start" fill="currentColor">神</text></g>
<g transform="translate(111.8412,139.90210000000002)">
<text font-family="Songti SC" font-size="2.7" text-anchor="start" fill="currentColor">旨</text></g>
<g transform="translate(123.8598,139.90210000000002)">
<text font-family="Songti SC" font-size="2.7" text-anchor="start" fill="currentColor">意</text></g>
<g transform="translate(17.3271,51.4733)">
<text font-family="Songti SC" font-weight="bold" font-size="2.7" text-anchor="start" fill="currentColor">5.</text></g>
<g transform="translate(19.8209,51.4733)">
<text font-family="Songti SC" font-size="2.7" text-anchor="start" fill="currentColor">这</text></g>
<g transform="translate(34.4245,51.4733)">
<text font-family="Songti SC" font-size="2.7" text-anchor="start" fill="currentColor">恩</text></g>
<g transform="translate(43.0989,51.4733)">
<text font-family="Songti SC" font-size="2.7" text-anchor="start" fill="currentColor">典</text></g>
<g transform="translate(54.9942,51.4733)">
<text font-family="Songti SC" font-size="2.7" text-anchor="start" fill="currentColor">就</text></g>
<g transform="translate(68.4386,51.4733)">
<text font-family="Songti SC" font-size="2.7" text-anchor="start" fill="currentColor">是</text></g>
<g transform="translate(86.5961,51.4733)">
<text font-family="Songti SC" font-size="2.7" text-anchor="start" fill="currentColor">那</text></g>
<g transform="translate(95.543,51.4733)">
<text font-family="Songti SC" font-size="2.7" text-anchor="start" fill="currentColor">活</text></g>
<g transform="translate(104.3736,51.4733)">
<text font-family="Songti SC" font-size="2.7" text-anchor="start" fill="currentColor">的</text></g>
<g transform="translate(113.2981,51.4733)">
<text font-family="Songti SC" font-size="2.7" text-anchor="start" fill="currentColor">基</text></g>
<g transform="translate(125.1914,51.4733)">
<text font-family="Songti SC" font-size="2.7" text-anchor="start" fill="currentColor">督</text></g>
<g transform="translate(17.488,82.0757)">
<text font-family="Songti SC" font-size="2.7" text-anchor="start" fill="currentColor">作</text></g>
<g transform="translate(32.0607,82.0757)">
<text font-family="Songti SC" font-size="2.7" text-anchor="start" fill="currentColor">我</text></g>
<g transform="translate(41.4655,82.0757)">
<text font-family="Songti SC" font-size="2.7" text-anchor="start" fill="currentColor">的</text></g>
<g transform="translate(53.4876,82.0757)">
<text font-family="Songti SC" font-size="2.7" text-anchor="start" fill="currentColor">一</text></g>
<g transform="translate(68.2459,82.0757)">
<text font-family="Songti SC" font-size="2.7" text-anchor="start" fill="currentColor">切</text></g>
<g transform="translate(85.4805,82.0757)">
<text font-family="Songti SC" font-size="2.7" text-anchor="start" fill="currentColor">时</text></g>
<g transform="translate(94.5334,82.0757)">
<text font-family="Songti SC" font-size="2.7" text-anchor="start" fill="currentColor">将</text></g>
<g transform="translate(103.4209,82.0757)">
<text font-family="Songti SC" font-size="2.7" text-anchor="start" fill="currentColor">我</text></g>
<g transform="translate(112.8257,82.0757)">
<text font-family="Songti SC" font-size="2.7" text-anchor="start" fill="currentColor">眷</text></g>
<g transform="translate(124.8815,82.0757)">
<text font-family="Songti SC" font-size="2.7" text-anchor="start" fill="currentColor">顾</text></g>
<g transform="translate(17.488,112.5572)">
<text font-family="Songti SC" font-size="2.7" text-anchor="start" fill="currentColor">主</text></g>
<g transform="translate(32.1652,112.5572)">
<text font-family="Songti SC" font-size="2.7" text-anchor="start" fill="currentColor">愿</text></g>
<g transform="translate(41.4516,112.5572)">
<text font-family="Songti SC" font-size="2.7" text-anchor="start" fill="currentColor">我</text></g>
<g transform="translate(53.3132,112.5572)">
<text font-family="Songti SC" font-size="2.7" text-anchor="start" fill="currentColor">认</text></g>
<g transform="translate(66.8061,112.5572)">
<text font-family="Songti SC" font-size="2.7" text-anchor="start" fill="currentColor">识</text></g>
<g transform="translate(85.4485,112.5572)">
<text font-family="Songti SC" font-size="2.7" text-anchor="start" fill="currentColor">你</text></g>
<g transform="translate(94.5696,112.5572)">
<text font-family="Songti SC" font-size="2.7" text-anchor="start" fill="currentColor">这</text></g>
<g transform="translate(103.6682,112.5572)">
<text font-family="Songti SC" font-size="2.7" text-anchor="start" fill="currentColor">真</text></g>
<g transform="translate(112.5392,112.5572)">
<text font-family="Songti SC" font-size="2.7" text-anchor="start" fill="currentColor">恩</text></g>
<g transform="translate(124.7169,112.5572)">
<text font-family="Songti SC" font-size="2.7" text-anchor="start" fill="currentColor">典</text></g>
<g transform="translate(17.488,143.90210000000002)">
<text font-family="Songti SC" font-size="2.7" text-anchor="start" fill="currentColor">享</text></g>
<g transform="translate(32.0422,143.90210000000002)">
<text font-family="Songti SC" font-size="2.7" text-anchor="start" fill="currentColor">你</text></g>
<g transform="translate(41.0842,143.90210000000002)">
<text font-family="Songti SC" font-size="2.7" text-anchor="start" fill="currentColor">作</text></g>
<g transform="translate(53.1283,143.90210000000002)">
<text font-family="Songti SC" font-size="2.7" text-anchor="start" fill="currentColor">恩</text></g>
<g transform="translate(67.474,143.90210000000002)">
<text font-family="Songti SC" font-size="2.7" text-anchor="start" fill="currentColor">典</text></g>
<g transform="translate(84.9652,143.90210000000002)">
<text font-family="Songti SC" font-size="2.7" text-anchor="start" fill="currentColor">一</text></g>
<g transform="translate(94.0072,143.90210000000002)">
<text font-family="Songti SC" font-size="2.7" text-anchor="start" fill="currentColor">直</text></g>
<g transform="translate(102.7992,143.90210000000002)">
<text font-family="Songti SC" font-size="2.7" text-anchor="start" fill="currentColor">的</text></g>
<g transform="translate(111.8412,143.90210000000002)">
<text font-family="Songti SC" font-size="2.7" text-anchor="start" fill="currentColor">增</text></g>
<g transform="translate(123.8598,143.90210000000002)">
<text font-family="Songti SC" font-size="2.7" text-anchor="start" fill="currentColor">添</text></g>
</svg>