<?xml version='1.0' encoding='UTF-8'?>
<svg xmlns="http://www.w3.org/2000/svg" xmlns:xlink="http://www.w3.org/1999/xlink" version="1.2" width="215.90mm" height="279.40mm" viewBox="0.0000 -0.0000 153.5737 198.7425">
<style type="text/css">

tspan { white-space: pre; }

</style>
<g transform="translate(65.6796, 9.7380)">
<text font-family="Songti SC" font-weight="bold" font-size="3.1113" text-anchor="start" fill="currentColor">
<tspan>我们呼吸天上空气</tspan>
</text>
</g>
<g transform="translate(72.5937, 13.2380)">
<text font-family="Songti SC" font-weight="bold" font-size="2.2001" text-anchor="start" fill="currentColor">
<tspan>召会－交通</tspan>
</text>
</g>
<g transform="translate(135.2146, 17.7516)">
<text font-family="Songti SC" font-size="5.8741" text-anchor="start" fill="currentColor">
<tspan>C623</tspan>
</text>
</g>
<g transform="translate(9.0337, 19.6936)">
<text font-family="Songti SC" font-weight="bold" font-style="italic" font-size="2.2001" text-anchor="start" fill="currentColor">
<tspan>(吉他)</tspan>
</text>
</g>
<g transform="translate(32.3359, 28.7607)">
<rect x="0.0000" y="-2.0000" width="0.2212" height="4.0000" ry="0.0000" fill="currentColor"/>
</g>
<g transform="translate(9.0337, 30.7607)">
<line stroke-linejoin="round" stroke-linecap="round" stroke-width="0.1164" stroke="currentColor" x1="0.0582" y1="0" x2="138.1582" y2="0"/>
</g>
<g transform="translate(9.0337, 29.7607)">
<line stroke-linejoin="round" stroke-linecap="round" stroke-width="0.1164" stroke="currentColor" x1="0.0582" y1="0" x2="138.1582" y2="0"/>
</g>
<g transform="translate(9.0337, 28.7607)">
<line stroke-linejoin="round" stroke-linecap="round" stroke-width="0.1164" stroke="currentColor" x1="0.0582" y1="0" x2="138.1582" y2="0"/>
</g>
<g transform="translate(9.0337, 27.7607)">
<line stroke-linejoin="round" stroke-linecap="round" stroke-width="0.1164" stroke="currentColor" x1="0.0582" y1="0" x2="138.1582" y2="0"/>
</g>
<g transform="translate(9.0337, 26.7607)">
<line stroke-linejoin="round" stroke-linecap="round" stroke-width="0.1164" stroke="currentColor" x1="0.0582" y1="0" x2="138.1582" y2="0"/>
</g>
<g transform="translate(147.0289, 28.7607)">
<rect x="0.0000" y="-2.0000" width="0.2212" height="4.0000" ry="0.0000" fill="currentColor"/>
</g>
<g transform="translate(109.1684, 28.7607)">
<rect x="0.0000" y="-2.0000" width="0.2212" height="4.0000" ry="0.0000" fill="currentColor"/>
</g>
<g transform="translate(71.0409, 28.7607)">
<rect x="0.0000" y="-2.0000" width="0.2212" height="4.0000" ry="0.0000" fill="currentColor"/>
</g>
<g transform="translate(74.9662, 28.7607)">
<rect x="-0.0757" y="0.2456" width="0.1514" height="3.0878" ry="0.0500" fill="currentColor"/>
</g>
<g transform="translate(19.2056, 25.7450)">
<text font-family="Hiragino Sans GB" font-size="1.9604" text-anchor="start" fill="currentColor">
<tspan>G</tspan>
</text>
</g>
<g transform="translate(19.2056, 31.2607)">
<path transform="scale(0.0040, -0.0040)" d="M212 138c68 0 113 -38 113 -95c0 -90 -109 -181 -212 -181c-68 0 -113 38 -113 95c0 90 109 181 212 181z" fill="currentColor"/>
</g>
<g transform="translate(9.8338, 29.7607)">
<path transform="scale(0.0040, -0.0040)" d="M647 2c0 -114 -75 -214 -180 -248c3 -33 4 -66 4 -99c0 -21 0 -41 -1 -62c-7 -122 -92 -229 -211 -229c-108 0 -196 88 -196 197c0 58 54 103 113 103c54 0 95 -47 95 -103c0 -52 -43 -95 -95 -95c-9 0 -18 1 -27 4c25 -37 66 -61 113 -61c93 0 156 91 162 191 c1 19 2 38 2 57c0 29 -1 58 -3 87c-5 -1 -44 -8 -88 -8c-194 0 -333 181 -333 376c0 177 129 308 244 443c-34 103 -55 171 -55 347c0 114 54 221 147 288c8 6 18 5 25 -1c68 -79 135 -242 135 -356c0 -142 -84 -255 -176 -364c21 -68 40 -136 57 -205c1 0 5 1 10 1 c157 0 258 -129 258 -263zM463 -201c64 24 110 88 110 161c0 88 -64 175 -167 188c28 -133 49 -269 57 -349zM77 25c0 -144 141 -243 261 -243c1 0 46 -1 81 5c-7 66 -27 208 -60 362c-79 -8 -124 -60 -124 -118c0 -43 25 -88 80 -120c5 -5 7 -11 7 -17 c0 -12 -10 -23 -23 -23c-16 0 -128 62 -128 188c0 89 60 177 163 200c-14 57 -30 113 -47 169c-105 -122 -210 -243 -210 -403zM242 784c0 -39 10 -95 39 -188c78 97 142 199 142 324c0 33 0 60 -20 118c-99 -46 -161 -145 -161 -254z" fill="currentColor"/>
</g>
<g transform="translate(13.3337, 26.7607)">
<path transform="scale(0.0040, -0.0040)" d="M0 116c0 10 6 19 16 23l40 15v154c0 12 9 21 21 21s21 -9 21 -21v-138l79 30v154c0 12 9 21 21 21s21 -9 21 -21v-138l22 8c3 1 6 2 9 2c13 0 25 -11 25 -25v-54c0 -10 -6 -20 -16 -24l-40 -15v-155l22 9c3 1 6 1 9 1c13 0 25 -11 25 -25v-54c0 -10 -6 -19 -16 -23 l-40 -15v-154c0 -12 -9 -21 -21 -21s-21 9 -21 21v138l-79 -30v-154c0 -12 -9 -21 -21 -21s-21 9 -21 21v138l-22 -8c-3 -1 -6 -2 -9 -2c-13 0 -25 11 -25 25v54c0 10 6 20 16 24l40 15v155l-22 -9c-3 -1 -6 -1 -9 -1c-13 0 -25 11 -25 25v54zM177 92l-79 -30v-154l79 30 v154z" fill="currentColor"/>
</g>
<g transform="translate(15.7118, 28.7607)">
<path transform="scale(0.0040, -0.0040)" d="M266 265c0 -36 73 -25 73 -125c0 -93 -81 -140 -182 -140c-80 0 -157 43 -157 116c0 35 29 64 64 64s64 -29 64 -64c0 -24 -39 -29 -39 -53c0 -29 35 -37 68 -37c47 0 59 59 59 114v28c0 47 -2 81 -46 81h-77c-11 0 -16 8 -16 16s5 16 16 16h77c44 0 46 37 46 86v19 c0 53 -15 88 -63 88c-30 0 -62 -8 -62 -34c0 -21 35 -25 35 -46c0 -31 -25 -56 -56 -56s-56 25 -56 56c0 65 68 106 139 106c92 0 171 -32 171 -114c0 -117 -58 -79 -58 -121z" fill="currentColor"/>
</g>
<g transform="translate(15.5838, 30.7729)">
<path transform="scale(0.0040, -0.0040)" d="M223 487c37 0 71 14 79 14c9 0 15 -7 15 -13c0 -2 0 -4 -2 -6l-283 -325h160v115c0 36 36 28 71 75c23 31 24 58 38 58c7 0 14 -5 14 -15v-233h76c11 0 16 -8 16 -16s-5 -16 -16 -16h-76v-2c0 -50 30 -97 77 -97c9 0 12 -7 12 -13s-3 -13 -12 -13c-46 0 -92 13 -138 13 s-93 -13 -139 -13c-9 0 -12 7 -12 13s3 13 12 13c47 0 77 47 77 97v2h-160c-26 0 -34 15 -34 25c0 12 133 136 133 332c0 11 8 21 18 18c24 -7 49 -13 74 -13z" fill="currentColor"/>
</g>
<g transform="translate(18.6183,34.9511)">
<text font-family="Songti SC" font-size="2.7" text-anchor="start" fill="currentColor">
<tspan font-size="2.7">我</tspan>
</text>
</g>
<g transform="translate(16.1245,34.9511)">
<text font-family="Songti SC" font-weight="bold" font-size="2.7" text-anchor="start" fill="currentColor">
<tspan font-size="2.7">1.</tspan>
</text>
</g>
<g transform="translate(20.4307, 28.7607)">
<rect x="-0.0757" y="-1.0000" width="0.1514" height="3.3287" ry="0.0500" fill="currentColor"/>
</g>
<g transform="translate(36.0852, 29.7607)">
<path transform="scale(0.0040, -0.0040)" d="M310 63c0 22 -17 40 -40 40c-38 0 -197 -107 -224 -139c-7 -8 -10 -17 -10 -27c0 -22 17 -40 40 -40c38 0 197 107 224 139c7 8 10 17 10 27zM256 138c55 0 90 -22 90 -77c0 -25 -15 -112 -73 -151c-34 -23 -92 -48 -183 -48c-55 0 -90 22 -90 77c0 25 15 112 73 151 c34 23 92 48 183 48z" fill="currentColor"/>
</g>
<g transform="translate(35.5395,34.9511)">
<text font-family="Songti SC" font-size="2.7" text-anchor="start" fill="currentColor">
<tspan font-size="2.7">们</tspan>
</text>
</g>
<g transform="translate(37.3934, 28.7607)">
<rect x="-0.0757" y="-2.5000" width="0.1514" height="3.2544" ry="0.0500" fill="currentColor"/>
</g>
<g transform="translate(57.5426, 28.7607)">
<path stroke-width="0.0931" stroke-linejoin="round" stroke-linecap="round" stroke="currentColor" fill="currentColor" d="M0.5847 1.2027C1.7712 2.6320 5.5476 3.2109 7.1078 2.2027L7.1078 2.2027C5.5688 3.0728 1.7924 2.4939 0.5847 1.2027z"/>
</g>
<g transform="translate(57.5426, 28.7607)">
<path transform="scale(0.0040, -0.0040)" d="M212 138c68 0 113 -38 113 -95c0 -90 -109 -181 -212 -181c-68 0 -113 38 -113 95c0 90 109 181 212 181z" fill="currentColor"/>
</g>
<g transform="translate(57.5426,34.9511)">
<text font-family="Songti SC" font-size="2.7" text-anchor="start" fill="currentColor">
<tspan font-size="2.7">呼</tspan>
</text>
</g>
<g transform="translate(58.7678, 28.7607)">
<rect x="-0.0757" y="-2.8110" width="0.1514" height="2.6397" ry="0.0500" fill="currentColor"/>
</g>
<g transform="translate(58.6921, 25.9425)">
<polygon stroke-linejoin="round" stroke-linecap="round" stroke-width="0.1000" fill="currentColor" stroke="currentColor" points="6.6244 0.4464 6.6244 0.8264 0.0500 0.1900 0.0500 -0.1900"/>
</g>
<g transform="translate(64.0657, 29.7607)">
<path transform="scale(0.0040, -0.0040)" d="M212 138c68 0 113 -38 113 -95c0 -90 -109 -181 -212 -181c-68 0 -113 38 -113 95c0 90 109 181 212 181z" fill="currentColor"/>
</g>
<g transform="translate(65.2909, 28.7607)">
<rect x="-0.0757" y="-2.1890" width="0.1514" height="3.0177" ry="0.0500" fill="currentColor"/>
</g>
<g transform="translate(74.8905, 28.7607)">
<path transform="scale(0.0040, -0.0040)" d="M310 63c0 22 -17 40 -40 40c-38 0 -197 -107 -224 -139c-7 -8 -10 -17 -10 -27c0 -22 17 -40 40 -40c38 0 197 107 224 139c7 8 10 17 10 27zM256 138c55 0 90 -22 90 -77c0 -25 -15 -112 -73 -151c-34 -23 -92 -48 -183 -48c-55 0 -90 22 -90 77c0 25 15 112 73 151 c34 23 92 48 183 48z" fill="currentColor"/>
</g>
<g transform="translate(74.3447,34.9511)">
<text font-family="Songti SC" font-size="2.7" text-anchor="start" fill="currentColor">
<tspan font-size="2.7">吸</tspan>
</text>
</g>
<g transform="translate(96.0860, 29.2607)">
<path transform="scale(0.0040, -0.0040)" d="M212 138c68 0 113 -38 113 -95c0 -90 -109 -181 -212 -181c-68 0 -113 38 -113 95c0 90 109 181 212 181z" fill="currentColor"/>
</g>
<g transform="translate(95.4987,34.9511)">
<text font-family="Songti SC" font-size="2.7" text-anchor="start" fill="currentColor">
<tspan font-size="2.7">天</tspan>
</text>
</g>
<g transform="translate(97.3112, 28.7607)">
<rect x="-0.0757" y="-3.0000" width="0.1514" height="3.3287" ry="0.0500" fill="currentColor"/>
</g>
<g transform="translate(112.9177, 25.7450)">
<text font-family="Hiragino Sans GB" font-size="1.9604" text-anchor="start" fill="currentColor">
<tspan>C</tspan>
</text>
</g>
<g transform="translate(112.9177, 29.7607)">
<path transform="scale(0.0040, -0.0040)" d="M310 63c0 22 -17 40 -40 40c-38 0 -197 -107 -224 -139c-7 -8 -10 -17 -10 -27c0 -22 17 -40 40 -40c38 0 197 107 224 139c7 8 10 17 10 27zM256 138c55 0 90 -22 90 -77c0 -25 -15 -112 -73 -151c-34 -23 -92 -48 -183 -48c-55 0 -90 22 -90 77c0 25 15 112 73 151 c34 23 92 48 183 48z" fill="currentColor"/>
</g>
<g transform="translate(112.372,34.9511)">
<text font-family="Songti SC" font-size="2.7" text-anchor="start" fill="currentColor">
<tspan font-size="2.7">上</tspan>
</text>
</g>
<g transform="translate(114.2259, 28.7607)">
<rect x="-0.0757" y="-2.5000" width="0.1514" height="3.2544" ry="0.0500" fill="currentColor"/>
</g>
<g transform="translate(133.8751, 30.7607)">
<path transform="scale(0.0040, -0.0040)" d="M212 138c68 0 113 -38 113 -95c0 -90 -109 -181 -212 -181c-68 0 -113 38 -113 95c0 90 109 181 212 181z" fill="currentColor"/>
</g>
<g transform="translate(133.2879,34.9511)">
<text font-family="Songti SC" font-size="2.7" text-anchor="start" fill="currentColor">
<tspan font-size="2.7">空</tspan>
</text>
</g>
<g transform="translate(135.1003, 28.7607)">
<rect x="-0.0757" y="-1.5000" width="0.1514" height="3.3287" ry="0.0500" fill="currentColor"/>
</g>
<g transform="translate(57.233,50.7607)">
<rect x="0.0000" y="-2.0000" width="0.2212" height="4.0000" ry="0.0000" fill="currentColor"/>
</g>
<g transform="translate(9.0337,52.7607)">
<line stroke-linejoin="round" stroke-linecap="round" stroke-width="0.1164" stroke="currentColor" x1="0.0582" y1="0" x2="138.1582" y2="0"/>
</g>
<g transform="translate(9.0337,51.7607)">
<line stroke-linejoin="round" stroke-linecap="round" stroke-width="0.1164" stroke="currentColor" x1="0.0582" y1="0" x2="138.1582" y2="0"/>
</g>
<g transform="translate(9.0337,50.7607)">
<line stroke-linejoin="round" stroke-linecap="round" stroke-width="0.1164" stroke="currentColor" x1="0.0582" y1="0" x2="138.1582" y2="0"/>
</g>
<g transform="translate(9.0337,49.7607)">
<line stroke-linejoin="round" stroke-linecap="round" stroke-width="0.1164" stroke="currentColor" x1="0.0582" y1="0" x2="138.1582" y2="0"/>
</g>
<g transform="translate(9.0337,48.7607)">
<line stroke-linejoin="round" stroke-linecap="round" stroke-width="0.1164" stroke="currentColor" x1="0.0582" y1="0" x2="138.1582" y2="0"/>
</g>
<g transform="translate(147.0289,50.7607)">
<rect x="0.0000" y="-2.0000" width="0.2212" height="4.0000" ry="0.0000" fill="currentColor"/>
</g>
<g transform="translate(102.3561,50.7607)">
<rect x="0.0000" y="-2.0000" width="0.2212" height="4.0000" ry="0.0000" fill="currentColor"/>
</g>
<g transform="translate(9.8338,51.7607)">
<path transform="scale(0.0040, -0.0040)" d="M647 2c0 -114 -75 -214 -180 -248c3 -33 4 -66 4 -99c0 -21 0 -41 -1 -62c-7 -122 -92 -229 -211 -229c-108 0 -196 88 -196 197c0 58 54 103 113 103c54 0 95 -47 95 -103c0 -52 -43 -95 -95 -95c-9 0 -18 1 -27 4c25 -37 66 -61 113 -61c93 0 156 91 162 191 c1 19 2 38 2 57c0 29 -1 58 -3 87c-5 -1 -44 -8 -88 -8c-194 0 -333 181 -333 376c0 177 129 308 244 443c-34 103 -55 171 -55 347c0 114 54 221 147 288c8 6 18 5 25 -1c68 -79 135 -242 135 -356c0 -142 -84 -255 -176 -364c21 -68 40 -136 57 -205c1 0 5 1 10 1 c157 0 258 -129 258 -263zM463 -201c64 24 110 88 110 161c0 88 -64 175 -167 188c28 -133 49 -269 57 -349zM77 25c0 -144 141 -243 261 -243c1 0 46 -1 81 5c-7 66 -27 208 -60 362c-79 -8 -124 -60 -124 -118c0 -43 25 -88 80 -120c5 -5 7 -11 7 -17 c0 -12 -10 -23 -23 -23c-16 0 -128 62 -128 188c0 89 60 177 163 200c-14 57 -30 113 -47 169c-105 -122 -210 -243 -210 -403zM242 784c0 -39 10 -95 39 -188c78 97 142 199 142 324c0 33 0 60 -20 118c-99 -46 -161 -145 -161 -254z" fill="currentColor"/>
</g>
<g transform="translate(13.3337,48.7607)">
<path transform="scale(0.0040, -0.0040)" d="M0 116c0 10 6 19 16 23l40 15v154c0 12 9 21 21 21s21 -9 21 -21v-138l79 30v154c0 12 9 21 21 21s21 -9 21 -21v-138l22 8c3 1 6 2 9 2c13 0 25 -11 25 -25v-54c0 -10 -6 -20 -16 -24l-40 -15v-155l22 9c3 1 6 1 9 1c13 0 25 -11 25 -25v-54c0 -10 -6 -19 -16 -23 l-40 -15v-154c0 -12 -9 -21 -21 -21s-21 9 -21 21v138l-79 -30v-154c0 -12 -9 -21 -21 -21s-21 9 -21 21v138l-22 -8c-3 -1 -6 -2 -9 -2c-13 0 -25 11 -25 25v54c0 10 6 20 16 24l40 15v155l-22 -9c-3 -1 -6 -1 -9 -1c-13 0 -25 11 -25 25v54zM177 92l-79 -30v-154l79 30 v154z" fill="currentColor"/>
</g>
<g transform="translate(8.2228,47.7876)">
<text font-family="Songti SC" font-size="1.7463" text-anchor="start" fill="currentColor">
<tspan>4</tspan>
</text>
</g>
<g transform="translate(16.9338,48.1927)">
<text font-family="Hiragino Sans GB" font-size="1.9604" text-anchor="start" fill="currentColor">
<tspan>G</tspan>
</text>
</g>
<g transform="translate(16.9338,53.2607)">
<path transform="scale(0.0040, -0.0040)" d="M310 63c0 22 -17 40 -40 40c-38 0 -197 -107 -224 -139c-7 -8 -10 -17 -10 -27c0 -22 17 -40 40 -40c38 0 197 107 224 139c7 8 10 17 10 27zM256 138c55 0 90 -22 90 -77c0 -25 -15 -112 -73 -151c-34 -23 -92 -48 -183 -48c-55 0 -90 22 -90 77c0 25 15 112 73 151 c34 23 92 48 183 48z" fill="currentColor"/>
</g>
<g transform="translate(15.1503,56.9461)">
<text font-family="Songti SC" font-size="2.7" text-anchor="start" fill="currentColor">
<tspan font-size="2.7">气，</tspan>
</text>
</g>
<g transform="translate(18.242,50.7607)">
<rect x="-0.0757" y="-1.0000" width="0.1514" height="3.2544" ry="0.0500" fill="currentColor"/>
</g>
<g transform="translate(86.7826,50.7607)">
<path stroke-width="0.0931" stroke-linejoin="round" stroke-linecap="round" stroke="currentColor" fill="currentColor" d="M0.5936 1.2027C1.9306 2.7112 6.4711 3.3118 8.1543 2.2027L8.1543 2.2027C6.4894 3.1733 1.9489 2.5727 0.5936 1.2027z"/>
</g>
<g transform="translate(41.9002,53.2607)">
<path transform="scale(0.0040, -0.0040)" d="M212 138c68 0 113 -38 113 -95c0 -90 -109 -181 -212 -181c-68 0 -113 38 -113 95c0 90 109 181 212 181z" fill="currentColor"/>
</g>
<g transform="translate(41.3129,56.9461)">
<text font-family="Songti SC" font-size="2.7" text-anchor="start" fill="currentColor">
<tspan font-size="2.7">香</tspan>
</text>
</g>
<g transform="translate(43.1254,50.7607)">
<rect x="-0.0757" y="-1.0000" width="0.1514" height="3.3287" ry="0.0500" fill="currentColor"/>
</g>
<g transform="translate(87.932,47.9425)">
<polygon stroke-linejoin="round" stroke-linecap="round" stroke-width="0.1000" fill="currentColor" stroke="currentColor" points="7.6621 0.4464 7.6621 0.8264 0.0500 0.1900 0.0500 -0.1900"/>
</g>
<g transform="translate(61.5661,51.7607)">
<path transform="scale(0.0040, -0.0040)" d="M310 63c0 22 -17 40 -40 40c-38 0 -197 -107 -224 -139c-7 -8 -10 -17 -10 -27c0 -22 17 -40 40 -40c38 0 197 107 224 139c7 8 10 17 10 27zM256 138c55 0 90 -22 90 -77c0 -25 -15 -112 -73 -151c-34 -23 -92 -48 -183 -48c-55 0 -90 22 -90 77c0 25 15 112 73 151 c34 23 92 48 183 48z" fill="currentColor"/>
</g>
<g transform="translate(61.0203,56.9461)">
<text font-family="Songti SC" font-size="2.7" text-anchor="start" fill="currentColor">
<tspan font-size="2.7">味</tspan>
</text>
</g>
<g transform="translate(62.8743,50.7607)">
<rect x="-0.0757" y="-2.5000" width="0.1514" height="3.2544" ry="0.0500" fill="currentColor"/>
</g>
<g transform="translate(86.7826,50.7607)">
<path transform="scale(0.0040, -0.0040)" d="M212 138c68 0 113 -38 113 -95c0 -90 -109 -181 -212 -181c-68 0 -113 38 -113 95c0 90 109 181 212 181z" fill="currentColor"/>
</g>
<g transform="translate(86.7826,56.9461)">
<text font-family="Songti SC" font-size="2.7" text-anchor="start" fill="currentColor">
<tspan font-size="2.7">从</tspan>
</text>
</g>
<g transform="translate(88.0077,50.7607)">
<rect x="-0.0757" y="-2.8120" width="0.1514" height="2.6406" ry="0.0500" fill="currentColor"/>
</g>
<g transform="translate(94.3433,51.7607)">
<path transform="scale(0.0040, -0.0040)" d="M212 138c68 0 113 -38 113 -95c0 -90 -109 -181 -212 -181c-68 0 -113 38 -113 95c0 90 109 181 212 181z" fill="currentColor"/>
</g>
<g transform="translate(95.5685,50.7607)">
<rect x="-0.0757" y="-2.1880" width="0.1514" height="3.0167" ry="0.0500" fill="currentColor"/>
</g>
<g transform="translate(106.7895,48.1927)">
<text font-family="Hiragino Sans GB" font-size="1.9604" text-anchor="start" fill="currentColor">
<tspan>A</tspan>
</text>
</g>
<g transform="translate(108.2405,47.3018)">
<text font-family="Hiragino Sans GB" font-size="1.3856" text-anchor="start" fill="currentColor">
<tspan>7</tspan>
</text>
</g>
<g transform="translate(106.7895,50.7607)">
<path transform="scale(0.0040, -0.0040)" d="M310 63c0 22 -17 40 -40 40c-38 0 -197 -107 -224 -139c-7 -8 -10 -17 -10 -27c0 -22 17 -40 40 -40c38 0 197 107 224 139c7 8 10 17 10 27zM256 138c55 0 90 -22 90 -77c0 -25 -15 -112 -73 -151c-34 -23 -92 -48 -183 -48c-55 0 -90 22 -90 77c0 25 15 112 73 151 c34 23 92 48 183 48z" fill="currentColor"/>
</g>
<g transform="translate(106.2437,56.9461)">
<text font-family="Songti SC" font-size="2.7" text-anchor="start" fill="currentColor">
<tspan font-size="2.7">天</tspan>
</text>
</g>
<g transform="translate(106.8651,50.7607)">
<rect x="-0.0757" y="0.2456" width="0.1514" height="3.0878" ry="0.0500" fill="currentColor"/>
</g>
<g transform="translate(131.744,51.2607)">
<path transform="scale(0.0040, -0.0040)" d="M212 138c68 0 113 -38 113 -95c0 -90 -109 -181 -212 -181c-68 0 -113 38 -113 95c0 90 109 181 212 181z" fill="currentColor"/>
</g>
<g transform="translate(131.1568,56.9461)">
<text font-family="Songti SC" font-size="2.7" text-anchor="start" fill="currentColor">
<tspan font-size="2.7">而</tspan>
</text>
</g>
<g transform="translate(132.9692,50.7607)">
<rect x="-0.0757" y="-3.0000" width="0.1514" height="3.3287" ry="0.0500" fill="currentColor"/>
</g>
<g transform="translate(44.9056,72.7607)">
<rect x="0.0000" y="-2.0000" width="0.2212" height="4.0000" ry="0.0000" fill="currentColor"/>
</g>
<g transform="translate(9.0337,74.7607)">
<line stroke-linejoin="round" stroke-linecap="round" stroke-width="0.1164" stroke="currentColor" x1="0.0582" y1="0" x2="138.1582" y2="0"/>
</g>
<g transform="translate(9.0337,73.7607)">
<line stroke-linejoin="round" stroke-linecap="round" stroke-width="0.1164" stroke="currentColor" x1="0.0582" y1="0" x2="138.1582" y2="0"/>
</g>
<g transform="translate(9.0337,72.7607)">
<line stroke-linejoin="round" stroke-linecap="round" stroke-width="0.1164" stroke="currentColor" x1="0.0582" y1="0" x2="138.1582" y2="0"/>
</g>
<g transform="translate(9.0337,71.7607)">
<line stroke-linejoin="round" stroke-linecap="round" stroke-width="0.1164" stroke="currentColor" x1="0.0582" y1="0" x2="138.1582" y2="0"/>
</g>
<g transform="translate(9.0337,70.7607)">
<line stroke-linejoin="round" stroke-linecap="round" stroke-width="0.1164" stroke="currentColor" x1="0.0582" y1="0" x2="138.1582" y2="0"/>
</g>
<g transform="translate(147.0289,72.7607)">
<rect x="0.0000" y="-2.0000" width="0.2212" height="4.0000" ry="0.0000" fill="currentColor"/>
</g>
<g transform="translate(111.1318,72.7607)">
<rect x="0.0000" y="-2.0000" width="0.2212" height="4.0000" ry="0.0000" fill="currentColor"/>
</g>
<g transform="translate(79.6308,72.7607)">
<rect x="0.0000" y="-2.0000" width="0.2212" height="4.0000" ry="0.0000" fill="currentColor"/>
</g>
<g transform="translate(82.2693,79.4003)">
<text font-family="Songti SC" font-size="2.7" text-anchor="start" fill="currentColor">
<tspan font-size="2.7">魂</tspan>
</text>
</g>
<g transform="translate(135.4917,72.7607)">
<path stroke-width="0.0931" stroke-linejoin="round" stroke-linecap="round" stroke="currentColor" fill="currentColor" d="M0.5844 2.2027C1.6401 3.5069 4.7038 3.9788 6.1030 3.0527L6.1030 3.0527C4.7250 3.8407 1.6614 3.3689 0.5844 2.2027z"/>
</g>
<g transform="translate(9.8338,73.7607)">
<path transform="scale(0.0040, -0.0040)" d="M647 2c0 -114 -75 -214 -180 -248c3 -33 4 -66 4 -99c0 -21 0 -41 -1 -62c-7 -122 -92 -229 -211 -229c-108 0 -196 88 -196 197c0 58 54 103 113 103c54 0 95 -47 95 -103c0 -52 -43 -95 -95 -95c-9 0 -18 1 -27 4c25 -37 66 -61 113 -61c93 0 156 91 162 191 c1 19 2 38 2 57c0 29 -1 58 -3 87c-5 -1 -44 -8 -88 -8c-194 0 -333 181 -333 376c0 177 129 308 244 443c-34 103 -55 171 -55 347c0 114 54 221 147 288c8 6 18 5 25 -1c68 -79 135 -242 135 -356c0 -142 -84 -255 -176 -364c21 -68 40 -136 57 -205c1 0 5 1 10 1 c157 0 258 -129 258 -263zM463 -201c64 24 110 88 110 161c0 88 -64 175 -167 188c28 -133 49 -269 57 -349zM77 25c0 -144 141 -243 261 -243c1 0 46 -1 81 5c-7 66 -27 208 -60 362c-79 -8 -124 -60 -124 -118c0 -43 25 -88 80 -120c5 -5 7 -11 7 -17 c0 -12 -10 -23 -23 -23c-16 0 -128 62 -128 188c0 89 60 177 163 200c-14 57 -30 113 -47 169c-105 -122 -210 -243 -210 -403zM242 784c0 -39 10 -95 39 -188c78 97 142 199 142 324c0 33 0 60 -20 118c-99 -46 -161 -145 -161 -254z" fill="currentColor"/>
</g>
<g transform="translate(13.3337,70.7607)">
<path transform="scale(0.0040, -0.0040)" d="M0 116c0 10 6 19 16 23l40 15v154c0 12 9 21 21 21s21 -9 21 -21v-138l79 30v154c0 12 9 21 21 21s21 -9 21 -21v-138l22 8c3 1 6 2 9 2c13 0 25 -11 25 -25v-54c0 -10 -6 -20 -16 -24l-40 -15v-155l22 9c3 1 6 1 9 1c13 0 25 -11 25 -25v-54c0 -10 -6 -19 -16 -23 l-40 -15v-154c0 -12 -9 -21 -21 -21s-21 9 -21 21v138l-79 -30v-154c0 -12 -9 -21 -21 -21s-21 9 -21 21v138l-22 -8c-3 -1 -6 -2 -9 -2c-13 0 -25 11 -25 25v54c0 10 6 20 16 24l40 15v155l-22 -9c-3 -1 -6 -1 -9 -1c-13 0 -25 11 -25 25v54zM177 92l-79 -30v-154l79 30 v154z" fill="currentColor"/>
</g>
<g transform="translate(8.2228,69.8155)">
<text font-family="Songti SC" font-size="1.7463" text-anchor="start" fill="currentColor">
<tspan>7</tspan>
</text>
</g>
<g transform="translate(136.6412,70.9425)">
<polygon stroke-linejoin="round" stroke-linecap="round" stroke-width="0.1000" fill="currentColor" stroke="currentColor" points="5.6199 0.4464 5.6199 0.8264 0.0500 0.1900 0.0500 -0.1900"/>
</g>
<g transform="translate(16.9338,69.6391)">
<text font-family="Hiragino Sans GB" font-size="1.9604" text-anchor="start" fill="currentColor">
<tspan>D</tspan>
</text>
</g>
<g transform="translate(16.9338,71.7607)">
<path transform="scale(0.0040, -0.0040)" d="M310 63c0 22 -17 40 -40 40c-38 0 -197 -107 -224 -139c-7 -8 -10 -17 -10 -27c0 -22 17 -40 40 -40c38 0 197 107 224 139c7 8 10 17 10 27zM256 138c55 0 90 -22 90 -77c0 -25 -15 -112 -73 -151c-34 -23 -92 -48 -183 -48c-55 0 -90 22 -90 77c0 25 15 112 73 151 c34 23 92 48 183 48z" fill="currentColor"/>
</g>
<g transform="translate(15.1503,79.4003)">
<text font-family="Songti SC" font-size="2.7" text-anchor="start" fill="currentColor">
<tspan font-size="2.7">来；</tspan>
</text>
</g>
<g transform="translate(17.0094,72.7607)">
<rect x="-0.0757" y="-0.7544" width="0.1514" height="3.2544" ry="0.0500" fill="currentColor"/>
</g>
<g transform="translate(34.2523,69.6391)">
<text font-family="Hiragino Sans GB" font-size="1.9604" text-anchor="start" fill="currentColor">
<tspan>D</tspan>
</text>
</g>
<g transform="translate(35.7461,68.7482)">
<text font-family="Hiragino Sans GB" font-size="1.3856" text-anchor="start" fill="currentColor">
<tspan>7</tspan>
</text>
</g>
<g transform="translate(34.2523,72.7607)">
<path transform="scale(0.0040, -0.0040)" d="M212 138c68 0 113 -38 113 -95c0 -90 -109 -181 -212 -181c-68 0 -113 38 -113 95c0 90 109 181 212 181z" fill="currentColor"/>
</g>
<g transform="translate(33.665,79.4003)">
<text font-family="Songti SC" font-size="2.7" text-anchor="start" fill="currentColor">
<tspan font-size="2.7">但</tspan>
</text>
</g>
<g transform="translate(34.328,72.7607)">
<rect x="-0.0757" y="0.1713" width="0.1514" height="3.1620" ry="0.0500" fill="currentColor"/>
</g>
<g transform="translate(114.3161,72.7607)">
<path stroke-width="0.0931" stroke-linejoin="round" stroke-linecap="round" stroke="currentColor" fill="currentColor" d="M0.6750 3.0527C2.9536 4.5784 13.5381 3.9768 15.6291 2.2027L15.6291 2.2027C13.5302 3.8373 2.9457 4.4389 0.6750 3.0527z"/>
</g>
<g transform="translate(48.2515,69.6391)">
<text font-family="Hiragino Sans GB" font-size="1.9604" text-anchor="start" fill="currentColor">
<tspan>G</tspan>
</text>
</g>
<g transform="translate(48.2515,71.7607)">
<path transform="scale(0.0040, -0.0040)" d="M212 138c68 0 113 -38 113 -95c0 -90 -109 -181 -212 -181c-68 0 -113 38 -113 95c0 90 109 181 212 181z" fill="currentColor"/>
</g>
<g transform="translate(48.2515,79.4003)">
<text font-family="Songti SC" font-size="2.7" text-anchor="start" fill="currentColor">
<tspan font-size="2.7">愿</tspan>
</text>
</g>
<g transform="translate(49.9938,71.2607)">
<path transform="scale(0.0040, -0.0040)" d="M0 0c0 30 25 55 55 55s55 -25 55 -55s-25 -55 -55 -55s-55 25 -55 55z" fill="currentColor"/>
</g>
<g transform="translate(48.3272,72.7607)">
<rect x="-0.0757" y="-0.8287" width="0.1514" height="3.3287" ry="0.0500" fill="currentColor"/>
</g>
<g transform="translate(62.7056,72.7607)">
<path transform="scale(0.0040, -0.0040)" d="M212 138c68 0 113 -38 113 -95c0 -90 -109 -181 -212 -181c-68 0 -113 38 -113 95c0 90 109 181 212 181z" fill="currentColor"/>
</g>
<g transform="translate(62.7813,72.7607)">
<rect x="-0.0757" y="0.1713" width="0.1514" height="3.2037" ry="0.0500" fill="currentColor"/>
</g>
<g transform="translate(62.857,76.0857)">
<path transform="scale(0.0040, -0.0040)" d="M0 0h-19v250h19v-250zM0 0v250c95 59 220 149 220 259c0 56 -16 111 -41 161c-3 18 12 30 26 30c8 0 17 -4 22 -13c25 -56 40 -116 40 -178c0 -203 -267 -306 -267 -509z" fill="currentColor"/>
</g>
<g transform="translate(68.4742,71.7607)">
<path transform="scale(0.0040, -0.0040)" d="M212 138c68 0 113 -38 113 -95c0 -90 -109 -181 -212 -181c-68 0 -113 38 -113 95c0 90 109 181 212 181z" fill="currentColor"/>
</g>
<g transform="translate(68.4742,79.4003)">
<text font-family="Songti SC" font-size="2.7" text-anchor="start" fill="currentColor">
<tspan font-size="2.7">每</tspan>
</text>
</g>
<g transform="translate(68.5499,72.7607)">
<rect x="-0.0757" y="-0.8287" width="0.1514" height="3.0189" ry="0.0500" fill="currentColor"/>
</g>
<g transform="translate(68.4742,72.7607)">
<path stroke-width="0.0931" stroke-linejoin="round" stroke-linecap="round" stroke="currentColor" fill="currentColor" d="M0.7277 -2.2027C2.1552 -3.0936 5.2222 -2.5378 6.2463 -1.2027L6.2463 -1.2027C5.1973 -2.4004 2.1303 -2.9561 0.7277 -2.2027z"/>
</g>
<g transform="translate(73.9928,72.7607)">
<path transform="scale(0.0040, -0.0040)" d="M212 138c68 0 113 -38 113 -95c0 -90 -109 -181 -212 -181c-68 0 -113 38 -113 95c0 90 109 181 212 181z" fill="currentColor"/>
</g>
<g transform="translate(74.0685,72.7607)">
<rect x="-0.0757" y="0.1713" width="0.1514" height="2.6384" ry="0.0500" fill="currentColor"/>
</g>
<g transform="translate(68.4742,74.9425)">
<polygon stroke-linejoin="round" stroke-linecap="round" stroke-width="0.1000" fill="currentColor" stroke="currentColor" points="5.6199 0.4464 5.6199 0.8264 0.0500 0.1900 0.0500 -0.1900"/>
</g>
<g transform="translate(82.8151,69.6391)">
<text font-family="Hiragino Sans GB" font-size="1.9604" text-anchor="start" fill="currentColor">
<tspan>G</tspan>
</text>
</g>
<g transform="translate(84.3089,68.7482)">
<text font-family="Hiragino Sans GB" font-size="1.3856" text-anchor="start" fill="currentColor">
<tspan>7</tspan>
</text>
</g>
<g transform="translate(82.8151,73.7607)">
<path transform="scale(0.0040, -0.0040)" d="M310 63c0 22 -17 40 -40 40c-38 0 -197 -107 -224 -139c-7 -8 -10 -17 -10 -27c0 -22 17 -40 40 -40c38 0 197 107 224 139c7 8 10 17 10 27zM256 138c55 0 90 -22 90 -77c0 -25 -15 -112 -73 -151c-34 -23 -92 -48 -183 -48c-55 0 -90 22 -90 77c0 25 15 112 73 151 c34 23 92 48 183 48z" fill="currentColor"/>
</g>
<g transform="translate(84.1233,72.7607)">
<rect x="-0.0757" y="-2.5000" width="0.1514" height="3.2544" ry="0.0500" fill="currentColor"/>
</g>
<g transform="translate(48.2515,72.7607)">
<path stroke-width="0.0931" stroke-linejoin="round" stroke-linecap="round" stroke="currentColor" fill="currentColor" d="M0.6803 -2.2027C2.9437 -3.6895 13.0974 -2.9870 15.1344 -1.2027L15.1344 -1.2027C13.0877 -2.8476 2.9341 -3.5501 0.6803 -2.2027z"/>
</g>
<g transform="translate(100.1336,75.2607)">
<path transform="scale(0.0040, -0.0040)" d="M212 138c68 0 113 -38 113 -95c0 -90 -109 -181 -212 -181c-68 0 -113 38 -113 95c0 90 109 181 212 181z" fill="currentColor"/>
</g>
<g transform="translate(99.5464,79.4003)">
<text font-family="Songti SC" font-size="2.7" text-anchor="start" fill="currentColor">
<tspan font-size="2.7">脱</tspan>
</text>
</g>
<g transform="translate(101.3588,72.7607)">
<rect x="-0.0757" y="-1.0000" width="0.1514" height="3.3287" ry="0.0500" fill="currentColor"/>
</g>
<g transform="translate(114.3161,69.6391)">
<text font-family="Hiragino Sans GB" font-size="1.9604" text-anchor="start" fill="currentColor">
<tspan>C</tspan>
</text>
</g>
<g transform="translate(114.3161,74.7607)">
<path transform="scale(0.0040, -0.0040)" d="M212 138c68 0 113 -38 113 -95c0 -90 -109 -181 -212 -181c-68 0 -113 38 -113 95c0 90 109 181 212 181z" fill="currentColor"/>
</g>
<g transform="translate(114.3161,79.4003)">
<text font-family="Songti SC" font-size="2.7" text-anchor="start" fill="currentColor">
<tspan font-size="2.7">离</tspan>
</text>
</g>
<g transform="translate(116.0584,74.2607)">
<path transform="scale(0.0040, -0.0040)" d="M0 0c0 30 25 55 55 55s55 -25 55 -55s-25 -55 -55 -55s-55 25 -55 55z" fill="currentColor"/>
</g>
<g transform="translate(115.5413,72.7607)">
<rect x="-0.0757" y="-1.5000" width="0.1514" height="3.3287" ry="0.0500" fill="currentColor"/>
</g>
<g transform="translate(129.2702,73.7607)">
<path transform="scale(0.0040, -0.0040)" d="M212 138c68 0 113 -38 113 -95c0 -90 -109 -181 -212 -181c-68 0 -113 38 -113 95c0 90 109 181 212 181z" fill="currentColor"/>
</g>
<g transform="translate(130.4954,72.7607)">
<rect x="-0.0757" y="-2.5000" width="0.1514" height="3.3287" ry="0.0500" fill="currentColor"/>
</g>
<g transform="translate(130.5711,70.3107)">
<path transform="scale(0.0040, -0.0040)" d="M0 -250h-19v250h19c0 -197 207 -334 207 -531c0 -71 -15 -140 -41 -206c-5 -9 -14 -13 -22 -13c-14 0 -29 12 -26 30c26 60 43 124 43 189c0 102 -92 206 -161 281z" fill="currentColor"/>
</g>
<g transform="translate(135.4917,73.7607)">
<path transform="scale(0.0040, -0.0040)" d="M212 138c68 0 113 -38 113 -95c0 -90 -109 -181 -212 -181c-68 0 -113 38 -113 95c0 90 109 181 212 181z" fill="currentColor"/>
</g>
<g transform="translate(135.4917,79.4003)">
<text font-family="Songti SC" font-size="2.7" text-anchor="start" fill="currentColor">
<tspan font-size="2.7">肉</tspan>
</text>
</g>
<g transform="translate(136.7169,72.7607)">
<rect x="-0.0757" y="-1.8097" width="0.1514" height="2.6384" ry="0.0500" fill="currentColor"/>
</g>
<g transform="translate(141.0103,74.7607)">
<path transform="scale(0.0040, -0.0040)" d="M212 138c68 0 113 -38 113 -95c0 -90 -109 -181 -212 -181c-68 0 -113 38 -113 95c0 90 109 181 212 181z" fill="currentColor"/>
</g>
<g transform="translate(142.2355,72.7607)">
<rect x="-0.0757" y="-1.1903" width="0.1514" height="3.0189" ry="0.0500" fill="currentColor"/>
</g>
<g transform="translate(40.851,95.7689)">
<rect x="0.0000" y="-2.0000" width="0.2212" height="4.0000" ry="0.0000" fill="currentColor"/>
</g>
<g transform="translate(9.0337,97.7689)">
<line stroke-linejoin="round" stroke-linecap="round" stroke-width="0.1164" stroke="currentColor" x1="0.0582" y1="0" x2="138.1582" y2="0"/>
</g>
<g transform="translate(9.0337,96.7689)">
<line stroke-linejoin="round" stroke-linecap="round" stroke-width="0.1164" stroke="currentColor" x1="0.0582" y1="0" x2="138.1582" y2="0"/>
</g>
<g transform="translate(9.0337,95.7689)">
<line stroke-linejoin="round" stroke-linecap="round" stroke-width="0.1164" stroke="currentColor" x1="0.0582" y1="0" x2="138.1582" y2="0"/>
</g>
<g transform="translate(9.0337,94.7689)">
<line stroke-linejoin="round" stroke-linecap="round" stroke-width="0.1164" stroke="currentColor" x1="0.0582" y1="0" x2="138.1582" y2="0"/>
</g>
<g transform="translate(9.0337,93.7689)">
<line stroke-linejoin="round" stroke-linecap="round" stroke-width="0.1164" stroke="currentColor" x1="0.0582" y1="0" x2="138.1582" y2="0"/>
</g>
<g transform="translate(146.5516,95.7689)">
<rect x="0.0000" y="-2.0000" width="0.6986" height="4.0000" ry="0.0000" fill="currentColor"/>
</g>
<g transform="translate(145.9811,95.7689)">
<rect x="0.0000" y="-2.0000" width="0.2212" height="4.0000" ry="0.0000" fill="currentColor"/>
</g>
<g transform="translate(116.7972,95.7689)">
<rect x="0.0000" y="-2.0000" width="0.2212" height="4.0000" ry="0.0000" fill="currentColor"/>
</g>
<g transform="translate(95.0244,95.7689)">
<rect x="0.0000" y="-2.0000" width="0.2212" height="4.0000" ry="0.0000" fill="currentColor"/>
</g>
<g transform="translate(68.3376,95.7689)">
<rect x="0.0000" y="-2.0000" width="0.2212" height="4.0000" ry="0.0000" fill="currentColor"/>
</g>
<g transform="translate(9.8338,96.7689)">
<path transform="scale(0.0040, -0.0040)" d="M647 2c0 -114 -75 -214 -180 -248c3 -33 4 -66 4 -99c0 -21 0 -41 -1 -62c-7 -122 -92 -229 -211 -229c-108 0 -196 88 -196 197c0 58 54 103 113 103c54 0 95 -47 95 -103c0 -52 -43 -95 -95 -95c-9 0 -18 1 -27 4c25 -37 66 -61 113 -61c93 0 156 91 162 191 c1 19 2 38 2 57c0 29 -1 58 -3 87c-5 -1 -44 -8 -88 -8c-194 0 -333 181 -333 376c0 177 129 308 244 443c-34 103 -55 171 -55 347c0 114 54 221 147 288c8 6 18 5 25 -1c68 -79 135 -242 135 -356c0 -142 -84 -255 -176 -364c21 -68 40 -136 57 -205c1 0 5 1 10 1 c157 0 258 -129 258 -263zM463 -201c64 24 110 88 110 161c0 88 -64 175 -167 188c28 -133 49 -269 57 -349zM77 25c0 -144 141 -243 261 -243c1 0 46 -1 81 5c-7 66 -27 208 -60 362c-79 -8 -124 -60 -124 -118c0 -43 25 -88 80 -120c5 -5 7 -11 7 -17 c0 -12 -10 -23 -23 -23c-16 0 -128 62 -128 188c0 89 60 177 163 200c-14 57 -30 113 -47 169c-105 -122 -210 -243 -210 -403zM242 784c0 -39 10 -95 39 -188c78 97 142 199 142 324c0 33 0 60 -20 118c-99 -46 -161 -145 -161 -254z" fill="currentColor"/>
</g>
<g transform="translate(13.3337,93.7689)">
<path transform="scale(0.0040, -0.0040)" d="M0 116c0 10 6 19 16 23l40 15v154c0 12 9 21 21 21s21 -9 21 -21v-138l79 30v154c0 12 9 21 21 21s21 -9 21 -21v-138l22 8c3 1 6 2 9 2c13 0 25 -11 25 -25v-54c0 -10 -6 -20 -16 -24l-40 -15v-155l22 9c3 1 6 1 9 1c13 0 25 -11 25 -25v-54c0 -10 -6 -19 -16 -23 l-40 -15v-154c0 -12 -9 -21 -21 -21s-21 9 -21 21v138l-79 -30v-154c0 -12 -9 -21 -21 -21s-21 9 -21 21v138l-22 -8c-3 -1 -6 -2 -9 -2c-13 0 -25 11 -25 25v54c0 10 6 20 16 24l40 15v155l-22 -9c-3 -1 -6 -1 -9 -1c-13 0 -25 11 -25 25v54zM177 92l-79 -30v-154l79 30 v154z" fill="currentColor"/>
</g>
<g transform="translate(7.4119,92.8202)">
<text font-family="Songti SC" font-size="1.7463" text-anchor="start" fill="currentColor">
<tspan>11</tspan>
</text>
</g>
<g transform="translate(16.9338,92.2748)">
<text font-family="Hiragino Sans GB" font-size="1.9604" text-anchor="start" fill="currentColor">
<tspan>G</tspan>
</text>
</g>
<g transform="translate(16.9338,98.2689)">
<path transform="scale(0.0040, -0.0040)" d="M310 63c0 22 -17 40 -40 40c-38 0 -197 -107 -224 -139c-7 -8 -10 -17 -10 -27c0 -22 17 -40 40 -40c38 0 197 107 224 139c7 8 10 17 10 27zM256 138c55 0 90 -22 90 -77c0 -25 -15 -112 -73 -151c-34 -23 -92 -48 -183 -48c-55 0 -90 22 -90 77c0 25 15 112 73 151 c34 23 92 48 183 48z" fill="currentColor"/>
</g>
<g transform="translate(15.1503,102.0062)">
<text font-family="Songti SC" font-size="2.7" text-anchor="start" fill="currentColor">
<tspan font-size="2.7">体，</tspan>
</text>
</g>
<g transform="translate(18.242,95.7689)">
<rect x="-0.0757" y="-1.0000" width="0.1514" height="3.2544" ry="0.0500" fill="currentColor"/>
</g>
<g transform="translate(31.5706,98.2689)">
<path transform="scale(0.0040, -0.0040)" d="M212 138c68 0 113 -38 113 -95c0 -90 -109 -181 -212 -181c-68 0 -113 38 -113 95c0 90 109 181 212 181z" fill="currentColor"/>
</g>
<g transform="translate(30.9833,102.0062)">
<text font-family="Songti SC" font-size="2.7" text-anchor="start" fill="currentColor">
<tspan font-size="2.7">每</tspan>
</text>
</g>
<g transform="translate(32.7958,95.7689)">
<rect x="-0.0757" y="-1.0000" width="0.1514" height="3.3287" ry="0.0500" fill="currentColor"/>
</g>
<g transform="translate(43.5801,96.7689)">
<path transform="scale(0.0040, -0.0040)" d="M310 63c0 22 -17 40 -40 40c-38 0 -197 -107 -224 -139c-7 -8 -10 -17 -10 -27c0 -22 17 -40 40 -40c38 0 197 107 224 139c7 8 10 17 10 27zM256 138c55 0 90 -22 90 -77c0 -25 -15 -112 -73 -151c-34 -23 -92 -48 -183 -48c-55 0 -90 22 -90 77c0 25 15 112 73 151 c34 23 92 48 183 48z" fill="currentColor"/>
</g>
<g transform="translate(43.0344,102.0062)">
<text font-family="Songti SC" font-size="2.7" text-anchor="start" fill="currentColor">
<tspan font-size="2.7">灵</tspan>
</text>
</g>
<g transform="translate(44.8883,95.7689)">
<rect x="-0.0757" y="-2.5000" width="0.1514" height="3.2544" ry="0.0500" fill="currentColor"/>
</g>
<g transform="translate(58.467,95.7689)">
<path stroke-width="0.0931" stroke-linejoin="round" stroke-linecap="round" stroke="currentColor" fill="currentColor" d="M0.5604 1.2027C1.4398 2.4466 3.9606 2.9818 5.2696 2.2027L5.2696 2.2027C3.9896 2.8452 1.4689 2.3099 0.5604 1.2027z"/>
</g>
<g transform="translate(58.467,95.7689)">
<path transform="scale(0.0040, -0.0040)" d="M212 138c68 0 113 -38 113 -95c0 -90 -109 -181 -212 -181c-68 0 -113 38 -113 95c0 90 109 181 212 181z" fill="currentColor"/>
</g>
<g transform="translate(58.467,102.0062)">
<text font-family="Songti SC" font-size="2.7" text-anchor="start" fill="currentColor">
<tspan font-size="2.7">都</tspan>
</text>
</g>
<g transform="translate(59.6921,95.7689)">
<rect x="-0.0757" y="-2.8083" width="0.1514" height="2.6370" ry="0.0500" fill="currentColor"/>
</g>
<g transform="translate(59.6164,92.9507)">
<polygon stroke-linejoin="round" stroke-linecap="round" stroke-width="0.1000" fill="currentColor" stroke="currentColor" points="4.8107 0.4464 4.8107 0.8264 0.0500 0.1900 0.0500 -0.1900"/>
</g>
<g transform="translate(63.1763,96.7689)">
<path transform="scale(0.0040, -0.0040)" d="M212 138c68 0 113 -38 113 -95c0 -90 -109 -181 -212 -181c-68 0 -113 38 -113 95c0 90 109 181 212 181z" fill="currentColor"/>
</g>
<g transform="translate(64.4014,95.7689)">
<rect x="-0.0757" y="-2.1917" width="0.1514" height="3.0204" ry="0.0500" fill="currentColor"/>
</g>
<g transform="translate(71.1669,92.2748)">
<text font-family="Hiragino Sans GB" font-size="1.9604" text-anchor="start" fill="currentColor">
<tspan>D</tspan>
</text>
</g>
<g transform="translate(71.1669,95.7689)">
<path transform="scale(0.0040, -0.0040)" d="M310 63c0 22 -17 40 -40 40c-38 0 -197 -107 -224 -139c-7 -8 -10 -17 -10 -27c0 -22 17 -40 40 -40c38 0 197 107 224 139c7 8 10 17 10 27zM256 138c55 0 90 -22 90 -77c0 -25 -15 -112 -73 -151c-34 -23 -92 -48 -183 -48c-55 0 -90 22 -90 77c0 25 15 112 73 151 c34 23 92 48 183 48z" fill="currentColor"/>
</g>
<g transform="translate(70.6212,102.0062)">
<text font-family="Songti SC" font-size="2.7" text-anchor="start" fill="currentColor">
<tspan font-size="2.7">充</tspan>
</text>
</g>
<g transform="translate(71.2426,95.7689)">
<rect x="-0.0757" y="0.2456" width="0.1514" height="3.0878" ry="0.0500" fill="currentColor"/>
</g>
<g transform="translate(98.7535,95.7689)">
<path stroke-width="0.0931" stroke-linejoin="round" stroke-linecap="round" stroke="currentColor" fill="currentColor" d="M0.8919 1.7500C2.4422 2.7631 20.7144 2.7631 22.2647 1.7500L22.2647 1.7500C20.7144 2.6233 2.4422 2.6233 0.8919 1.7500z"/>
</g>
<g transform="translate(85.7919,92.2748)">
<text font-family="Hiragino Sans GB" font-size="1.9604" text-anchor="start" fill="currentColor">
<tspan>D</tspan>
</text>
</g>
<g transform="translate(87.2857,91.3839)">
<text font-family="Hiragino Sans GB" font-size="1.3856" text-anchor="start" fill="currentColor">
<tspan>7</tspan>
</text>
</g>
<g transform="translate(85.7919,96.2689)">
<path transform="scale(0.0040, -0.0040)" d="M212 138c68 0 113 -38 113 -95c0 -90 -109 -181 -212 -181c-68 0 -113 38 -113 95c0 90 109 181 212 181z" fill="currentColor"/>
</g>
<g transform="translate(85.2046,102.0062)">
<text font-family="Songti SC" font-size="2.7" text-anchor="start" fill="currentColor">
<tspan font-size="2.7">满</tspan>
</text>
</g>
<g transform="translate(87.0171,95.7689)">
<rect x="-0.0757" y="-3.0000" width="0.1514" height="3.3287" ry="0.0500" fill="currentColor"/>
</g>
<g transform="translate(98.7535,92.2748)">
<text font-family="Hiragino Sans GB" font-size="1.9604" text-anchor="start" fill="currentColor">
<tspan>G</tspan>
</text>
</g>
<g transform="translate(98.7535,96.7689)">
<path transform="scale(0.0040, -0.0040)" d="M310 63c0 22 -17 40 -40 40c-38 0 -197 -107 -224 -139c-7 -8 -10 -17 -10 -27c0 -22 17 -40 40 -40c38 0 197 107 224 139c7 8 10 17 10 27zM256 138c55 0 90 -22 90 -77c0 -25 -15 -112 -73 -151c-34 -23 -92 -48 -183 -48c-55 0 -90 22 -90 77c0 25 15 112 73 151 c34 23 92 48 183 48z" fill="currentColor"/>
</g>
<g transform="translate(96.97,102.0062)">
<text font-family="Songti SC" font-size="2.7" text-anchor="start" fill="currentColor">
<tspan font-size="2.7">爱。</tspan>
</text>
</g>
<g transform="translate(100.5788,96.2689)">
<path transform="scale(0.0040, -0.0040)" d="M0 0c0 30 25 55 55 55s55 -25 55 -55s-25 -55 -55 -55s-55 25 -55 55z" fill="currentColor"/>
</g>
<g transform="translate(100.0617,95.7689)">
<rect x="-0.0757" y="-2.5000" width="0.1514" height="3.2544" ry="0.0500" fill="currentColor"/>
</g>
<g transform="translate(120.5263,96.7689)">
<path transform="scale(0.0040, -0.0040)" d="M310 63c0 22 -17 40 -40 40c-38 0 -197 -107 -224 -139c-7 -8 -10 -17 -10 -27c0 -22 17 -40 40 -40c38 0 197 107 224 139c7 8 10 17 10 27zM256 138c55 0 90 -22 90 -77c0 -25 -15 -112 -73 -151c-34 -23 -92 -48 -183 -48c-55 0 -90 22 -90 77c0 25 15 112 73 151 c34 23 92 48 183 48z" fill="currentColor"/>
</g>
<g transform="translate(121.8344,95.7689)">
<rect x="-0.0757" y="-2.5000" width="0.1514" height="3.2544" ry="0.0500" fill="currentColor"/>
</g>
<g transform="translate(137.2658,95.7689)">
<path transform="scale(0.0040, -0.0040)" d="M-9 78c0 59 124 84 124 182c0 25 -9 50 -26 70l-31 37c-3 4 -4 8 -4 12c0 10 9 18 19 18c5 0 9 -1 13 -6l149 -178c7 -9 11 -17 11 -26c0 -59 -124 -84 -124 -182c0 -25 9 -51 26 -71l79 -94c3 -4 4 -8 4 -12c0 -10 -9 -18 -19 -18c-11 0 -38 40 -102 40 c-23 0 -55 -4 -55 -65c0 -33 11 -73 27 -92c8 -9 -6 -20 -14 -11c-44 53 -92 145 -92 199c0 41 26 43 46 43c30 0 69 -9 106 -23l-126 151c-7 9 -11 17 -11 26z" fill="currentColor"/>
</g>
<g transform="translate(67.8148,131.7689)">
<text font-family="Songti SC" font-size="1.5560" text-anchor="start" fill="currentColor">
<tspan> </tspan>
</text>
</g>
<g transform="translate(67.8148,145.7689)">
<text font-family="Songti SC" font-size="1.5560" text-anchor="start" fill="currentColor">
<tspan> </tspan>
</text>
</g>
<g transform="translate(69.8408,231.9677)">
<text font-family="Trebuchet MS" font-size="2.2001" text-anchor="start" fill="currentColor">
<tspan>www.hymnal.net</tspan>
</text>
</g>
<g transform="translate(16.1245,38.9511)">
<text font-family="Songti SC" font-weight="bold" font-size="2.7" text-anchor="start" fill="currentColor">2.</text></g>
<g transform="translate(18.6183,38.9511)">
<text font-family="Songti SC" font-size="2.7" text-anchor="start" fill="currentColor">主</text></g>
<g transform="translate(35.5395,38.9511)">
<text font-family="Songti SC" font-size="2.7" text-anchor="start" fill="currentColor">使</text></g>
<g transform="translate(57.5426,38.9511)">
<text font-family="Songti SC" font-size="2.7" text-anchor="start" fill="currentColor">我</text></g>
<g transform="translate(74.3447,38.9511)">
<text font-family="Songti SC" font-size="2.7" text-anchor="start" fill="currentColor">们</text></g>
<g transform="translate(95.4987,38.9511)">
<text font-family="Songti SC" font-size="2.7" text-anchor="start" fill="currentColor">心</text></g>
<g transform="translate(112.372,38.9511)">
<text font-family="Songti SC" font-size="2.7" text-anchor="start" fill="currentColor">心</text></g>
<g transform="translate(133.2879,38.9511)">
<text font-family="Songti SC" font-size="2.7" text-anchor="start" fill="currentColor">相</text></g>
<g transform="translate(15.1503,60.9461)">
<text font-family="Songti SC" font-size="2.7" text-anchor="start" fill="currentColor">联</text></g>
<g transform="translate(41.3129,60.9461)">
<text font-family="Songti SC" font-size="2.7" text-anchor="start" fill="currentColor">满</text></g>
<g transform="translate(61.0203,60.9461)">
<text font-family="Songti SC" font-size="2.7" text-anchor="start" fill="currentColor">有</text></g>
<g transform="translate(86.7826,60.9461)">
<text font-family="Songti SC" font-size="2.7" text-anchor="start" fill="currentColor">圣</text></g>
<g transform="translate(106.2437,60.9461)">
<text font-family="Songti SC" font-size="2.7" text-anchor="start" fill="currentColor">洁</text></g>
<g transform="translate(131.1568,60.9461)">
<text font-family="Songti SC" font-size="2.7" text-anchor="start" fill="currentColor">情</text></g>
<g transform="translate(15.1503,83.4003)">
<text font-family="Songti SC" font-size="2.7" text-anchor="start" fill="currentColor">意</text></g>
<g transform="translate(33.665,83.4003)">
<text font-family="Songti SC" font-size="2.7" text-anchor="start" fill="currentColor">不</text></g>
<g transform="translate(48.2515,83.4003)">
<text font-family="Songti SC" font-size="2.7" text-anchor="start" fill="currentColor">至</text></g>
<g transform="translate(68.4742,83.4003)">
<text font-family="Songti SC" font-size="2.7" text-anchor="start" fill="currentColor">有</text></g>
<g transform="translate(82.2693,83.4003)">
<text font-family="Songti SC" font-size="2.7" text-anchor="start" fill="currentColor">日</text></g>
<g transform="translate(99.5464,83.4003)">
<text font-family="Songti SC" font-size="2.7" text-anchor="start" fill="currentColor">彼</text></g>
<g transform="translate(114.3161,83.4003)">
<text font-family="Songti SC" font-size="2.7" text-anchor="start" fill="currentColor">此</text></g>
<g transform="translate(135.4917,83.4003)">
<text font-family="Songti SC" font-size="2.7" text-anchor="start" fill="currentColor">改</text></g>
<g transform="translate(15.1503,106.0062)">
<text font-family="Songti SC" font-size="2.7" text-anchor="start" fill="currentColor">变</text></g>
<g transform="translate(30.9833,106.0062)">
<text font-family="Songti SC" font-size="2.7" text-anchor="start" fill="currentColor">不</text></g>
<g transform="translate(43.0344,106.0062)">
<text font-family="Songti SC" font-size="2.7" text-anchor="start" fill="currentColor">爱</text></g>
<g transform="translate(58.467,106.0062)">
<text font-family="Songti SC" font-size="2.7" text-anchor="start" fill="currentColor">你</text></g>
<g transform="translate(70.6212,106.0062)">
<text font-family="Songti SC" font-size="2.7" text-anchor="start" fill="currentColor">或</text></g>
<g transform="translate(85.2046,106.0062)">
<text font-family="Songti SC" font-size="2.7" text-anchor="start" fill="currentColor">你</text></g>
<g transform="translate(96.97,106.0062)">
<text font-family="Songti SC" font-size="2.7" text-anchor="start" fill="currentColor">的</text></g>
<g transform="translate(16.1245,42.9511)">
<text font-family="Songti SC" font-weight="bold" font-size="2.7" text-anchor="start" fill="currentColor">3.</text></g>
<g transform="translate(18.6183,42.9511)">
<text font-family="Songti SC" font-size="2.7" text-anchor="start" fill="currentColor">只</text></g>
<g transform="translate(35.5395,42.9511)">
<text font-family="Songti SC" font-size="2.7" text-anchor="start" fill="currentColor">受</text></g>
<g transform="translate(57.5426,42.9511)">
<text font-family="Songti SC" font-size="2.7" text-anchor="start" fill="currentColor">你</text></g>
<g transform="translate(74.3447,42.9511)">
<text font-family="Songti SC" font-size="2.7" text-anchor="start" fill="currentColor">的</text></g>
<g transform="translate(95.4987,42.9511)">
<text font-family="Songti SC" font-size="2.7" text-anchor="start" fill="currentColor">十</text></g>
<g transform="translate(112.372,42.9511)">
<text font-family="Songti SC" font-size="2.7" text-anchor="start" fill="currentColor">架</text></g>
<g transform="translate(133.2879,42.9511)">
<text font-family="Songti SC" font-size="2.7" text-anchor="start" fill="currentColor">指</text></g>
<g transform="translate(15.1503,64.9461)">
<text font-family="Songti SC" font-size="2.7" text-anchor="start" fill="currentColor">引</text></g>
<g transform="translate(41.3129,64.9461)">
<text font-family="Songti SC" font-size="2.7" text-anchor="start" fill="currentColor">服</text></g>
<g transform="translate(61.0203,64.9461)">
<text font-family="Songti SC" font-size="2.7" text-anchor="start" fill="currentColor">你</text></g>
<g transform="translate(86.7826,64.9461)">
<text font-family="Songti SC" font-size="2.7" text-anchor="start" fill="currentColor">所</text></g>
<g transform="translate(106.2437,64.9461)">
<text font-family="Songti SC" font-size="2.7" text-anchor="start" fill="currentColor">有</text></g>
<g transform="translate(131.1568,64.9461)">
<text font-family="Songti SC" font-size="2.7" text-anchor="start" fill="currentColor">旨</text></g>
<g transform="translate(15.1503,87.4003)">
<text font-family="Songti SC" font-size="2.7" text-anchor="start" fill="currentColor">意</text></g>
<g transform="translate(33.665,87.4003)">
<text font-family="Songti SC" font-size="2.7" text-anchor="start" fill="currentColor">能</text></g>
<g transform="translate(48.2515,87.4003)">
<text font-family="Songti SC" font-size="2.7" text-anchor="start" fill="currentColor">以</text></g>
<g transform="translate(68.4742,87.4003)">
<text font-family="Songti SC" font-size="2.7" text-anchor="start" fill="currentColor">彼</text></g>
<g transform="translate(82.2693,87.4003)">
<text font-family="Songti SC" font-size="2.7" text-anchor="start" fill="currentColor">此</text></g>
<g transform="translate(99.5464,87.4003)">
<text font-family="Songti SC" font-size="2.7" text-anchor="start" fill="currentColor">更</text></g>
<g transform="translate(114.3161,87.4003)">
<text font-family="Songti SC" font-size="2.7" text-anchor="start" fill="currentColor">为</text></g>
<g transform="translate(135.4917,87.4003)">
<text font-family="Songti SC" font-size="2.7" text-anchor="start" fill="currentColor">亲</text></g>
<g transform="translate(15.1503,110.0062)">
<text font-family="Songti SC" font-size="2.7" text-anchor="start" fill="currentColor">近</text></g>
<g transform="translate(30.9833,110.0062)">
<text font-family="Songti SC" font-size="2.7" text-anchor="start" fill="currentColor">能</text></g>
<g transform="translate(43.0344,110.0062)">
<text font-family="Songti SC" font-size="2.7" text-anchor="start" fill="currentColor">以</text></g>
<g transform="translate(58.467,110.0062)">
<text font-family="Songti SC" font-size="2.7" text-anchor="start" fill="currentColor">更</text></g>
<g transform="translate(70.6212,110.0062)">
<text font-family="Songti SC" font-size="2.7" text-anchor="start" fill="currentColor">亲</text></g>
<g transform="translate(85.2046,110.0062)">
<text font-family="Songti SC" font-size="2.7" text-anchor="start" fill="currentColor">近</text></g>
<g transform="translate(96.97,110.0062)">
<text font-family="Songti SC" font-size="2.7" text-anchor="start" fill="currentColor">你</text></g>
</svg>