<?xml version='1.0' encoding='UTF-8'?>
<svg xmlns="http://www.w3.org/2000/svg" xmlns:xlink="http://www.w3.org/1999/xlink" version="1.2" width="215.90mm" height="279.40mm" viewBox="0.0000 -0.0000 153.5737 198.7425">
<style type="text/css">

tspan { white-space: pre; }

</style>
<g transform="translate(67.2374, 9.7816)">
<text font-family="Songti SC" font-weight="bold" font-size="3.1113" text-anchor="start" fill="currentColor">
<tspan>邪恶之日要站住</tspan>
</text>
</g>
<g transform="translate(69.2647, 13.2816)">
<text font-family="Songti SC" font-weight="bold" font-size="2.2001" text-anchor="start" fill="currentColor">
<tspan>属灵的争战－站稳</tspan>
</text>
</g>
<g transform="translate(135.2146, 17.7577)">
<text font-family="Songti SC" font-size="5.8741" text-anchor="start" fill="currentColor">
<tspan>C636</tspan>
</text>
</g>
<g transform="translate(9.0337, 19.6997)">
<text font-family="Songti SC" font-weight="bold" font-style="italic" font-size="2.2001" text-anchor="start" fill="currentColor">
<tspan>(吉他)</tspan>
</text>
</g>
<g transform="translate(51.0673, 29.2394)">
<rect x="0.0000" y="-2.0000" width="0.2212" height="4.0000" ry="0.0000" fill="currentColor"/>
</g>
<g transform="translate(9.0337, 31.2394)">
<line stroke-linejoin="round" stroke-linecap="round" stroke-width="0.1164" stroke="currentColor" x1="0.0582" y1="0" x2="138.1582" y2="0"/>
</g>
<g transform="translate(9.0337, 30.2394)">
<line stroke-linejoin="round" stroke-linecap="round" stroke-width="0.1164" stroke="currentColor" x1="0.0582" y1="0" x2="138.1582" y2="0"/>
</g>
<g transform="translate(9.0337, 29.2394)">
<line stroke-linejoin="round" stroke-linecap="round" stroke-width="0.1164" stroke="currentColor" x1="0.0582" y1="0" x2="138.1582" y2="0"/>
</g>
<g transform="translate(9.0337, 28.2394)">
<line stroke-linejoin="round" stroke-linecap="round" stroke-width="0.1164" stroke="currentColor" x1="0.0582" y1="0" x2="138.1582" y2="0"/>
</g>
<g transform="translate(9.0337, 27.2394)">
<line stroke-linejoin="round" stroke-linecap="round" stroke-width="0.1164" stroke="currentColor" x1="0.0582" y1="0" x2="138.1582" y2="0"/>
</g>
<g transform="translate(147.0289, 29.2394)">
<rect x="0.0000" y="-2.0000" width="0.2212" height="4.0000" ry="0.0000" fill="currentColor"/>
</g>
<g transform="translate(116.0147, 29.2394)">
<rect x="0.0000" y="-2.0000" width="0.2212" height="4.0000" ry="0.0000" fill="currentColor"/>
</g>
<g transform="translate(82.1530, 29.2394)">
<rect x="0.0000" y="-2.0000" width="0.2212" height="4.0000" ry="0.0000" fill="currentColor"/>
</g>
<g transform="translate(83.9849,35.447)">
<text font-family="Songti SC" font-size="2.7" text-anchor="start" fill="currentColor">
<tspan font-size="2.7">人</tspan>
</text>
</g>
<g transform="translate(19.2667, 25.7512)">
<text font-family="Hiragino Sans GB" font-size="1.9604" text-anchor="start" fill="currentColor">
<tspan>G</tspan>
</text>
</g>
<g transform="translate(19.2667, 31.7394)">
<path transform="scale(0.0040, -0.0040)" d="M212 138c68 0 113 -38 113 -95c0 -90 -109 -181 -212 -181c-68 0 -113 38 -113 95c0 90 109 181 212 181z" fill="currentColor"/>
</g>
<g transform="translate(9.8338, 30.2394)">
<path transform="scale(0.0040, -0.0040)" d="M647 2c0 -114 -75 -214 -180 -248c3 -33 4 -66 4 -99c0 -21 0 -41 -1 -62c-7 -122 -92 -229 -211 -229c-108 0 -196 88 -196 197c0 58 54 103 113 103c54 0 95 -47 95 -103c0 -52 -43 -95 -95 -95c-9 0 -18 1 -27 4c25 -37 66 -61 113 -61c93 0 156 91 162 191 c1 19 2 38 2 57c0 29 -1 58 -3 87c-5 -1 -44 -8 -88 -8c-194 0 -333 181 -333 376c0 177 129 308 244 443c-34 103 -55 171 -55 347c0 114 54 221 147 288c8 6 18 5 25 -1c68 -79 135 -242 135 -356c0 -142 -84 -255 -176 -364c21 -68 40 -136 57 -205c1 0 5 1 10 1 c157 0 258 -129 258 -263zM463 -201c64 24 110 88 110 161c0 88 -64 175 -167 188c28 -133 49 -269 57 -349zM77 25c0 -144 141 -243 261 -243c1 0 46 -1 81 5c-7 66 -27 208 -60 362c-79 -8 -124 -60 -124 -118c0 -43 25 -88 80 -120c5 -5 7 -11 7 -17 c0 -12 -10 -23 -23 -23c-16 0 -128 62 -128 188c0 89 60 177 163 200c-14 57 -30 113 -47 169c-105 -122 -210 -243 -210 -403zM242 784c0 -39 10 -95 39 -188c78 97 142 199 142 324c0 33 0 60 -20 118c-99 -46 -161 -145 -161 -254z" fill="currentColor"/>
</g>
<g transform="translate(13.3337, 27.2394)">
<path transform="scale(0.0040, -0.0040)" d="M0 116c0 10 6 19 16 23l40 15v154c0 12 9 21 21 21s21 -9 21 -21v-138l79 30v154c0 12 9 21 21 21s21 -9 21 -21v-138l22 8c3 1 6 2 9 2c13 0 25 -11 25 -25v-54c0 -10 -6 -20 -16 -24l-40 -15v-155l22 9c3 1 6 1 9 1c13 0 25 -11 25 -25v-54c0 -10 -6 -19 -16 -23 l-40 -15v-154c0 -12 -9 -21 -21 -21s-21 9 -21 21v138l-79 -30v-154c0 -12 -9 -21 -21 -21s-21 9 -21 21v138l-22 -8c-3 -1 -6 -2 -9 -2c-13 0 -25 11 -25 25v54c0 10 6 20 16 24l40 15v155l-22 -9c-3 -1 -6 -1 -9 -1c-13 0 -25 11 -25 25v54zM177 92l-79 -30v-154l79 30 v154z" fill="currentColor"/>
</g>
<g transform="translate(15.5838, 29.2394)">
<path transform="scale(0.0040, -0.0040)" d="M250 265c114 0 172 -112 172 -166c0 -38 -30 -69 -66 -69c-30 0 -72 23 -72 72c0 37 26 75 70 75c3 0 6 -1 9 -1c-26 36 -67 59 -113 59c-107 0 -113 -74 -113 -189c0 -15 1 -30 1 -46s-1 -31 -1 -46c0 -115 6 -189 113 -189c78 0 133 70 151 149c2 8 8 11 14 11 c7 0 15 -5 15 -14c0 -21 -49 -176 -180 -176c-145 0 -250 88 -250 265c0 63 18 265 250 265z" fill="currentColor"/>
</g>
<g transform="translate(18.6794,35.447)">
<text font-family="Songti SC" font-size="2.7" text-anchor="start" fill="currentColor">
<tspan font-size="2.7">邪</tspan>
</text>
</g>
<g transform="translate(16.1856,35.447)">
<text font-family="Songti SC" font-weight="bold" font-size="2.7" text-anchor="start" fill="currentColor">
<tspan font-size="2.7">1.</tspan>
</text>
</g>
<g transform="translate(20.4918, 29.2394)">
<rect x="-0.0757" y="-1.0000" width="0.1514" height="3.3287" ry="0.0500" fill="currentColor"/>
</g>
<g transform="translate(27.1633, 31.7394)">
<path transform="scale(0.0040, -0.0040)" d="M212 138c68 0 113 -38 113 -95c0 -90 -109 -181 -212 -181c-68 0 -113 38 -113 95c0 90 109 181 212 181z" fill="currentColor"/>
</g>
<g transform="translate(26.576,35.447)">
<text font-family="Songti SC" font-size="2.7" text-anchor="start" fill="currentColor">
<tspan font-size="2.7">恶</tspan>
</text>
</g>
<g transform="translate(28.3884, 29.2394)">
<rect x="-0.0757" y="-1.0000" width="0.1514" height="3.3287" ry="0.0500" fill="currentColor"/>
</g>
<g transform="translate(35.0599, 31.2394)">
<path transform="scale(0.0040, -0.0040)" d="M212 138c68 0 113 -38 113 -95c0 -90 -109 -181 -212 -181c-68 0 -113 38 -113 95c0 90 109 181 212 181z" fill="currentColor"/>
</g>
<g transform="translate(34.4726,35.447)">
<text font-family="Songti SC" font-size="2.7" text-anchor="start" fill="currentColor">
<tspan font-size="2.7">之</tspan>
</text>
</g>
<g transform="translate(36.2850, 29.2394)">
<rect x="-0.0757" y="-1.5000" width="0.1514" height="3.3287" ry="0.0500" fill="currentColor"/>
</g>
<g transform="translate(42.9565, 31.7394)">
<path transform="scale(0.0040, -0.0040)" d="M212 138c68 0 113 -38 113 -95c0 -90 -109 -181 -212 -181c-68 0 -113 38 -113 95c0 90 109 181 212 181z" fill="currentColor"/>
</g>
<g transform="translate(42.3692,35.447)">
<text font-family="Songti SC" font-size="2.7" text-anchor="start" fill="currentColor">
<tspan font-size="2.7">日</tspan>
</text>
</g>
<g transform="translate(44.1816, 29.2394)">
<rect x="-0.0757" y="-1.0000" width="0.1514" height="3.3287" ry="0.0500" fill="currentColor"/>
</g>
<g transform="translate(53.4865, 25.7512)">
<text font-family="Hiragino Sans GB" font-size="1.9604" text-anchor="start" fill="currentColor">
<tspan>D</tspan>
</text>
</g>
<g transform="translate(53.4865, 30.2394)">
<path transform="scale(0.0040, -0.0040)" d="M212 138c68 0 113 -38 113 -95c0 -90 -109 -181 -212 -181c-68 0 -113 38 -113 95c0 90 109 181 212 181z" fill="currentColor"/>
</g>
<g transform="translate(52.8992,35.447)">
<text font-family="Songti SC" font-size="2.7" text-anchor="start" fill="currentColor">
<tspan font-size="2.7">要</tspan>
</text>
</g>
<g transform="translate(54.7117, 29.2394)">
<rect x="-0.0757" y="-2.5000" width="0.1514" height="3.3287" ry="0.0500" fill="currentColor"/>
</g>
<g transform="translate(61.3831, 30.2394)">
<path transform="scale(0.0040, -0.0040)" d="M212 138c68 0 113 -38 113 -95c0 -90 -109 -181 -212 -181c-68 0 -113 38 -113 95c0 90 109 181 212 181z" fill="currentColor"/>
</g>
<g transform="translate(60.7958,35.447)">
<text font-family="Songti SC" font-size="2.7" text-anchor="start" fill="currentColor">
<tspan font-size="2.7">站</tspan>
</text>
</g>
<g transform="translate(62.6083, 29.2394)">
<rect x="-0.0757" y="-2.5000" width="0.1514" height="3.3287" ry="0.0500" fill="currentColor"/>
</g>
<g transform="translate(69.2797, 30.7394)">
<path transform="scale(0.0040, -0.0040)" d="M310 63c0 22 -17 40 -40 40c-38 0 -197 -107 -224 -139c-7 -8 -10 -17 -10 -27c0 -22 17 -40 40 -40c38 0 197 107 224 139c7 8 10 17 10 27zM256 138c55 0 90 -22 90 -77c0 -25 -15 -112 -73 -151c-34 -23 -92 -48 -183 -48c-55 0 -90 22 -90 77c0 25 15 112 73 151 c34 23 92 48 183 48z" fill="currentColor"/>
</g>
<g transform="translate(67.4962,35.447)">
<text font-family="Songti SC" font-size="2.7" text-anchor="start" fill="currentColor">
<tspan font-size="2.7">住，</tspan>
</text>
</g>
<g transform="translate(70.5879, 29.2394)">
<rect x="-0.0757" y="-2.0000" width="0.1514" height="3.2544" ry="0.0500" fill="currentColor"/>
</g>
<g transform="translate(84.5722, 25.7512)">
<text font-family="Hiragino Sans GB" font-size="1.9604" text-anchor="start" fill="currentColor">
<tspan>A</tspan>
</text>
</g>
<g transform="translate(86.0232, 25.7512)">
<text font-family="Hiragino Sans GB" font-size="1.9604" text-anchor="start" fill="currentColor">
<tspan>m</tspan>
</text>
</g>
<g transform="translate(84.5722, 29.7394)">
<path transform="scale(0.0040, -0.0040)" d="M212 138c68 0 113 -38 113 -95c0 -90 -109 -181 -212 -181c-68 0 -113 38 -113 95c0 90 109 181 212 181z" fill="currentColor"/>
</g>
<g transform="translate(85.7973, 29.2394)">
<rect x="-0.0757" y="-3.0000" width="0.1514" height="3.3287" ry="0.0500" fill="currentColor"/>
</g>
<g transform="translate(92.4688, 29.7394)">
<path transform="scale(0.0040, -0.0040)" d="M212 138c68 0 113 -38 113 -95c0 -90 -109 -181 -212 -181c-68 0 -113 38 -113 95c0 90 109 181 212 181z" fill="currentColor"/>
</g>
<g transform="translate(91.8815,35.447)">
<text font-family="Songti SC" font-size="2.7" text-anchor="start" fill="currentColor">
<tspan font-size="2.7">说</tspan>
</text>
</g>
<g transform="translate(93.6939, 29.2394)">
<rect x="-0.0757" y="-3.0000" width="0.1514" height="3.3287" ry="0.0500" fill="currentColor"/>
</g>
<g transform="translate(100.3878, 29.2394)">
<path transform="scale(0.0040, -0.0040)" d="M212 138c68 0 113 -38 113 -95c0 -90 -109 -181 -212 -181c-68 0 -113 38 -113 95c0 90 109 181 212 181z" fill="currentColor"/>
</g>
<g transform="translate(99.8006,35.447)">
<text font-family="Songti SC" font-size="2.7" text-anchor="start" fill="currentColor">
<tspan font-size="2.7">甚</tspan>
</text>
</g>
<g transform="translate(100.4635, 29.2394)">
<rect x="-0.0757" y="0.1713" width="0.1514" height="3.1620" ry="0.0500" fill="currentColor"/>
</g>
<g transform="translate(108.2844, 28.7394)">
<path transform="scale(0.0040, -0.0040)" d="M212 138c68 0 113 -38 113 -95c0 -90 -109 -181 -212 -181c-68 0 -113 38 -113 95c0 90 109 181 212 181z" fill="currentColor"/>
</g>
<g transform="translate(107.6972,35.447)">
<text font-family="Songti SC" font-size="2.7" text-anchor="start" fill="currentColor">
<tspan font-size="2.7">么</tspan>
</text>
</g>
<g transform="translate(108.3601, 29.2394)">
<rect x="-0.0757" y="-0.3287" width="0.1514" height="3.3287" ry="0.0500" fill="currentColor"/>
</g>
<g transform="translate(118.4339, 25.7512)">
<text font-family="Hiragino Sans GB" font-size="1.9604" text-anchor="start" fill="currentColor">
<tspan>D</tspan>
</text>
</g>
<g transform="translate(119.9276, 24.8603)">
<text font-family="Hiragino Sans GB" font-size="1.3856" text-anchor="start" fill="currentColor">
<tspan>7</tspan>
</text>
</g>
<g transform="translate(118.4339, 30.7394)">
<path transform="scale(0.0040, -0.0040)" d="M212 138c68 0 113 -38 113 -95c0 -90 -109 -181 -212 -181c-68 0 -113 38 -113 95c0 90 109 181 212 181z" fill="currentColor"/>
</g>
<g transform="translate(117.8466,35.447)">
<text font-family="Songti SC" font-size="2.7" text-anchor="start" fill="currentColor">
<tspan font-size="2.7">不</tspan>
</text>
</g>
<g transform="translate(119.6590, 29.2394)">
<rect x="-0.0757" y="-2.0000" width="0.1514" height="3.3287" ry="0.0500" fill="currentColor"/>
</g>
<g transform="translate(126.3305, 30.2394)">
<path transform="scale(0.0040, -0.0040)" d="M212 138c68 0 113 -38 113 -95c0 -90 -109 -181 -212 -181c-68 0 -113 38 -113 95c0 90 109 181 212 181z" fill="currentColor"/>
</g>
<g transform="translate(125.7432,35.447)">
<text font-family="Songti SC" font-size="2.7" text-anchor="start" fill="currentColor">
<tspan font-size="2.7">必</tspan>
</text>
</g>
<g transform="translate(127.5556, 29.2394)">
<rect x="-0.0757" y="-2.5000" width="0.1514" height="3.3287" ry="0.0500" fill="currentColor"/>
</g>
<g transform="translate(134.2271, 29.7394)">
<path transform="scale(0.0040, -0.0040)" d="M310 63c0 22 -17 40 -40 40c-38 0 -197 -107 -224 -139c-7 -8 -10 -17 -10 -27c0 -22 17 -40 40 -40c38 0 197 107 224 139c7 8 10 17 10 27zM256 138c55 0 90 -22 90 -77c0 -25 -15 -112 -73 -151c-34 -23 -92 -48 -183 -48c-55 0 -90 22 -90 77c0 25 15 112 73 151 c34 23 92 48 183 48z" fill="currentColor"/>
</g>
<g transform="translate(132.4436,35.447)">
<text font-family="Songti SC" font-size="2.7" text-anchor="start" fill="currentColor">
<tspan font-size="2.7">顾，</tspan>
</text>
</g>
<g transform="translate(135.5352, 29.2394)">
<rect x="-0.0757" y="-3.0000" width="0.1514" height="3.2544" ry="0.0500" fill="currentColor"/>
</g>
<g transform="translate(49.234,55.3235)">
<rect x="0.0000" y="-2.0000" width="0.2212" height="4.0000" ry="0.0000" fill="currentColor"/>
</g>
<g transform="translate(9.0337,57.3235)">
<line stroke-linejoin="round" stroke-linecap="round" stroke-width="0.1164" stroke="currentColor" x1="0.0582" y1="0" x2="138.1582" y2="0"/>
</g>
<g transform="translate(9.0337,56.3235)">
<line stroke-linejoin="round" stroke-linecap="round" stroke-width="0.1164" stroke="currentColor" x1="0.0582" y1="0" x2="138.1582" y2="0"/>
</g>
<g transform="translate(9.0337,55.3235)">
<line stroke-linejoin="round" stroke-linecap="round" stroke-width="0.1164" stroke="currentColor" x1="0.0582" y1="0" x2="138.1582" y2="0"/>
</g>
<g transform="translate(9.0337,54.3235)">
<line stroke-linejoin="round" stroke-linecap="round" stroke-width="0.1164" stroke="currentColor" x1="0.0582" y1="0" x2="138.1582" y2="0"/>
</g>
<g transform="translate(9.0337,53.3235)">
<line stroke-linejoin="round" stroke-linecap="round" stroke-width="0.1164" stroke="currentColor" x1="0.0582" y1="0" x2="138.1582" y2="0"/>
</g>
<g transform="translate(146.5516,55.3235)">
<rect x="0.0000" y="-2.0000" width="0.6986" height="4.0000" ry="0.0000" fill="currentColor"/>
</g>
<g transform="translate(145.9811,55.3235)">
<rect x="0.0000" y="-2.0000" width="0.2212" height="4.0000" ry="0.0000" fill="currentColor"/>
</g>
<g transform="translate(116.1568,55.3235)">
<rect x="0.0000" y="-2.0000" width="0.2212" height="4.0000" ry="0.0000" fill="currentColor"/>
</g>
<g transform="translate(80.9916,55.3235)">
<rect x="0.0000" y="-2.0000" width="0.2212" height="4.0000" ry="0.0000" fill="currentColor"/>
</g>
<g transform="translate(9.8338,56.3235)">
<path transform="scale(0.0040, -0.0040)" d="M647 2c0 -114 -75 -214 -180 -248c3 -33 4 -66 4 -99c0 -21 0 -41 -1 -62c-7 -122 -92 -229 -211 -229c-108 0 -196 88 -196 197c0 58 54 103 113 103c54 0 95 -47 95 -103c0 -52 -43 -95 -95 -95c-9 0 -18 1 -27 4c25 -37 66 -61 113 -61c93 0 156 91 162 191 c1 19 2 38 2 57c0 29 -1 58 -3 87c-5 -1 -44 -8 -88 -8c-194 0 -333 181 -333 376c0 177 129 308 244 443c-34 103 -55 171 -55 347c0 114 54 221 147 288c8 6 18 5 25 -1c68 -79 135 -242 135 -356c0 -142 -84 -255 -176 -364c21 -68 40 -136 57 -205c1 0 5 1 10 1 c157 0 258 -129 258 -263zM463 -201c64 24 110 88 110 161c0 88 -64 175 -167 188c28 -133 49 -269 57 -349zM77 25c0 -144 141 -243 261 -243c1 0 46 -1 81 5c-7 66 -27 208 -60 362c-79 -8 -124 -60 -124 -118c0 -43 25 -88 80 -120c5 -5 7 -11 7 -17 c0 -12 -10 -23 -23 -23c-16 0 -128 62 -128 188c0 89 60 177 163 200c-14 57 -30 113 -47 169c-105 -122 -210 -243 -210 -403zM242 784c0 -39 10 -95 39 -188c78 97 142 199 142 324c0 33 0 60 -20 118c-99 -46 -161 -145 -161 -254z" fill="currentColor"/>
</g>
<g transform="translate(13.3337,53.3235)">
<path transform="scale(0.0040, -0.0040)" d="M0 116c0 10 6 19 16 23l40 15v154c0 12 9 21 21 21s21 -9 21 -21v-138l79 30v154c0 12 9 21 21 21s21 -9 21 -21v-138l22 8c3 1 6 2 9 2c13 0 25 -11 25 -25v-54c0 -10 -6 -20 -16 -24l-40 -15v-155l22 9c3 1 6 1 9 1c13 0 25 -11 25 -25v-54c0 -10 -6 -19 -16 -23 l-40 -15v-154c0 -12 -9 -21 -21 -21s-21 9 -21 21v138l-79 -30v-154c0 -12 -9 -21 -21 -21s-21 9 -21 21v138l-22 -8c-3 -1 -6 -2 -9 -2c-13 0 -25 11 -25 25v54c0 10 6 20 16 24l40 15v155l-22 -9c-3 -1 -6 -1 -9 -1c-13 0 -25 11 -25 25v54zM177 92l-79 -30v-154l79 30 v154z" fill="currentColor"/>
</g>
<g transform="translate(8.2228,52.3503)">
<text font-family="Songti SC" font-size="1.7463" text-anchor="start" fill="currentColor">
<tspan>5</tspan>
</text>
</g>
<g transform="translate(16.9338,52.3215)">
<text font-family="Hiragino Sans GB" font-size="1.9604" text-anchor="start" fill="currentColor">
<tspan>G</tspan>
</text>
</g>
<g transform="translate(16.9338,55.3235)">
<path transform="scale(0.0040, -0.0040)" d="M212 138c68 0 113 -38 113 -95c0 -90 -109 -181 -212 -181c-68 0 -113 38 -113 95c0 90 109 181 212 181z" fill="currentColor"/>
</g>
<g transform="translate(16.3465,61.6027)">
<text font-family="Songti SC" font-size="2.7" text-anchor="start" fill="currentColor">
<tspan font-size="2.7">泥</tspan>
</text>
</g>
<g transform="translate(17.0094,55.3235)">
<rect x="-0.0757" y="0.1713" width="0.1514" height="3.1620" ry="0.0500" fill="currentColor"/>
</g>
<g transform="translate(24.9879,55.3235)">
<path transform="scale(0.0040, -0.0040)" d="M212 138c68 0 113 -38 113 -95c0 -90 -109 -181 -212 -181c-68 0 -113 38 -113 95c0 90 109 181 212 181z" fill="currentColor"/>
</g>
<g transform="translate(24.4006,61.6027)">
<text font-family="Songti SC" font-size="2.7" text-anchor="start" fill="currentColor">
<tspan font-size="2.7">土</tspan>
</text>
</g>
<g transform="translate(25.0636,55.3235)">
<rect x="-0.0757" y="0.1713" width="0.1514" height="3.1620" ry="0.0500" fill="currentColor"/>
</g>
<g transform="translate(33.292,52.3215)">
<text font-family="Hiragino Sans GB" font-size="1.9604" text-anchor="start" fill="currentColor">
<tspan>C</tspan>
</text>
</g>
<g transform="translate(33.292,54.3235)">
<path transform="scale(0.0040, -0.0040)" d="M212 138c68 0 113 -38 113 -95c0 -90 -109 -181 -212 -181c-68 0 -113 38 -113 95c0 90 109 181 212 181z" fill="currentColor"/>
</g>
<g transform="translate(32.7048,61.6027)">
<text font-family="Songti SC" font-size="2.7" text-anchor="start" fill="currentColor">
<tspan font-size="2.7">之</tspan>
</text>
</g>
<g transform="translate(33.3677,55.3235)">
<rect x="-0.0757" y="-0.8287" width="0.1514" height="3.3287" ry="0.0500" fill="currentColor"/>
</g>
<g transform="translate(41.3462,54.8235)">
<path transform="scale(0.0040, -0.0040)" d="M212 138c68 0 113 -38 113 -95c0 -90 -109 -181 -212 -181c-68 0 -113 38 -113 95c0 90 109 181 212 181z" fill="currentColor"/>
</g>
<g transform="translate(40.7589,61.6027)">
<text font-family="Songti SC" font-size="2.7" text-anchor="start" fill="currentColor">
<tspan font-size="2.7">脸</tspan>
</text>
</g>
<g transform="translate(41.4218,55.3235)">
<rect x="-0.0757" y="-0.3287" width="0.1514" height="3.3287" ry="0.0500" fill="currentColor"/>
</g>
<g transform="translate(51.7994,52.3215)">
<text font-family="Hiragino Sans GB" font-size="1.9604" text-anchor="start" fill="currentColor">
<tspan>G</tspan>
</text>
</g>
<g transform="translate(51.7994,55.3235)">
<path transform="scale(0.0040, -0.0040)" d="M212 138c68 0 113 -38 113 -95c0 -90 -109 -181 -212 -181c-68 0 -113 38 -113 95c0 90 109 181 212 181z" fill="currentColor"/>
</g>
<g transform="translate(51.2121,61.6027)">
<text font-family="Songti SC" font-size="2.7" text-anchor="start" fill="currentColor">
<tspan font-size="2.7">何</tspan>
</text>
</g>
<g transform="translate(51.875,55.3235)">
<rect x="-0.0757" y="0.1713" width="0.1514" height="3.1620" ry="0.0500" fill="currentColor"/>
</g>
<g transform="translate(59.831,55.8235)">
<path transform="scale(0.0040, -0.0040)" d="M212 138c68 0 113 -38 113 -95c0 -90 -109 -181 -212 -181c-68 0 -113 38 -113 95c0 90 109 181 212 181z" fill="currentColor"/>
</g>
<g transform="translate(59.2437,61.6027)">
<text font-family="Songti SC" font-size="2.7" text-anchor="start" fill="currentColor">
<tspan font-size="2.7">必</tspan>
</text>
</g>
<g transform="translate(61.0562,55.3235)">
<rect x="-0.0757" y="-3.0000" width="0.1514" height="3.3287" ry="0.0500" fill="currentColor"/>
</g>
<g transform="translate(67.8852,52.3215)">
<text font-family="Hiragino Sans GB" font-size="1.9604" text-anchor="start" fill="currentColor">
<tspan>E</tspan>
</text>
</g>
<g transform="translate(69.1655,52.3215)">
<text font-family="Hiragino Sans GB" font-size="1.9604" text-anchor="start" fill="currentColor">
<tspan>m</tspan>
</text>
</g>
<g transform="translate(67.8852,56.3235)">
<path transform="scale(0.0040, -0.0040)" d="M310 63c0 22 -17 40 -40 40c-38 0 -197 -107 -224 -139c-7 -8 -10 -17 -10 -27c0 -22 17 -40 40 -40c38 0 197 107 224 139c7 8 10 17 10 27zM256 138c55 0 90 -22 90 -77c0 -25 -15 -112 -73 -151c-34 -23 -92 -48 -183 -48c-55 0 -90 22 -90 77c0 25 15 112 73 151 c34 23 92 48 183 48z" fill="currentColor"/>
</g>
<g transform="translate(66.1017,61.6027)">
<text font-family="Songti SC" font-size="2.7" text-anchor="start" fill="currentColor">
<tspan font-size="2.7">睹，</tspan>
</text>
</g>
<g transform="translate(69.1933,55.3235)">
<rect x="-0.0757" y="-2.5000" width="0.1514" height="3.2544" ry="0.0500" fill="currentColor"/>
</g>
<g transform="translate(83.4525,52.3215)">
<text font-family="Hiragino Sans GB" font-size="1.9604" text-anchor="start" fill="currentColor">
<tspan>C</tspan>
</text>
</g>
<g transform="translate(83.4525,57.3235)">
<path transform="scale(0.0040, -0.0040)" d="M212 138c68 0 113 -38 113 -95c0 -90 -109 -181 -212 -181c-68 0 -113 38 -113 95c0 90 109 181 212 181z" fill="currentColor"/>
</g>
<g transform="translate(82.8652,61.6027)">
<text font-family="Songti SC" font-size="2.7" text-anchor="start" fill="currentColor">
<tspan font-size="2.7">站</tspan>
</text>
</g>
<g transform="translate(84.6777,55.3235)">
<rect x="-0.0757" y="-1.5000" width="0.1514" height="3.3287" ry="0.0500" fill="currentColor"/>
</g>
<g transform="translate(91.7566,56.3235)">
<path transform="scale(0.0040, -0.0040)" d="M212 138c68 0 113 -38 113 -95c0 -90 -109 -181 -212 -181c-68 0 -113 38 -113 95c0 90 109 181 212 181z" fill="currentColor"/>
</g>
<g transform="translate(89.9317,61.6027)">
<text font-family="Songti SC" font-size="2.7" text-anchor="start" fill="currentColor">
<tspan font-size="2.7">住，</tspan>
</text>
</g>
<g transform="translate(92.9818,55.3235)">
<rect x="-0.0757" y="-2.5000" width="0.1514" height="3.3287" ry="0.0500" fill="currentColor"/>
</g>
<g transform="translate(99.8108,52.3215)">
<text font-family="Hiragino Sans GB" font-size="1.9604" text-anchor="start" fill="currentColor">
<tspan>D</tspan>
</text>
</g>
<g transform="translate(101.3045,51.4306)">
<text font-family="Hiragino Sans GB" font-size="1.3856" text-anchor="start" fill="currentColor">
<tspan>7</tspan>
</text>
</g>
<g transform="translate(99.8108,56.3235)">
<path transform="scale(0.0040, -0.0040)" d="M212 138c68 0 113 -38 113 -95c0 -90 -109 -181 -212 -181c-68 0 -113 38 -113 95c0 90 109 181 212 181z" fill="currentColor"/>
</g>
<g transform="translate(99.2235,61.6027)">
<text font-family="Songti SC" font-size="2.7" text-anchor="start" fill="currentColor">
<tspan font-size="2.7">主</tspan>
</text>
</g>
<g transform="translate(101.0359,55.3235)">
<rect x="-0.0757" y="-2.5000" width="0.1514" height="3.3287" ry="0.0500" fill="currentColor"/>
</g>
<g transform="translate(107.8649,56.8235)">
<path transform="scale(0.0040, -0.0040)" d="M212 138c68 0 113 -38 113 -95c0 -90 -109 -181 -212 -181c-68 0 -113 38 -113 95c0 90 109 181 212 181z" fill="currentColor"/>
</g>
<g transform="translate(107.2776,61.6027)">
<text font-family="Songti SC" font-size="2.7" text-anchor="start" fill="currentColor">
<tspan font-size="2.7">精</tspan>
</text>
</g>
<g transform="translate(109.0901,55.3235)">
<rect x="-0.0757" y="-2.0000" width="0.1514" height="3.3287" ry="0.0500" fill="currentColor"/>
</g>
<g transform="translate(118.6177,52.3215)">
<text font-family="Hiragino Sans GB" font-size="1.9604" text-anchor="start" fill="currentColor">
<tspan>G</tspan>
</text>
</g>
<g transform="translate(118.6177,56.3235)">
<path transform="scale(0.0040, -0.0040)" d="M210 110c-18 0 -67 -7 -67 -88c0 -98 87 -132 129 -132c18 0 67 7 67 88c0 98 -87 132 -129 132zM241 138c142 0 241 -66 241 -138s-99 -138 -241 -138s-241 66 -241 138s99 138 241 138z" fill="currentColor"/>
</g>
<g transform="translate(117.1057,61.6027)">
<text font-family="Songti SC" font-size="2.7" text-anchor="start" fill="currentColor">
<tspan font-size="2.7">兵。</tspan>
</text>
</g>
<g transform="translate(126.571,52.3215)">
<text font-family="Hiragino Sans GB" font-size="1.9604" text-anchor="start" fill="currentColor">
<tspan>C</tspan>
</text>
</g>
<g transform="translate(134.5243,52.3215)">
<text font-family="Hiragino Sans GB" font-size="1.9604" text-anchor="start" fill="currentColor">
<tspan>G</tspan>
</text>
</g>
<g transform="translate(67.8148,95.3235)">
<text font-family="Songti SC" font-size="1.5560" text-anchor="start" fill="currentColor">
<tspan> </tspan>
</text>
</g>
<g transform="translate(67.8148,109.3235)">
<text font-family="Songti SC" font-size="1.5560" text-anchor="start" fill="currentColor">
<tspan> </tspan>
</text>
</g>
<g transform="translate(67.8148,123.3235)">
<text font-family="Songti SC" font-size="1.5560" text-anchor="start" fill="currentColor">
<tspan> </tspan>
</text>
</g>
<g transform="translate(69.8408,219.9677)">
<text font-family="Trebuchet MS" font-size="2.2001" text-anchor="start" fill="currentColor">
<tspan>www.hymnal.net</tspan>
</text>
</g>
<g transform="translate(16.1856,39.447)">
<text font-family="Songti SC" font-weight="bold" font-size="2.7" text-anchor="start" fill="currentColor">2.</text></g>
<g transform="translate(18.6794,39.447)">
<text font-family="Songti SC" font-size="2.7" text-anchor="start" fill="currentColor">站</text></g>
<g transform="translate(26.576,39.447)">
<text font-family="Songti SC" font-size="2.7" text-anchor="start" fill="currentColor">住</text></g>
<g transform="translate(34.4726,39.447)">
<text font-family="Songti SC" font-size="2.7" text-anchor="start" fill="currentColor">因</text></g>
<g transform="translate(42.3692,39.447)">
<text font-family="Songti SC" font-size="2.7" text-anchor="start" fill="currentColor">有</text></g>
<g transform="translate(52.8992,39.447)">
<text font-family="Songti SC" font-size="2.7" text-anchor="start" fill="currentColor">神</text></g>
<g transform="translate(60.7958,39.447)">
<text font-family="Songti SC" font-size="2.7" text-anchor="start" fill="currentColor">的</text></g>
<g transform="translate(67.4962,39.447)">
<text font-family="Songti SC" font-size="2.7" text-anchor="start" fill="currentColor">话</text></g>
<g transform="translate(83.9849,39.447)">
<text font-family="Songti SC" font-size="2.7" text-anchor="start" fill="currentColor">站</text></g>
<g transform="translate(91.8815,39.447)">
<text font-family="Songti SC" font-size="2.7" text-anchor="start" fill="currentColor">住</text></g>
<g transform="translate(99.8006,39.447)">
<text font-family="Songti SC" font-size="2.7" text-anchor="start" fill="currentColor">甘</text></g>
<g transform="translate(107.6972,39.447)">
<text font-family="Songti SC" font-size="2.7" text-anchor="start" fill="currentColor">愿</text></g>
<g transform="translate(117.8466,39.447)">
<text font-family="Songti SC" font-size="2.7" text-anchor="start" fill="currentColor">出</text></g>
<g transform="translate(125.7432,39.447)">
<text font-family="Songti SC" font-size="2.7" text-anchor="start" fill="currentColor">代</text></g>
<g transform="translate(132.4436,39.447)">
<text font-family="Songti SC" font-size="2.7" text-anchor="start" fill="currentColor">价</text></g>
<g transform="translate(16.3465,65.6027)">
<text font-family="Songti SC" font-size="2.7" text-anchor="start" fill="currentColor">追</text></g>
<g transform="translate(24.4006,65.6027)">
<text font-family="Songti SC" font-size="2.7" text-anchor="start" fill="currentColor">随</text></g>
<g transform="translate(32.7048,65.6027)">
<text font-family="Songti SC" font-size="2.7" text-anchor="start" fill="currentColor">众</text></g>
<g transform="translate(40.7589,65.6027)">
<text font-family="Songti SC" font-size="2.7" text-anchor="start" fill="currentColor">圣</text></g>
<g transform="translate(51.2121,65.6027)">
<text font-family="Songti SC" font-size="2.7" text-anchor="start" fill="currentColor">的</text></g>
<g transform="translate(59.2437,65.6027)">
<text font-family="Songti SC" font-size="2.7" text-anchor="start" fill="currentColor">步</text></g>
<g transform="translate(66.1017,65.6027)">
<text font-family="Songti SC" font-size="2.7" text-anchor="start" fill="currentColor">法</text></g>
<g transform="translate(82.8652,65.6027)">
<text font-family="Songti SC" font-size="2.7" text-anchor="start" fill="currentColor">站</text></g>
<g transform="translate(89.9317,65.6027)">
<text font-family="Songti SC" font-size="2.7" text-anchor="start" fill="currentColor">住</text></g>
<g transform="translate(99.2235,65.6027)">
<text font-family="Songti SC" font-size="2.7" text-anchor="start" fill="currentColor">主</text></g>
<g transform="translate(107.2776,65.6027)">
<text font-family="Songti SC" font-size="2.7" text-anchor="start" fill="currentColor">精</text></g>
<g transform="translate(117.1057,65.6027)">
<text font-family="Songti SC" font-size="2.7" text-anchor="start" fill="currentColor">兵</text></g>
<g transform="translate(16.1856,43.447)">
<text font-family="Songti SC" font-weight="bold" font-size="2.7" text-anchor="start" fill="currentColor">3.</text></g>
<g transform="translate(18.6794,43.447)">
<text font-family="Songti SC" font-size="2.7" text-anchor="start" fill="currentColor">站</text></g>
<g transform="translate(26.576,43.447)">
<text font-family="Songti SC" font-size="2.7" text-anchor="start" fill="currentColor">住</text></g>
<g transform="translate(34.4726,43.447)">
<text font-family="Songti SC" font-size="2.7" text-anchor="start" fill="currentColor">胜</text></g>
<g transform="translate(42.3692,43.447)">
<text font-family="Songti SC" font-size="2.7" text-anchor="start" fill="currentColor">过</text></g>
<g transform="translate(52.8992,43.447)">
<text font-family="Songti SC" font-size="2.7" text-anchor="start" fill="currentColor">敌</text></g>
<g transform="translate(60.7958,43.447)">
<text font-family="Songti SC" font-size="2.7" text-anchor="start" fill="currentColor">诡</text></g>
<g transform="translate(67.4962,43.447)">
<text font-family="Songti SC" font-size="2.7" text-anchor="start" fill="currentColor">计</text></g>
<g transform="translate(83.9849,43.447)">
<text font-family="Songti SC" font-size="2.7" text-anchor="start" fill="currentColor">站</text></g>
<g transform="translate(91.8815,43.447)">
<text font-family="Songti SC" font-size="2.7" text-anchor="start" fill="currentColor">住</text></g>
<g transform="translate(99.8006,43.447)">
<text font-family="Songti SC" font-size="2.7" text-anchor="start" fill="currentColor">不</text></g>
<g transform="translate(107.6972,43.447)">
<text font-family="Songti SC" font-size="2.7" text-anchor="start" fill="currentColor">被</text></g>
<g transform="translate(117.8466,43.447)">
<text font-family="Songti SC" font-size="2.7" text-anchor="start" fill="currentColor">乐</text></g>
<g transform="translate(125.7432,43.447)">
<text font-family="Songti SC" font-size="2.7" text-anchor="start" fill="currentColor">所</text></g>
<g transform="translate(132.4436,43.447)">
<text font-family="Songti SC" font-size="2.7" text-anchor="start" fill="currentColor">迷</text></g>
<g transform="translate(16.3465,69.6027)">
<text font-family="Songti SC" font-size="2.7" text-anchor="start" fill="currentColor">站</text></g>
<g transform="translate(24.4006,69.6027)">
<text font-family="Songti SC" font-size="2.7" text-anchor="start" fill="currentColor">住</text></g>
<g transform="translate(32.7048,69.6027)">
<text font-family="Songti SC" font-size="2.7" text-anchor="start" fill="currentColor">不</text></g>
<g transform="translate(40.7589,69.6027)">
<text font-family="Songti SC" font-size="2.7" text-anchor="start" fill="currentColor">为</text></g>
<g transform="translate(51.2121,69.6027)">
<text font-family="Songti SC" font-size="2.7" text-anchor="start" fill="currentColor">人</text></g>
<g transform="translate(59.2437,69.6027)">
<text font-family="Songti SC" font-size="2.7" text-anchor="start" fill="currentColor">所</text></g>
<g transform="translate(66.1017,69.6027)">
<text font-family="Songti SC" font-size="2.7" text-anchor="start" fill="currentColor">欺</text></g>
<g transform="translate(82.8652,69.6027)">
<text font-family="Songti SC" font-size="2.7" text-anchor="start" fill="currentColor">站</text></g>
<g transform="translate(89.9317,69.6027)">
<text font-family="Songti SC" font-size="2.7" text-anchor="start" fill="currentColor">住</text></g>
<g transform="translate(99.2235,69.6027)">
<text font-family="Songti SC" font-size="2.7" text-anchor="start" fill="currentColor">主</text></g>
<g transform="translate(107.2776,69.6027)">
<text font-family="Songti SC" font-size="2.7" text-anchor="start" fill="currentColor">精</text></g>
<g transform="translate(117.1057,69.6027)">
<text font-family="Songti SC" font-size="2.7" text-anchor="start" fill="currentColor">兵</text></g>
<g transform="translate(16.1856,47.447)">
<text font-family="Songti SC" font-weight="bold" font-size="2.7" text-anchor="start" fill="currentColor">4.</text></g>
<g transform="translate(18.6794,47.447)">
<text font-family="Songti SC" font-size="2.7" text-anchor="start" fill="currentColor">站</text></g>
<g transform="translate(26.576,47.447)">
<text font-family="Songti SC" font-size="2.7" text-anchor="start" fill="currentColor">住</text></g>
<g transform="translate(34.4726,47.447)">
<text font-family="Songti SC" font-size="2.7" text-anchor="start" fill="currentColor">直</text></g>
<g transform="translate(42.3692,47.447)">
<text font-family="Songti SC" font-size="2.7" text-anchor="start" fill="currentColor">到</text></g>
<g transform="translate(52.8992,47.447)">
<text font-family="Songti SC" font-size="2.7" text-anchor="start" fill="currentColor">那</text></g>
<g transform="translate(60.7958,47.447)">
<text font-family="Songti SC" font-size="2.7" text-anchor="start" fill="currentColor">日</text></g>
<g transform="translate(67.4962,47.447)">
<text font-family="Songti SC" font-size="2.7" text-anchor="start" fill="currentColor">到</text></g>
<g transform="translate(83.9849,47.447)">
<text font-family="Songti SC" font-size="2.7" text-anchor="start" fill="currentColor">站</text></g>
<g transform="translate(91.8815,47.447)">
<text font-family="Songti SC" font-size="2.7" text-anchor="start" fill="currentColor">住</text></g>
<g transform="translate(99.8006,47.447)">
<text font-family="Songti SC" font-size="2.7" text-anchor="start" fill="currentColor">因</text></g>
<g transform="translate(107.6972,47.447)">
<text font-family="Songti SC" font-size="2.7" text-anchor="start" fill="currentColor">主</text></g>
<g transform="translate(117.8466,47.447)">
<text font-family="Songti SC" font-size="2.7" text-anchor="start" fill="currentColor">无</text></g>
<g transform="translate(125.7432,47.447)">
<text font-family="Songti SC" font-size="2.7" text-anchor="start" fill="currentColor">所</text></g>
<g transform="translate(132.4436,47.447)">
<text font-family="Songti SC" font-size="2.7" text-anchor="start" fill="currentColor">要</text></g>
<g transform="translate(16.3465,73.6027)">
<text font-family="Songti SC" font-size="2.7" text-anchor="start" fill="currentColor">站</text></g>
<g transform="translate(24.4006,73.6027)">
<text font-family="Songti SC" font-size="2.7" text-anchor="start" fill="currentColor">住</text></g>
<g transform="translate(32.7048,73.6027)">
<text font-family="Songti SC" font-size="2.7" text-anchor="start" fill="currentColor">儆</text></g>
<g transform="translate(40.7589,73.6027)">
<text font-family="Songti SC" font-size="2.7" text-anchor="start" fill="currentColor">醒</text></g>
<g transform="translate(51.2121,73.6027)">
<text font-family="Songti SC" font-size="2.7" text-anchor="start" fill="currentColor">且</text></g>
<g transform="translate(59.2437,73.6027)">
<text font-family="Songti SC" font-size="2.7" text-anchor="start" fill="currentColor">祷</text></g>
<g transform="translate(66.1017,73.6027)">
<text font-family="Songti SC" font-size="2.7" text-anchor="start" fill="currentColor">告</text></g>
<g transform="translate(82.8652,73.6027)">
<text font-family="Songti SC" font-size="2.7" text-anchor="start" fill="currentColor">站</text></g>
<g transform="translate(89.9317,73.6027)">
<text font-family="Songti SC" font-size="2.7" text-anchor="start" fill="currentColor">住</text></g>
<g transform="translate(99.2235,73.6027)">
<text font-family="Songti SC" font-size="2.7" text-anchor="start" fill="currentColor">主</text></g>
<g transform="translate(107.2776,73.6027)">
<text font-family="Songti SC" font-size="2.7" text-anchor="start" fill="currentColor">精</text></g>
<g transform="translate(117.1057,73.6027)">
<text font-family="Songti SC" font-size="2.7" text-anchor="start" fill="currentColor">兵</text></g>
</svg>