<?xml version='1.0' encoding='UTF-8'?>
<svg xmlns="http://www.w3.org/2000/svg" xmlns:xlink="http://www.w3.org/1999/xlink" version="1.2" width="215.90mm" height="279.40mm" viewBox="0.0000 -0.0000 153.5737 198.7425">
<style type="text/css">

tspan { white-space: pre; }

</style>
<g transform="translate(71.9108, 9.7349)">
<text font-family="Songti SC" font-weight="bold" font-size="3.1113" text-anchor="start" fill="currentColor">
<tspan>来家来家</tspan>
</text>
</g>
<g transform="translate(70.3743, 13.2349)">
<text font-family="Songti SC" font-weight="bold" font-size="2.2001" text-anchor="start" fill="currentColor">
<tspan>福音－主的呼召</tspan>
</text>
</g>
<g transform="translate(135.2146, 17.7132)">
<text font-family="Songti SC" font-size="5.8741" text-anchor="start" fill="currentColor">
<tspan>C706</tspan>
</text>
</g>
<g transform="translate(9.0337, 19.6553)">
<text font-family="Songti SC" font-weight="bold" font-style="italic" font-size="2.2001" text-anchor="start" fill="currentColor">
<tspan>(吉他)</tspan>
</text>
</g>
<g transform="translate(51.2528, 29.9565)">
<rect x="0.0000" y="-2.0000" width="0.2212" height="4.0000" ry="0.0000" fill="currentColor"/>
</g>
<g transform="translate(9.0337, 31.9565)">
<line stroke-linejoin="round" stroke-linecap="round" stroke-width="0.1164" stroke="currentColor" x1="0.0582" y1="0" x2="138.1582" y2="0"/>
</g>
<g transform="translate(9.0337, 30.9565)">
<line stroke-linejoin="round" stroke-linecap="round" stroke-width="0.1164" stroke="currentColor" x1="0.0582" y1="0" x2="138.1582" y2="0"/>
</g>
<g transform="translate(9.0337, 29.9565)">
<line stroke-linejoin="round" stroke-linecap="round" stroke-width="0.1164" stroke="currentColor" x1="0.0582" y1="0" x2="138.1582" y2="0"/>
</g>
<g transform="translate(9.0337, 28.9565)">
<line stroke-linejoin="round" stroke-linecap="round" stroke-width="0.1164" stroke="currentColor" x1="0.0582" y1="0" x2="138.1582" y2="0"/>
</g>
<g transform="translate(9.0337, 27.9565)">
<line stroke-linejoin="round" stroke-linecap="round" stroke-width="0.1164" stroke="currentColor" x1="0.0582" y1="0" x2="138.1582" y2="0"/>
</g>
<g transform="translate(147.0289, 29.9565)">
<rect x="0.0000" y="-2.0000" width="0.2212" height="4.0000" ry="0.0000" fill="currentColor"/>
</g>
<g transform="translate(119.0843, 29.9565)">
<rect x="0.0000" y="-2.0000" width="0.2212" height="4.0000" ry="0.0000" fill="currentColor"/>
</g>
<g transform="translate(84.4984, 29.9565)">
<rect x="0.0000" y="-2.0000" width="0.2212" height="4.0000" ry="0.0000" fill="currentColor"/>
</g>
<g transform="translate(19.0775, 25.7067)">
<text font-family="Hiragino Sans GB" font-size="1.9604" text-anchor="start" fill="currentColor">
<tspan>G</tspan>
</text>
</g>
<g transform="translate(19.0775, 29.9565)">
<path transform="scale(0.0040, -0.0040)" d="M212 138c68 0 113 -38 113 -95c0 -90 -109 -181 -212 -181c-68 0 -113 38 -113 95c0 90 109 181 212 181z" fill="currentColor"/>
</g>
<g transform="translate(9.8338, 30.9565)">
<path transform="scale(0.0040, -0.0040)" d="M647 2c0 -114 -75 -214 -180 -248c3 -33 4 -66 4 -99c0 -21 0 -41 -1 -62c-7 -122 -92 -229 -211 -229c-108 0 -196 88 -196 197c0 58 54 103 113 103c54 0 95 -47 95 -103c0 -52 -43 -95 -95 -95c-9 0 -18 1 -27 4c25 -37 66 -61 113 -61c93 0 156 91 162 191 c1 19 2 38 2 57c0 29 -1 58 -3 87c-5 -1 -44 -8 -88 -8c-194 0 -333 181 -333 376c0 177 129 308 244 443c-34 103 -55 171 -55 347c0 114 54 221 147 288c8 6 18 5 25 -1c68 -79 135 -242 135 -356c0 -142 -84 -255 -176 -364c21 -68 40 -136 57 -205c1 0 5 1 10 1 c157 0 258 -129 258 -263zM463 -201c64 24 110 88 110 161c0 88 -64 175 -167 188c28 -133 49 -269 57 -349zM77 25c0 -144 141 -243 261 -243c1 0 46 -1 81 5c-7 66 -27 208 -60 362c-79 -8 -124 -60 -124 -118c0 -43 25 -88 80 -120c5 -5 7 -11 7 -17 c0 -12 -10 -23 -23 -23c-16 0 -128 62 -128 188c0 89 60 177 163 200c-14 57 -30 113 -47 169c-105 -122 -210 -243 -210 -403zM242 784c0 -39 10 -95 39 -188c78 97 142 199 142 324c0 33 0 60 -20 118c-99 -46 -161 -145 -161 -254z" fill="currentColor"/>
</g>
<g transform="translate(13.3337, 27.9565)">
<path transform="scale(0.0040, -0.0040)" d="M0 116c0 10 6 19 16 23l40 15v154c0 12 9 21 21 21s21 -9 21 -21v-138l79 30v154c0 12 9 21 21 21s21 -9 21 -21v-138l22 8c3 1 6 2 9 2c13 0 25 -11 25 -25v-54c0 -10 -6 -20 -16 -24l-40 -15v-155l22 9c3 1 6 1 9 1c13 0 25 -11 25 -25v-54c0 -10 -6 -19 -16 -23 l-40 -15v-154c0 -12 -9 -21 -21 -21s-21 9 -21 21v138l-79 -30v-154c0 -12 -9 -21 -21 -21s-21 9 -21 21v138l-22 -8c-3 -1 -6 -2 -9 -2c-13 0 -25 11 -25 25v54c0 10 6 20 16 24l40 15v155l-22 -9c-3 -1 -6 -1 -9 -1c-13 0 -25 11 -25 25v54zM177 92l-79 -30v-154l79 30 v154z" fill="currentColor"/>
</g>
<g transform="translate(15.6478, 29.9565)">
<path transform="scale(0.0040, -0.0040)" d="M173 259c-47 0 -50 -38 -50 -88v-29v-29c0 -50 3 -87 50 -87c56 0 58 50 58 116s-2 117 -58 117zM122 270c15 9 32 14 51 14c103 0 173 -46 173 -142s-70 -142 -173 -142c-113 0 -173 124 -173 250c0 129 75 250 194 250c71 0 138 -41 138 -106c0 -35 -29 -64 -64 -64 s-64 29 -64 64c0 23 38 25 38 48c0 21 -24 32 -48 32c-63 0 -73 -59 -73 -130c0 -24 1 -49 1 -74z" fill="currentColor"/>
</g>
<g transform="translate(15.5838, 31.9567)">
<path transform="scale(0.0040, -0.0040)" d="M263 292c24 29 43 61 43 99c0 52 -55 83 -112 83c-45 0 -71 -35 -71 -68c0 -20 10 -38 30 -50zM297 272c25 -14 81 -55 81 -126c0 -74 -67 -146 -192 -146c-96 0 -186 53 -186 141c0 49 36 87 72 122c-36 28 -55 65 -55 102c0 68 61 135 177 135c81 0 160 -37 160 -109 c0 -46 -26 -85 -57 -119zM105 242c-30 -29 -57 -60 -57 -101c0 -68 66 -115 138 -115c53 0 85 41 85 80c0 23 -11 47 -34 60z" fill="currentColor"/>
</g>
<g transform="translate(18.4903,35.8168)">
<text font-family="Songti SC" font-size="2.7" text-anchor="start" fill="currentColor">
<tspan font-size="2.7">何</tspan>
</text>
</g>
<g transform="translate(15.9965,35.8168)">
<text font-family="Songti SC" font-weight="bold" font-size="2.7" text-anchor="start" fill="currentColor">
<tspan font-size="2.7">1.</tspan>
</text>
</g>
<g transform="translate(20.8198, 29.4565)">
<path transform="scale(0.0040, -0.0040)" d="M0 0c0 30 25 55 55 55s55 -25 55 -55s-25 -55 -55 -55s-55 25 -55 55z" fill="currentColor"/>
</g>
<g transform="translate(20.3027, 29.9565)">
<rect x="-0.0757" y="-3.4966" width="0.1514" height="3.3252" ry="0.0500" fill="currentColor"/>
</g>
<g transform="translate(26.6735, 30.4565)">
<path transform="scale(0.0040, -0.0040)" d="M212 138c68 0 113 -38 113 -95c0 -90 -109 -181 -212 -181c-68 0 -113 38 -113 95c0 90 109 181 212 181z" fill="currentColor"/>
</g>
<g transform="translate(26.0862,35.8168)">
<text font-family="Songti SC" font-size="2.7" text-anchor="start" fill="currentColor">
<tspan font-size="2.7">等</tspan>
</text>
</g>
<g transform="translate(27.8987, 29.9565)">
<rect x="-0.0757" y="-3.1524" width="0.1514" height="3.4810" ry="0.0500" fill="currentColor"/>
</g>
<g transform="translate(103.8764, 26.4565)">
<polygon stroke-linejoin="round" stroke-linecap="round" stroke-width="0.1000" fill="currentColor" stroke="currentColor" points="10.9841 0.3100 10.9841 0.6900 0.0500 0.1900 0.0500 -0.1900"/>
</g>
<g transform="translate(110.4480, 27.5725)">
<polygon stroke-linejoin="round" stroke-linecap="round" stroke-width="0.1000" fill="currentColor" stroke="currentColor" points="1.1257 -0.1367 1.1257 0.2433 0.0500 0.1900 0.0500 -0.1900"/>
</g>
<g transform="translate(29.9602, 30.9565)">
<path transform="scale(0.0040, -0.0040)" d="M212 138c68 0 113 -38 113 -95c0 -90 -109 -181 -212 -181c-68 0 -113 38 -113 95c0 90 109 181 212 181z" fill="currentColor"/>
</g>
<g transform="translate(29.373,35.8168)">
<text font-family="Songti SC" font-size="2.7" text-anchor="start" fill="currentColor">
<tspan font-size="2.7">柔</tspan>
</text>
</g>
<g transform="translate(31.1854, 29.9565)">
<rect x="-0.0757" y="-3.0034" width="0.1514" height="3.8321" ry="0.0500" fill="currentColor"/>
</g>
<g transform="translate(35.2329, 30.9565)">
<path transform="scale(0.0040, -0.0040)" d="M212 138c68 0 113 -38 113 -95c0 -90 -109 -181 -212 -181c-68 0 -113 38 -113 95c0 90 109 181 212 181z" fill="currentColor"/>
</g>
<g transform="translate(34.6456,35.8168)">
<text font-family="Songti SC" font-size="2.7" text-anchor="start" fill="currentColor">
<tspan font-size="2.7">细</tspan>
</text>
</g>
<g transform="translate(36.4580, 29.9565)">
<rect x="-0.0757" y="-2.0000" width="0.1514" height="2.8287" ry="0.0500" fill="currentColor"/>
</g>
<g transform="translate(40.5055, 31.4565)">
<path transform="scale(0.0040, -0.0040)" d="M212 138c68 0 113 -38 113 -95c0 -90 -109 -181 -212 -181c-68 0 -113 38 -113 95c0 90 109 181 212 181z" fill="currentColor"/>
</g>
<g transform="translate(39.9182,35.8168)">
<text font-family="Songti SC" font-size="2.7" text-anchor="start" fill="currentColor">
<tspan font-size="2.7">慈</tspan>
</text>
</g>
<g transform="translate(41.7307, 29.9565)">
<rect x="-0.0757" y="-2.0000" width="0.1514" height="3.3287" ry="0.0500" fill="currentColor"/>
</g>
<g transform="translate(45.7781, 30.9565)">
<path transform="scale(0.0040, -0.0040)" d="M212 138c68 0 113 -38 113 -95c0 -90 -109 -181 -212 -181c-68 0 -113 38 -113 95c0 90 109 181 212 181z" fill="currentColor"/>
</g>
<g transform="translate(43.9532,35.8168)">
<text font-family="Songti SC" font-size="2.7" text-anchor="start" fill="currentColor">
<tspan font-size="2.7">爱，</tspan>
</text>
</g>
<g transform="translate(47.0033, 29.9565)">
<rect x="-0.0757" y="-2.0000" width="0.1514" height="2.8287" ry="0.0500" fill="currentColor"/>
</g>
<g transform="translate(87.8085, 27.9565)">
<polygon stroke-linejoin="round" stroke-linecap="round" stroke-width="0.1000" fill="currentColor" stroke="currentColor" points="10.6466 -0.1900 10.6466 0.1900 0.0500 0.1900 0.0500 -0.1900"/>
</g>
<g transform="translate(53.4134, 25.7067)">
<text font-family="Hiragino Sans GB" font-size="1.9604" text-anchor="start" fill="currentColor">
<tspan>C</tspan>
</text>
</g>
<g transform="translate(53.4134, 30.4565)">
<path transform="scale(0.0040, -0.0040)" d="M212 138c68 0 113 -38 113 -95c0 -90 -109 -181 -212 -181c-68 0 -113 38 -113 95c0 90 109 181 212 181z" fill="currentColor"/>
</g>
<g transform="translate(52.8262,35.8168)">
<text font-family="Songti SC" font-size="2.7" text-anchor="start" fill="currentColor">
<tspan font-size="2.7">耶</tspan>
</text>
</g>
<g transform="translate(54.6386, 29.9565)">
<rect x="-0.0757" y="-1.9941" width="0.1514" height="2.3227" ry="0.0500" fill="currentColor"/>
</g>
<g transform="translate(58.6861, 30.9565)">
<path transform="scale(0.0040, -0.0040)" d="M212 138c68 0 113 -38 113 -95c0 -90 -109 -181 -212 -181c-68 0 -113 38 -113 95c0 90 109 181 212 181z" fill="currentColor"/>
</g>
<g transform="translate(58.0988,35.8168)">
<text font-family="Songti SC" font-size="2.7" text-anchor="start" fill="currentColor">
<tspan font-size="2.7">稣</tspan>
</text>
</g>
<g transform="translate(59.9112, 29.9565)">
<rect x="-0.0757" y="-1.5811" width="0.1514" height="2.4098" ry="0.0500" fill="currentColor"/>
</g>
<g transform="translate(70.1308, 28.7747)">
<polygon stroke-linejoin="round" stroke-linecap="round" stroke-width="0.1000" fill="currentColor" stroke="currentColor" points="5.3740 0.1736 5.3740 0.5536 0.0500 0.1900 0.0500 -0.1900"/>
</g>
<g transform="translate(63.7087, 31.9565)">
<path transform="scale(0.0040, -0.0040)" d="M212 138c68 0 113 -38 113 -95c0 -90 -109 -181 -212 -181c-68 0 -113 38 -113 95c0 90 109 181 212 181z" fill="currentColor"/>
</g>
<g transform="translate(63.1214,35.8168)">
<text font-family="Songti SC" font-size="2.7" text-anchor="start" fill="currentColor">
<tspan font-size="2.7">在</tspan>
</text>
</g>
<g transform="translate(64.9339, 29.9565)">
<rect x="-0.0757" y="-1.1877" width="0.1514" height="3.0164" ry="0.0500" fill="currentColor"/>
</g>
<g transform="translate(68.9813, 25.7067)">
<text font-family="Hiragino Sans GB" font-size="1.9604" text-anchor="start" fill="currentColor">
<tspan>G</tspan>
</text>
</g>
<g transform="translate(68.9813, 31.9565)">
<path transform="scale(0.0040, -0.0040)" d="M212 138c68 0 113 -38 113 -95c0 -90 -109 -181 -212 -181c-68 0 -113 38 -113 95c0 90 109 181 212 181z" fill="currentColor"/>
</g>
<g transform="translate(68.3941,35.8168)">
<text font-family="Songti SC" font-size="2.7" text-anchor="start" fill="currentColor">
<tspan font-size="2.7">呼</tspan>
</text>
</g>
<g transform="translate(70.2065, 29.9565)">
<rect x="-0.0757" y="-1.1767" width="0.1514" height="3.0054" ry="0.0500" fill="currentColor"/>
</g>
<g transform="translate(74.2540, 32.4565)">
<path transform="scale(0.0040, -0.0040)" d="M212 138c68 0 113 -38 113 -95c0 -90 -109 -181 -212 -181c-68 0 -113 38 -113 95c0 90 109 181 212 181z" fill="currentColor"/>
</g>
<g transform="translate(72.429,35.8168)">
<text font-family="Songti SC" font-size="2.7" text-anchor="start" fill="currentColor">
<tspan font-size="2.7">召，</tspan>
</text>
</g>
<g transform="translate(75.4791, 29.9565)">
<rect x="-0.0757" y="-0.8233" width="0.1514" height="3.1520" ry="0.0500" fill="currentColor"/>
</g>
<g transform="translate(79.5266, 29.9565)">
<path transform="scale(0.0040, -0.0040)" d="M70 205c81 0 46 -96 90 -96c14 0 50 42 56 55c7 14 28 14 34 0l-119 -414c-9 -8 -21 -12 -32 -12s-23 4 -32 12l118 326c-33 -12 -66 -22 -101 -22c-47 0 -87 34 -87 79c0 40 33 72 73 72z" fill="currentColor"/>
</g>
<g transform="translate(121.2449, 29.9565)">
<path stroke-width="0.0931" stroke-linejoin="round" stroke-linecap="round" stroke="currentColor" fill="currentColor" d="M0.8504 1.6282C2.1365 2.5901 10.7322 2.5901 12.0182 1.6282L12.0182 1.6282C10.7322 2.4504 2.1365 2.4504 0.8504 1.6282z"/>
</g>
<g transform="translate(86.6590, 30.9565)">
<path transform="scale(0.0040, -0.0040)" d="M212 138c68 0 113 -38 113 -95c0 -90 -109 -181 -212 -181c-68 0 -113 38 -113 95c0 90 109 181 212 181z" fill="currentColor"/>
</g>
<g transform="translate(86.0717,35.8168)">
<text font-family="Songti SC" font-size="2.7" text-anchor="start" fill="currentColor">
<tspan font-size="2.7">呼</tspan>
</text>
</g>
<g transform="translate(87.8842, 29.9565)">
<rect x="-0.0757" y="-2.0000" width="0.1514" height="2.8287" ry="0.0500" fill="currentColor"/>
</g>
<g transform="translate(54.5629, 27.9565)">
<polygon stroke-linejoin="round" stroke-linecap="round" stroke-width="0.1000" fill="currentColor" stroke="currentColor" points="10.3966 0.6282 10.3966 1.0082 0.0500 0.1900 0.0500 -0.1900"/>
</g>
<g transform="translate(91.9316, 30.9565)">
<path transform="scale(0.0040, -0.0040)" d="M212 138c68 0 113 -38 113 -95c0 -90 -109 -181 -212 -181c-68 0 -113 38 -113 95c0 90 109 181 212 181z" fill="currentColor"/>
</g>
<g transform="translate(91.3444,35.8168)">
<text font-family="Songti SC" font-size="2.7" text-anchor="start" fill="currentColor">
<tspan font-size="2.7">召</tspan>
</text>
</g>
<g transform="translate(93.1568, 29.9565)">
<rect x="-0.0757" y="-2.0000" width="0.1514" height="2.8287" ry="0.0500" fill="currentColor"/>
</g>
<g transform="translate(97.2043, 30.9565)">
<path transform="scale(0.0040, -0.0040)" d="M212 138c68 0 113 -38 113 -95c0 -90 -109 -181 -212 -181c-68 0 -113 38 -113 95c0 90 109 181 212 181z" fill="currentColor"/>
</g>
<g transform="translate(95.3793,35.8168)">
<text font-family="Songti SC" font-size="2.7" text-anchor="start" fill="currentColor">
<tspan font-size="2.7">他，</tspan>
</text>
</g>
<g transform="translate(98.4294, 29.9565)">
<rect x="-0.0757" y="-2.0000" width="0.1514" height="2.8287" ry="0.0500" fill="currentColor"/>
</g>
<g transform="translate(102.7269, 25.7067)">
<text font-family="Hiragino Sans GB" font-size="1.9604" text-anchor="start" fill="currentColor">
<tspan>E</tspan>
</text>
</g>
<g transform="translate(104.0073, 25.7067)">
<text font-family="Hiragino Sans GB" font-size="1.9604" text-anchor="start" fill="currentColor">
<tspan>m</tspan>
</text>
</g>
<g transform="translate(102.7269, 29.9565)">
<path transform="scale(0.0040, -0.0040)" d="M212 138c68 0 113 -38 113 -95c0 -90 -109 -181 -212 -181c-68 0 -113 38 -113 95c0 90 109 181 212 181z" fill="currentColor"/>
</g>
<g transform="translate(102.1396,35.8168)">
<text font-family="Songti SC" font-size="2.7" text-anchor="start" fill="currentColor">
<tspan font-size="2.7">也</tspan>
</text>
</g>
<g transform="translate(104.4692, 29.4565)">
<path transform="scale(0.0040, -0.0040)" d="M0 0c0 30 25 55 55 55s55 -25 55 -55s-25 -55 -55 -55s-55 25 -55 55z" fill="currentColor"/>
</g>
<g transform="translate(103.9521, 29.9565)">
<rect x="-0.0757" y="-3.4966" width="0.1514" height="3.3252" ry="0.0500" fill="currentColor"/>
</g>
<g transform="translate(110.3229, 30.4565)">
<path transform="scale(0.0040, -0.0040)" d="M212 138c68 0 113 -38 113 -95c0 -90 -109 -181 -212 -181c-68 0 -113 38 -113 95c0 90 109 181 212 181z" fill="currentColor"/>
</g>
<g transform="translate(109.7356,35.8168)">
<text font-family="Songti SC" font-size="2.7" text-anchor="start" fill="currentColor">
<tspan font-size="2.7">呼</tspan>
</text>
</g>
<g transform="translate(111.5480, 29.9565)">
<rect x="-0.0757" y="-3.1524" width="0.1514" height="3.4810" ry="0.0500" fill="currentColor"/>
</g>
<g transform="translate(36.3823, 27.9565)">
<polygon stroke-linejoin="round" stroke-linecap="round" stroke-width="0.1000" fill="currentColor" stroke="currentColor" points="10.6466 -0.1900 10.6466 0.1900 0.0500 0.1900 0.0500 -0.1900"/>
</g>
<g transform="translate(113.6096, 30.9565)">
<path transform="scale(0.0040, -0.0040)" d="M212 138c68 0 113 -38 113 -95c0 -90 -109 -181 -212 -181c-68 0 -113 38 -113 95c0 90 109 181 212 181z" fill="currentColor"/>
</g>
<g transform="translate(113.0223,35.8168)">
<text font-family="Songti SC" font-size="2.7" text-anchor="start" fill="currentColor">
<tspan font-size="2.7">召</tspan>
</text>
</g>
<g transform="translate(114.8348, 29.9565)">
<rect x="-0.0757" y="-3.0034" width="0.1514" height="3.8321" ry="0.0500" fill="currentColor"/>
</g>
<g transform="translate(121.2449, 25.7067)">
<text font-family="Hiragino Sans GB" font-size="1.9604" text-anchor="start" fill="currentColor">
<tspan>A</tspan>
</text>
</g>
<g transform="translate(122.6960, 25.7067)">
<text font-family="Hiragino Sans GB" font-size="1.9604" text-anchor="start" fill="currentColor">
<tspan>m</tspan>
</text>
</g>
<g transform="translate(121.2449, 30.4565)">
<path transform="scale(0.0040, -0.0040)" d="M212 138c68 0 113 -38 113 -95c0 -90 -109 -181 -212 -181c-68 0 -113 38 -113 95c0 90 109 181 212 181z" fill="currentColor"/>
</g>
<g transform="translate(121.2449,35.8168)">
<text font-family="Songti SC" font-size="2.7" text-anchor="start" fill="currentColor">
<tspan font-size="2.7">你！</tspan>
</text>
</g>
<g transform="translate(122.9872, 30.4565)">
<path transform="scale(0.0040, -0.0040)" d="M0 0c0 30 25 55 55 55s55 -25 55 -55s-25 -55 -55 -55s-55 25 -55 55z" fill="currentColor"/>
</g>
<g transform="translate(122.4701, 29.9565)">
<rect x="-0.0757" y="-3.0000" width="0.1514" height="3.3287" ry="0.0500" fill="currentColor"/>
</g>
<g transform="translate(132.8127, 25.7067)">
<text font-family="Hiragino Sans GB" font-size="1.9604" text-anchor="start" fill="currentColor">
<tspan>D</tspan>
</text>
</g>
<g transform="translate(134.3065, 24.8158)">
<text font-family="Hiragino Sans GB" font-size="1.3856" text-anchor="start" fill="currentColor">
<tspan>7</tspan>
</text>
</g>
<g transform="translate(132.8127, 30.4565)">
<path transform="scale(0.0040, -0.0040)" d="M212 138c68 0 113 -38 113 -95c0 -90 -109 -181 -212 -181c-68 0 -113 38 -113 95c0 90 109 181 212 181z" fill="currentColor"/>
</g>
<g transform="translate(134.0379, 29.9565)">
<rect x="-0.0757" y="-3.0000" width="0.1514" height="3.3287" ry="0.0500" fill="currentColor"/>
</g>
<g transform="translate(20.2270, 26.4565)">
<polygon stroke-linejoin="round" stroke-linecap="round" stroke-width="0.1000" fill="currentColor" stroke="currentColor" points="10.9841 0.3100 10.9841 0.6900 0.0500 0.1900 0.0500 -0.1900"/>
</g>
<g transform="translate(26.7987, 27.5725)">
<polygon stroke-linejoin="round" stroke-linecap="round" stroke-width="0.1000" fill="currentColor" stroke="currentColor" points="1.1257 -0.1367 1.1257 0.2433 0.0500 0.1900 0.0500 -0.1900"/>
</g>
<g transform="translate(142.0571, 29.9565)">
<path transform="scale(0.0040, -0.0040)" d="M70 205c81 0 46 -96 90 -96c14 0 50 42 56 55c7 14 28 14 34 0l-119 -414c-9 -8 -21 -12 -32 -12s-23 4 -32 12l118 326c-33 -12 -66 -22 -101 -22c-47 0 -87 34 -87 79c0 40 33 72 73 72z" fill="currentColor"/>
</g>
<g transform="translate(58.8779,56.5302)">
<rect x="0.0000" y="-2.0000" width="0.2212" height="4.0000" ry="0.0000" fill="currentColor"/>
</g>
<g transform="translate(9.0337,58.5302)">
<line stroke-linejoin="round" stroke-linecap="round" stroke-width="0.1164" stroke="currentColor" x1="0.0582" y1="0" x2="138.1582" y2="0"/>
</g>
<g transform="translate(9.0337,57.5302)">
<line stroke-linejoin="round" stroke-linecap="round" stroke-width="0.1164" stroke="currentColor" x1="0.0582" y1="0" x2="138.1582" y2="0"/>
</g>
<g transform="translate(9.0337,56.5302)">
<line stroke-linejoin="round" stroke-linecap="round" stroke-width="0.1164" stroke="currentColor" x1="0.0582" y1="0" x2="138.1582" y2="0"/>
</g>
<g transform="translate(9.0337,55.5302)">
<line stroke-linejoin="round" stroke-linecap="round" stroke-width="0.1164" stroke="currentColor" x1="0.0582" y1="0" x2="138.1582" y2="0"/>
</g>
<g transform="translate(9.0337,54.5302)">
<line stroke-linejoin="round" stroke-linecap="round" stroke-width="0.1164" stroke="currentColor" x1="0.0582" y1="0" x2="138.1582" y2="0"/>
</g>
<g transform="translate(147.0289,56.5302)">
<rect x="0.0000" y="-2.0000" width="0.2212" height="4.0000" ry="0.0000" fill="currentColor"/>
</g>
<g transform="translate(102.3579,56.5302)">
<rect x="0.0000" y="-2.0000" width="0.2212" height="4.0000" ry="0.0000" fill="currentColor"/>
</g>
<g transform="translate(9.8338,57.5302)">
<path transform="scale(0.0040, -0.0040)" d="M647 2c0 -114 -75 -214 -180 -248c3 -33 4 -66 4 -99c0 -21 0 -41 -1 -62c-7 -122 -92 -229 -211 -229c-108 0 -196 88 -196 197c0 58 54 103 113 103c54 0 95 -47 95 -103c0 -52 -43 -95 -95 -95c-9 0 -18 1 -27 4c25 -37 66 -61 113 -61c93 0 156 91 162 191 c1 19 2 38 2 57c0 29 -1 58 -3 87c-5 -1 -44 -8 -88 -8c-194 0 -333 181 -333 376c0 177 129 308 244 443c-34 103 -55 171 -55 347c0 114 54 221 147 288c8 6 18 5 25 -1c68 -79 135 -242 135 -356c0 -142 -84 -255 -176 -364c21 -68 40 -136 57 -205c1 0 5 1 10 1 c157 0 258 -129 258 -263zM463 -201c64 24 110 88 110 161c0 88 -64 175 -167 188c28 -133 49 -269 57 -349zM77 25c0 -144 141 -243 261 -243c1 0 46 -1 81 5c-7 66 -27 208 -60 362c-79 -8 -124 -60 -124 -118c0 -43 25 -88 80 -120c5 -5 7 -11 7 -17 c0 -12 -10 -23 -23 -23c-16 0 -128 62 -128 188c0 89 60 177 163 200c-14 57 -30 113 -47 169c-105 -122 -210 -243 -210 -403zM242 784c0 -39 10 -95 39 -188c78 97 142 199 142 324c0 33 0 60 -20 118c-99 -46 -161 -145 -161 -254z" fill="currentColor"/>
</g>
<g transform="translate(13.3337,54.5302)">
<path transform="scale(0.0040, -0.0040)" d="M0 116c0 10 6 19 16 23l40 15v154c0 12 9 21 21 21s21 -9 21 -21v-138l79 30v154c0 12 9 21 21 21s21 -9 21 -21v-138l22 8c3 1 6 2 9 2c13 0 25 -11 25 -25v-54c0 -10 -6 -20 -16 -24l-40 -15v-155l22 9c3 1 6 1 9 1c13 0 25 -11 25 -25v-54c0 -10 -6 -19 -16 -23 l-40 -15v-154c0 -12 -9 -21 -21 -21s-21 9 -21 21v138l-79 -30v-154c0 -12 -9 -21 -21 -21s-21 9 -21 21v138l-22 -8c-3 -1 -6 -2 -9 -2c-13 0 -25 11 -25 25v54c0 10 6 20 16 24l40 15v155l-22 -9c-3 -1 -6 -1 -9 -1c-13 0 -25 11 -25 25v54zM177 92l-79 -30v-154l79 30 v154z" fill="currentColor"/>
</g>
<g transform="translate(8.2228,53.5571)">
<text font-family="Songti SC" font-size="1.7463" text-anchor="start" fill="currentColor">
<tspan>5</tspan>
</text>
</g>
<g transform="translate(16.9338,52.2805)">
<text font-family="Hiragino Sans GB" font-size="1.9604" text-anchor="start" fill="currentColor">
<tspan>G</tspan>
</text>
</g>
<g transform="translate(16.9338,56.5302)">
<path transform="scale(0.0040, -0.0040)" d="M212 138c68 0 113 -38 113 -95c0 -90 -109 -181 -212 -181c-68 0 -113 38 -113 95c0 90 109 181 212 181z" fill="currentColor"/>
</g>
<g transform="translate(16.3465,62.4696)">
<text font-family="Songti SC" font-size="2.7" text-anchor="start" fill="currentColor">
<tspan font-size="2.7">祂</tspan>
</text>
</g>
<g transform="translate(18.676,56.0302)">
<path transform="scale(0.0040, -0.0040)" d="M0 0c0 30 25 55 55 55s55 -25 55 -55s-25 -55 -55 -55s-55 25 -55 55z" fill="currentColor"/>
</g>
<g transform="translate(18.1589,56.5302)">
<rect x="-0.0757" y="-3.4974" width="0.1514" height="3.3260" ry="0.0500" fill="currentColor"/>
</g>
<g transform="translate(27.0742,57.0302)">
<path transform="scale(0.0040, -0.0040)" d="M212 138c68 0 113 -38 113 -95c0 -90 -109 -181 -212 -181c-68 0 -113 38 -113 95c0 90 109 181 212 181z" fill="currentColor"/>
</g>
<g transform="translate(26.487,62.4696)">
<text font-family="Songti SC" font-size="2.7" text-anchor="start" fill="currentColor">
<tspan font-size="2.7">在</tspan>
</text>
</g>
<g transform="translate(28.2994,56.5302)">
<rect x="-0.0757" y="-3.1448" width="0.1514" height="3.4735" ry="0.0500" fill="currentColor"/>
</g>
<g transform="translate(31.1637,57.5302)">
<path transform="scale(0.0040, -0.0040)" d="M212 138c68 0 113 -38 113 -95c0 -90 -109 -181 -212 -181c-68 0 -113 38 -113 95c0 90 109 181 212 181z" fill="currentColor"/>
</g>
<g transform="translate(30.5764,62.4696)">
<text font-family="Songti SC" font-size="2.7" text-anchor="start" fill="currentColor">
<tspan font-size="2.7">天</tspan>
</text>
</g>
<g transform="translate(32.3888,56.5302)">
<rect x="-0.0757" y="-3.0026" width="0.1514" height="3.8313" ry="0.0500" fill="currentColor"/>
</g>
<g transform="translate(38.0417,57.5302)">
<path transform="scale(0.0040, -0.0040)" d="M212 138c68 0 113 -38 113 -95c0 -90 -109 -181 -212 -181c-68 0 -113 38 -113 95c0 90 109 181 212 181z" fill="currentColor"/>
</g>
<g transform="translate(37.4544,62.4696)">
<text font-family="Songti SC" font-size="2.7" text-anchor="start" fill="currentColor">
<tspan font-size="2.7">上</tspan>
</text>
</g>
<g transform="translate(39.2669,56.5302)">
<rect x="-0.0757" y="-2.0000" width="0.1514" height="2.8287" ry="0.0500" fill="currentColor"/>
</g>
<g transform="translate(106.27,54.712)">
<polygon stroke-linejoin="round" stroke-linecap="round" stroke-width="0.1000" fill="currentColor" stroke="currentColor" points="14.1074 -1.1900 14.1074 -0.8100 0.0500 0.1900 0.0500 -0.1900"/>
</g>
<g transform="translate(44.9197,58.0302)">
<path transform="scale(0.0040, -0.0040)" d="M212 138c68 0 113 -38 113 -95c0 -90 -109 -181 -212 -181c-68 0 -113 38 -113 95c0 90 109 181 212 181z" fill="currentColor"/>
</g>
<g transform="translate(44.3325,62.4696)">
<text font-family="Songti SC" font-size="2.7" text-anchor="start" fill="currentColor">
<tspan font-size="2.7">等</tspan>
</text>
</g>
<g transform="translate(46.1449,56.5302)">
<rect x="-0.0757" y="-2.0000" width="0.1514" height="3.3287" ry="0.0500" fill="currentColor"/>
</g>
<g transform="translate(51.7978,57.5302)">
<path transform="scale(0.0040, -0.0040)" d="M212 138c68 0 113 -38 113 -95c0 -90 -109 -181 -212 -181c-68 0 -113 38 -113 95c0 90 109 181 212 181z" fill="currentColor"/>
</g>
<g transform="translate(49.9728,62.4696)">
<text font-family="Songti SC" font-size="2.7" text-anchor="start" fill="currentColor">
<tspan font-size="2.7">待，</tspan>
</text>
</g>
<g transform="translate(53.0229,56.5302)">
<rect x="-0.0757" y="-2.0000" width="0.1514" height="2.8287" ry="0.0500" fill="currentColor"/>
</g>
<g transform="translate(83.1741,55.3485)">
<polygon stroke-linejoin="round" stroke-linecap="round" stroke-width="0.1000" fill="currentColor" stroke="currentColor" points="6.9794 0.1736 6.9794 0.5536 0.0500 0.1900 0.0500 -0.1900"/>
</g>
<g transform="translate(61.6405,52.2805)">
<text font-family="Hiragino Sans GB" font-size="1.9604" text-anchor="start" fill="currentColor">
<tspan>C</tspan>
</text>
</g>
<g transform="translate(61.6405,57.0302)">
<path transform="scale(0.0040, -0.0040)" d="M212 138c68 0 113 -38 113 -95c0 -90 -109 -181 -212 -181c-68 0 -113 38 -113 95c0 90 109 181 212 181z" fill="currentColor"/>
</g>
<g transform="translate(61.0532,62.4696)">
<text font-family="Songti SC" font-size="2.7" text-anchor="start" fill="currentColor">
<tspan font-size="2.7">也</tspan>
</text>
</g>
<g transform="translate(62.8657,56.5302)">
<rect x="-0.0757" y="-1.9955" width="0.1514" height="2.3241" ry="0.0500" fill="currentColor"/>
</g>
<g transform="translate(68.5185,57.5302)">
<path transform="scale(0.0040, -0.0040)" d="M212 138c68 0 113 -38 113 -95c0 -90 -109 -181 -212 -181c-68 0 -113 38 -113 95c0 90 109 181 212 181z" fill="currentColor"/>
</g>
<g transform="translate(67.9313,62.4696)">
<text font-family="Songti SC" font-size="2.7" text-anchor="start" fill="currentColor">
<tspan font-size="2.7">来</tspan>
</text>
</g>
<g transform="translate(69.7437,56.5302)">
<rect x="-0.0757" y="-1.5834" width="0.1514" height="2.4121" ry="0.0500" fill="currentColor"/>
</g>
<g transform="translate(75.1466,58.5302)">
<path transform="scale(0.0040, -0.0040)" d="M212 138c68 0 113 -38 113 -95c0 -90 -109 -181 -212 -181c-68 0 -113 38 -113 95c0 90 109 181 212 181z" fill="currentColor"/>
</g>
<g transform="translate(74.5593,62.4696)">
<text font-family="Songti SC" font-size="2.7" text-anchor="start" fill="currentColor">
<tspan font-size="2.7">地</tspan>
</text>
</g>
<g transform="translate(76.3717,56.5302)">
<rect x="-0.0757" y="-1.1863" width="0.1514" height="3.0150" ry="0.0500" fill="currentColor"/>
</g>
<g transform="translate(82.0246,52.2805)">
<text font-family="Hiragino Sans GB" font-size="1.9604" text-anchor="start" fill="currentColor">
<tspan>G</tspan>
</text>
</g>
<g transform="translate(82.0246,58.5302)">
<path transform="scale(0.0040, -0.0040)" d="M212 138c68 0 113 -38 113 -95c0 -90 -109 -181 -212 -181c-68 0 -113 38 -113 95c0 90 109 181 212 181z" fill="currentColor"/>
</g>
<g transform="translate(81.4373,62.4696)">
<text font-family="Songti SC" font-size="2.7" text-anchor="start" fill="currentColor">
<tspan font-size="2.7">寻</tspan>
</text>
</g>
<g transform="translate(83.2498,56.5302)">
<rect x="-0.0757" y="-1.1779" width="0.1514" height="3.0065" ry="0.0500" fill="currentColor"/>
</g>
<g transform="translate(127.1541,53.3485)">
<polygon stroke-linejoin="round" stroke-linecap="round" stroke-width="0.1000" fill="currentColor" stroke="currentColor" points="14.0813 0.1736 14.0813 0.5536 0.0500 0.1900 0.0500 -0.1900"/>
</g>
<g transform="translate(136.0203,54.3948)">
<polygon stroke-linejoin="round" stroke-linecap="round" stroke-width="0.1000" fill="currentColor" stroke="currentColor" points="1.1257 -0.1598 1.1257 0.2202 0.0500 0.1900 0.0500 -0.1900"/>
</g>
<g transform="translate(88.9026,59.0302)">
<path transform="scale(0.0040, -0.0040)" d="M212 138c68 0 113 -38 113 -95c0 -90 -109 -181 -212 -181c-68 0 -113 38 -113 95c0 90 109 181 212 181z" fill="currentColor"/>
</g>
<g transform="translate(87.0777,62.4696)">
<text font-family="Songti SC" font-size="2.7" text-anchor="start" fill="currentColor">
<tspan font-size="2.7">找，</tspan>
</text>
</g>
<g transform="translate(90.1278,56.5302)">
<rect x="-0.0757" y="-0.8221" width="0.1514" height="3.1508" ry="0.0500" fill="currentColor"/>
</g>
<g transform="translate(62.79,54.5302)">
<polygon stroke-linejoin="round" stroke-linecap="round" stroke-width="0.1000" fill="currentColor" stroke="currentColor" points="13.6074 0.6282 13.6074 1.0082 0.0500 0.1900 0.0500 -0.1900"/>
</g>
<g transform="translate(95.7807,56.5302)">
<path transform="scale(0.0040, -0.0040)" d="M70 205c81 0 46 -96 90 -96c14 0 50 42 56 55c7 14 28 14 34 0l-119 -414c-9 -8 -21 -12 -32 -12s-23 4 -32 12l118 326c-33 -12 -66 -22 -101 -22c-47 0 -87 34 -87 79c0 40 33 72 73 72z" fill="currentColor"/>
</g>
<g transform="translate(105.1205,52.2805)">
<text font-family="Hiragino Sans GB" font-size="1.9604" text-anchor="start" fill="currentColor">
<tspan>C</tspan>
</text>
</g>
<g transform="translate(105.1205,57.5302)">
<path transform="scale(0.0040, -0.0040)" d="M212 138c68 0 113 -38 113 -95c0 -90 -109 -181 -212 -181c-68 0 -113 38 -113 95c0 90 109 181 212 181z" fill="currentColor"/>
</g>
<g transform="translate(104.5333,62.4696)">
<text font-family="Songti SC" font-size="2.7" text-anchor="start" fill="currentColor">
<tspan font-size="2.7">寻</tspan>
</text>
</g>
<g transform="translate(106.3457,56.5302)">
<rect x="-0.0757" y="-1.8236" width="0.1514" height="2.6522" ry="0.0500" fill="currentColor"/>
</g>
<g transform="translate(111.9986,57.5302)">
<path transform="scale(0.0040, -0.0040)" d="M212 138c68 0 113 -38 113 -95c0 -90 -109 -181 -212 -181c-68 0 -113 38 -113 95c0 90 109 181 212 181z" fill="currentColor"/>
</g>
<g transform="translate(111.4113,62.4696)">
<text font-family="Songti SC" font-size="2.7" text-anchor="start" fill="currentColor">
<tspan font-size="2.7">找</tspan>
</text>
</g>
<g transform="translate(113.2237,56.5302)">
<rect x="-0.0757" y="-2.3094" width="0.1514" height="3.1381" ry="0.0500" fill="currentColor"/>
</g>
<g transform="translate(39.1912,54.5302)">
<polygon stroke-linejoin="round" stroke-linecap="round" stroke-width="0.1000" fill="currentColor" stroke="currentColor" points="13.8574 -0.1900 13.8574 0.1900 0.0500 0.1900 0.0500 -0.1900"/>
</g>
<g transform="translate(119.1266,56.0302)">
<path transform="scale(0.0040, -0.0040)" d="M212 138c68 0 113 -38 113 -95c0 -90 -109 -181 -212 -181c-68 0 -113 38 -113 95c0 90 109 181 212 181z" fill="currentColor"/>
</g>
<g transform="translate(117.3016,62.4696)">
<text font-family="Songti SC" font-size="2.7" text-anchor="start" fill="currentColor">
<tspan font-size="2.7">他，</tspan>
</text>
</g>
<g transform="translate(120.3518,56.5302)">
<rect x="-0.0757" y="-2.8129" width="0.1514" height="2.1415" ry="0.0500" fill="currentColor"/>
</g>
<g transform="translate(126.0046,52.2805)">
<text font-family="Hiragino Sans GB" font-size="1.9604" text-anchor="start" fill="currentColor">
<tspan>D</tspan>
</text>
</g>
<g transform="translate(127.4984,51.3896)">
<text font-family="Hiragino Sans GB" font-size="1.3856" text-anchor="start" fill="currentColor">
<tspan>7</tspan>
</text>
</g>
<g transform="translate(126.0046,56.5302)">
<path transform="scale(0.0040, -0.0040)" d="M212 138c68 0 113 -38 113 -95c0 -90 -109 -181 -212 -181c-68 0 -113 38 -113 95c0 90 109 181 212 181z" fill="currentColor"/>
</g>
<g transform="translate(125.4174,62.4696)">
<text font-family="Songti SC" font-size="2.7" text-anchor="start" fill="currentColor">
<tspan font-size="2.7">也</tspan>
</text>
</g>
<g transform="translate(127.7469,56.0302)">
<path transform="scale(0.0040, -0.0040)" d="M0 0c0 30 25 55 55 55s55 -25 55 -55s-25 -55 -55 -55s-55 25 -55 55z" fill="currentColor"/>
</g>
<g transform="translate(127.2298,56.5302)">
<rect x="-0.0757" y="-3.1798" width="0.1514" height="3.0085" ry="0.0500" fill="currentColor"/>
</g>
<g transform="translate(135.8951,57.5302)">
<path transform="scale(0.0040, -0.0040)" d="M212 138c68 0 113 -38 113 -95c0 -90 -109 -181 -212 -181c-68 0 -113 38 -113 95c0 90 109 181 212 181z" fill="currentColor"/>
</g>
<g transform="translate(135.3078,62.4696)">
<text font-family="Songti SC" font-size="2.7" text-anchor="start" fill="currentColor">
<tspan font-size="2.7">寻</tspan>
</text>
</g>
<g transform="translate(137.1203,56.5302)">
<rect x="-0.0757" y="-2.9254" width="0.1514" height="3.7540" ry="0.0500" fill="currentColor"/>
</g>
<g transform="translate(139.9845,57.0302)">
<path transform="scale(0.0040, -0.0040)" d="M212 138c68 0 113 -38 113 -95c0 -90 -109 -181 -212 -181c-68 0 -113 38 -113 95c0 90 109 181 212 181z" fill="currentColor"/>
</g>
<g transform="translate(139.3973,62.4696)">
<text font-family="Songti SC" font-size="2.7" text-anchor="start" fill="currentColor">
<tspan font-size="2.7">找</tspan>
</text>
</g>
<g transform="translate(141.2097,56.5302)">
<rect x="-0.0757" y="-2.8202" width="0.1514" height="3.1488" ry="0.0500" fill="currentColor"/>
</g>
<g transform="translate(18.0832,53.0302)">
<polygon stroke-linejoin="round" stroke-linecap="round" stroke-width="0.1000" fill="currentColor" stroke="currentColor" points="14.3313 0.3100 14.3313 0.6900 0.0500 0.1900 0.0500 -0.1900"/>
</g>
<g transform="translate(27.1994,54.1654)">
<polygon stroke-linejoin="round" stroke-linecap="round" stroke-width="0.1000" fill="currentColor" stroke="currentColor" points="1.1257 -0.1491 1.1257 0.2309 0.0500 0.1900 0.0500 -0.1900"/>
</g>
<g transform="translate(39.2897,84.2966)">
<rect x="0.0000" y="-2.0000" width="0.2212" height="4.0000" ry="0.0000" fill="currentColor"/>
</g>
<g transform="translate(9.0337,86.2966)">
<line stroke-linejoin="round" stroke-linecap="round" stroke-width="0.1164" stroke="currentColor" x1="0.0582" y1="0" x2="138.1582" y2="0"/>
</g>
<g transform="translate(9.0337,85.2966)">
<line stroke-linejoin="round" stroke-linecap="round" stroke-width="0.1164" stroke="currentColor" x1="0.0582" y1="0" x2="138.1582" y2="0"/>
</g>
<g transform="translate(9.0337,84.2966)">
<line stroke-linejoin="round" stroke-linecap="round" stroke-width="0.1164" stroke="currentColor" x1="0.0582" y1="0" x2="138.1582" y2="0"/>
</g>
<g transform="translate(9.0337,83.2966)">
<line stroke-linejoin="round" stroke-linecap="round" stroke-width="0.1164" stroke="currentColor" x1="0.0582" y1="0" x2="138.1582" y2="0"/>
</g>
<g transform="translate(9.0337,82.2966)">
<line stroke-linejoin="round" stroke-linecap="round" stroke-width="0.1164" stroke="currentColor" x1="0.0582" y1="0" x2="138.1582" y2="0"/>
</g>
<g transform="translate(147.0289,84.2966)">
<rect x="0.0000" y="-2.0000" width="0.2212" height="4.0000" ry="0.0000" fill="currentColor"/>
</g>
<g transform="translate(119.433,84.2966)">
<rect x="0.0000" y="-2.0000" width="0.2212" height="4.0000" ry="0.0000" fill="currentColor"/>
</g>
<g transform="translate(88.1875,84.2966)">
<rect x="0.0000" y="-2.0000" width="0.2212" height="4.0000" ry="0.0000" fill="currentColor"/>
</g>
<g transform="translate(63.7887,84.2966)">
<rect x="0.0000" y="-2.0000" width="0.2212" height="4.0000" ry="0.0000" fill="currentColor"/>
</g>
<g transform="translate(9.8338,85.2966)">
<path transform="scale(0.0040, -0.0040)" d="M647 2c0 -114 -75 -214 -180 -248c3 -33 4 -66 4 -99c0 -21 0 -41 -1 -62c-7 -122 -92 -229 -211 -229c-108 0 -196 88 -196 197c0 58 54 103 113 103c54 0 95 -47 95 -103c0 -52 -43 -95 -95 -95c-9 0 -18 1 -27 4c25 -37 66 -61 113 -61c93 0 156 91 162 191 c1 19 2 38 2 57c0 29 -1 58 -3 87c-5 -1 -44 -8 -88 -8c-194 0 -333 181 -333 376c0 177 129 308 244 443c-34 103 -55 171 -55 347c0 114 54 221 147 288c8 6 18 5 25 -1c68 -79 135 -242 135 -356c0 -142 -84 -255 -176 -364c21 -68 40 -136 57 -205c1 0 5 1 10 1 c157 0 258 -129 258 -263zM463 -201c64 24 110 88 110 161c0 88 -64 175 -167 188c28 -133 49 -269 57 -349zM77 25c0 -144 141 -243 261 -243c1 0 46 -1 81 5c-7 66 -27 208 -60 362c-79 -8 -124 -60 -124 -118c0 -43 25 -88 80 -120c5 -5 7 -11 7 -17 c0 -12 -10 -23 -23 -23c-16 0 -128 62 -128 188c0 89 60 177 163 200c-14 57 -30 113 -47 169c-105 -122 -210 -243 -210 -403zM242 784c0 -39 10 -95 39 -188c78 97 142 199 142 324c0 33 0 60 -20 118c-99 -46 -161 -145 -161 -254z" fill="currentColor"/>
</g>
<g transform="translate(13.3337,82.2966)">
<path transform="scale(0.0040, -0.0040)" d="M0 116c0 10 6 19 16 23l40 15v154c0 12 9 21 21 21s21 -9 21 -21v-138l79 30v154c0 12 9 21 21 21s21 -9 21 -21v-138l22 8c3 1 6 2 9 2c13 0 25 -11 25 -25v-54c0 -10 -6 -20 -16 -24l-40 -15v-155l22 9c3 1 6 1 9 1c13 0 25 -11 25 -25v-54c0 -10 -6 -19 -16 -23 l-40 -15v-154c0 -12 -9 -21 -21 -21s-21 9 -21 21v138l-79 -30v-154c0 -12 -9 -21 -21 -21s-21 9 -21 21v138l-22 -8c-3 -1 -6 -2 -9 -2c-13 0 -25 11 -25 25v54c0 10 6 20 16 24l40 15v155l-22 -9c-3 -1 -6 -1 -9 -1c-13 0 -25 11 -25 25v54zM177 92l-79 -30v-154l79 30 v154z" fill="currentColor"/>
</g>
<g transform="translate(8.2228,81.32339999999999)">
<text font-family="Songti SC" font-size="1.7463" text-anchor="start" fill="currentColor">
<tspan>8</tspan>
</text>
</g>
<g transform="translate(121.6439,84.2966)">
<path stroke-width="0.0931" stroke-linejoin="round" stroke-linecap="round" stroke="currentColor" fill="currentColor" d="M0.6720 -2.2027C2.8023 -3.6959 11.7662 -3.2499 13.7379 -1.5527L13.7379 -1.5527C11.7593 -3.1104 2.7954 -3.5563 0.6720 -2.2027z"/>
</g>
<g transform="translate(16.9338,79.3441)">
<text font-family="Hiragino Sans GB" font-size="1.9604" text-anchor="start" fill="currentColor">
<tspan>G</tspan>
</text>
</g>
<g transform="translate(16.9338,85.2966)">
<path transform="scale(0.0040, -0.0040)" d="M212 138c68 0 113 -38 113 -95c0 -90 -109 -181 -212 -181c-68 0 -113 38 -113 95c0 90 109 181 212 181z" fill="currentColor"/>
</g>
<g transform="translate(16.9338,90.568)">
<text font-family="Songti SC" font-size="2.7" text-anchor="start" fill="currentColor">
<tspan font-size="2.7">你！</tspan>
</text>
</g>
<g transform="translate(18.676,84.7966)">
<path transform="scale(0.0040, -0.0040)" d="M0 0c0 30 25 55 55 55s55 -25 55 -55s-25 -55 -55 -55s-55 25 -55 55z" fill="currentColor"/>
</g>
<g transform="translate(18.1589,84.2966)">
<rect x="-0.0757" y="-2.5000" width="0.1514" height="3.3287" ry="0.0500" fill="currentColor"/>
</g>
<g transform="translate(26.8669,85.2966)">
<path transform="scale(0.0040, -0.0040)" d="M212 138c68 0 113 -38 113 -95c0 -90 -109 -181 -212 -181c-68 0 -113 38 -113 95c0 90 109 181 212 181z" fill="currentColor"/>
</g>
<g transform="translate(28.092,84.2966)">
<rect x="-0.0757" y="-2.5000" width="0.1514" height="3.3287" ry="0.0500" fill="currentColor"/>
</g>
<g transform="translate(108.2173,87.47829999999999)">
<polygon stroke-linejoin="round" stroke-linecap="round" stroke-width="0.1000" fill="currentColor" stroke="currentColor" points="6.8431 -0.5536 6.8431 -0.1736 0.0500 0.1900 0.0500 -0.1900"/>
</g>
<g transform="translate(34.5965,86.7966)">
<path transform="scale(0.0040, -0.0040)" d="M212 138c68 0 113 -38 113 -95c0 -90 -109 -181 -212 -181c-68 0 -113 38 -113 95c0 90 109 181 212 181z" fill="currentColor"/>
</g>
<g transform="translate(34.5965,81.7783)">
<rect x="-0.6164" y="-0.1164" width="3.4522" height="0.1164" ry="0.0000" fill="currentColor"/>
</g>
<g transform="translate(34.5965,78.65559999999999)">
<rect x="-0.6164" y="-0.1164" width="3.4522" height="0.1164" ry="0.0000" fill="currentColor"/>
</g>
<g transform="translate(33.9801,80.8121)">
<rect x="0" y="-2.1565" width="0.1164" height="3.0063" ry="0.0000" fill="currentColor"/>
</g>
<g transform="translate(37.3158,80.8121)">
<rect x="0" y="-2.1565" width="0.1164" height="3.0063" ry="0.0000" fill="currentColor"/>
</g>
<g transform="translate(34.5965,80.8121)">
<text font-family="Songti SC" font-weight="bold" font-size="2.2001" text-anchor="start" fill="currentColor">
<tspan>副</tspan>
</text>
</g>
<g transform="translate(34.0093,90.568)">
<text font-family="Songti SC" font-size="2.7" text-anchor="start" fill="currentColor">
<tspan font-size="2.7">来</tspan>
</text>
</g>
<g transform="translate(35.8217,84.2966)">
<rect x="-0.0757" y="-1.0000" width="0.1514" height="3.3287" ry="0.0500" fill="currentColor"/>
</g>
<g transform="translate(35.8974,83.3466)">
<path transform="scale(0.0040, -0.0040)" d="M0 -250h-19v250h19c0 -197 207 -334 207 -531c0 -71 -15 -140 -41 -206c-5 -9 -14 -13 -22 -13c-14 0 -29 12 -26 30c26 60 43 124 43 189c0 102 -92 206 -161 281z" fill="currentColor"/>
</g>
<g transform="translate(41.2132,79.3441)">
<text font-family="Hiragino Sans GB" font-size="1.9604" text-anchor="start" fill="currentColor">
<tspan>D</tspan>
</text>
</g>
<g transform="translate(41.2132,84.7966)">
<path transform="scale(0.0040, -0.0040)" d="M212 138c68 0 113 -38 113 -95c0 -90 -109 -181 -212 -181c-68 0 -113 38 -113 95c0 90 109 181 212 181z" fill="currentColor"/>
</g>
<g transform="translate(41.2132,90.568)">
<text font-family="Songti SC" font-size="2.7" text-anchor="start" fill="currentColor">
<tspan font-size="2.7">家！</tspan>
</text>
</g>
<g transform="translate(42.9555,84.7966)">
<path transform="scale(0.0040, -0.0040)" d="M0 0c0 30 25 55 55 55s55 -25 55 -55s-25 -55 -55 -55s-55 25 -55 55z" fill="currentColor"/>
</g>
<g transform="translate(42.4384,84.2966)">
<rect x="-0.0757" y="-3.0000" width="0.1514" height="3.3287" ry="0.0500" fill="currentColor"/>
</g>
<g transform="translate(51.1463,84.7966)">
<path transform="scale(0.0040, -0.0040)" d="M212 138c68 0 113 -38 113 -95c0 -90 -109 -181 -212 -181c-68 0 -113 38 -113 95c0 90 109 181 212 181z" fill="currentColor"/>
</g>
<g transform="translate(52.3715,84.2966)">
<rect x="-0.0757" y="-3.0000" width="0.1514" height="3.3287" ry="0.0500" fill="currentColor"/>
</g>
<g transform="translate(59.1485,84.2966)">
<path transform="scale(0.0040, -0.0040)" d="M212 138c68 0 113 -38 113 -95c0 -90 -109 -181 -212 -181c-68 0 -113 38 -113 95c0 90 109 181 212 181z" fill="currentColor"/>
</g>
<g transform="translate(58.5612,90.568)">
<text font-family="Songti SC" font-size="2.7" text-anchor="start" fill="currentColor">
<tspan font-size="2.7">来</tspan>
</text>
</g>
<g transform="translate(59.2241,84.2966)">
<rect x="-0.0757" y="0.1713" width="0.1514" height="3.2037" ry="0.0500" fill="currentColor"/>
</g>
<g transform="translate(59.2998,87.6216)">
<path transform="scale(0.0040, -0.0040)" d="M0 0h-19v250h19v-250zM0 0v250c95 59 220 149 220 259c0 56 -16 111 -41 161c-3 18 12 30 26 30c8 0 17 -4 22 -13c25 -56 40 -116 40 -178c0 -203 -267 -306 -267 -509z" fill="currentColor"/>
</g>
<g transform="translate(91.2605,81.47829999999999)">
<polygon stroke-linejoin="round" stroke-linecap="round" stroke-width="0.1000" fill="currentColor" stroke="currentColor" points="9.3819 -0.1900 9.3819 0.1900 0.0500 0.1900 0.0500 -0.1900"/>
</g>
<g transform="translate(65.7122,79.3441)">
<text font-family="Hiragino Sans GB" font-size="1.9604" text-anchor="start" fill="currentColor">
<tspan>E</tspan>
</text>
</g>
<g transform="translate(66.9926,79.3441)">
<text font-family="Hiragino Sans GB" font-size="1.9604" text-anchor="start" fill="currentColor">
<tspan>m</tspan>
</text>
</g>
<g transform="translate(65.7122,85.2966)">
<path transform="scale(0.0040, -0.0040)" d="M212 138c68 0 113 -38 113 -95c0 -90 -109 -181 -212 -181c-68 0 -113 38 -113 95c0 90 109 181 212 181z" fill="currentColor"/>
</g>
<g transform="translate(65.7122,90.568)">
<text font-family="Songti SC" font-size="2.7" text-anchor="start" fill="currentColor">
<tspan font-size="2.7">家！</tspan>
</text>
</g>
<g transform="translate(66.9374,84.2966)">
<rect x="-0.0757" y="-2.5000" width="0.1514" height="3.3287" ry="0.0500" fill="currentColor"/>
</g>
<g transform="translate(65.7122,84.2966)">
<path stroke-width="0.0931" stroke-linejoin="round" stroke-linecap="round" stroke="currentColor" fill="currentColor" d="M1.6008 -2.7027C3.5447 -4.2507 11.3794 -4.2507 13.3233 -2.7027L13.3233 -2.7027C11.3794 -4.1110 3.5447 -4.1110 1.6008 -2.7027z"/>
</g>
<g transform="translate(73.6919,84.7966)">
<path transform="scale(0.0040, -0.0040)" d="M212 138c68 0 113 -38 113 -95c0 -90 -109 -181 -212 -181c-68 0 -113 38 -113 95c0 90 109 181 212 181z" fill="currentColor"/>
</g>
<g transform="translate(74.917,84.2966)">
<rect x="-0.0757" y="-3.0000" width="0.1514" height="3.3287" ry="0.0500" fill="currentColor"/>
</g>
<g transform="translate(74.9927,81.3466)">
<path transform="scale(0.0040, -0.0040)" d="M0 -250h-19v250h19c0 -197 207 -334 207 -531c0 -71 -15 -140 -41 -206c-5 -9 -14 -13 -22 -13c-14 0 -29 12 -26 30c26 60 43 124 43 189c0 102 -92 206 -161 281z" fill="currentColor"/>
</g>
<g transform="translate(78.385,79.3441)">
<text font-family="Hiragino Sans GB" font-size="1.9604" text-anchor="start" fill="currentColor">
<tspan>G</tspan>
</text>
</g>
<g transform="translate(78.385,84.2966)">
<path transform="scale(0.0040, -0.0040)" d="M212 138c68 0 113 -38 113 -95c0 -90 -109 -181 -212 -181c-68 0 -113 38 -113 95c0 90 109 181 212 181z" fill="currentColor"/>
</g>
<g transform="translate(80.1273,83.7966)">
<path transform="scale(0.0040, -0.0040)" d="M0 0c0 30 25 55 55 55s55 -25 55 -55s-25 -55 -55 -55s-55 25 -55 55z" fill="currentColor"/>
</g>
<g transform="translate(78.4607,84.2966)">
<rect x="-0.0757" y="0.1713" width="0.1514" height="3.1620" ry="0.0500" fill="currentColor"/>
</g>
<g transform="translate(90.111,79.3441)">
<text font-family="Hiragino Sans GB" font-size="1.9604" text-anchor="start" fill="currentColor">
<tspan>D</tspan>
</text>
</g>
<g transform="translate(90.111,84.7966)">
<path transform="scale(0.0040, -0.0040)" d="M212 138c68 0 113 -38 113 -95c0 -90 -109 -181 -212 -181c-68 0 -113 38 -113 95c0 90 109 181 212 181z" fill="currentColor"/>
</g>
<g transform="translate(89.5237,90.568)">
<text font-family="Songti SC" font-size="2.7" text-anchor="start" fill="currentColor">
<tspan font-size="2.7">你</tspan>
</text>
</g>
<g transform="translate(91.3362,84.2966)">
<rect x="-0.0757" y="-2.8182" width="0.1514" height="3.1469" ry="0.0500" fill="currentColor"/>
</g>
<g transform="translate(41.2132,84.2966)">
<path stroke-width="0.0931" stroke-linejoin="round" stroke-linecap="round" stroke="currentColor" fill="currentColor" d="M0.8504 1.6408C2.0623 2.5846 9.1717 2.5846 10.3835 1.6408L10.3835 1.6408C9.1717 2.4449 2.0623 2.4449 0.8504 1.6408z"/>
</g>
<g transform="translate(94.7513,84.7966)">
<path transform="scale(0.0040, -0.0040)" d="M212 138c68 0 113 -38 113 -95c0 -90 -109 -181 -212 -181c-68 0 -113 38 -113 95c0 90 109 181 212 181z" fill="currentColor"/>
</g>
<g transform="translate(94.164,90.568)">
<text font-family="Songti SC" font-size="2.7" text-anchor="start" fill="currentColor">
<tspan font-size="2.7">这</tspan>
</text>
</g>
<g transform="translate(95.9764,84.2966)">
<rect x="-0.0757" y="-2.8182" width="0.1514" height="3.1469" ry="0.0500" fill="currentColor"/>
</g>
<g transform="translate(99.3915,84.7966)">
<path transform="scale(0.0040, -0.0040)" d="M212 138c68 0 113 -38 113 -95c0 -90 -109 -181 -212 -181c-68 0 -113 38 -113 95c0 90 109 181 212 181z" fill="currentColor"/>
</g>
<g transform="translate(98.8043,90.568)">
<text font-family="Songti SC" font-size="2.7" text-anchor="start" fill="currentColor">
<tspan font-size="2.7">疲</tspan>
</text>
</g>
<g transform="translate(100.6167,84.2966)">
<rect x="-0.0757" y="-2.8182" width="0.1514" height="3.1469" ry="0.0500" fill="currentColor"/>
</g>
<g transform="translate(104.0543,79.3441)">
<text font-family="Hiragino Sans GB" font-size="1.9604" text-anchor="start" fill="currentColor">
<tspan>A</tspan>
</text>
</g>
<g transform="translate(105.5053,78.45320000000001)">
<text font-family="Hiragino Sans GB" font-size="1.3856" text-anchor="start" fill="currentColor">
<tspan>7</tspan>
</text>
</g>
<g transform="translate(104.0543,84.2966)">
<path transform="scale(0.0040, -0.0040)" d="M212 138c68 0 113 -38 113 -95c0 -90 -109 -181 -212 -181c-68 0 -113 38 -113 95c0 90 109 181 212 181z" fill="currentColor"/>
</g>
<g transform="translate(103.467,90.568)">
<text font-family="Songti SC" font-size="2.7" text-anchor="start" fill="currentColor">
<tspan font-size="2.7">乏</tspan>
</text>
</g>
<g transform="translate(104.1299,84.2966)">
<rect x="-0.0757" y="0.1713" width="0.1514" height="3.2037" ry="0.0500" fill="currentColor"/>
</g>
<g transform="translate(104.2056,87.6216)">
<path transform="scale(0.0040, -0.0040)" d="M0 205c89 51 207 131 207 231c0 23 -5 46 -13 67c-79 -86 -194 -157 -194 -278v-20zM267 661c0 -44 -16 -81 -39 -115c16 -35 25 -72 25 -110c0 -180 -253 -256 -253 -436h-19v500h19v-70c95 49 220 127 220 231c0 21 -5 40 -14 59c-3 18 12 30 26 30c34 0 35 -78 35 -89 z" fill="currentColor"/>
</g>
<g transform="translate(108.2173,84.2966)">
<path transform="scale(0.0040, -0.0040)" d="M212 138c68 0 113 -38 113 -95c0 -90 -109 -181 -212 -181c-68 0 -113 38 -113 95c0 90 109 181 212 181z" fill="currentColor"/>
</g>
<g transform="translate(106.3924,90.568)">
<text font-family="Songti SC" font-size="2.7" text-anchor="start" fill="currentColor">
<tspan font-size="2.7">人，</tspan>
</text>
</g>
<g transform="translate(109.9596,83.7966)">
<path transform="scale(0.0040, -0.0040)" d="M0 0c0 30 25 55 55 55s55 -25 55 -55s-25 -55 -55 -55s-55 25 -55 55z" fill="currentColor"/>
</g>
<g transform="translate(108.293,84.2966)">
<rect x="-0.0757" y="0.1713" width="0.1514" height="3.0065" ry="0.0500" fill="currentColor"/>
</g>
<g transform="translate(16.9338,84.2966)">
<path stroke-width="0.0931" stroke-linejoin="round" stroke-linecap="round" stroke="currentColor" fill="currentColor" d="M0.8504 1.7500C2.0623 2.6939 9.1717 2.6939 10.3835 1.7500L10.3835 1.7500C9.1717 2.5541 2.0623 2.5541 0.8504 1.7500z"/>
</g>
<g transform="translate(114.9591,83.7966)">
<path transform="scale(0.0040, -0.0040)" d="M212 138c68 0 113 -38 113 -95c0 -90 -109 -181 -212 -181c-68 0 -113 38 -113 95c0 90 109 181 212 181z" fill="currentColor"/>
</g>
<g transform="translate(114.3718,90.568)">
<text font-family="Songti SC" font-size="2.7" text-anchor="start" fill="currentColor">
<tspan font-size="2.7">来</tspan>
</text>
</g>
<g transform="translate(115.0348,84.2966)">
<rect x="-0.0757" y="-0.3287" width="0.1514" height="3.1509" ry="0.0500" fill="currentColor"/>
</g>
<g transform="translate(113.5091,83.7966)">
<path transform="scale(0.0040, -0.0040)" d="M0 116c0 10 6 19 16 23l40 15v154c0 12 9 21 21 21s21 -9 21 -21v-138l79 30v154c0 12 9 21 21 21s21 -9 21 -21v-138l22 8c3 1 6 2 9 2c13 0 25 -11 25 -25v-54c0 -10 -6 -20 -16 -24l-40 -15v-155l22 9c3 1 6 1 9 1c13 0 25 -11 25 -25v-54c0 -10 -6 -19 -16 -23 l-40 -15v-154c0 -12 -9 -21 -21 -21s-21 9 -21 21v138l-79 -30v-154c0 -12 -9 -21 -21 -21s-21 9 -21 21v138l-22 -8c-3 -1 -6 -2 -9 -2c-13 0 -25 11 -25 25v54c0 10 6 20 16 24l40 15v155l-22 -9c-3 -1 -6 -1 -9 -1c-13 0 -25 11 -25 25v54zM177 92l-79 -30v-154l79 30 v154z" fill="currentColor"/>
</g>
<g transform="translate(121.6439,79.3441)">
<text font-family="Hiragino Sans GB" font-size="1.9604" text-anchor="start" fill="currentColor">
<tspan>D</tspan>
</text>
</g>
<g transform="translate(121.6439,83.2966)">
<path transform="scale(0.0040, -0.0040)" d="M212 138c68 0 113 -38 113 -95c0 -90 -109 -181 -212 -181c-68 0 -113 38 -113 95c0 90 109 181 212 181z" fill="currentColor"/>
</g>
<g transform="translate(122.2943,81.3022)">
<path transform="scale(0.0040, -0.0040)" d="M-71 49c0 39 32 71 71 71s71 -32 71 -71s-32 -71 -71 -71s-71 32 -71 71zM0 366c257 0 335 -332 335 -369c0 -11 -10 -19 -21 -19c-10 0 -20 7 -23 22c-26 146 -145 259 -291 259s-265 -113 -291 -259c-3 -15 -13 -22 -23 -22c-11 0 -21 8 -21 19c0 37 78 369 335 369z " fill="currentColor"/>
</g>
<g transform="translate(121.6439,90.568)">
<text font-family="Songti SC" font-size="2.7" text-anchor="start" fill="currentColor">
<tspan font-size="2.7">家！</tspan>
</text>
</g>
<g transform="translate(121.7196,84.2966)">
<rect x="-0.0757" y="-0.8287" width="0.1514" height="3.3287" ry="0.0500" fill="currentColor"/>
</g>
<g transform="translate(129.6236,83.7966)">
<path transform="scale(0.0040, -0.0040)" d="M212 138c68 0 113 -38 113 -95c0 -90 -109 -181 -212 -181c-68 0 -113 38 -113 95c0 90 109 181 212 181z" fill="currentColor"/>
</g>
<g transform="translate(130.274,80.9885)">
<path transform="scale(0.0040, -0.0040)" d="M-71 49c0 39 32 71 71 71s71 -32 71 -71s-32 -71 -71 -71s-71 32 -71 71zM0 366c257 0 335 -332 335 -369c0 -11 -10 -19 -21 -19c-10 0 -20 7 -23 22c-26 146 -145 259 -291 259s-265 -113 -291 -259c-3 -15 -13 -22 -23 -22c-11 0 -21 8 -21 19c0 37 78 369 335 369z " fill="currentColor"/>
</g>
<g transform="translate(129.6993,84.2966)">
<rect x="-0.0757" y="-0.3287" width="0.1514" height="3.3287" ry="0.0500" fill="currentColor"/>
</g>
<g transform="translate(129.7749,87.2466)">
<path transform="scale(0.0040, -0.0040)" d="M0 0h-19v250h19v-250zM0 0v250c95 59 220 149 220 259c0 56 -16 111 -41 161c-3 18 12 30 26 30c8 0 17 -4 22 -13c25 -56 40 -116 40 -178c0 -203 -267 -306 -267 -509z" fill="currentColor"/>
</g>
<g transform="translate(128.1736,83.7966)">
<path transform="scale(0.0040, -0.0040)" d="M0 116c0 10 6 19 16 23l40 15v154c0 12 9 21 21 21s21 -9 21 -21v-138l79 30v154c0 12 9 21 21 21s21 -9 21 -21v-138l22 8c3 1 6 2 9 2c13 0 25 -11 25 -25v-54c0 -10 -6 -20 -16 -24l-40 -15v-155l22 9c3 1 6 1 9 1c13 0 25 -11 25 -25v-54c0 -10 -6 -19 -16 -23 l-40 -15v-154c0 -12 -9 -21 -21 -21s-21 9 -21 21v138l-79 -30v-154c0 -12 -9 -21 -21 -21s-21 9 -21 21v138l-22 -8c-3 -1 -6 -2 -9 -2c-13 0 -25 11 -25 25v54c0 10 6 20 16 24l40 15v155l-22 -9c-3 -1 -6 -1 -9 -1c-13 0 -25 11 -25 25v54zM177 92l-79 -30v-154l79 30 v154z" fill="currentColor"/>
</g>
<g transform="translate(134.7098,79.3441)">
<text font-family="Hiragino Sans GB" font-size="1.9604" text-anchor="start" fill="currentColor">
<tspan>D</tspan>
</text>
</g>
<g transform="translate(136.2036,78.45320000000001)">
<text font-family="Hiragino Sans GB" font-size="1.3856" text-anchor="start" fill="currentColor">
<tspan>7</tspan>
</text>
</g>
<g transform="translate(134.7098,83.7966)">
<path transform="scale(0.0040, -0.0040)" d="M212 138c68 0 113 -38 113 -95c0 -90 -109 -181 -212 -181c-68 0 -113 38 -113 95c0 90 109 181 212 181z" fill="currentColor"/>
</g>
<g transform="translate(135.3602,81.75030000000001)">
<path transform="scale(0.0040, -0.0040)" d="M-71 49c0 39 32 71 71 71s71 -32 71 -71s-32 -71 -71 -71s-71 32 -71 71zM0 366c257 0 335 -332 335 -369c0 -11 -10 -19 -21 -19c-10 0 -20 7 -23 22c-26 146 -145 259 -291 259s-265 -113 -291 -259c-3 -15 -13 -22 -23 -22c-11 0 -21 8 -21 19c0 37 78 369 335 369z " fill="currentColor"/>
</g>
<g transform="translate(134.7855,84.2966)">
<rect x="-0.0757" y="-0.3287" width="0.1514" height="3.3287" ry="0.0500" fill="currentColor"/>
</g>
<g transform="translate(133.6638,83.7966)">
<path transform="scale(0.0040, -0.0040)" d="M-7 375c8 5 17 7 26 7s17 -2 25 -7l-2 -192l102 23h4c10 0 19 -8 19 -18l7 -563c-8 -5 -17 -7 -26 -7s-18 2 -26 7l3 192l-102 -23h-4c-10 0 -19 8 -19 18zM129 110l-88 -19l-3 -201l88 19z" fill="currentColor"/>
</g>
<g transform="translate(142.6895,84.2966)">
<path transform="scale(0.0040, -0.0040)" d="M70 205c81 0 46 -96 90 -96c14 0 50 42 56 55c7 14 28 14 34 0l-119 -414c-9 -8 -21 -12 -32 -12s-23 4 -32 12l118 326c-33 -12 -66 -22 -101 -22c-47 0 -87 34 -87 79c0 40 33 72 73 72z" fill="currentColor"/>
</g>
<g transform="translate(47.8732,111.675)">
<rect x="0.0000" y="-2.0000" width="0.2212" height="4.0000" ry="0.0000" fill="currentColor"/>
</g>
<g transform="translate(9.0337,113.675)">
<line stroke-linejoin="round" stroke-linecap="round" stroke-width="0.1164" stroke="currentColor" x1="0.0582" y1="0" x2="138.1582" y2="0"/>
</g>
<g transform="translate(9.0337,112.675)">
<line stroke-linejoin="round" stroke-linecap="round" stroke-width="0.1164" stroke="currentColor" x1="0.0582" y1="0" x2="138.1582" y2="0"/>
</g>
<g transform="translate(9.0337,111.675)">
<line stroke-linejoin="round" stroke-linecap="round" stroke-width="0.1164" stroke="currentColor" x1="0.0582" y1="0" x2="138.1582" y2="0"/>
</g>
<g transform="translate(9.0337,110.675)">
<line stroke-linejoin="round" stroke-linecap="round" stroke-width="0.1164" stroke="currentColor" x1="0.0582" y1="0" x2="138.1582" y2="0"/>
</g>
<g transform="translate(9.0337,109.675)">
<line stroke-linejoin="round" stroke-linecap="round" stroke-width="0.1164" stroke="currentColor" x1="0.0582" y1="0" x2="138.1582" y2="0"/>
</g>
<g transform="translate(146.5516,111.675)">
<rect x="0.0000" y="-2.0000" width="0.6986" height="4.0000" ry="0.0000" fill="currentColor"/>
</g>
<g transform="translate(145.9811,111.675)">
<rect x="0.0000" y="-2.0000" width="0.2212" height="4.0000" ry="0.0000" fill="currentColor"/>
</g>
<g transform="translate(115.0133,111.675)">
<rect x="0.0000" y="-2.0000" width="0.2212" height="4.0000" ry="0.0000" fill="currentColor"/>
</g>
<g transform="translate(79.824,111.675)">
<rect x="0.0000" y="-2.0000" width="0.2212" height="4.0000" ry="0.0000" fill="currentColor"/>
</g>
<g transform="translate(83.1337,111.675)">
<rect x="-0.0757" y="-2.5000" width="0.1514" height="3.3287" ry="0.0500" fill="currentColor"/>
</g>
<g transform="translate(9.8338,112.675)">
<path transform="scale(0.0040, -0.0040)" d="M647 2c0 -114 -75 -214 -180 -248c3 -33 4 -66 4 -99c0 -21 0 -41 -1 -62c-7 -122 -92 -229 -211 -229c-108 0 -196 88 -196 197c0 58 54 103 113 103c54 0 95 -47 95 -103c0 -52 -43 -95 -95 -95c-9 0 -18 1 -27 4c25 -37 66 -61 113 -61c93 0 156 91 162 191 c1 19 2 38 2 57c0 29 -1 58 -3 87c-5 -1 -44 -8 -88 -8c-194 0 -333 181 -333 376c0 177 129 308 244 443c-34 103 -55 171 -55 347c0 114 54 221 147 288c8 6 18 5 25 -1c68 -79 135 -242 135 -356c0 -142 -84 -255 -176 -364c21 -68 40 -136 57 -205c1 0 5 1 10 1 c157 0 258 -129 258 -263zM463 -201c64 24 110 88 110 161c0 88 -64 175 -167 188c28 -133 49 -269 57 -349zM77 25c0 -144 141 -243 261 -243c1 0 46 -1 81 5c-7 66 -27 208 -60 362c-79 -8 -124 -60 -124 -118c0 -43 25 -88 80 -120c5 -5 7 -11 7 -17 c0 -12 -10 -23 -23 -23c-16 0 -128 62 -128 188c0 89 60 177 163 200c-14 57 -30 113 -47 169c-105 -122 -210 -243 -210 -403zM242 784c0 -39 10 -95 39 -188c78 97 142 199 142 324c0 33 0 60 -20 118c-99 -46 -161 -145 -161 -254z" fill="currentColor"/>
</g>
<g transform="translate(13.3337,109.675)">
<path transform="scale(0.0040, -0.0040)" d="M0 116c0 10 6 19 16 23l40 15v154c0 12 9 21 21 21s21 -9 21 -21v-138l79 30v154c0 12 9 21 21 21s21 -9 21 -21v-138l22 8c3 1 6 2 9 2c13 0 25 -11 25 -25v-54c0 -10 -6 -20 -16 -24l-40 -15v-155l22 9c3 1 6 1 9 1c13 0 25 -11 25 -25v-54c0 -10 -6 -19 -16 -23 l-40 -15v-154c0 -12 -9 -21 -21 -21s-21 9 -21 21v138l-79 -30v-154c0 -12 -9 -21 -21 -21s-21 9 -21 21v138l-22 -8c-3 -1 -6 -2 -9 -2c-13 0 -25 11 -25 25v54c0 10 6 20 16 24l40 15v155l-22 -9c-3 -1 -6 -1 -9 -1c-13 0 -25 11 -25 25v54zM177 92l-79 -30v-154l79 30 v154z" fill="currentColor"/>
</g>
<g transform="translate(7.4119,108.7019)">
<text font-family="Songti SC" font-size="1.7463" text-anchor="start" fill="currentColor">
<tspan>13</tspan>
</text>
</g>
<g transform="translate(16.9338,107.4252)">
<text font-family="Hiragino Sans GB" font-size="1.9604" text-anchor="start" fill="currentColor">
<tspan>G</tspan>
</text>
</g>
<g transform="translate(16.9338,111.675)">
<path transform="scale(0.0040, -0.0040)" d="M212 138c68 0 113 -38 113 -95c0 -90 -109 -181 -212 -181c-68 0 -113 38 -113 95c0 90 109 181 212 181z" fill="currentColor"/>
</g>
<g transform="translate(16.3465,117.8873)">
<text font-family="Songti SC" font-size="2.7" text-anchor="start" fill="currentColor">
<tspan font-size="2.7">何</tspan>
</text>
</g>
<g transform="translate(18.676,111.175)">
<path transform="scale(0.0040, -0.0040)" d="M0 0c0 30 25 55 55 55s55 -25 55 -55s-25 -55 -55 -55s-55 25 -55 55z" fill="currentColor"/>
</g>
<g transform="translate(18.1589,111.675)">
<rect x="-0.0757" y="-3.4964" width="0.1514" height="3.3251" ry="0.0500" fill="currentColor"/>
</g>
<g transform="translate(117.0977,111.675)">
<path stroke-width="0.0931" stroke-linejoin="round" stroke-linecap="round" stroke="currentColor" fill="currentColor" d="M0.8504 1.7500C2.2621 2.7385 14.3151 2.7385 15.7268 1.7500L15.7268 1.7500C14.3151 2.5988 2.2621 2.5988 0.8504 1.7500z"/>
</g>
<g transform="translate(24.2078,112.175)">
<path transform="scale(0.0040, -0.0040)" d="M212 138c68 0 113 -38 113 -95c0 -90 -109 -181 -212 -181c-68 0 -113 38 -113 95c0 90 109 181 212 181z" fill="currentColor"/>
</g>
<g transform="translate(23.6206,117.8873)">
<text font-family="Songti SC" font-size="2.7" text-anchor="start" fill="currentColor">
<tspan font-size="2.7">等</tspan>
</text>
</g>
<g transform="translate(25.433,111.675)">
<rect x="-0.0757" y="-3.1537" width="0.1514" height="3.4823" ry="0.0500" fill="currentColor"/>
</g>
<g transform="translate(27.393,112.675)">
<path transform="scale(0.0040, -0.0040)" d="M212 138c68 0 113 -38 113 -95c0 -90 -109 -181 -212 -181c-68 0 -113 38 -113 95c0 90 109 181 212 181z" fill="currentColor"/>
</g>
<g transform="translate(26.8057,117.8873)">
<text font-family="Songti SC" font-size="2.7" text-anchor="start" fill="currentColor">
<tspan font-size="2.7">恳</tspan>
</text>
</g>
<g transform="translate(28.6182,111.675)">
<rect x="-0.0757" y="-3.0036" width="0.1514" height="3.8322" ry="0.0500" fill="currentColor"/>
</g>
<g transform="translate(103.6528,109.675)">
<polygon stroke-linejoin="round" stroke-linecap="round" stroke-width="0.1000" fill="currentColor" stroke="currentColor" points="7.3754 -0.3718 7.3754 0.0082 0.0500 0.1900 0.0500 -0.1900"/>
</g>
<g transform="translate(32.4626,112.675)">
<path transform="scale(0.0040, -0.0040)" d="M212 138c68 0 113 -38 113 -95c0 -90 -109 -181 -212 -181c-68 0 -113 38 -113 95c0 90 109 181 212 181z" fill="currentColor"/>
</g>
<g transform="translate(31.8753,117.8873)">
<text font-family="Songti SC" font-size="2.7" text-anchor="start" fill="currentColor">
<tspan font-size="2.7">切</tspan>
</text>
</g>
<g transform="translate(33.6877,111.675)">
<rect x="-0.0757" y="-2.0000" width="0.1514" height="2.8287" ry="0.0500" fill="currentColor"/>
</g>
<g transform="translate(37.5321,113.175)">
<path transform="scale(0.0040, -0.0040)" d="M212 138c68 0 113 -38 113 -95c0 -90 -109 -181 -212 -181c-68 0 -113 38 -113 95c0 90 109 181 212 181z" fill="currentColor"/>
</g>
<g transform="translate(36.9448,117.8873)">
<text font-family="Songti SC" font-size="2.7" text-anchor="start" fill="currentColor">
<tspan font-size="2.7">慈</tspan>
</text>
</g>
<g transform="translate(38.7572,111.675)">
<rect x="-0.0757" y="-2.0000" width="0.1514" height="3.3287" ry="0.0500" fill="currentColor"/>
</g>
<g transform="translate(42.6016,112.675)">
<path transform="scale(0.0040, -0.0040)" d="M212 138c68 0 113 -38 113 -95c0 -90 -109 -181 -212 -181c-68 0 -113 38 -113 95c0 90 109 181 212 181z" fill="currentColor"/>
</g>
<g transform="translate(40.7767,117.8873)">
<text font-family="Songti SC" font-size="2.7" text-anchor="start" fill="currentColor">
<tspan font-size="2.7">爱，</tspan>
</text>
</g>
<g transform="translate(43.8268,111.675)">
<rect x="-0.0757" y="-2.0000" width="0.1514" height="2.8287" ry="0.0500" fill="currentColor"/>
</g>
<g transform="translate(86.8961,109.4932)">
<polygon stroke-linejoin="round" stroke-linecap="round" stroke-width="0.1000" fill="currentColor" stroke="currentColor" points="7.6254 -1.0082 7.6254 -0.6282 0.0500 0.1900 0.0500 -0.1900"/>
</g>
<g transform="translate(49.9577,107.4252)">
<text font-family="Hiragino Sans GB" font-size="1.9604" text-anchor="start" fill="currentColor">
<tspan>C</tspan>
</text>
</g>
<g transform="translate(49.9577,112.175)">
<path transform="scale(0.0040, -0.0040)" d="M212 138c68 0 113 -38 113 -95c0 -90 -109 -181 -212 -181c-68 0 -113 38 -113 95c0 90 109 181 212 181z" fill="currentColor"/>
</g>
<g transform="translate(49.3704,117.8873)">
<text font-family="Songti SC" font-size="2.7" text-anchor="start" fill="currentColor">
<tspan font-size="2.7">耶</tspan>
</text>
</g>
<g transform="translate(51.1828,111.675)">
<rect x="-0.0757" y="-1.9938" width="0.1514" height="2.3225" ry="0.0500" fill="currentColor"/>
</g>
<g transform="translate(55.0272,112.675)">
<path transform="scale(0.0040, -0.0040)" d="M212 138c68 0 113 -38 113 -95c0 -90 -109 -181 -212 -181c-68 0 -113 38 -113 95c0 90 109 181 212 181z" fill="currentColor"/>
</g>
<g transform="translate(54.4399,117.8873)">
<text font-family="Songti SC" font-size="2.7" text-anchor="start" fill="currentColor">
<tspan font-size="2.7">稣</tspan>
</text>
</g>
<g transform="translate(56.2524,111.675)">
<rect x="-0.0757" y="-1.5807" width="0.1514" height="2.4094" ry="0.0500" fill="currentColor"/>
</g>
<g transform="translate(59.8467,113.675)">
<path transform="scale(0.0040, -0.0040)" d="M212 138c68 0 113 -38 113 -95c0 -90 -109 -181 -212 -181c-68 0 -113 38 -113 95c0 90 109 181 212 181z" fill="currentColor"/>
</g>
<g transform="translate(59.2595,117.8873)">
<text font-family="Songti SC" font-size="2.7" text-anchor="start" fill="currentColor">
<tspan font-size="2.7">在</tspan>
</text>
</g>
<g transform="translate(61.0719,111.675)">
<rect x="-0.0757" y="-1.1880" width="0.1514" height="3.0166" ry="0.0500" fill="currentColor"/>
</g>
<g transform="translate(64.9163,107.4252)">
<text font-family="Hiragino Sans GB" font-size="1.9604" text-anchor="start" fill="currentColor">
<tspan>G</tspan>
</text>
</g>
<g transform="translate(64.9163,113.675)">
<path transform="scale(0.0040, -0.0040)" d="M212 138c68 0 113 -38 113 -95c0 -90 -109 -181 -212 -181c-68 0 -113 38 -113 95c0 90 109 181 212 181z" fill="currentColor"/>
</g>
<g transform="translate(64.329,117.8873)">
<text font-family="Songti SC" font-size="2.7" text-anchor="start" fill="currentColor">
<tspan font-size="2.7">呼</tspan>
</text>
</g>
<g transform="translate(66.1414,111.675)">
<rect x="-0.0757" y="-1.1765" width="0.1514" height="3.0052" ry="0.0500" fill="currentColor"/>
</g>
<g transform="translate(66.0658,110.4932)">
<polygon stroke-linejoin="round" stroke-linecap="round" stroke-width="0.1000" fill="currentColor" stroke="currentColor" points="5.1709 0.1736 5.1709 0.5536 0.0500 0.1900 0.0500 -0.1900"/>
</g>
<g transform="translate(69.9858,114.175)">
<path transform="scale(0.0040, -0.0040)" d="M212 138c68 0 113 -38 113 -95c0 -90 -109 -181 -212 -181c-68 0 -113 38 -113 95c0 90 109 181 212 181z" fill="currentColor"/>
</g>
<g transform="translate(68.1608,117.8873)">
<text font-family="Songti SC" font-size="2.7" text-anchor="start" fill="currentColor">
<tspan font-size="2.7">召，</tspan>
</text>
</g>
<g transform="translate(71.211,111.675)">
<rect x="-0.0757" y="-0.8235" width="0.1514" height="3.1522" ry="0.0500" fill="currentColor"/>
</g>
<g transform="translate(75.0553,111.675)">
<path transform="scale(0.0040, -0.0040)" d="M70 205c81 0 46 -96 90 -96c14 0 50 42 56 55c7 14 28 14 34 0l-119 -414c-9 -8 -21 -12 -32 -12s-23 4 -32 12l118 326c-33 -12 -66 -22 -101 -22c-47 0 -87 34 -87 79c0 40 33 72 73 72z" fill="currentColor"/>
</g>
<g transform="translate(81.9085,107.4252)">
<text font-family="Hiragino Sans GB" font-size="1.9604" text-anchor="start" fill="currentColor">
<tspan>C</tspan>
</text>
</g>
<g transform="translate(81.9085,112.675)">
<path transform="scale(0.0040, -0.0040)" d="M212 138c68 0 113 -38 113 -95c0 -90 -109 -181 -212 -181c-68 0 -113 38 -113 95c0 90 109 181 212 181z" fill="currentColor"/>
</g>
<g transform="translate(81.3212,117.8873)">
<text font-family="Songti SC" font-size="2.7" text-anchor="start" fill="currentColor">
<tspan font-size="2.7">呼</tspan>
</text>
</g>
<g transform="translate(83.2094,109.225)">
<path transform="scale(0.0040, -0.0040)" d="M0 0v-500h-19v500h19zM0 0c0 -177 201 -291 201 -468c0 -33 -9 -66 -23 -96c18 -36 29 -74 29 -116c0 -63 -15 -125 -41 -182c-5 -9 -14 -13 -22 -13c-14 0 -29 12 -26 30c26 51 43 107 43 165c0 96 -92 188 -161 255v213c0 -115 87 -203 148 -298c4 14 6 27 6 42 c0 94 -87 189 -154 256v212z" fill="currentColor"/>
</g>
<g transform="translate(51.1072,109.675)">
<polygon stroke-linejoin="round" stroke-linecap="round" stroke-width="0.1000" fill="currentColor" stroke="currentColor" points="9.9904 0.6282 9.9904 1.0082 0.0500 0.1900 0.0500 -0.1900"/>
</g>
<g transform="translate(85.7466,112.675)">
<path transform="scale(0.0040, -0.0040)" d="M212 138c68 0 113 -38 113 -95c0 -90 -109 -181 -212 -181c-68 0 -113 38 -113 95c0 90 109 181 212 181z" fill="currentColor"/>
</g>
<g transform="translate(85.1594,117.8873)">
<text font-family="Songti SC" font-size="2.7" text-anchor="start" fill="currentColor">
<tspan font-size="2.7">召</tspan>
</text>
</g>
<g transform="translate(87.4889,112.175)">
<path transform="scale(0.0040, -0.0040)" d="M0 0c0 30 25 55 55 55s55 -25 55 -55s-25 -55 -55 -55s-55 25 -55 55z" fill="currentColor"/>
</g>
<g transform="translate(86.9718,111.675)">
<rect x="-0.0757" y="-2.1899" width="0.1514" height="3.0185" ry="0.0500" fill="currentColor"/>
</g>
<g transform="translate(93.2707,111.175)">
<path transform="scale(0.0040, -0.0040)" d="M212 138c68 0 113 -38 113 -95c0 -90 -109 -181 -212 -181c-68 0 -113 38 -113 95c0 90 109 181 212 181z" fill="currentColor"/>
</g>
<g transform="translate(93.9211,107.9551)">
<path transform="scale(0.0040, -0.0040)" d="M-71 49c0 39 32 71 71 71s71 -32 71 -71s-32 -71 -71 -71s-71 32 -71 71zM0 366c257 0 335 -332 335 -369c0 -11 -10 -19 -21 -19c-10 0 -20 7 -23 22c-26 146 -145 259 -291 259s-265 -113 -291 -259c-3 -15 -13 -22 -23 -22c-11 0 -21 8 -21 19c0 37 78 369 335 369z " fill="currentColor"/>
</g>
<g transform="translate(91.4457,117.8873)">
<text font-family="Songti SC" font-size="2.7" text-anchor="start" fill="currentColor">
<tspan font-size="2.7">你，</tspan>
</text>
</g>
<g transform="translate(94.4959,111.675)">
<rect x="-0.0757" y="-2.9919" width="0.1514" height="2.3206" ry="0.0500" fill="currentColor"/>
</g>
<g transform="translate(98.3402,107.4252)">
<text font-family="Hiragino Sans GB" font-size="1.9604" text-anchor="start" fill="currentColor">
<tspan>D</tspan>
</text>
</g>
<g transform="translate(99.834,106.5343)">
<text font-family="Hiragino Sans GB" font-size="1.3856" text-anchor="start" fill="currentColor">
<tspan>7</tspan>
</text>
</g>
<g transform="translate(98.3402,111.675)">
<path transform="scale(0.0040, -0.0040)" d="M212 138c68 0 113 -38 113 -95c0 -90 -109 -181 -212 -181c-68 0 -113 38 -113 95c0 90 109 181 212 181z" fill="currentColor"/>
</g>
<g transform="translate(97.753,117.8873)">
<text font-family="Songti SC" font-size="2.7" text-anchor="start" fill="currentColor">
<tspan font-size="2.7">罪</tspan>
</text>
</g>
<g transform="translate(98.4159,111.675)">
<rect x="-0.0757" y="0.1713" width="0.1514" height="3.2037" ry="0.0500" fill="currentColor"/>
</g>
<g transform="translate(98.4916,115.0)">
<path transform="scale(0.0040, -0.0040)" d="M0 205c89 51 207 131 207 231c0 23 -5 46 -13 67c-79 -86 -194 -157 -194 -278v-20zM267 661c0 -44 -16 -81 -39 -115c16 -35 25 -72 25 -110c0 -180 -253 -256 -253 -436h-19v500h19v-70c95 49 220 127 220 231c0 21 -5 40 -14 59c-3 18 12 30 26 30c34 0 35 -78 35 -89 z" fill="currentColor"/>
</g>
<g transform="translate(102.5033,112.675)">
<path transform="scale(0.0040, -0.0040)" d="M212 138c68 0 113 -38 113 -95c0 -90 -109 -181 -212 -181c-68 0 -113 38 -113 95c0 90 109 181 212 181z" fill="currentColor"/>
</g>
<g transform="translate(100.6784,117.8873)">
<text font-family="Songti SC" font-size="2.7" text-anchor="start" fill="currentColor">
<tspan font-size="2.7">人，</tspan>
</text>
</g>
<g transform="translate(104.2456,112.175)">
<path transform="scale(0.0040, -0.0040)" d="M0 0c0 30 25 55 55 55s55 -25 55 -55s-25 -55 -55 -55s-55 25 -55 55z" fill="currentColor"/>
</g>
<g transform="translate(103.7285,111.675)">
<rect x="-0.0757" y="-2.0019" width="0.1514" height="2.8305" ry="0.0500" fill="currentColor"/>
</g>
<g transform="translate(33.612,109.675)">
<polygon stroke-linejoin="round" stroke-linecap="round" stroke-width="0.1000" fill="currentColor" stroke="currentColor" points="10.2404 -0.1900 10.2404 0.1900 0.0500 0.1900 0.0500 -0.1900"/>
</g>
<g transform="translate(109.7774,112.175)">
<path transform="scale(0.0040, -0.0040)" d="M212 138c68 0 113 -38 113 -95c0 -90 -109 -181 -212 -181c-68 0 -113 38 -113 95c0 90 109 181 212 181z" fill="currentColor"/>
</g>
<g transform="translate(110.4278,108.7671)">
<path transform="scale(0.0040, -0.0040)" d="M-71 49c0 39 32 71 71 71s71 -32 71 -71s-32 -71 -71 -71s-71 32 -71 71zM0 366c257 0 335 -332 335 -369c0 -11 -10 -19 -21 -19c-10 0 -20 7 -23 22c-26 146 -145 259 -291 259s-265 -113 -291 -259c-3 -15 -13 -22 -23 -22c-11 0 -21 8 -21 19c0 37 78 369 335 369z " fill="currentColor"/>
</g>
<g transform="translate(109.1901,117.8873)">
<text font-family="Songti SC" font-size="2.7" text-anchor="start" fill="currentColor">
<tspan font-size="2.7">来</tspan>
</text>
</g>
<g transform="translate(111.0026,111.675)">
<rect x="-0.0757" y="-2.1799" width="0.1514" height="2.5086" ry="0.0500" fill="currentColor"/>
</g>
<g transform="translate(117.0977,107.4252)">
<text font-family="Hiragino Sans GB" font-size="1.9604" text-anchor="start" fill="currentColor">
<tspan>G</tspan>
</text>
</g>
<g transform="translate(117.0977,112.675)">
<path transform="scale(0.0040, -0.0040)" d="M212 138c68 0 113 -38 113 -95c0 -90 -109 -181 -212 -181c-68 0 -113 38 -113 95c0 90 109 181 212 181z" fill="currentColor"/>
</g>
<g transform="translate(115.2728,117.8873)">
<text font-family="Songti SC" font-size="2.7" text-anchor="start" fill="currentColor">
<tspan font-size="2.7">家！</tspan>
</text>
</g>
<g transform="translate(118.84,112.175)">
<path transform="scale(0.0040, -0.0040)" d="M0 0c0 30 25 55 55 55s55 -25 55 -55s-25 -55 -55 -55s-55 25 -55 55z" fill="currentColor"/>
</g>
<g transform="translate(118.3229,111.675)">
<rect x="-0.0757" y="-2.5000" width="0.1514" height="3.3287" ry="0.0500" fill="currentColor"/>
</g>
<g transform="translate(125.8351,107.4252)">
<text font-family="Hiragino Sans GB" font-size="1.9604" text-anchor="start" fill="currentColor">
<tspan>C</tspan>
</text>
</g>
<g transform="translate(18.0832,108.175)">
<polygon stroke-linejoin="round" stroke-linecap="round" stroke-width="0.1000" fill="currentColor" stroke="currentColor" points="10.5606 0.3100 10.5606 0.6900 0.0500 0.1900 0.0500 -0.1900"/>
</g>
<g transform="translate(24.333,109.2877)">
<polygon stroke-linejoin="round" stroke-linecap="round" stroke-width="0.1000" fill="currentColor" stroke="currentColor" points="1.1257 -0.1346 1.1257 0.2454 0.0500 0.1900 0.0500 -0.1900"/>
</g>
<g transform="translate(132.3741,107.4252)">
<text font-family="Hiragino Sans GB" font-size="1.9604" text-anchor="start" fill="currentColor">
<tspan>G</tspan>
</text>
</g>
<g transform="translate(132.3741,112.675)">
<path transform="scale(0.0040, -0.0040)" d="M212 138c68 0 113 -38 113 -95c0 -90 -109 -181 -212 -181c-68 0 -113 38 -113 95c0 90 109 181 212 181z" fill="currentColor"/>
</g>
<g transform="translate(133.5993,111.675)">
<rect x="-0.0757" y="-2.5000" width="0.1514" height="3.3287" ry="0.0500" fill="currentColor"/>
</g>
<g transform="translate(141.2124,111.675)">
<path transform="scale(0.0040, -0.0040)" d="M70 205c81 0 46 -96 90 -96c14 0 50 42 56 55c7 14 28 14 34 0l-119 -414c-9 -8 -21 -12 -32 -12s-23 4 -32 12l118 326c-33 -12 -66 -22 -101 -22c-47 0 -87 34 -87 79c0 40 33 72 73 72z" fill="currentColor"/>
</g>
<g transform="translate(68.9245,157.675)">
<text font-family="Songti SC" font-size="1.5560" text-anchor="start" fill="currentColor">
<tspan> </tspan>
</text>
</g>
<g transform="translate(68.9245,177.675)">
<text font-family="Songti SC" font-size="1.5560" text-anchor="start" fill="currentColor">
<tspan> </tspan>
</text>
</g>
<g transform="translate(68.9245,197.675)">
<text font-family="Songti SC" font-size="1.5560" text-anchor="start" fill="currentColor">
<tspan> </tspan>
</text>
</g>
<g transform="translate(69.8408,247.9677)">
<text font-family="Trebuchet MS" font-size="2.2001" text-anchor="start" fill="currentColor">
<tspan>www.hymnal.net</tspan>
</text>
</g>
<g transform="translate(15.9965,39.8168)">
<text font-family="Songti SC" font-weight="bold" font-size="2.7" text-anchor="start" fill="currentColor">2.</text></g>
<g transform="translate(18.4903,39.8168)">
<text font-family="Songti SC" font-size="2.7" text-anchor="start" fill="currentColor">为</text></g>
<g transform="translate(26.0862,39.8168)">
<text font-family="Songti SC" font-size="2.7" text-anchor="start" fill="currentColor">何</text></g>
<g transform="translate(29.373,39.8168)">
<text font-family="Songti SC" font-size="2.7" text-anchor="start" fill="currentColor">糊</text></g>
<g transform="translate(34.6456,39.8168)">
<text font-family="Songti SC" font-size="2.7" text-anchor="start" fill="currentColor">涂</text></g>
<g transform="translate(39.9182,39.8168)">
<text font-family="Songti SC" font-size="2.7" text-anchor="start" fill="currentColor">迟</text></g>
<g transform="translate(43.9532,39.8168)">
<text font-family="Songti SC" font-size="2.7" text-anchor="start" fill="currentColor">延</text></g>
<g transform="translate(52.8262,39.8168)">
<text font-family="Songti SC" font-size="2.7" text-anchor="start" fill="currentColor">不</text></g>
<g transform="translate(58.0988,39.8168)">
<text font-family="Songti SC" font-size="2.7" text-anchor="start" fill="currentColor">听</text></g>
<g transform="translate(63.1214,39.8168)">
<text font-family="Songti SC" font-size="2.7" text-anchor="start" fill="currentColor">祂</text></g>
<g transform="translate(68.3941,39.8168)">
<text font-family="Songti SC" font-size="2.7" text-anchor="start" fill="currentColor">恳</text></g>
<g transform="translate(72.429,39.8168)">
<text font-family="Songti SC" font-size="2.7" text-anchor="start" fill="currentColor">劝</text></g>
<g transform="translate(86.0717,39.8168)">
<text font-family="Songti SC" font-size="2.7" text-anchor="start" fill="currentColor">恳</text></g>
<g transform="translate(91.3444,39.8168)">
<text font-family="Songti SC" font-size="2.7" text-anchor="start" fill="currentColor">劝</text></g>
<g transform="translate(95.3793,39.8168)">
<text font-family="Songti SC" font-size="2.7" text-anchor="start" fill="currentColor">他</text></g>
<g transform="translate(102.1396,39.8168)">
<text font-family="Songti SC" font-size="2.7" text-anchor="start" fill="currentColor">也</text></g>
<g transform="translate(109.7356,39.8168)">
<text font-family="Songti SC" font-size="2.7" text-anchor="start" fill="currentColor">恳</text></g>
<g transform="translate(113.0223,39.8168)">
<text font-family="Songti SC" font-size="2.7" text-anchor="start" fill="currentColor">劝</text></g>
<g transform="translate(121.2449,39.8168)">
<text font-family="Songti SC" font-size="2.7" text-anchor="start" fill="currentColor">你</text></g>
<g transform="translate(16.3465,66.4696)">
<text font-family="Songti SC" font-size="2.7" text-anchor="start" fill="currentColor">为</text></g>
<g transform="translate(26.487,66.4696)">
<text font-family="Songti SC" font-size="2.7" text-anchor="start" fill="currentColor">何</text></g>
<g transform="translate(30.5764,66.4696)">
<text font-family="Songti SC" font-size="2.7" text-anchor="start" fill="currentColor">踌</text></g>
<g transform="translate(37.4544,66.4696)">
<text font-family="Songti SC" font-size="2.7" text-anchor="start" fill="currentColor">躇</text></g>
<g transform="translate(44.3325,66.4696)">
<text font-family="Songti SC" font-size="2.7" text-anchor="start" fill="currentColor">留</text></g>
<g transform="translate(49.9728,66.4696)">
<text font-family="Songti SC" font-size="2.7" text-anchor="start" fill="currentColor">恋</text></g>
<g transform="translate(61.0532,66.4696)">
<text font-family="Songti SC" font-size="2.7" text-anchor="start" fill="currentColor">不</text></g>
<g transform="translate(67.9313,66.4696)">
<text font-family="Songti SC" font-size="2.7" text-anchor="start" fill="currentColor">理</text></g>
<g transform="translate(74.5593,66.4696)">
<text font-family="Songti SC" font-size="2.7" text-anchor="start" fill="currentColor">祂</text></g>
<g transform="translate(81.4373,66.4696)">
<text font-family="Songti SC" font-size="2.7" text-anchor="start" fill="currentColor">恩</text></g>
<g transform="translate(87.0777,66.4696)">
<text font-family="Songti SC" font-size="2.7" text-anchor="start" fill="currentColor">眷</text></g>
<g transform="translate(104.5333,66.4696)">
<text font-family="Songti SC" font-size="2.7" text-anchor="start" fill="currentColor">恩</text></g>
<g transform="translate(111.4113,66.4696)">
<text font-family="Songti SC" font-size="2.7" text-anchor="start" fill="currentColor">眷</text></g>
<g transform="translate(117.3016,66.4696)">
<text font-family="Songti SC" font-size="2.7" text-anchor="start" fill="currentColor">他</text></g>
<g transform="translate(125.4174,66.4696)">
<text font-family="Songti SC" font-size="2.7" text-anchor="start" fill="currentColor">也</text></g>
<g transform="translate(135.3078,66.4696)">
<text font-family="Songti SC" font-size="2.7" text-anchor="start" fill="currentColor">恩</text></g>
<g transform="translate(139.3973,66.4696)">
<text font-family="Songti SC" font-size="2.7" text-anchor="start" fill="currentColor">眷</text></g>
<g transform="translate(16.9338,94.568)">
<text font-family="Songti SC" font-size="2.7" text-anchor="start" fill="currentColor">你</text></g>
<g transform="translate(15.9965,43.8168)">
<text font-family="Songti SC" font-weight="bold" font-size="2.7" text-anchor="start" fill="currentColor">3.</text></g>
<g transform="translate(18.4903,43.8168)">
<text font-family="Songti SC" font-size="2.7" text-anchor="start" fill="currentColor">时</text></g>
<g transform="translate(26.0862,43.8168)">
<text font-family="Songti SC" font-size="2.7" text-anchor="start" fill="currentColor">间</text></g>
<g transform="translate(29.373,43.8168)">
<text font-family="Songti SC" font-size="2.7" text-anchor="start" fill="currentColor">急</text></g>
<g transform="translate(34.6456,43.8168)">
<text font-family="Songti SC" font-size="2.7" text-anchor="start" fill="currentColor">急</text></g>
<g transform="translate(39.9182,43.8168)">
<text font-family="Songti SC" font-size="2.7" text-anchor="start" fill="currentColor">在</text></g>
<g transform="translate(43.9532,43.8168)">
<text font-family="Songti SC" font-size="2.7" text-anchor="start" fill="currentColor">逝</text></g>
<g transform="translate(52.8262,43.8168)">
<text font-family="Songti SC" font-size="2.7" text-anchor="start" fill="currentColor">机</text></g>
<g transform="translate(58.0988,43.8168)">
<text font-family="Songti SC" font-size="2.7" text-anchor="start" fill="currentColor">会</text></g>
<g transform="translate(63.1214,43.8168)">
<text font-family="Songti SC" font-size="2.7" text-anchor="start" fill="currentColor">要</text></g>
<g transform="translate(68.3941,43.8168)">
<text font-family="Songti SC" font-size="2.7" text-anchor="start" fill="currentColor">越</text></g>
<g transform="translate(72.429,43.8168)">
<text font-family="Songti SC" font-size="2.7" text-anchor="start" fill="currentColor">过</text></g>
<g transform="translate(86.0717,43.8168)">
<text font-family="Songti SC" font-size="2.7" text-anchor="start" fill="currentColor">越</text></g>
<g transform="translate(91.3444,43.8168)">
<text font-family="Songti SC" font-size="2.7" text-anchor="start" fill="currentColor">过</text></g>
<g transform="translate(95.3793,43.8168)">
<text font-family="Songti SC" font-size="2.7" text-anchor="start" fill="currentColor">他</text></g>
<g transform="translate(102.1396,43.8168)">
<text font-family="Songti SC" font-size="2.7" text-anchor="start" fill="currentColor">也</text></g>
<g transform="translate(109.7356,43.8168)">
<text font-family="Songti SC" font-size="2.7" text-anchor="start" fill="currentColor">越</text></g>
<g transform="translate(113.0223,43.8168)">
<text font-family="Songti SC" font-size="2.7" text-anchor="start" fill="currentColor">过</text></g>
<g transform="translate(121.2449,43.8168)">
<text font-family="Songti SC" font-size="2.7" text-anchor="start" fill="currentColor">你</text></g>
<g transform="translate(16.3465,70.4696)">
<text font-family="Songti SC" font-size="2.7" text-anchor="start" fill="currentColor">阴</text></g>
<g transform="translate(26.487,70.4696)">
<text font-family="Songti SC" font-size="2.7" text-anchor="start" fill="currentColor">影</text></g>
<g transform="translate(30.5764,70.4696)">
<text font-family="Songti SC" font-size="2.7" text-anchor="start" fill="currentColor">渐</text></g>
<g transform="translate(37.4544,70.4696)">
<text font-family="Songti SC" font-size="2.7" text-anchor="start" fill="currentColor">渐</text></g>
<g transform="translate(44.3325,70.4696)">
<text font-family="Songti SC" font-size="2.7" text-anchor="start" fill="currentColor">在</text></g>
<g transform="translate(49.9728,70.4696)">
<text font-family="Songti SC" font-size="2.7" text-anchor="start" fill="currentColor">集</text></g>
<g transform="translate(61.0532,70.4696)">
<text font-family="Songti SC" font-size="2.7" text-anchor="start" fill="currentColor">死</text></g>
<g transform="translate(67.9313,70.4696)">
<text font-family="Songti SC" font-size="2.7" text-anchor="start" fill="currentColor">亡</text></g>
<g transform="translate(74.5593,70.4696)">
<text font-family="Songti SC" font-size="2.7" text-anchor="start" fill="currentColor">要</text></g>
<g transform="translate(81.4373,70.4696)">
<text font-family="Songti SC" font-size="2.7" text-anchor="start" fill="currentColor">来</text></g>
<g transform="translate(87.0777,70.4696)">
<text font-family="Songti SC" font-size="2.7" text-anchor="start" fill="currentColor">捉</text></g>
<g transform="translate(104.5333,70.4696)">
<text font-family="Songti SC" font-size="2.7" text-anchor="start" fill="currentColor">来</text></g>
<g transform="translate(111.4113,70.4696)">
<text font-family="Songti SC" font-size="2.7" text-anchor="start" fill="currentColor">捉</text></g>
<g transform="translate(117.3016,70.4696)">
<text font-family="Songti SC" font-size="2.7" text-anchor="start" fill="currentColor">他</text></g>
<g transform="translate(125.4174,70.4696)">
<text font-family="Songti SC" font-size="2.7" text-anchor="start" fill="currentColor">也</text></g>
<g transform="translate(135.3078,70.4696)">
<text font-family="Songti SC" font-size="2.7" text-anchor="start" fill="currentColor">来</text></g>
<g transform="translate(139.3973,70.4696)">
<text font-family="Songti SC" font-size="2.7" text-anchor="start" fill="currentColor">捉</text></g>
<g transform="translate(16.9338,98.568)">
<text font-family="Songti SC" font-size="2.7" text-anchor="start" fill="currentColor">你</text></g>
<g transform="translate(15.9965,47.8168)">
<text font-family="Songti SC" font-weight="bold" font-size="2.7" text-anchor="start" fill="currentColor">4.</text></g>
<g transform="translate(18.4903,47.8168)">
<text font-family="Songti SC" font-size="2.7" text-anchor="start" fill="currentColor">哦</text></g>
<g transform="translate(26.0862,47.8168)">
<text font-family="Songti SC" font-size="2.7" text-anchor="start" fill="currentColor">那</text></g>
<g transform="translate(29.373,47.8168)">
<text font-family="Songti SC" font-size="2.7" text-anchor="start" fill="currentColor">奇</text></g>
<g transform="translate(34.6456,47.8168)">
<text font-family="Songti SC" font-size="2.7" text-anchor="start" fill="currentColor">妙</text></g>
<g transform="translate(39.9182,47.8168)">
<text font-family="Songti SC" font-size="2.7" text-anchor="start" fill="currentColor">之</text></g>
<g transform="translate(43.9532,47.8168)">
<text font-family="Songti SC" font-size="2.7" text-anchor="start" fill="currentColor">爱</text></g>
<g transform="translate(52.8262,47.8168)">
<text font-family="Songti SC" font-size="2.7" text-anchor="start" fill="currentColor">祂</text></g>
<g transform="translate(58.0988,47.8168)">
<text font-family="Songti SC" font-size="2.7" text-anchor="start" fill="currentColor">已</text></g>
<g transform="translate(63.1214,47.8168)">
<text font-family="Songti SC" font-size="2.7" text-anchor="start" fill="currentColor">经</text></g>
<g transform="translate(68.3941,47.8168)">
<text font-family="Songti SC" font-size="2.7" text-anchor="start" fill="currentColor">应</text></g>
<g transform="translate(72.429,47.8168)">
<text font-family="Songti SC" font-size="2.7" text-anchor="start" fill="currentColor">许</text></g>
<g transform="translate(86.0717,47.8168)">
<text font-family="Songti SC" font-size="2.7" text-anchor="start" fill="currentColor">应</text></g>
<g transform="translate(91.3444,47.8168)">
<text font-family="Songti SC" font-size="2.7" text-anchor="start" fill="currentColor">许</text></g>
<g transform="translate(95.3793,47.8168)">
<text font-family="Songti SC" font-size="2.7" text-anchor="start" fill="currentColor">他</text></g>
<g transform="translate(102.1396,47.8168)">
<text font-family="Songti SC" font-size="2.7" text-anchor="start" fill="currentColor">也</text></g>
<g transform="translate(109.7356,47.8168)">
<text font-family="Songti SC" font-size="2.7" text-anchor="start" fill="currentColor">应</text></g>
<g transform="translate(113.0223,47.8168)">
<text font-family="Songti SC" font-size="2.7" text-anchor="start" fill="currentColor">许</text></g>
<g transform="translate(121.2449,47.8168)">
<text font-family="Songti SC" font-size="2.7" text-anchor="start" fill="currentColor">你</text></g>
<g transform="translate(16.3465,74.4696)">
<text font-family="Songti SC" font-size="2.7" text-anchor="start" fill="currentColor">虽</text></g>
<g transform="translate(26.487,74.4696)">
<text font-family="Songti SC" font-size="2.7" text-anchor="start" fill="currentColor">然</text></g>
<g transform="translate(30.5764,74.4696)">
<text font-family="Songti SC" font-size="2.7" text-anchor="start" fill="currentColor">污</text></g>
<g transform="translate(37.4544,74.4696)">
<text font-family="Songti SC" font-size="2.7" text-anchor="start" fill="currentColor">秽</text></g>
<g transform="translate(44.3325,74.4696)">
<text font-family="Songti SC" font-size="2.7" text-anchor="start" fill="currentColor">败</text></g>
<g transform="translate(49.9728,74.4696)">
<text font-family="Songti SC" font-size="2.7" text-anchor="start" fill="currentColor">坏</text></g>
<g transform="translate(61.0532,74.4696)">
<text font-family="Songti SC" font-size="2.7" text-anchor="start" fill="currentColor">祂</text></g>
<g transform="translate(67.9313,74.4696)">
<text font-family="Songti SC" font-size="2.7" text-anchor="start" fill="currentColor">仍</text></g>
<g transform="translate(74.5593,74.4696)">
<text font-family="Songti SC" font-size="2.7" text-anchor="start" fill="currentColor">必</text></g>
<g transform="translate(81.4373,74.4696)">
<text font-family="Songti SC" font-size="2.7" text-anchor="start" fill="currentColor">怜</text></g>
<g transform="translate(87.0777,74.4696)">
<text font-family="Songti SC" font-size="2.7" text-anchor="start" fill="currentColor">恤</text></g>
<g transform="translate(104.5333,74.4696)">
<text font-family="Songti SC" font-size="2.7" text-anchor="start" fill="currentColor">怜</text></g>
<g transform="translate(111.4113,74.4696)">
<text font-family="Songti SC" font-size="2.7" text-anchor="start" fill="currentColor">恤</text></g>
<g transform="translate(117.3016,74.4696)">
<text font-family="Songti SC" font-size="2.7" text-anchor="start" fill="currentColor">他</text></g>
<g transform="translate(125.4174,74.4696)">
<text font-family="Songti SC" font-size="2.7" text-anchor="start" fill="currentColor">也</text></g>
<g transform="translate(135.3078,74.4696)">
<text font-family="Songti SC" font-size="2.7" text-anchor="start" fill="currentColor">怜</text></g>
<g transform="translate(139.3973,74.4696)">
<text font-family="Songti SC" font-size="2.7" text-anchor="start" fill="currentColor">恤</text></g>
<g transform="translate(16.9338,102.568)">
<text font-family="Songti SC" font-size="2.7" text-anchor="start" fill="currentColor">你</text></g>
</svg>