<svg xmlns="http://www.w3.org/2000/svg" xmlns:xlink="http://www.w3.org/1999/xlink" version="1.2" width="215.90mm" height="279.40mm" viewBox="0.0000 -0.0000 153.5737 198.7425">
<style type="text/css">
<![CDATA[
tspan { white-space: pre; }
]]>
</style>
<g transform="translate(67.2374, 9.7784)">
<text font-family="Songti SC" font-weight="bold" font-size="3.1113" text-anchor="start" fill="currentColor">
<tspan>在荣耀里有一人</tspan>
</text>
</g>
<g transform="translate(73.7033, 13.2784)">
<text font-family="Songti SC" font-weight="bold" font-size="2.2001" text-anchor="start" fill="currentColor">
<tspan>赞美的话</tspan>
</text>
</g>
<g transform="translate(135.8548, 17.7501)">
<text font-family="Songti SC" font-size="5.8741" text-anchor="start" fill="currentColor">
<tspan>Cs27</tspan>
</text>
</g>
<g transform="translate(9.0337, 19.6922)">
<text font-family="Songti SC" font-weight="bold" font-style="italic" font-size="2.2001" text-anchor="start" fill="currentColor">
<tspan>(吉他: Capo 1)</tspan>
</text>
</g>
<g transform="translate(32.3588, 29.3116)">
<rect x="0.0000" y="-2.0000" width="0.2212" height="4.0000" ry="0.0000" fill="currentColor"/>
</g>
<g transform="translate(9.0337, 31.3116)">
<line stroke-linejoin="round" stroke-linecap="round" stroke-width="0.1164" stroke="currentColor" x1="0.0582" y1="0" x2="138.1582" y2="0"/>
</g>
<g transform="translate(9.0337, 30.3116)">
<line stroke-linejoin="round" stroke-linecap="round" stroke-width="0.1164" stroke="currentColor" x1="0.0582" y1="0" x2="138.1582" y2="0"/>
</g>
<g transform="translate(9.0337, 29.3116)">
<line stroke-linejoin="round" stroke-linecap="round" stroke-width="0.1164" stroke="currentColor" x1="0.0582" y1="0" x2="138.1582" y2="0"/>
</g>
<g transform="translate(9.0337, 28.3116)">
<line stroke-linejoin="round" stroke-linecap="round" stroke-width="0.1164" stroke="currentColor" x1="0.0582" y1="0" x2="138.1582" y2="0"/>
</g>
<g transform="translate(9.0337, 27.3116)">
<line stroke-linejoin="round" stroke-linecap="round" stroke-width="0.1164" stroke="currentColor" x1="0.0582" y1="0" x2="138.1582" y2="0"/>
</g>
<g transform="translate(147.0289, 29.3116)">
<rect x="0.0000" y="-2.0000" width="0.2212" height="4.0000" ry="0.0000" fill="currentColor"/>
</g>
<g transform="translate(106.5424, 29.3116)">
<rect x="0.0000" y="-2.0000" width="0.2212" height="4.0000" ry="0.0000" fill="currentColor"/>
</g>
<g transform="translate(69.4778, 29.3116)">
<rect x="0.0000" y="-2.0000" width="0.2212" height="4.0000" ry="0.0000" fill="currentColor"/>
</g>
<g transform="translate(21.9288, 25.7436)">
<text font-family="Hiragino Sans GB" font-size="1.9604" text-anchor="start" fill="currentColor">
<tspan>G</tspan>
</text>
</g>
<g transform="translate(21.9288, 29.8116)">
<path transform="scale(0.0040, -0.0040)" d="M212 138c68 0 113 -38 113 -95c0 -90 -109 -181 -212 -181c-68 0 -113 38 -113 95c0 90 109 181 212 181z" fill="currentColor"/>
</g>
<g transform="translate(9.8338, 30.3116)">
<path transform="scale(0.0040, -0.0040)" d="M647 2c0 -114 -75 -214 -180 -248c3 -33 4 -66 4 -99c0 -21 0 -41 -1 -62c-7 -122 -92 -229 -211 -229c-108 0 -196 88 -196 197c0 58 54 103 113 103c54 0 95 -47 95 -103c0 -52 -43 -95 -95 -95c-9 0 -18 1 -27 4c25 -37 66 -61 113 -61c93 0 156 91 162 191
c1 19 2 38 2 57c0 29 -1 58 -3 87c-5 -1 -44 -8 -88 -8c-194 0 -333 181 -333 376c0 177 129 308 244 443c-34 103 -55 171 -55 347c0 114 54 221 147 288c8 6 18 5 25 -1c68 -79 135 -242 135 -356c0 -142 -84 -255 -176 -364c21 -68 40 -136 57 -205c1 0 5 1 10 1
c157 0 258 -129 258 -263zM463 -201c64 24 110 88 110 161c0 88 -64 175 -167 188c28 -133 49 -269 57 -349zM77 25c0 -144 141 -243 261 -243c1 0 46 -1 81 5c-7 66 -27 208 -60 362c-79 -8 -124 -60 -124 -118c0 -43 25 -88 80 -120c5 -5 7 -11 7 -17
c0 -12 -10 -23 -23 -23c-16 0 -128 62 -128 188c0 89 60 177 163 200c-14 57 -30 113 -47 169c-105 -122 -210 -243 -210 -403zM242 784c0 -39 10 -95 39 -188c78 97 142 199 142 324c0 33 0 60 -20 118c-99 -46 -161 -145 -161 -254z" fill="currentColor"/>
</g>
<g transform="translate(13.4743, 29.3116)">
<path transform="scale(0.0040, -0.0040)" d="M31 37l-2 -62v-11c0 -22 2 -43 5 -64c43 38 89 80 89 137c0 32 -14 65 -42 65c-31 0 -49 -32 -50 -65zM-30 450c9 5 20 8 30 8s21 -3 30 -8l-8 -340c25 24 59 38 94 38c50 0 84 -50 84 -104c0 -78 -83 -117 -141 -169c-17 -15 -25 -44 -49 -44c-15 0 -26 13 -26 29z" fill="currentColor"/>
</g>
<g transform="translate(14.4148, 27.8116)">
<path transform="scale(0.0040, -0.0040)" d="M31 37l-2 -62v-11c0 -22 2 -43 5 -64c43 38 89 80 89 137c0 32 -14 65 -42 65c-31 0 -49 -32 -50 -65zM-30 450c9 5 20 8 30 8s21 -3 30 -8l-8 -340c25 24 59 38 94 38c50 0 84 -50 84 -104c0 -78 -83 -117 -141 -169c-17 -15 -25 -44 -49 -44c-15 0 -26 13 -26 29z" fill="currentColor"/>
</g>
<g transform="translate(15.3553, 29.8116)">
<path transform="scale(0.0040, -0.0040)" d="M31 37l-2 -62v-11c0 -22 2 -43 5 -64c43 38 89 80 89 137c0 32 -14 65 -42 65c-31 0 -49 -32 -50 -65zM-30 450c9 5 20 8 30 8s21 -3 30 -8l-8 -340c25 24 59 38 94 38c50 0 84 -50 84 -104c0 -78 -83 -117 -141 -169c-17 -15 -25 -44 -49 -44c-15 0 -26 13 -26 29z" fill="currentColor"/>
</g>
<g transform="translate(16.2959, 28.3116)">
<path transform="scale(0.0040, -0.0040)" d="M31 37l-2 -62v-11c0 -22 2 -43 5 -64c43 38 89 80 89 137c0 32 -14 65 -42 65c-31 0 -49 -32 -50 -65zM-30 450c9 5 20 8 30 8s21 -3 30 -8l-8 -340c25 24 59 38 94 38c50 0 84 -50 84 -104c0 -78 -83 -117 -141 -169c-17 -15 -25 -44 -49 -44c-15 0 -26 13 -26 29z" fill="currentColor"/>
</g>
<g transform="translate(18.2459, 29.3116)">
<path transform="scale(0.0040, -0.0040)" d="M250 265c114 0 172 -112 172 -166c0 -38 -30 -69 -66 -69c-30 0 -72 23 -72 72c0 37 26 75 70 75c3 0 6 -1 9 -1c-26 36 -67 59 -113 59c-107 0 -113 -74 -113 -189c0 -15 1 -30 1 -46s-1 -31 -1 -46c0 -115 6 -189 113 -189c78 0 133 70 151 149c2 8 8 11 14 11
c7 0 15 -5 15 -14c0 -21 -49 -176 -180 -176c-145 0 -250 88 -250 265c0 63 18 265 250 265z" fill="currentColor"/>
</g>
<g transform="translate(21.3415, 35.0168)">
<text font-family="Songti SC" font-size="2.4697" text-anchor="start" fill="currentColor">
<tspan>在</tspan>
</text>
</g>
<g transform="translate(18.8477, 35.0168)">
<text font-family="Songti SC" font-weight="bold" font-size="2.2001" text-anchor="start" fill="currentColor">
<tspan>1.</tspan>
</text>
</g>
<g transform="translate(23.1539, 29.3116)">
<rect x="-0.0757" y="-2.8182" width="0.1514" height="3.1469" ry="0.0500" fill="currentColor"/>
</g>
<g transform="translate(27.0606, 29.8116)">
<path transform="scale(0.0040, -0.0040)" d="M212 138c68 0 113 -38 113 -95c0 -90 -109 -181 -212 -181c-68 0 -113 38 -113 95c0 90 109 181 212 181z" fill="currentColor"/>
</g>
<g transform="translate(26.4733, 35.0168)">
<text font-family="Songti SC" font-size="2.4697" text-anchor="start" fill="currentColor">
<tspan>荣</tspan>
</text>
</g>
<g transform="translate(28.2858, 29.3116)">
<rect x="-0.0757" y="-2.8182" width="0.1514" height="3.1469" ry="0.0500" fill="currentColor"/>
</g>
<g transform="translate(35.1849, 29.8116)">
<path transform="scale(0.0040, -0.0040)" d="M310 63c0 22 -17 40 -40 40c-38 0 -197 -107 -224 -139c-7 -8 -10 -17 -10 -27c0 -22 17 -40 40 -40c38 0 197 107 224 139c7 8 10 17 10 27zM256 138c55 0 90 -22 90 -77c0 -25 -15 -112 -73 -151c-34 -23 -92 -48 -183 -48c-55 0 -90 22 -90 77c0 25 15 112 73 151
c34 23 92 48 183 48z" fill="currentColor"/>
</g>
<g transform="translate(34.6392, 35.0168)">
<text font-family="Songti SC" font-size="2.4697" text-anchor="start" fill="currentColor">
<tspan>耀</tspan>
</text>
</g>
<g transform="translate(36.4931, 29.3116)">
<rect x="-0.0757" y="-3.0000" width="0.1514" height="3.2544" ry="0.0500" fill="currentColor"/>
</g>
<g transform="translate(50.1968, 31.3116)">
<path transform="scale(0.0040, -0.0040)" d="M212 138c68 0 113 -38 113 -95c0 -90 -109 -181 -212 -181c-68 0 -113 38 -113 95c0 90 109 181 212 181z" fill="currentColor"/>
</g>
<g transform="translate(49.6095, 35.0168)">
<text font-family="Songti SC" font-size="2.4697" text-anchor="start" fill="currentColor">
<tspan>里</tspan>
</text>
</g>
<g transform="translate(51.4219, 29.3116)">
<rect x="-0.0757" y="-1.5000" width="0.1514" height="3.3287" ry="0.0500" fill="currentColor"/>
</g>
<g transform="translate(59.8791, 29.8116)">
<path transform="scale(0.0040, -0.0040)" d="M212 138c68 0 113 -38 113 -95c0 -90 -109 -181 -212 -181c-68 0 -113 38 -113 95c0 90 109 181 212 181z" fill="currentColor"/>
</g>
<g transform="translate(59.2919, 35.0168)">
<text font-family="Songti SC" font-size="2.4697" text-anchor="start" fill="currentColor">
<tspan>有</tspan>
</text>
</g>
<g transform="translate(61.1043, 29.3116)">
<rect x="-0.0757" y="-3.0000" width="0.1514" height="3.3287" ry="0.0500" fill="currentColor"/>
</g>
<g transform="translate(72.4042, 25.7436)">
<text font-family="Hiragino Sans GB" font-size="1.9604" text-anchor="start" fill="currentColor">
<tspan>D</tspan>
</text>
</g>
<g transform="translate(72.4042, 29.3116)">
<path transform="scale(0.0040, -0.0040)" d="M310 63c0 22 -17 40 -40 40c-38 0 -197 -107 -224 -139c-7 -8 -10 -17 -10 -27c0 -22 17 -40 40 -40c38 0 197 107 224 139c7 8 10 17 10 27zM256 138c55 0 90 -22 90 -77c0 -25 -15 -112 -73 -151c-34 -23 -92 -48 -183 -48c-55 0 -90 22 -90 77c0 25 15 112 73 151
c34 23 92 48 183 48z" fill="currentColor"/>
</g>
<g transform="translate(71.8584, 35.0168)">
<text font-family="Songti SC" font-size="2.4697" text-anchor="start" fill="currentColor">
<tspan>一</tspan>
</text>
</g>
<g transform="translate(72.4799, 29.3116)">
<rect x="-0.0757" y="0.2456" width="0.1514" height="3.0878" ry="0.0500" fill="currentColor"/>
</g>
<g transform="translate(87.4399, 31.3116)">
<path transform="scale(0.0040, -0.0040)" d="M212 138c68 0 113 -38 113 -95c0 -90 -109 -181 -212 -181c-68 0 -113 38 -113 95c0 90 109 181 212 181z" fill="currentColor"/>
</g>
<g transform="translate(85.6150, 35.0168)">
<text font-family="Songti SC" font-size="2.4697" text-anchor="start" fill="currentColor">
<tspan>人，</tspan>
</text>
</g>
<g transform="translate(88.6651, 29.3116)">
<rect x="-0.0757" y="-1.5000" width="0.1514" height="3.3287" ry="0.0500" fill="currentColor"/>
</g>
<g transform="translate(96.8723, 31.3116)">
<path transform="scale(0.0040, -0.0040)" d="M212 138c68 0 113 -38 113 -95c0 -90 -109 -181 -212 -181c-68 0 -113 38 -113 95c0 90 109 181 212 181z" fill="currentColor"/>
</g>
<g transform="translate(96.2850, 35.0168)">
<text font-family="Songti SC" font-size="2.4697" text-anchor="start" fill="currentColor">
<tspan>祂</tspan>
</text>
</g>
<g transform="translate(98.0974, 29.3116)">
<rect x="-0.0757" y="-1.5000" width="0.1514" height="3.3287" ry="0.0500" fill="currentColor"/>
</g>
<g transform="translate(23.0782, 26.4934)">
<polygon stroke-linejoin="round" stroke-linecap="round" stroke-width="0.1000" fill="currentColor" stroke="currentColor" points="5.2332 -0.1900 5.2332 0.1900 0.0500 0.1900 0.0500 -0.1900"/>
</g>
<g transform="translate(109.5016, 25.7436)">
<text font-family="Hiragino Sans GB" font-size="1.9604" text-anchor="start" fill="currentColor">
<tspan>G</tspan>
</text>
</g>
<g transform="translate(109.5016, 28.8116)">
<path transform="scale(0.0040, -0.0040)" d="M212 138c68 0 113 -38 113 -95c0 -90 -109 -181 -212 -181c-68 0 -113 38 -113 95c0 90 109 181 212 181z" fill="currentColor"/>
</g>
<g transform="translate(108.9143, 35.0168)">
<text font-family="Songti SC" font-size="2.4697" text-anchor="start" fill="currentColor">
<tspan>的</tspan>
</text>
</g>
<g transform="translate(109.5773, 29.3116)">
<rect x="-0.0757" y="-0.3287" width="0.1514" height="3.3287" ry="0.0500" fill="currentColor"/>
</g>
<g transform="translate(118.9339, 29.3116)">
<path transform="scale(0.0040, -0.0040)" d="M212 138c68 0 113 -38 113 -95c0 -90 -109 -181 -212 -181c-68 0 -113 38 -113 95c0 90 109 181 212 181z" fill="currentColor"/>
</g>
<g transform="translate(118.3467, 35.0168)">
<text font-family="Songti SC" font-size="2.4697" text-anchor="start" fill="currentColor">
<tspan>生</tspan>
</text>
</g>
<g transform="translate(119.0096, 29.3116)">
<rect x="-0.0757" y="0.1713" width="0.1514" height="3.1620" ry="0.0500" fill="currentColor"/>
</g>
<g transform="translate(128.3663, 28.8116)">
<path transform="scale(0.0040, -0.0040)" d="M212 138c68 0 113 -38 113 -95c0 -90 -109 -181 -212 -181c-68 0 -113 38 -113 95c0 90 109 181 212 181z" fill="currentColor"/>
</g>
<g transform="translate(127.7790, 35.0168)">
<text font-family="Songti SC" font-size="2.4697" text-anchor="start" fill="currentColor">
<tspan>命</tspan>
</text>
</g>
<g transform="translate(128.4420, 29.3116)">
<rect x="-0.0757" y="-0.3287" width="0.1514" height="3.3287" ry="0.0500" fill="currentColor"/>
</g>
<g transform="translate(137.7986, 28.3116)">
<path transform="scale(0.0040, -0.0040)" d="M212 138c68 0 113 -38 113 -95c0 -90 -109 -181 -212 -181c-68 0 -113 38 -113 95c0 90 109 181 212 181z" fill="currentColor"/>
</g>
<g transform="translate(137.2113, 35.0168)">
<text font-family="Songti SC" font-size="2.4697" text-anchor="start" fill="currentColor">
<tspan>是</tspan>
</text>
</g>
<g transform="translate(137.8743, 29.3116)">
<rect x="-0.0757" y="-0.8287" width="0.1514" height="3.3287" ry="0.0500" fill="currentColor"/>
</g>
<g transform="translate(48.9616, 41.9180)">
<rect x="0.0000" y="-2.0000" width="0.2212" height="4.0000" ry="0.0000" fill="currentColor"/>
</g>
<g transform="translate(9.0337, 43.9180)">
<line stroke-linejoin="round" stroke-linecap="round" stroke-width="0.1164" stroke="currentColor" x1="0.0582" y1="0" x2="138.1582" y2="0"/>
</g>
<g transform="translate(9.0337, 42.9180)">
<line stroke-linejoin="round" stroke-linecap="round" stroke-width="0.1164" stroke="currentColor" x1="0.0582" y1="0" x2="138.1582" y2="0"/>
</g>
<g transform="translate(9.0337, 41.9180)">
<line stroke-linejoin="round" stroke-linecap="round" stroke-width="0.1164" stroke="currentColor" x1="0.0582" y1="0" x2="138.1582" y2="0"/>
</g>
<g transform="translate(9.0337, 40.9180)">
<line stroke-linejoin="round" stroke-linecap="round" stroke-width="0.1164" stroke="currentColor" x1="0.0582" y1="0" x2="138.1582" y2="0"/>
</g>
<g transform="translate(9.0337, 39.9180)">
<line stroke-linejoin="round" stroke-linecap="round" stroke-width="0.1164" stroke="currentColor" x1="0.0582" y1="0" x2="138.1582" y2="0"/>
</g>
<g transform="translate(147.0289, 41.9180)">
<rect x="0.0000" y="-2.0000" width="0.2212" height="4.0000" ry="0.0000" fill="currentColor"/>
</g>
<g transform="translate(115.6649, 41.9180)">
<rect x="0.0000" y="-2.0000" width="0.2212" height="4.0000" ry="0.0000" fill="currentColor"/>
</g>
<g transform="translate(80.8967, 41.9180)">
<rect x="0.0000" y="-2.0000" width="0.2212" height="4.0000" ry="0.0000" fill="currentColor"/>
</g>
<g transform="translate(9.8338, 42.9180)">
<path transform="scale(0.0040, -0.0040)" d="M647 2c0 -114 -75 -214 -180 -248c3 -33 4 -66 4 -99c0 -21 0 -41 -1 -62c-7 -122 -92 -229 -211 -229c-108 0 -196 88 -196 197c0 58 54 103 113 103c54 0 95 -47 95 -103c0 -52 -43 -95 -95 -95c-9 0 -18 1 -27 4c25 -37 66 -61 113 -61c93 0 156 91 162 191
c1 19 2 38 2 57c0 29 -1 58 -3 87c-5 -1 -44 -8 -88 -8c-194 0 -333 181 -333 376c0 177 129 308 244 443c-34 103 -55 171 -55 347c0 114 54 221 147 288c8 6 18 5 25 -1c68 -79 135 -242 135 -356c0 -142 -84 -255 -176 -364c21 -68 40 -136 57 -205c1 0 5 1 10 1
c157 0 258 -129 258 -263zM463 -201c64 24 110 88 110 161c0 88 -64 175 -167 188c28 -133 49 -269 57 -349zM77 25c0 -144 141 -243 261 -243c1 0 46 -1 81 5c-7 66 -27 208 -60 362c-79 -8 -124 -60 -124 -118c0 -43 25 -88 80 -120c5 -5 7 -11 7 -17
c0 -12 -10 -23 -23 -23c-16 0 -128 62 -128 188c0 89 60 177 163 200c-14 57 -30 113 -47 169c-105 -122 -210 -243 -210 -403zM242 784c0 -39 10 -95 39 -188c78 97 142 199 142 324c0 33 0 60 -20 118c-99 -46 -161 -145 -161 -254z" fill="currentColor"/>
</g>
<g transform="translate(13.4743, 41.9180)">
<path transform="scale(0.0040, -0.0040)" d="M31 37l-2 -62v-11c0 -22 2 -43 5 -64c43 38 89 80 89 137c0 32 -14 65 -42 65c-31 0 -49 -32 -50 -65zM-30 450c9 5 20 8 30 8s21 -3 30 -8l-8 -340c25 24 59 38 94 38c50 0 84 -50 84 -104c0 -78 -83 -117 -141 -169c-17 -15 -25 -44 -49 -44c-15 0 -26 13 -26 29z" fill="currentColor"/>
</g>
<g transform="translate(14.4148, 40.4180)">
<path transform="scale(0.0040, -0.0040)" d="M31 37l-2 -62v-11c0 -22 2 -43 5 -64c43 38 89 80 89 137c0 32 -14 65 -42 65c-31 0 -49 -32 -50 -65zM-30 450c9 5 20 8 30 8s21 -3 30 -8l-8 -340c25 24 59 38 94 38c50 0 84 -50 84 -104c0 -78 -83 -117 -141 -169c-17 -15 -25 -44 -49 -44c-15 0 -26 13 -26 29z" fill="currentColor"/>
</g>
<g transform="translate(15.3553, 42.4180)">
<path transform="scale(0.0040, -0.0040)" d="M31 37l-2 -62v-11c0 -22 2 -43 5 -64c43 38 89 80 89 137c0 32 -14 65 -42 65c-31 0 -49 -32 -50 -65zM-30 450c9 5 20 8 30 8s21 -3 30 -8l-8 -340c25 24 59 38 94 38c50 0 84 -50 84 -104c0 -78 -83 -117 -141 -169c-17 -15 -25 -44 -49 -44c-15 0 -26 13 -26 29z" fill="currentColor"/>
</g>
<g transform="translate(16.2959, 40.9180)">
<path transform="scale(0.0040, -0.0040)" d="M31 37l-2 -62v-11c0 -22 2 -43 5 -64c43 38 89 80 89 137c0 32 -14 65 -42 65c-31 0 -49 -32 -50 -65zM-30 450c9 5 20 8 30 8s21 -3 30 -8l-8 -340c25 24 59 38 94 38c50 0 84 -50 84 -104c0 -78 -83 -117 -141 -169c-17 -15 -25 -44 -49 -44c-15 0 -26 13 -26 29z" fill="currentColor"/>
</g>
<g transform="translate(8.2228, 38.9448)">
<text font-family="Songti SC" font-size="1.7463" text-anchor="start" fill="currentColor">
<tspan>4</tspan>
</text>
</g>
<g transform="translate(19.5959, 38.4160)">
<text font-family="Hiragino Sans GB" font-size="1.9604" text-anchor="start" fill="currentColor">
<tspan>G</tspan>
</text>
</g>
<g transform="translate(19.5959, 41.4180)">
<path transform="scale(0.0040, -0.0040)" d="M310 63c0 22 -17 40 -40 40c-38 0 -197 -107 -224 -139c-7 -8 -10 -17 -10 -27c0 -22 17 -40 40 -40c38 0 197 107 224 139c7 8 10 17 10 27zM256 138c55 0 90 -22 90 -77c0 -25 -15 -112 -73 -151c-34 -23 -92 -48 -183 -48c-55 0 -90 22 -90 77c0 25 15 112 73 151
c34 23 92 48 183 48z" fill="currentColor"/>
</g>
<g transform="translate(19.0501, 47.6775)">
<text font-family="Songti SC" font-size="2.4697" text-anchor="start" fill="currentColor">
<tspan>为</tspan>
</text>
</g>
<g transform="translate(19.6715, 41.9180)">
<rect x="-0.0757" y="-0.2544" width="0.1514" height="3.2544" ry="0.0500" fill="currentColor"/>
</g>
<g transform="translate(32.5994, 38.4160)">
<text font-family="Hiragino Sans GB" font-size="1.9604" text-anchor="start" fill="currentColor">
<tspan>D</tspan>
</text>
</g>
<g transform="translate(32.5994, 41.9180)">
<path transform="scale(0.0040, -0.0040)" d="M212 138c68 0 113 -38 113 -95c0 -90 -109 -181 -212 -181c-68 0 -113 38 -113 95c0 90 109 181 212 181z" fill="currentColor"/>
</g>
<g transform="translate(30.7745, 47.6775)">
<text font-family="Songti SC" font-size="2.4697" text-anchor="start" fill="currentColor">
<tspan>我。</tspan>
</text>
</g>
<g transform="translate(32.6751, 41.9180)">
<rect x="-0.0757" y="0.1713" width="0.1514" height="3.1620" ry="0.0500" fill="currentColor"/>
</g>
<g transform="translate(40.6861, 42.4180)">
<path transform="scale(0.0040, -0.0040)" d="M212 138c68 0 113 -38 113 -95c0 -90 -109 -181 -212 -181c-68 0 -113 38 -113 95c0 90 109 181 212 181z" fill="currentColor"/>
</g>
<g transform="translate(40.0988, 47.6775)">
<text font-family="Songti SC" font-size="2.4697" text-anchor="start" fill="currentColor">
<tspan>祂</tspan>
</text>
</g>
<g transform="translate(41.9113, 41.9180)">
<rect x="-0.0757" y="-3.0000" width="0.1514" height="3.3287" ry="0.0500" fill="currentColor"/>
</g>
<g transform="translate(83.3722, 41.9180)">
<path stroke-width="0.0931" stroke-linejoin="round" stroke-linecap="round" stroke="currentColor" fill="currentColor" d="M0.6851 2.2027C2.3731 3.4294 7.3231 3.0326 8.7942 1.5527L8.7942 1.5527C7.3120 2.8934 2.3619 3.2901 0.6851 2.2027z"/>
</g>
<g transform="translate(51.4371, 38.4160)">
<text font-family="Hiragino Sans GB" font-size="1.9604" text-anchor="start" fill="currentColor">
<tspan>E</tspan>
</text>
</g>
<g transform="translate(52.7174, 38.4160)">
<text font-family="Hiragino Sans GB" font-size="1.9604" text-anchor="start" fill="currentColor">
<tspan>m</tspan>
</text>
</g>
<g transform="translate(51.4371, 42.4180)">
<path transform="scale(0.0040, -0.0040)" d="M310 63c0 22 -17 40 -40 40c-38 0 -197 -107 -224 -139c-7 -8 -10 -17 -10 -27c0 -22 17 -40 40 -40c38 0 197 107 224 139c7 8 10 17 10 27zM256 138c55 0 90 -22 90 -77c0 -25 -15 -112 -73 -151c-34 -23 -92 -48 -183 -48c-55 0 -90 22 -90 77c0 25 15 112 73 151
c34 23 92 48 183 48z" fill="currentColor"/>
</g>
<g transform="translate(50.8913, 47.6775)">
<text font-family="Songti SC" font-size="2.4697" text-anchor="start" fill="currentColor">
<tspan>是</tspan>
</text>
</g>
<g transform="translate(52.7453, 41.9180)">
<rect x="-0.0757" y="-3.0000" width="0.1514" height="3.2544" ry="0.0500" fill="currentColor"/>
</g>
<g transform="translate(64.4406, 42.9180)">
<path transform="scale(0.0040, -0.0040)" d="M212 138c68 0 113 -38 113 -95c0 -90 -109 -181 -212 -181c-68 0 -113 38 -113 95c0 90 109 181 212 181z" fill="currentColor"/>
</g>
<g transform="translate(63.8534, 47.6775)">
<text font-family="Songti SC" font-size="2.4697" text-anchor="start" fill="currentColor">
<tspan>完</tspan>
</text>
</g>
<g transform="translate(65.6658, 41.9180)">
<rect x="-0.0757" y="-2.5000" width="0.1514" height="3.3287" ry="0.0500" fill="currentColor"/>
</g>
<g transform="translate(72.5498, 43.4180)">
<path transform="scale(0.0040, -0.0040)" d="M212 138c68 0 113 -38 113 -95c0 -90 -109 -181 -212 -181c-68 0 -113 38 -113 95c0 90 109 181 212 181z" fill="currentColor"/>
</g>
<g transform="translate(71.9625, 47.6775)">
<text font-family="Songti SC" font-size="2.4697" text-anchor="start" fill="currentColor">
<tspan>全</tspan>
</text>
</g>
<g transform="translate(73.7749, 41.9180)">
<rect x="-0.0757" y="-2.0000" width="0.1514" height="3.3287" ry="0.0500" fill="currentColor"/>
</g>
<g transform="translate(83.3722, 38.4160)">
<text font-family="Hiragino Sans GB" font-size="1.9604" text-anchor="start" fill="currentColor">
<tspan>D</tspan>
</text>
</g>
<g transform="translate(83.3722, 42.9180)">
<path transform="scale(0.0040, -0.0040)" d="M212 138c68 0 113 -38 113 -95c0 -90 -109 -181 -212 -181c-68 0 -113 38 -113 95c0 90 109 181 212 181z" fill="currentColor"/>
</g>
<g transform="translate(83.3722, 47.6775)">
<text font-family="Songti SC" font-size="2.4697" text-anchor="start" fill="currentColor">
<tspan>圣</tspan>
</text>
</g>
<g transform="translate(84.5973, 41.9180)">
<rect x="-0.0757" y="-2.5000" width="0.1514" height="3.3287" ry="0.0500" fill="currentColor"/>
</g>
<g transform="translate(91.4813, 42.4180)">
<path transform="scale(0.0040, -0.0040)" d="M212 138c68 0 113 -38 113 -95c0 -90 -109 -181 -212 -181c-68 0 -113 38 -113 95c0 90 109 181 212 181z" fill="currentColor"/>
</g>
<g transform="translate(92.7065, 41.9180)">
<rect x="-0.0757" y="-3.0000" width="0.1514" height="3.3287" ry="0.0500" fill="currentColor"/>
</g>
<g transform="translate(99.6129, 41.9180)">
<path transform="scale(0.0040, -0.0040)" d="M212 138c68 0 113 -38 113 -95c0 -90 -109 -181 -212 -181c-68 0 -113 38 -113 95c0 90 109 181 212 181z" fill="currentColor"/>
</g>
<g transform="translate(97.7880, 47.6775)">
<text font-family="Songti SC" font-size="2.4697" text-anchor="start" fill="currentColor">
<tspan>洁，</tspan>
</text>
</g>
<g transform="translate(99.6886, 41.9180)">
<rect x="-0.0757" y="0.1713" width="0.1514" height="3.1620" ry="0.0500" fill="currentColor"/>
</g>
<g transform="translate(107.7221, 41.4180)">
<path transform="scale(0.0040, -0.0040)" d="M212 138c68 0 113 -38 113 -95c0 -90 -109 -181 -212 -181c-68 0 -113 38 -113 95c0 90 109 181 212 181z" fill="currentColor"/>
</g>
<g transform="translate(107.1348, 47.6775)">
<text font-family="Songti SC" font-size="2.4697" text-anchor="start" fill="currentColor">
<tspan>自</tspan>
</text>
</g>
<g transform="translate(107.7977, 41.9180)">
<rect x="-0.0757" y="-0.3287" width="0.1514" height="3.3287" ry="0.0500" fill="currentColor"/>
</g>
<g transform="translate(118.1404, 38.4160)">
<text font-family="Hiragino Sans GB" font-size="1.9604" text-anchor="start" fill="currentColor">
<tspan>A</tspan>
</text>
</g>
<g transform="translate(118.1404, 42.9180)">
<path transform="scale(0.0040, -0.0040)" d="M310 63c0 22 -17 40 -40 40c-38 0 -197 -107 -224 -139c-7 -8 -10 -17 -10 -27c0 -22 17 -40 40 -40c38 0 197 107 224 139c7 8 10 17 10 27zM256 138c55 0 90 -22 90 -77c0 -25 -15 -112 -73 -151c-34 -23 -92 -48 -183 -48c-55 0 -90 22 -90 77c0 25 15 112 73 151
c34 23 92 48 183 48z" fill="currentColor"/>
</g>
<g transform="translate(117.5946, 47.6775)">
<text font-family="Songti SC" font-size="2.4697" text-anchor="start" fill="currentColor">
<tspan>由</tspan>
</text>
</g>
<g transform="translate(119.4485, 41.9180)">
<rect x="-0.0757" y="-2.5000" width="0.1514" height="3.2544" ry="0.0500" fill="currentColor"/>
</g>
<g transform="translate(131.1439, 38.4160)">
<text font-family="Hiragino Sans GB" font-size="1.9604" text-anchor="start" fill="currentColor">
<tspan>A</tspan>
</text>
</g>
<g transform="translate(132.5950, 37.5251)">
<text font-family="Hiragino Sans GB" font-size="1.3856" text-anchor="start" fill="currentColor">
<tspan>7</tspan>
</text>
</g>
<g transform="translate(131.1439, 43.4180)">
<path transform="scale(0.0040, -0.0040)" d="M212 138c68 0 113 -38 113 -95c0 -90 -109 -181 -212 -181c-68 0 -113 38 -113 95c0 90 109 181 212 181z" fill="currentColor"/>
</g>
<g transform="translate(130.5567, 47.6775)">
<text font-family="Songti SC" font-size="2.4697" text-anchor="start" fill="currentColor">
<tspan>且</tspan>
</text>
</g>
<g transform="translate(132.8862, 43.4180)">
<path transform="scale(0.0040, -0.0040)" d="M0 0c0 30 25 55 55 55s55 -25 55 -55s-25 -55 -55 -55s-55 25 -55 55z" fill="currentColor"/>
</g>
<g transform="translate(132.3691, 41.9180)">
<rect x="-0.0757" y="-2.0000" width="0.1514" height="3.3287" ry="0.0500" fill="currentColor"/>
</g>
<g transform="translate(142.0676, 43.9180)">
<path transform="scale(0.0040, -0.0040)" d="M212 138c68 0 113 -38 113 -95c0 -90 -109 -181 -212 -181c-68 0 -113 38 -113 95c0 90 109 181 212 181z" fill="currentColor"/>
</g>
<g transform="translate(141.4803, 47.6775)">
<text font-family="Songti SC" font-size="2.4697" text-anchor="start" fill="currentColor">
<tspan>超</tspan>
</text>
</g>
<g transform="translate(143.2927, 41.9180)">
<rect x="-0.0757" y="-1.5000" width="0.1514" height="3.3287" ry="0.0500" fill="currentColor"/>
</g>
<g transform="translate(143.3684, 40.4680)">
<path transform="scale(0.0040, -0.0040)" d="M0 -250h-19v250h19c0 -197 207 -334 207 -531c0 -71 -15 -140 -41 -206c-5 -9 -14 -13 -22 -13c-14 0 -29 12 -26 30c26 60 43 124 43 189c0 102 -92 206 -161 281z" fill="currentColor"/>
</g>
<g transform="translate(47.5418, 53.9180)">
<rect x="0.0000" y="-2.0000" width="0.2212" height="4.0000" ry="0.0000" fill="currentColor"/>
</g>
<g transform="translate(9.0337, 55.9180)">
<line stroke-linejoin="round" stroke-linecap="round" stroke-width="0.1164" stroke="currentColor" x1="0.0582" y1="0" x2="138.1582" y2="0"/>
</g>
<g transform="translate(9.0337, 54.9180)">
<line stroke-linejoin="round" stroke-linecap="round" stroke-width="0.1164" stroke="currentColor" x1="0.0582" y1="0" x2="138.1582" y2="0"/>
</g>
<g transform="translate(9.0337, 53.9180)">
<line stroke-linejoin="round" stroke-linecap="round" stroke-width="0.1164" stroke="currentColor" x1="0.0582" y1="0" x2="138.1582" y2="0"/>
</g>
<g transform="translate(9.0337, 52.9180)">
<line stroke-linejoin="round" stroke-linecap="round" stroke-width="0.1164" stroke="currentColor" x1="0.0582" y1="0" x2="138.1582" y2="0"/>
</g>
<g transform="translate(9.0337, 51.9180)">
<line stroke-linejoin="round" stroke-linecap="round" stroke-width="0.1164" stroke="currentColor" x1="0.0582" y1="0" x2="138.1582" y2="0"/>
</g>
<g transform="translate(147.0289, 53.9180)">
<rect x="0.0000" y="-2.0000" width="0.2212" height="4.0000" ry="0.0000" fill="currentColor"/>
</g>
<g transform="translate(111.7717, 53.9180)">
<rect x="0.0000" y="-2.0000" width="0.2212" height="4.0000" ry="0.0000" fill="currentColor"/>
</g>
<g transform="translate(79.6711, 53.9180)">
<rect x="0.0000" y="-2.0000" width="0.2212" height="4.0000" ry="0.0000" fill="currentColor"/>
</g>
<g transform="translate(9.8338, 54.9180)">
<path transform="scale(0.0040, -0.0040)" d="M647 2c0 -114 -75 -214 -180 -248c3 -33 4 -66 4 -99c0 -21 0 -41 -1 -62c-7 -122 -92 -229 -211 -229c-108 0 -196 88 -196 197c0 58 54 103 113 103c54 0 95 -47 95 -103c0 -52 -43 -95 -95 -95c-9 0 -18 1 -27 4c25 -37 66 -61 113 -61c93 0 156 91 162 191
c1 19 2 38 2 57c0 29 -1 58 -3 87c-5 -1 -44 -8 -88 -8c-194 0 -333 181 -333 376c0 177 129 308 244 443c-34 103 -55 171 -55 347c0 114 54 221 147 288c8 6 18 5 25 -1c68 -79 135 -242 135 -356c0 -142 -84 -255 -176 -364c21 -68 40 -136 57 -205c1 0 5 1 10 1
c157 0 258 -129 258 -263zM463 -201c64 24 110 88 110 161c0 88 -64 175 -167 188c28 -133 49 -269 57 -349zM77 25c0 -144 141 -243 261 -243c1 0 46 -1 81 5c-7 66 -27 208 -60 362c-79 -8 -124 -60 -124 -118c0 -43 25 -88 80 -120c5 -5 7 -11 7 -17
c0 -12 -10 -23 -23 -23c-16 0 -128 62 -128 188c0 89 60 177 163 200c-14 57 -30 113 -47 169c-105 -122 -210 -243 -210 -403zM242 784c0 -39 10 -95 39 -188c78 97 142 199 142 324c0 33 0 60 -20 118c-99 -46 -161 -145 -161 -254z" fill="currentColor"/>
</g>
<g transform="translate(13.4743, 53.9180)">
<path transform="scale(0.0040, -0.0040)" d="M31 37l-2 -62v-11c0 -22 2 -43 5 -64c43 38 89 80 89 137c0 32 -14 65 -42 65c-31 0 -49 -32 -50 -65zM-30 450c9 5 20 8 30 8s21 -3 30 -8l-8 -340c25 24 59 38 94 38c50 0 84 -50 84 -104c0 -78 -83 -117 -141 -169c-17 -15 -25 -44 -49 -44c-15 0 -26 13 -26 29z" fill="currentColor"/>
</g>
<g transform="translate(14.4148, 52.4180)">
<path transform="scale(0.0040, -0.0040)" d="M31 37l-2 -62v-11c0 -22 2 -43 5 -64c43 38 89 80 89 137c0 32 -14 65 -42 65c-31 0 -49 -32 -50 -65zM-30 450c9 5 20 8 30 8s21 -3 30 -8l-8 -340c25 24 59 38 94 38c50 0 84 -50 84 -104c0 -78 -83 -117 -141 -169c-17 -15 -25 -44 -49 -44c-15 0 -26 13 -26 29z" fill="currentColor"/>
</g>
<g transform="translate(15.3553, 54.4180)">
<path transform="scale(0.0040, -0.0040)" d="M31 37l-2 -62v-11c0 -22 2 -43 5 -64c43 38 89 80 89 137c0 32 -14 65 -42 65c-31 0 -49 -32 -50 -65zM-30 450c9 5 20 8 30 8s21 -3 30 -8l-8 -340c25 24 59 38 94 38c50 0 84 -50 84 -104c0 -78 -83 -117 -141 -169c-17 -15 -25 -44 -49 -44c-15 0 -26 13 -26 29z" fill="currentColor"/>
</g>
<g transform="translate(16.2959, 52.9180)">
<path transform="scale(0.0040, -0.0040)" d="M31 37l-2 -62v-11c0 -22 2 -43 5 -64c43 38 89 80 89 137c0 32 -14 65 -42 65c-31 0 -49 -32 -50 -65zM-30 450c9 5 20 8 30 8s21 -3 30 -8l-8 -340c25 24 59 38 94 38c50 0 84 -50 84 -104c0 -78 -83 -117 -141 -169c-17 -15 -25 -44 -49 -44c-15 0 -26 13 -26 29z" fill="currentColor"/>
</g>
<g transform="translate(8.2228, 50.9448)">
<text font-family="Songti SC" font-size="1.7463" text-anchor="start" fill="currentColor">
<tspan>8</tspan>
</text>
</g>
<g transform="translate(19.5959, 51.3299)">
<text font-family="Hiragino Sans GB" font-size="1.9604" text-anchor="start" fill="currentColor">
<tspan>D</tspan>
</text>
</g>
<g transform="translate(19.5959, 55.9180)">
<path transform="scale(0.0040, -0.0040)" d="M310 63c0 22 -17 40 -40 40c-38 0 -197 -107 -224 -139c-7 -8 -10 -17 -10 -27c0 -22 17 -40 40 -40c38 0 197 107 224 139c7 8 10 17 10 27zM256 138c55 0 90 -22 90 -77c0 -25 -15 -112 -73 -151c-34 -23 -92 -48 -183 -48c-55 0 -90 22 -90 77c0 25 15 112 73 151
c34 23 92 48 183 48z" fill="currentColor"/>
</g>
<g transform="translate(17.8124, 59.5985)">
<text font-family="Songti SC" font-size="2.4697" text-anchor="start" fill="currentColor">
<tspan>脱，</tspan>
</text>
</g>
<g transform="translate(21.4212, 55.4180)">
<path transform="scale(0.0040, -0.0040)" d="M0 0c0 30 25 55 55 55s55 -25 55 -55s-25 -55 -55 -55s-55 25 -55 55z" fill="currentColor"/>
</g>
<g transform="translate(20.9041, 53.9180)">
<rect x="-0.0757" y="-1.5000" width="0.1514" height="3.2544" ry="0.0500" fill="currentColor"/>
</g>
<g transform="translate(114.3792, 53.9180)">
<path stroke-width="0.0931" stroke-linejoin="round" stroke-linecap="round" stroke="currentColor" fill="currentColor" d="M0.6320 -1.2052C2.1671 -2.6450 7.1937 -2.8592 8.8449 -1.5552L8.8449 -1.5552C7.1996 -2.7196 2.1730 -2.5054 0.6320 -1.2052z"/>
</g>
<g transform="translate(32.5927, 51.3299)">
<text font-family="Hiragino Sans GB" font-size="1.9604" text-anchor="start" fill="currentColor">
<tspan>D</tspan>
</text>
</g>
<g transform="translate(34.0865, 50.4390)">
<text font-family="Hiragino Sans GB" font-size="1.3856" text-anchor="start" fill="currentColor">
<tspan>7</tspan>
</text>
</g>
<g transform="translate(39.0911, 55.9180)">
<path transform="scale(0.0040, -0.0040)" d="M212 138c68 0 113 -38 113 -95c0 -90 -109 -181 -212 -181c-68 0 -113 38 -113 95c0 90 109 181 212 181z" fill="currentColor"/>
</g>
<g transform="translate(38.5039, 59.5985)">
<text font-family="Songti SC" font-size="2.4697" text-anchor="start" fill="currentColor">
<tspan>祂</tspan>
</text>
</g>
<g transform="translate(40.3163, 53.9180)">
<rect x="-0.0757" y="-1.5000" width="0.1514" height="3.3287" ry="0.0500" fill="currentColor"/>
</g>
<g transform="translate(50.2308, 51.3299)">
<text font-family="Hiragino Sans GB" font-size="1.9604" text-anchor="start" fill="currentColor">
<tspan>G</tspan>
</text>
</g>
<g transform="translate(50.2308, 52.4180)">
<path transform="scale(0.0040, -0.0040)" d="M310 63c0 22 -17 40 -40 40c-38 0 -197 -107 -224 -139c-7 -8 -10 -17 -10 -27c0 -22 17 -40 40 -40c38 0 197 107 224 139c7 8 10 17 10 27zM256 138c55 0 90 -22 90 -77c0 -25 -15 -112 -73 -151c-34 -23 -92 -48 -183 -48c-55 0 -90 22 -90 77c0 25 15 112 73 151
c34 23 92 48 183 48z" fill="currentColor"/>
</g>
<g transform="translate(49.6850, 59.5985)">
<text font-family="Songti SC" font-size="2.4697" text-anchor="start" fill="currentColor">
<tspan>是</tspan>
</text>
</g>
<g transform="translate(50.3065, 53.9180)">
<rect x="-0.0757" y="-1.2544" width="0.1514" height="3.2544" ry="0.0500" fill="currentColor"/>
</g>
<g transform="translate(63.4115, 52.9180)">
<path transform="scale(0.0040, -0.0040)" d="M212 138c68 0 113 -38 113 -95c0 -90 -109 -181 -212 -181c-68 0 -113 38 -113 95c0 90 109 181 212 181z" fill="currentColor"/>
</g>
<g transform="translate(62.8242, 59.5985)">
<text font-family="Songti SC" font-size="2.4697" text-anchor="start" fill="currentColor">
<tspan>全</tspan>
</text>
</g>
<g transform="translate(63.4872, 53.9180)">
<rect x="-0.0757" y="-0.8287" width="0.1514" height="3.3287" ry="0.0500" fill="currentColor"/>
</g>
<g transform="translate(71.6245, 53.4180)">
<path transform="scale(0.0040, -0.0040)" d="M212 138c68 0 113 -38 113 -95c0 -90 -109 -181 -212 -181c-68 0 -113 38 -113 95c0 90 109 181 212 181z" fill="currentColor"/>
</g>
<g transform="translate(69.7995, 59.5985)">
<text font-family="Songti SC" font-size="2.4697" text-anchor="start" fill="currentColor">
<tspan>智、</tspan>
</text>
</g>
<g transform="translate(71.7001, 53.9180)">
<rect x="-0.0757" y="-0.3287" width="0.1514" height="3.3287" ry="0.0500" fill="currentColor"/>
</g>
<g transform="translate(82.3315, 51.3299)">
<text font-family="Hiragino Sans GB" font-size="1.9604" text-anchor="start" fill="currentColor">
<tspan>C</tspan>
</text>
</g>
<g transform="translate(82.3315, 52.9180)">
<path transform="scale(0.0040, -0.0040)" d="M310 63c0 22 -17 40 -40 40c-38 0 -197 -107 -224 -139c-7 -8 -10 -17 -10 -27c0 -22 17 -40 40 -40c38 0 197 107 224 139c7 8 10 17 10 27zM256 138c55 0 90 -22 90 -77c0 -25 -15 -112 -73 -151c-34 -23 -92 -48 -183 -48c-55 0 -90 22 -90 77c0 25 15 112 73 151
c34 23 92 48 183 48z" fill="currentColor"/>
</g>
<g transform="translate(81.7857, 59.5985)">
<text font-family="Songti SC" font-size="2.4697" text-anchor="start" fill="currentColor">
<tspan>仁</tspan>
</text>
</g>
<g transform="translate(82.4071, 53.9180)">
<rect x="-0.0757" y="-0.7544" width="0.1514" height="3.2544" ry="0.0500" fill="currentColor"/>
</g>
<g transform="translate(95.5122, 51.3299)">
<text font-family="Hiragino Sans GB" font-size="1.9604" text-anchor="start" fill="currentColor">
<tspan>G</tspan>
</text>
</g>
<g transform="translate(95.5122, 53.4180)">
<path transform="scale(0.0040, -0.0040)" d="M212 138c68 0 113 -38 113 -95c0 -90 -109 -181 -212 -181c-68 0 -113 38 -113 95c0 90 109 181 212 181z" fill="currentColor"/>
</g>
<g transform="translate(93.6872, 59.5985)">
<text font-family="Songti SC" font-size="2.4697" text-anchor="start" fill="currentColor">
<tspan>慈，</tspan>
</text>
</g>
<g transform="translate(95.5879, 53.9180)">
<rect x="-0.0757" y="-0.3287" width="0.1514" height="3.3287" ry="0.0500" fill="currentColor"/>
</g>
<g transform="translate(103.7251, 53.4180)">
<path transform="scale(0.0040, -0.0040)" d="M212 138c68 0 113 -38 113 -95c0 -90 -109 -181 -212 -181c-68 0 -113 38 -113 95c0 90 109 181 212 181z" fill="currentColor"/>
</g>
<g transform="translate(103.1378, 59.5985)">
<text font-family="Songti SC" font-size="2.4697" text-anchor="start" fill="currentColor">
<tspan>祂</tspan>
</text>
</g>
<g transform="translate(103.8008, 53.9180)">
<rect x="-0.0757" y="-0.3287" width="0.1514" height="3.3287" ry="0.0500" fill="currentColor"/>
</g>
<g transform="translate(114.3792, 51.3299)">
<text font-family="Hiragino Sans GB" font-size="1.9604" text-anchor="start" fill="currentColor">
<tspan>A</tspan>
</text>
</g>
<g transform="translate(115.8303, 50.4390)">
<text font-family="Hiragino Sans GB" font-size="1.3856" text-anchor="start" fill="currentColor">
<tspan>7</tspan>
</text>
</g>
<g transform="translate(114.3792, 53.9180)">
<path transform="scale(0.0040, -0.0040)" d="M212 138c68 0 113 -38 113 -95c0 -90 -109 -181 -212 -181c-68 0 -113 38 -113 95c0 90 109 181 212 181z" fill="currentColor"/>
</g>
<g transform="translate(114.3792, 59.5985)">
<text font-family="Songti SC" font-size="2.4697" text-anchor="start" fill="currentColor">
<tspan>是</tspan>
</text>
</g>
<g transform="translate(114.4549, 53.9180)">
<rect x="-0.0757" y="0.1713" width="0.1514" height="3.1620" ry="0.0500" fill="currentColor"/>
</g>
<g transform="translate(122.5921, 53.4180)">
<path transform="scale(0.0040, -0.0040)" d="M212 138c68 0 113 -38 113 -95c0 -90 -109 -181 -212 -181c-68 0 -113 38 -113 95c0 90 109 181 212 181z" fill="currentColor"/>
</g>
<g transform="translate(122.6678, 53.9180)">
<rect x="-0.0757" y="-0.3287" width="0.1514" height="3.3287" ry="0.0500" fill="currentColor"/>
</g>
<g transform="translate(130.7112, 54.4180)">
<path transform="scale(0.0040, -0.0040)" d="M212 138c68 0 113 -38 113 -95c0 -90 -109 -181 -212 -181c-68 0 -113 38 -113 95c0 90 109 181 212 181z" fill="currentColor"/>
</g>
<g transform="translate(130.1239, 59.5985)">
<text font-family="Songti SC" font-size="2.4697" text-anchor="start" fill="currentColor">
<tspan>何</tspan>
</text>
</g>
<g transform="translate(131.9363, 53.9180)">
<rect x="-0.0757" y="-3.0000" width="0.1514" height="3.3287" ry="0.0500" fill="currentColor"/>
</g>
<g transform="translate(138.9466, 53.9180)">
<path transform="scale(0.0040, -0.0040)" d="M212 138c68 0 113 -38 113 -95c0 -90 -109 -181 -212 -181c-68 0 -113 38 -113 95c0 90 109 181 212 181z" fill="currentColor"/>
</g>
<g transform="translate(138.3593, 59.5985)">
<text font-family="Songti SC" font-size="2.4697" text-anchor="start" fill="currentColor">
<tspan>温</tspan>
</text>
</g>
<g transform="translate(139.0223, 53.9180)">
<rect x="-0.0757" y="0.1713" width="0.1514" height="3.1620" ry="0.0500" fill="currentColor"/>
</g>
<g transform="translate(50.6166, 66.2523)">
<rect x="0.0000" y="-2.0000" width="0.2212" height="4.0000" ry="0.0000" fill="currentColor"/>
</g>
<g transform="translate(9.0337, 68.2523)">
<line stroke-linejoin="round" stroke-linecap="round" stroke-width="0.1164" stroke="currentColor" x1="0.0582" y1="0" x2="138.1582" y2="0"/>
</g>
<g transform="translate(9.0337, 67.2523)">
<line stroke-linejoin="round" stroke-linecap="round" stroke-width="0.1164" stroke="currentColor" x1="0.0582" y1="0" x2="138.1582" y2="0"/>
</g>
<g transform="translate(9.0337, 66.2523)">
<line stroke-linejoin="round" stroke-linecap="round" stroke-width="0.1164" stroke="currentColor" x1="0.0582" y1="0" x2="138.1582" y2="0"/>
</g>
<g transform="translate(9.0337, 65.2523)">
<line stroke-linejoin="round" stroke-linecap="round" stroke-width="0.1164" stroke="currentColor" x1="0.0582" y1="0" x2="138.1582" y2="0"/>
</g>
<g transform="translate(9.0337, 64.2523)">
<line stroke-linejoin="round" stroke-linecap="round" stroke-width="0.1164" stroke="currentColor" x1="0.0582" y1="0" x2="138.1582" y2="0"/>
</g>
<g transform="translate(147.0289, 66.2523)">
<rect x="0.0000" y="-2.0000" width="0.2212" height="4.0000" ry="0.0000" fill="currentColor"/>
</g>
<g transform="translate(113.8315, 66.2523)">
<rect x="0.0000" y="-2.0000" width="0.2212" height="4.0000" ry="0.0000" fill="currentColor"/>
</g>
<g transform="translate(83.7748, 66.2523)">
<rect x="0.0000" y="-2.0000" width="0.2212" height="4.0000" ry="0.0000" fill="currentColor"/>
</g>
<g transform="translate(9.8338, 67.2523)">
<path transform="scale(0.0040, -0.0040)" d="M647 2c0 -114 -75 -214 -180 -248c3 -33 4 -66 4 -99c0 -21 0 -41 -1 -62c-7 -122 -92 -229 -211 -229c-108 0 -196 88 -196 197c0 58 54 103 113 103c54 0 95 -47 95 -103c0 -52 -43 -95 -95 -95c-9 0 -18 1 -27 4c25 -37 66 -61 113 -61c93 0 156 91 162 191
c1 19 2 38 2 57c0 29 -1 58 -3 87c-5 -1 -44 -8 -88 -8c-194 0 -333 181 -333 376c0 177 129 308 244 443c-34 103 -55 171 -55 347c0 114 54 221 147 288c8 6 18 5 25 -1c68 -79 135 -242 135 -356c0 -142 -84 -255 -176 -364c21 -68 40 -136 57 -205c1 0 5 1 10 1
c157 0 258 -129 258 -263zM463 -201c64 24 110 88 110 161c0 88 -64 175 -167 188c28 -133 49 -269 57 -349zM77 25c0 -144 141 -243 261 -243c1 0 46 -1 81 5c-7 66 -27 208 -60 362c-79 -8 -124 -60 -124 -118c0 -43 25 -88 80 -120c5 -5 7 -11 7 -17
c0 -12 -10 -23 -23 -23c-16 0 -128 62 -128 188c0 89 60 177 163 200c-14 57 -30 113 -47 169c-105 -122 -210 -243 -210 -403zM242 784c0 -39 10 -95 39 -188c78 97 142 199 142 324c0 33 0 60 -20 118c-99 -46 -161 -145 -161 -254z" fill="currentColor"/>
</g>
<g transform="translate(13.4743, 66.2523)">
<path transform="scale(0.0040, -0.0040)" d="M31 37l-2 -62v-11c0 -22 2 -43 5 -64c43 38 89 80 89 137c0 32 -14 65 -42 65c-31 0 -49 -32 -50 -65zM-30 450c9 5 20 8 30 8s21 -3 30 -8l-8 -340c25 24 59 38 94 38c50 0 84 -50 84 -104c0 -78 -83 -117 -141 -169c-17 -15 -25 -44 -49 -44c-15 0 -26 13 -26 29z" fill="currentColor"/>
</g>
<g transform="translate(14.4148, 64.7523)">
<path transform="scale(0.0040, -0.0040)" d="M31 37l-2 -62v-11c0 -22 2 -43 5 -64c43 38 89 80 89 137c0 32 -14 65 -42 65c-31 0 -49 -32 -50 -65zM-30 450c9 5 20 8 30 8s21 -3 30 -8l-8 -340c25 24 59 38 94 38c50 0 84 -50 84 -104c0 -78 -83 -117 -141 -169c-17 -15 -25 -44 -49 -44c-15 0 -26 13 -26 29z" fill="currentColor"/>
</g>
<g transform="translate(15.3553, 66.7523)">
<path transform="scale(0.0040, -0.0040)" d="M31 37l-2 -62v-11c0 -22 2 -43 5 -64c43 38 89 80 89 137c0 32 -14 65 -42 65c-31 0 -49 -32 -50 -65zM-30 450c9 5 20 8 30 8s21 -3 30 -8l-8 -340c25 24 59 38 94 38c50 0 84 -50 84 -104c0 -78 -83 -117 -141 -169c-17 -15 -25 -44 -49 -44c-15 0 -26 13 -26 29z" fill="currentColor"/>
</g>
<g transform="translate(16.2959, 65.2523)">
<path transform="scale(0.0040, -0.0040)" d="M31 37l-2 -62v-11c0 -22 2 -43 5 -64c43 38 89 80 89 137c0 32 -14 65 -42 65c-31 0 -49 -32 -50 -65zM-30 450c9 5 20 8 30 8s21 -3 30 -8l-8 -340c25 24 59 38 94 38c50 0 84 -50 84 -104c0 -78 -83 -117 -141 -169c-17 -15 -25 -44 -49 -44c-15 0 -26 13 -26 29z" fill="currentColor"/>
</g>
<g transform="translate(7.4119, 63.3018)">
<text font-family="Songti SC" font-size="1.7463" text-anchor="start" fill="currentColor">
<tspan>12</tspan>
</text>
</g>
<g transform="translate(116.3378, 66.2523)">
<path stroke-width="0.0931" stroke-linejoin="round" stroke-linecap="round" stroke="currentColor" fill="currentColor" d="M0.6700 -1.5620C2.2648 -2.8553 6.9189 -2.6444 8.3933 -1.2120L8.3933 -1.2120C6.9125 -2.5048 2.2584 -2.7158 0.6700 -1.5620z"/>
</g>
<g transform="translate(19.5959, 62.7425)">
<text font-family="Hiragino Sans GB" font-size="1.9604" text-anchor="start" fill="currentColor">
<tspan>D</tspan>
</text>
</g>
<g transform="translate(19.5959, 67.2523)">
<path transform="scale(0.0040, -0.0040)" d="M212 138c68 0 113 -38 113 -95c0 -90 -109 -181 -212 -181c-68 0 -113 38 -113 95c0 90 109 181 212 181z" fill="currentColor"/>
</g>
<g transform="translate(19.5959, 72.0782)">
<text font-family="Songti SC" font-size="2.4697" text-anchor="start" fill="currentColor">
<tspan>柔！</tspan>
</text>
</g>
<g transform="translate(21.3382, 66.7523)">
<path transform="scale(0.0040, -0.0040)" d="M0 0c0 30 25 55 55 55s55 -25 55 -55s-25 -55 -55 -55s-55 25 -55 55z" fill="currentColor"/>
</g>
<g transform="translate(20.8210, 66.2523)">
<rect x="-0.0757" y="-2.5000" width="0.1514" height="3.3287" ry="0.0500" fill="currentColor"/>
</g>
<g transform="translate(29.9741, 67.7523)">
<path transform="scale(0.0040, -0.0040)" d="M212 138c68 0 113 -38 113 -95c0 -90 -109 -181 -212 -181c-68 0 -113 38 -113 95c0 90 109 181 212 181z" fill="currentColor"/>
</g>
<g transform="translate(31.1993, 66.2523)">
<rect x="-0.0757" y="-2.0000" width="0.1514" height="3.3287" ry="0.0500" fill="currentColor"/>
</g>
<g transform="translate(31.2750, 64.3023)">
<path transform="scale(0.0040, -0.0040)" d="M0 -250h-19v250h19c0 -197 207 -334 207 -531c0 -71 -15 -140 -41 -206c-5 -9 -14 -13 -22 -13c-14 0 -29 12 -26 30c26 60 43 124 43 189c0 102 -92 206 -161 281z" fill="currentColor"/>
</g>
<g transform="translate(34.7537, 62.7425)">
<text font-family="Hiragino Sans GB" font-size="1.9604" text-anchor="start" fill="currentColor">
<tspan>D</tspan>
</text>
</g>
<g transform="translate(36.2475, 61.8516)">
<text font-family="Hiragino Sans GB" font-size="1.3856" text-anchor="start" fill="currentColor">
<tspan>7</tspan>
</text>
</g>
<g transform="translate(34.7537, 68.2523)">
<path transform="scale(0.0040, -0.0040)" d="M212 138c68 0 113 -38 113 -95c0 -90 -109 -181 -212 -181c-68 0 -113 38 -113 95c0 90 109 181 212 181z" fill="currentColor"/>
</g>
<g transform="translate(35.9789, 66.2523)">
<rect x="-0.0757" y="-1.5000" width="0.1514" height="3.3287" ry="0.0500" fill="currentColor"/>
</g>
<g transform="translate(42.7270, 66.7523)">
<path transform="scale(0.0040, -0.0040)" d="M212 138c68 0 113 -38 113 -95c0 -90 -109 -181 -212 -181c-68 0 -113 38 -113 95c0 90 109 181 212 181z" fill="currentColor"/>
</g>
<g transform="translate(42.1397, 72.0782)">
<text font-family="Songti SC" font-size="2.4697" text-anchor="start" fill="currentColor">
<tspan>祂</tspan>
</text>
</g>
<g transform="translate(43.9521, 66.2523)">
<rect x="-0.0757" y="-3.0000" width="0.1514" height="3.3287" ry="0.0500" fill="currentColor"/>
</g>
<g transform="translate(52.9898, 62.7425)">
<text font-family="Hiragino Sans GB" font-size="1.9604" text-anchor="start" fill="currentColor">
<tspan>G</tspan>
</text>
</g>
<g transform="translate(52.9898, 66.7523)">
<path transform="scale(0.0040, -0.0040)" d="M212 138c68 0 113 -38 113 -95c0 -90 -109 -181 -212 -181c-68 0 -113 38 -113 95c0 90 109 181 212 181z" fill="currentColor"/>
</g>
<g transform="translate(52.4026, 72.0782)">
<text font-family="Songti SC" font-size="2.4697" text-anchor="start" fill="currentColor">
<tspan>荣</tspan>
</text>
</g>
<g transform="translate(54.2150, 66.2523)">
<rect x="-0.0757" y="-3.0000" width="0.1514" height="3.3287" ry="0.0500" fill="currentColor"/>
</g>
<g transform="translate(60.7131, 67.2523)">
<path transform="scale(0.0040, -0.0040)" d="M212 138c68 0 113 -38 113 -95c0 -90 -109 -181 -212 -181c-68 0 -113 38 -113 95c0 90 109 181 212 181z" fill="currentColor"/>
</g>
<g transform="translate(60.1258, 72.0782)">
<text font-family="Songti SC" font-size="2.4697" text-anchor="start" fill="currentColor">
<tspan>耀</tspan>
</text>
</g>
<g transform="translate(61.9383, 66.2523)">
<rect x="-0.0757" y="-2.5000" width="0.1514" height="3.3287" ry="0.0500" fill="currentColor"/>
</g>
<g transform="translate(68.4364, 66.7523)">
<path transform="scale(0.0040, -0.0040)" d="M212 138c68 0 113 -38 113 -95c0 -90 -109 -181 -212 -181c-68 0 -113 38 -113 95c0 90 109 181 212 181z" fill="currentColor"/>
</g>
<g transform="translate(67.8491, 72.0782)">
<text font-family="Songti SC" font-size="2.4697" text-anchor="start" fill="currentColor">
<tspan>里</tspan>
</text>
</g>
<g transform="translate(69.6616, 66.2523)">
<rect x="-0.0757" y="-3.0000" width="0.1514" height="3.3287" ry="0.0500" fill="currentColor"/>
</g>
<g transform="translate(76.1822, 66.2523)">
<path transform="scale(0.0040, -0.0040)" d="M212 138c68 0 113 -38 113 -95c0 -90 -109 -181 -212 -181c-68 0 -113 38 -113 95c0 90 109 181 212 181z" fill="currentColor"/>
</g>
<g transform="translate(75.5949, 72.0782)">
<text font-family="Songti SC" font-size="2.4697" text-anchor="start" fill="currentColor">
<tspan>的</tspan>
</text>
</g>
<g transform="translate(76.2578, 66.2523)">
<rect x="-0.0757" y="0.1713" width="0.1514" height="3.1620" ry="0.0500" fill="currentColor"/>
</g>
<g transform="translate(86.1481, 66.7523)">
<path transform="scale(0.0040, -0.0040)" d="M310 63c0 22 -17 40 -40 40c-38 0 -197 -107 -224 -139c-7 -8 -10 -17 -10 -27c0 -22 17 -40 40 -40c38 0 197 107 224 139c7 8 10 17 10 27zM256 138c55 0 90 -22 90 -77c0 -25 -15 -112 -73 -151c-34 -23 -92 -48 -183 -48c-55 0 -90 22 -90 77c0 25 15 112 73 151
c34 23 92 48 183 48z" fill="currentColor"/>
</g>
<g transform="translate(85.6023, 72.0782)">
<text font-family="Songti SC" font-size="2.4697" text-anchor="start" fill="currentColor">
<tspan>生</tspan>
</text>
</g>
<g transform="translate(87.4563, 66.2523)">
<rect x="-0.0757" y="-3.0000" width="0.1514" height="3.2544" ry="0.0500" fill="currentColor"/>
</g>
<g transform="translate(19.5959, 66.2523)">
<path stroke-width="0.0931" stroke-linejoin="round" stroke-linecap="round" stroke="currentColor" fill="currentColor" d="M0.6261 2.2027C2.7316 3.9811 13.4929 4.5846 15.7840 3.0527L15.7840 3.0527C13.5007 4.4451 2.7394 3.8416 0.6261 2.2027z"/>
</g>
<g transform="translate(98.2431, 68.2523)">
<path transform="scale(0.0040, -0.0040)" d="M212 138c68 0 113 -38 113 -95c0 -90 -109 -181 -212 -181c-68 0 -113 38 -113 95c0 90 109 181 212 181z" fill="currentColor"/>
</g>
<g transform="translate(97.6558, 72.0782)">
<text font-family="Songti SC" font-size="2.4697" text-anchor="start" fill="currentColor">
<tspan>命</tspan>
</text>
</g>
<g transform="translate(99.4683, 66.2523)">
<rect x="-0.0757" y="-1.5000" width="0.1514" height="3.3287" ry="0.0500" fill="currentColor"/>
</g>
<g transform="translate(106.2746, 65.7523)">
<path transform="scale(0.0040, -0.0040)" d="M212 138c68 0 113 -38 113 -95c0 -90 -109 -181 -212 -181c-68 0 -113 38 -113 95c0 90 109 181 212 181z" fill="currentColor"/>
</g>
<g transform="translate(105.6873, 72.0782)">
<text font-family="Songti SC" font-size="2.4697" text-anchor="start" fill="currentColor">
<tspan>乃</tspan>
</text>
</g>
<g transform="translate(106.3502, 66.2523)">
<rect x="-0.0757" y="-0.3287" width="0.1514" height="3.3287" ry="0.0500" fill="currentColor"/>
</g>
<g transform="translate(116.3378, 65.7523)">
<path transform="scale(0.0040, -0.0040)" d="M212 138c68 0 113 -38 113 -95c0 -90 -109 -181 -212 -181c-68 0 -113 38 -113 95c0 90 109 181 212 181z" fill="currentColor"/>
</g>
<g transform="translate(116.3378, 72.0782)">
<text font-family="Songti SC" font-size="2.4697" text-anchor="start" fill="currentColor">
<tspan>是</tspan>
</text>
</g>
<g transform="translate(116.4135, 66.2523)">
<rect x="-0.0757" y="-0.3287" width="0.1514" height="3.3287" ry="0.0500" fill="currentColor"/>
</g>
<g transform="translate(124.0611, 66.2523)">
<path transform="scale(0.0040, -0.0040)" d="M212 138c68 0 113 -38 113 -95c0 -90 -109 -181 -212 -181c-68 0 -113 38 -113 95c0 90 109 181 212 181z" fill="currentColor"/>
</g>
<g transform="translate(124.1368, 66.2523)">
<rect x="-0.0757" y="0.1713" width="0.1514" height="3.1620" ry="0.0500" fill="currentColor"/>
</g>
<g transform="translate(131.7844, 65.7523)">
<path transform="scale(0.0040, -0.0040)" d="M212 138c68 0 113 -38 113 -95c0 -90 -109 -181 -212 -181c-68 0 -113 38 -113 95c0 90 109 181 212 181z" fill="currentColor"/>
</g>
<g transform="translate(131.1971, 72.0782)">
<text font-family="Songti SC" font-size="2.4697" text-anchor="start" fill="currentColor">
<tspan>为</tspan>
</text>
</g>
<g transform="translate(131.8601, 66.2523)">
<rect x="-0.0757" y="-0.3287" width="0.1514" height="3.3287" ry="0.0500" fill="currentColor"/>
</g>
<g transform="translate(139.5077, 65.2523)">
<path transform="scale(0.0040, -0.0040)" d="M212 138c68 0 113 -38 113 -95c0 -90 -109 -181 -212 -181c-68 0 -113 38 -113 95c0 90 109 181 212 181z" fill="currentColor"/>
</g>
<g transform="translate(138.9204, 72.0782)">
<text font-family="Songti SC" font-size="2.4697" text-anchor="start" fill="currentColor">
<tspan>着</tspan>
</text>
</g>
<g transform="translate(139.5834, 66.2523)">
<rect x="-0.0757" y="-0.8287" width="0.1514" height="3.3287" ry="0.0500" fill="currentColor"/>
</g>
<g transform="translate(42.3838, 78.9230)">
<rect x="0.0000" y="-2.0000" width="0.2212" height="4.0000" ry="0.0000" fill="currentColor"/>
</g>
<g transform="translate(9.0337, 80.9230)">
<line stroke-linejoin="round" stroke-linecap="round" stroke-width="0.1164" stroke="currentColor" x1="0.0582" y1="0" x2="138.1582" y2="0"/>
</g>
<g transform="translate(9.0337, 79.9230)">
<line stroke-linejoin="round" stroke-linecap="round" stroke-width="0.1164" stroke="currentColor" x1="0.0582" y1="0" x2="138.1582" y2="0"/>
</g>
<g transform="translate(9.0337, 78.9230)">
<line stroke-linejoin="round" stroke-linecap="round" stroke-width="0.1164" stroke="currentColor" x1="0.0582" y1="0" x2="138.1582" y2="0"/>
</g>
<g transform="translate(9.0337, 77.9230)">
<line stroke-linejoin="round" stroke-linecap="round" stroke-width="0.1164" stroke="currentColor" x1="0.0582" y1="0" x2="138.1582" y2="0"/>
</g>
<g transform="translate(9.0337, 76.9230)">
<line stroke-linejoin="round" stroke-linecap="round" stroke-width="0.1164" stroke="currentColor" x1="0.0582" y1="0" x2="138.1582" y2="0"/>
</g>
<g transform="translate(146.5516, 78.9230)">
<rect x="0.0000" y="-2.0000" width="0.6986" height="4.0000" ry="0.0000" fill="currentColor"/>
</g>
<g transform="translate(145.9811, 78.9230)">
<rect x="0.0000" y="-2.0000" width="0.2212" height="4.0000" ry="0.0000" fill="currentColor"/>
</g>
<g transform="translate(120.2845, 78.9230)">
<rect x="0.0000" y="-2.0000" width="0.2212" height="4.0000" ry="0.0000" fill="currentColor"/>
</g>
<g transform="translate(95.3346, 78.9230)">
<rect x="0.0000" y="-2.0000" width="0.2212" height="4.0000" ry="0.0000" fill="currentColor"/>
</g>
<g transform="translate(70.3897, 78.9230)">
<rect x="0.0000" y="-2.0000" width="0.2212" height="4.0000" ry="0.0000" fill="currentColor"/>
</g>
<g transform="translate(81.9475, 84.6652)">
<text font-family="Songti SC" font-size="2.4697" text-anchor="start" fill="currentColor">
<tspan>命</tspan>
</text>
</g>
<g transform="translate(9.8338, 79.9230)">
<path transform="scale(0.0040, -0.0040)" d="M647 2c0 -114 -75 -214 -180 -248c3 -33 4 -66 4 -99c0 -21 0 -41 -1 -62c-7 -122 -92 -229 -211 -229c-108 0 -196 88 -196 197c0 58 54 103 113 103c54 0 95 -47 95 -103c0 -52 -43 -95 -95 -95c-9 0 -18 1 -27 4c25 -37 66 -61 113 -61c93 0 156 91 162 191
c1 19 2 38 2 57c0 29 -1 58 -3 87c-5 -1 -44 -8 -88 -8c-194 0 -333 181 -333 376c0 177 129 308 244 443c-34 103 -55 171 -55 347c0 114 54 221 147 288c8 6 18 5 25 -1c68 -79 135 -242 135 -356c0 -142 -84 -255 -176 -364c21 -68 40 -136 57 -205c1 0 5 1 10 1
c157 0 258 -129 258 -263zM463 -201c64 24 110 88 110 161c0 88 -64 175 -167 188c28 -133 49 -269 57 -349zM77 25c0 -144 141 -243 261 -243c1 0 46 -1 81 5c-7 66 -27 208 -60 362c-79 -8 -124 -60 -124 -118c0 -43 25 -88 80 -120c5 -5 7 -11 7 -17
c0 -12 -10 -23 -23 -23c-16 0 -128 62 -128 188c0 89 60 177 163 200c-14 57 -30 113 -47 169c-105 -122 -210 -243 -210 -403zM242 784c0 -39 10 -95 39 -188c78 97 142 199 142 324c0 33 0 60 -20 118c-99 -46 -161 -145 -161 -254z" fill="currentColor"/>
</g>
<g transform="translate(13.4743, 78.9230)">
<path transform="scale(0.0040, -0.0040)" d="M31 37l-2 -62v-11c0 -22 2 -43 5 -64c43 38 89 80 89 137c0 32 -14 65 -42 65c-31 0 -49 -32 -50 -65zM-30 450c9 5 20 8 30 8s21 -3 30 -8l-8 -340c25 24 59 38 94 38c50 0 84 -50 84 -104c0 -78 -83 -117 -141 -169c-17 -15 -25 -44 -49 -44c-15 0 -26 13 -26 29z" fill="currentColor"/>
</g>
<g transform="translate(14.4148, 77.4230)">
<path transform="scale(0.0040, -0.0040)" d="M31 37l-2 -62v-11c0 -22 2 -43 5 -64c43 38 89 80 89 137c0 32 -14 65 -42 65c-31 0 -49 -32 -50 -65zM-30 450c9 5 20 8 30 8s21 -3 30 -8l-8 -340c25 24 59 38 94 38c50 0 84 -50 84 -104c0 -78 -83 -117 -141 -169c-17 -15 -25 -44 -49 -44c-15 0 -26 13 -26 29z" fill="currentColor"/>
</g>
<g transform="translate(15.3553, 79.4230)">
<path transform="scale(0.0040, -0.0040)" d="M31 37l-2 -62v-11c0 -22 2 -43 5 -64c43 38 89 80 89 137c0 32 -14 65 -42 65c-31 0 -49 -32 -50 -65zM-30 450c9 5 20 8 30 8s21 -3 30 -8l-8 -340c25 24 59 38 94 38c50 0 84 -50 84 -104c0 -78 -83 -117 -141 -169c-17 -15 -25 -44 -49 -44c-15 0 -26 13 -26 29z" fill="currentColor"/>
</g>
<g transform="translate(16.2959, 77.9230)">
<path transform="scale(0.0040, -0.0040)" d="M31 37l-2 -62v-11c0 -22 2 -43 5 -64c43 38 89 80 89 137c0 32 -14 65 -42 65c-31 0 -49 -32 -50 -65zM-30 450c9 5 20 8 30 8s21 -3 30 -8l-8 -340c25 24 59 38 94 38c50 0 84 -50 84 -104c0 -78 -83 -117 -141 -169c-17 -15 -25 -44 -49 -44c-15 0 -26 13 -26 29z" fill="currentColor"/>
</g>
<g transform="translate(7.4119, 75.9499)">
<text font-family="Songti SC" font-size="1.7463" text-anchor="start" fill="currentColor">
<tspan>16</tspan>
</text>
</g>
<g transform="translate(19.5959, 75.4132)">
<text font-family="Hiragino Sans GB" font-size="1.9604" text-anchor="start" fill="currentColor">
<tspan>G</tspan>
</text>
</g>
<g transform="translate(19.5959, 78.4230)">
<path transform="scale(0.0040, -0.0040)" d="M310 63c0 22 -17 40 -40 40c-38 0 -197 -107 -224 -139c-7 -8 -10 -17 -10 -27c0 -22 17 -40 40 -40c38 0 197 107 224 139c7 8 10 17 10 27zM256 138c55 0 90 -22 90 -77c0 -25 -15 -112 -73 -151c-34 -23 -92 -48 -183 -48c-55 0 -90 22 -90 77c0 25 15 112 73 151
c34 23 92 48 183 48z" fill="currentColor"/>
</g>
<g transform="translate(19.5959, 84.6652)">
<text font-family="Songti SC" font-size="2.4697" text-anchor="start" fill="currentColor">
<tspan>我。</tspan>
</text>
</g>
<g transform="translate(19.6715, 78.9230)">
<rect x="-0.0757" y="-0.2544" width="0.1514" height="3.2544" ry="0.0500" fill="currentColor"/>
</g>
<g transform="translate(29.7136, 75.4132)">
<text font-family="Hiragino Sans GB" font-size="1.9604" text-anchor="start" fill="currentColor">
<tspan>D</tspan>
</text>
</g>
<g transform="translate(29.7136, 78.9230)">
<path transform="scale(0.0040, -0.0040)" d="M212 138c68 0 113 -38 113 -95c0 -90 -109 -181 -212 -181c-68 0 -113 38 -113 95c0 90 109 181 212 181z" fill="currentColor"/>
</g>
<g transform="translate(29.7893, 78.9230)">
<rect x="-0.0757" y="0.1713" width="0.1514" height="3.1620" ry="0.0500" fill="currentColor"/>
</g>
<g transform="translate(36.1319, 78.4230)">
<path transform="scale(0.0040, -0.0040)" d="M212 138c68 0 113 -38 113 -95c0 -90 -109 -181 -212 -181c-68 0 -113 38 -113 95c0 90 109 181 212 181z" fill="currentColor"/>
</g>
<g transform="translate(35.5446, 84.6652)">
<text font-family="Songti SC" font-size="2.4697" text-anchor="start" fill="currentColor">
<tspan>祂</tspan>
</text>
</g>
<g transform="translate(36.2075, 78.9230)">
<rect x="-0.0757" y="-0.3287" width="0.1514" height="3.3287" ry="0.0500" fill="currentColor"/>
</g>
<g transform="translate(44.5728, 75.4132)">
<text font-family="Hiragino Sans GB" font-size="1.9604" text-anchor="start" fill="currentColor">
<tspan>C</tspan>
</text>
</g>
<g transform="translate(44.5728, 77.9230)">
<path transform="scale(0.0040, -0.0040)" d="M212 138c68 0 113 -38 113 -95c0 -90 -109 -181 -212 -181c-68 0 -113 38 -113 95c0 90 109 181 212 181z" fill="currentColor"/>
</g>
<g transform="translate(43.9855, 84.6652)">
<text font-family="Songti SC" font-size="2.4697" text-anchor="start" fill="currentColor">
<tspan>荣</tspan>
</text>
</g>
<g transform="translate(44.6485, 78.9230)">
<rect x="-0.0757" y="-0.8287" width="0.1514" height="3.3287" ry="0.0500" fill="currentColor"/>
</g>
<g transform="translate(50.9910, 78.4230)">
<path transform="scale(0.0040, -0.0040)" d="M212 138c68 0 113 -38 113 -95c0 -90 -109 -181 -212 -181c-68 0 -113 38 -113 95c0 90 109 181 212 181z" fill="currentColor"/>
</g>
<g transform="translate(50.4038, 84.6652)">
<text font-family="Songti SC" font-size="2.4697" text-anchor="start" fill="currentColor">
<tspan>耀</tspan>
</text>
</g>
<g transform="translate(51.0667, 78.9230)">
<rect x="-0.0757" y="-0.3287" width="0.1514" height="3.3287" ry="0.0500" fill="currentColor"/>
</g>
<g transform="translate(57.4093, 78.9230)">
<path transform="scale(0.0040, -0.0040)" d="M212 138c68 0 113 -38 113 -95c0 -90 -109 -181 -212 -181c-68 0 -113 38 -113 95c0 90 109 181 212 181z" fill="currentColor"/>
</g>
<g transform="translate(56.8220, 84.6652)">
<text font-family="Songti SC" font-size="2.4697" text-anchor="start" fill="currentColor">
<tspan>里</tspan>
</text>
</g>
<g transform="translate(57.4850, 78.9230)">
<rect x="-0.0757" y="0.1713" width="0.1514" height="3.1620" ry="0.0500" fill="currentColor"/>
</g>
<g transform="translate(63.8051, 79.4230)">
<path transform="scale(0.0040, -0.0040)" d="M212 138c68 0 113 -38 113 -95c0 -90 -109 -181 -212 -181c-68 0 -113 38 -113 95c0 90 109 181 212 181z" fill="currentColor"/>
</g>
<g transform="translate(63.2178, 84.6652)">
<text font-family="Songti SC" font-size="2.4697" text-anchor="start" fill="currentColor">
<tspan>的</tspan>
</text>
</g>
<g transform="translate(65.0302, 78.9230)">
<rect x="-0.0757" y="-3.0000" width="0.1514" height="3.3287" ry="0.0500" fill="currentColor"/>
</g>
<g transform="translate(72.4170, 75.4132)">
<text font-family="Hiragino Sans GB" font-size="1.9604" text-anchor="start" fill="currentColor">
<tspan>D</tspan>
</text>
</g>
<g transform="translate(73.9108, 74.5223)">
<text font-family="Hiragino Sans GB" font-size="1.3856" text-anchor="start" fill="currentColor">
<tspan>7</tspan>
</text>
</g>
<g transform="translate(72.4170, 79.9230)">
<path transform="scale(0.0040, -0.0040)" d="M310 63c0 22 -17 40 -40 40c-38 0 -197 -107 -224 -139c-7 -8 -10 -17 -10 -27c0 -22 17 -40 40 -40c38 0 197 107 224 139c7 8 10 17 10 27zM256 138c55 0 90 -22 90 -77c0 -25 -15 -112 -73 -151c-34 -23 -92 -48 -183 -48c-55 0 -90 22 -90 77c0 25 15 112 73 151
c34 23 92 48 183 48z" fill="currentColor"/>
</g>
<g transform="translate(71.8713, 84.6652)">
<text font-family="Songti SC" font-size="2.4697" text-anchor="start" fill="currentColor">
<tspan>生</tspan>
</text>
</g>
<g transform="translate(73.7252, 78.9230)">
<rect x="-0.0757" y="-2.5000" width="0.1514" height="3.2544" ry="0.0500" fill="currentColor"/>
</g>
<g transform="translate(19.5959, 78.9230)">
<path stroke-width="0.0931" stroke-linejoin="round" stroke-linecap="round" stroke="currentColor" fill="currentColor" d="M0.7079 -1.5527C2.5518 -2.9638 9.0417 -2.7383 10.7832 -1.2027L10.7832 -1.2027C9.0369 -2.5987 2.5469 -2.8242 0.7079 -1.5527z"/>
</g>
<g transform="translate(82.5348, 75.4132)">
<text font-family="Hiragino Sans GB" font-size="1.9604" text-anchor="start" fill="currentColor">
<tspan>G</tspan>
</text>
</g>
<g transform="translate(82.5348, 79.4230)">
<path transform="scale(0.0040, -0.0040)" d="M212 138c68 0 113 -38 113 -95c0 -90 -109 -181 -212 -181c-68 0 -113 38 -113 95c0 90 109 181 212 181z" fill="currentColor"/>
</g>
<g transform="translate(83.7599, 78.9230)">
<rect x="-0.0757" y="-3.0000" width="0.1514" height="3.3287" ry="0.0500" fill="currentColor"/>
</g>
<g transform="translate(89.1184, 77.9230)">
<path transform="scale(0.0040, -0.0040)" d="M212 138c68 0 113 -38 113 -95c0 -90 -109 -181 -212 -181c-68 0 -113 38 -113 95c0 90 109 181 212 181z" fill="currentColor"/>
</g>
<g transform="translate(88.5311, 84.6652)">
<text font-family="Songti SC" font-size="2.4697" text-anchor="start" fill="currentColor">
<tspan>乃</tspan>
</text>
</g>
<g transform="translate(89.1940, 78.9230)">
<rect x="-0.0757" y="-0.8287" width="0.1514" height="3.3287" ry="0.0500" fill="currentColor"/>
</g>
<g transform="translate(97.4908, 75.4132)">
<text font-family="Hiragino Sans GB" font-size="1.9604" text-anchor="start" fill="currentColor">
<tspan>D</tspan>
</text>
</g>
<g transform="translate(97.4908, 78.4230)">
<path transform="scale(0.0040, -0.0040)" d="M310 63c0 22 -17 40 -40 40c-38 0 -197 -107 -224 -139c-7 -8 -10 -17 -10 -27c0 -22 17 -40 40 -40c38 0 197 107 224 139c7 8 10 17 10 27zM256 138c55 0 90 -22 90 -77c0 -25 -15 -112 -73 -151c-34 -23 -92 -48 -183 -48c-55 0 -90 22 -90 77c0 25 15 112 73 151
c34 23 92 48 183 48z" fill="currentColor"/>
</g>
<g transform="translate(96.9450, 84.6652)">
<text font-family="Songti SC" font-size="2.4697" text-anchor="start" fill="currentColor">
<tspan>是</tspan>
</text>
</g>
<g transform="translate(97.5664, 78.9230)">
<rect x="-0.0757" y="-0.2544" width="0.1514" height="3.2544" ry="0.0500" fill="currentColor"/>
</g>
<g transform="translate(107.6085, 75.4132)">
<text font-family="Hiragino Sans GB" font-size="1.9604" text-anchor="start" fill="currentColor">
<tspan>D</tspan>
</text>
</g>
<g transform="translate(109.1023, 74.5223)">
<text font-family="Hiragino Sans GB" font-size="1.3856" text-anchor="start" fill="currentColor">
<tspan>7</tspan>
</text>
</g>
<g transform="translate(107.6085, 78.9230)">
<path transform="scale(0.0040, -0.0040)" d="M212 138c68 0 113 -38 113 -95c0 -90 -109 -181 -212 -181c-68 0 -113 38 -113 95c0 90 109 181 212 181z" fill="currentColor"/>
</g>
<g transform="translate(107.0212, 84.6652)">
<text font-family="Songti SC" font-size="2.4697" text-anchor="start" fill="currentColor">
<tspan>为</tspan>
</text>
</g>
<g transform="translate(109.3508, 78.4230)">
<path transform="scale(0.0040, -0.0040)" d="M0 0c0 30 25 55 55 55s55 -25 55 -55s-25 -55 -55 -55s-55 25 -55 55z" fill="currentColor"/>
</g>
<g transform="translate(107.6842, 78.9230)">
<rect x="-0.0757" y="0.1713" width="0.1514" height="3.1620" ry="0.0500" fill="currentColor"/>
</g>
<g transform="translate(116.1198, 79.4230)">
<path transform="scale(0.0040, -0.0040)" d="M212 138c68 0 113 -38 113 -95c0 -90 -109 -181 -212 -181c-68 0 -113 38 -113 95c0 90 109 181 212 181z" fill="currentColor"/>
</g>
<g transform="translate(115.5325, 84.6652)">
<text font-family="Songti SC" font-size="2.4697" text-anchor="start" fill="currentColor">
<tspan>着</tspan>
</text>
</g>
<g transform="translate(117.3449, 78.9230)">
<rect x="-0.0757" y="-3.0000" width="0.1514" height="3.3287" ry="0.0500" fill="currentColor"/>
</g>
<g transform="translate(117.4206, 75.9730)">
<path transform="scale(0.0040, -0.0040)" d="M0 -250h-19v250h19c0 -197 207 -334 207 -531c0 -71 -15 -140 -41 -206c-5 -9 -14 -13 -22 -13c-14 0 -29 12 -26 30c26 60 43 124 43 189c0 102 -92 206 -161 281z" fill="currentColor"/>
</g>
<g transform="translate(122.3119, 75.4132)">
<text font-family="Hiragino Sans GB" font-size="1.9604" text-anchor="start" fill="currentColor">
<tspan>G</tspan>
</text>
</g>
<g transform="translate(122.3119, 79.4230)">
<path transform="scale(0.0040, -0.0040)" d="M310 63c0 22 -17 40 -40 40c-38 0 -197 -107 -224 -139c-7 -8 -10 -17 -10 -27c0 -22 17 -40 40 -40c38 0 197 107 224 139c7 8 10 17 10 27zM256 138c55 0 90 -22 90 -77c0 -25 -15 -112 -73 -151c-34 -23 -92 -48 -183 -48c-55 0 -90 22 -90 77c0 25 15 112 73 151
c34 23 92 48 183 48z" fill="currentColor"/>
</g>
<g transform="translate(120.5284, 84.6652)">
<text font-family="Songti SC" font-size="2.4697" text-anchor="start" fill="currentColor">
<tspan>我。</tspan>
</text>
</g>
<g transform="translate(124.1372, 79.4230)">
<path transform="scale(0.0040, -0.0040)" d="M0 0c0 30 25 55 55 55s55 -25 55 -55s-25 -55 -55 -55s-55 25 -55 55z" fill="currentColor"/>
</g>
<g transform="translate(123.6201, 78.9230)">
<rect x="-0.0757" y="-3.0000" width="0.1514" height="3.2544" ry="0.0500" fill="currentColor"/>
</g>
<g transform="translate(128.6293, 75.4132)">
<text font-family="Hiragino Sans GB" font-size="1.9604" text-anchor="start" fill="currentColor">
<tspan>C</tspan>
</text>
</g>
<g transform="translate(134.9467, 75.4132)">
<text font-family="Hiragino Sans GB" font-size="1.9604" text-anchor="start" fill="currentColor">
<tspan>G</tspan>
</text>
</g>
<g transform="translate(139.9136, 78.9230)">
<path transform="scale(0.0040, -0.0040)" d="M-9 78c0 59 124 84 124 182c0 25 -9 50 -26 70l-31 37c-3 4 -4 8 -4 12c0 10 9 18 19 18c5 0 9 -1 13 -6l149 -178c7 -9 11 -17 11 -26c0 -59 -124 -84 -124 -182c0 -25 9 -51 26 -71l79 -94c3 -4 4 -8 4 -12c0 -10 -9 -18 -19 -18c-11 0 -38 40 -102 40
c-23 0 -55 -4 -55 -65c0 -33 11 -73 27 -92c8 -9 -6 -20 -14 -11c-44 53 -92 145 -92 199c0 41 26 43 46 43c30 0 69 -9 106 -23l-126 151c-7 9 -11 17 -11 26z" fill="currentColor"/>
</g>
<g transform="translate(67.9404, 93.9230)">
<text font-family="Songti SC" font-weight="bold" font-size="2.2001" text-anchor="start" fill="currentColor">
<tspan>2.</tspan>
</text>
</g>
<g transform="translate(70.0341, 93.9230)">
<text font-family="Songti SC" font-size="2.2001" text-anchor="start" fill="currentColor">
<tspan>在荣耀里有一人， </tspan>
</text>
</g>
<g transform="translate(70.0341, 96.9230)">
<text font-family="Songti SC" font-size="2.2001" text-anchor="start" fill="currentColor">
<tspan>祂的生命是为我。 </tspan>
</text>
</g>
<g transform="translate(70.0341, 99.9230)">
<text font-family="Songti SC" font-size="2.2001" text-anchor="start" fill="currentColor">
<tspan>在祂全无疾病， </tspan>
</text>
</g>
<g transform="translate(70.0341, 102.9230)">
<text font-family="Songti SC" font-size="2.2001" text-anchor="start" fill="currentColor">
<tspan>祂毫无软弱， </tspan>
</text>
</g>
<g transform="translate(70.0341, 105.9230)">
<text font-family="Songti SC" font-size="2.2001" text-anchor="start" fill="currentColor">
<tspan>祂是刚强、有力， </tspan>
</text>
</g>
<g transform="translate(70.0341, 108.9230)">
<text font-family="Songti SC" font-size="2.2001" text-anchor="start" fill="currentColor">
<tspan>且能往上浮！ </tspan>
</text>
</g>
<g transform="translate(70.0341, 111.9230)">
<text font-family="Songti SC" font-size="2.2001" text-anchor="start" fill="currentColor">
<tspan>祂荣耀里的生命 </tspan>
</text>
</g>
<g transform="translate(70.0341, 114.9230)">
<text font-family="Songti SC" font-size="2.2001" text-anchor="start" fill="currentColor">
<tspan>乃是为着我。 </tspan>
</text>
</g>
<g transform="translate(70.0341, 117.9230)">
<text font-family="Songti SC" font-size="2.2001" text-anchor="start" fill="currentColor">
<tspan>祂荣耀里的生命 </tspan>
</text>
</g>
<g transform="translate(70.0341, 120.9230)">
<text font-family="Songti SC" font-size="2.2001" text-anchor="start" fill="currentColor">
<tspan>乃是为着我。 </tspan>
</text>
</g>
<g transform="translate(70.0341, 122.9230)">
<text font-family="Songti SC" font-size="1.5560" text-anchor="start" fill="currentColor">
<tspan> </tspan>
</text>
</g>
<g transform="translate(67.9404, 125.9230)">
<text font-family="Songti SC" font-weight="bold" font-size="2.2001" text-anchor="start" fill="currentColor">
<tspan>3.</tspan>
</text>
</g>
<g transform="translate(70.0341, 125.9230)">
<text font-family="Songti SC" font-size="2.2001" text-anchor="start" fill="currentColor">
<tspan>在荣耀里有一人， </tspan>
</text>
</g>
<g transform="translate(70.0341, 128.9230)">
<text font-family="Songti SC" font-size="2.2001" text-anchor="start" fill="currentColor">
<tspan>祂的生命是为我。 </tspan>
</text>
</g>
<g transform="translate(70.0341, 131.9230)">
<text font-family="Songti SC" font-size="2.2001" text-anchor="start" fill="currentColor">
<tspan>祂胜过了死亡， </tspan>
</text>
</g>
<g transform="translate(70.0341, 134.9230)">
<text font-family="Songti SC" font-size="2.2001" text-anchor="start" fill="currentColor">
<tspan>拘禁全脱落， </tspan>
</text>
</g>
<g transform="translate(70.0341, 137.9230)">
<text font-family="Songti SC" font-size="2.2001" text-anchor="start" fill="currentColor">
<tspan>在复活里作王， </tspan>
</text>
</g>
<g transform="translate(70.0341, 140.9230)">
<text font-family="Songti SC" font-size="2.2001" text-anchor="start" fill="currentColor">
<tspan>权柄手中握！ </tspan>
</text>
</g>
<g transform="translate(70.0341, 143.9230)">
<text font-family="Songti SC" font-size="2.2001" text-anchor="start" fill="currentColor">
<tspan>祂荣耀里的生命 </tspan>
</text>
</g>
<g transform="translate(70.0341, 146.9230)">
<text font-family="Songti SC" font-size="2.2001" text-anchor="start" fill="currentColor">
<tspan>乃是为着我。 </tspan>
</text>
</g>
<g transform="translate(70.0341, 149.9230)">
<text font-family="Songti SC" font-size="2.2001" text-anchor="start" fill="currentColor">
<tspan>祂荣耀里的生命 </tspan>
</text>
</g>
<g transform="translate(70.0341, 152.9230)">
<text font-family="Songti SC" font-size="2.2001" text-anchor="start" fill="currentColor">
<tspan>乃是为着我。 </tspan>
</text>
</g>
<g transform="translate(70.0341, 154.9230)">
<text font-family="Songti SC" font-size="1.5560" text-anchor="start" fill="currentColor">
<tspan> </tspan>
</text>
</g>
<g transform="translate(67.9404, 157.9230)">
<text font-family="Songti SC" font-weight="bold" font-size="2.2001" text-anchor="start" fill="currentColor">
<tspan>4.</tspan>
</text>
</g>
<g transform="translate(70.0341, 157.9230)">
<text font-family="Songti SC" font-size="2.2001" text-anchor="start" fill="currentColor">
<tspan>在荣耀里有一人， </tspan>
</text>
</g>
<g transform="translate(70.0341, 160.9230)">
<text font-family="Songti SC" font-size="2.2001" text-anchor="start" fill="currentColor">
<tspan>祂的生命是为我。 </tspan>
</text>
</g>
<g transform="translate(70.0341, 163.9230)">
<text font-family="Songti SC" font-size="2.2001" text-anchor="start" fill="currentColor">
<tspan>祂的平安长存， </tspan>
</text>
</g>
<g transform="translate(70.0341, 166.9230)">
<text font-family="Songti SC" font-size="2.2001" text-anchor="start" fill="currentColor">
<tspan>不怕何风波， </tspan>
</text>
</g>
<g transform="translate(70.0341, 169.9230)">
<text font-family="Songti SC" font-size="2.2001" text-anchor="start" fill="currentColor">
<tspan>祂喜乐，发光辉， </tspan>
</text>
</g>
<g transform="translate(70.0341, 172.9230)">
<text font-family="Songti SC" font-size="2.2001" text-anchor="start" fill="currentColor">
<tspan>盼望而等着， </tspan>
</text>
</g>
<g transform="translate(70.0341, 175.9230)">
<text font-family="Songti SC" font-size="2.2001" text-anchor="start" fill="currentColor">
<tspan>祂荣耀里的生命 </tspan>
</text>
</g>
<g transform="translate(70.0341, 178.9230)">
<text font-family="Songti SC" font-size="2.2001" text-anchor="start" fill="currentColor">
<tspan>从我里透过。 </tspan>
</text>
</g>
<g transform="translate(70.0341, 181.9230)">
<text font-family="Songti SC" font-size="2.2001" text-anchor="start" fill="currentColor">
<tspan>祂荣耀里的生命 </tspan>
</text>
</g>
<g transform="translate(70.0341, 184.9230)">
<text font-family="Songti SC" font-size="2.2001" text-anchor="start" fill="currentColor">
<tspan>从我里透过。 </tspan>
</text>
</g>
<g transform="translate(70.0341, 186.9230)">
<text font-family="Songti SC" font-size="1.5560" text-anchor="start" fill="currentColor">
<tspan> </tspan>
</text>
</g>
<g transform="translate(69.8408, 191.9677)">
<text font-family="Trebuchet MS" font-size="2.2001" text-anchor="start" fill="currentColor">
<tspan>www.hymnal.net</tspan>
</text>
</g>
</svg>
