<svg xmlns="http://www.w3.org/2000/svg" xmlns:xlink="http://www.w3.org/1999/xlink" version="1.2" width="215.90mm" height="279.40mm" viewBox="0.0000 -0.0000 153.5737 198.7425">
<style type="text/css">
<![CDATA[
tspan { white-space: pre; }
]]>
</style>
<g transform="translate(64.1218, 9.7847)">
<text font-family="Songti SC" font-weight="bold" font-size="3.1113" text-anchor="start" fill="currentColor">
<tspan>我今是单纯敞开我心</tspan>
</text>
</g>
<g transform="translate(73.7033, 13.2847)">
<text font-family="Songti SC" font-weight="bold" font-size="2.2001" text-anchor="start" fill="currentColor">
<tspan>爱慕耶稣</tspan>
</text>
</g>
<g transform="translate(133.0807, 17.7608)">
<text font-family="Songti SC" font-size="5.8741" text-anchor="start" fill="currentColor">
<tspan>Cs322</tspan>
</text>
</g>
<g transform="translate(9.0337, 19.7029)">
<text font-family="Songti SC" font-weight="bold" font-style="italic" font-size="2.2001" text-anchor="start" fill="currentColor">
<tspan>(吉他)</tspan>
</text>
</g>
<g transform="translate(35.7064, 28.3223)">
<rect x="0.0000" y="-2.0000" width="0.2212" height="4.0000" ry="0.0000" fill="currentColor"/>
</g>
<g transform="translate(9.0337, 30.3223)">
<line stroke-linejoin="round" stroke-linecap="round" stroke-width="0.1164" stroke="currentColor" x1="0.0582" y1="0" x2="138.1582" y2="0"/>
</g>
<g transform="translate(9.0337, 29.3223)">
<line stroke-linejoin="round" stroke-linecap="round" stroke-width="0.1164" stroke="currentColor" x1="0.0582" y1="0" x2="138.1582" y2="0"/>
</g>
<g transform="translate(9.0337, 28.3223)">
<line stroke-linejoin="round" stroke-linecap="round" stroke-width="0.1164" stroke="currentColor" x1="0.0582" y1="0" x2="138.1582" y2="0"/>
</g>
<g transform="translate(9.0337, 27.3223)">
<line stroke-linejoin="round" stroke-linecap="round" stroke-width="0.1164" stroke="currentColor" x1="0.0582" y1="0" x2="138.1582" y2="0"/>
</g>
<g transform="translate(9.0337, 26.3223)">
<line stroke-linejoin="round" stroke-linecap="round" stroke-width="0.1164" stroke="currentColor" x1="0.0582" y1="0" x2="138.1582" y2="0"/>
</g>
<g transform="translate(147.0289, 28.3223)">
<rect x="0.0000" y="-2.0000" width="0.2212" height="4.0000" ry="0.0000" fill="currentColor"/>
</g>
<g transform="translate(111.2250, 28.3223)">
<rect x="0.0000" y="-2.0000" width="0.2212" height="4.0000" ry="0.0000" fill="currentColor"/>
</g>
<g transform="translate(72.7031, 28.3223)">
<rect x="0.0000" y="-2.0000" width="0.2212" height="4.0000" ry="0.0000" fill="currentColor"/>
</g>
<g transform="translate(124.3331, 28.3223)">
<path stroke-width="0.0931" stroke-linejoin="round" stroke-linecap="round" stroke="currentColor" fill="currentColor" d="M0.6504 3.5527C3.2105 5.3335 20.1357 5.3335 22.6958 3.5527L22.6958 3.5527C20.1357 5.1938 3.2105 5.1938 0.6504 3.5527z"/>
</g>
<g transform="translate(19.2056, 25.7543)">
<text font-family="Hiragino Sans GB" font-size="1.9604" text-anchor="start" fill="currentColor">
<tspan>G</tspan>
</text>
</g>
<g transform="translate(19.2056, 30.8223)">
<path transform="scale(0.0040, -0.0040)" d="M212 138c68 0 113 -38 113 -95c0 -90 -109 -181 -212 -181c-68 0 -113 38 -113 95c0 90 109 181 212 181z" fill="currentColor"/>
</g>
<g transform="translate(9.8338, 29.3223)">
<path transform="scale(0.0040, -0.0040)" d="M647 2c0 -114 -75 -214 -180 -248c3 -33 4 -66 4 -99c0 -21 0 -41 -1 -62c-7 -122 -92 -229 -211 -229c-108 0 -196 88 -196 197c0 58 54 103 113 103c54 0 95 -47 95 -103c0 -52 -43 -95 -95 -95c-9 0 -18 1 -27 4c25 -37 66 -61 113 -61c93 0 156 91 162 191
c1 19 2 38 2 57c0 29 -1 58 -3 87c-5 -1 -44 -8 -88 -8c-194 0 -333 181 -333 376c0 177 129 308 244 443c-34 103 -55 171 -55 347c0 114 54 221 147 288c8 6 18 5 25 -1c68 -79 135 -242 135 -356c0 -142 -84 -255 -176 -364c21 -68 40 -136 57 -205c1 0 5 1 10 1
c157 0 258 -129 258 -263zM463 -201c64 24 110 88 110 161c0 88 -64 175 -167 188c28 -133 49 -269 57 -349zM77 25c0 -144 141 -243 261 -243c1 0 46 -1 81 5c-7 66 -27 208 -60 362c-79 -8 -124 -60 -124 -118c0 -43 25 -88 80 -120c5 -5 7 -11 7 -17
c0 -12 -10 -23 -23 -23c-16 0 -128 62 -128 188c0 89 60 177 163 200c-14 57 -30 113 -47 169c-105 -122 -210 -243 -210 -403zM242 784c0 -39 10 -95 39 -188c78 97 142 199 142 324c0 33 0 60 -20 118c-99 -46 -161 -145 -161 -254z" fill="currentColor"/>
</g>
<g transform="translate(13.3337, 26.3223)">
<path transform="scale(0.0040, -0.0040)" d="M0 116c0 10 6 19 16 23l40 15v154c0 12 9 21 21 21s21 -9 21 -21v-138l79 30v154c0 12 9 21 21 21s21 -9 21 -21v-138l22 8c3 1 6 2 9 2c13 0 25 -11 25 -25v-54c0 -10 -6 -20 -16 -24l-40 -15v-155l22 9c3 1 6 1 9 1c13 0 25 -11 25 -25v-54c0 -10 -6 -19 -16 -23
l-40 -15v-154c0 -12 -9 -21 -21 -21s-21 9 -21 21v138l-79 -30v-154c0 -12 -9 -21 -21 -21s-21 9 -21 21v138l-22 -8c-3 -1 -6 -2 -9 -2c-13 0 -25 11 -25 25v54c0 10 6 20 16 24l40 15v155l-22 -9c-3 -1 -6 -1 -9 -1c-13 0 -25 11 -25 25v54zM177 92l-79 -30v-154l79 30
v154z" fill="currentColor"/>
</g>
<g transform="translate(15.6478, 28.3223)">
<path transform="scale(0.0040, -0.0040)" d="M231 0c-90 0 -91 68 -144 68c-29 0 -58 -21 -61 -56c-1 -8 -7 -12 -13 -12c-7 0 -13 5 -13 13c0 154 232 168 232 342c0 58 -14 119 -64 119c-27 0 -54 -13 -54 -38c0 -27 34 -40 34 -67c0 -37 -30 -67 -67 -67s-68 30 -68 67c0 77 74 131 155 131c96 0 186 -56 186 -145
c0 -147 -141 -158 -239 -213c6 1 11 1 17 1c85 0 112 -60 171 -60c49 0 38 40 57 40c7 0 13 -5 13 -13c0 -23 -45 -110 -142 -110z" fill="currentColor"/>
</g>
<g transform="translate(15.5838, 30.3345)">
<path transform="scale(0.0040, -0.0040)" d="M223 487c37 0 71 14 79 14c9 0 15 -7 15 -13c0 -2 0 -4 -2 -6l-283 -325h160v115c0 36 36 28 71 75c23 31 24 58 38 58c7 0 14 -5 14 -15v-233h76c11 0 16 -8 16 -16s-5 -16 -16 -16h-76v-2c0 -50 30 -97 77 -97c9 0 12 -7 12 -13s-3 -13 -12 -13c-46 0 -92 13 -138 13
s-93 -13 -139 -13c-9 0 -12 7 -12 13s3 13 12 13c47 0 77 47 77 97v2h-160c-26 0 -34 15 -34 25c0 12 133 136 133 332c0 11 8 21 18 18c24 -7 49 -13 74 -13z" fill="currentColor"/>
</g>
<g transform="translate(18.6183, 34.9142)">
<text font-family="Songti SC" font-size="2.4697" text-anchor="start" fill="currentColor">
<tspan>我</tspan>
</text>
</g>
<g transform="translate(16.1245, 34.9142)">
<text font-family="Songti SC" font-weight="bold" font-size="2.2001" text-anchor="start" fill="currentColor">
<tspan>1.</tspan>
</text>
</g>
<g transform="translate(20.4307, 28.3223)">
<rect x="-0.0757" y="-1.0000" width="0.1514" height="3.3287" ry="0.0500" fill="currentColor"/>
</g>
<g transform="translate(95.4503, 25.3223)">
<polygon stroke-linejoin="round" stroke-linecap="round" stroke-width="0.1000" fill="currentColor" stroke="currentColor" points="11.9925 -0.0082 11.9925 0.3718 0.0500 0.1900 0.0500 -0.1900"/>
</g>
<g transform="translate(106.3172, 26.3046)">
<polygon stroke-linejoin="round" stroke-linecap="round" stroke-width="0.1000" fill="currentColor" stroke="currentColor" points="1.1257 -0.1723 1.1257 0.2077 0.0500 0.1900 0.0500 -0.1900"/>
</g>
<g transform="translate(40.5106, 27.3223)">
<path transform="scale(0.0040, -0.0040)" d="M212 138c68 0 113 -38 113 -95c0 -90 -109 -181 -212 -181c-68 0 -113 38 -113 95c0 90 109 181 212 181z" fill="currentColor"/>
</g>
<g transform="translate(39.9233, 34.9142)">
<text font-family="Songti SC" font-size="2.4697" text-anchor="start" fill="currentColor">
<tspan>今</tspan>
</text>
</g>
<g transform="translate(40.5863, 28.3223)">
<rect x="-0.0757" y="-0.8287" width="0.1514" height="3.3287" ry="0.0500" fill="currentColor"/>
</g>
<g transform="translate(56.5472, 28.3223)">
<path transform="scale(0.0040, -0.0040)" d="M212 138c68 0 113 -38 113 -95c0 -90 -109 -181 -212 -181c-68 0 -113 38 -113 95c0 90 109 181 212 181z" fill="currentColor"/>
</g>
<g transform="translate(55.9599, 34.9142)">
<text font-family="Songti SC" font-size="2.4697" text-anchor="start" fill="currentColor">
<tspan>是</tspan>
</text>
</g>
<g transform="translate(56.6228, 28.3223)">
<rect x="-0.0757" y="0.1713" width="0.1514" height="3.1620" ry="0.0500" fill="currentColor"/>
</g>
<g transform="translate(88.3456, 30.9730)">
<polygon stroke-linejoin="round" stroke-linecap="round" stroke-width="0.1000" fill="currentColor" stroke="currentColor" points="1.1257 -0.1589 1.1257 0.2211 0.0500 0.1900 0.0500 -0.1900"/>
</g>
<g transform="translate(77.4787, 31.5041)">
<polygon stroke-linejoin="round" stroke-linecap="round" stroke-width="0.1000" fill="currentColor" stroke="currentColor" points="11.9925 0.1282 11.9925 0.5082 0.0500 0.1900 0.0500 -0.1900"/>
</g>
<g transform="translate(77.4787, 25.7543)">
<text font-family="Hiragino Sans GB" font-size="1.9604" text-anchor="start" fill="currentColor">
<tspan>D</tspan>
</text>
</g>
<g transform="translate(78.9725, 24.8634)">
<text font-family="Hiragino Sans GB" font-size="1.3856" text-anchor="start" fill="currentColor">
<tspan>7</tspan>
</text>
</g>
<g transform="translate(77.4787, 27.8223)">
<path transform="scale(0.0040, -0.0040)" d="M212 138c68 0 113 -38 113 -95c0 -90 -109 -181 -212 -181c-68 0 -113 38 -113 95c0 90 109 181 212 181z" fill="currentColor"/>
</g>
<g transform="translate(76.8915, 34.9142)">
<text font-family="Songti SC" font-size="2.4697" text-anchor="start" fill="currentColor">
<tspan>单</tspan>
</text>
</g>
<g transform="translate(79.2210, 27.8223)">
<path transform="scale(0.0040, -0.0040)" d="M0 0c0 30 25 55 55 55s55 -25 55 -55s-25 -55 -55 -55s-55 25 -55 55z" fill="currentColor"/>
</g>
<g transform="translate(77.5544, 28.3223)">
<rect x="-0.0757" y="-0.3287" width="0.1514" height="3.5125" ry="0.0500" fill="currentColor"/>
</g>
<g transform="translate(89.3699, 28.3223)">
<path transform="scale(0.0040, -0.0040)" d="M212 138c68 0 113 -38 113 -95c0 -90 -109 -181 -212 -181c-68 0 -113 38 -113 95c0 90 109 181 212 181z" fill="currentColor"/>
</g>
<g transform="translate(89.4456, 28.3223)">
<rect x="-0.0757" y="0.1713" width="0.1514" height="3.3267" ry="0.0500" fill="currentColor"/>
</g>
<g transform="translate(94.3008, 28.8223)">
<path transform="scale(0.0040, -0.0040)" d="M212 138c68 0 113 -38 113 -95c0 -90 -109 -181 -212 -181c-68 0 -113 38 -113 95c0 90 109 181 212 181z" fill="currentColor"/>
</g>
<g transform="translate(93.7136, 34.9142)">
<text font-family="Songti SC" font-size="2.4697" text-anchor="start" fill="currentColor">
<tspan>敞</tspan>
</text>
</g>
<g transform="translate(96.0431, 28.8223)">
<path transform="scale(0.0040, -0.0040)" d="M0 0c0 30 25 55 55 55s55 -25 55 -55s-25 -55 -55 -55s-55 25 -55 55z" fill="currentColor"/>
</g>
<g transform="translate(95.5260, 28.3223)">
<rect x="-0.0757" y="-2.9989" width="0.1514" height="3.3275" ry="0.0500" fill="currentColor"/>
</g>
<g transform="translate(106.1920, 29.3223)">
<path transform="scale(0.0040, -0.0040)" d="M212 138c68 0 113 -38 113 -95c0 -90 -109 -181 -212 -181c-68 0 -113 38 -113 95c0 90 109 181 212 181z" fill="currentColor"/>
</g>
<g transform="translate(105.6047, 34.9142)">
<text font-family="Songti SC" font-size="2.4697" text-anchor="start" fill="currentColor">
<tspan>开</tspan>
</text>
</g>
<g transform="translate(107.4172, 28.3223)">
<rect x="-0.0757" y="-2.8194" width="0.1514" height="3.6480" ry="0.0500" fill="currentColor"/>
</g>
<g transform="translate(115.9721, 25.7543)">
<text font-family="Hiragino Sans GB" font-size="1.9604" text-anchor="start" fill="currentColor">
<tspan>G</tspan>
</text>
</g>
<g transform="translate(115.9721, 28.3223)">
<path transform="scale(0.0040, -0.0040)" d="M212 138c68 0 113 -38 113 -95c0 -90 -109 -181 -212 -181c-68 0 -113 38 -113 95c0 90 109 181 212 181z" fill="currentColor"/>
</g>
<g transform="translate(115.3848, 34.9142)">
<text font-family="Songti SC" font-size="2.4697" text-anchor="start" fill="currentColor">
<tspan>我</tspan>
</text>
</g>
<g transform="translate(116.0478, 28.3223)">
<rect x="-0.0757" y="0.1713" width="0.1514" height="3.2037" ry="0.0500" fill="currentColor"/>
</g>
<g transform="translate(116.1234, 31.6473)">
<path transform="scale(0.0040, -0.0040)" d="M0 0h-19v250h19v-250zM0 0v250c95 59 220 149 220 259c0 56 -16 111 -41 161c-3 18 12 30 26 30c8 0 17 -4 22 -13c25 -56 40 -116 40 -178c0 -203 -267 -306 -267 -509z" fill="currentColor"/>
</g>
<g transform="translate(124.3331, 30.8223)">
<path transform="scale(0.0040, -0.0040)" d="M212 138c68 0 113 -38 113 -95c0 -90 -109 -181 -212 -181c-68 0 -113 38 -113 95c0 90 109 181 212 181z" fill="currentColor"/>
</g>
<g transform="translate(124.3331, 34.9142)">
<text font-family="Songti SC" font-size="2.4697" text-anchor="start" fill="currentColor">
<tspan>心，</tspan>
</text>
</g>
<g transform="translate(126.0754, 30.8223)">
<path transform="scale(0.0040, -0.0040)" d="M0 0c0 30 25 55 55 55s55 -25 55 -55s-25 -55 -55 -55s-55 25 -55 55z" fill="currentColor"/>
</g>
<g transform="translate(125.5583, 28.3223)">
<rect x="-0.0757" y="-1.0000" width="0.1514" height="3.3287" ry="0.0500" fill="currentColor"/>
</g>
<g transform="translate(88.7826, 34.9142)">
<text font-family="Songti SC" font-size="2.4697" text-anchor="start" fill="currentColor">
<tspan>纯</tspan>
</text>
</g>
<g transform="translate(45.9307, 41.0482)">
<rect x="0.0000" y="-2.0000" width="0.2212" height="4.0000" ry="0.0000" fill="currentColor"/>
</g>
<g transform="translate(9.0337, 43.0482)">
<line stroke-linejoin="round" stroke-linecap="round" stroke-width="0.1164" stroke="currentColor" x1="0.0582" y1="0" x2="138.1582" y2="0"/>
</g>
<g transform="translate(9.0337, 42.0482)">
<line stroke-linejoin="round" stroke-linecap="round" stroke-width="0.1164" stroke="currentColor" x1="0.0582" y1="0" x2="138.1582" y2="0"/>
</g>
<g transform="translate(9.0337, 41.0482)">
<line stroke-linejoin="round" stroke-linecap="round" stroke-width="0.1164" stroke="currentColor" x1="0.0582" y1="0" x2="138.1582" y2="0"/>
</g>
<g transform="translate(9.0337, 40.0482)">
<line stroke-linejoin="round" stroke-linecap="round" stroke-width="0.1164" stroke="currentColor" x1="0.0582" y1="0" x2="138.1582" y2="0"/>
</g>
<g transform="translate(9.0337, 39.0482)">
<line stroke-linejoin="round" stroke-linecap="round" stroke-width="0.1164" stroke="currentColor" x1="0.0582" y1="0" x2="138.1582" y2="0"/>
</g>
<g transform="translate(147.0289, 41.0482)">
<rect x="0.0000" y="-2.0000" width="0.2212" height="4.0000" ry="0.0000" fill="currentColor"/>
</g>
<g transform="translate(112.6451, 41.0482)">
<rect x="0.0000" y="-2.0000" width="0.2212" height="4.0000" ry="0.0000" fill="currentColor"/>
</g>
<g transform="translate(79.3058, 41.0482)">
<rect x="0.0000" y="-2.0000" width="0.2212" height="4.0000" ry="0.0000" fill="currentColor"/>
</g>
<g transform="translate(9.0337, 41.0482)">
<path stroke-width="0.0931" stroke-linejoin="round" stroke-linecap="round" stroke="currentColor" fill="currentColor" d="M5.4000 3.5527C6.2104 4.3279 7.7401 4.3279 8.5504 3.5527L8.5504 3.5527C7.7401 4.1882 6.2104 4.1882 5.4000 3.5527z"/>
</g>
<g transform="translate(116.8899, 41.0482)">
<path stroke-width="0.0931" stroke-linejoin="round" stroke-linecap="round" stroke="currentColor" fill="currentColor" d="M0.6231 -2.2027C3.3194 -4.2289 27.2098 -5.7337 30.1390 -4.0618L30.1390 -4.0618C27.2185 -5.5943 3.3282 -4.0895 0.6231 -2.2027z"/>
</g>
<g transform="translate(133.0757, 37.8664)">
<polygon stroke-linejoin="round" stroke-linecap="round" stroke-width="0.1000" fill="currentColor" stroke="currentColor" points="7.5695 0.1736 7.5695 0.5536 0.0500 0.1900 0.0500 -0.1900"/>
</g>
<g transform="translate(9.8338, 42.0482)">
<path transform="scale(0.0040, -0.0040)" d="M647 2c0 -114 -75 -214 -180 -248c3 -33 4 -66 4 -99c0 -21 0 -41 -1 -62c-7 -122 -92 -229 -211 -229c-108 0 -196 88 -196 197c0 58 54 103 113 103c54 0 95 -47 95 -103c0 -52 -43 -95 -95 -95c-9 0 -18 1 -27 4c25 -37 66 -61 113 -61c93 0 156 91 162 191
c1 19 2 38 2 57c0 29 -1 58 -3 87c-5 -1 -44 -8 -88 -8c-194 0 -333 181 -333 376c0 177 129 308 244 443c-34 103 -55 171 -55 347c0 114 54 221 147 288c8 6 18 5 25 -1c68 -79 135 -242 135 -356c0 -142 -84 -255 -176 -364c21 -68 40 -136 57 -205c1 0 5 1 10 1
c157 0 258 -129 258 -263zM463 -201c64 24 110 88 110 161c0 88 -64 175 -167 188c28 -133 49 -269 57 -349zM77 25c0 -144 141 -243 261 -243c1 0 46 -1 81 5c-7 66 -27 208 -60 362c-79 -8 -124 -60 -124 -118c0 -43 25 -88 80 -120c5 -5 7 -11 7 -17
c0 -12 -10 -23 -23 -23c-16 0 -128 62 -128 188c0 89 60 177 163 200c-14 57 -30 113 -47 169c-105 -122 -210 -243 -210 -403zM242 784c0 -39 10 -95 39 -188c78 97 142 199 142 324c0 33 0 60 -20 118c-99 -46 -161 -145 -161 -254z" fill="currentColor"/>
</g>
<g transform="translate(13.3337, 39.0482)">
<path transform="scale(0.0040, -0.0040)" d="M0 116c0 10 6 19 16 23l40 15v154c0 12 9 21 21 21s21 -9 21 -21v-138l79 30v154c0 12 9 21 21 21s21 -9 21 -21v-138l22 8c3 1 6 2 9 2c13 0 25 -11 25 -25v-54c0 -10 -6 -20 -16 -24l-40 -15v-155l22 9c3 1 6 1 9 1c13 0 25 -11 25 -25v-54c0 -10 -6 -19 -16 -23
l-40 -15v-154c0 -12 -9 -21 -21 -21s-21 9 -21 21v138l-79 -30v-154c0 -12 -9 -21 -21 -21s-21 9 -21 21v138l-22 -8c-3 -1 -6 -2 -9 -2c-13 0 -25 11 -25 25v54c0 10 6 20 16 24l40 15v155l-22 -9c-3 -1 -6 -1 -9 -1c-13 0 -25 11 -25 25v54zM177 92l-79 -30v-154l79 30
v154z" fill="currentColor"/>
</g>
<g transform="translate(8.2228, 38.0751)">
<text font-family="Songti SC" font-size="1.7463" text-anchor="start" fill="currentColor">
<tspan>4</tspan>
</text>
</g>
<g transform="translate(126.4174, 43.0882)">
<polygon stroke-linejoin="round" stroke-linecap="round" stroke-width="0.1000" fill="currentColor" stroke="currentColor" points="1.1257 -0.2299 1.1257 0.1501 0.0500 0.1900 0.0500 -0.1900"/>
</g>
<g transform="translate(116.8899, 44.2300)">
<polygon stroke-linejoin="round" stroke-linecap="round" stroke-width="0.1000" fill="currentColor" stroke="currentColor" points="10.6532 -0.5536 10.6532 -0.1736 0.0500 0.1900 0.0500 -0.1900"/>
</g>
<g transform="translate(16.9338, 37.8570)">
<text font-family="Hiragino Sans GB" font-size="1.9604" text-anchor="start" fill="currentColor">
<tspan>G</tspan>
</text>
</g>
<g transform="translate(16.9338, 43.5482)">
<path transform="scale(0.0040, -0.0040)" d="M212 138c68 0 113 -38 113 -95c0 -90 -109 -181 -212 -181c-68 0 -113 38 -113 95c0 90 109 181 212 181z" fill="currentColor"/>
</g>
<g transform="translate(18.1589, 41.0482)">
<rect x="-0.0757" y="-1.0000" width="0.1514" height="3.3287" ry="0.0500" fill="currentColor"/>
</g>
<g transform="translate(31.3251, 43.5482)">
<path transform="scale(0.0040, -0.0040)" d="M212 138c68 0 113 -38 113 -95c0 -90 -109 -181 -212 -181c-68 0 -113 38 -113 95c0 90 109 181 212 181z" fill="currentColor"/>
</g>
<g transform="translate(30.7378, 46.7850)">
<text font-family="Songti SC" font-size="2.4697" text-anchor="start" fill="currentColor">
<tspan>主</tspan>
</text>
</g>
<g transform="translate(32.5503, 41.0482)">
<rect x="-0.0757" y="-1.0000" width="0.1514" height="3.3287" ry="0.0500" fill="currentColor"/>
</g>
<g transform="translate(50.0710, 37.8570)">
<text font-family="Hiragino Sans GB" font-size="1.9604" text-anchor="start" fill="currentColor">
<tspan>C</tspan>
</text>
</g>
<g transform="translate(50.0710, 43.0482)">
<path transform="scale(0.0040, -0.0040)" d="M212 138c68 0 113 -38 113 -95c0 -90 -109 -181 -212 -181c-68 0 -113 38 -113 95c0 90 109 181 212 181z" fill="currentColor"/>
</g>
<g transform="translate(49.4838, 46.7850)">
<text font-family="Songti SC" font-size="2.4697" text-anchor="start" fill="currentColor">
<tspan>耶</tspan>
</text>
</g>
<g transform="translate(51.2962, 41.0482)">
<rect x="-0.0757" y="-1.5000" width="0.1514" height="3.3287" ry="0.0500" fill="currentColor"/>
</g>
<g transform="translate(64.7124, 42.0482)">
<path transform="scale(0.0040, -0.0040)" d="M212 138c68 0 113 -38 113 -95c0 -90 -109 -181 -212 -181c-68 0 -113 38 -113 95c0 90 109 181 212 181z" fill="currentColor"/>
</g>
<g transform="translate(64.1251, 46.7850)">
<text font-family="Songti SC" font-size="2.4697" text-anchor="start" fill="currentColor">
<tspan>稣</tspan>
</text>
</g>
<g transform="translate(65.9375, 41.0482)">
<rect x="-0.0757" y="-2.5000" width="0.1514" height="3.3287" ry="0.0500" fill="currentColor"/>
</g>
<g transform="translate(83.4461, 37.8570)">
<text font-family="Hiragino Sans GB" font-size="1.9604" text-anchor="start" fill="currentColor">
<tspan>D</tspan>
</text>
</g>
<g transform="translate(83.4461, 42.5482)">
<path transform="scale(0.0040, -0.0040)" d="M212 138c68 0 113 -38 113 -95c0 -90 -109 -181 -212 -181c-68 0 -113 38 -113 95c0 90 109 181 212 181z" fill="currentColor"/>
</g>
<g transform="translate(82.8588, 46.7850)">
<text font-family="Songti SC" font-size="2.4697" text-anchor="start" fill="currentColor">
<tspan>来</tspan>
</text>
</g>
<g transform="translate(84.6713, 41.0482)">
<rect x="-0.0757" y="-2.0000" width="0.1514" height="3.3287" ry="0.0500" fill="currentColor"/>
</g>
<g transform="translate(98.0874, 41.5482)">
<path transform="scale(0.0040, -0.0040)" d="M212 138c68 0 113 -38 113 -95c0 -90 -109 -181 -212 -181c-68 0 -113 38 -113 95c0 90 109 181 212 181z" fill="currentColor"/>
</g>
<g transform="translate(97.5002, 46.7850)">
<text font-family="Songti SC" font-size="2.4697" text-anchor="start" fill="currentColor">
<tspan>进</tspan>
</text>
</g>
<g transform="translate(99.3126, 41.0482)">
<rect x="-0.0757" y="-3.0000" width="0.1514" height="3.3287" ry="0.0500" fill="currentColor"/>
</g>
<g transform="translate(116.8899, 37.8570)">
<text font-family="Hiragino Sans GB" font-size="1.9604" text-anchor="start" fill="currentColor">
<tspan>G</tspan>
</text>
</g>
<g transform="translate(116.8899, 41.0482)">
<path transform="scale(0.0040, -0.0040)" d="M212 138c68 0 113 -38 113 -95c0 -90 -109 -181 -212 -181c-68 0 -113 38 -113 95c0 90 109 181 212 181z" fill="currentColor"/>
</g>
<g transform="translate(116.8899, 46.7850)">
<text font-family="Songti SC" font-size="2.4697" text-anchor="start" fill="currentColor">
<tspan>入，</tspan>
</text>
</g>
<g transform="translate(118.6322, 40.5482)">
<path transform="scale(0.0040, -0.0040)" d="M0 0c0 30 25 55 55 55s55 -25 55 -55s-25 -55 -55 -55s-55 25 -55 55z" fill="currentColor"/>
</g>
<g transform="translate(116.9656, 41.0482)">
<rect x="-0.0757" y="0.1713" width="0.1514" height="3.0079" ry="0.0500" fill="currentColor"/>
</g>
<g transform="translate(127.4418, 40.5482)">
<path transform="scale(0.0040, -0.0040)" d="M212 138c68 0 113 -38 113 -95c0 -90 -109 -181 -212 -181c-68 0 -113 38 -113 95c0 90 109 181 212 181z" fill="currentColor"/>
</g>
<g transform="translate(127.5174, 41.0482)">
<rect x="-0.0757" y="-0.3287" width="0.1514" height="3.1495" ry="0.0500" fill="currentColor"/>
</g>
<g transform="translate(131.9263, 41.0482)">
<path transform="scale(0.0040, -0.0040)" d="M212 138c68 0 113 -38 113 -95c0 -90 -109 -181 -212 -181c-68 0 -113 38 -113 95c0 90 109 181 212 181z" fill="currentColor"/>
</g>
<g transform="translate(133.1514, 41.0482)">
<rect x="-0.0757" y="-3.1782" width="0.1514" height="3.0068" ry="0.0500" fill="currentColor"/>
</g>
<g transform="translate(139.3944, 41.5482)">
<path transform="scale(0.0040, -0.0040)" d="M212 138c68 0 113 -38 113 -95c0 -90 -109 -181 -212 -181c-68 0 -113 38 -113 95c0 90 109 181 212 181z" fill="currentColor"/>
</g>
<g transform="translate(140.6196, 41.0482)">
<rect x="-0.0757" y="-2.8218" width="0.1514" height="3.1505" ry="0.0500" fill="currentColor"/>
</g>
<g transform="translate(46.2566, 53.6536)">
<rect x="0.0000" y="-2.0000" width="0.2212" height="4.0000" ry="0.0000" fill="currentColor"/>
</g>
<g transform="translate(9.0337, 55.6536)">
<line stroke-linejoin="round" stroke-linecap="round" stroke-width="0.1164" stroke="currentColor" x1="0.0582" y1="0" x2="138.1582" y2="0"/>
</g>
<g transform="translate(9.0337, 54.6536)">
<line stroke-linejoin="round" stroke-linecap="round" stroke-width="0.1164" stroke="currentColor" x1="0.0582" y1="0" x2="138.1582" y2="0"/>
</g>
<g transform="translate(9.0337, 53.6536)">
<line stroke-linejoin="round" stroke-linecap="round" stroke-width="0.1164" stroke="currentColor" x1="0.0582" y1="0" x2="138.1582" y2="0"/>
</g>
<g transform="translate(9.0337, 52.6536)">
<line stroke-linejoin="round" stroke-linecap="round" stroke-width="0.1164" stroke="currentColor" x1="0.0582" y1="0" x2="138.1582" y2="0"/>
</g>
<g transform="translate(9.0337, 51.6536)">
<line stroke-linejoin="round" stroke-linecap="round" stroke-width="0.1164" stroke="currentColor" x1="0.0582" y1="0" x2="138.1582" y2="0"/>
</g>
<g transform="translate(147.0289, 53.6536)">
<rect x="0.0000" y="-2.0000" width="0.2212" height="4.0000" ry="0.0000" fill="currentColor"/>
</g>
<g transform="translate(114.6799, 53.6536)">
<rect x="0.0000" y="-2.0000" width="0.2212" height="4.0000" ry="0.0000" fill="currentColor"/>
</g>
<g transform="translate(79.6128, 53.6536)">
<rect x="0.0000" y="-2.0000" width="0.2212" height="4.0000" ry="0.0000" fill="currentColor"/>
</g>
<g transform="translate(9.0337, 53.6536)">
<path stroke-width="0.0931" stroke-linejoin="round" stroke-linecap="round" stroke="currentColor" fill="currentColor" d="M5.4000 -0.5527C6.2507 -1.3633 7.8988 -1.3633 8.7495 -0.5527L8.7495 -0.5527C7.8988 -1.2235 6.2507 -1.2235 5.4000 -0.5527z"/>
</g>
<g transform="translate(126.6048, 53.6536)">
<path stroke-width="0.0931" stroke-linejoin="round" stroke-linecap="round" stroke="currentColor" fill="currentColor" d="M0.6504 3.5527C3.1088 5.3016 17.9657 5.3016 20.4241 3.5527L20.4241 3.5527C17.9657 5.1619 3.1088 5.1619 0.6504 3.5527z"/>
</g>
<g transform="translate(9.8338, 54.6536)">
<path transform="scale(0.0040, -0.0040)" d="M647 2c0 -114 -75 -214 -180 -248c3 -33 4 -66 4 -99c0 -21 0 -41 -1 -62c-7 -122 -92 -229 -211 -229c-108 0 -196 88 -196 197c0 58 54 103 113 103c54 0 95 -47 95 -103c0 -52 -43 -95 -95 -95c-9 0 -18 1 -27 4c25 -37 66 -61 113 -61c93 0 156 91 162 191
c1 19 2 38 2 57c0 29 -1 58 -3 87c-5 -1 -44 -8 -88 -8c-194 0 -333 181 -333 376c0 177 129 308 244 443c-34 103 -55 171 -55 347c0 114 54 221 147 288c8 6 18 5 25 -1c68 -79 135 -242 135 -356c0 -142 -84 -255 -176 -364c21 -68 40 -136 57 -205c1 0 5 1 10 1
c157 0 258 -129 258 -263zM463 -201c64 24 110 88 110 161c0 88 -64 175 -167 188c28 -133 49 -269 57 -349zM77 25c0 -144 141 -243 261 -243c1 0 46 -1 81 5c-7 66 -27 208 -60 362c-79 -8 -124 -60 -124 -118c0 -43 25 -88 80 -120c5 -5 7 -11 7 -17
c0 -12 -10 -23 -23 -23c-16 0 -128 62 -128 188c0 89 60 177 163 200c-14 57 -30 113 -47 169c-105 -122 -210 -243 -210 -403zM242 784c0 -39 10 -95 39 -188c78 97 142 199 142 324c0 33 0 60 -20 118c-99 -46 -161 -145 -161 -254z" fill="currentColor"/>
</g>
<g transform="translate(13.3337, 51.6536)">
<path transform="scale(0.0040, -0.0040)" d="M0 116c0 10 6 19 16 23l40 15v154c0 12 9 21 21 21s21 -9 21 -21v-138l79 30v154c0 12 9 21 21 21s21 -9 21 -21v-138l22 8c3 1 6 2 9 2c13 0 25 -11 25 -25v-54c0 -10 -6 -20 -16 -24l-40 -15v-155l22 9c3 1 6 1 9 1c13 0 25 -11 25 -25v-54c0 -10 -6 -19 -16 -23
l-40 -15v-154c0 -12 -9 -21 -21 -21s-21 9 -21 21v138l-79 -30v-154c0 -12 -9 -21 -21 -21s-21 9 -21 21v138l-22 -8c-3 -1 -6 -2 -9 -2c-13 0 -25 11 -25 25v54c0 10 6 20 16 24l40 15v155l-22 -9c-3 -1 -6 -1 -9 -1c-13 0 -25 11 -25 25v54zM177 92l-79 -30v-154l79 30
v154z" fill="currentColor"/>
</g>
<g transform="translate(8.2228, 50.6805)">
<text font-family="Songti SC" font-size="1.7463" text-anchor="start" fill="currentColor">
<tspan>8</tspan>
</text>
</g>
<g transform="translate(16.9338, 50.1595)">
<text font-family="Hiragino Sans GB" font-size="1.9604" text-anchor="start" fill="currentColor">
<tspan>D</tspan>
</text>
</g>
<g transform="translate(16.9338, 54.1536)">
<path transform="scale(0.0040, -0.0040)" d="M212 138c68 0 113 -38 113 -95c0 -90 -109 -181 -212 -181c-68 0 -113 38 -113 95c0 90 109 181 212 181z" fill="currentColor"/>
</g>
<g transform="translate(18.1589, 53.6536)">
<rect x="-0.0757" y="-3.0000" width="0.1514" height="3.3287" ry="0.0500" fill="currentColor"/>
</g>
<g transform="translate(31.3630, 56.1536)">
<path transform="scale(0.0040, -0.0040)" d="M212 138c68 0 113 -38 113 -95c0 -90 -109 -181 -212 -181c-68 0 -113 38 -113 95c0 90 109 181 212 181z" fill="currentColor"/>
</g>
<g transform="translate(30.7758, 60.2744)">
<text font-family="Songti SC" font-size="2.4697" text-anchor="start" fill="currentColor">
<tspan>我</tspan>
</text>
</g>
<g transform="translate(32.5882, 53.6536)">
<rect x="-0.0757" y="-1.0000" width="0.1514" height="3.3287" ry="0.0500" fill="currentColor"/>
</g>
<g transform="translate(100.4197, 50.6536)">
<polygon stroke-linejoin="round" stroke-linecap="round" stroke-width="0.1000" fill="currentColor" stroke="currentColor" points="10.8567 -0.0082 10.8567 0.3718 0.0500 0.1900 0.0500 -0.1900"/>
</g>
<g transform="translate(110.1507, 51.6340)">
<polygon stroke-linejoin="round" stroke-linecap="round" stroke-width="0.1000" fill="currentColor" stroke="currentColor" points="1.1257 -0.1704 1.1257 0.2096 0.0500 0.1900 0.0500 -0.1900"/>
</g>
<g transform="translate(50.6349, 50.1595)">
<text font-family="Hiragino Sans GB" font-size="1.9604" text-anchor="start" fill="currentColor">
<tspan>G</tspan>
</text>
</g>
<g transform="translate(50.6349, 52.6536)">
<path transform="scale(0.0040, -0.0040)" d="M212 138c68 0 113 -38 113 -95c0 -90 -109 -181 -212 -181c-68 0 -113 38 -113 95c0 90 109 181 212 181z" fill="currentColor"/>
</g>
<g transform="translate(50.0476, 60.2744)">
<text font-family="Songti SC" font-size="2.4697" text-anchor="start" fill="currentColor">
<tspan>今</tspan>
</text>
</g>
<g transform="translate(50.7106, 53.6536)">
<rect x="-0.0757" y="-0.8287" width="0.1514" height="3.3287" ry="0.0500" fill="currentColor"/>
</g>
<g transform="translate(65.0642, 53.6536)">
<path transform="scale(0.0040, -0.0040)" d="M212 138c68 0 113 -38 113 -95c0 -90 -109 -181 -212 -181c-68 0 -113 38 -113 95c0 90 109 181 212 181z" fill="currentColor"/>
</g>
<g transform="translate(64.4769, 60.2744)">
<text font-family="Songti SC" font-size="2.4697" text-anchor="start" fill="currentColor">
<tspan>是</tspan>
</text>
</g>
<g transform="translate(65.1398, 53.6536)">
<rect x="-0.0757" y="0.1713" width="0.1514" height="3.1620" ry="0.0500" fill="currentColor"/>
</g>
<g transform="translate(93.6935, 56.3011)">
<polygon stroke-linejoin="round" stroke-linecap="round" stroke-width="0.1000" fill="currentColor" stroke="currentColor" points="1.1257 -0.1557 1.1257 0.2243 0.0500 0.1900 0.0500 -0.1900"/>
</g>
<g transform="translate(83.9625, 56.8354)">
<polygon stroke-linejoin="round" stroke-linecap="round" stroke-width="0.1000" fill="currentColor" stroke="currentColor" points="10.8567 0.1282 10.8567 0.5082 0.0500 0.1900 0.0500 -0.1900"/>
</g>
<g transform="translate(83.9625, 50.1595)">
<text font-family="Hiragino Sans GB" font-size="1.9604" text-anchor="start" fill="currentColor">
<tspan>D</tspan>
</text>
</g>
<g transform="translate(85.4563, 49.2686)">
<text font-family="Hiragino Sans GB" font-size="1.3856" text-anchor="start" fill="currentColor">
<tspan>7</tspan>
</text>
</g>
<g transform="translate(83.9625, 53.1536)">
<path transform="scale(0.0040, -0.0040)" d="M212 138c68 0 113 -38 113 -95c0 -90 -109 -181 -212 -181c-68 0 -113 38 -113 95c0 90 109 181 212 181z" fill="currentColor"/>
</g>
<g transform="translate(83.3753, 60.2744)">
<text font-family="Songti SC" font-size="2.4697" text-anchor="start" fill="currentColor">
<tspan>单</tspan>
</text>
</g>
<g transform="translate(85.7048, 53.1536)">
<path transform="scale(0.0040, -0.0040)" d="M0 0c0 30 25 55 55 55s55 -25 55 -55s-25 -55 -55 -55s-55 25 -55 55z" fill="currentColor"/>
</g>
<g transform="translate(84.0382, 53.6536)">
<rect x="-0.0757" y="-0.3287" width="0.1514" height="3.5127" ry="0.0500" fill="currentColor"/>
</g>
<g transform="translate(94.7178, 53.6536)">
<path transform="scale(0.0040, -0.0040)" d="M212 138c68 0 113 -38 113 -95c0 -90 -109 -181 -212 -181c-68 0 -113 38 -113 95c0 90 109 181 212 181z" fill="currentColor"/>
</g>
<g transform="translate(94.1306, 60.2744)">
<text font-family="Songti SC" font-size="2.4697" text-anchor="start" fill="currentColor">
<tspan>纯</tspan>
</text>
</g>
<g transform="translate(94.7935, 53.6536)">
<rect x="-0.0757" y="0.1713" width="0.1514" height="3.3265" ry="0.0500" fill="currentColor"/>
</g>
<g transform="translate(99.2702, 54.1536)">
<path transform="scale(0.0040, -0.0040)" d="M212 138c68 0 113 -38 113 -95c0 -90 -109 -181 -212 -181c-68 0 -113 38 -113 95c0 90 109 181 212 181z" fill="currentColor"/>
</g>
<g transform="translate(98.6829, 60.2744)">
<text font-family="Songti SC" font-size="2.4697" text-anchor="start" fill="currentColor">
<tspan>敞</tspan>
</text>
</g>
<g transform="translate(101.0125, 54.1536)">
<path transform="scale(0.0040, -0.0040)" d="M0 0c0 30 25 55 55 55s55 -25 55 -55s-25 -55 -55 -55s-55 25 -55 55z" fill="currentColor"/>
</g>
<g transform="translate(100.4953, 53.6536)">
<rect x="-0.0757" y="-2.9987" width="0.1514" height="3.3274" ry="0.0500" fill="currentColor"/>
</g>
<g transform="translate(110.0255, 54.6536)">
<path transform="scale(0.0040, -0.0040)" d="M212 138c68 0 113 -38 113 -95c0 -90 -109 -181 -212 -181c-68 0 -113 38 -113 95c0 90 109 181 212 181z" fill="currentColor"/>
</g>
<g transform="translate(109.4382, 60.2744)">
<text font-family="Songti SC" font-size="2.4697" text-anchor="start" fill="currentColor">
<tspan>开</tspan>
</text>
</g>
<g transform="translate(111.2507, 53.6536)">
<rect x="-0.0757" y="-2.8195" width="0.1514" height="3.6481" ry="0.0500" fill="currentColor"/>
</g>
<g transform="translate(119.0010, 50.1595)">
<text font-family="Hiragino Sans GB" font-size="1.9604" text-anchor="start" fill="currentColor">
<tspan>G</tspan>
</text>
</g>
<g transform="translate(119.0010, 53.6536)">
<path transform="scale(0.0040, -0.0040)" d="M212 138c68 0 113 -38 113 -95c0 -90 -109 -181 -212 -181c-68 0 -113 38 -113 95c0 90 109 181 212 181z" fill="currentColor"/>
</g>
<g transform="translate(118.4137, 60.2744)">
<text font-family="Songti SC" font-size="2.4697" text-anchor="start" fill="currentColor">
<tspan>我</tspan>
</text>
</g>
<g transform="translate(119.0767, 53.6536)">
<rect x="-0.0757" y="0.1713" width="0.1514" height="3.2037" ry="0.0500" fill="currentColor"/>
</g>
<g transform="translate(119.1524, 56.9786)">
<path transform="scale(0.0040, -0.0040)" d="M0 0h-19v250h19v-250zM0 0v250c95 59 220 149 220 259c0 56 -16 111 -41 161c-3 18 12 30 26 30c8 0 17 -4 22 -13c25 -56 40 -116 40 -178c0 -203 -267 -306 -267 -509z" fill="currentColor"/>
</g>
<g transform="translate(126.6048, 56.1536)">
<path transform="scale(0.0040, -0.0040)" d="M212 138c68 0 113 -38 113 -95c0 -90 -109 -181 -212 -181c-68 0 -113 38 -113 95c0 90 109 181 212 181z" fill="currentColor"/>
</g>
<g transform="translate(126.6048, 60.2744)">
<text font-family="Songti SC" font-size="2.4697" text-anchor="start" fill="currentColor">
<tspan>心，</tspan>
</text>
</g>
<g transform="translate(128.3471, 56.1536)">
<path transform="scale(0.0040, -0.0040)" d="M0 0c0 30 25 55 55 55s55 -25 55 -55s-25 -55 -55 -55s-55 25 -55 55z" fill="currentColor"/>
</g>
<g transform="translate(127.8300, 53.6536)">
<rect x="-0.0757" y="-1.0000" width="0.1514" height="3.3287" ry="0.0500" fill="currentColor"/>
</g>
<g transform="translate(41.1970, 66.2464)">
<rect x="0.0000" y="-2.0000" width="0.2212" height="4.0000" ry="0.0000" fill="currentColor"/>
</g>
<g transform="translate(9.0337, 68.2464)">
<line stroke-linejoin="round" stroke-linecap="round" stroke-width="0.1164" stroke="currentColor" x1="0.0582" y1="0" x2="138.1582" y2="0"/>
</g>
<g transform="translate(9.0337, 67.2464)">
<line stroke-linejoin="round" stroke-linecap="round" stroke-width="0.1164" stroke="currentColor" x1="0.0582" y1="0" x2="138.1582" y2="0"/>
</g>
<g transform="translate(9.0337, 66.2464)">
<line stroke-linejoin="round" stroke-linecap="round" stroke-width="0.1164" stroke="currentColor" x1="0.0582" y1="0" x2="138.1582" y2="0"/>
</g>
<g transform="translate(9.0337, 65.2464)">
<line stroke-linejoin="round" stroke-linecap="round" stroke-width="0.1164" stroke="currentColor" x1="0.0582" y1="0" x2="138.1582" y2="0"/>
</g>
<g transform="translate(9.0337, 64.2464)">
<line stroke-linejoin="round" stroke-linecap="round" stroke-width="0.1164" stroke="currentColor" x1="0.0582" y1="0" x2="138.1582" y2="0"/>
</g>
<g transform="translate(146.5516, 66.2464)">
<rect x="0.0000" y="-2.0000" width="0.6986" height="4.0000" ry="0.0000" fill="currentColor"/>
</g>
<g transform="translate(145.9811, 66.2464)">
<rect x="0.0000" y="-2.0000" width="0.2212" height="4.0000" ry="0.0000" fill="currentColor"/>
</g>
<g transform="translate(121.5853, 66.2464)">
<rect x="0.0000" y="-2.0000" width="0.2212" height="4.0000" ry="0.0000" fill="currentColor"/>
</g>
<g transform="translate(97.1896, 66.2464)">
<rect x="0.0000" y="-2.0000" width="0.2212" height="4.0000" ry="0.0000" fill="currentColor"/>
</g>
<g transform="translate(69.2112, 66.2464)">
<rect x="0.0000" y="-2.0000" width="0.2212" height="4.0000" ry="0.0000" fill="currentColor"/>
</g>
<g transform="translate(9.8338, 67.2464)">
<path transform="scale(0.0040, -0.0040)" d="M647 2c0 -114 -75 -214 -180 -248c3 -33 4 -66 4 -99c0 -21 0 -41 -1 -62c-7 -122 -92 -229 -211 -229c-108 0 -196 88 -196 197c0 58 54 103 113 103c54 0 95 -47 95 -103c0 -52 -43 -95 -95 -95c-9 0 -18 1 -27 4c25 -37 66 -61 113 -61c93 0 156 91 162 191
c1 19 2 38 2 57c0 29 -1 58 -3 87c-5 -1 -44 -8 -88 -8c-194 0 -333 181 -333 376c0 177 129 308 244 443c-34 103 -55 171 -55 347c0 114 54 221 147 288c8 6 18 5 25 -1c68 -79 135 -242 135 -356c0 -142 -84 -255 -176 -364c21 -68 40 -136 57 -205c1 0 5 1 10 1
c157 0 258 -129 258 -263zM463 -201c64 24 110 88 110 161c0 88 -64 175 -167 188c28 -133 49 -269 57 -349zM77 25c0 -144 141 -243 261 -243c1 0 46 -1 81 5c-7 66 -27 208 -60 362c-79 -8 -124 -60 -124 -118c0 -43 25 -88 80 -120c5 -5 7 -11 7 -17
c0 -12 -10 -23 -23 -23c-16 0 -128 62 -128 188c0 89 60 177 163 200c-14 57 -30 113 -47 169c-105 -122 -210 -243 -210 -403zM242 784c0 -39 10 -95 39 -188c78 97 142 199 142 324c0 33 0 60 -20 118c-99 -46 -161 -145 -161 -254z" fill="currentColor"/>
</g>
<g transform="translate(13.3337, 64.2464)">
<path transform="scale(0.0040, -0.0040)" d="M0 116c0 10 6 19 16 23l40 15v154c0 12 9 21 21 21s21 -9 21 -21v-138l79 30v154c0 12 9 21 21 21s21 -9 21 -21v-138l22 8c3 1 6 2 9 2c13 0 25 -11 25 -25v-54c0 -10 -6 -20 -16 -24l-40 -15v-155l22 9c3 1 6 1 9 1c13 0 25 -11 25 -25v-54c0 -10 -6 -19 -16 -23
l-40 -15v-154c0 -12 -9 -21 -21 -21s-21 9 -21 21v138l-79 -30v-154c0 -12 -9 -21 -21 -21s-21 9 -21 21v138l-22 -8c-3 -1 -6 -2 -9 -2c-13 0 -25 11 -25 25v54c0 10 6 20 16 24l40 15v155l-22 -9c-3 -1 -6 -1 -9 -1c-13 0 -25 11 -25 25v54zM177 92l-79 -30v-154l79 30
v154z" fill="currentColor"/>
</g>
<g transform="translate(7.4119, 63.2959)">
<text font-family="Songti SC" font-size="1.7463" text-anchor="start" fill="currentColor">
<tspan>12</tspan>
</text>
</g>
<g transform="translate(16.9338, 63.2366)">
<text font-family="Hiragino Sans GB" font-size="1.9604" text-anchor="start" fill="currentColor">
<tspan>G</tspan>
</text>
</g>
<g transform="translate(16.9338, 68.7464)">
<path transform="scale(0.0040, -0.0040)" d="M212 138c68 0 113 -38 113 -95c0 -90 -109 -181 -212 -181c-68 0 -113 38 -113 95c0 90 109 181 212 181z" fill="currentColor"/>
</g>
<g transform="translate(18.1589, 66.2464)">
<rect x="-0.0757" y="-1.0000" width="0.1514" height="3.3287" ry="0.0500" fill="currentColor"/>
</g>
<g transform="translate(101.7027, 66.2464)">
<path stroke-width="0.0931" stroke-linejoin="round" stroke-linecap="round" stroke="currentColor" fill="currentColor" d="M0.8919 1.7500C2.4813 2.7692 23.2983 2.7692 24.8877 1.7500L24.8877 1.7500C23.2983 2.6295 2.4813 2.6295 0.8919 1.7500z"/>
</g>
<g transform="translate(28.9583, 68.7464)">
<path transform="scale(0.0040, -0.0040)" d="M212 138c68 0 113 -38 113 -95c0 -90 -109 -181 -212 -181c-68 0 -113 38 -113 95c0 90 109 181 212 181z" fill="currentColor"/>
</g>
<g transform="translate(28.3710, 71.7464)">
<text font-family="Songti SC" font-size="2.4697" text-anchor="start" fill="currentColor">
<tspan>主</tspan>
</text>
</g>
<g transform="translate(30.1834, 66.2464)">
<rect x="-0.0757" y="-1.0000" width="0.1514" height="3.3287" ry="0.0500" fill="currentColor"/>
</g>
<g transform="translate(44.7101, 63.2366)">
<text font-family="Hiragino Sans GB" font-size="1.9604" text-anchor="start" fill="currentColor">
<tspan>C</tspan>
</text>
</g>
<g transform="translate(44.7101, 68.2464)">
<path transform="scale(0.0040, -0.0040)" d="M212 138c68 0 113 -38 113 -95c0 -90 -109 -181 -212 -181c-68 0 -113 38 -113 95c0 90 109 181 212 181z" fill="currentColor"/>
</g>
<g transform="translate(44.1229, 71.7464)">
<text font-family="Songti SC" font-size="2.4697" text-anchor="start" fill="currentColor">
<tspan>耶</tspan>
</text>
</g>
<g transform="translate(45.9353, 66.2464)">
<rect x="-0.0757" y="-1.5000" width="0.1514" height="3.3287" ry="0.0500" fill="currentColor"/>
</g>
<g transform="translate(56.9846, 67.2464)">
<path transform="scale(0.0040, -0.0040)" d="M212 138c68 0 113 -38 113 -95c0 -90 -109 -181 -212 -181c-68 0 -113 38 -113 95c0 90 109 181 212 181z" fill="currentColor"/>
</g>
<g transform="translate(56.3974, 71.7464)">
<text font-family="Songti SC" font-size="2.4697" text-anchor="start" fill="currentColor">
<tspan>稣</tspan>
</text>
</g>
<g transform="translate(58.2098, 66.2464)">
<rect x="-0.0757" y="-2.5000" width="0.1514" height="3.3287" ry="0.0500" fill="currentColor"/>
</g>
<g transform="translate(72.7243, 63.2366)">
<text font-family="Hiragino Sans GB" font-size="1.9604" text-anchor="start" fill="currentColor">
<tspan>D</tspan>
</text>
</g>
<g transform="translate(74.2180, 62.3457)">
<text font-family="Hiragino Sans GB" font-size="1.3856" text-anchor="start" fill="currentColor">
<tspan>7</tspan>
</text>
</g>
<g transform="translate(72.7243, 67.7464)">
<path transform="scale(0.0040, -0.0040)" d="M212 138c68 0 113 -38 113 -95c0 -90 -109 -181 -212 -181c-68 0 -113 38 -113 95c0 90 109 181 212 181z" fill="currentColor"/>
</g>
<g transform="translate(72.1370, 71.7464)">
<text font-family="Songti SC" font-size="2.4697" text-anchor="start" fill="currentColor">
<tspan>来</tspan>
</text>
</g>
<g transform="translate(73.9494, 66.2464)">
<rect x="-0.0757" y="-2.0000" width="0.1514" height="3.3287" ry="0.0500" fill="currentColor"/>
</g>
<g transform="translate(9.0337, 66.2464)">
<path stroke-width="0.0931" stroke-linejoin="round" stroke-linecap="round" stroke="currentColor" fill="currentColor" d="M5.4000 3.5527C6.2104 4.3279 7.7401 4.3279 8.5504 3.5527L8.5504 3.5527C7.7401 4.1882 6.2104 4.1882 5.4000 3.5527z"/>
</g>
<g transform="translate(84.9988, 66.7464)">
<path transform="scale(0.0040, -0.0040)" d="M212 138c68 0 113 -38 113 -95c0 -90 -109 -181 -212 -181c-68 0 -113 38 -113 95c0 90 109 181 212 181z" fill="currentColor"/>
</g>
<g transform="translate(84.4115, 71.7464)">
<text font-family="Songti SC" font-size="2.4697" text-anchor="start" fill="currentColor">
<tspan>进</tspan>
</text>
</g>
<g transform="translate(86.2239, 66.2464)">
<rect x="-0.0757" y="-3.0000" width="0.1514" height="3.3287" ry="0.0500" fill="currentColor"/>
</g>
<g transform="translate(101.7027, 63.2366)">
<text font-family="Hiragino Sans GB" font-size="1.9604" text-anchor="start" fill="currentColor">
<tspan>G</tspan>
</text>
</g>
<g transform="translate(101.7027, 67.2464)">
<path transform="scale(0.0040, -0.0040)" d="M310 63c0 22 -17 40 -40 40c-38 0 -197 -107 -224 -139c-7 -8 -10 -17 -10 -27c0 -22 17 -40 40 -40c38 0 197 107 224 139c7 8 10 17 10 27zM256 138c55 0 90 -22 90 -77c0 -25 -15 -112 -73 -151c-34 -23 -92 -48 -183 -48c-55 0 -90 22 -90 77c0 25 15 112 73 151
c34 23 92 48 183 48z" fill="currentColor"/>
</g>
<g transform="translate(99.9192, 71.7464)">
<text font-family="Songti SC" font-size="2.4697" text-anchor="start" fill="currentColor">
<tspan>入。</tspan>
</text>
</g>
<g transform="translate(103.0109, 66.2464)">
<rect x="-0.0757" y="-2.5000" width="0.1514" height="3.2544" ry="0.0500" fill="currentColor"/>
</g>
<g transform="translate(126.0984, 67.2464)">
<path transform="scale(0.0040, -0.0040)" d="M310 63c0 22 -17 40 -40 40c-38 0 -197 -107 -224 -139c-7 -8 -10 -17 -10 -27c0 -22 17 -40 40 -40c38 0 197 107 224 139c7 8 10 17 10 27zM256 138c55 0 90 -22 90 -77c0 -25 -15 -112 -73 -151c-34 -23 -92 -48 -183 -48c-55 0 -90 22 -90 77c0 25 15 112 73 151
c34 23 92 48 183 48z" fill="currentColor"/>
</g>
<g transform="translate(127.4066, 66.2464)">
<rect x="-0.0757" y="-2.5000" width="0.1514" height="3.2544" ry="0.0500" fill="currentColor"/>
</g>
<g transform="translate(64.6114, 81.2464)">
<text font-family="Songti SC" font-weight="bold" font-size="2.2001" text-anchor="start" fill="currentColor">
<tspan>2.</tspan>
</text>
</g>
<g transform="translate(66.7052, 81.2464)">
<text font-family="Songti SC" font-size="2.2001" text-anchor="start" fill="currentColor">
<tspan>我只望单单纯纯爱你， </tspan>
</text>
</g>
<g transform="translate(66.7052, 84.2464)">
<text font-family="Songti SC" font-size="2.2001" text-anchor="start" fill="currentColor">
<tspan>求你住我心内。 </tspan>
</text>
</g>
<g transform="translate(66.7052, 87.2464)">
<text font-family="Songti SC" font-size="2.2001" text-anchor="start" fill="currentColor">
<tspan>我只望单单纯纯爱你， </tspan>
</text>
</g>
<g transform="translate(66.7052, 90.2464)">
<text font-family="Songti SC" font-size="2.2001" text-anchor="start" fill="currentColor">
<tspan>求你住我心内。 </tspan>
</text>
</g>
<g transform="translate(66.7052, 92.2464)">
<text font-family="Songti SC" font-size="1.5560" text-anchor="start" fill="currentColor">
<tspan> </tspan>
</text>
</g>
<g transform="translate(64.6114, 95.2464)">
<text font-family="Songti SC" font-weight="bold" font-size="2.2001" text-anchor="start" fill="currentColor">
<tspan>3.</tspan>
</text>
</g>
<g transform="translate(66.7052, 95.2464)">
<text font-family="Songti SC" font-size="2.2001" text-anchor="start" fill="currentColor">
<tspan>主你是活活泼泼人位， </tspan>
</text>
</g>
<g transform="translate(66.7052, 98.2464)">
<text font-family="Songti SC" font-size="2.2001" text-anchor="start" fill="currentColor">
<tspan>时刻活在我里。 </tspan>
</text>
</g>
<g transform="translate(66.7052, 101.2464)">
<text font-family="Songti SC" font-size="2.2001" text-anchor="start" fill="currentColor">
<tspan>主你是活活泼泼人位， </tspan>
</text>
</g>
<g transform="translate(66.7052, 104.2464)">
<text font-family="Songti SC" font-size="2.2001" text-anchor="start" fill="currentColor">
<tspan>时刻活在我里。 </tspan>
</text>
</g>
<g transform="translate(66.7052, 106.2464)">
<text font-family="Songti SC" font-size="1.5560" text-anchor="start" fill="currentColor">
<tspan> </tspan>
</text>
</g>
<g transform="translate(64.6114, 109.2464)">
<text font-family="Songti SC" font-weight="bold" font-size="2.2001" text-anchor="start" fill="currentColor">
<tspan>4.</tspan>
</text>
</g>
<g transform="translate(66.7052, 109.2464)">
<text font-family="Songti SC" font-size="2.2001" text-anchor="start" fill="currentColor">
<tspan>现在我在灵中享受你， </tspan>
</text>
</g>
<g transform="translate(66.7052, 112.2464)">
<text font-family="Songti SC" font-size="2.2001" text-anchor="start" fill="currentColor">
<tspan>借你生命而活。 </tspan>
</text>
</g>
<g transform="translate(66.7052, 115.2464)">
<text font-family="Songti SC" font-size="2.2001" text-anchor="start" fill="currentColor">
<tspan>现在我在灵中享受你， </tspan>
</text>
</g>
<g transform="translate(66.7052, 118.2464)">
<text font-family="Songti SC" font-size="2.2001" text-anchor="start" fill="currentColor">
<tspan>借你生命而活。 </tspan>
</text>
</g>
<g transform="translate(66.7052, 120.2464)">
<text font-family="Songti SC" font-size="1.5560" text-anchor="start" fill="currentColor">
<tspan> </tspan>
</text>
</g>
<g transform="translate(64.6114, 123.2464)">
<text font-family="Songti SC" font-weight="bold" font-size="2.2001" text-anchor="start" fill="currentColor">
<tspan>5.</tspan>
</text>
</g>
<g transform="translate(66.7052, 123.2464)">
<text font-family="Songti SC" font-size="2.2001" text-anchor="start" fill="currentColor">
<tspan>安息的‘阿们’你， </tspan>
</text>
</g>
<g transform="translate(66.7052, 126.2464)">
<text font-family="Songti SC" font-size="2.2001" text-anchor="start" fill="currentColor">
<tspan>主耶稣，你占有我全人。 </tspan>
</text>
</g>
<g transform="translate(66.7052, 129.2464)">
<text font-family="Songti SC" font-size="2.2001" text-anchor="start" fill="currentColor">
<tspan>安息的‘阿们’你， </tspan>
</text>
</g>
<g transform="translate(66.7052, 132.2464)">
<text font-family="Songti SC" font-size="2.2001" text-anchor="start" fill="currentColor">
<tspan>主耶稣，你占有我全人。 </tspan>
</text>
</g>
<g transform="translate(66.7052, 134.2464)">
<text font-family="Songti SC" font-size="1.5560" text-anchor="start" fill="currentColor">
<tspan> </tspan>
</text>
</g>
<g transform="translate(69.8408, 191.9677)">
<text font-family="Trebuchet MS" font-size="2.2001" text-anchor="start" fill="currentColor">
<tspan>www.hymnal.net</tspan>
</text>
</g>
</svg>
