<svg xmlns="http://www.w3.org/2000/svg" xmlns:xlink="http://www.w3.org/1999/xlink" version="1.2" width="215.90mm" height="279.40mm" viewBox="0.0000 -0.0000 153.5737 198.7425">
<style type="text/css">
<![CDATA[
tspan { white-space: pre; }
]]>
</style>
<g transform="translate(68.7952, 9.7505)">
<text font-family="Songti SC" font-weight="bold" font-size="3.1113" text-anchor="start" fill="currentColor">
<tspan>耶稣！我爱你</tspan>
</text>
</g>
<g transform="translate(73.7033, 13.2505)">
<text font-family="Songti SC" font-weight="bold" font-size="2.2001" text-anchor="start" fill="currentColor">
<tspan>爱慕耶稣</tspan>
</text>
</g>
<g transform="translate(133.0807, 17.7325)">
<text font-family="Songti SC" font-size="5.8741" text-anchor="start" fill="currentColor">
<tspan>Cs301</tspan>
</text>
</g>
<g transform="translate(9.0337, 19.6745)">
<text font-family="Songti SC" font-weight="bold" font-style="italic" font-size="2.2001" text-anchor="start" fill="currentColor">
<tspan>(吉他)</tspan>
</text>
</g>
<g transform="translate(26.8778, 29.7910)">
<rect x="0.0000" y="-2.0000" width="0.2212" height="4.0000" ry="0.0000" fill="currentColor"/>
</g>
<g transform="translate(9.0337, 32.7910)">
<rect x="11.0077" y="-0.1082" width="1.9513" height="0.2164" ry="0.1082" fill="currentColor"/>
</g>
<g transform="translate(9.0337, 33.7910)">
<rect x="11.0077" y="-0.1082" width="1.9513" height="0.2164" ry="0.1082" fill="currentColor"/>
</g>
<g transform="translate(9.0337, 31.7910)">
<line stroke-linejoin="round" stroke-linecap="round" stroke-width="0.1164" stroke="currentColor" x1="0.0582" y1="0" x2="138.1582" y2="0"/>
</g>
<g transform="translate(9.0337, 30.7910)">
<line stroke-linejoin="round" stroke-linecap="round" stroke-width="0.1164" stroke="currentColor" x1="0.0582" y1="0" x2="138.1582" y2="0"/>
</g>
<g transform="translate(9.0337, 29.7910)">
<line stroke-linejoin="round" stroke-linecap="round" stroke-width="0.1164" stroke="currentColor" x1="0.0582" y1="0" x2="138.1582" y2="0"/>
</g>
<g transform="translate(9.0337, 28.7910)">
<line stroke-linejoin="round" stroke-linecap="round" stroke-width="0.1164" stroke="currentColor" x1="0.0582" y1="0" x2="138.1582" y2="0"/>
</g>
<g transform="translate(9.0337, 27.7910)">
<line stroke-linejoin="round" stroke-linecap="round" stroke-width="0.1164" stroke="currentColor" x1="0.0582" y1="0" x2="138.1582" y2="0"/>
</g>
<g transform="translate(147.0289, 29.7910)">
<rect x="0.0000" y="-2.0000" width="0.2212" height="4.0000" ry="0.0000" fill="currentColor"/>
</g>
<g transform="translate(122.6282, 29.7910)">
<rect x="0.0000" y="-2.0000" width="0.2212" height="4.0000" ry="0.0000" fill="currentColor"/>
</g>
<g transform="translate(97.6431, 29.7910)">
<rect x="0.0000" y="-2.0000" width="0.2212" height="4.0000" ry="0.0000" fill="currentColor"/>
</g>
<g transform="translate(72.6224, 29.7910)">
<rect x="0.0000" y="-2.0000" width="0.2212" height="4.0000" ry="0.0000" fill="currentColor"/>
</g>
<g transform="translate(47.6251, 29.7910)">
<rect x="0.0000" y="-2.0000" width="0.2212" height="4.0000" ry="0.0000" fill="currentColor"/>
</g>
<g transform="translate(85.8940, 29.7910)">
<rect x="-0.0757" y="-2.5000" width="0.1514" height="3.3287" ry="0.0500" fill="currentColor"/>
</g>
<g transform="translate(20.3667, 25.7005)">
<text font-family="Hiragino Sans GB" font-size="1.9604" text-anchor="start" fill="currentColor">
<tspan>D</tspan>
</text>
</g>
<g transform="translate(20.3667, 33.7910)">
<path transform="scale(0.0040, -0.0040)" d="M212 138c68 0 113 -38 113 -95c0 -90 -109 -181 -212 -181c-68 0 -113 38 -113 95c0 90 109 181 212 181z" fill="currentColor"/>
</g>
<g transform="translate(9.8338, 30.7910)">
<path transform="scale(0.0040, -0.0040)" d="M647 2c0 -114 -75 -214 -180 -248c3 -33 4 -66 4 -99c0 -21 0 -41 -1 -62c-7 -122 -92 -229 -211 -229c-108 0 -196 88 -196 197c0 58 54 103 113 103c54 0 95 -47 95 -103c0 -52 -43 -95 -95 -95c-9 0 -18 1 -27 4c25 -37 66 -61 113 -61c93 0 156 91 162 191
c1 19 2 38 2 57c0 29 -1 58 -3 87c-5 -1 -44 -8 -88 -8c-194 0 -333 181 -333 376c0 177 129 308 244 443c-34 103 -55 171 -55 347c0 114 54 221 147 288c8 6 18 5 25 -1c68 -79 135 -242 135 -356c0 -142 -84 -255 -176 -364c21 -68 40 -136 57 -205c1 0 5 1 10 1
c157 0 258 -129 258 -263zM463 -201c64 24 110 88 110 161c0 88 -64 175 -167 188c28 -133 49 -269 57 -349zM77 25c0 -144 141 -243 261 -243c1 0 46 -1 81 5c-7 66 -27 208 -60 362c-79 -8 -124 -60 -124 -118c0 -43 25 -88 80 -120c5 -5 7 -11 7 -17
c0 -12 -10 -23 -23 -23c-16 0 -128 62 -128 188c0 89 60 177 163 200c-14 57 -30 113 -47 169c-105 -122 -210 -243 -210 -403zM242 784c0 -39 10 -95 39 -188c78 97 142 199 142 324c0 33 0 60 -20 118c-99 -46 -161 -145 -161 -254z" fill="currentColor"/>
</g>
<g transform="translate(13.3337, 27.7910)">
<path transform="scale(0.0040, -0.0040)" d="M0 116c0 10 6 19 16 23l40 15v154c0 12 9 21 21 21s21 -9 21 -21v-138l79 30v154c0 12 9 21 21 21s21 -9 21 -21v-138l22 8c3 1 6 2 9 2c13 0 25 -11 25 -25v-54c0 -10 -6 -20 -16 -24l-40 -15v-155l22 9c3 1 6 1 9 1c13 0 25 -11 25 -25v-54c0 -10 -6 -19 -16 -23
l-40 -15v-154c0 -12 -9 -21 -21 -21s-21 9 -21 21v138l-79 -30v-154c0 -12 -9 -21 -21 -21s-21 9 -21 21v138l-22 -8c-3 -1 -6 -2 -9 -2c-13 0 -25 11 -25 25v54c0 10 6 20 16 24l40 15v155l-22 -9c-3 -1 -6 -1 -9 -1c-13 0 -25 11 -25 25v54zM177 92l-79 -30v-154l79 30
v154z" fill="currentColor"/>
</g>
<g transform="translate(14.4338, 29.2910)">
<path transform="scale(0.0040, -0.0040)" d="M0 116c0 10 6 19 16 23l40 15v154c0 12 9 21 21 21s21 -9 21 -21v-138l79 30v154c0 12 9 21 21 21s21 -9 21 -21v-138l22 8c3 1 6 2 9 2c13 0 25 -11 25 -25v-54c0 -10 -6 -20 -16 -24l-40 -15v-155l22 9c3 1 6 1 9 1c13 0 25 -11 25 -25v-54c0 -10 -6 -19 -16 -23
l-40 -15v-154c0 -12 -9 -21 -21 -21s-21 9 -21 21v138l-79 -30v-154c0 -12 -9 -21 -21 -21s-21 9 -21 21v138l-22 -8c-3 -1 -6 -2 -9 -2c-13 0 -25 11 -25 25v54c0 10 6 20 16 24l40 15v155l-22 -9c-3 -1 -6 -1 -9 -1c-13 0 -25 11 -25 25v54zM177 92l-79 -30v-154l79 30
v154z" fill="currentColor"/>
</g>
<g transform="translate(16.6838, 29.7910)">
<path transform="scale(0.0040, -0.0040)" d="M250 265c114 0 172 -112 172 -166c0 -38 -30 -69 -66 -69c-30 0 -72 23 -72 72c0 37 26 75 70 75c3 0 6 -1 9 -1c-26 36 -67 59 -113 59c-107 0 -113 -74 -113 -189c0 -15 1 -30 1 -46s-1 -31 -1 -46c0 -115 6 -189 113 -189c78 0 133 70 151 149c2 8 8 11 14 11
c7 0 15 -5 15 -14c0 -21 -49 -176 -180 -176c-145 0 -250 88 -250 265c0 63 18 265 250 265z" fill="currentColor"/>
</g>
<g transform="translate(19.7794, 36.7650)">
<text font-family="Songti SC" font-size="2.4697" text-anchor="start" fill="currentColor">
<tspan>耶</tspan>
</text>
</g>
<g transform="translate(17.2856, 36.7650)">
<text font-family="Songti SC" font-weight="bold" font-size="2.2001" text-anchor="start" fill="currentColor">
<tspan>1.</tspan>
</text>
</g>
<g transform="translate(21.5918, 29.7910)">
<rect x="-0.0757" y="-0.0000" width="0.1514" height="3.8287" ry="0.0500" fill="currentColor"/>
</g>
<g transform="translate(28.8919, 31.2910)">
<path transform="scale(0.0040, -0.0040)" d="M310 63c0 22 -17 40 -40 40c-38 0 -197 -107 -224 -139c-7 -8 -10 -17 -10 -27c0 -22 17 -40 40 -40c38 0 197 107 224 139c7 8 10 17 10 27zM256 138c55 0 90 -22 90 -77c0 -25 -15 -112 -73 -151c-34 -23 -92 -48 -183 -48c-55 0 -90 22 -90 77c0 25 15 112 73 151
c34 23 92 48 183 48z" fill="currentColor"/>
</g>
<g transform="translate(27.1084, 36.7650)">
<text font-family="Songti SC" font-size="2.4697" text-anchor="start" fill="currentColor">
<tspan>稣！</tspan>
</text>
</g>
<g transform="translate(30.7172, 31.2910)">
<path transform="scale(0.0040, -0.0040)" d="M0 0c0 30 25 55 55 55s55 -25 55 -55s-25 -55 -55 -55s-55 25 -55 55z" fill="currentColor"/>
</g>
<g transform="translate(30.2001, 29.7910)">
<rect x="-0.0757" y="-2.0000" width="0.1514" height="3.2544" ry="0.0500" fill="currentColor"/>
</g>
<g transform="translate(41.0191, 31.2910)">
<path transform="scale(0.0040, -0.0040)" d="M212 138c68 0 113 -38 113 -95c0 -90 -109 -181 -212 -181c-68 0 -113 38 -113 95c0 90 109 181 212 181z" fill="currentColor"/>
</g>
<g transform="translate(40.4318, 36.7650)">
<text font-family="Songti SC" font-size="2.4697" text-anchor="start" fill="currentColor">
<tspan>我</tspan>
</text>
</g>
<g transform="translate(42.2443, 29.7910)">
<rect x="-0.0757" y="-2.0000" width="0.1514" height="3.3287" ry="0.0500" fill="currentColor"/>
</g>
<g transform="translate(49.6392, 25.7005)">
<text font-family="Hiragino Sans GB" font-size="1.9604" text-anchor="start" fill="currentColor">
<tspan>B</tspan>
</text>
</g>
<g transform="translate(51.0476, 25.7005)">
<text font-family="Hiragino Sans GB" font-size="1.9604" text-anchor="start" fill="currentColor">
<tspan>m</tspan>
</text>
</g>
<g transform="translate(49.6392, 31.7910)">
<path transform="scale(0.0040, -0.0040)" d="M212 138c68 0 113 -38 113 -95c0 -90 -109 -181 -212 -181c-68 0 -113 38 -113 95c0 90 109 181 212 181z" fill="currentColor"/>
</g>
<g transform="translate(49.0520, 36.7650)">
<text font-family="Songti SC" font-size="2.4697" text-anchor="start" fill="currentColor">
<tspan>爱</tspan>
</text>
</g>
<g transform="translate(50.8644, 29.7910)">
<rect x="-0.0757" y="-1.5000" width="0.1514" height="3.3287" ry="0.0500" fill="currentColor"/>
</g>
<g transform="translate(56.0075, 32.2910)">
<path transform="scale(0.0040, -0.0040)" d="M310 63c0 22 -17 40 -40 40c-38 0 -197 -107 -224 -139c-7 -8 -10 -17 -10 -27c0 -22 17 -40 40 -40c38 0 197 107 224 139c7 8 10 17 10 27zM256 138c55 0 90 -22 90 -77c0 -25 -15 -112 -73 -151c-34 -23 -92 -48 -183 -48c-55 0 -90 22 -90 77c0 25 15 112 73 151
c34 23 92 48 183 48z" fill="currentColor"/>
</g>
<g transform="translate(54.2240, 36.7650)">
<text font-family="Songti SC" font-size="2.4697" text-anchor="start" fill="currentColor">
<tspan>你，</tspan>
</text>
</g>
<g transform="translate(57.3157, 29.7910)">
<rect x="-0.0757" y="-1.0000" width="0.1514" height="3.2544" ry="0.0500" fill="currentColor"/>
</g>
<g transform="translate(66.0399, 32.2910)">
<path transform="scale(0.0040, -0.0040)" d="M212 138c68 0 113 -38 113 -95c0 -90 -109 -181 -212 -181c-68 0 -113 38 -113 95c0 90 109 181 212 181z" fill="currentColor"/>
</g>
<g transform="translate(65.4526, 36.7650)">
<text font-family="Songti SC" font-size="2.4697" text-anchor="start" fill="currentColor">
<tspan>你</tspan>
</text>
</g>
<g transform="translate(67.2650, 29.7910)">
<rect x="-0.0757" y="-1.0000" width="0.1514" height="3.3287" ry="0.0500" fill="currentColor"/>
</g>
<g transform="translate(74.6365, 25.7005)">
<text font-family="Hiragino Sans GB" font-size="1.9604" text-anchor="start" fill="currentColor">
<tspan>E</tspan>
</text>
</g>
<g transform="translate(75.9169, 25.7005)">
<text font-family="Hiragino Sans GB" font-size="1.9604" text-anchor="start" fill="currentColor">
<tspan>m</tspan>
</text>
</g>
<g transform="translate(74.6365, 30.7910)">
<path transform="scale(0.0040, -0.0040)" d="M310 63c0 22 -17 40 -40 40c-38 0 -197 -107 -224 -139c-7 -8 -10 -17 -10 -27c0 -22 17 -40 40 -40c38 0 197 107 224 139c7 8 10 17 10 27zM256 138c55 0 90 -22 90 -77c0 -25 -15 -112 -73 -151c-34 -23 -92 -48 -183 -48c-55 0 -90 22 -90 77c0 25 15 112 73 151
c34 23 92 48 183 48z" fill="currentColor"/>
</g>
<g transform="translate(74.0907, 36.7650)">
<text font-family="Songti SC" font-size="2.4697" text-anchor="start" fill="currentColor">
<tspan>爱</tspan>
</text>
</g>
<g transform="translate(75.9447, 29.7910)">
<rect x="-0.0757" y="-2.5000" width="0.1514" height="3.2544" ry="0.0500" fill="currentColor"/>
</g>
<g transform="translate(84.6689, 30.7910)">
<path transform="scale(0.0040, -0.0040)" d="M212 138c68 0 113 -38 113 -95c0 -90 -109 -181 -212 -181c-68 0 -113 38 -113 95c0 90 109 181 212 181z" fill="currentColor"/>
</g>
<g transform="translate(84.0816, 36.7650)">
<text font-family="Songti SC" font-size="2.4697" text-anchor="start" fill="currentColor">
<tspan>来</tspan>
</text>
</g>
<g transform="translate(91.0371, 31.2910)">
<path transform="scale(0.0040, -0.0040)" d="M212 138c68 0 113 -38 113 -95c0 -90 -109 -181 -212 -181c-68 0 -113 38 -113 95c0 90 109 181 212 181z" fill="currentColor"/>
</g>
<g transform="translate(90.4499, 36.7650)">
<text font-family="Songti SC" font-size="2.4697" text-anchor="start" fill="currentColor">
<tspan>吸</tspan>
</text>
</g>
<g transform="translate(92.2623, 29.7910)">
<rect x="-0.0757" y="-2.0000" width="0.1514" height="3.3287" ry="0.0500" fill="currentColor"/>
</g>
<g transform="translate(99.6573, 25.7005)">
<text font-family="Hiragino Sans GB" font-size="1.9604" text-anchor="start" fill="currentColor">
<tspan>A</tspan>
</text>
</g>
<g transform="translate(99.6573, 31.7910)">
<path transform="scale(0.0040, -0.0040)" d="M310 63c0 22 -17 40 -40 40c-38 0 -197 -107 -224 -139c-7 -8 -10 -17 -10 -27c0 -22 17 -40 40 -40c38 0 197 107 224 139c7 8 10 17 10 27zM256 138c55 0 90 -22 90 -77c0 -25 -15 -112 -73 -151c-34 -23 -92 -48 -183 -48c-55 0 -90 22 -90 77c0 25 15 112 73 151
c34 23 92 48 183 48z" fill="currentColor"/>
</g>
<g transform="translate(97.8738, 36.7650)">
<text font-family="Songti SC" font-size="2.4697" text-anchor="start" fill="currentColor">
<tspan>引，</tspan>
</text>
</g>
<g transform="translate(100.9655, 29.7910)">
<rect x="-0.0757" y="-1.5000" width="0.1514" height="3.2544" ry="0.0500" fill="currentColor"/>
</g>
<g transform="translate(109.6896, 25.7005)">
<text font-family="Hiragino Sans GB" font-size="1.9604" text-anchor="start" fill="currentColor">
<tspan>A</tspan>
</text>
</g>
<g transform="translate(111.1407, 24.8096)">
<text font-family="Hiragino Sans GB" font-size="1.3856" text-anchor="start" fill="currentColor">
<tspan>7</tspan>
</text>
</g>
<g transform="translate(109.6896, 31.2910)">
<path transform="scale(0.0040, -0.0040)" d="M212 138c68 0 113 -38 113 -95c0 -90 -109 -181 -212 -181c-68 0 -113 38 -113 95c0 90 109 181 212 181z" fill="currentColor"/>
</g>
<g transform="translate(109.1024, 36.7650)">
<text font-family="Songti SC" font-size="2.4697" text-anchor="start" fill="currentColor">
<tspan>使</tspan>
</text>
</g>
<g transform="translate(110.9148, 29.7910)">
<rect x="-0.0757" y="-2.0000" width="0.1514" height="3.3287" ry="0.0500" fill="currentColor"/>
</g>
<g transform="translate(116.0579, 30.7910)">
<path transform="scale(0.0040, -0.0040)" d="M212 138c68 0 113 -38 113 -95c0 -90 -109 -181 -212 -181c-68 0 -113 38 -113 95c0 90 109 181 212 181z" fill="currentColor"/>
</g>
<g transform="translate(115.4706, 36.7650)">
<text font-family="Songti SC" font-size="2.4697" text-anchor="start" fill="currentColor">
<tspan>我</tspan>
</text>
</g>
<g transform="translate(117.2830, 29.7910)">
<rect x="-0.0757" y="-2.5000" width="0.1514" height="3.3287" ry="0.0500" fill="currentColor"/>
</g>
<g transform="translate(124.6423, 25.7005)">
<text font-family="Hiragino Sans GB" font-size="1.9604" text-anchor="start" fill="currentColor">
<tspan>F</tspan>
</text>
</g>
<g transform="translate(125.8373, 25.1005)">
<path transform="scale(0.0032, -0.0032)" d="M0 112c0 13 8 25 20 30l34 13v148c0 13 10 24 23 24s24 -11 24 -24v-129l73 29v148c0 13 11 24 24 24s23 -11 23 -24v-129l10 4c4 2 8 2 12 2c17 0 32 -14 32 -32v-46c0 -13 -8 -24 -20 -29l-34 -14v-148l10 4c4 2 8 3 12 3c17 0 32 -14 32 -32v-46c0 -13 -8 -25 -20 -30
l-34 -13v-148c0 -13 -10 -24 -23 -24s-24 11 -24 24v129l-73 -29v-148c0 -13 -11 -24 -24 -24s-23 11 -23 24v129l-10 -4c-4 -2 -8 -2 -12 -2c-17 0 -32 14 -32 32v46c0 13 8 24 20 29l34 14v148l-10 -4c-4 -2 -8 -3 -12 -3c-17 0 -32 14 -32 32v46zM174 89l-73 -30v-148
l73 30v148z" fill="currentColor"/>
</g>
<g transform="translate(126.7104, 25.7005)">
<text font-family="Hiragino Sans GB" font-size="1.9604" text-anchor="start" fill="currentColor">
<tspan>m</tspan>
</text>
</g>
<g transform="translate(124.6423, 30.2910)">
<path transform="scale(0.0040, -0.0040)" d="M310 63c0 22 -17 40 -40 40c-38 0 -197 -107 -224 -139c-7 -8 -10 -17 -10 -27c0 -22 17 -40 40 -40c38 0 197 107 224 139c7 8 10 17 10 27zM256 138c55 0 90 -22 90 -77c0 -25 -15 -112 -73 -151c-34 -23 -92 -48 -183 -48c-55 0 -90 22 -90 77c0 25 15 112 73 151
c34 23 92 48 183 48z" fill="currentColor"/>
</g>
<g transform="translate(124.0965, 36.7650)">
<text font-family="Songti SC" font-size="2.4697" text-anchor="start" fill="currentColor">
<tspan>渴</tspan>
</text>
</g>
<g transform="translate(125.9505, 29.7910)">
<rect x="-0.0757" y="-3.0000" width="0.1514" height="3.2544" ry="0.0500" fill="currentColor"/>
</g>
<g transform="translate(134.6747, 30.2910)">
<path transform="scale(0.0040, -0.0040)" d="M212 138c68 0 113 -38 113 -95c0 -90 -109 -181 -212 -181c-68 0 -113 38 -113 95c0 90 109 181 212 181z" fill="currentColor"/>
</g>
<g transform="translate(134.0874, 36.7650)">
<text font-family="Songti SC" font-size="2.4697" text-anchor="start" fill="currentColor">
<tspan>慕</tspan>
</text>
</g>
<g transform="translate(136.4170, 30.2910)">
<path transform="scale(0.0040, -0.0040)" d="M0 0c0 30 25 55 55 55s55 -25 55 -55s-25 -55 -55 -55s-55 25 -55 55z" fill="currentColor"/>
</g>
<g transform="translate(135.8998, 29.7910)">
<rect x="-0.0757" y="-3.0000" width="0.1514" height="3.3287" ry="0.0500" fill="currentColor"/>
</g>
<g transform="translate(142.8877, 31.2910)">
<path transform="scale(0.0040, -0.0040)" d="M212 138c68 0 113 -38 113 -95c0 -90 -109 -181 -212 -181c-68 0 -113 38 -113 95c0 90 109 181 212 181z" fill="currentColor"/>
</g>
<g transform="translate(142.3005, 36.7650)">
<text font-family="Songti SC" font-size="2.4697" text-anchor="start" fill="currentColor">
<tspan>亲</tspan>
</text>
</g>
<g transform="translate(144.1129, 29.7910)">
<rect x="-0.0757" y="-2.0000" width="0.1514" height="3.3287" ry="0.0500" fill="currentColor"/>
</g>
<g transform="translate(144.1886, 27.8410)">
<path transform="scale(0.0040, -0.0040)" d="M0 -250h-19v250h19c0 -197 207 -334 207 -531c0 -71 -15 -140 -41 -206c-5 -9 -14 -13 -22 -13c-14 0 -29 12 -26 30c26 60 43 124 43 189c0 102 -92 206 -161 281z" fill="currentColor"/>
</g>
<g transform="translate(38.1526, 43.6508)">
<rect x="0.0000" y="-2.0000" width="0.2212" height="4.0000" ry="0.0000" fill="currentColor"/>
</g>
<g transform="translate(9.0337, 46.6508)">
<rect x="131.8959" y="-0.1082" width="1.9513" height="0.2164" ry="0.1082" fill="currentColor"/>
</g>
<g transform="translate(9.0337, 46.6508)">
<rect x="126.3004" y="-0.1082" width="1.9513" height="0.2164" ry="0.1082" fill="currentColor"/>
</g>
<g transform="translate(9.0337, 45.6508)">
<line stroke-linejoin="round" stroke-linecap="round" stroke-width="0.1164" stroke="currentColor" x1="0.0582" y1="0" x2="138.1582" y2="0"/>
</g>
<g transform="translate(9.0337, 44.6508)">
<line stroke-linejoin="round" stroke-linecap="round" stroke-width="0.1164" stroke="currentColor" x1="0.0582" y1="0" x2="138.1582" y2="0"/>
</g>
<g transform="translate(9.0337, 43.6508)">
<line stroke-linejoin="round" stroke-linecap="round" stroke-width="0.1164" stroke="currentColor" x1="0.0582" y1="0" x2="138.1582" y2="0"/>
</g>
<g transform="translate(9.0337, 42.6508)">
<line stroke-linejoin="round" stroke-linecap="round" stroke-width="0.1164" stroke="currentColor" x1="0.0582" y1="0" x2="138.1582" y2="0"/>
</g>
<g transform="translate(9.0337, 41.6508)">
<line stroke-linejoin="round" stroke-linecap="round" stroke-width="0.1164" stroke="currentColor" x1="0.0582" y1="0" x2="138.1582" y2="0"/>
</g>
<g transform="translate(147.0289, 43.6508)">
<rect x="0.0000" y="-2.0000" width="0.2212" height="4.0000" ry="0.0000" fill="currentColor"/>
</g>
<g transform="translate(125.3864, 43.6508)">
<rect x="0.0000" y="-2.0000" width="0.2212" height="4.0000" ry="0.0000" fill="currentColor"/>
</g>
<g transform="translate(103.4582, 43.6508)">
<rect x="0.0000" y="-2.0000" width="0.2212" height="4.0000" ry="0.0000" fill="currentColor"/>
</g>
<g transform="translate(82.0373, 43.6508)">
<rect x="0.0000" y="-2.0000" width="0.2212" height="4.0000" ry="0.0000" fill="currentColor"/>
</g>
<g transform="translate(60.1213, 43.6508)">
<rect x="0.0000" y="-2.0000" width="0.2212" height="4.0000" ry="0.0000" fill="currentColor"/>
</g>
<g transform="translate(9.8338, 44.6508)">
<path transform="scale(0.0040, -0.0040)" d="M647 2c0 -114 -75 -214 -180 -248c3 -33 4 -66 4 -99c0 -21 0 -41 -1 -62c-7 -122 -92 -229 -211 -229c-108 0 -196 88 -196 197c0 58 54 103 113 103c54 0 95 -47 95 -103c0 -52 -43 -95 -95 -95c-9 0 -18 1 -27 4c25 -37 66 -61 113 -61c93 0 156 91 162 191
c1 19 2 38 2 57c0 29 -1 58 -3 87c-5 -1 -44 -8 -88 -8c-194 0 -333 181 -333 376c0 177 129 308 244 443c-34 103 -55 171 -55 347c0 114 54 221 147 288c8 6 18 5 25 -1c68 -79 135 -242 135 -356c0 -142 -84 -255 -176 -364c21 -68 40 -136 57 -205c1 0 5 1 10 1
c157 0 258 -129 258 -263zM463 -201c64 24 110 88 110 161c0 88 -64 175 -167 188c28 -133 49 -269 57 -349zM77 25c0 -144 141 -243 261 -243c1 0 46 -1 81 5c-7 66 -27 208 -60 362c-79 -8 -124 -60 -124 -118c0 -43 25 -88 80 -120c5 -5 7 -11 7 -17
c0 -12 -10 -23 -23 -23c-16 0 -128 62 -128 188c0 89 60 177 163 200c-14 57 -30 113 -47 169c-105 -122 -210 -243 -210 -403zM242 784c0 -39 10 -95 39 -188c78 97 142 199 142 324c0 33 0 60 -20 118c-99 -46 -161 -145 -161 -254z" fill="currentColor"/>
</g>
<g transform="translate(13.3337, 41.6508)">
<path transform="scale(0.0040, -0.0040)" d="M0 116c0 10 6 19 16 23l40 15v154c0 12 9 21 21 21s21 -9 21 -21v-138l79 30v154c0 12 9 21 21 21s21 -9 21 -21v-138l22 8c3 1 6 2 9 2c13 0 25 -11 25 -25v-54c0 -10 -6 -20 -16 -24l-40 -15v-155l22 9c3 1 6 1 9 1c13 0 25 -11 25 -25v-54c0 -10 -6 -19 -16 -23
l-40 -15v-154c0 -12 -9 -21 -21 -21s-21 9 -21 21v138l-79 -30v-154c0 -12 -9 -21 -21 -21s-21 9 -21 21v138l-22 -8c-3 -1 -6 -2 -9 -2c-13 0 -25 11 -25 25v54c0 10 6 20 16 24l40 15v155l-22 -9c-3 -1 -6 -1 -9 -1c-13 0 -25 11 -25 25v54zM177 92l-79 -30v-154l79 30
v154z" fill="currentColor"/>
</g>
<g transform="translate(14.4338, 43.1508)">
<path transform="scale(0.0040, -0.0040)" d="M0 116c0 10 6 19 16 23l40 15v154c0 12 9 21 21 21s21 -9 21 -21v-138l79 30v154c0 12 9 21 21 21s21 -9 21 -21v-138l22 8c3 1 6 2 9 2c13 0 25 -11 25 -25v-54c0 -10 -6 -20 -16 -24l-40 -15v-155l22 9c3 1 6 1 9 1c13 0 25 -11 25 -25v-54c0 -10 -6 -19 -16 -23
l-40 -15v-154c0 -12 -9 -21 -21 -21s-21 9 -21 21v138l-79 -30v-154c0 -12 -9 -21 -21 -21s-21 9 -21 21v138l-22 -8c-3 -1 -6 -2 -9 -2c-13 0 -25 11 -25 25v54c0 10 6 20 16 24l40 15v155l-22 -9c-3 -1 -6 -1 -9 -1c-13 0 -25 11 -25 25v54zM177 92l-79 -30v-154l79 30
v154z" fill="currentColor"/>
</g>
<g transform="translate(8.2228, 40.6777)">
<text font-family="Songti SC" font-size="1.7463" text-anchor="start" fill="currentColor">
<tspan>6</tspan>
</text>
</g>
<g transform="translate(18.0338, 40.1568)">
<text font-family="Hiragino Sans GB" font-size="1.9604" text-anchor="start" fill="currentColor">
<tspan>B</tspan>
</text>
</g>
<g transform="translate(19.4422, 40.1568)">
<text font-family="Hiragino Sans GB" font-size="1.9604" text-anchor="start" fill="currentColor">
<tspan>m</tspan>
</text>
</g>
<g transform="translate(18.0338, 45.6508)">
<path transform="scale(0.0040, -0.0040)" d="M212 138c68 0 113 -38 113 -95c0 -90 -109 -181 -212 -181c-68 0 -113 38 -113 95c0 90 109 181 212 181z" fill="currentColor"/>
</g>
<g transform="translate(17.4465, 49.5976)">
<text font-family="Songti SC" font-size="2.4697" text-anchor="start" fill="currentColor">
<tspan>近</tspan>
</text>
</g>
<g transform="translate(19.2589, 43.6508)">
<rect x="-0.0757" y="-1.5000" width="0.1514" height="3.3287" ry="0.0500" fill="currentColor"/>
</g>
<g transform="translate(23.6293, 46.1508)">
<path transform="scale(0.0040, -0.0040)" d="M310 63c0 22 -17 40 -40 40c-38 0 -197 -107 -224 -139c-7 -8 -10 -17 -10 -27c0 -22 17 -40 40 -40c38 0 197 107 224 139c7 8 10 17 10 27zM256 138c55 0 90 -22 90 -77c0 -25 -15 -112 -73 -151c-34 -23 -92 -48 -183 -48c-55 0 -90 22 -90 77c0 25 15 112 73 151
c34 23 92 48 183 48z" fill="currentColor"/>
</g>
<g transform="translate(21.8458, 49.5976)">
<text font-family="Songti SC" font-size="2.4697" text-anchor="start" fill="currentColor">
<tspan>你，</tspan>
</text>
</g>
<g transform="translate(24.9375, 43.6508)">
<rect x="-0.0757" y="-1.0000" width="0.1514" height="3.2544" ry="0.0500" fill="currentColor"/>
</g>
<g transform="translate(32.3428, 46.1508)">
<path transform="scale(0.0040, -0.0040)" d="M212 138c68 0 113 -38 113 -95c0 -90 -109 -181 -212 -181c-68 0 -113 38 -113 95c0 90 109 181 212 181z" fill="currentColor"/>
</g>
<g transform="translate(31.7556, 49.5976)">
<text font-family="Songti SC" font-size="2.4697" text-anchor="start" fill="currentColor">
<tspan>快</tspan>
</text>
</g>
<g transform="translate(33.5680, 43.6508)">
<rect x="-0.0757" y="-1.0000" width="0.1514" height="3.3287" ry="0.0500" fill="currentColor"/>
</g>
<g transform="translate(40.0622, 40.1568)">
<text font-family="Hiragino Sans GB" font-size="1.9604" text-anchor="start" fill="currentColor">
<tspan>G</tspan>
</text>
</g>
<g transform="translate(40.0622, 43.6508)">
<path transform="scale(0.0040, -0.0040)" d="M310 63c0 22 -17 40 -40 40c-38 0 -197 -107 -224 -139c-7 -8 -10 -17 -10 -27c0 -22 17 -40 40 -40c38 0 197 107 224 139c7 8 10 17 10 27zM256 138c55 0 90 -22 90 -77c0 -25 -15 -112 -73 -151c-34 -23 -92 -48 -183 -48c-55 0 -90 22 -90 77c0 25 15 112 73 151
c34 23 92 48 183 48z" fill="currentColor"/>
</g>
<g transform="translate(39.5165, 49.5976)">
<text font-family="Songti SC" font-size="2.4697" text-anchor="start" fill="currentColor">
<tspan>跑</tspan>
</text>
</g>
<g transform="translate(40.1379, 43.6508)">
<rect x="-0.0757" y="0.2456" width="0.1514" height="3.0878" ry="0.0500" fill="currentColor"/>
</g>
<g transform="translate(48.6925, 44.6508)">
<path transform="scale(0.0040, -0.0040)" d="M212 138c68 0 113 -38 113 -95c0 -90 -109 -181 -212 -181c-68 0 -113 38 -113 95c0 90 109 181 212 181z" fill="currentColor"/>
</g>
<g transform="translate(48.1052, 49.5976)">
<text font-family="Songti SC" font-size="2.4697" text-anchor="start" fill="currentColor">
<tspan>跟</tspan>
</text>
</g>
<g transform="translate(49.9177, 43.6508)">
<rect x="-0.0757" y="-2.5000" width="0.1514" height="3.3287" ry="0.0500" fill="currentColor"/>
</g>
<g transform="translate(54.2880, 45.1508)">
<path transform="scale(0.0040, -0.0040)" d="M212 138c68 0 113 -38 113 -95c0 -90 -109 -181 -212 -181c-68 0 -113 38 -113 95c0 90 109 181 212 181z" fill="currentColor"/>
</g>
<g transform="translate(53.7007, 49.5976)">
<text font-family="Songti SC" font-size="2.4697" text-anchor="start" fill="currentColor">
<tspan>随</tspan>
</text>
</g>
<g transform="translate(55.5132, 43.6508)">
<rect x="-0.0757" y="-2.0000" width="0.1514" height="3.3287" ry="0.0500" fill="currentColor"/>
</g>
<g transform="translate(61.9306, 40.1568)">
<text font-family="Hiragino Sans GB" font-size="1.9604" text-anchor="start" fill="currentColor">
<tspan>A</tspan>
</text>
</g>
<g transform="translate(61.9306, 45.6508)">
<path transform="scale(0.0040, -0.0040)" d="M310 63c0 22 -17 40 -40 40c-38 0 -197 -107 -224 -139c-7 -8 -10 -17 -10 -27c0 -22 17 -40 40 -40c38 0 197 107 224 139c7 8 10 17 10 27zM256 138c55 0 90 -22 90 -77c0 -25 -15 -112 -73 -151c-34 -23 -92 -48 -183 -48c-55 0 -90 22 -90 77c0 25 15 112 73 151
c34 23 92 48 183 48z" fill="currentColor"/>
</g>
<g transform="translate(60.1472, 49.5976)">
<text font-family="Songti SC" font-size="2.4697" text-anchor="start" fill="currentColor">
<tspan>你。</tspan>
</text>
</g>
<g transform="translate(63.2388, 43.6508)">
<rect x="-0.0757" y="-1.5000" width="0.1514" height="3.2544" ry="0.0500" fill="currentColor"/>
</g>
<g transform="translate(70.6442, 40.1568)">
<text font-family="Hiragino Sans GB" font-size="1.9604" text-anchor="start" fill="currentColor">
<tspan>A</tspan>
</text>
</g>
<g transform="translate(72.0953, 39.2659)">
<text font-family="Hiragino Sans GB" font-size="1.3856" text-anchor="start" fill="currentColor">
<tspan>7</tspan>
</text>
</g>
<g transform="translate(70.6442, 45.1508)">
<path transform="scale(0.0040, -0.0040)" d="M212 138c68 0 113 -38 113 -95c0 -90 -109 -181 -212 -181c-68 0 -113 38 -113 95c0 90 109 181 212 181z" fill="currentColor"/>
</g>
<g transform="translate(70.0569, 49.5976)">
<text font-family="Songti SC" font-size="2.4697" text-anchor="start" fill="currentColor">
<tspan>使</tspan>
</text>
</g>
<g transform="translate(71.8694, 43.6508)">
<rect x="-0.0757" y="-2.0000" width="0.1514" height="3.3287" ry="0.0500" fill="currentColor"/>
</g>
<g transform="translate(76.2397, 44.6508)">
<path transform="scale(0.0040, -0.0040)" d="M212 138c68 0 113 -38 113 -95c0 -90 -109 -181 -212 -181c-68 0 -113 38 -113 95c0 90 109 181 212 181z" fill="currentColor"/>
</g>
<g transform="translate(75.6524, 49.5976)">
<text font-family="Songti SC" font-size="2.4697" text-anchor="start" fill="currentColor">
<tspan>我</tspan>
</text>
</g>
<g transform="translate(77.4649, 43.6508)">
<rect x="-0.0757" y="-2.5000" width="0.1514" height="3.3287" ry="0.0500" fill="currentColor"/>
</g>
<g transform="translate(83.8466, 40.1568)">
<text font-family="Hiragino Sans GB" font-size="1.9604" text-anchor="start" fill="currentColor">
<tspan>D</tspan>
</text>
</g>
<g transform="translate(83.8466, 44.1508)">
<path transform="scale(0.0040, -0.0040)" d="M310 63c0 22 -17 40 -40 40c-38 0 -197 -107 -224 -139c-7 -8 -10 -17 -10 -27c0 -22 17 -40 40 -40c38 0 197 107 224 139c7 8 10 17 10 27zM256 138c55 0 90 -22 90 -77c0 -25 -15 -112 -73 -151c-34 -23 -92 -48 -183 -48c-55 0 -90 22 -90 77c0 25 15 112 73 151
c34 23 92 48 183 48z" fill="currentColor"/>
</g>
<g transform="translate(83.3009, 49.5976)">
<text font-family="Songti SC" font-size="2.4697" text-anchor="start" fill="currentColor">
<tspan>渴</tspan>
</text>
</g>
<g transform="translate(85.1548, 43.6508)">
<rect x="-0.0757" y="-3.0000" width="0.1514" height="3.2544" ry="0.0500" fill="currentColor"/>
</g>
<g transform="translate(92.5602, 44.1508)">
<path transform="scale(0.0040, -0.0040)" d="M212 138c68 0 113 -38 113 -95c0 -90 -109 -181 -212 -181c-68 0 -113 38 -113 95c0 90 109 181 212 181z" fill="currentColor"/>
</g>
<g transform="translate(91.9729, 49.5976)">
<text font-family="Songti SC" font-size="2.4697" text-anchor="start" fill="currentColor">
<tspan>慕</tspan>
</text>
</g>
<g transform="translate(94.3025, 44.1508)">
<path transform="scale(0.0040, -0.0040)" d="M0 0c0 30 25 55 55 55s55 -25 55 -55s-25 -55 -55 -55s-55 25 -55 55z" fill="currentColor"/>
</g>
<g transform="translate(93.7853, 43.6508)">
<rect x="-0.0757" y="-3.0000" width="0.1514" height="3.3287" ry="0.0500" fill="currentColor"/>
</g>
<g transform="translate(99.6811, 45.1508)">
<path transform="scale(0.0040, -0.0040)" d="M212 138c68 0 113 -38 113 -95c0 -90 -109 -181 -212 -181c-68 0 -113 38 -113 95c0 90 109 181 212 181z" fill="currentColor"/>
</g>
<g transform="translate(99.0938, 49.5976)">
<text font-family="Songti SC" font-size="2.4697" text-anchor="start" fill="currentColor">
<tspan>亲</tspan>
</text>
</g>
<g transform="translate(100.9062, 43.6508)">
<rect x="-0.0757" y="-2.0000" width="0.1514" height="3.3287" ry="0.0500" fill="currentColor"/>
</g>
<g transform="translate(100.9819, 41.7008)">
<path transform="scale(0.0040, -0.0040)" d="M0 -250h-19v250h19c0 -197 207 -334 207 -531c0 -71 -15 -140 -41 -206c-5 -9 -14 -13 -22 -13c-14 0 -29 12 -26 30c26 60 43 124 43 189c0 102 -92 206 -161 281z" fill="currentColor"/>
</g>
<g transform="translate(105.2675, 40.1568)">
<text font-family="Hiragino Sans GB" font-size="1.9604" text-anchor="start" fill="currentColor">
<tspan>B</tspan>
</text>
</g>
<g transform="translate(106.6759, 40.1568)">
<text font-family="Hiragino Sans GB" font-size="1.9604" text-anchor="start" fill="currentColor">
<tspan>m</tspan>
</text>
</g>
<g transform="translate(105.2675, 45.6508)">
<path transform="scale(0.0040, -0.0040)" d="M212 138c68 0 113 -38 113 -95c0 -90 -109 -181 -212 -181c-68 0 -113 38 -113 95c0 90 109 181 212 181z" fill="currentColor"/>
</g>
<g transform="translate(104.6803, 49.5976)">
<text font-family="Songti SC" font-size="2.4697" text-anchor="start" fill="currentColor">
<tspan>近</tspan>
</text>
</g>
<g transform="translate(106.4927, 43.6508)">
<rect x="-0.0757" y="-1.5000" width="0.1514" height="3.3287" ry="0.0500" fill="currentColor"/>
</g>
<g transform="translate(110.8630, 46.1508)">
<path transform="scale(0.0040, -0.0040)" d="M310 63c0 22 -17 40 -40 40c-38 0 -197 -107 -224 -139c-7 -8 -10 -17 -10 -27c0 -22 17 -40 40 -40c38 0 197 107 224 139c7 8 10 17 10 27zM256 138c55 0 90 -22 90 -77c0 -25 -15 -112 -73 -151c-34 -23 -92 -48 -183 -48c-55 0 -90 22 -90 77c0 25 15 112 73 151
c34 23 92 48 183 48z" fill="currentColor"/>
</g>
<g transform="translate(109.0796, 49.5976)">
<text font-family="Songti SC" font-size="2.4697" text-anchor="start" fill="currentColor">
<tspan>你，</tspan>
</text>
</g>
<g transform="translate(112.1712, 43.6508)">
<rect x="-0.0757" y="-1.0000" width="0.1514" height="3.2544" ry="0.0500" fill="currentColor"/>
</g>
<g transform="translate(119.5766, 46.1508)">
<path transform="scale(0.0040, -0.0040)" d="M212 138c68 0 113 -38 113 -95c0 -90 -109 -181 -212 -181c-68 0 -113 38 -113 95c0 90 109 181 212 181z" fill="currentColor"/>
</g>
<g transform="translate(118.9893, 49.5976)">
<text font-family="Songti SC" font-size="2.4697" text-anchor="start" fill="currentColor">
<tspan>快</tspan>
</text>
</g>
<g transform="translate(120.8018, 43.6508)">
<rect x="-0.0757" y="-1.0000" width="0.1514" height="3.3287" ry="0.0500" fill="currentColor"/>
</g>
<g transform="translate(127.1958, 40.1568)">
<text font-family="Hiragino Sans GB" font-size="1.9604" text-anchor="start" fill="currentColor">
<tspan>E</tspan>
</text>
</g>
<g transform="translate(128.4761, 40.1568)">
<text font-family="Hiragino Sans GB" font-size="1.9604" text-anchor="start" fill="currentColor">
<tspan>m</tspan>
</text>
</g>
<g transform="translate(127.1958, 44.6508)">
<path transform="scale(0.0040, -0.0040)" d="M310 63c0 22 -17 40 -40 40c-38 0 -197 -107 -224 -139c-7 -8 -10 -17 -10 -27c0 -22 17 -40 40 -40c38 0 197 107 224 139c7 8 10 17 10 27zM256 138c55 0 90 -22 90 -77c0 -25 -15 -112 -73 -151c-34 -23 -92 -48 -183 -48c-55 0 -90 22 -90 77c0 25 15 112 73 151
c34 23 92 48 183 48z" fill="currentColor"/>
</g>
<g transform="translate(126.6500, 49.5976)">
<text font-family="Songti SC" font-size="2.4697" text-anchor="start" fill="currentColor">
<tspan>跑</tspan>
</text>
</g>
<g transform="translate(128.5039, 43.6508)">
<rect x="-0.0757" y="-2.5000" width="0.1514" height="3.2544" ry="0.0500" fill="currentColor"/>
</g>
<g transform="translate(135.6593, 40.1568)">
<text font-family="Hiragino Sans GB" font-size="1.9604" text-anchor="start" fill="currentColor">
<tspan>A</tspan>
</text>
</g>
<g transform="translate(137.1104, 39.2659)">
<text font-family="Hiragino Sans GB" font-size="1.3856" text-anchor="start" fill="currentColor">
<tspan>7</tspan>
</text>
</g>
<g transform="translate(135.6593, 46.6508)">
<path transform="scale(0.0040, -0.0040)" d="M212 138c68 0 113 -38 113 -95c0 -90 -109 -181 -212 -181c-68 0 -113 38 -113 95c0 90 109 181 212 181z" fill="currentColor"/>
</g>
<g transform="translate(135.0720, 49.5976)">
<text font-family="Songti SC" font-size="2.4697" text-anchor="start" fill="currentColor">
<tspan>跟</tspan>
</text>
</g>
<g transform="translate(136.8845, 43.6508)">
<rect x="-0.0757" y="-0.5000" width="0.1514" height="3.3287" ry="0.0500" fill="currentColor"/>
</g>
<g transform="translate(141.2548, 46.6508)">
<path transform="scale(0.0040, -0.0040)" d="M212 138c68 0 113 -38 113 -95c0 -90 -109 -181 -212 -181c-68 0 -113 38 -113 95c0 90 109 181 212 181z" fill="currentColor"/>
</g>
<g transform="translate(140.6676, 49.5976)">
<text font-family="Songti SC" font-size="2.4697" text-anchor="start" fill="currentColor">
<tspan>随</tspan>
</text>
</g>
<g transform="translate(142.4800, 43.6508)">
<rect x="-0.0757" y="-0.5000" width="0.1514" height="3.3287" ry="0.0500" fill="currentColor"/>
</g>
<g transform="translate(44.2238, 56.0031)">
<rect x="0.0000" y="-2.0000" width="0.2212" height="4.0000" ry="0.0000" fill="currentColor"/>
</g>
<g transform="translate(9.0337, 58.0031)">
<line stroke-linejoin="round" stroke-linecap="round" stroke-width="0.1164" stroke="currentColor" x1="0.0582" y1="0" x2="138.1582" y2="0"/>
</g>
<g transform="translate(9.0337, 57.0031)">
<line stroke-linejoin="round" stroke-linecap="round" stroke-width="0.1164" stroke="currentColor" x1="0.0582" y1="0" x2="138.1582" y2="0"/>
</g>
<g transform="translate(9.0337, 56.0031)">
<line stroke-linejoin="round" stroke-linecap="round" stroke-width="0.1164" stroke="currentColor" x1="0.0582" y1="0" x2="138.1582" y2="0"/>
</g>
<g transform="translate(9.0337, 55.0031)">
<line stroke-linejoin="round" stroke-linecap="round" stroke-width="0.1164" stroke="currentColor" x1="0.0582" y1="0" x2="138.1582" y2="0"/>
</g>
<g transform="translate(9.0337, 54.0031)">
<line stroke-linejoin="round" stroke-linecap="round" stroke-width="0.1164" stroke="currentColor" x1="0.0582" y1="0" x2="138.1582" y2="0"/>
</g>
<g transform="translate(147.0289, 56.0031)">
<rect x="0.0000" y="-2.0000" width="0.2212" height="4.0000" ry="0.0000" fill="currentColor"/>
</g>
<g transform="translate(110.1684, 56.0031)">
<rect x="0.0000" y="-2.0000" width="0.2212" height="4.0000" ry="0.0000" fill="currentColor"/>
</g>
<g transform="translate(72.8044, 56.0031)">
<rect x="0.0000" y="-2.0000" width="0.2212" height="4.0000" ry="0.0000" fill="currentColor"/>
</g>
<g transform="translate(9.8338, 57.0031)">
<path transform="scale(0.0040, -0.0040)" d="M647 2c0 -114 -75 -214 -180 -248c3 -33 4 -66 4 -99c0 -21 0 -41 -1 -62c-7 -122 -92 -229 -211 -229c-108 0 -196 88 -196 197c0 58 54 103 113 103c54 0 95 -47 95 -103c0 -52 -43 -95 -95 -95c-9 0 -18 1 -27 4c25 -37 66 -61 113 -61c93 0 156 91 162 191
c1 19 2 38 2 57c0 29 -1 58 -3 87c-5 -1 -44 -8 -88 -8c-194 0 -333 181 -333 376c0 177 129 308 244 443c-34 103 -55 171 -55 347c0 114 54 221 147 288c8 6 18 5 25 -1c68 -79 135 -242 135 -356c0 -142 -84 -255 -176 -364c21 -68 40 -136 57 -205c1 0 5 1 10 1
c157 0 258 -129 258 -263zM463 -201c64 24 110 88 110 161c0 88 -64 175 -167 188c28 -133 49 -269 57 -349zM77 25c0 -144 141 -243 261 -243c1 0 46 -1 81 5c-7 66 -27 208 -60 362c-79 -8 -124 -60 -124 -118c0 -43 25 -88 80 -120c5 -5 7 -11 7 -17
c0 -12 -10 -23 -23 -23c-16 0 -128 62 -128 188c0 89 60 177 163 200c-14 57 -30 113 -47 169c-105 -122 -210 -243 -210 -403zM242 784c0 -39 10 -95 39 -188c78 97 142 199 142 324c0 33 0 60 -20 118c-99 -46 -161 -145 -161 -254z" fill="currentColor"/>
</g>
<g transform="translate(13.3337, 54.0031)">
<path transform="scale(0.0040, -0.0040)" d="M0 116c0 10 6 19 16 23l40 15v154c0 12 9 21 21 21s21 -9 21 -21v-138l79 30v154c0 12 9 21 21 21s21 -9 21 -21v-138l22 8c3 1 6 2 9 2c13 0 25 -11 25 -25v-54c0 -10 -6 -20 -16 -24l-40 -15v-155l22 9c3 1 6 1 9 1c13 0 25 -11 25 -25v-54c0 -10 -6 -19 -16 -23
l-40 -15v-154c0 -12 -9 -21 -21 -21s-21 9 -21 21v138l-79 -30v-154c0 -12 -9 -21 -21 -21s-21 9 -21 21v138l-22 -8c-3 -1 -6 -2 -9 -2c-13 0 -25 11 -25 25v54c0 10 6 20 16 24l40 15v155l-22 -9c-3 -1 -6 -1 -9 -1c-13 0 -25 11 -25 25v54zM177 92l-79 -30v-154l79 30
v154z" fill="currentColor"/>
</g>
<g transform="translate(14.4338, 55.5031)">
<path transform="scale(0.0040, -0.0040)" d="M0 116c0 10 6 19 16 23l40 15v154c0 12 9 21 21 21s21 -9 21 -21v-138l79 30v154c0 12 9 21 21 21s21 -9 21 -21v-138l22 8c3 1 6 2 9 2c13 0 25 -11 25 -25v-54c0 -10 -6 -20 -16 -24l-40 -15v-155l22 9c3 1 6 1 9 1c13 0 25 -11 25 -25v-54c0 -10 -6 -19 -16 -23
l-40 -15v-154c0 -12 -9 -21 -21 -21s-21 9 -21 21v138l-79 -30v-154c0 -12 -9 -21 -21 -21s-21 9 -21 21v138l-22 -8c-3 -1 -6 -2 -9 -2c-13 0 -25 11 -25 25v54c0 10 6 20 16 24l40 15v155l-22 -9c-3 -1 -6 -1 -9 -1c-13 0 -25 11 -25 25v54zM177 92l-79 -30v-154l79 30
v154z" fill="currentColor"/>
</g>
<g transform="translate(7.4119, 53.0527)">
<text font-family="Songti SC" font-size="1.7463" text-anchor="start" fill="currentColor">
<tspan>12</tspan>
</text>
</g>
<g transform="translate(18.0338, 52.5091)">
<text font-family="Hiragino Sans GB" font-size="1.9604" text-anchor="start" fill="currentColor">
<tspan>D</tspan>
</text>
</g>
<g transform="translate(18.0338, 58.5031)">
<path transform="scale(0.0040, -0.0040)" d="M310 63c0 22 -17 40 -40 40c-38 0 -197 -107 -224 -139c-7 -8 -10 -17 -10 -27c0 -22 17 -40 40 -40c38 0 197 107 224 139c7 8 10 17 10 27zM256 138c55 0 90 -22 90 -77c0 -25 -15 -112 -73 -151c-34 -23 -92 -48 -183 -48c-55 0 -90 22 -90 77c0 25 15 112 73 151
c34 23 92 48 183 48z" fill="currentColor"/>
</g>
<g transform="translate(16.2503, 61.7870)">
<text font-family="Songti SC" font-size="2.4697" text-anchor="start" fill="currentColor">
<tspan>你。</tspan>
</text>
</g>
<g transform="translate(19.8591, 58.5031)">
<path transform="scale(0.0040, -0.0040)" d="M0 0c0 30 25 55 55 55s55 -25 55 -55s-25 -55 -55 -55s-55 25 -55 55z" fill="currentColor"/>
</g>
<g transform="translate(19.3420, 56.0031)">
<rect x="-0.0757" y="-1.0000" width="0.1514" height="3.2544" ry="0.0500" fill="currentColor"/>
</g>
<g transform="translate(35.2438, 58.5031)">
<path transform="scale(0.0040, -0.0040)" d="M212 138c68 0 113 -38 113 -95c0 -90 -109 -181 -212 -181c-68 0 -113 38 -113 95c0 90 109 181 212 181z" fill="currentColor"/>
</g>
<g transform="translate(34.6565, 61.7870)">
<text font-family="Songti SC" font-size="2.4697" text-anchor="start" fill="currentColor">
<tspan>你</tspan>
</text>
</g>
<g transform="translate(36.4690, 56.0031)">
<rect x="-0.0757" y="-1.0000" width="0.1514" height="3.3287" ry="0.0500" fill="currentColor"/>
</g>
<g transform="translate(47.0307, 52.5091)">
<text font-family="Hiragino Sans GB" font-size="1.9604" text-anchor="start" fill="currentColor">
<tspan>B</tspan>
</text>
</g>
<g transform="translate(48.4391, 52.5091)">
<text font-family="Hiragino Sans GB" font-size="1.9604" text-anchor="start" fill="currentColor">
<tspan>m</tspan>
</text>
</g>
<g transform="translate(47.0307, 55.0031)">
<path transform="scale(0.0040, -0.0040)" d="M310 63c0 22 -17 40 -40 40c-38 0 -197 -107 -224 -139c-7 -8 -10 -17 -10 -27c0 -22 17 -40 40 -40c38 0 197 107 224 139c7 8 10 17 10 27zM256 138c55 0 90 -22 90 -77c0 -25 -15 -112 -73 -151c-34 -23 -92 -48 -183 -48c-55 0 -90 22 -90 77c0 25 15 112 73 151
c34 23 92 48 183 48z" fill="currentColor"/>
</g>
<g transform="translate(46.4849, 61.7870)">
<text font-family="Songti SC" font-size="2.4697" text-anchor="start" fill="currentColor">
<tspan>是</tspan>
</text>
</g>
<g transform="translate(48.8560, 54.5031)">
<path transform="scale(0.0040, -0.0040)" d="M0 0c0 30 25 55 55 55s55 -25 55 -55s-25 -55 -55 -55s-55 25 -55 55z" fill="currentColor"/>
</g>
<g transform="translate(47.1064, 56.0031)">
<rect x="-0.0757" y="-0.7544" width="0.1514" height="3.2544" ry="0.0500" fill="currentColor"/>
</g>
<g transform="translate(64.2407, 55.0031)">
<path transform="scale(0.0040, -0.0040)" d="M212 138c68 0 113 -38 113 -95c0 -90 -109 -181 -212 -181c-68 0 -113 38 -113 95c0 90 109 181 212 181z" fill="currentColor"/>
</g>
<g transform="translate(63.6535, 61.7870)">
<text font-family="Songti SC" font-size="2.4697" text-anchor="start" fill="currentColor">
<tspan>我</tspan>
</text>
</g>
<g transform="translate(64.3164, 56.0031)">
<rect x="-0.0757" y="-0.8287" width="0.1514" height="3.3287" ry="0.0500" fill="currentColor"/>
</g>
<g transform="translate(75.5870, 52.5091)">
<text font-family="Hiragino Sans GB" font-size="1.9604" text-anchor="start" fill="currentColor">
<tspan>A</tspan>
</text>
</g>
<g transform="translate(75.5870, 55.5031)">
<path transform="scale(0.0040, -0.0040)" d="M212 138c68 0 113 -38 113 -95c0 -90 -109 -181 -212 -181c-68 0 -113 38 -113 95c0 90 109 181 212 181z" fill="currentColor"/>
</g>
<g transform="translate(74.9997, 61.7870)">
<text font-family="Songti SC" font-size="2.4697" text-anchor="start" fill="currentColor">
<tspan>良</tspan>
</text>
</g>
<g transform="translate(75.6626, 56.0031)">
<rect x="-0.0757" y="-0.3287" width="0.1514" height="3.3287" ry="0.0500" fill="currentColor"/>
</g>
<g transform="translate(84.3527, 55.5031)">
<path transform="scale(0.0040, -0.0040)" d="M212 138c68 0 113 -38 113 -95c0 -90 -109 -181 -212 -181c-68 0 -113 38 -113 95c0 90 109 181 212 181z" fill="currentColor"/>
</g>
<g transform="translate(84.4284, 56.0031)">
<rect x="-0.0757" y="-0.3287" width="0.1514" height="3.3287" ry="0.0500" fill="currentColor"/>
</g>
<g transform="translate(93.1184, 56.0031)">
<path transform="scale(0.0040, -0.0040)" d="M-9 78c0 59 124 84 124 182c0 25 -9 50 -26 70l-31 37c-3 4 -4 8 -4 12c0 10 9 18 19 18c5 0 9 -1 13 -6l149 -178c7 -9 11 -17 11 -26c0 -59 -124 -84 -124 -182c0 -25 9 -51 26 -71l79 -94c3 -4 4 -8 4 -12c0 -10 -9 -18 -19 -18c-11 0 -38 40 -102 40
c-23 0 -55 -4 -55 -65c0 -33 11 -73 27 -92c8 -9 -6 -20 -14 -11c-44 53 -92 145 -92 199c0 41 26 43 46 43c30 0 69 -9 106 -23l-126 151c-7 9 -11 17 -11 26z" fill="currentColor"/>
</g>
<g transform="translate(101.5333, 56.0031)">
<path transform="scale(0.0040, -0.0040)" d="M212 138c68 0 113 -38 113 -95c0 -90 -109 -181 -212 -181c-68 0 -113 38 -113 95c0 90 109 181 212 181z" fill="currentColor"/>
</g>
<g transform="translate(99.7083, 61.7870)">
<text font-family="Songti SC" font-size="2.4697" text-anchor="start" fill="currentColor">
<tspan>哦，</tspan>
</text>
</g>
<g transform="translate(101.6090, 56.0031)">
<rect x="-0.0757" y="0.1713" width="0.1514" height="3.1620" ry="0.0500" fill="currentColor"/>
</g>
<g transform="translate(112.8179, 52.5091)">
<text font-family="Hiragino Sans GB" font-size="1.9604" text-anchor="start" fill="currentColor">
<tspan>D</tspan>
</text>
</g>
<g transform="translate(112.8179, 56.5031)">
<path transform="scale(0.0040, -0.0040)" d="M212 138c68 0 113 -38 113 -95c0 -90 -109 -181 -212 -181c-68 0 -113 38 -113 95c0 90 109 181 212 181z" fill="currentColor"/>
</g>
<g transform="translate(112.2306, 61.7870)">
<text font-family="Songti SC" font-size="2.4697" text-anchor="start" fill="currentColor">
<tspan>全</tspan>
</text>
</g>
<g transform="translate(114.5601, 56.5031)">
<path transform="scale(0.0040, -0.0040)" d="M0 0c0 30 25 55 55 55s55 -25 55 -55s-25 -55 -55 -55s-55 25 -55 55z" fill="currentColor"/>
</g>
<g transform="translate(114.0430, 56.0031)">
<rect x="-0.0757" y="-3.0000" width="0.1514" height="3.3287" ry="0.0500" fill="currentColor"/>
</g>
<g transform="translate(124.6920, 56.0031)">
<path transform="scale(0.0040, -0.0040)" d="M212 138c68 0 113 -38 113 -95c0 -90 -109 -181 -212 -181c-68 0 -113 38 -113 95c0 90 109 181 212 181z" fill="currentColor"/>
</g>
<g transform="translate(124.1047, 61.7870)">
<text font-family="Songti SC" font-size="2.4697" text-anchor="start" fill="currentColor">
<tspan>然</tspan>
</text>
</g>
<g transform="translate(124.7676, 56.0031)">
<rect x="-0.0757" y="0.1713" width="0.1514" height="3.2037" ry="0.0500" fill="currentColor"/>
</g>
<g transform="translate(124.8433, 59.3281)">
<path transform="scale(0.0040, -0.0040)" d="M0 0h-19v250h19v-250zM0 0v250c95 59 220 149 220 259c0 56 -16 111 -41 161c-3 18 12 30 26 30c8 0 17 -4 22 -13c25 -56 40 -116 40 -178c0 -203 -267 -306 -267 -509z" fill="currentColor"/>
</g>
<g transform="translate(129.5097, 56.5031)">
<path transform="scale(0.0040, -0.0040)" d="M212 138c68 0 113 -38 113 -95c0 -90 -109 -181 -212 -181c-68 0 -113 38 -113 95c0 90 109 181 212 181z" fill="currentColor"/>
</g>
<g transform="translate(128.9224, 61.7870)">
<text font-family="Songti SC" font-size="2.4697" text-anchor="start" fill="currentColor">
<tspan>美</tspan>
</text>
</g>
<g transform="translate(130.7349, 56.0031)">
<rect x="-0.0757" y="-3.0000" width="0.1514" height="3.3287" ry="0.0500" fill="currentColor"/>
</g>
<g transform="translate(138.0254, 57.5031)">
<path transform="scale(0.0040, -0.0040)" d="M212 138c68 0 113 -38 113 -95c0 -90 -109 -181 -212 -181c-68 0 -113 38 -113 95c0 90 109 181 212 181z" fill="currentColor"/>
</g>
<g transform="translate(137.4382, 61.7870)">
<text font-family="Songti SC" font-size="2.4697" text-anchor="start" fill="currentColor">
<tspan>丽</tspan>
</text>
</g>
<g transform="translate(139.2506, 56.0031)">
<rect x="-0.0757" y="-2.0000" width="0.1514" height="3.3287" ry="0.0500" fill="currentColor"/>
</g>
<g transform="translate(82.5277, 61.7870)">
<text font-family="Songti SC" font-size="2.4697" text-anchor="start" fill="currentColor">
<tspan>人，</tspan>
</text>
</g>
<g transform="translate(55.0149, 68.1916)">
<rect x="0.0000" y="-2.0000" width="0.2212" height="4.0000" ry="0.0000" fill="currentColor"/>
</g>
<g transform="translate(9.0337, 70.1916)">
<line stroke-linejoin="round" stroke-linecap="round" stroke-width="0.1164" stroke="currentColor" x1="0.0582" y1="0" x2="138.1582" y2="0"/>
</g>
<g transform="translate(9.0337, 69.1916)">
<line stroke-linejoin="round" stroke-linecap="round" stroke-width="0.1164" stroke="currentColor" x1="0.0582" y1="0" x2="138.1582" y2="0"/>
</g>
<g transform="translate(9.0337, 68.1916)">
<line stroke-linejoin="round" stroke-linecap="round" stroke-width="0.1164" stroke="currentColor" x1="0.0582" y1="0" x2="138.1582" y2="0"/>
</g>
<g transform="translate(9.0337, 67.1916)">
<line stroke-linejoin="round" stroke-linecap="round" stroke-width="0.1164" stroke="currentColor" x1="0.0582" y1="0" x2="138.1582" y2="0"/>
</g>
<g transform="translate(9.0337, 66.1916)">
<line stroke-linejoin="round" stroke-linecap="round" stroke-width="0.1164" stroke="currentColor" x1="0.0582" y1="0" x2="138.1582" y2="0"/>
</g>
<g transform="translate(147.0289, 68.1916)">
<rect x="0.0000" y="-2.0000" width="0.2212" height="4.0000" ry="0.0000" fill="currentColor"/>
</g>
<g transform="translate(122.0612, 68.1916)">
<rect x="0.0000" y="-2.0000" width="0.2212" height="4.0000" ry="0.0000" fill="currentColor"/>
</g>
<g transform="translate(85.3486, 68.1916)">
<rect x="0.0000" y="-2.0000" width="0.2212" height="4.0000" ry="0.0000" fill="currentColor"/>
</g>
<g transform="translate(88.1343, 64.6975)">
<text font-family="Hiragino Sans GB" font-size="1.9604" text-anchor="start" fill="currentColor">
<tspan>D</tspan>
</text>
</g>
<g transform="translate(9.8338, 69.1916)">
<path transform="scale(0.0040, -0.0040)" d="M647 2c0 -114 -75 -214 -180 -248c3 -33 4 -66 4 -99c0 -21 0 -41 -1 -62c-7 -122 -92 -229 -211 -229c-108 0 -196 88 -196 197c0 58 54 103 113 103c54 0 95 -47 95 -103c0 -52 -43 -95 -95 -95c-9 0 -18 1 -27 4c25 -37 66 -61 113 -61c93 0 156 91 162 191
c1 19 2 38 2 57c0 29 -1 58 -3 87c-5 -1 -44 -8 -88 -8c-194 0 -333 181 -333 376c0 177 129 308 244 443c-34 103 -55 171 -55 347c0 114 54 221 147 288c8 6 18 5 25 -1c68 -79 135 -242 135 -356c0 -142 -84 -255 -176 -364c21 -68 40 -136 57 -205c1 0 5 1 10 1
c157 0 258 -129 258 -263zM463 -201c64 24 110 88 110 161c0 88 -64 175 -167 188c28 -133 49 -269 57 -349zM77 25c0 -144 141 -243 261 -243c1 0 46 -1 81 5c-7 66 -27 208 -60 362c-79 -8 -124 -60 -124 -118c0 -43 25 -88 80 -120c5 -5 7 -11 7 -17
c0 -12 -10 -23 -23 -23c-16 0 -128 62 -128 188c0 89 60 177 163 200c-14 57 -30 113 -47 169c-105 -122 -210 -243 -210 -403zM242 784c0 -39 10 -95 39 -188c78 97 142 199 142 324c0 33 0 60 -20 118c-99 -46 -161 -145 -161 -254z" fill="currentColor"/>
</g>
<g transform="translate(13.3337, 66.1916)">
<path transform="scale(0.0040, -0.0040)" d="M0 116c0 10 6 19 16 23l40 15v154c0 12 9 21 21 21s21 -9 21 -21v-138l79 30v154c0 12 9 21 21 21s21 -9 21 -21v-138l22 8c3 1 6 2 9 2c13 0 25 -11 25 -25v-54c0 -10 -6 -20 -16 -24l-40 -15v-155l22 9c3 1 6 1 9 1c13 0 25 -11 25 -25v-54c0 -10 -6 -19 -16 -23
l-40 -15v-154c0 -12 -9 -21 -21 -21s-21 9 -21 21v138l-79 -30v-154c0 -12 -9 -21 -21 -21s-21 9 -21 21v138l-22 -8c-3 -1 -6 -2 -9 -2c-13 0 -25 11 -25 25v54c0 10 6 20 16 24l40 15v155l-22 -9c-3 -1 -6 -1 -9 -1c-13 0 -25 11 -25 25v54zM177 92l-79 -30v-154l79 30
v154z" fill="currentColor"/>
</g>
<g transform="translate(14.4338, 67.6916)">
<path transform="scale(0.0040, -0.0040)" d="M0 116c0 10 6 19 16 23l40 15v154c0 12 9 21 21 21s21 -9 21 -21v-138l79 30v154c0 12 9 21 21 21s21 -9 21 -21v-138l22 8c3 1 6 2 9 2c13 0 25 -11 25 -25v-54c0 -10 -6 -20 -16 -24l-40 -15v-155l22 9c3 1 6 1 9 1c13 0 25 -11 25 -25v-54c0 -10 -6 -19 -16 -23
l-40 -15v-154c0 -12 -9 -21 -21 -21s-21 9 -21 21v138l-79 -30v-154c0 -12 -9 -21 -21 -21s-21 9 -21 21v138l-22 -8c-3 -1 -6 -2 -9 -2c-13 0 -25 11 -25 25v54c0 10 6 20 16 24l40 15v155l-22 -9c-3 -1 -6 -1 -9 -1c-13 0 -25 11 -25 25v54zM177 92l-79 -30v-154l79 30
v154z" fill="currentColor"/>
</g>
<g transform="translate(7.4119, 65.2185)">
<text font-family="Songti SC" font-size="1.7463" text-anchor="start" fill="currentColor">
<tspan>16</tspan>
</text>
</g>
<g transform="translate(18.0338, 64.6975)">
<text font-family="Hiragino Sans GB" font-size="1.9604" text-anchor="start" fill="currentColor">
<tspan>B</tspan>
</text>
</g>
<g transform="translate(19.4422, 64.6975)">
<text font-family="Hiragino Sans GB" font-size="1.9604" text-anchor="start" fill="currentColor">
<tspan>m</tspan>
</text>
</g>
<g transform="translate(18.0338, 70.1916)">
<path transform="scale(0.0040, -0.0040)" d="M212 138c68 0 113 -38 113 -95c0 -90 -109 -181 -212 -181c-68 0 -113 38 -113 95c0 90 109 181 212 181z" fill="currentColor"/>
</g>
<g transform="translate(17.4465, 73.9560)">
<text font-family="Songti SC" font-size="2.4697" text-anchor="start" fill="currentColor">
<tspan>可</tspan>
</text>
</g>
<g transform="translate(19.2589, 68.1916)">
<rect x="-0.0757" y="-1.5000" width="0.1514" height="3.3287" ry="0.0500" fill="currentColor"/>
</g>
<g transform="translate(110.0176, 64.7369)">
<text font-family="Songti SC" font-style="italic" font-size="1.7463" text-anchor="start" fill="currentColor">
<tspan>3</tspan>
</text>
</g>
<g transform="translate(27.3132, 70.6916)">
<path transform="scale(0.0040, -0.0040)" d="M212 138c68 0 113 -38 113 -95c0 -90 -109 -181 -212 -181c-68 0 -113 38 -113 95c0 90 109 181 212 181z" fill="currentColor"/>
</g>
<g transform="translate(25.4882, 73.9560)">
<text font-family="Songti SC" font-size="2.4697" text-anchor="start" fill="currentColor">
<tspan>爱，</tspan>
</text>
</g>
<g transform="translate(28.5383, 68.1916)">
<rect x="-0.0757" y="-1.0000" width="0.1514" height="3.3287" ry="0.0500" fill="currentColor"/>
</g>
<g transform="translate(104.0346, 64.0916)">
<line stroke-linejoin="round" stroke-linecap="round" stroke-width="0.1863" stroke="currentColor" x1="12.9769" y1="-0.0000" x2="12.9769" y2="0.7000"/>
</g>
<g transform="translate(104.0346, 64.0916)">
<line stroke-linejoin="round" stroke-linecap="round" stroke-width="0.1863" stroke="currentColor" x1="-0.2000" y1="-0.0000" x2="-0.2000" y2="0.7000"/>
</g>
<g transform="translate(104.0346, 64.0916)">
<line stroke-linejoin="round" stroke-linecap="round" stroke-width="0.1863" stroke="currentColor" x1="12.9769" y1="-0.0000" x2="7.3939" y2="-0.0000"/>
</g>
<g transform="translate(104.0346, 64.0916)">
<line stroke-linejoin="round" stroke-linecap="round" stroke-width="0.1863" stroke="currentColor" x1="-0.2000" y1="-0.0000" x2="5.5830" y2="-0.0000"/>
</g>
<g transform="translate(36.5926, 68.1916)">
<path transform="scale(0.0040, -0.0040)" d="M-9 78c0 59 124 84 124 182c0 25 -9 50 -26 70l-31 37c-3 4 -4 8 -4 12c0 10 9 18 19 18c5 0 9 -1 13 -6l149 -178c7 -9 11 -17 11 -26c0 -59 -124 -84 -124 -182c0 -25 9 -51 26 -71l79 -94c3 -4 4 -8 4 -12c0 -10 -9 -18 -19 -18c-11 0 -38 40 -102 40
c-23 0 -55 -4 -55 -65c0 -33 11 -73 27 -92c8 -9 -6 -20 -14 -11c-44 53 -92 145 -92 199c0 41 26 43 46 43c30 0 69 -9 106 -23l-126 151c-7 9 -11 17 -11 26z" fill="currentColor"/>
</g>
<g transform="translate(45.5212, 70.6916)">
<path transform="scale(0.0040, -0.0040)" d="M212 138c68 0 113 -38 113 -95c0 -90 -109 -181 -212 -181c-68 0 -113 38 -113 95c0 90 109 181 212 181z" fill="currentColor"/>
</g>
<g transform="translate(44.9339, 73.9560)">
<text font-family="Songti SC" font-size="2.4697" text-anchor="start" fill="currentColor">
<tspan>我</tspan>
</text>
</g>
<g transform="translate(46.7463, 68.1916)">
<rect x="-0.0757" y="-1.0000" width="0.1514" height="3.3287" ry="0.0500" fill="currentColor"/>
</g>
<g transform="translate(57.9007, 64.6975)">
<text font-family="Hiragino Sans GB" font-size="1.9604" text-anchor="start" fill="currentColor">
<tspan>G</tspan>
</text>
</g>
<g transform="translate(57.9007, 68.1916)">
<path transform="scale(0.0040, -0.0040)" d="M310 63c0 22 -17 40 -40 40c-38 0 -197 -107 -224 -139c-7 -8 -10 -17 -10 -27c0 -22 17 -40 40 -40c38 0 197 107 224 139c7 8 10 17 10 27zM256 138c55 0 90 -22 90 -77c0 -25 -15 -112 -73 -151c-34 -23 -92 -48 -183 -48c-55 0 -90 22 -90 77c0 25 15 112 73 151
c34 23 92 48 183 48z" fill="currentColor"/>
</g>
<g transform="translate(57.3550, 73.9560)">
<text font-family="Songti SC" font-size="2.4697" text-anchor="start" fill="currentColor">
<tspan>心</tspan>
</text>
</g>
<g transform="translate(59.7260, 67.6916)">
<path transform="scale(0.0040, -0.0040)" d="M0 0c0 30 25 55 55 55s55 -25 55 -55s-25 -55 -55 -55s-55 25 -55 55z" fill="currentColor"/>
</g>
<g transform="translate(57.9764, 68.1916)">
<rect x="-0.0757" y="0.2456" width="0.1514" height="3.0878" ry="0.0500" fill="currentColor"/>
</g>
<g transform="translate(76.1998, 68.1916)">
<path transform="scale(0.0040, -0.0040)" d="M212 138c68 0 113 -38 113 -95c0 -90 -109 -181 -212 -181c-68 0 -113 38 -113 95c0 90 109 181 212 181z" fill="currentColor"/>
</g>
<g transform="translate(75.6126, 73.9560)">
<text font-family="Songti SC" font-size="2.4697" text-anchor="start" fill="currentColor">
<tspan>朝</tspan>
</text>
</g>
<g transform="translate(76.2755, 68.1916)">
<rect x="-0.0757" y="0.1713" width="0.1514" height="3.1620" ry="0.0500" fill="currentColor"/>
</g>
<g transform="translate(88.1343, 68.6916)">
<path transform="scale(0.0040, -0.0040)" d="M310 63c0 22 -17 40 -40 40c-38 0 -197 -107 -224 -139c-7 -8 -10 -17 -10 -27c0 -22 17 -40 40 -40c38 0 197 107 224 139c7 8 10 17 10 27zM256 138c55 0 90 -22 90 -77c0 -25 -15 -112 -73 -151c-34 -23 -92 -48 -183 -48c-55 0 -90 22 -90 77c0 25 15 112 73 151
c34 23 92 48 183 48z" fill="currentColor"/>
</g>
<g transform="translate(87.5885, 73.9560)">
<text font-family="Songti SC" font-size="2.4697" text-anchor="start" fill="currentColor">
<tspan>夕</tspan>
</text>
</g>
<g transform="translate(89.4424, 68.1916)">
<rect x="-0.0757" y="-3.0000" width="0.1514" height="3.2544" ry="0.0500" fill="currentColor"/>
</g>
<g transform="translate(102.8851, 69.6916)">
<path transform="scale(0.0040, -0.0040)" d="M212 138c68 0 113 -38 113 -95c0 -90 -109 -181 -212 -181c-68 0 -113 38 -113 95c0 90 109 181 212 181z" fill="currentColor"/>
</g>
<g transform="translate(102.2978, 73.9560)">
<text font-family="Songti SC" font-size="2.4697" text-anchor="start" fill="currentColor">
<tspan>依</tspan>
</text>
</g>
<g transform="translate(104.1103, 68.1916)">
<rect x="-0.0757" y="-2.0000" width="0.1514" height="3.3287" ry="0.0500" fill="currentColor"/>
</g>
<g transform="translate(109.4479, 68.6916)">
<path transform="scale(0.0040, -0.0040)" d="M212 138c68 0 113 -38 113 -95c0 -90 -109 -181 -212 -181c-68 0 -113 38 -113 95c0 90 109 181 212 181z" fill="currentColor"/>
</g>
<g transform="translate(108.8606, 73.9560)">
<text font-family="Songti SC" font-size="2.4697" text-anchor="start" fill="currentColor">
<tspan>依</tspan>
</text>
</g>
<g transform="translate(110.6730, 68.1916)">
<rect x="-0.0757" y="-3.0000" width="0.1514" height="3.3287" ry="0.0500" fill="currentColor"/>
</g>
<g transform="translate(115.5106, 69.6916)">
<path transform="scale(0.0040, -0.0040)" d="M212 138c68 0 113 -38 113 -95c0 -90 -109 -181 -212 -181c-68 0 -113 38 -113 95c0 90 109 181 212 181z" fill="currentColor"/>
</g>
<g transform="translate(114.9234, 73.9560)">
<text font-family="Songti SC" font-size="2.4697" text-anchor="start" fill="currentColor">
<tspan>恋</tspan>
</text>
</g>
<g transform="translate(116.7358, 68.1916)">
<rect x="-0.0757" y="-2.0000" width="0.1514" height="3.3287" ry="0.0500" fill="currentColor"/>
</g>
<g transform="translate(125.8468, 64.6975)">
<text font-family="Hiragino Sans GB" font-size="1.9604" text-anchor="start" fill="currentColor">
<tspan>A</tspan>
</text>
</g>
<g transform="translate(125.8468, 70.1916)">
<path transform="scale(0.0040, -0.0040)" d="M210 110c-18 0 -67 -7 -67 -88c0 -98 87 -132 129 -132c18 0 67 7 67 88c0 98 -87 132 -129 132zM241 138c142 0 241 -66 241 -138s-99 -138 -241 -138s-241 66 -241 138s99 138 241 138z" fill="currentColor"/>
</g>
<g transform="translate(125.5725, 73.9560)">
<text font-family="Songti SC" font-size="2.4697" text-anchor="start" fill="currentColor">
<tspan>恋</tspan>
</text>
</g>
<g transform="translate(31.3440, 80.7506)">
<rect x="0.0000" y="-2.0000" width="0.2212" height="4.0000" ry="0.0000" fill="currentColor"/>
</g>
<g transform="translate(9.0337, 82.7506)">
<line stroke-linejoin="round" stroke-linecap="round" stroke-width="0.1164" stroke="currentColor" x1="0.0582" y1="0" x2="138.1582" y2="0"/>
</g>
<g transform="translate(9.0337, 81.7506)">
<line stroke-linejoin="round" stroke-linecap="round" stroke-width="0.1164" stroke="currentColor" x1="0.0582" y1="0" x2="138.1582" y2="0"/>
</g>
<g transform="translate(9.0337, 80.7506)">
<line stroke-linejoin="round" stroke-linecap="round" stroke-width="0.1164" stroke="currentColor" x1="0.0582" y1="0" x2="138.1582" y2="0"/>
</g>
<g transform="translate(9.0337, 79.7506)">
<line stroke-linejoin="round" stroke-linecap="round" stroke-width="0.1164" stroke="currentColor" x1="0.0582" y1="0" x2="138.1582" y2="0"/>
</g>
<g transform="translate(9.0337, 78.7506)">
<line stroke-linejoin="round" stroke-linecap="round" stroke-width="0.1164" stroke="currentColor" x1="0.0582" y1="0" x2="138.1582" y2="0"/>
</g>
<g transform="translate(146.5516, 80.7506)">
<rect x="0.0000" y="-2.0000" width="0.6986" height="4.0000" ry="0.0000" fill="currentColor"/>
</g>
<g transform="translate(145.9811, 80.7506)">
<rect x="0.0000" y="-2.0000" width="0.2212" height="4.0000" ry="0.0000" fill="currentColor"/>
</g>
<g transform="translate(134.3356, 80.7506)">
<rect x="0.0000" y="-2.0000" width="0.2212" height="4.0000" ry="0.0000" fill="currentColor"/>
</g>
<g transform="translate(121.8755, 80.7506)">
<rect x="0.0000" y="-2.0000" width="0.2212" height="4.0000" ry="0.0000" fill="currentColor"/>
</g>
<g transform="translate(105.8161, 80.7506)">
<rect x="0.0000" y="-2.0000" width="0.2212" height="4.0000" ry="0.0000" fill="currentColor"/>
</g>
<g transform="translate(93.8502, 80.7506)">
<rect x="0.0000" y="-2.0000" width="0.2212" height="4.0000" ry="0.0000" fill="currentColor"/>
</g>
<g transform="translate(76.9161, 80.7506)">
<rect x="0.0000" y="-2.0000" width="0.2212" height="4.0000" ry="0.0000" fill="currentColor"/>
</g>
<g transform="translate(60.0178, 80.7506)">
<rect x="0.0000" y="-2.0000" width="0.2212" height="4.0000" ry="0.0000" fill="currentColor"/>
</g>
<g transform="translate(43.2956, 80.7506)">
<rect x="0.0000" y="-2.0000" width="0.2212" height="4.0000" ry="0.0000" fill="currentColor"/>
</g>
<g transform="translate(7.4119, 77.7774)">
<text font-family="Songti SC" font-size="1.7463" text-anchor="start" fill="currentColor">
<tspan>20</tspan>
</text>
</g>
<g transform="translate(18.0338, 77.2565)">
<text font-family="Hiragino Sans GB" font-size="1.9604" text-anchor="start" fill="currentColor">
<tspan>D</tspan>
</text>
</g>
<g transform="translate(18.0338, 82.2506)">
<path transform="scale(0.0040, -0.0040)" d="M310 63c0 22 -17 40 -40 40c-38 0 -197 -107 -224 -139c-7 -8 -10 -17 -10 -27c0 -22 17 -40 40 -40c38 0 197 107 224 139c7 8 10 17 10 27zM256 138c55 0 90 -22 90 -77c0 -25 -15 -112 -73 -151c-34 -23 -92 -48 -183 -48c-55 0 -90 22 -90 77c0 25 15 112 73 151
c34 23 92 48 183 48z" fill="currentColor"/>
</g>
<g transform="translate(16.2503, 86.5344)">
<text font-family="Songti SC" font-size="2.4697" text-anchor="start" fill="currentColor">
<tspan>的。</tspan>
</text>
</g>
<g transform="translate(19.3420, 80.7506)">
<rect x="-0.0757" y="-2.0000" width="0.1514" height="3.2544" ry="0.0500" fill="currentColor"/>
</g>
<g transform="translate(23.7739, 80.7506)">
<path transform="scale(0.0040, -0.0040)" d="M-9 78c0 59 124 84 124 182c0 25 -9 50 -26 70l-31 37c-3 4 -4 8 -4 12c0 10 9 18 19 18c5 0 9 -1 13 -6l149 -178c7 -9 11 -17 11 -26c0 -59 -124 -84 -124 -182c0 -25 9 -51 26 -71l79 -94c3 -4 4 -8 4 -12c0 -10 -9 -18 -19 -18c-11 0 -38 40 -102 40
c-23 0 -55 -4 -55 -65c0 -33 11 -73 27 -92c8 -9 -6 -20 -14 -11c-44 53 -92 145 -92 199c0 41 26 43 46 43c30 0 69 -9 106 -23l-126 151c-7 9 -11 17 -11 26z" fill="currentColor"/>
</g>
<g transform="translate(116.5134, 77.2958)">
<text font-family="Songti SC" font-style="italic" font-size="1.7463" text-anchor="start" fill="currentColor">
<tspan>3</tspan>
</text>
</g>
<g transform="translate(27.2764, 83.2506)">
<path transform="scale(0.0040, -0.0040)" d="M212 138c68 0 113 -38 113 -95c0 -90 -109 -181 -212 -181c-68 0 -113 38 -113 95c0 90 109 181 212 181z" fill="currentColor"/>
</g>
<g transform="translate(26.6891, 86.5344)">
<text font-family="Songti SC" font-size="2.4697" text-anchor="start" fill="currentColor">
<tspan>你</tspan>
</text>
</g>
<g transform="translate(28.5015, 80.7506)">
<rect x="-0.0757" y="-1.0000" width="0.1514" height="3.3287" ry="0.0500" fill="currentColor"/>
</g>
<g transform="translate(113.8033, 76.6506)">
<line stroke-linejoin="round" stroke-linecap="round" stroke-width="0.1863" stroke="currentColor" x1="6.4310" y1="-0.0000" x2="6.4310" y2="0.7000"/>
</g>
<g transform="translate(113.8033, 76.6506)">
<line stroke-linejoin="round" stroke-linecap="round" stroke-width="0.1863" stroke="currentColor" x1="-0.2000" y1="-0.0000" x2="-0.2000" y2="0.7000"/>
</g>
<g transform="translate(113.8033, 76.6506)">
<line stroke-linejoin="round" stroke-linecap="round" stroke-width="0.1863" stroke="currentColor" x1="6.4310" y1="-0.0000" x2="4.1209" y2="-0.0000"/>
</g>
<g transform="translate(113.8033, 76.6506)">
<line stroke-linejoin="round" stroke-linecap="round" stroke-width="0.1863" stroke="currentColor" x1="-0.2000" y1="-0.0000" x2="2.3100" y2="-0.0000"/>
</g>
<g transform="translate(32.8490, 77.2565)">
<text font-family="Hiragino Sans GB" font-size="1.9604" text-anchor="start" fill="currentColor">
<tspan>B</tspan>
</text>
</g>
<g transform="translate(34.2574, 77.2565)">
<text font-family="Hiragino Sans GB" font-size="1.9604" text-anchor="start" fill="currentColor">
<tspan>m</tspan>
</text>
</g>
<g transform="translate(32.8490, 79.7506)">
<path transform="scale(0.0040, -0.0040)" d="M310 63c0 22 -17 40 -40 40c-38 0 -197 -107 -224 -139c-7 -8 -10 -17 -10 -27c0 -22 17 -40 40 -40c38 0 197 107 224 139c7 8 10 17 10 27zM256 138c55 0 90 -22 90 -77c0 -25 -15 -112 -73 -151c-34 -23 -92 -48 -183 -48c-55 0 -90 22 -90 77c0 25 15 112 73 151
c34 23 92 48 183 48z" fill="currentColor"/>
</g>
<g transform="translate(9.8338, 81.7506)">
<path transform="scale(0.0040, -0.0040)" d="M647 2c0 -114 -75 -214 -180 -248c3 -33 4 -66 4 -99c0 -21 0 -41 -1 -62c-7 -122 -92 -229 -211 -229c-108 0 -196 88 -196 197c0 58 54 103 113 103c54 0 95 -47 95 -103c0 -52 -43 -95 -95 -95c-9 0 -18 1 -27 4c25 -37 66 -61 113 -61c93 0 156 91 162 191
c1 19 2 38 2 57c0 29 -1 58 -3 87c-5 -1 -44 -8 -88 -8c-194 0 -333 181 -333 376c0 177 129 308 244 443c-34 103 -55 171 -55 347c0 114 54 221 147 288c8 6 18 5 25 -1c68 -79 135 -242 135 -356c0 -142 -84 -255 -176 -364c21 -68 40 -136 57 -205c1 0 5 1 10 1
c157 0 258 -129 258 -263zM463 -201c64 24 110 88 110 161c0 88 -64 175 -167 188c28 -133 49 -269 57 -349zM77 25c0 -144 141 -243 261 -243c1 0 46 -1 81 5c-7 66 -27 208 -60 362c-79 -8 -124 -60 -124 -118c0 -43 25 -88 80 -120c5 -5 7 -11 7 -17
c0 -12 -10 -23 -23 -23c-16 0 -128 62 -128 188c0 89 60 177 163 200c-14 57 -30 113 -47 169c-105 -122 -210 -243 -210 -403zM242 784c0 -39 10 -95 39 -188c78 97 142 199 142 324c0 33 0 60 -20 118c-99 -46 -161 -145 -161 -254z" fill="currentColor"/>
</g>
<g transform="translate(32.3032, 86.5344)">
<text font-family="Songti SC" font-size="2.4697" text-anchor="start" fill="currentColor">
<tspan>是</tspan>
</text>
</g>
<g transform="translate(34.6743, 79.2506)">
<path transform="scale(0.0040, -0.0040)" d="M0 0c0 30 25 55 55 55s55 -25 55 -55s-25 -55 -55 -55s-55 25 -55 55z" fill="currentColor"/>
</g>
<g transform="translate(32.9247, 80.7506)">
<rect x="-0.0757" y="-0.7544" width="0.1514" height="3.2544" ry="0.0500" fill="currentColor"/>
</g>
<g transform="translate(39.6443, 79.7506)">
<path transform="scale(0.0040, -0.0040)" d="M212 138c68 0 113 -38 113 -95c0 -90 -109 -181 -212 -181c-68 0 -113 38 -113 95c0 90 109 181 212 181z" fill="currentColor"/>
</g>
<g transform="translate(39.0570, 86.5344)">
<text font-family="Songti SC" font-size="2.4697" text-anchor="start" fill="currentColor">
<tspan>我</tspan>
</text>
</g>
<g transform="translate(39.7200, 80.7506)">
<rect x="-0.0757" y="-0.8287" width="0.1514" height="3.3287" ry="0.0500" fill="currentColor"/>
</g>
<g transform="translate(44.7763, 77.2565)">
<text font-family="Hiragino Sans GB" font-size="1.9604" text-anchor="start" fill="currentColor">
<tspan>A</tspan>
</text>
</g>
<g transform="translate(44.7763, 80.2506)">
<path transform="scale(0.0040, -0.0040)" d="M212 138c68 0 113 -38 113 -95c0 -90 -109 -181 -212 -181c-68 0 -113 38 -113 95c0 90 109 181 212 181z" fill="currentColor"/>
</g>
<g transform="translate(44.1890, 86.5344)">
<text font-family="Songti SC" font-size="2.4697" text-anchor="start" fill="currentColor">
<tspan>良</tspan>
</text>
</g>
<g transform="translate(44.8519, 80.7506)">
<rect x="-0.0757" y="-0.3287" width="0.1514" height="3.3287" ry="0.0500" fill="currentColor"/>
</g>
<g transform="translate(48.9393, 80.2506)">
<path transform="scale(0.0040, -0.0040)" d="M212 138c68 0 113 -38 113 -95c0 -90 -109 -181 -212 -181c-68 0 -113 38 -113 95c0 90 109 181 212 181z" fill="currentColor"/>
</g>
<g transform="translate(47.1144, 86.5344)">
<text font-family="Songti SC" font-size="2.4697" text-anchor="start" fill="currentColor">
<tspan>人，</tspan>
</text>
</g>
<g transform="translate(49.0150, 80.7506)">
<rect x="-0.0757" y="-0.3287" width="0.1514" height="3.3287" ry="0.0500" fill="currentColor"/>
</g>
<g transform="translate(52.7926, 80.7506)">
<path transform="scale(0.0040, -0.0040)" d="M-9 78c0 59 124 84 124 182c0 25 -9 50 -26 70l-31 37c-3 4 -4 8 -4 12c0 10 9 18 19 18c5 0 9 -1 13 -6l149 -178c7 -9 11 -17 11 -26c0 -59 -124 -84 -124 -182c0 -25 9 -51 26 -71l79 -94c3 -4 4 -8 4 -12c0 -10 -9 -18 -19 -18c-11 0 -38 40 -102 40
c-23 0 -55 -4 -55 -65c0 -33 11 -73 27 -92c8 -9 -6 -20 -14 -11c-44 53 -92 145 -92 199c0 41 26 43 46 43c30 0 69 -9 106 -23l-126 151c-7 9 -11 17 -11 26z" fill="currentColor"/>
</g>
<g transform="translate(56.2951, 80.7506)">
<path transform="scale(0.0040, -0.0040)" d="M212 138c68 0 113 -38 113 -95c0 -90 -109 -181 -212 -181c-68 0 -113 38 -113 95c0 90 109 181 212 181z" fill="currentColor"/>
</g>
<g transform="translate(54.4701, 86.5344)">
<text font-family="Songti SC" font-size="2.4697" text-anchor="start" fill="currentColor">
<tspan>哦，</tspan>
</text>
</g>
<g transform="translate(56.3708, 80.7506)">
<rect x="-0.0757" y="0.1713" width="0.1514" height="3.1620" ry="0.0500" fill="currentColor"/>
</g>
<g transform="translate(61.3654, 77.2565)">
<text font-family="Hiragino Sans GB" font-size="1.9604" text-anchor="start" fill="currentColor">
<tspan>D</tspan>
</text>
</g>
<g transform="translate(61.3654, 81.2506)">
<path transform="scale(0.0040, -0.0040)" d="M212 138c68 0 113 -38 113 -95c0 -90 -109 -181 -212 -181c-68 0 -113 38 -113 95c0 90 109 181 212 181z" fill="currentColor"/>
</g>
<g transform="translate(60.7782, 86.5344)">
<text font-family="Songti SC" font-size="2.4697" text-anchor="start" fill="currentColor">
<tspan>全</tspan>
</text>
</g>
<g transform="translate(63.1077, 81.2506)">
<path transform="scale(0.0040, -0.0040)" d="M0 0c0 30 25 55 55 55s55 -25 55 -55s-25 -55 -55 -55s-55 25 -55 55z" fill="currentColor"/>
</g>
<g transform="translate(62.5906, 80.7506)">
<rect x="-0.0757" y="-3.0000" width="0.1514" height="3.3287" ry="0.0500" fill="currentColor"/>
</g>
<g transform="translate(66.2964, 80.7506)">
<path transform="scale(0.0040, -0.0040)" d="M212 138c68 0 113 -38 113 -95c0 -90 -109 -181 -212 -181c-68 0 -113 38 -113 95c0 90 109 181 212 181z" fill="currentColor"/>
</g>
<g transform="translate(65.7091, 86.5344)">
<text font-family="Songti SC" font-size="2.4697" text-anchor="start" fill="currentColor">
<tspan>然</tspan>
</text>
</g>
<g transform="translate(66.3720, 80.7506)">
<rect x="-0.0757" y="0.1713" width="0.1514" height="3.2037" ry="0.0500" fill="currentColor"/>
</g>
<g transform="translate(66.4477, 84.0756)">
<path transform="scale(0.0040, -0.0040)" d="M0 0h-19v250h19v-250zM0 0v250c95 59 220 149 220 259c0 56 -16 111 -41 161c-3 18 12 30 26 30c8 0 17 -4 22 -13c25 -56 40 -116 40 -178c0 -203 -267 -306 -267 -509z" fill="currentColor"/>
</g>
<g transform="translate(69.2218, 81.2506)">
<path transform="scale(0.0040, -0.0040)" d="M212 138c68 0 113 -38 113 -95c0 -90 -109 -181 -212 -181c-68 0 -113 38 -113 95c0 90 109 181 212 181z" fill="currentColor"/>
</g>
<g transform="translate(68.6345, 86.5344)">
<text font-family="Songti SC" font-size="2.4697" text-anchor="start" fill="currentColor">
<tspan>美</tspan>
</text>
</g>
<g transform="translate(70.4469, 80.7506)">
<rect x="-0.0757" y="-3.0000" width="0.1514" height="3.3287" ry="0.0500" fill="currentColor"/>
</g>
<g transform="translate(72.8251, 82.2506)">
<path transform="scale(0.0040, -0.0040)" d="M212 138c68 0 113 -38 113 -95c0 -90 -109 -181 -212 -181c-68 0 -113 38 -113 95c0 90 109 181 212 181z" fill="currentColor"/>
</g>
<g transform="translate(72.2378, 86.5344)">
<text font-family="Songti SC" font-size="2.4697" text-anchor="start" fill="currentColor">
<tspan>丽</tspan>
</text>
</g>
<g transform="translate(74.0502, 80.7506)">
<rect x="-0.0757" y="-2.0000" width="0.1514" height="3.3287" ry="0.0500" fill="currentColor"/>
</g>
<g transform="translate(78.2638, 77.2565)">
<text font-family="Hiragino Sans GB" font-size="1.9604" text-anchor="start" fill="currentColor">
<tspan>B</tspan>
</text>
</g>
<g transform="translate(79.6722, 77.2565)">
<text font-family="Hiragino Sans GB" font-size="1.9604" text-anchor="start" fill="currentColor">
<tspan>m</tspan>
</text>
</g>
<g transform="translate(78.2638, 82.7506)">
<path transform="scale(0.0040, -0.0040)" d="M212 138c68 0 113 -38 113 -95c0 -90 -109 -181 -212 -181c-68 0 -113 38 -113 95c0 90 109 181 212 181z" fill="currentColor"/>
</g>
<g transform="translate(77.6765, 86.5344)">
<text font-family="Songti SC" font-size="2.4697" text-anchor="start" fill="currentColor">
<tspan>可</tspan>
</text>
</g>
<g transform="translate(79.4889, 80.7506)">
<rect x="-0.0757" y="-1.5000" width="0.1514" height="3.3287" ry="0.0500" fill="currentColor"/>
</g>
<g transform="translate(82.4268, 83.2506)">
<path transform="scale(0.0040, -0.0040)" d="M212 138c68 0 113 -38 113 -95c0 -90 -109 -181 -212 -181c-68 0 -113 38 -113 95c0 90 109 181 212 181z" fill="currentColor"/>
</g>
<g transform="translate(80.6019, 86.5344)">
<text font-family="Songti SC" font-size="2.4697" text-anchor="start" fill="currentColor">
<tspan>爱，</tspan>
</text>
</g>
<g transform="translate(83.6520, 80.7506)">
<rect x="-0.0757" y="-1.0000" width="0.1514" height="3.3287" ry="0.0500" fill="currentColor"/>
</g>
<g transform="translate(13.3337, 78.7506)">
<path transform="scale(0.0040, -0.0040)" d="M0 116c0 10 6 19 16 23l40 15v154c0 12 9 21 21 21s21 -9 21 -21v-138l79 30v154c0 12 9 21 21 21s21 -9 21 -21v-138l22 8c3 1 6 2 9 2c13 0 25 -11 25 -25v-54c0 -10 -6 -20 -16 -24l-40 -15v-155l22 9c3 1 6 1 9 1c13 0 25 -11 25 -25v-54c0 -10 -6 -19 -16 -23
l-40 -15v-154c0 -12 -9 -21 -21 -21s-21 9 -21 21v138l-79 -30v-154c0 -12 -9 -21 -21 -21s-21 9 -21 21v138l-22 -8c-3 -1 -6 -2 -9 -2c-13 0 -25 11 -25 25v54c0 10 6 20 16 24l40 15v155l-22 -9c-3 -1 -6 -1 -9 -1c-13 0 -25 11 -25 25v54zM177 92l-79 -30v-154l79 30
v154z" fill="currentColor"/>
</g>
<g transform="translate(14.4338, 80.2506)">
<path transform="scale(0.0040, -0.0040)" d="M0 116c0 10 6 19 16 23l40 15v154c0 12 9 21 21 21s21 -9 21 -21v-138l79 30v154c0 12 9 21 21 21s21 -9 21 -21v-138l22 8c3 1 6 2 9 2c13 0 25 -11 25 -25v-54c0 -10 -6 -20 -16 -24l-40 -15v-155l22 9c3 1 6 1 9 1c13 0 25 -11 25 -25v-54c0 -10 -6 -19 -16 -23
l-40 -15v-154c0 -12 -9 -21 -21 -21s-21 9 -21 21v138l-79 -30v-154c0 -12 -9 -21 -21 -21s-21 9 -21 21v138l-22 -8c-3 -1 -6 -2 -9 -2c-13 0 -25 11 -25 25v54c0 10 6 20 16 24l40 15v155l-22 -9c-3 -1 -6 -1 -9 -1c-13 0 -25 11 -25 25v54zM177 92l-79 -30v-154l79 30
v154z" fill="currentColor"/>
</g>
<g transform="translate(86.2801, 80.7506)">
<path transform="scale(0.0040, -0.0040)" d="M-9 78c0 59 124 84 124 182c0 25 -9 50 -26 70l-31 37c-3 4 -4 8 -4 12c0 10 9 18 19 18c5 0 9 -1 13 -6l149 -178c7 -9 11 -17 11 -26c0 -59 -124 -84 -124 -182c0 -25 9 -51 26 -71l79 -94c3 -4 4 -8 4 -12c0 -10 -9 -18 -19 -18c-11 0 -38 40 -102 40
c-23 0 -55 -4 -55 -65c0 -33 11 -73 27 -92c8 -9 -6 -20 -14 -11c-44 53 -92 145 -92 199c0 41 26 43 46 43c30 0 69 -9 106 -23l-126 151c-7 9 -11 17 -11 26z" fill="currentColor"/>
</g>
<g transform="translate(89.7826, 83.2506)">
<path transform="scale(0.0040, -0.0040)" d="M212 138c68 0 113 -38 113 -95c0 -90 -109 -181 -212 -181c-68 0 -113 38 -113 95c0 90 109 181 212 181z" fill="currentColor"/>
</g>
<g transform="translate(89.1953, 86.5344)">
<text font-family="Songti SC" font-size="2.4697" text-anchor="start" fill="currentColor">
<tspan>我</tspan>
</text>
</g>
<g transform="translate(91.0078, 80.7506)">
<rect x="-0.0757" y="-1.0000" width="0.1514" height="3.3287" ry="0.0500" fill="currentColor"/>
</g>
<g transform="translate(95.2981, 77.2565)">
<text font-family="Hiragino Sans GB" font-size="1.9604" text-anchor="start" fill="currentColor">
<tspan>G</tspan>
</text>
</g>
<g transform="translate(95.2981, 80.7506)">
<path transform="scale(0.0040, -0.0040)" d="M310 63c0 22 -17 40 -40 40c-38 0 -197 -107 -224 -139c-7 -8 -10 -17 -10 -27c0 -22 17 -40 40 -40c38 0 197 107 224 139c7 8 10 17 10 27zM256 138c55 0 90 -22 90 -77c0 -25 -15 -112 -73 -151c-34 -23 -92 -48 -183 -48c-55 0 -90 22 -90 77c0 25 15 112 73 151
c34 23 92 48 183 48z" fill="currentColor"/>
</g>
<g transform="translate(94.7523, 86.5344)">
<text font-family="Songti SC" font-size="2.4697" text-anchor="start" fill="currentColor">
<tspan>心</tspan>
</text>
</g>
<g transform="translate(97.1234, 80.2506)">
<path transform="scale(0.0040, -0.0040)" d="M0 0c0 30 25 55 55 55s55 -25 55 -55s-25 -55 -55 -55s-55 25 -55 55z" fill="currentColor"/>
</g>
<g transform="translate(95.3738, 80.7506)">
<rect x="-0.0757" y="0.2456" width="0.1514" height="3.0878" ry="0.0500" fill="currentColor"/>
</g>
<g transform="translate(102.0934, 80.7506)">
<path transform="scale(0.0040, -0.0040)" d="M212 138c68 0 113 -38 113 -95c0 -90 -109 -181 -212 -181c-68 0 -113 38 -113 95c0 90 109 181 212 181z" fill="currentColor"/>
</g>
<g transform="translate(101.5061, 86.5344)">
<text font-family="Songti SC" font-size="2.4697" text-anchor="start" fill="currentColor">
<tspan>中</tspan>
</text>
</g>
<g transform="translate(102.1691, 80.7506)">
<rect x="-0.0757" y="0.1713" width="0.1514" height="3.1620" ry="0.0500" fill="currentColor"/>
</g>
<g transform="translate(107.1637, 77.2565)">
<text font-family="Hiragino Sans GB" font-size="1.9604" text-anchor="start" fill="currentColor">
<tspan>D</tspan>
</text>
</g>
<g transform="translate(107.1637, 81.2506)">
<path transform="scale(0.0040, -0.0040)" d="M310 63c0 22 -17 40 -40 40c-38 0 -197 -107 -224 -139c-7 -8 -10 -17 -10 -27c0 -22 17 -40 40 -40c38 0 197 107 224 139c7 8 10 17 10 27zM256 138c55 0 90 -22 90 -77c0 -25 -15 -112 -73 -151c-34 -23 -92 -48 -183 -48c-55 0 -90 22 -90 77c0 25 15 112 73 151
c34 23 92 48 183 48z" fill="currentColor"/>
</g>
<g transform="translate(106.6179, 86.5344)">
<text font-family="Songti SC" font-size="2.4697" text-anchor="start" fill="currentColor">
<tspan>所</tspan>
</text>
</g>
<g transform="translate(108.4719, 80.7506)">
<rect x="-0.0757" y="-3.0000" width="0.1514" height="3.2544" ry="0.0500" fill="currentColor"/>
</g>
<g transform="translate(112.6539, 82.2506)">
<path transform="scale(0.0040, -0.0040)" d="M212 138c68 0 113 -38 113 -95c0 -90 -109 -181 -212 -181c-68 0 -113 38 -113 95c0 90 109 181 212 181z" fill="currentColor"/>
</g>
<g transform="translate(112.0666, 86.5344)">
<text font-family="Songti SC" font-size="2.4697" text-anchor="start" fill="currentColor">
<tspan>依</tspan>
</text>
</g>
<g transform="translate(113.8790, 80.7506)">
<rect x="-0.0757" y="-2.0000" width="0.1514" height="3.3287" ry="0.0500" fill="currentColor"/>
</g>
<g transform="translate(115.8081, 81.2506)">
<path transform="scale(0.0040, -0.0040)" d="M212 138c68 0 113 -38 113 -95c0 -90 -109 -181 -212 -181c-68 0 -113 38 -113 95c0 90 109 181 212 181z" fill="currentColor"/>
</g>
<g transform="translate(115.2208, 86.5344)">
<text font-family="Songti SC" font-size="2.4697" text-anchor="start" fill="currentColor">
<tspan>依</tspan>
</text>
</g>
<g transform="translate(117.0332, 80.7506)">
<rect x="-0.0757" y="-3.0000" width="0.1514" height="3.3287" ry="0.0500" fill="currentColor"/>
</g>
<g transform="translate(118.7335, 82.2506)">
<path transform="scale(0.0040, -0.0040)" d="M212 138c68 0 113 -38 113 -95c0 -90 -109 -181 -212 -181c-68 0 -113 38 -113 95c0 90 109 181 212 181z" fill="currentColor"/>
</g>
<g transform="translate(118.1462, 86.5344)">
<text font-family="Songti SC" font-size="2.4697" text-anchor="start" fill="currentColor">
<tspan>恋</tspan>
</text>
</g>
<g transform="translate(119.9586, 80.7506)">
<rect x="-0.0757" y="-2.0000" width="0.1514" height="3.3287" ry="0.0500" fill="currentColor"/>
</g>
<g transform="translate(123.2231, 77.2565)">
<text font-family="Hiragino Sans GB" font-size="1.9604" text-anchor="start" fill="currentColor">
<tspan>A</tspan>
</text>
</g>
<g transform="translate(123.2231, 82.7506)">
<path transform="scale(0.0040, -0.0040)" d="M210 110c-18 0 -67 -7 -67 -88c0 -98 87 -132 129 -132c18 0 67 7 67 88c0 98 -87 132 -129 132zM241 138c142 0 241 -66 241 -138s-99 -138 -241 -138s-241 66 -241 138s99 138 241 138z" fill="currentColor"/>
</g>
<g transform="translate(122.9488, 86.5344)">
<text font-family="Songti SC" font-size="2.4697" text-anchor="start" fill="currentColor">
<tspan>恋</tspan>
</text>
</g>
<g transform="translate(128.7794, 77.2565)">
<text font-family="Hiragino Sans GB" font-size="1.9604" text-anchor="start" fill="currentColor">
<tspan>A</tspan>
</text>
</g>
<g transform="translate(130.2305, 76.3656)">
<text font-family="Hiragino Sans GB" font-size="1.3856" text-anchor="start" fill="currentColor">
<tspan>7</tspan>
</text>
</g>
<g transform="translate(135.6833, 77.2565)">
<text font-family="Hiragino Sans GB" font-size="1.9604" text-anchor="start" fill="currentColor">
<tspan>D</tspan>
</text>
</g>
<g transform="translate(135.6833, 83.2506)">
<path transform="scale(0.0040, -0.0040)" d="M310 63c0 22 -17 40 -40 40c-38 0 -197 -107 -224 -139c-7 -8 -10 -17 -10 -27c0 -22 17 -40 40 -40c38 0 197 107 224 139c7 8 10 17 10 27zM256 138c55 0 90 -22 90 -77c0 -25 -15 -112 -73 -151c-34 -23 -92 -48 -183 -48c-55 0 -90 22 -90 77c0 25 15 112 73 151
c34 23 92 48 183 48z" fill="currentColor"/>
</g>
<g transform="translate(133.8998, 86.5344)">
<text font-family="Songti SC" font-size="2.4697" text-anchor="start" fill="currentColor">
<tspan>的。</tspan>
</text>
</g>
<g transform="translate(137.5086, 83.2506)">
<path transform="scale(0.0040, -0.0040)" d="M0 0c0 30 25 55 55 55s55 -25 55 -55s-25 -55 -55 -55s-55 25 -55 55z" fill="currentColor"/>
</g>
<g transform="translate(136.9915, 80.7506)">
<rect x="-0.0757" y="-1.0000" width="0.1514" height="3.2544" ry="0.0500" fill="currentColor"/>
</g>
<g transform="translate(142.4786, 80.7506)">
<path transform="scale(0.0040, -0.0040)" d="M-9 78c0 59 124 84 124 182c0 25 -9 50 -26 70l-31 37c-3 4 -4 8 -4 12c0 10 9 18 19 18c5 0 9 -1 13 -6l149 -178c7 -9 11 -17 11 -26c0 -59 -124 -84 -124 -182c0 -25 9 -51 26 -71l79 -94c3 -4 4 -8 4 -12c0 -10 -9 -18 -19 -18c-11 0 -38 40 -102 40
c-23 0 -55 -4 -55 -65c0 -33 11 -73 27 -92c8 -9 -6 -20 -14 -11c-44 53 -92 145 -92 199c0 41 26 43 46 43c30 0 69 -9 106 -23l-126 151c-7 9 -11 17 -11 26z" fill="currentColor"/>
</g>
<g transform="translate(9.0337, 95.7506)">
<text font-family="Songti SC" font-weight="bold" font-size="2.2001" text-anchor="start" fill="currentColor">
<tspan>2.</tspan>
</text>
</g>
<g transform="translate(11.1275, 95.7506)">
<text font-family="Songti SC" font-size="2.2001" text-anchor="start" fill="currentColor">
<tspan>你爱，主耶稣， </tspan>
</text>
</g>
<g transform="translate(11.1275, 98.7506)">
<text font-family="Songti SC" font-size="2.2001" text-anchor="start" fill="currentColor">
<tspan>比酒更甜美， </tspan>
</text>
</g>
<g transform="translate(11.1275, 101.7506)">
<text font-family="Songti SC" font-size="2.2001" text-anchor="start" fill="currentColor">
<tspan>你膏油所发香气， </tspan>
</text>
</g>
<g transform="translate(11.1275, 104.7506)">
<text font-family="Songti SC" font-size="2.2001" text-anchor="start" fill="currentColor">
<tspan>使我心欢喜。 </tspan>
</text>
</g>
<g transform="translate(11.1275, 107.7506)">
<text font-family="Songti SC" font-size="2.2001" text-anchor="start" fill="currentColor">
<tspan>你膏油所发香气， </tspan>
</text>
</g>
<g transform="translate(11.1275, 110.7506)">
<text font-family="Songti SC" font-size="2.2001" text-anchor="start" fill="currentColor">
<tspan>使我心欢喜。 </tspan>
</text>
</g>
<g transform="translate(11.1275, 113.7506)">
<text font-family="Songti SC" font-size="2.2001" text-anchor="start" fill="currentColor">
<tspan>你是园中泉， </tspan>
</text>
</g>
<g transform="translate(11.1275, 116.7506)">
<text font-family="Songti SC" font-size="2.2001" text-anchor="start" fill="currentColor">
<tspan>你又是活水的井， </tspan>
</text>
</g>
<g transform="translate(11.1275, 119.7506)">
<text font-family="Songti SC" font-size="2.2001" text-anchor="start" fill="currentColor">
<tspan>流自利巴嫩山的溪涧。 </tspan>
</text>
</g>
<g transform="translate(11.1275, 122.7506)">
<text font-family="Songti SC" font-size="2.2001" text-anchor="start" fill="currentColor">
<tspan>你是园中泉， </tspan>
</text>
</g>
<g transform="translate(11.1275, 125.7506)">
<text font-family="Songti SC" font-size="2.2001" text-anchor="start" fill="currentColor">
<tspan>你又是活水的井， </tspan>
</text>
</g>
<g transform="translate(11.1275, 128.7506)">
<text font-family="Songti SC" font-size="2.2001" text-anchor="start" fill="currentColor">
<tspan>流自利巴嫩山的溪涧。 </tspan>
</text>
</g>
<g transform="translate(11.1275, 130.7506)">
<text font-family="Songti SC" font-size="1.5560" text-anchor="start" fill="currentColor">
<tspan> </tspan>
</text>
</g>
<g transform="translate(9.0337, 133.7506)">
<text font-family="Songti SC" font-weight="bold" font-size="2.2001" text-anchor="start" fill="currentColor">
<tspan>3.</tspan>
</text>
</g>
<g transform="translate(11.1275, 133.7506)">
<text font-family="Songti SC" font-size="2.2001" text-anchor="start" fill="currentColor">
<tspan>来罢，我良人， </tspan>
</text>
</g>
<g transform="translate(11.1275, 136.7506)">
<text font-family="Songti SC" font-size="2.2001" text-anchor="start" fill="currentColor">
<tspan>同到园子里， </tspan>
</text>
</g>
<g transform="translate(11.1275, 139.7506)">
<text font-family="Songti SC" font-size="2.2001" text-anchor="start" fill="currentColor">
<tspan>使其中各种香气， </tspan>
</text>
</g>
<g transform="translate(11.1275, 142.7506)">
<text font-family="Songti SC" font-size="2.2001" text-anchor="start" fill="currentColor">
<tspan>发出并漫溢。 </tspan>
</text>
</g>
<g transform="translate(11.1275, 145.7506)">
<text font-family="Songti SC" font-size="2.2001" text-anchor="start" fill="currentColor">
<tspan>使其中各种香气， </tspan>
</text>
</g>
<g transform="translate(11.1275, 148.7506)">
<text font-family="Songti SC" font-size="2.2001" text-anchor="start" fill="currentColor">
<tspan>发出并漫溢。 </tspan>
</text>
</g>
<g transform="translate(11.1275, 151.7506)">
<text font-family="Songti SC" font-size="2.2001" text-anchor="start" fill="currentColor">
<tspan>‘我新妇妹子， </tspan>
</text>
</g>
<g transform="translate(11.1275, 154.7506)">
<text font-family="Songti SC" font-size="2.2001" text-anchor="start" fill="currentColor">
<tspan>我到了我的园子， </tspan>
</text>
</g>
<g transform="translate(11.1275, 157.7506)">
<text font-family="Songti SC" font-size="2.2001" text-anchor="start" fill="currentColor">
<tspan>尽情享受酒奶和蜂蜜。 </tspan>
</text>
</g>
<g transform="translate(11.1275, 160.7506)">
<text font-family="Songti SC" font-size="2.2001" text-anchor="start" fill="currentColor">
<tspan>我新妇妹子， </tspan>
</text>
</g>
<g transform="translate(11.1275, 163.7506)">
<text font-family="Songti SC" font-size="2.2001" text-anchor="start" fill="currentColor">
<tspan>我到了我的园子， </tspan>
</text>
</g>
<g transform="translate(11.1275, 166.7506)">
<text font-family="Songti SC" font-size="2.2001" text-anchor="start" fill="currentColor">
<tspan>尽情享受酒奶和蜂蜜。’ </tspan>
</text>
</g>
<g transform="translate(11.1275, 168.7506)">
<text font-family="Songti SC" font-size="1.5560" text-anchor="start" fill="currentColor">
<tspan> </tspan>
</text>
</g>
<g transform="translate(122.4084, 95.7506)">
<text font-family="Songti SC" font-weight="bold" font-size="2.2001" text-anchor="start" fill="currentColor">
<tspan>4.</tspan>
</text>
</g>
<g transform="translate(124.5021, 95.7506)">
<text font-family="Songti SC" font-size="2.2001" text-anchor="start" fill="currentColor">
<tspan>把我，主耶稣， </tspan>
</text>
</g>
<g transform="translate(124.5021, 98.7506)">
<text font-family="Songti SC" font-size="2.2001" text-anchor="start" fill="currentColor">
<tspan>铭刻你心上， </tspan>
</text>
</g>
<g transform="translate(124.5021, 101.7506)">
<text font-family="Songti SC" font-size="2.2001" text-anchor="start" fill="currentColor">
<tspan>嫉恨残忍如阴间， </tspan>
</text>
</g>
<g transform="translate(124.5021, 104.7506)">
<text font-family="Songti SC" font-size="2.2001" text-anchor="start" fill="currentColor">
<tspan>爱如死坚强。 </tspan>
</text>
</g>
<g transform="translate(124.5021, 107.7506)">
<text font-family="Songti SC" font-size="2.2001" text-anchor="start" fill="currentColor">
<tspan>嫉恨残忍如阴间， </tspan>
</text>
</g>
<g transform="translate(124.5021, 110.7506)">
<text font-family="Songti SC" font-size="2.2001" text-anchor="start" fill="currentColor">
<tspan>爱如死坚强。 </tspan>
</text>
</g>
<g transform="translate(124.5021, 113.7506)">
<text font-family="Songti SC" font-size="2.2001" text-anchor="start" fill="currentColor">
<tspan>众水不能灭， </tspan>
</text>
</g>
<g transform="translate(124.5021, 116.7506)">
<text font-family="Songti SC" font-size="2.2001" text-anchor="start" fill="currentColor">
<tspan>大水也不能淹没， </tspan>
</text>
</g>
<g transform="translate(124.5021, 119.7506)">
<text font-family="Songti SC" font-size="2.2001" text-anchor="start" fill="currentColor">
<tspan>你的爱情无何能替换。 </tspan>
</text>
</g>
<g transform="translate(124.5021, 122.7506)">
<text font-family="Songti SC" font-size="2.2001" text-anchor="start" fill="currentColor">
<tspan>众水不能灭， </tspan>
</text>
</g>
<g transform="translate(124.5021, 125.7506)">
<text font-family="Songti SC" font-size="2.2001" text-anchor="start" fill="currentColor">
<tspan>大水也不能淹没， </tspan>
</text>
</g>
<g transform="translate(124.5021, 128.7506)">
<text font-family="Songti SC" font-size="2.2001" text-anchor="start" fill="currentColor">
<tspan>你的爱情无何能替换。 </tspan>
</text>
</g>
<g transform="translate(124.5021, 130.7506)">
<text font-family="Songti SC" font-size="1.5560" text-anchor="start" fill="currentColor">
<tspan> </tspan>
</text>
</g>
<g transform="translate(69.8408, 191.9677)">
<text font-family="Trebuchet MS" font-size="2.2001" text-anchor="start" fill="currentColor">
<tspan>www.hymnal.net</tspan>
</text>
</g>
</svg>
