<svg xmlns="http://www.w3.org/2000/svg" xmlns:xlink="http://www.w3.org/1999/xlink" version="1.2" width="215.90mm" height="279.40mm" viewBox="0.0000 -0.0000 153.5737 198.7425">
<style type="text/css">
<![CDATA[
tspan { white-space: pre; }
]]>
</style>
<g transform="translate(68.7952, 9.7318)">
<text font-family="Songti SC" font-weight="bold" font-size="3.1113" text-anchor="start" fill="currentColor">
<tspan>我爱召会生活</tspan>
</text>
</g>
<g transform="translate(72.5937, 13.2318)">
<text font-family="Songti SC" font-weight="bold" font-size="2.2001" text-anchor="start" fill="currentColor">
<tspan>教会的生活</tspan>
</text>
</g>
<g transform="translate(133.0807, 17.7336)">
<text font-family="Songti SC" font-size="5.8741" text-anchor="start" fill="currentColor">
<tspan>Cs714</tspan>
</text>
</g>
<g transform="translate(9.0337, 19.6756)">
<text font-family="Songti SC" font-weight="bold" font-style="italic" font-size="2.2001" text-anchor="start" fill="currentColor">
<tspan>(吉他: Capo 3)</tspan>
</text>
</g>
<g transform="translate(53.0031, 28.6898)">
<rect x="0.0000" y="-2.0000" width="0.2212" height="4.0000" ry="0.0000" fill="currentColor"/>
</g>
<g transform="translate(9.0337, 31.6898)">
<rect x="91.1599" y="-0.1082" width="1.9513" height="0.2164" ry="0.1082" fill="currentColor"/>
</g>
<g transform="translate(9.0337, 31.6898)">
<rect x="62.2336" y="-0.1082" width="2.0758" height="0.2164" ry="0.1082" fill="currentColor"/>
</g>
<g transform="translate(9.0337, 31.6898)">
<rect x="57.7925" y="-0.1082" width="1.9513" height="0.2164" ry="0.1082" fill="currentColor"/>
</g>
<g transform="translate(9.0337, 32.6898)">
<rect x="57.7925" y="-0.1082" width="1.9513" height="0.2164" ry="0.1082" fill="currentColor"/>
</g>
<g transform="translate(9.0337, 31.6898)">
<rect x="53.8306" y="-0.1082" width="1.9513" height="0.2164" ry="0.1082" fill="currentColor"/>
</g>
<g transform="translate(9.0337, 31.6898)">
<rect x="45.4070" y="-0.1082" width="1.9513" height="0.2164" ry="0.1082" fill="currentColor"/>
</g>
<g transform="translate(9.0337, 30.6898)">
<line stroke-linejoin="round" stroke-linecap="round" stroke-width="0.1164" stroke="currentColor" x1="0.0582" y1="0" x2="138.1582" y2="0"/>
</g>
<g transform="translate(9.0337, 29.6898)">
<line stroke-linejoin="round" stroke-linecap="round" stroke-width="0.1164" stroke="currentColor" x1="0.0582" y1="0" x2="138.1582" y2="0"/>
</g>
<g transform="translate(9.0337, 28.6898)">
<line stroke-linejoin="round" stroke-linecap="round" stroke-width="0.1164" stroke="currentColor" x1="0.0582" y1="0" x2="138.1582" y2="0"/>
</g>
<g transform="translate(9.0337, 27.6898)">
<line stroke-linejoin="round" stroke-linecap="round" stroke-width="0.1164" stroke="currentColor" x1="0.0582" y1="0" x2="138.1582" y2="0"/>
</g>
<g transform="translate(9.0337, 26.6898)">
<line stroke-linejoin="round" stroke-linecap="round" stroke-width="0.1164" stroke="currentColor" x1="0.0582" y1="0" x2="138.1582" y2="0"/>
</g>
<g transform="translate(147.0289, 28.6898)">
<rect x="0.0000" y="-2.0000" width="0.2212" height="4.0000" ry="0.0000" fill="currentColor"/>
</g>
<g transform="translate(117.8540, 28.6898)">
<rect x="0.0000" y="-2.0000" width="0.2212" height="4.0000" ry="0.0000" fill="currentColor"/>
</g>
<g transform="translate(81.9087, 28.6898)">
<rect x="0.0000" y="-2.0000" width="0.2212" height="4.0000" ry="0.0000" fill="currentColor"/>
</g>
<g transform="translate(19.1072, 25.7016)">
<text font-family="Hiragino Sans GB" font-size="1.9604" text-anchor="start" fill="currentColor">
<tspan>D</tspan>
</text>
</g>
<g transform="translate(19.1072, 29.1898)">
<path transform="scale(0.0040, -0.0040)" d="M212 138c68 0 113 -38 113 -95c0 -90 -109 -181 -212 -181c-68 0 -113 38 -113 95c0 90 109 181 212 181z" fill="currentColor"/>
</g>
<g transform="translate(9.8338, 29.6898)">
<path transform="scale(0.0040, -0.0040)" d="M647 2c0 -114 -75 -214 -180 -248c3 -33 4 -66 4 -99c0 -21 0 -41 -1 -62c-7 -122 -92 -229 -211 -229c-108 0 -196 88 -196 197c0 58 54 103 113 103c54 0 95 -47 95 -103c0 -52 -43 -95 -95 -95c-9 0 -18 1 -27 4c25 -37 66 -61 113 -61c93 0 156 91 162 191
c1 19 2 38 2 57c0 29 -1 58 -3 87c-5 -1 -44 -8 -88 -8c-194 0 -333 181 -333 376c0 177 129 308 244 443c-34 103 -55 171 -55 347c0 114 54 221 147 288c8 6 18 5 25 -1c68 -79 135 -242 135 -356c0 -142 -84 -255 -176 -364c21 -68 40 -136 57 -205c1 0 5 1 10 1
c157 0 258 -129 258 -263zM463 -201c64 24 110 88 110 161c0 88 -64 175 -167 188c28 -133 49 -269 57 -349zM77 25c0 -144 141 -243 261 -243c1 0 46 -1 81 5c-7 66 -27 208 -60 362c-79 -8 -124 -60 -124 -118c0 -43 25 -88 80 -120c5 -5 7 -11 7 -17
c0 -12 -10 -23 -23 -23c-16 0 -128 62 -128 188c0 89 60 177 163 200c-14 57 -30 113 -47 169c-105 -122 -210 -243 -210 -403zM242 784c0 -39 10 -95 39 -188c78 97 142 199 142 324c0 33 0 60 -20 118c-99 -46 -161 -145 -161 -254z" fill="currentColor"/>
</g>
<g transform="translate(13.4743, 28.6898)">
<path transform="scale(0.0040, -0.0040)" d="M31 37l-2 -62v-11c0 -22 2 -43 5 -64c43 38 89 80 89 137c0 32 -14 65 -42 65c-31 0 -49 -32 -50 -65zM-30 450c9 5 20 8 30 8s21 -3 30 -8l-8 -340c25 24 59 38 94 38c50 0 84 -50 84 -104c0 -78 -83 -117 -141 -169c-17 -15 -25 -44 -49 -44c-15 0 -26 13 -26 29z" fill="currentColor"/>
</g>
<g transform="translate(15.4243, 28.6898)">
<path transform="scale(0.0040, -0.0040)" d="M250 265c114 0 172 -112 172 -166c0 -38 -30 -69 -66 -69c-30 0 -72 23 -72 72c0 37 26 75 70 75c3 0 6 -1 9 -1c-26 36 -67 59 -113 59c-107 0 -113 -74 -113 -189c0 -15 1 -30 1 -46s-1 -31 -1 -46c0 -115 6 -189 113 -189c78 0 133 70 151 149c2 8 8 11 14 11
c7 0 15 -5 15 -14c0 -21 -49 -176 -180 -176c-145 0 -250 88 -250 265c0 63 18 265 250 265z" fill="currentColor"/>
</g>
<g transform="translate(18.5199, 35.6069)">
<text font-family="Songti SC" font-size="2.4697" text-anchor="start" fill="currentColor">
<tspan>有</tspan>
</text>
</g>
<g transform="translate(16.0261, 35.6069)">
<text font-family="Songti SC" font-weight="bold" font-size="2.2001" text-anchor="start" fill="currentColor">
<tspan>1.</tspan>
</text>
</g>
<g transform="translate(20.3323, 28.6898)">
<rect x="-0.0757" y="-2.1818" width="0.1514" height="2.5105" ry="0.0500" fill="currentColor"/>
</g>
<g transform="translate(23.3190, 29.1898)">
<path transform="scale(0.0040, -0.0040)" d="M212 138c68 0 113 -38 113 -95c0 -90 -109 -181 -212 -181c-68 0 -113 38 -113 95c0 90 109 181 212 181z" fill="currentColor"/>
</g>
<g transform="translate(22.7317, 35.6069)">
<text font-family="Songti SC" font-size="2.4697" text-anchor="start" fill="currentColor">
<tspan>些</tspan>
</text>
</g>
<g transform="translate(24.5442, 28.6898)">
<rect x="-0.0757" y="-2.1818" width="0.1514" height="2.5105" ry="0.0500" fill="currentColor"/>
</g>
<g transform="translate(27.5308, 29.1898)">
<path transform="scale(0.0040, -0.0040)" d="M212 138c68 0 113 -38 113 -95c0 -90 -109 -181 -212 -181c-68 0 -113 38 -113 95c0 90 109 181 212 181z" fill="currentColor"/>
</g>
<g transform="translate(26.9436, 35.6069)">
<text font-family="Songti SC" font-size="2.4697" text-anchor="start" fill="currentColor">
<tspan>宗</tspan>
</text>
</g>
<g transform="translate(28.7560, 28.6898)">
<rect x="-0.0757" y="-2.1818" width="0.1514" height="2.5105" ry="0.0500" fill="currentColor"/>
</g>
<g transform="translate(120.7663, 26.6898)">
<polygon stroke-linejoin="round" stroke-linecap="round" stroke-width="0.1000" fill="currentColor" stroke="currentColor" points="12.7369 -0.3718 12.7369 0.0082 0.0500 0.1900 0.0500 -0.1900"/>
</g>
<g transform="translate(31.7427, 29.6898)">
<path transform="scale(0.0040, -0.0040)" d="M212 138c68 0 113 -38 113 -95c0 -90 -109 -181 -212 -181c-68 0 -113 38 -113 95c0 90 109 181 212 181z" fill="currentColor"/>
</g>
<g transform="translate(31.1554, 35.6069)">
<text font-family="Songti SC" font-size="2.4697" text-anchor="start" fill="currentColor">
<tspan>教</tspan>
</text>
</g>
<g transform="translate(32.9678, 28.6898)">
<rect x="-0.0757" y="-2.1818" width="0.1514" height="3.0105" ry="0.0500" fill="currentColor"/>
</g>
<g transform="translate(35.9545, 25.7016)">
<text font-family="Hiragino Sans GB" font-size="1.9604" text-anchor="start" fill="currentColor">
<tspan>G</tspan>
</text>
</g>
<g transform="translate(35.9545, 30.1898)">
<path transform="scale(0.0040, -0.0040)" d="M212 138c68 0 113 -38 113 -95c0 -90 -109 -181 -212 -181c-68 0 -113 38 -113 95c0 90 109 181 212 181z" fill="currentColor"/>
</g>
<g transform="translate(35.3672, 35.6069)">
<text font-family="Songti SC" font-size="2.4697" text-anchor="start" fill="currentColor">
<tspan>人</tspan>
</text>
</g>
<g transform="translate(37.1797, 28.6898)">
<rect x="-0.0757" y="-2.1796" width="0.1514" height="3.5083" ry="0.0500" fill="currentColor"/>
</g>
<g transform="translate(40.1663, 29.6898)">
<path transform="scale(0.0040, -0.0040)" d="M212 138c68 0 113 -38 113 -95c0 -90 -109 -181 -212 -181c-68 0 -113 38 -113 95c0 90 109 181 212 181z" fill="currentColor"/>
</g>
<g transform="translate(39.5791, 35.6069)">
<text font-family="Songti SC" font-size="2.4697" text-anchor="start" fill="currentColor">
<tspan>士</tspan>
</text>
</g>
<g transform="translate(41.3915, 28.6898)">
<rect x="-0.0757" y="-2.0594" width="0.1514" height="2.8881" ry="0.0500" fill="currentColor"/>
</g>
<g transform="translate(44.3782, 30.1898)">
<path transform="scale(0.0040, -0.0040)" d="M212 138c68 0 113 -38 113 -95c0 -90 -109 -181 -212 -181c-68 0 -113 38 -113 95c0 90 109 181 212 181z" fill="currentColor"/>
</g>
<g transform="translate(43.7909, 35.6069)">
<text font-family="Songti SC" font-size="2.4697" text-anchor="start" fill="currentColor">
<tspan>会</tspan>
</text>
</g>
<g transform="translate(45.6033, 28.6898)">
<rect x="-0.0757" y="-1.9392" width="0.1514" height="3.2679" ry="0.0500" fill="currentColor"/>
</g>
<g transform="translate(48.5413, 31.1898)">
<path transform="scale(0.0040, -0.0040)" d="M212 138c68 0 113 -38 113 -95c0 -90 -109 -181 -212 -181c-68 0 -113 38 -113 95c0 90 109 181 212 181z" fill="currentColor"/>
</g>
<g transform="translate(46.7163, 35.6069)">
<text font-family="Songti SC" font-size="2.4697" text-anchor="start" fill="currentColor">
<tspan>说：</tspan>
</text>
</g>
<g transform="translate(49.7664, 28.6898)">
<rect x="-0.0757" y="-1.8204" width="0.1514" height="4.1490" ry="0.0500" fill="currentColor"/>
</g>
<g transform="translate(101.6683, 27.5080)">
<polygon stroke-linejoin="round" stroke-linecap="round" stroke-width="0.1000" fill="currentColor" stroke="currentColor" points="12.9869 -0.1900 12.9869 0.1900 0.0500 0.1900 0.0500 -0.1900"/>
</g>
<g transform="translate(54.7659, 25.7016)">
<text font-family="Hiragino Sans GB" font-size="1.9604" text-anchor="start" fill="currentColor">
<tspan>D</tspan>
</text>
</g>
<g transform="translate(54.7659, 31.6898)">
<path transform="scale(0.0040, -0.0040)" d="M212 138c68 0 113 -38 113 -95c0 -90 -109 -181 -212 -181c-68 0 -113 38 -113 95c0 90 109 181 212 181z" fill="currentColor"/>
</g>
<g transform="translate(53.8799, 35.6069)">
<text font-family="Songti SC" font-size="2.4697" text-anchor="start" fill="currentColor">
<tspan>‘耶</tspan>
</text>
</g>
<g transform="translate(55.9911, 28.6898)">
<rect x="-0.0757" y="-0.1807" width="0.1514" height="3.0094" ry="0.0500" fill="currentColor"/>
</g>
<g transform="translate(58.9778, 31.1898)">
<path transform="scale(0.0040, -0.0040)" d="M212 138c68 0 113 -38 113 -95c0 -90 -109 -181 -212 -181c-68 0 -113 38 -113 95c0 90 109 181 212 181z" fill="currentColor"/>
</g>
<g transform="translate(58.3905, 35.6069)">
<text font-family="Songti SC" font-size="2.4697" text-anchor="start" fill="currentColor">
<tspan>稣</tspan>
</text>
</g>
<g transform="translate(60.2029, 28.6898)">
<rect x="-0.0757" y="-0.1196" width="0.1514" height="2.4483" ry="0.0500" fill="currentColor"/>
</g>
<g transform="translate(63.1896, 31.6898)">
<path transform="scale(0.0040, -0.0040)" d="M212 138c68 0 113 -38 113 -95c0 -90 -109 -181 -212 -181c-68 0 -113 38 -113 95c0 90 109 181 212 181z" fill="currentColor"/>
</g>
<g transform="translate(62.6023, 35.6069)">
<text font-family="Songti SC" font-size="2.4697" text-anchor="start" fill="currentColor">
<tspan>不</tspan>
</text>
</g>
<g transform="translate(64.4148, 28.6898)">
<rect x="-0.0757" y="-0.0585" width="0.1514" height="2.8872" ry="0.0500" fill="currentColor"/>
</g>
<g transform="translate(67.1514, 32.6898)">
<path transform="scale(0.0040, -0.0040)" d="M212 138c68 0 113 -38 113 -95c0 -90 -109 -181 -212 -181c-68 0 -113 38 -113 95c0 90 109 181 212 181z" fill="currentColor"/>
</g>
<g transform="translate(66.5642, 35.6069)">
<text font-family="Songti SC" font-size="2.4697" text-anchor="start" fill="currentColor">
<tspan>可</tspan>
</text>
</g>
<g transform="translate(68.3766, 28.6898)">
<rect x="-0.0757" y="-0.0011" width="0.1514" height="3.8298" ry="0.0500" fill="currentColor"/>
</g>
<g transform="translate(84.8210, 27.5080)">
<polygon stroke-linejoin="round" stroke-linecap="round" stroke-width="0.1000" fill="currentColor" stroke="currentColor" points="12.7369 -0.1900 12.7369 0.1900 0.0500 0.1900 0.0500 -0.1900"/>
</g>
<g transform="translate(71.6133, 31.6898)">
<path transform="scale(0.0040, -0.0040)" d="M310 63c0 22 -17 40 -40 40c-38 0 -197 -107 -224 -139c-7 -8 -10 -17 -10 -27c0 -22 17 -40 40 -40c38 0 197 107 224 139c7 8 10 17 10 27zM256 138c55 0 90 -22 90 -77c0 -25 -15 -112 -73 -151c-34 -23 -92 -48 -183 -48c-55 0 -90 22 -90 77c0 25 15 112 73 151
c34 23 92 48 183 48z" fill="currentColor"/>
</g>
<g transform="translate(69.8298, 35.6069)">
<text font-family="Songti SC" font-size="2.4697" text-anchor="start" fill="currentColor">
<tspan>吃；</tspan>
</text>
</g>
<g transform="translate(72.9215, 28.6898)">
<rect x="-0.0757" y="-0.5000" width="0.1514" height="3.2544" ry="0.0500" fill="currentColor"/>
</g>
<g transform="translate(83.6715, 25.7016)">
<text font-family="Hiragino Sans GB" font-size="1.9604" text-anchor="start" fill="currentColor">
<tspan>G</tspan>
</text>
</g>
<g transform="translate(83.6715, 31.1898)">
<path transform="scale(0.0040, -0.0040)" d="M212 138c68 0 113 -38 113 -95c0 -90 -109 -181 -212 -181c-68 0 -113 38 -113 95c0 90 109 181 212 181z" fill="currentColor"/>
</g>
<g transform="translate(83.0843, 35.6069)">
<text font-family="Songti SC" font-size="2.4697" text-anchor="start" fill="currentColor">
<tspan>我</tspan>
</text>
</g>
<g transform="translate(84.8967, 28.6898)">
<rect x="-0.0757" y="-1.1818" width="0.1514" height="3.5105" ry="0.0500" fill="currentColor"/>
</g>
<g transform="translate(88.1334, 30.1898)">
<path transform="scale(0.0040, -0.0040)" d="M212 138c68 0 113 -38 113 -95c0 -90 -109 -181 -212 -181c-68 0 -113 38 -113 95c0 90 109 181 212 181z" fill="currentColor"/>
</g>
<g transform="translate(87.5461, 35.6069)">
<text font-family="Songti SC" font-size="2.4697" text-anchor="start" fill="currentColor">
<tspan>们</tspan>
</text>
</g>
<g transform="translate(89.3585, 28.6898)">
<rect x="-0.0757" y="-1.1818" width="0.1514" height="2.5105" ry="0.0500" fill="currentColor"/>
</g>
<g transform="translate(92.3452, 30.1898)">
<path transform="scale(0.0040, -0.0040)" d="M212 138c68 0 113 -38 113 -95c0 -90 -109 -181 -212 -181c-68 0 -113 38 -113 95c0 90 109 181 212 181z" fill="currentColor"/>
</g>
<g transform="translate(91.7579, 35.6069)">
<text font-family="Songti SC" font-size="2.4697" text-anchor="start" fill="currentColor">
<tspan>只</tspan>
</text>
</g>
<g transform="translate(93.5704, 28.6898)">
<rect x="-0.0757" y="-1.1818" width="0.1514" height="2.5105" ry="0.0500" fill="currentColor"/>
</g>
<g transform="translate(96.3070, 31.1898)">
<path transform="scale(0.0040, -0.0040)" d="M212 138c68 0 113 -38 113 -95c0 -90 -109 -181 -212 -181c-68 0 -113 38 -113 95c0 90 109 181 212 181z" fill="currentColor"/>
</g>
<g transform="translate(95.7198, 35.6069)">
<text font-family="Songti SC" font-size="2.4697" text-anchor="start" fill="currentColor">
<tspan>要</tspan>
</text>
</g>
<g transform="translate(97.5322, 28.6898)">
<rect x="-0.0757" y="-1.1818" width="0.1514" height="3.5105" ry="0.0500" fill="currentColor"/>
</g>
<g transform="translate(55.9154, 28.5080)">
<polygon stroke-linejoin="round" stroke-linecap="round" stroke-width="0.1000" fill="currentColor" stroke="currentColor" points="12.4869 -0.0082 12.4869 0.3718 0.0500 0.1900 0.0500 -0.1900"/>
</g>
<g transform="translate(100.5189, 25.7016)">
<text font-family="Hiragino Sans GB" font-size="1.9604" text-anchor="start" fill="currentColor">
<tspan>D</tspan>
</text>
</g>
<g transform="translate(100.5189, 31.6898)">
<path transform="scale(0.0040, -0.0040)" d="M212 138c68 0 113 -38 113 -95c0 -90 -109 -181 -212 -181c-68 0 -113 38 -113 95c0 90 109 181 212 181z" fill="currentColor"/>
</g>
<g transform="translate(99.9316, 35.6069)">
<text font-family="Songti SC" font-size="2.4697" text-anchor="start" fill="currentColor">
<tspan>明</tspan>
</text>
</g>
<g transform="translate(101.7440, 28.6898)">
<rect x="-0.0757" y="-1.1818" width="0.1514" height="4.0105" ry="0.0500" fill="currentColor"/>
</g>
<g transform="translate(104.9807, 30.1898)">
<path transform="scale(0.0040, -0.0040)" d="M212 138c68 0 113 -38 113 -95c0 -90 -109 -181 -212 -181c-68 0 -113 38 -113 95c0 90 109 181 212 181z" fill="currentColor"/>
</g>
<g transform="translate(104.3934, 35.6069)">
<text font-family="Songti SC" font-size="2.4697" text-anchor="start" fill="currentColor">
<tspan>白</tspan>
</text>
</g>
<g transform="translate(106.2059, 28.6898)">
<rect x="-0.0757" y="-1.1818" width="0.1514" height="2.5105" ry="0.0500" fill="currentColor"/>
</g>
<g transform="translate(109.1925, 30.1898)">
<path transform="scale(0.0040, -0.0040)" d="M212 138c68 0 113 -38 113 -95c0 -90 -109 -181 -212 -181c-68 0 -113 38 -113 95c0 90 109 181 212 181z" fill="currentColor"/>
</g>
<g transform="translate(108.6053, 35.6069)">
<text font-family="Songti SC" font-size="2.4697" text-anchor="start" fill="currentColor">
<tspan>道</tspan>
</text>
</g>
<g transform="translate(110.4177, 28.6898)">
<rect x="-0.0757" y="-1.1818" width="0.1514" height="2.5105" ry="0.0500" fill="currentColor"/>
</g>
<g transform="translate(113.4044, 30.1898)">
<path transform="scale(0.0040, -0.0040)" d="M212 138c68 0 113 -38 113 -95c0 -90 -109 -181 -212 -181c-68 0 -113 38 -113 95c0 90 109 181 212 181z" fill="currentColor"/>
</g>
<g transform="translate(111.5794, 35.6069)">
<text font-family="Songti SC" font-size="2.4697" text-anchor="start" fill="currentColor">
<tspan>理，</tspan>
</text>
</g>
<g transform="translate(114.6295, 28.6898)">
<rect x="-0.0757" y="-1.1818" width="0.1514" height="2.5105" ry="0.0500" fill="currentColor"/>
</g>
<g transform="translate(37.1040, 26.5080)">
<polygon stroke-linejoin="round" stroke-linecap="round" stroke-width="0.1000" fill="currentColor" stroke="currentColor" points="12.6881 0.1736 12.6881 0.5536 0.0500 0.1900 0.0500 -0.1900"/>
</g>
<g transform="translate(119.6168, 25.7016)">
<text font-family="Hiragino Sans GB" font-size="1.9604" text-anchor="start" fill="currentColor">
<tspan>E</tspan>
</text>
</g>
<g transform="translate(120.8972, 24.8107)">
<text font-family="Hiragino Sans GB" font-size="1.3856" text-anchor="start" fill="currentColor">
<tspan>7</tspan>
</text>
</g>
<g transform="translate(119.6168, 29.6898)">
<path transform="scale(0.0040, -0.0040)" d="M212 138c68 0 113 -38 113 -95c0 -90 -109 -181 -212 -181c-68 0 -113 38 -113 95c0 90 109 181 212 181z" fill="currentColor"/>
</g>
<g transform="translate(119.0295, 35.6069)">
<text font-family="Songti SC" font-size="2.4697" text-anchor="start" fill="currentColor">
<tspan>努</tspan>
</text>
</g>
<g transform="translate(120.8420, 28.6898)">
<rect x="-0.0757" y="-2.0011" width="0.1514" height="2.8297" ry="0.0500" fill="currentColor"/>
</g>
<g transform="translate(123.8286, 29.6898)">
<path transform="scale(0.0040, -0.0040)" d="M212 138c68 0 113 -38 113 -95c0 -90 -109 -181 -212 -181c-68 0 -113 38 -113 95c0 90 109 181 212 181z" fill="currentColor"/>
</g>
<g transform="translate(123.2414, 35.6069)">
<text font-family="Songti SC" font-size="2.4697" text-anchor="start" fill="currentColor">
<tspan>力</tspan>
</text>
</g>
<g transform="translate(125.0538, 28.6898)">
<rect x="-0.0757" y="-2.0610" width="0.1514" height="2.8896" ry="0.0500" fill="currentColor"/>
</g>
<g transform="translate(128.0405, 29.6898)">
<path transform="scale(0.0040, -0.0040)" d="M212 138c68 0 113 -38 113 -95c0 -90 -109 -181 -212 -181c-68 0 -113 38 -113 95c0 90 109 181 212 181z" fill="currentColor"/>
</g>
<g transform="translate(127.4532, 35.6069)">
<text font-family="Songti SC" font-size="2.4697" text-anchor="start" fill="currentColor">
<tspan>作</tspan>
</text>
</g>
<g transform="translate(129.2656, 28.6898)">
<rect x="-0.0757" y="-2.1208" width="0.1514" height="2.9495" ry="0.0500" fill="currentColor"/>
</g>
<g transform="translate(132.2523, 29.1898)">
<path transform="scale(0.0040, -0.0040)" d="M212 138c68 0 113 -38 113 -95c0 -90 -109 -181 -212 -181c-68 0 -113 38 -113 95c0 90 109 181 212 181z" fill="currentColor"/>
</g>
<g transform="translate(131.6650, 35.6069)">
<text font-family="Songti SC" font-size="2.4697" text-anchor="start" fill="currentColor">
<tspan>好</tspan>
</text>
</g>
<g transform="translate(133.4775, 28.6898)">
<rect x="-0.0757" y="-2.1807" width="0.1514" height="2.5094" ry="0.0500" fill="currentColor"/>
</g>
<g transform="translate(136.7153, 25.7016)">
<text font-family="Hiragino Sans GB" font-size="1.9604" text-anchor="start" fill="currentColor">
<tspan>A</tspan>
</text>
</g>
<g transform="translate(136.7153, 29.6898)">
<path transform="scale(0.0040, -0.0040)" d="M310 63c0 22 -17 40 -40 40c-38 0 -197 -107 -224 -139c-7 -8 -10 -17 -10 -27c0 -22 17 -40 40 -40c38 0 197 107 224 139c7 8 10 17 10 27zM256 138c55 0 90 -22 90 -77c0 -25 -15 -112 -73 -151c-34 -23 -92 -48 -183 -48c-55 0 -90 22 -90 77c0 25 15 112 73 151
c34 23 92 48 183 48z" fill="currentColor"/>
</g>
<g transform="translate(134.5904, 35.6069)">
<text font-family="Songti SC" font-size="2.4697" text-anchor="start" fill="currentColor">
<tspan>事。’</tspan>
</text>
</g>
<g transform="translate(138.0235, 28.6898)">
<rect x="-0.0757" y="-2.5000" width="0.1514" height="3.2544" ry="0.0500" fill="currentColor"/>
</g>
<g transform="translate(20.2567, 26.5080)">
<polygon stroke-linejoin="round" stroke-linecap="round" stroke-width="0.1000" fill="currentColor" stroke="currentColor" points="12.7369 -0.1900 12.7369 0.1900 0.0500 0.1900 0.0500 -0.1900"/>
</g>
<g transform="translate(51.2706, 41.9155)">
<rect x="0.0000" y="-2.0000" width="0.2212" height="4.0000" ry="0.0000" fill="currentColor"/>
</g>
<g transform="translate(9.0337, 44.9155)">
<rect x="90.4354" y="-0.1082" width="1.9513" height="0.2164" ry="0.1082" fill="currentColor"/>
</g>
<g transform="translate(9.0337, 44.9155)">
<rect x="60.8764" y="-0.1082" width="2.0758" height="0.2164" ry="0.1082" fill="currentColor"/>
</g>
<g transform="translate(9.0337, 44.9155)">
<rect x="56.3495" y="-0.1082" width="1.9513" height="0.2164" ry="0.1082" fill="currentColor"/>
</g>
<g transform="translate(9.0337, 45.9155)">
<rect x="56.3495" y="-0.1082" width="1.9513" height="0.2164" ry="0.1082" fill="currentColor"/>
</g>
<g transform="translate(9.0337, 44.9155)">
<rect x="52.3019" y="-0.1082" width="1.9513" height="0.2164" ry="0.1082" fill="currentColor"/>
</g>
<g transform="translate(9.0337, 44.9155)">
<rect x="43.7067" y="-0.1082" width="1.9513" height="0.2164" ry="0.1082" fill="currentColor"/>
</g>
<g transform="translate(9.0337, 43.9155)">
<line stroke-linejoin="round" stroke-linecap="round" stroke-width="0.1164" stroke="currentColor" x1="0.0582" y1="0" x2="138.1582" y2="0"/>
</g>
<g transform="translate(9.0337, 42.9155)">
<line stroke-linejoin="round" stroke-linecap="round" stroke-width="0.1164" stroke="currentColor" x1="0.0582" y1="0" x2="138.1582" y2="0"/>
</g>
<g transform="translate(9.0337, 41.9155)">
<line stroke-linejoin="round" stroke-linecap="round" stroke-width="0.1164" stroke="currentColor" x1="0.0582" y1="0" x2="138.1582" y2="0"/>
</g>
<g transform="translate(9.0337, 40.9155)">
<line stroke-linejoin="round" stroke-linecap="round" stroke-width="0.1164" stroke="currentColor" x1="0.0582" y1="0" x2="138.1582" y2="0"/>
</g>
<g transform="translate(9.0337, 39.9155)">
<line stroke-linejoin="round" stroke-linecap="round" stroke-width="0.1164" stroke="currentColor" x1="0.0582" y1="0" x2="138.1582" y2="0"/>
</g>
<g transform="translate(147.0289, 41.9155)">
<rect x="0.0000" y="-2.0000" width="0.2212" height="4.0000" ry="0.0000" fill="currentColor"/>
</g>
<g transform="translate(117.4368, 41.9155)">
<rect x="0.0000" y="-2.0000" width="0.2212" height="4.0000" ry="0.0000" fill="currentColor"/>
</g>
<g transform="translate(80.8089, 41.9155)">
<rect x="0.0000" y="-2.0000" width="0.2212" height="4.0000" ry="0.0000" fill="currentColor"/>
</g>
<g transform="translate(9.8338, 42.9155)">
<path transform="scale(0.0040, -0.0040)" d="M647 2c0 -114 -75 -214 -180 -248c3 -33 4 -66 4 -99c0 -21 0 -41 -1 -62c-7 -122 -92 -229 -211 -229c-108 0 -196 88 -196 197c0 58 54 103 113 103c54 0 95 -47 95 -103c0 -52 -43 -95 -95 -95c-9 0 -18 1 -27 4c25 -37 66 -61 113 -61c93 0 156 91 162 191
c1 19 2 38 2 57c0 29 -1 58 -3 87c-5 -1 -44 -8 -88 -8c-194 0 -333 181 -333 376c0 177 129 308 244 443c-34 103 -55 171 -55 347c0 114 54 221 147 288c8 6 18 5 25 -1c68 -79 135 -242 135 -356c0 -142 -84 -255 -176 -364c21 -68 40 -136 57 -205c1 0 5 1 10 1
c157 0 258 -129 258 -263zM463 -201c64 24 110 88 110 161c0 88 -64 175 -167 188c28 -133 49 -269 57 -349zM77 25c0 -144 141 -243 261 -243c1 0 46 -1 81 5c-7 66 -27 208 -60 362c-79 -8 -124 -60 -124 -118c0 -43 25 -88 80 -120c5 -5 7 -11 7 -17
c0 -12 -10 -23 -23 -23c-16 0 -128 62 -128 188c0 89 60 177 163 200c-14 57 -30 113 -47 169c-105 -122 -210 -243 -210 -403zM242 784c0 -39 10 -95 39 -188c78 97 142 199 142 324c0 33 0 60 -20 118c-99 -46 -161 -145 -161 -254z" fill="currentColor"/>
</g>
<g transform="translate(13.4743, 41.9155)">
<path transform="scale(0.0040, -0.0040)" d="M31 37l-2 -62v-11c0 -22 2 -43 5 -64c43 38 89 80 89 137c0 32 -14 65 -42 65c-31 0 -49 -32 -50 -65zM-30 450c9 5 20 8 30 8s21 -3 30 -8l-8 -340c25 24 59 38 94 38c50 0 84 -50 84 -104c0 -78 -83 -117 -141 -169c-17 -15 -25 -44 -49 -44c-15 0 -26 13 -26 29z" fill="currentColor"/>
</g>
<g transform="translate(8.2228, 38.9424)">
<text font-family="Songti SC" font-size="1.7463" text-anchor="start" fill="currentColor">
<tspan>5</tspan>
</text>
</g>
<g transform="translate(16.7743, 38.9839)">
<text font-family="Hiragino Sans GB" font-size="1.9604" text-anchor="start" fill="currentColor">
<tspan>D</tspan>
</text>
</g>
<g transform="translate(16.7743, 42.4155)">
<path transform="scale(0.0040, -0.0040)" d="M212 138c68 0 113 -38 113 -95c0 -90 -109 -181 -212 -181c-68 0 -113 38 -113 95c0 90 109 181 212 181z" fill="currentColor"/>
</g>
<g transform="translate(16.1870, 48.9043)">
<text font-family="Songti SC" font-size="2.4697" text-anchor="start" fill="currentColor">
<tspan>亲</tspan>
</text>
</g>
<g transform="translate(17.9994, 41.9155)">
<rect x="-0.0757" y="-2.1818" width="0.1514" height="2.5105" ry="0.0500" fill="currentColor"/>
</g>
<g transform="translate(21.0719, 42.4155)">
<path transform="scale(0.0040, -0.0040)" d="M212 138c68 0 113 -38 113 -95c0 -90 -109 -181 -212 -181c-68 0 -113 38 -113 95c0 90 109 181 212 181z" fill="currentColor"/>
</g>
<g transform="translate(20.4846, 48.9043)">
<text font-family="Songti SC" font-size="2.4697" text-anchor="start" fill="currentColor">
<tspan>爱</tspan>
</text>
</g>
<g transform="translate(22.2970, 41.9155)">
<rect x="-0.0757" y="-2.1818" width="0.1514" height="2.5105" ry="0.0500" fill="currentColor"/>
</g>
<g transform="translate(120.3813, 39.7337)">
<polygon stroke-linejoin="round" stroke-linecap="round" stroke-width="0.1000" fill="currentColor" stroke="currentColor" points="12.9942 0.1736 12.9942 0.5536 0.0500 0.1900 0.0500 -0.1900"/>
</g>
<g transform="translate(25.3695, 42.4155)">
<path transform="scale(0.0040, -0.0040)" d="M212 138c68 0 113 -38 113 -95c0 -90 -109 -181 -212 -181c-68 0 -113 38 -113 95c0 90 109 181 212 181z" fill="currentColor"/>
</g>
<g transform="translate(24.7822, 48.9043)">
<text font-family="Songti SC" font-size="2.4697" text-anchor="start" fill="currentColor">
<tspan>弟</tspan>
</text>
</g>
<g transform="translate(26.5947, 41.9155)">
<rect x="-0.0757" y="-2.1818" width="0.1514" height="2.5105" ry="0.0500" fill="currentColor"/>
</g>
<g transform="translate(29.6671, 42.9155)">
<path transform="scale(0.0040, -0.0040)" d="M212 138c68 0 113 -38 113 -95c0 -90 -109 -181 -212 -181c-68 0 -113 38 -113 95c0 90 109 181 212 181z" fill="currentColor"/>
</g>
<g transform="translate(27.8421, 48.9043)">
<text font-family="Songti SC" font-size="2.4697" text-anchor="start" fill="currentColor">
<tspan>兄，</tspan>
</text>
</g>
<g transform="translate(30.8923, 41.9155)">
<rect x="-0.0757" y="-2.1818" width="0.1514" height="3.0105" ry="0.0500" fill="currentColor"/>
</g>
<g transform="translate(33.9647, 38.9839)">
<text font-family="Hiragino Sans GB" font-size="1.9604" text-anchor="start" fill="currentColor">
<tspan>G</tspan>
</text>
</g>
<g transform="translate(33.9647, 43.4155)">
<path transform="scale(0.0040, -0.0040)" d="M212 138c68 0 113 -38 113 -95c0 -90 -109 -181 -212 -181c-68 0 -113 38 -113 95c0 90 109 181 212 181z" fill="currentColor"/>
</g>
<g transform="translate(33.3774, 48.9043)">
<text font-family="Songti SC" font-size="2.4697" text-anchor="start" fill="currentColor">
<tspan>请</tspan>
</text>
</g>
<g transform="translate(35.1899, 41.9155)">
<rect x="-0.0757" y="-2.1797" width="0.1514" height="3.5083" ry="0.0500" fill="currentColor"/>
</g>
<g transform="translate(38.2623, 42.9155)">
<path transform="scale(0.0040, -0.0040)" d="M212 138c68 0 113 -38 113 -95c0 -90 -109 -181 -212 -181c-68 0 -113 38 -113 95c0 90 109 181 212 181z" fill="currentColor"/>
</g>
<g transform="translate(37.6751, 48.9043)">
<text font-family="Songti SC" font-size="2.4697" text-anchor="start" fill="currentColor">
<tspan>听</tspan>
</text>
</g>
<g transform="translate(39.4875, 41.9155)">
<rect x="-0.0757" y="-2.0586" width="0.1514" height="2.8873" ry="0.0500" fill="currentColor"/>
</g>
<g transform="translate(42.5599, 43.4155)">
<path transform="scale(0.0040, -0.0040)" d="M212 138c68 0 113 -38 113 -95c0 -90 -109 -181 -212 -181c-68 0 -113 38 -113 95c0 90 109 181 212 181z" fill="currentColor"/>
</g>
<g transform="translate(41.9727, 48.9043)">
<text font-family="Songti SC" font-size="2.4697" text-anchor="start" fill="currentColor">
<tspan>主</tspan>
</text>
</g>
<g transform="translate(43.7851, 41.9155)">
<rect x="-0.0757" y="-1.9376" width="0.1514" height="3.2663" ry="0.0500" fill="currentColor"/>
</g>
<g transform="translate(100.9438, 40.9155)">
<polygon stroke-linejoin="round" stroke-linecap="round" stroke-width="0.1000" fill="currentColor" stroke="currentColor" points="13.2442 -1.1900 13.2442 -0.8100 0.0500 0.1900 0.0500 -0.1900"/>
</g>
<g transform="translate(46.7230, 44.4155)">
<path transform="scale(0.0040, -0.0040)" d="M212 138c68 0 113 -38 113 -95c0 -90 -109 -181 -212 -181c-68 0 -113 38 -113 95c0 90 109 181 212 181z" fill="currentColor"/>
</g>
<g transform="translate(44.8981, 48.9043)">
<text font-family="Songti SC" font-size="2.4697" text-anchor="start" fill="currentColor">
<tspan>说：</tspan>
</text>
</g>
<g transform="translate(47.9482, 41.9155)">
<rect x="-0.0757" y="-1.8203" width="0.1514" height="4.1490" ry="0.0500" fill="currentColor"/>
</g>
<g transform="translate(53.0656, 38.9839)">
<text font-family="Hiragino Sans GB" font-size="1.9604" text-anchor="start" fill="currentColor">
<tspan>D</tspan>
</text>
</g>
<g transform="translate(53.0656, 44.9155)">
<path transform="scale(0.0040, -0.0040)" d="M212 138c68 0 113 -38 113 -95c0 -90 -109 -181 -212 -181c-68 0 -113 38 -113 95c0 90 109 181 212 181z" fill="currentColor"/>
</g>
<g transform="translate(52.1796, 48.9043)">
<text font-family="Songti SC" font-size="2.4697" text-anchor="start" fill="currentColor">
<tspan>‘我</tspan>
</text>
</g>
<g transform="translate(54.2908, 41.9155)">
<rect x="-0.0757" y="-0.1807" width="0.1514" height="3.0094" ry="0.0500" fill="currentColor"/>
</g>
<g transform="translate(57.3633, 44.4155)">
<path transform="scale(0.0040, -0.0040)" d="M212 138c68 0 113 -38 113 -95c0 -90 -109 -181 -212 -181c-68 0 -113 38 -113 95c0 90 109 181 212 181z" fill="currentColor"/>
</g>
<g transform="translate(56.7760, 48.9043)">
<text font-family="Songti SC" font-size="2.4697" text-anchor="start" fill="currentColor">
<tspan>是</tspan>
</text>
</g>
<g transform="translate(58.5884, 41.9155)">
<rect x="-0.0757" y="-0.1196" width="0.1514" height="2.4483" ry="0.0500" fill="currentColor"/>
</g>
<g transform="translate(61.6609, 44.9155)">
<path transform="scale(0.0040, -0.0040)" d="M212 138c68 0 113 -38 113 -95c0 -90 -109 -181 -212 -181c-68 0 -113 38 -113 95c0 90 109 181 212 181z" fill="currentColor"/>
</g>
<g transform="translate(61.0736, 48.9043)">
<text font-family="Songti SC" font-size="2.4697" text-anchor="start" fill="currentColor">
<tspan>生</tspan>
</text>
</g>
<g transform="translate(62.8860, 41.9155)">
<rect x="-0.0757" y="-0.0586" width="0.1514" height="2.8873" ry="0.0500" fill="currentColor"/>
</g>
<g transform="translate(83.7533, 40.7337)">
<polygon stroke-linejoin="round" stroke-linecap="round" stroke-width="0.1000" fill="currentColor" stroke="currentColor" points="12.9942 -0.1900 12.9942 0.1900 0.0500 0.1900 0.0500 -0.1900"/>
</g>
<g transform="translate(65.7085, 45.9155)">
<path transform="scale(0.0040, -0.0040)" d="M212 138c68 0 113 -38 113 -95c0 -90 -109 -181 -212 -181c-68 0 -113 38 -113 95c0 90 109 181 212 181z" fill="currentColor"/>
</g>
<g transform="translate(65.1212, 48.9043)">
<text font-family="Songti SC" font-size="2.4697" text-anchor="start" fill="currentColor">
<tspan>命</tspan>
</text>
</g>
<g transform="translate(66.9336, 41.9155)">
<rect x="-0.0757" y="-0.0011" width="0.1514" height="3.8297" ry="0.0500" fill="currentColor"/>
</g>
<g transform="translate(70.2561, 44.9155)">
<path transform="scale(0.0040, -0.0040)" d="M310 63c0 22 -17 40 -40 40c-38 0 -197 -107 -224 -139c-7 -8 -10 -17 -10 -27c0 -22 17 -40 40 -40c38 0 197 107 224 139c7 8 10 17 10 27zM256 138c55 0 90 -22 90 -77c0 -25 -15 -112 -73 -151c-34 -23 -92 -48 -183 -48c-55 0 -90 22 -90 77c0 25 15 112 73 151
c34 23 92 48 183 48z" fill="currentColor"/>
</g>
<g transform="translate(68.1312, 48.9043)">
<text font-family="Songti SC" font-size="2.4697" text-anchor="start" fill="currentColor">
<tspan>粮。’</tspan>
</text>
</g>
<g transform="translate(71.5643, 41.9155)">
<rect x="-0.0757" y="-0.5000" width="0.1514" height="3.2544" ry="0.0500" fill="currentColor"/>
</g>
<g transform="translate(82.6039, 38.9839)">
<text font-family="Hiragino Sans GB" font-size="1.9604" text-anchor="start" fill="currentColor">
<tspan>G</tspan>
</text>
</g>
<g transform="translate(82.6039, 44.4155)">
<path transform="scale(0.0040, -0.0040)" d="M212 138c68 0 113 -38 113 -95c0 -90 -109 -181 -212 -181c-68 0 -113 38 -113 95c0 90 109 181 212 181z" fill="currentColor"/>
</g>
<g transform="translate(82.0166, 48.9043)">
<text font-family="Songti SC" font-size="2.4697" text-anchor="start" fill="currentColor">
<tspan>吃</tspan>
</text>
</g>
<g transform="translate(83.8290, 41.9155)">
<rect x="-0.0757" y="-1.1818" width="0.1514" height="3.5105" ry="0.0500" fill="currentColor"/>
</g>
<g transform="translate(87.1515, 43.4155)">
<path transform="scale(0.0040, -0.0040)" d="M212 138c68 0 113 -38 113 -95c0 -90 -109 -181 -212 -181c-68 0 -113 38 -113 95c0 90 109 181 212 181z" fill="currentColor"/>
</g>
<g transform="translate(86.5642, 48.9043)">
<text font-family="Songti SC" font-size="2.4697" text-anchor="start" fill="currentColor">
<tspan>主</tspan>
</text>
</g>
<g transform="translate(88.3766, 41.9155)">
<rect x="-0.0757" y="-1.1818" width="0.1514" height="2.5105" ry="0.0500" fill="currentColor"/>
</g>
<g transform="translate(91.4491, 43.4155)">
<path transform="scale(0.0040, -0.0040)" d="M212 138c68 0 113 -38 113 -95c0 -90 -109 -181 -212 -181c-68 0 -113 38 -113 95c0 90 109 181 212 181z" fill="currentColor"/>
</g>
<g transform="translate(90.8618, 48.9043)">
<text font-family="Songti SC" font-size="2.4697" text-anchor="start" fill="currentColor">
<tspan>的</tspan>
</text>
</g>
<g transform="translate(92.6742, 41.9155)">
<rect x="-0.0757" y="-1.1818" width="0.1514" height="2.5105" ry="0.0500" fill="currentColor"/>
</g>
<g transform="translate(95.4967, 44.4155)">
<path transform="scale(0.0040, -0.0040)" d="M212 138c68 0 113 -38 113 -95c0 -90 -109 -181 -212 -181c-68 0 -113 38 -113 95c0 90 109 181 212 181z" fill="currentColor"/>
</g>
<g transform="translate(94.9094, 48.9043)">
<text font-family="Songti SC" font-size="2.4697" text-anchor="start" fill="currentColor">
<tspan>人</tspan>
</text>
</g>
<g transform="translate(96.7219, 41.9155)">
<rect x="-0.0757" y="-1.1818" width="0.1514" height="3.5105" ry="0.0500" fill="currentColor"/>
</g>
<g transform="translate(54.2151, 41.7337)">
<polygon stroke-linejoin="round" stroke-linecap="round" stroke-width="0.1000" fill="currentColor" stroke="currentColor" points="12.7442 -0.0082 12.7442 0.3718 0.0500 0.1900 0.0500 -0.1900"/>
</g>
<g transform="translate(99.7943, 38.9839)">
<text font-family="Hiragino Sans GB" font-size="1.9604" text-anchor="start" fill="currentColor">
<tspan>D</tspan>
</text>
</g>
<g transform="translate(99.7943, 44.9155)">
<path transform="scale(0.0040, -0.0040)" d="M212 138c68 0 113 -38 113 -95c0 -90 -109 -181 -212 -181c-68 0 -113 38 -113 95c0 90 109 181 212 181z" fill="currentColor"/>
</g>
<g transform="translate(99.2070, 48.9043)">
<text font-family="Songti SC" font-size="2.4697" text-anchor="start" fill="currentColor">
<tspan>凭</tspan>
</text>
</g>
<g transform="translate(101.0195, 41.9155)">
<rect x="-0.0757" y="-1.0057" width="0.1514" height="3.8344" ry="0.0500" fill="currentColor"/>
</g>
<g transform="translate(104.3419, 43.4155)">
<path transform="scale(0.0040, -0.0040)" d="M212 138c68 0 113 -38 113 -95c0 -90 -109 -181 -212 -181c-68 0 -113 38 -113 95c0 90 109 181 212 181z" fill="currentColor"/>
</g>
<g transform="translate(103.7546, 48.9043)">
<text font-family="Songti SC" font-size="2.4697" text-anchor="start" fill="currentColor">
<tspan>祂</tspan>
</text>
</g>
<g transform="translate(105.5671, 41.9155)">
<rect x="-0.0757" y="-1.3478" width="0.1514" height="2.6764" ry="0.0500" fill="currentColor"/>
</g>
<g transform="translate(108.6395, 38.9839)">
<text font-family="Hiragino Sans GB" font-size="1.9604" text-anchor="start" fill="currentColor">
<tspan>G</tspan>
</text>
</g>
<g transform="translate(108.6395, 43.4155)">
<path transform="scale(0.0040, -0.0040)" d="M212 138c68 0 113 -38 113 -95c0 -90 -109 -181 -212 -181c-68 0 -113 38 -113 95c0 90 109 181 212 181z" fill="currentColor"/>
</g>
<g transform="translate(108.0523, 48.9043)">
<text font-family="Songti SC" font-size="2.4697" text-anchor="start" fill="currentColor">
<tspan>活</tspan>
</text>
</g>
<g transform="translate(109.8647, 41.9155)">
<rect x="-0.0757" y="-1.6710" width="0.1514" height="2.9997" ry="0.0500" fill="currentColor"/>
</g>
<g transform="translate(112.9371, 42.9155)">
<path transform="scale(0.0040, -0.0040)" d="M212 138c68 0 113 -38 113 -95c0 -90 -109 -181 -212 -181c-68 0 -113 38 -113 95c0 90 109 181 212 181z" fill="currentColor"/>
</g>
<g transform="translate(111.1122, 48.9043)">
<text font-family="Songti SC" font-size="2.4697" text-anchor="start" fill="currentColor">
<tspan>着，</tspan>
</text>
</g>
<g transform="translate(114.1623, 41.9155)">
<rect x="-0.0757" y="-1.9943" width="0.1514" height="2.8230" ry="0.0500" fill="currentColor"/>
</g>
<g transform="translate(35.1142, 39.7337)">
<polygon stroke-linejoin="round" stroke-linecap="round" stroke-width="0.1000" fill="currentColor" stroke="currentColor" points="12.8597 0.1736 12.8597 0.5536 0.0500 0.1900 0.0500 -0.1900"/>
</g>
<g transform="translate(119.2318, 38.9839)">
<text font-family="Hiragino Sans GB" font-size="1.9604" text-anchor="start" fill="currentColor">
<tspan>D</tspan>
</text>
</g>
<g transform="translate(119.2318, 42.4155)">
<path transform="scale(0.0040, -0.0040)" d="M212 138c68 0 113 -38 113 -95c0 -90 -109 -181 -212 -181c-68 0 -113 38 -113 95c0 90 109 181 212 181z" fill="currentColor"/>
</g>
<g transform="translate(118.6445, 48.9043)">
<text font-family="Songti SC" font-size="2.4697" text-anchor="start" fill="currentColor">
<tspan>天</tspan>
</text>
</g>
<g transform="translate(120.4570, 41.9155)">
<rect x="-0.0757" y="-2.1797" width="0.1514" height="2.5083" ry="0.0500" fill="currentColor"/>
</g>
<g transform="translate(123.5294, 42.4155)">
<path transform="scale(0.0040, -0.0040)" d="M212 138c68 0 113 -38 113 -95c0 -90 -109 -181 -212 -181c-68 0 -113 38 -113 95c0 90 109 181 212 181z" fill="currentColor"/>
</g>
<g transform="translate(122.9421, 48.9043)">
<text font-family="Songti SC" font-size="2.4697" text-anchor="start" fill="currentColor">
<tspan>天</tspan>
</text>
</g>
<g transform="translate(124.7546, 41.9155)">
<rect x="-0.0757" y="-2.0599" width="0.1514" height="2.3886" ry="0.0500" fill="currentColor"/>
</g>
<g transform="translate(127.8270, 38.9839)">
<text font-family="Hiragino Sans GB" font-size="1.9604" text-anchor="start" fill="currentColor">
<tspan>A</tspan>
</text>
</g>
<g transform="translate(129.2781, 38.0930)">
<text font-family="Hiragino Sans GB" font-size="1.3856" text-anchor="start" fill="currentColor">
<tspan>7</tspan>
</text>
</g>
<g transform="translate(127.8270, 42.9155)">
<path transform="scale(0.0040, -0.0040)" d="M212 138c68 0 113 -38 113 -95c0 -90 -109 -181 -212 -181c-68 0 -113 38 -113 95c0 90 109 181 212 181z" fill="currentColor"/>
</g>
<g transform="translate(127.2398, 48.9043)">
<text font-family="Songti SC" font-size="2.4697" text-anchor="start" fill="currentColor">
<tspan>喜</tspan>
</text>
</g>
<g transform="translate(129.0522, 41.9155)">
<rect x="-0.0757" y="-1.9401" width="0.1514" height="2.7688" ry="0.0500" fill="currentColor"/>
</g>
<g transform="translate(132.1246, 42.9155)">
<path transform="scale(0.0040, -0.0040)" d="M212 138c68 0 113 -38 113 -95c0 -90 -109 -181 -212 -181c-68 0 -113 38 -113 95c0 90 109 181 212 181z" fill="currentColor"/>
</g>
<g transform="translate(131.5374, 48.9043)">
<text font-family="Songti SC" font-size="2.4697" text-anchor="start" fill="currentColor">
<tspan>洋</tspan>
</text>
</g>
<g transform="translate(133.3498, 41.9155)">
<rect x="-0.0757" y="-1.8203" width="0.1514" height="2.6490" ry="0.0500" fill="currentColor"/>
</g>
<g transform="translate(136.4223, 38.9839)">
<text font-family="Hiragino Sans GB" font-size="1.9604" text-anchor="start" fill="currentColor">
<tspan>D</tspan>
</text>
</g>
<g transform="translate(136.4223, 43.4155)">
<path transform="scale(0.0040, -0.0040)" d="M310 63c0 22 -17 40 -40 40c-38 0 -197 -107 -224 -139c-7 -8 -10 -17 -10 -27c0 -22 17 -40 40 -40c38 0 197 107 224 139c7 8 10 17 10 27zM256 138c55 0 90 -22 90 -77c0 -25 -15 -112 -73 -151c-34 -23 -92 -48 -183 -48c-55 0 -90 22 -90 77c0 25 15 112 73 151
c34 23 92 48 183 48z" fill="currentColor"/>
</g>
<g transform="translate(134.6388, 48.9043)">
<text font-family="Songti SC" font-size="2.4697" text-anchor="start" fill="currentColor">
<tspan>洋。</tspan>
</text>
</g>
<g transform="translate(137.7304, 41.9155)">
<rect x="-0.0757" y="-2.0000" width="0.1514" height="3.2544" ry="0.0500" fill="currentColor"/>
</g>
<g transform="translate(17.9238, 39.7337)">
<polygon stroke-linejoin="round" stroke-linecap="round" stroke-width="0.1000" fill="currentColor" stroke="currentColor" points="12.9942 -0.1900 12.9942 0.1900 0.0500 0.1900 0.0500 -0.1900"/>
</g>
<g transform="translate(48.9247, 58.5203)">
<rect x="0.0000" y="-2.0000" width="0.2212" height="4.0000" ry="0.0000" fill="currentColor"/>
</g>
<g transform="translate(9.0337, 60.5203)">
<line stroke-linejoin="round" stroke-linecap="round" stroke-width="0.1164" stroke="currentColor" x1="0.0582" y1="0" x2="138.1582" y2="0"/>
</g>
<g transform="translate(9.0337, 59.5203)">
<line stroke-linejoin="round" stroke-linecap="round" stroke-width="0.1164" stroke="currentColor" x1="0.0582" y1="0" x2="138.1582" y2="0"/>
</g>
<g transform="translate(9.0337, 58.5203)">
<line stroke-linejoin="round" stroke-linecap="round" stroke-width="0.1164" stroke="currentColor" x1="0.0582" y1="0" x2="138.1582" y2="0"/>
</g>
<g transform="translate(9.0337, 57.5203)">
<line stroke-linejoin="round" stroke-linecap="round" stroke-width="0.1164" stroke="currentColor" x1="0.0582" y1="0" x2="138.1582" y2="0"/>
</g>
<g transform="translate(9.0337, 56.5203)">
<line stroke-linejoin="round" stroke-linecap="round" stroke-width="0.1164" stroke="currentColor" x1="0.0582" y1="0" x2="138.1582" y2="0"/>
</g>
<g transform="translate(147.0289, 58.5203)">
<rect x="0.0000" y="-2.0000" width="0.2212" height="4.0000" ry="0.0000" fill="currentColor"/>
</g>
<g transform="translate(118.6499, 58.5203)">
<rect x="0.0000" y="-2.0000" width="0.2212" height="4.0000" ry="0.0000" fill="currentColor"/>
</g>
<g transform="translate(84.6884, 58.5203)">
<rect x="0.0000" y="-2.0000" width="0.2212" height="4.0000" ry="0.0000" fill="currentColor"/>
</g>
<g transform="translate(21.1622, 58.5203)">
<path stroke-width="0.0931" stroke-linejoin="round" stroke-linecap="round" stroke="currentColor" fill="currentColor" d="M0.8504 -1.2250C1.6027 -1.9939 3.8361 -1.9939 4.5884 -1.2250L4.5884 -1.2250C3.8361 -1.8542 1.6027 -1.8542 0.8504 -1.2250z"/>
</g>
<g transform="translate(9.8338, 59.5203)">
<path transform="scale(0.0040, -0.0040)" d="M647 2c0 -114 -75 -214 -180 -248c3 -33 4 -66 4 -99c0 -21 0 -41 -1 -62c-7 -122 -92 -229 -211 -229c-108 0 -196 88 -196 197c0 58 54 103 113 103c54 0 95 -47 95 -103c0 -52 -43 -95 -95 -95c-9 0 -18 1 -27 4c25 -37 66 -61 113 -61c93 0 156 91 162 191
c1 19 2 38 2 57c0 29 -1 58 -3 87c-5 -1 -44 -8 -88 -8c-194 0 -333 181 -333 376c0 177 129 308 244 443c-34 103 -55 171 -55 347c0 114 54 221 147 288c8 6 18 5 25 -1c68 -79 135 -242 135 -356c0 -142 -84 -255 -176 -364c21 -68 40 -136 57 -205c1 0 5 1 10 1
c157 0 258 -129 258 -263zM463 -201c64 24 110 88 110 161c0 88 -64 175 -167 188c28 -133 49 -269 57 -349zM77 25c0 -144 141 -243 261 -243c1 0 46 -1 81 5c-7 66 -27 208 -60 362c-79 -8 -124 -60 -124 -118c0 -43 25 -88 80 -120c5 -5 7 -11 7 -17
c0 -12 -10 -23 -23 -23c-16 0 -128 62 -128 188c0 89 60 177 163 200c-14 57 -30 113 -47 169c-105 -122 -210 -243 -210 -403zM242 784c0 -39 10 -95 39 -188c78 97 142 199 142 324c0 33 0 60 -20 118c-99 -46 -161 -145 -161 -254z" fill="currentColor"/>
</g>
<g transform="translate(13.4743, 58.5203)">
<path transform="scale(0.0040, -0.0040)" d="M31 37l-2 -62v-11c0 -22 2 -43 5 -64c43 38 89 80 89 137c0 32 -14 65 -42 65c-31 0 -49 -32 -50 -65zM-30 450c9 5 20 8 30 8s21 -3 30 -8l-8 -340c25 24 59 38 94 38c50 0 84 -50 84 -104c0 -78 -83 -117 -141 -169c-17 -15 -25 -44 -49 -44c-15 0 -26 13 -26 29z" fill="currentColor"/>
</g>
<g transform="translate(8.2228, 55.5419)">
<text font-family="Songti SC" font-size="1.7463" text-anchor="start" fill="currentColor">
<tspan>9</tspan>
</text>
</g>
<g transform="translate(16.7743, 52.2689)">
<text font-family="Hiragino Sans GB" font-size="1.9604" text-anchor="start" fill="currentColor">
<tspan>D</tspan>
</text>
</g>
<g transform="translate(16.7743, 59.0203)">
<path transform="scale(0.0040, -0.0040)" d="M212 138c68 0 113 -38 113 -95c0 -90 -109 -181 -212 -181c-68 0 -113 38 -113 95c0 90 109 181 212 181z" fill="currentColor"/>
</g>
<g transform="translate(16.7743, 56.0021)">
<rect x="-0.6164" y="-0.1164" width="3.4522" height="0.1164" ry="0.0000" fill="currentColor"/>
</g>
<g transform="translate(16.7743, 52.8794)">
<rect x="-0.6164" y="-0.1164" width="3.4522" height="0.1164" ry="0.0000" fill="currentColor"/>
</g>
<g transform="translate(16.1579, 55.0359)">
<rect x="0" y="-2.1565" width="0.1164" height="3.0063" ry="0.0000" fill="currentColor"/>
</g>
<g transform="translate(19.4936, 55.0359)">
<rect x="0" y="-2.1565" width="0.1164" height="3.0063" ry="0.0000" fill="currentColor"/>
</g>
<g transform="translate(16.7743, 55.0359)">
<text font-family="Songti SC" font-weight="bold" font-size="2.2001" text-anchor="start" fill="currentColor">
<tspan>副</tspan>
</text>
</g>
<g transform="translate(16.1870, 64.0294)">
<text font-family="Songti SC" font-size="2.4697" text-anchor="start" fill="currentColor">
<tspan>我</tspan>
</text>
</g>
<g transform="translate(16.8500, 58.5203)">
<rect x="-0.0757" y="0.6713" width="0.1514" height="2.1421" ry="0.0500" fill="currentColor"/>
</g>
<g transform="translate(21.1622, 58.0203)">
<path transform="scale(0.0040, -0.0040)" d="M212 138c68 0 113 -38 113 -95c0 -90 -109 -181 -212 -181c-68 0 -113 38 -113 95c0 90 109 181 212 181z" fill="currentColor"/>
</g>
<g transform="translate(21.1622, 64.0294)">
<text font-family="Songti SC" font-size="2.4697" text-anchor="start" fill="currentColor">
<tspan>爱</tspan>
</text>
</g>
<g transform="translate(21.2379, 58.5203)">
<rect x="-0.0757" y="-0.3287" width="0.1514" height="2.8619" ry="0.0500" fill="currentColor"/>
</g>
<g transform="translate(25.3002, 58.0203)">
<path transform="scale(0.0040, -0.0040)" d="M212 138c68 0 113 -38 113 -95c0 -90 -109 -181 -212 -181c-68 0 -113 38 -113 95c0 90 109 181 212 181z" fill="currentColor"/>
</g>
<g transform="translate(25.3759, 58.5203)">
<rect x="-0.0757" y="-0.3287" width="0.1514" height="2.5977" ry="0.0500" fill="currentColor"/>
</g>
<g transform="translate(121.5345, 56.5203)">
<polygon stroke-linejoin="round" stroke-linecap="round" stroke-width="0.1000" fill="currentColor" stroke="currentColor" points="12.5153 -0.3718 12.5153 0.0082 0.0500 0.1900 0.0500 -0.1900"/>
</g>
<g transform="translate(29.4382, 57.5203)">
<path transform="scale(0.0040, -0.0040)" d="M212 138c68 0 113 -38 113 -95c0 -90 -109 -181 -212 -181c-68 0 -113 38 -113 95c0 90 109 181 212 181z" fill="currentColor"/>
</g>
<g transform="translate(28.8509, 64.0294)">
<text font-family="Songti SC" font-size="2.4697" text-anchor="start" fill="currentColor">
<tspan>召</tspan>
</text>
</g>
<g transform="translate(29.5139, 58.5203)">
<rect x="-0.0757" y="-0.8287" width="0.1514" height="2.8335" ry="0.0500" fill="currentColor"/>
</g>
<g transform="translate(33.4108, 59.0203)">
<path transform="scale(0.0040, -0.0040)" d="M212 138c68 0 113 -38 113 -95c0 -90 -109 -181 -212 -181c-68 0 -113 38 -113 95c0 90 109 181 212 181z" fill="currentColor"/>
</g>
<g transform="translate(32.8235, 64.0294)">
<text font-family="Songti SC" font-size="2.4697" text-anchor="start" fill="currentColor">
<tspan>会</tspan>
</text>
</g>
<g transform="translate(34.6360, 58.5203)">
<rect x="-0.0757" y="-2.1786" width="0.1514" height="2.5072" ry="0.0500" fill="currentColor"/>
</g>
<g transform="translate(37.5488, 59.5203)">
<path transform="scale(0.0040, -0.0040)" d="M212 138c68 0 113 -38 113 -95c0 -90 -109 -181 -212 -181c-68 0 -113 38 -113 95c0 90 109 181 212 181z" fill="currentColor"/>
</g>
<g transform="translate(36.9615, 64.0294)">
<text font-family="Songti SC" font-size="2.4697" text-anchor="start" fill="currentColor">
<tspan>生</tspan>
</text>
</g>
<g transform="translate(38.7739, 58.5203)">
<rect x="-0.0757" y="-2.0032" width="0.1514" height="2.8319" ry="0.0500" fill="currentColor"/>
</g>
<g transform="translate(41.7119, 60.0203)">
<path transform="scale(0.0040, -0.0040)" d="M212 138c68 0 113 -38 113 -95c0 -90 -109 -181 -212 -181c-68 0 -113 38 -113 95c0 90 109 181 212 181z" fill="currentColor"/>
</g>
<g transform="translate(39.8869, 64.0294)">
<text font-family="Songti SC" font-size="2.4697" text-anchor="start" fill="currentColor">
<tspan>活，</tspan>
</text>
</g>
<g transform="translate(42.9370, 58.5203)">
<rect x="-0.0757" y="-2.0000" width="0.1514" height="3.3287" ry="0.0500" fill="currentColor"/>
</g>
<g transform="translate(104.2855, 56.3386)">
<polygon stroke-linejoin="round" stroke-linecap="round" stroke-width="0.1000" fill="currentColor" stroke="currentColor" points="4.2393 -0.0082 4.2393 0.3718 0.0500 0.1900 0.0500 -0.1900"/>
</g>
<g transform="translate(50.6598, 52.2689)">
<text font-family="Hiragino Sans GB" font-size="1.9604" text-anchor="start" fill="currentColor">
<tspan>G</tspan>
</text>
</g>
<g transform="translate(50.6598, 61.0203)">
<path transform="scale(0.0040, -0.0040)" d="M212 138c68 0 113 -38 113 -95c0 -90 -109 -181 -212 -181c-68 0 -113 38 -113 95c0 90 109 181 212 181z" fill="currentColor"/>
</g>
<g transform="translate(50.0726, 64.0294)">
<text font-family="Songti SC" font-size="2.4697" text-anchor="start" fill="currentColor">
<tspan>吃</tspan>
</text>
</g>
<g transform="translate(51.8850, 58.5203)">
<rect x="-0.0757" y="-1.8204" width="0.1514" height="4.1490" ry="0.0500" fill="currentColor"/>
</g>
<g transform="translate(55.0478, 60.0203)">
<path transform="scale(0.0040, -0.0040)" d="M212 138c68 0 113 -38 113 -95c0 -90 -109 -181 -212 -181c-68 0 -113 38 -113 95c0 90 109 181 212 181z" fill="currentColor"/>
</g>
<g transform="translate(53.2228, 64.0294)">
<text font-family="Songti SC" font-size="2.4697" text-anchor="start" fill="currentColor">
<tspan>主，</tspan>
</text>
</g>
<g transform="translate(56.2730, 58.5203)">
<rect x="-0.0757" y="-1.9444" width="0.1514" height="3.2730" ry="0.0500" fill="currentColor"/>
</g>
<g transform="translate(59.2109, 59.5203)">
<path transform="scale(0.0040, -0.0040)" d="M212 138c68 0 113 -38 113 -95c0 -90 -109 -181 -212 -181c-68 0 -113 38 -113 95c0 90 109 181 212 181z" fill="currentColor"/>
</g>
<g transform="translate(58.6236, 64.0294)">
<text font-family="Songti SC" font-size="2.4697" text-anchor="start" fill="currentColor">
<tspan>喝</tspan>
</text>
</g>
<g transform="translate(60.4361, 58.5203)">
<rect x="-0.0757" y="-2.0620" width="0.1514" height="2.8907" ry="0.0500" fill="currentColor"/>
</g>
<g transform="translate(90.8874, 58.5203)">
<path stroke-width="0.0931" stroke-linejoin="round" stroke-linecap="round" stroke="currentColor" fill="currentColor" d="M0.8504 -1.2250C1.6027 -1.9939 3.8361 -1.9939 4.5884 -1.2250L4.5884 -1.2250C3.8361 -1.8542 1.6027 -1.8542 0.8504 -1.2250z"/>
</g>
<g transform="translate(63.3740, 60.0203)">
<path transform="scale(0.0040, -0.0040)" d="M212 138c68 0 113 -38 113 -95c0 -90 -109 -181 -212 -181c-68 0 -113 38 -113 95c0 90 109 181 212 181z" fill="currentColor"/>
</g>
<g transform="translate(61.5490, 64.0294)">
<text font-family="Songti SC" font-size="2.4697" text-anchor="start" fill="currentColor">
<tspan>主，</tspan>
</text>
</g>
<g transform="translate(64.5991, 58.5203)">
<rect x="-0.0757" y="-2.1796" width="0.1514" height="3.5083" ry="0.0500" fill="currentColor"/>
</g>
<g transform="translate(67.6059, 52.2689)">
<text font-family="Hiragino Sans GB" font-size="1.9604" text-anchor="start" fill="currentColor">
<tspan>D</tspan>
</text>
</g>
<g transform="translate(67.6059, 59.0203)">
<path transform="scale(0.0040, -0.0040)" d="M212 138c68 0 113 -38 113 -95c0 -90 -109 -181 -212 -181c-68 0 -113 38 -113 95c0 90 109 181 212 181z" fill="currentColor"/>
</g>
<g transform="translate(67.0186, 64.0294)">
<text font-family="Songti SC" font-size="2.4697" text-anchor="start" fill="currentColor">
<tspan>并</tspan>
</text>
</g>
<g transform="translate(67.6815, 58.5203)">
<rect x="-0.0757" y="0.6713" width="0.1514" height="2.1433" ry="0.0500" fill="currentColor"/>
</g>
<g transform="translate(86.4995, 61.3386)">
<polygon stroke-linejoin="round" stroke-linecap="round" stroke-width="0.1000" fill="currentColor" stroke="currentColor" points="12.7653 -1.0082 12.7653 -0.6282 0.0500 0.1900 0.0500 -0.1900"/>
</g>
<g transform="translate(71.9938, 58.0203)">
<path transform="scale(0.0040, -0.0040)" d="M212 138c68 0 113 -38 113 -95c0 -90 -109 -181 -212 -181c-68 0 -113 38 -113 95c0 90 109 181 212 181z" fill="currentColor"/>
</g>
<g transform="translate(71.4065, 64.0294)">
<text font-family="Songti SC" font-size="2.4697" text-anchor="start" fill="currentColor">
<tspan>呼</tspan>
</text>
</g>
<g transform="translate(72.0695, 58.5203)">
<rect x="-0.0757" y="-0.3287" width="0.1514" height="2.9327" ry="0.0500" fill="currentColor"/>
</g>
<g transform="translate(74.9192, 57.5203)">
<path transform="scale(0.0040, -0.0040)" d="M212 138c68 0 113 -38 113 -95c0 -90 -109 -181 -212 -181c-68 0 -113 38 -113 95c0 90 109 181 212 181z" fill="currentColor"/>
</g>
<g transform="translate(74.3319, 64.0294)">
<text font-family="Songti SC" font-size="2.4697" text-anchor="start" fill="currentColor">
<tspan>吸</tspan>
</text>
</g>
<g transform="translate(76.6615, 57.0203)">
<path transform="scale(0.0040, -0.0040)" d="M0 0c0 30 25 55 55 55s55 -25 55 -55s-25 -55 -55 -55s-55 25 -55 55z" fill="currentColor"/>
</g>
<g transform="translate(74.9949, 58.5203)">
<rect x="-0.0757" y="-0.8287" width="0.1514" height="3.2923" ry="0.0500" fill="currentColor"/>
</g>
<g transform="translate(80.7168, 58.0203)">
<path transform="scale(0.0040, -0.0040)" d="M212 138c68 0 113 -38 113 -95c0 -90 -109 -181 -212 -181c-68 0 -113 38 -113 95c0 90 109 181 212 181z" fill="currentColor"/>
</g>
<g transform="translate(78.8918, 64.0294)">
<text font-family="Songti SC" font-size="2.4697" text-anchor="start" fill="currentColor">
<tspan>主；</tspan>
</text>
</g>
<g transform="translate(80.7925, 58.5203)">
<rect x="-0.0757" y="-0.3287" width="0.1514" height="2.5141" ry="0.0500" fill="currentColor"/>
</g>
<g transform="translate(86.4995, 59.0203)">
<path transform="scale(0.0040, -0.0040)" d="M212 138c68 0 113 -38 113 -95c0 -90 -109 -181 -212 -181c-68 0 -113 38 -113 95c0 90 109 181 212 181z" fill="currentColor"/>
</g>
<g transform="translate(85.9122, 64.0294)">
<text font-family="Songti SC" font-size="2.4697" text-anchor="start" fill="currentColor">
<tspan>我</tspan>
</text>
</g>
<g transform="translate(86.5752, 58.5203)">
<rect x="-0.0757" y="0.6713" width="0.1514" height="2.1421" ry="0.0500" fill="currentColor"/>
</g>
<g transform="translate(71.9938, 60.3098)">
<polygon stroke-linejoin="round" stroke-linecap="round" stroke-width="0.1000" fill="currentColor" stroke="currentColor" points="1.1257 -0.2464 1.1257 0.1336 0.0500 0.1900 0.0500 -0.1900"/>
</g>
<g transform="translate(67.6059, 61.3386)">
<polygon stroke-linejoin="round" stroke-linecap="round" stroke-width="0.1000" fill="currentColor" stroke="currentColor" points="13.2123 -0.8264 13.2123 -0.4464 0.0500 0.1900 0.0500 -0.1900"/>
</g>
<g transform="translate(90.8874, 58.0203)">
<path transform="scale(0.0040, -0.0040)" d="M212 138c68 0 113 -38 113 -95c0 -90 -109 -181 -212 -181c-68 0 -113 38 -113 95c0 90 109 181 212 181z" fill="currentColor"/>
</g>
<g transform="translate(90.8874, 64.0294)">
<text font-family="Songti SC" font-size="2.4697" text-anchor="start" fill="currentColor">
<tspan>爱</tspan>
</text>
</g>
<g transform="translate(90.9631, 58.5203)">
<rect x="-0.0757" y="-0.3287" width="0.1514" height="2.8619" ry="0.0500" fill="currentColor"/>
</g>
<g transform="translate(95.0254, 58.0203)">
<path transform="scale(0.0040, -0.0040)" d="M212 138c68 0 113 -38 113 -95c0 -90 -109 -181 -212 -181c-68 0 -113 38 -113 95c0 90 109 181 212 181z" fill="currentColor"/>
</g>
<g transform="translate(95.1011, 58.5203)">
<rect x="-0.0757" y="-0.3287" width="0.1514" height="2.5977" ry="0.0500" fill="currentColor"/>
</g>
<g transform="translate(99.1634, 57.5203)">
<path transform="scale(0.0040, -0.0040)" d="M212 138c68 0 113 -38 113 -95c0 -90 -109 -181 -212 -181c-68 0 -113 38 -113 95c0 90 109 181 212 181z" fill="currentColor"/>
</g>
<g transform="translate(98.5761, 64.0294)">
<text font-family="Songti SC" font-size="2.4697" text-anchor="start" fill="currentColor">
<tspan>召</tspan>
</text>
</g>
<g transform="translate(99.2391, 58.5203)">
<rect x="-0.0757" y="-0.8287" width="0.1514" height="2.8335" ry="0.0500" fill="currentColor"/>
</g>
<g transform="translate(103.1360, 52.2689)">
<text font-family="Hiragino Sans GB" font-size="1.9604" text-anchor="start" fill="currentColor">
<tspan>B</tspan>
</text>
</g>
<g transform="translate(104.5444, 52.2689)">
<text font-family="Hiragino Sans GB" font-size="1.9604" text-anchor="start" fill="currentColor">
<tspan>m</tspan>
</text>
</g>
<g transform="translate(103.1360, 59.0203)">
<path transform="scale(0.0040, -0.0040)" d="M212 138c68 0 113 -38 113 -95c0 -90 -109 -181 -212 -181c-68 0 -113 38 -113 95c0 90 109 181 212 181z" fill="currentColor"/>
</g>
<g transform="translate(102.5487, 64.0294)">
<text font-family="Songti SC" font-size="2.4697" text-anchor="start" fill="currentColor">
<tspan>会</tspan>
</text>
</g>
<g transform="translate(104.3612, 58.5203)">
<rect x="-0.0757" y="-2.1786" width="0.1514" height="2.5072" ry="0.0500" fill="currentColor"/>
</g>
<g transform="translate(107.2740, 59.5203)">
<path transform="scale(0.0040, -0.0040)" d="M212 138c68 0 113 -38 113 -95c0 -90 -109 -181 -212 -181c-68 0 -113 38 -113 95c0 90 109 181 212 181z" fill="currentColor"/>
</g>
<g transform="translate(106.6867, 64.0294)">
<text font-family="Songti SC" font-size="2.4697" text-anchor="start" fill="currentColor">
<tspan>生</tspan>
</text>
</g>
<g transform="translate(108.4991, 58.5203)">
<rect x="-0.0757" y="-2.0032" width="0.1514" height="2.8319" ry="0.0500" fill="currentColor"/>
</g>
<g transform="translate(51.8093, 56.7021)">
<polygon stroke-linejoin="round" stroke-linecap="round" stroke-width="0.1000" fill="currentColor" stroke="currentColor" points="12.8155 -0.5536 12.8155 -0.1736 0.0500 0.1900 0.0500 -0.1900"/>
</g>
<g transform="translate(111.4371, 60.0203)">
<path transform="scale(0.0040, -0.0040)" d="M212 138c68 0 113 -38 113 -95c0 -90 -109 -181 -212 -181c-68 0 -113 38 -113 95c0 90 109 181 212 181z" fill="currentColor"/>
</g>
<g transform="translate(109.6121, 64.0294)">
<text font-family="Songti SC" font-size="2.4697" text-anchor="start" fill="currentColor">
<tspan>活，</tspan>
</text>
</g>
<g transform="translate(112.6622, 58.5203)">
<rect x="-0.0757" y="-2.0000" width="0.1514" height="3.3287" ry="0.0500" fill="currentColor"/>
</g>
<g transform="translate(120.3851, 52.2689)">
<text font-family="Hiragino Sans GB" font-size="1.9604" text-anchor="start" fill="currentColor">
<tspan>E</tspan>
</text>
</g>
<g transform="translate(121.6654, 51.3780)">
<text font-family="Hiragino Sans GB" font-size="1.3856" text-anchor="start" fill="currentColor">
<tspan>7</tspan>
</text>
</g>
<g transform="translate(120.3851, 59.5203)">
<path transform="scale(0.0040, -0.0040)" d="M212 138c68 0 113 -38 113 -95c0 -90 -109 -181 -212 -181c-68 0 -113 38 -113 95c0 90 109 181 212 181z" fill="currentColor"/>
</g>
<g transform="translate(119.7978, 64.0294)">
<text font-family="Songti SC" font-size="2.4697" text-anchor="start" fill="currentColor">
<tspan>接</tspan>
</text>
</g>
<g transform="translate(121.6102, 58.5203)">
<rect x="-0.0757" y="-2.0011" width="0.1514" height="2.8298" ry="0.0500" fill="currentColor"/>
</g>
<g transform="translate(124.5230, 59.5203)">
<path transform="scale(0.0040, -0.0040)" d="M212 138c68 0 113 -38 113 -95c0 -90 -109 -181 -212 -181c-68 0 -113 38 -113 95c0 90 109 181 212 181z" fill="currentColor"/>
</g>
<g transform="translate(123.9357, 64.0294)">
<text font-family="Songti SC" font-size="2.4697" text-anchor="start" fill="currentColor">
<tspan>受</tspan>
</text>
</g>
<g transform="translate(125.7482, 58.5203)">
<rect x="-0.0757" y="-2.0610" width="0.1514" height="2.8896" ry="0.0500" fill="currentColor"/>
</g>
<g transform="translate(34.5603, 56.3386)">
<polygon stroke-linejoin="round" stroke-linecap="round" stroke-width="0.1000" fill="currentColor" stroke="currentColor" points="4.2393 -0.0082 4.2393 0.3718 0.0500 0.1900 0.0500 -0.1900"/>
</g>
<g transform="translate(128.6610, 59.5203)">
<path transform="scale(0.0040, -0.0040)" d="M212 138c68 0 113 -38 113 -95c0 -90 -109 -181 -212 -181c-68 0 -113 38 -113 95c0 90 109 181 212 181z" fill="currentColor"/>
</g>
<g transform="translate(128.0737, 64.0294)">
<text font-family="Songti SC" font-size="2.4697" text-anchor="start" fill="currentColor">
<tspan>神</tspan>
</text>
</g>
<g transform="translate(129.8861, 58.5203)">
<rect x="-0.0757" y="-2.1208" width="0.1514" height="2.9495" ry="0.0500" fill="currentColor"/>
</g>
<g transform="translate(132.7989, 59.0203)">
<path transform="scale(0.0040, -0.0040)" d="M212 138c68 0 113 -38 113 -95c0 -90 -109 -181 -212 -181c-68 0 -113 38 -113 95c0 90 109 181 212 181z" fill="currentColor"/>
</g>
<g transform="translate(132.2117, 64.0294)">
<text font-family="Songti SC" font-size="2.4697" text-anchor="start" fill="currentColor">
<tspan>的</tspan>
</text>
</g>
<g transform="translate(134.0241, 58.5203)">
<rect x="-0.0757" y="-2.1807" width="0.1514" height="2.5094" ry="0.0500" fill="currentColor"/>
</g>
<g transform="translate(136.9369, 52.2689)">
<text font-family="Hiragino Sans GB" font-size="1.9604" text-anchor="start" fill="currentColor">
<tspan>A</tspan>
</text>
</g>
<g transform="translate(138.3880, 51.3780)">
<text font-family="Hiragino Sans GB" font-size="1.3856" text-anchor="start" fill="currentColor">
<tspan>7</tspan>
</text>
</g>
<g transform="translate(136.9369, 59.5203)">
<path transform="scale(0.0040, -0.0040)" d="M310 63c0 22 -17 40 -40 40c-38 0 -197 -107 -224 -139c-7 -8 -10 -17 -10 -27c0 -22 17 -40 40 -40c38 0 197 107 224 139c7 8 10 17 10 27zM256 138c55 0 90 -22 90 -77c0 -25 -15 -112 -73 -151c-34 -23 -92 -48 -183 -48c-55 0 -90 22 -90 77c0 25 15 112 73 151
c34 23 92 48 183 48z" fill="currentColor"/>
</g>
<g transform="translate(135.1535, 64.0294)">
<text font-family="Songti SC" font-size="2.4697" text-anchor="start" fill="currentColor">
<tspan>话。</tspan>
</text>
</g>
<g transform="translate(138.2451, 58.5203)">
<rect x="-0.0757" y="-2.5000" width="0.1514" height="3.2544" ry="0.0500" fill="currentColor"/>
</g>
<g transform="translate(16.7743, 61.3386)">
<polygon stroke-linejoin="round" stroke-linecap="round" stroke-width="0.1000" fill="currentColor" stroke="currentColor" points="12.7653 -1.0082 12.7653 -0.6282 0.0500 0.1900 0.0500 -0.1900"/>
</g>
<g transform="translate(48.6450, 70.5203)">
<rect x="0.0000" y="-2.0000" width="0.2212" height="4.0000" ry="0.0000" fill="currentColor"/>
</g>
<g transform="translate(9.0337, 72.5203)">
<line stroke-linejoin="round" stroke-linecap="round" stroke-width="0.1164" stroke="currentColor" x1="0.0582" y1="0" x2="138.1582" y2="0"/>
</g>
<g transform="translate(9.0337, 71.5203)">
<line stroke-linejoin="round" stroke-linecap="round" stroke-width="0.1164" stroke="currentColor" x1="0.0582" y1="0" x2="138.1582" y2="0"/>
</g>
<g transform="translate(9.0337, 70.5203)">
<line stroke-linejoin="round" stroke-linecap="round" stroke-width="0.1164" stroke="currentColor" x1="0.0582" y1="0" x2="138.1582" y2="0"/>
</g>
<g transform="translate(9.0337, 69.5203)">
<line stroke-linejoin="round" stroke-linecap="round" stroke-width="0.1164" stroke="currentColor" x1="0.0582" y1="0" x2="138.1582" y2="0"/>
</g>
<g transform="translate(9.0337, 68.5203)">
<line stroke-linejoin="round" stroke-linecap="round" stroke-width="0.1164" stroke="currentColor" x1="0.0582" y1="0" x2="138.1582" y2="0"/>
</g>
<g transform="translate(146.5516, 70.5203)">
<rect x="0.0000" y="-2.0000" width="0.6986" height="4.0000" ry="0.0000" fill="currentColor"/>
</g>
<g transform="translate(145.9811, 70.5203)">
<rect x="0.0000" y="-2.0000" width="0.2212" height="4.0000" ry="0.0000" fill="currentColor"/>
</g>
<g transform="translate(117.8374, 70.5203)">
<rect x="0.0000" y="-2.0000" width="0.2212" height="4.0000" ry="0.0000" fill="currentColor"/>
</g>
<g transform="translate(84.1706, 70.5203)">
<rect x="0.0000" y="-2.0000" width="0.2212" height="4.0000" ry="0.0000" fill="currentColor"/>
</g>
<g transform="translate(21.1223, 70.5203)">
<path stroke-width="0.0931" stroke-linejoin="round" stroke-linecap="round" stroke="currentColor" fill="currentColor" d="M0.8504 -1.2250C1.5976 -1.9911 3.8012 -1.9911 4.5484 -1.2250L4.5484 -1.2250C3.8012 -1.8514 1.5976 -1.8514 0.8504 -1.2250z"/>
</g>
<g transform="translate(9.8338, 71.5203)">
<path transform="scale(0.0040, -0.0040)" d="M647 2c0 -114 -75 -214 -180 -248c3 -33 4 -66 4 -99c0 -21 0 -41 -1 -62c-7 -122 -92 -229 -211 -229c-108 0 -196 88 -196 197c0 58 54 103 113 103c54 0 95 -47 95 -103c0 -52 -43 -95 -95 -95c-9 0 -18 1 -27 4c25 -37 66 -61 113 -61c93 0 156 91 162 191
c1 19 2 38 2 57c0 29 -1 58 -3 87c-5 -1 -44 -8 -88 -8c-194 0 -333 181 -333 376c0 177 129 308 244 443c-34 103 -55 171 -55 347c0 114 54 221 147 288c8 6 18 5 25 -1c68 -79 135 -242 135 -356c0 -142 -84 -255 -176 -364c21 -68 40 -136 57 -205c1 0 5 1 10 1
c157 0 258 -129 258 -263zM463 -201c64 24 110 88 110 161c0 88 -64 175 -167 188c28 -133 49 -269 57 -349zM77 25c0 -144 141 -243 261 -243c1 0 46 -1 81 5c-7 66 -27 208 -60 362c-79 -8 -124 -60 -124 -118c0 -43 25 -88 80 -120c5 -5 7 -11 7 -17
c0 -12 -10 -23 -23 -23c-16 0 -128 62 -128 188c0 89 60 177 163 200c-14 57 -30 113 -47 169c-105 -122 -210 -243 -210 -403zM242 784c0 -39 10 -95 39 -188c78 97 142 199 142 324c0 33 0 60 -20 118c-99 -46 -161 -145 -161 -254z" fill="currentColor"/>
</g>
<g transform="translate(13.4743, 70.5203)">
<path transform="scale(0.0040, -0.0040)" d="M31 37l-2 -62v-11c0 -22 2 -43 5 -64c43 38 89 80 89 137c0 32 -14 65 -42 65c-31 0 -49 -32 -50 -65zM-30 450c9 5 20 8 30 8s21 -3 30 -8l-8 -340c25 24 59 38 94 38c50 0 84 -50 84 -104c0 -78 -83 -117 -141 -169c-17 -15 -25 -44 -49 -44c-15 0 -26 13 -26 29z" fill="currentColor"/>
</g>
<g transform="translate(7.4119, 67.5472)">
<text font-family="Songti SC" font-size="1.7463" text-anchor="start" fill="currentColor">
<tspan>13</tspan>
</text>
</g>
<g transform="translate(16.7743, 67.5966)">
<text font-family="Hiragino Sans GB" font-size="1.9604" text-anchor="start" fill="currentColor">
<tspan>D</tspan>
</text>
</g>
<g transform="translate(16.7743, 71.0203)">
<path transform="scale(0.0040, -0.0040)" d="M212 138c68 0 113 -38 113 -95c0 -90 -109 -181 -212 -181c-68 0 -113 38 -113 95c0 90 109 181 212 181z" fill="currentColor"/>
</g>
<g transform="translate(16.1870, 76.0203)">
<text font-family="Songti SC" font-size="2.4697" text-anchor="start" fill="currentColor">
<tspan>我</tspan>
</text>
</g>
<g transform="translate(16.8500, 70.5203)">
<rect x="-0.0757" y="0.6713" width="0.1514" height="2.1420" ry="0.0500" fill="currentColor"/>
</g>
<g transform="translate(21.1223, 70.0203)">
<path transform="scale(0.0040, -0.0040)" d="M212 138c68 0 113 -38 113 -95c0 -90 -109 -181 -212 -181c-68 0 -113 38 -113 95c0 90 109 181 212 181z" fill="currentColor"/>
</g>
<g transform="translate(21.1223, 76.0203)">
<text font-family="Songti SC" font-size="2.4697" text-anchor="start" fill="currentColor">
<tspan>爱</tspan>
</text>
</g>
<g transform="translate(21.1980, 70.5203)">
<rect x="-0.0757" y="-0.3287" width="0.1514" height="2.8618" ry="0.0500" fill="currentColor"/>
</g>
<g transform="translate(25.2203, 70.0203)">
<path transform="scale(0.0040, -0.0040)" d="M212 138c68 0 113 -38 113 -95c0 -90 -109 -181 -212 -181c-68 0 -113 38 -113 95c0 90 109 181 212 181z" fill="currentColor"/>
</g>
<g transform="translate(25.2960, 70.5203)">
<rect x="-0.0757" y="-0.3287" width="0.1514" height="2.5977" ry="0.0500" fill="currentColor"/>
</g>
<g transform="translate(120.7071, 68.3386)">
<polygon stroke-linejoin="round" stroke-linecap="round" stroke-width="0.1000" fill="currentColor" stroke="currentColor" points="12.3954 0.1736 12.3954 0.5536 0.0500 0.1900 0.0500 -0.1900"/>
</g>
<g transform="translate(29.3183, 69.5203)">
<path transform="scale(0.0040, -0.0040)" d="M212 138c68 0 113 -38 113 -95c0 -90 -109 -181 -212 -181c-68 0 -113 38 -113 95c0 90 109 181 212 181z" fill="currentColor"/>
</g>
<g transform="translate(28.7310, 76.0203)">
<text font-family="Songti SC" font-size="2.4697" text-anchor="start" fill="currentColor">
<tspan>听</tspan>
</text>
</g>
<g transform="translate(29.3940, 70.5203)">
<rect x="-0.0757" y="-0.8287" width="0.1514" height="2.8335" ry="0.0500" fill="currentColor"/>
</g>
<g transform="translate(33.2510, 71.0203)">
<path transform="scale(0.0040, -0.0040)" d="M212 138c68 0 113 -38 113 -95c0 -90 -109 -181 -212 -181c-68 0 -113 38 -113 95c0 90 109 181 212 181z" fill="currentColor"/>
</g>
<g transform="translate(32.6637, 76.0203)">
<text font-family="Songti SC" font-size="2.4697" text-anchor="start" fill="currentColor">
<tspan>见</tspan>
</text>
</g>
<g transform="translate(34.4761, 70.5203)">
<rect x="-0.0757" y="-2.1785" width="0.1514" height="2.5072" ry="0.0500" fill="currentColor"/>
</g>
<g transform="translate(37.3490, 71.5203)">
<path transform="scale(0.0040, -0.0040)" d="M212 138c68 0 113 -38 113 -95c0 -90 -109 -181 -212 -181c-68 0 -113 38 -113 95c0 90 109 181 212 181z" fill="currentColor"/>
</g>
<g transform="translate(36.7617, 76.0203)">
<text font-family="Songti SC" font-size="2.4697" text-anchor="start" fill="currentColor">
<tspan>呼</tspan>
</text>
</g>
<g transform="translate(38.5742, 70.5203)">
<rect x="-0.0757" y="-2.0032" width="0.1514" height="2.8319" ry="0.0500" fill="currentColor"/>
</g>
<g transform="translate(41.5121, 72.0203)">
<path transform="scale(0.0040, -0.0040)" d="M212 138c68 0 113 -38 113 -95c0 -90 -109 -181 -212 -181c-68 0 -113 38 -113 95c0 90 109 181 212 181z" fill="currentColor"/>
</g>
<g transform="translate(39.6871, 76.0203)">
<text font-family="Songti SC" font-size="2.4697" text-anchor="start" fill="currentColor">
<tspan>喊：</tspan>
</text>
</g>
<g transform="translate(42.7372, 70.5203)">
<rect x="-0.0757" y="-2.0000" width="0.1514" height="3.3287" ry="0.0500" fill="currentColor"/>
</g>
<g transform="translate(103.5929, 68.3386)">
<polygon stroke-linejoin="round" stroke-linecap="round" stroke-width="0.1000" fill="currentColor" stroke="currentColor" points="4.1994 -0.0082 4.1994 0.3718 0.0500 0.1900 0.0500 -0.1900"/>
</g>
<g transform="translate(50.3652, 67.5966)">
<text font-family="Hiragino Sans GB" font-size="1.9604" text-anchor="start" fill="currentColor">
<tspan>G</tspan>
</text>
</g>
<g transform="translate(50.3652, 73.0203)">
<path transform="scale(0.0040, -0.0040)" d="M212 138c68 0 113 -38 113 -95c0 -90 -109 -181 -212 -181c-68 0 -113 38 -113 95c0 90 109 181 212 181z" fill="currentColor"/>
</g>
<g transform="translate(49.7779, 76.0203)">
<text font-family="Songti SC" font-size="2.4697" text-anchor="start" fill="currentColor">
<tspan>哦</tspan>
</text>
</g>
<g transform="translate(51.5903, 70.5203)">
<rect x="-0.0757" y="-1.8204" width="0.1514" height="4.1490" ry="0.0500" fill="currentColor"/>
</g>
<g transform="translate(54.7132, 72.0203)">
<path transform="scale(0.0040, -0.0040)" d="M212 138c68 0 113 -38 113 -95c0 -90 -109 -181 -212 -181c-68 0 -113 38 -113 95c0 90 109 181 212 181z" fill="currentColor"/>
</g>
<g transform="translate(52.8882, 76.0203)">
<text font-family="Songti SC" font-size="2.4697" text-anchor="start" fill="currentColor">
<tspan>主，</tspan>
</text>
</g>
<g transform="translate(55.9384, 70.5203)">
<rect x="-0.0757" y="-1.9436" width="0.1514" height="3.2723" ry="0.0500" fill="currentColor"/>
</g>
<g transform="translate(58.8763, 71.5203)">
<path transform="scale(0.0040, -0.0040)" d="M212 138c68 0 113 -38 113 -95c0 -90 -109 -181 -212 -181c-68 0 -113 38 -113 95c0 90 109 181 212 181z" fill="currentColor"/>
</g>
<g transform="translate(58.2890, 76.0203)">
<text font-family="Songti SC" font-size="2.4697" text-anchor="start" fill="currentColor">
<tspan>阿</tspan>
</text>
</g>
<g transform="translate(60.1014, 70.5203)">
<rect x="-0.0757" y="-2.0616" width="0.1514" height="2.8903" ry="0.0500" fill="currentColor"/>
</g>
<g transform="translate(90.3147, 70.5203)">
<path stroke-width="0.0931" stroke-linejoin="round" stroke-linecap="round" stroke="currentColor" fill="currentColor" d="M0.8504 -1.2250C1.5976 -1.9911 3.8012 -1.9911 4.5484 -1.2250L4.5484 -1.2250C3.8012 -1.8514 1.5976 -1.8514 0.8504 -1.2250z"/>
</g>
<g transform="translate(63.0394, 72.0203)">
<path transform="scale(0.0040, -0.0040)" d="M212 138c68 0 113 -38 113 -95c0 -90 -109 -181 -212 -181c-68 0 -113 38 -113 95c0 90 109 181 212 181z" fill="currentColor"/>
</g>
<g transform="translate(61.2144, 76.0203)">
<text font-family="Songti SC" font-size="2.4697" text-anchor="start" fill="currentColor">
<tspan>们，</tspan>
</text>
</g>
<g transform="translate(64.2645, 70.5203)">
<rect x="-0.0757" y="-2.1796" width="0.1514" height="3.5083" ry="0.0500" fill="currentColor"/>
</g>
<g transform="translate(67.2313, 67.5966)">
<text font-family="Hiragino Sans GB" font-size="1.9604" text-anchor="start" fill="currentColor">
<tspan>D</tspan>
</text>
</g>
<g transform="translate(67.2313, 71.0203)">
<path transform="scale(0.0040, -0.0040)" d="M212 138c68 0 113 -38 113 -95c0 -90 -109 -181 -212 -181c-68 0 -113 38 -113 95c0 90 109 181 212 181z" fill="currentColor"/>
</g>
<g transform="translate(66.6440, 76.0203)">
<text font-family="Songti SC" font-size="2.4697" text-anchor="start" fill="currentColor">
<tspan>阿</tspan>
</text>
</g>
<g transform="translate(67.3070, 70.5203)">
<rect x="-0.0757" y="0.6713" width="0.1514" height="2.1432" ry="0.0500" fill="currentColor"/>
</g>
<g transform="translate(85.9667, 73.3386)">
<polygon stroke-linejoin="round" stroke-linecap="round" stroke-width="0.1000" fill="currentColor" stroke="currentColor" points="12.6454 -1.0082 12.6454 -0.6282 0.0500 0.1900 0.0500 -0.1900"/>
</g>
<g transform="translate(71.5793, 70.0203)">
<path transform="scale(0.0040, -0.0040)" d="M212 138c68 0 113 -38 113 -95c0 -90 -109 -181 -212 -181c-68 0 -113 38 -113 95c0 90 109 181 212 181z" fill="currentColor"/>
</g>
<g transform="translate(70.9920, 76.0203)">
<text font-family="Songti SC" font-size="2.4697" text-anchor="start" fill="currentColor">
<tspan>利</tspan>
</text>
</g>
<g transform="translate(71.6550, 70.5203)">
<rect x="-0.0757" y="-0.3287" width="0.1514" height="2.9329" ry="0.0500" fill="currentColor"/>
</g>
<g transform="translate(74.5047, 69.5203)">
<path transform="scale(0.0040, -0.0040)" d="M212 138c68 0 113 -38 113 -95c0 -90 -109 -181 -212 -181c-68 0 -113 38 -113 95c0 90 109 181 212 181z" fill="currentColor"/>
</g>
<g transform="translate(73.9174, 76.0203)">
<text font-family="Songti SC" font-size="2.4697" text-anchor="start" fill="currentColor">
<tspan>路</tspan>
</text>
</g>
<g transform="translate(76.2470, 69.0203)">
<path transform="scale(0.0040, -0.0040)" d="M0 0c0 30 25 55 55 55s55 -25 55 -55s-25 -55 -55 -55s-55 25 -55 55z" fill="currentColor"/>
</g>
<g transform="translate(74.5804, 70.5203)">
<rect x="-0.0757" y="-0.8287" width="0.1514" height="3.2914" ry="0.0500" fill="currentColor"/>
</g>
<g transform="translate(80.2389, 70.0203)">
<path transform="scale(0.0040, -0.0040)" d="M212 138c68 0 113 -38 113 -95c0 -90 -109 -181 -212 -181c-68 0 -113 38 -113 95c0 90 109 181 212 181z" fill="currentColor"/>
</g>
<g transform="translate(78.4140, 76.0203)">
<text font-family="Songti SC" font-size="2.4697" text-anchor="start" fill="currentColor">
<tspan>亚！</tspan>
</text>
</g>
<g transform="translate(80.3146, 70.5203)">
<rect x="-0.0757" y="-0.3287" width="0.1514" height="2.5141" ry="0.0500" fill="currentColor"/>
</g>
<g transform="translate(85.9667, 71.0203)">
<path transform="scale(0.0040, -0.0040)" d="M212 138c68 0 113 -38 113 -95c0 -90 -109 -181 -212 -181c-68 0 -113 38 -113 95c0 90 109 181 212 181z" fill="currentColor"/>
</g>
<g transform="translate(85.3794, 76.0203)">
<text font-family="Songti SC" font-size="2.4697" text-anchor="start" fill="currentColor">
<tspan>我</tspan>
</text>
</g>
<g transform="translate(71.5793, 72.3101)">
<polygon stroke-linejoin="round" stroke-linecap="round" stroke-width="0.1000" fill="currentColor" stroke="currentColor" points="1.1257 -0.2469 1.1257 0.1331 0.0500 0.1900 0.0500 -0.1900"/>
</g>
<g transform="translate(67.2313, 73.3386)">
<polygon stroke-linejoin="round" stroke-linecap="round" stroke-width="0.1000" fill="currentColor" stroke="currentColor" points="13.1090 -0.8264 13.1090 -0.4464 0.0500 0.1900 0.0500 -0.1900"/>
</g>
<g transform="translate(90.3147, 70.0203)">
<path transform="scale(0.0040, -0.0040)" d="M212 138c68 0 113 -38 113 -95c0 -90 -109 -181 -212 -181c-68 0 -113 38 -113 95c0 90 109 181 212 181z" fill="currentColor"/>
</g>
<g transform="translate(90.3147, 76.0203)">
<text font-family="Songti SC" font-size="2.4697" text-anchor="start" fill="currentColor">
<tspan>爱</tspan>
</text>
</g>
<g transform="translate(90.3904, 70.5203)">
<rect x="-0.0757" y="-0.3287" width="0.1514" height="2.8618" ry="0.0500" fill="currentColor"/>
</g>
<g transform="translate(94.4127, 70.0203)">
<path transform="scale(0.0040, -0.0040)" d="M212 138c68 0 113 -38 113 -95c0 -90 -109 -181 -212 -181c-68 0 -113 38 -113 95c0 90 109 181 212 181z" fill="currentColor"/>
</g>
<g transform="translate(94.4884, 70.5203)">
<rect x="-0.0757" y="-0.3287" width="0.1514" height="2.5977" ry="0.0500" fill="currentColor"/>
</g>
<g transform="translate(98.5107, 69.5203)">
<path transform="scale(0.0040, -0.0040)" d="M212 138c68 0 113 -38 113 -95c0 -90 -109 -181 -212 -181c-68 0 -113 38 -113 95c0 90 109 181 212 181z" fill="currentColor"/>
</g>
<g transform="translate(97.9234, 76.0203)">
<text font-family="Songti SC" font-size="2.4697" text-anchor="start" fill="currentColor">
<tspan>召</tspan>
</text>
</g>
<g transform="translate(98.5864, 70.5203)">
<rect x="-0.0757" y="-0.8287" width="0.1514" height="2.8335" ry="0.0500" fill="currentColor"/>
</g>
<g transform="translate(102.4434, 67.5966)">
<text font-family="Hiragino Sans GB" font-size="1.9604" text-anchor="start" fill="currentColor">
<tspan>B</tspan>
</text>
</g>
<g transform="translate(103.8518, 67.5966)">
<text font-family="Hiragino Sans GB" font-size="1.9604" text-anchor="start" fill="currentColor">
<tspan>m</tspan>
</text>
</g>
<g transform="translate(102.4434, 71.0203)">
<path transform="scale(0.0040, -0.0040)" d="M212 138c68 0 113 -38 113 -95c0 -90 -109 -181 -212 -181c-68 0 -113 38 -113 95c0 90 109 181 212 181z" fill="currentColor"/>
</g>
<g transform="translate(101.8561, 76.0203)">
<text font-family="Songti SC" font-size="2.4697" text-anchor="start" fill="currentColor">
<tspan>会</tspan>
</text>
</g>
<g transform="translate(103.6686, 70.5203)">
<rect x="-0.0757" y="-2.1785" width="0.1514" height="2.5072" ry="0.0500" fill="currentColor"/>
</g>
<g transform="translate(106.5414, 71.5203)">
<path transform="scale(0.0040, -0.0040)" d="M212 138c68 0 113 -38 113 -95c0 -90 -109 -181 -212 -181c-68 0 -113 38 -113 95c0 90 109 181 212 181z" fill="currentColor"/>
</g>
<g transform="translate(105.9541, 76.0203)">
<text font-family="Songti SC" font-size="2.4697" text-anchor="start" fill="currentColor">
<tspan>生</tspan>
</text>
</g>
<g transform="translate(107.7666, 70.5203)">
<rect x="-0.0757" y="-2.0032" width="0.1514" height="2.8319" ry="0.0500" fill="currentColor"/>
</g>
<g transform="translate(51.5147, 68.7021)">
<polygon stroke-linejoin="round" stroke-linecap="round" stroke-width="0.1000" fill="currentColor" stroke="currentColor" points="12.7755 -0.5536 12.7755 -0.1736 0.0500 0.1900 0.0500 -0.1900"/>
</g>
<g transform="translate(110.7045, 72.0203)">
<path transform="scale(0.0040, -0.0040)" d="M212 138c68 0 113 -38 113 -95c0 -90 -109 -181 -212 -181c-68 0 -113 38 -113 95c0 90 109 181 212 181z" fill="currentColor"/>
</g>
<g transform="translate(108.8795, 76.0203)">
<text font-family="Songti SC" font-size="2.4697" text-anchor="start" fill="currentColor">
<tspan>活，</tspan>
</text>
</g>
<g transform="translate(111.9297, 70.5203)">
<rect x="-0.0757" y="-2.0000" width="0.1514" height="3.3287" ry="0.0500" fill="currentColor"/>
</g>
<g transform="translate(119.5576, 67.5966)">
<text font-family="Hiragino Sans GB" font-size="1.9604" text-anchor="start" fill="currentColor">
<tspan>E</tspan>
</text>
</g>
<g transform="translate(120.8380, 66.7057)">
<text font-family="Hiragino Sans GB" font-size="1.3856" text-anchor="start" fill="currentColor">
<tspan>7</tspan>
</text>
</g>
<g transform="translate(119.5576, 71.0203)">
<path transform="scale(0.0040, -0.0040)" d="M212 138c68 0 113 -38 113 -95c0 -90 -109 -181 -212 -181c-68 0 -113 38 -113 95c0 90 109 181 212 181z" fill="currentColor"/>
</g>
<g transform="translate(118.9703, 76.0203)">
<text font-family="Songti SC" font-size="2.4697" text-anchor="start" fill="currentColor">
<tspan>与</tspan>
</text>
</g>
<g transform="translate(120.7828, 70.5203)">
<rect x="-0.0757" y="-2.1796" width="0.1514" height="2.5082" ry="0.0500" fill="currentColor"/>
</g>
<g transform="translate(123.6556, 71.0203)">
<path transform="scale(0.0040, -0.0040)" d="M212 138c68 0 113 -38 113 -95c0 -90 -109 -181 -212 -181c-68 0 -113 38 -113 95c0 90 109 181 212 181z" fill="currentColor"/>
</g>
<g transform="translate(123.0683, 76.0203)">
<text font-family="Songti SC" font-size="2.4697" text-anchor="start" fill="currentColor">
<tspan>主</tspan>
</text>
</g>
<g transform="translate(124.8808, 70.5203)">
<rect x="-0.0757" y="-2.0599" width="0.1514" height="2.3885" ry="0.0500" fill="currentColor"/>
</g>
<g transform="translate(34.4005, 68.3386)">
<polygon stroke-linejoin="round" stroke-linecap="round" stroke-width="0.1000" fill="currentColor" stroke="currentColor" points="4.1994 -0.0082 4.1994 0.3718 0.0500 0.1900 0.0500 -0.1900"/>
</g>
<g transform="translate(127.7536, 67.5966)">
<text font-family="Hiragino Sans GB" font-size="1.9604" text-anchor="start" fill="currentColor">
<tspan>A</tspan>
</text>
</g>
<g transform="translate(129.2047, 66.7057)">
<text font-family="Hiragino Sans GB" font-size="1.3856" text-anchor="start" fill="currentColor">
<tspan>7</tspan>
</text>
</g>
<g transform="translate(127.7536, 71.5203)">
<path transform="scale(0.0040, -0.0040)" d="M212 138c68 0 113 -38 113 -95c0 -90 -109 -181 -212 -181c-68 0 -113 38 -113 95c0 90 109 181 212 181z" fill="currentColor"/>
</g>
<g transform="translate(127.1663, 76.0203)">
<text font-family="Songti SC" font-size="2.4697" text-anchor="start" fill="currentColor">
<tspan>同</tspan>
</text>
</g>
<g transform="translate(128.9788, 70.5203)">
<rect x="-0.0757" y="-1.9401" width="0.1514" height="2.7688" ry="0.0500" fill="currentColor"/>
</g>
<g transform="translate(131.8516, 71.5203)">
<path transform="scale(0.0040, -0.0040)" d="M212 138c68 0 113 -38 113 -95c0 -90 -109 -181 -212 -181c-68 0 -113 38 -113 95c0 90 109 181 212 181z" fill="currentColor"/>
</g>
<g transform="translate(131.2644, 76.0203)">
<text font-family="Songti SC" font-size="2.4697" text-anchor="start" fill="currentColor">
<tspan>坐</tspan>
</text>
</g>
<g transform="translate(133.0768, 70.5203)">
<rect x="-0.0757" y="-1.8204" width="0.1514" height="2.6491" ry="0.0500" fill="currentColor"/>
</g>
<g transform="translate(135.9732, 67.5966)">
<text font-family="Hiragino Sans GB" font-size="1.9604" text-anchor="start" fill="currentColor">
<tspan>D</tspan>
</text>
</g>
<g transform="translate(135.9732, 72.0203)">
<path transform="scale(0.0040, -0.0040)" d="M310 63c0 22 -17 40 -40 40c-38 0 -197 -107 -224 -139c-7 -8 -10 -17 -10 -27c0 -22 17 -40 40 -40c38 0 197 107 224 139c7 8 10 17 10 27zM256 138c55 0 90 -22 90 -77c0 -25 -15 -112 -73 -151c-34 -23 -92 -48 -183 -48c-55 0 -90 22 -90 77c0 25 15 112 73 151
c34 23 92 48 183 48z" fill="currentColor"/>
</g>
<g transform="translate(134.1897, 76.0203)">
<text font-family="Songti SC" font-size="2.4697" text-anchor="start" fill="currentColor">
<tspan>席。</tspan>
</text>
</g>
<g transform="translate(137.2814, 70.5203)">
<rect x="-0.0757" y="-2.0000" width="0.1514" height="3.2544" ry="0.0500" fill="currentColor"/>
</g>
<g transform="translate(16.7743, 73.3386)">
<polygon stroke-linejoin="round" stroke-linecap="round" stroke-width="0.1000" fill="currentColor" stroke="currentColor" points="12.6454 -1.0082 12.6454 -0.6282 0.0500 0.1900 0.0500 -0.1900"/>
</g>
<g transform="translate(86.0424, 70.5203)">
<rect x="-0.0757" y="0.6713" width="0.1514" height="2.1420" ry="0.0500" fill="currentColor"/>
</g>
<g transform="translate(64.6114, 85.5203)">
<text font-family="Songti SC" font-weight="bold" font-size="2.2001" text-anchor="start" fill="currentColor">
<tspan>2.</tspan>
</text>
</g>
<g transform="translate(66.7052, 85.5203)">
<text font-family="Songti SC" font-size="2.2001" text-anchor="start" fill="currentColor">
<tspan>我们时常呼喊主名， </tspan>
</text>
</g>
<g transform="translate(66.7052, 88.5203)">
<text font-family="Songti SC" font-size="2.2001" text-anchor="start" fill="currentColor">
<tspan>享用祂丰富， </tspan>
</text>
</g>
<g transform="translate(66.7052, 91.5203)">
<text font-family="Songti SC" font-size="2.2001" text-anchor="start" fill="currentColor">
<tspan>祂就充满我们 </tspan>
</text>
</g>
<g transform="translate(66.7052, 94.5203)">
<text font-family="Songti SC" font-size="2.2001" text-anchor="start" fill="currentColor">
<tspan>全人里面每一部。 </tspan>
</text>
</g>
<g transform="translate(66.7052, 97.5203)">
<text font-family="Songti SC" font-size="2.2001" text-anchor="start" fill="currentColor">
<tspan>天天聚会，交通，歌颂， </tspan>
</text>
</g>
<g transform="translate(66.7052, 100.5203)">
<text font-family="Songti SC" font-size="2.2001" text-anchor="start" fill="currentColor">
<tspan>与圣徒一起， </tspan>
</text>
</g>
<g transform="translate(66.7052, 103.5203)">
<text font-family="Songti SC" font-size="2.2001" text-anchor="start" fill="currentColor">
<tspan>如此生活直到主来， </tspan>
</text>
</g>
<g transform="translate(66.7052, 106.5203)">
<text font-family="Songti SC" font-size="2.2001" text-anchor="start" fill="currentColor">
<tspan>活着同被提。 </tspan>
</text>
</g>
<g transform="translate(66.7052, 108.5203)">
<text font-family="Songti SC" font-size="1.5560" text-anchor="start" fill="currentColor">
<tspan> </tspan>
</text>
</g>
<g transform="translate(64.6114, 111.5203)">
<text font-family="Songti SC" font-weight="bold" font-size="2.2001" text-anchor="start" fill="currentColor">
<tspan>3.</tspan>
</text>
</g>
<g transform="translate(66.7052, 111.5203)">
<text font-family="Songti SC" font-size="2.2001" text-anchor="start" fill="currentColor">
<tspan>末后日子， </tspan>
</text>
</g>
<g transform="translate(66.7052, 114.5203)">
<text font-family="Songti SC" font-size="2.2001" text-anchor="start" fill="currentColor">
<tspan>社会生活处处是邪恶， </tspan>
</text>
</g>
<g transform="translate(66.7052, 117.5203)">
<text font-family="Songti SC" font-size="2.2001" text-anchor="start" fill="currentColor">
<tspan>使你觉得 </tspan>
</text>
</g>
<g transform="translate(66.7052, 120.5203)">
<text font-family="Songti SC" font-size="2.2001" text-anchor="start" fill="currentColor">
<tspan>好像跌落危险的漩涡； </tspan>
</text>
</g>
<g transform="translate(66.7052, 123.5203)">
<text font-family="Songti SC" font-size="2.2001" text-anchor="start" fill="currentColor">
<tspan>速速投入召会生活， </tspan>
</text>
</g>
<g transform="translate(66.7052, 126.5203)">
<text font-family="Songti SC" font-size="2.2001" text-anchor="start" fill="currentColor">
<tspan>倾听圣灵说：‘这是今日 </tspan>
</text>
</g>
<g transform="translate(66.7052, 129.5203)">
<text font-family="Songti SC" font-size="2.2001" text-anchor="start" fill="currentColor">
<tspan>地上惟一有福的生活。’ </tspan>
</text>
</g>
<g transform="translate(66.7052, 131.5203)">
<text font-family="Songti SC" font-size="1.5560" text-anchor="start" fill="currentColor">
<tspan> </tspan>
</text>
</g>
<g transform="translate(69.8408, 191.9677)">
<text font-family="Trebuchet MS" font-size="2.2001" text-anchor="start" fill="currentColor">
<tspan>www.hymnal.net</tspan>
</text>
</g>
</svg>
