<?xml version='1.0' encoding='UTF-8'?>
<svg xmlns="http://www.w3.org/2000/svg" xmlns:xlink="http://www.w3.org/1999/xlink" version="1.2" width="215.90mm" height="279.40mm" viewBox="0.0000 -0.0000 153.5737 198.7425">
<style type="text/css">

tspan { white-space: pre; }

</style>
<g transform="translate(68.7952, 9.7816)">
<text font-family="Songti SC" font-weight="bold" font-size="3.1113" text-anchor="start" fill="currentColor">
<tspan>我要释放基督</tspan>
</text>
</g>
<g transform="translate(72.5937, 13.2816)">
<text font-family="Songti SC" font-weight="bold" font-size="2.2001" text-anchor="start" fill="currentColor">
<tspan>教会的生活</tspan>
</text>
</g>
<g transform="translate(133.0807, 17.7775)">
<text font-family="Songti SC" font-size="5.8741" text-anchor="start" fill="currentColor">
<tspan>Cs727</tspan>
</text>
</g>
<g transform="translate(9.0337, 19.7195)">
<text font-family="Songti SC" font-weight="bold" font-style="italic" font-size="2.2001" text-anchor="start" fill="currentColor">
<tspan>(吉他)</tspan>
</text>
</g>
<g transform="translate(31.5360, 28.3448)">
<rect x="0.0000" y="-2.0000" width="0.2212" height="4.0000" ry="0.0000" fill="currentColor"/>
</g>
<g transform="translate(9.0337, 30.3448)">
<line stroke-linejoin="round" stroke-linecap="round" stroke-width="0.1164" stroke="currentColor" x1="0.0582" y1="0" x2="138.1582" y2="0"/>
</g>
<g transform="translate(9.0337, 29.3448)">
<line stroke-linejoin="round" stroke-linecap="round" stroke-width="0.1164" stroke="currentColor" x1="0.0582" y1="0" x2="138.1582" y2="0"/>
</g>
<g transform="translate(9.0337, 28.3448)">
<line stroke-linejoin="round" stroke-linecap="round" stroke-width="0.1164" stroke="currentColor" x1="0.0582" y1="0" x2="138.1582" y2="0"/>
</g>
<g transform="translate(9.0337, 27.3448)">
<line stroke-linejoin="round" stroke-linecap="round" stroke-width="0.1164" stroke="currentColor" x1="0.0582" y1="0" x2="138.1582" y2="0"/>
</g>
<g transform="translate(9.0337, 26.3448)">
<line stroke-linejoin="round" stroke-linecap="round" stroke-width="0.1164" stroke="currentColor" x1="0.0582" y1="0" x2="138.1582" y2="0"/>
</g>
<g transform="translate(147.0289, 28.3448)">
<rect x="0.0000" y="-2.0000" width="0.2212" height="4.0000" ry="0.0000" fill="currentColor"/>
</g>
<g transform="translate(108.5313, 28.3448)">
<rect x="0.0000" y="-2.0000" width="0.2212" height="4.0000" ry="0.0000" fill="currentColor"/>
</g>
<g transform="translate(70.0336, 28.3448)">
<rect x="0.0000" y="-2.0000" width="0.2212" height="4.0000" ry="0.0000" fill="currentColor"/>
</g>
<g transform="translate(19.2056, 25.7710)">
<text font-family="Hiragino Sans GB" font-size="1.9604" text-anchor="start" fill="currentColor">
<tspan>G</tspan>
</text>
</g>
<g transform="translate(19.2056, 30.8448)">
<path transform="scale(0.0040, -0.0040)" d="M212 138c68 0 113 -38 113 -95c0 -90 -109 -181 -212 -181c-68 0 -113 38 -113 95c0 90 109 181 212 181z" fill="currentColor"/>
</g>
<g transform="translate(9.8338, 29.3448)">
<path transform="scale(0.0040, -0.0040)" d="M647 2c0 -114 -75 -214 -180 -248c3 -33 4 -66 4 -99c0 -21 0 -41 -1 -62c-7 -122 -92 -229 -211 -229c-108 0 -196 88 -196 197c0 58 54 103 113 103c54 0 95 -47 95 -103c0 -52 -43 -95 -95 -95c-9 0 -18 1 -27 4c25 -37 66 -61 113 -61c93 0 156 91 162 191 c1 19 2 38 2 57c0 29 -1 58 -3 87c-5 -1 -44 -8 -88 -8c-194 0 -333 181 -333 376c0 177 129 308 244 443c-34 103 -55 171 -55 347c0 114 54 221 147 288c8 6 18 5 25 -1c68 -79 135 -242 135 -356c0 -142 -84 -255 -176 -364c21 -68 40 -136 57 -205c1 0 5 1 10 1 c157 0 258 -129 258 -263zM463 -201c64 24 110 88 110 161c0 88 -64 175 -167 188c28 -133 49 -269 57 -349zM77 25c0 -144 141 -243 261 -243c1 0 46 -1 81 5c-7 66 -27 208 -60 362c-79 -8 -124 -60 -124 -118c0 -43 25 -88 80 -120c5 -5 7 -11 7 -17 c0 -12 -10 -23 -23 -23c-16 0 -128 62 -128 188c0 89 60 177 163 200c-14 57 -30 113 -47 169c-105 -122 -210 -243 -210 -403zM242 784c0 -39 10 -95 39 -188c78 97 142 199 142 324c0 33 0 60 -20 118c-99 -46 -161 -145 -161 -254z" fill="currentColor"/>
</g>
<g transform="translate(13.3337, 26.3448)">
<path transform="scale(0.0040, -0.0040)" d="M0 116c0 10 6 19 16 23l40 15v154c0 12 9 21 21 21s21 -9 21 -21v-138l79 30v154c0 12 9 21 21 21s21 -9 21 -21v-138l22 8c3 1 6 2 9 2c13 0 25 -11 25 -25v-54c0 -10 -6 -20 -16 -24l-40 -15v-155l22 9c3 1 6 1 9 1c13 0 25 -11 25 -25v-54c0 -10 -6 -19 -16 -23 l-40 -15v-154c0 -12 -9 -21 -21 -21s-21 9 -21 21v138l-79 -30v-154c0 -12 -9 -21 -21 -21s-21 9 -21 21v138l-22 -8c-3 -1 -6 -2 -9 -2c-13 0 -25 11 -25 25v54c0 10 6 20 16 24l40 15v155l-22 -9c-3 -1 -6 -1 -9 -1c-13 0 -25 11 -25 25v54zM177 92l-79 -30v-154l79 30 v154z" fill="currentColor"/>
</g>
<g transform="translate(15.7118, 28.3448)">
<path transform="scale(0.0040, -0.0040)" d="M266 265c0 -36 73 -25 73 -125c0 -93 -81 -140 -182 -140c-80 0 -157 43 -157 116c0 35 29 64 64 64s64 -29 64 -64c0 -24 -39 -29 -39 -53c0 -29 35 -37 68 -37c47 0 59 59 59 114v28c0 47 -2 81 -46 81h-77c-11 0 -16 8 -16 16s5 16 16 16h77c44 0 46 37 46 86v19 c0 53 -15 88 -63 88c-30 0 -62 -8 -62 -34c0 -21 35 -25 35 -46c0 -31 -25 -56 -56 -56s-56 25 -56 56c0 65 68 106 139 106c92 0 171 -32 171 -114c0 -117 -58 -79 -58 -121z" fill="currentColor"/>
</g>
<g transform="translate(15.5838, 30.3571)">
<path transform="scale(0.0040, -0.0040)" d="M223 487c37 0 71 14 79 14c9 0 15 -7 15 -13c0 -2 0 -4 -2 -6l-283 -325h160v115c0 36 36 28 71 75c23 31 24 58 38 58c7 0 14 -5 14 -15v-233h76c11 0 16 -8 16 -16s-5 -16 -16 -16h-76v-2c0 -50 30 -97 77 -97c9 0 12 -7 12 -13s-3 -13 -12 -13c-46 0 -92 13 -138 13 s-93 -13 -139 -13c-9 0 -12 7 -12 13s3 13 12 13c47 0 77 47 77 97v2h-160c-26 0 -34 15 -34 25c0 12 133 136 133 332c0 11 8 21 18 18c24 -7 49 -13 74 -13z" fill="currentColor"/>
</g>
<g transform="translate(18.6183,34.3237)">
<text font-family="Songti SC" font-size="2.7" text-anchor="start" fill="currentColor">
<tspan font-size="2.7">基</tspan>
</text>
</g>
<g transform="translate(16.1245,34.3237)">
<text font-family="Songti SC" font-weight="bold" font-size="2.7" text-anchor="start" fill="currentColor">
<tspan font-size="2.7">1.</tspan>
</text>
</g>
<g transform="translate(20.9479, 30.8448)">
<path transform="scale(0.0040, -0.0040)" d="M0 0c0 30 25 55 55 55s55 -25 55 -55s-25 -55 -55 -55s-55 25 -55 55z" fill="currentColor"/>
</g>
<g transform="translate(20.4307, 28.3448)">
<rect x="-0.0757" y="-0.8182" width="0.1514" height="3.1469" ry="0.0500" fill="currentColor"/>
</g>
<g transform="translate(135.8245, 27.3448)">
<polygon stroke-linejoin="round" stroke-linecap="round" stroke-width="0.1000" fill="currentColor" stroke="currentColor" points="6.1594 -0.3718 6.1594 0.0082 0.0500 0.1900 0.0500 -0.1900"/>
</g>
<g transform="translate(27.6422, 30.8448)">
<path transform="scale(0.0040, -0.0040)" d="M212 138c68 0 113 -38 113 -95c0 -90 -109 -181 -212 -181c-68 0 -113 38 -113 95c0 90 109 181 212 181z" fill="currentColor"/>
</g>
<g transform="translate(27.055,34.3237)">
<text font-family="Songti SC" font-size="2.7" text-anchor="start" fill="currentColor">
<tspan font-size="2.7">督</tspan>
</text>
</g>
<g transform="translate(28.8674, 28.3448)">
<rect x="-0.0757" y="-0.8182" width="0.1514" height="3.1469" ry="0.0500" fill="currentColor"/>
</g>
<g transform="translate(34.8831, 29.3448)">
<path transform="scale(0.0040, -0.0040)" d="M212 138c68 0 113 -38 113 -95c0 -90 -109 -181 -212 -181c-68 0 -113 38 -113 95c0 90 109 181 212 181z" fill="currentColor"/>
</g>
<g transform="translate(34.2958,34.3237)">
<text font-family="Songti SC" font-size="2.7" text-anchor="start" fill="currentColor">
<tspan font-size="2.7">已</tspan>
</text>
</g>
<g transform="translate(36.1083, 28.3448)">
<rect x="-0.0757" y="-2.5000" width="0.1514" height="3.3287" ry="0.0500" fill="currentColor"/>
</g>
<g transform="translate(46.2814, 29.3448)">
<path transform="scale(0.0040, -0.0040)" d="M212 138c68 0 113 -38 113 -95c0 -90 -109 -181 -212 -181c-68 0 -113 38 -113 95c0 90 109 181 212 181z" fill="currentColor"/>
</g>
<g transform="translate(45.6942,34.3237)">
<text font-family="Songti SC" font-size="2.7" text-anchor="start" fill="currentColor">
<tspan font-size="2.7">经</tspan>
</text>
</g>
<g transform="translate(47.5066, 28.3448)">
<rect x="-0.0757" y="-2.5000" width="0.1514" height="3.3287" ry="0.0500" fill="currentColor"/>
</g>
<g transform="translate(97.3269, 27.3448)">
<polygon stroke-linejoin="round" stroke-linecap="round" stroke-width="0.1000" fill="currentColor" stroke="currentColor" points="6.1594 -0.1900 6.1594 0.1900 0.0500 0.1900 0.0500 -0.1900"/>
</g>
<g transform="translate(57.6797, 29.3448)">
<path transform="scale(0.0040, -0.0040)" d="M212 138c68 0 113 -38 113 -95c0 -90 -109 -181 -212 -181c-68 0 -113 38 -113 95c0 90 109 181 212 181z" fill="currentColor"/>
</g>
<g transform="translate(57.0925,34.3237)">
<text font-family="Songti SC" font-size="2.7" text-anchor="start" fill="currentColor">
<tspan font-size="2.7">将</tspan>
</text>
</g>
<g transform="translate(59.4220, 28.8448)">
<path transform="scale(0.0040, -0.0040)" d="M0 0c0 30 25 55 55 55s55 -25 55 -55s-25 -55 -55 -55s-55 25 -55 55z" fill="currentColor"/>
</g>
<g transform="translate(58.9049, 28.3448)">
<rect x="-0.0757" y="-2.1786" width="0.1514" height="3.0072" ry="0.0500" fill="currentColor"/>
</g>
<g transform="translate(66.1164, 29.8448)">
<path transform="scale(0.0040, -0.0040)" d="M212 138c68 0 113 -38 113 -95c0 -90 -109 -181 -212 -181c-68 0 -113 38 -113 95c0 90 109 181 212 181z" fill="currentColor"/>
</g>
<g transform="translate(65.5291,34.3237)">
<text font-family="Songti SC" font-size="2.7" text-anchor="start" fill="currentColor">
<tspan font-size="2.7">我</tspan>
</text>
</g>
<g transform="translate(67.3416, 28.3448)">
<rect x="-0.0757" y="-1.8214" width="0.1514" height="3.1501" ry="0.0500" fill="currentColor"/>
</g>
<g transform="translate(73.3808, 25.7710)">
<text font-family="Hiragino Sans GB" font-size="1.9604" text-anchor="start" fill="currentColor">
<tspan>C</tspan>
</text>
</g>
<g transform="translate(73.3808, 30.3448)">
<path transform="scale(0.0040, -0.0040)" d="M212 138c68 0 113 -38 113 -95c0 -90 -109 -181 -212 -181c-68 0 -113 38 -113 95c0 90 109 181 212 181z" fill="currentColor"/>
</g>
<g transform="translate(72.7935,34.3237)">
<text font-family="Songti SC" font-size="2.7" text-anchor="start" fill="currentColor">
<tspan font-size="2.7">释</tspan>
</text>
</g>
<g transform="translate(74.6059, 28.3448)">
<rect x="-0.0757" y="-1.5000" width="0.1514" height="3.3287" ry="0.0500" fill="currentColor"/>
</g>
<g transform="translate(84.7791, 30.3448)">
<path transform="scale(0.0040, -0.0040)" d="M212 138c68 0 113 -38 113 -95c0 -90 -109 -181 -212 -181c-68 0 -113 38 -113 95c0 90 109 181 212 181z" fill="currentColor"/>
</g>
<g transform="translate(82.9541,34.3237)">
<text font-family="Songti SC" font-size="2.7" text-anchor="start" fill="currentColor">
<tspan font-size="2.7">放，</tspan>
</text>
</g>
<g transform="translate(86.0042, 28.3448)">
<rect x="-0.0757" y="-1.5000" width="0.1514" height="3.3287" ry="0.0500" fill="currentColor"/>
</g>
<g transform="translate(58.8292, 26.1631)">
<polygon stroke-linejoin="round" stroke-linecap="round" stroke-width="0.1000" fill="currentColor" stroke="currentColor" points="8.5380 0.1736 8.5380 0.5536 0.0500 0.1900 0.0500 -0.1900"/>
</g>
<g transform="translate(66.2416, 27.2951)">
<polygon stroke-linejoin="round" stroke-linecap="round" stroke-width="0.1000" fill="currentColor" stroke="currentColor" points="1.1257 -0.1402 1.1257 0.2398 0.0500 0.1900 0.0500 -0.1900"/>
</g>
<g transform="translate(96.1774, 30.3448)">
<path transform="scale(0.0040, -0.0040)" d="M212 138c68 0 113 -38 113 -95c0 -90 -109 -181 -212 -181c-68 0 -113 38 -113 95c0 90 109 181 212 181z" fill="currentColor"/>
</g>
<g transform="translate(95.5901,34.3237)">
<text font-family="Songti SC" font-size="2.7" text-anchor="start" fill="currentColor">
<tspan font-size="2.7">我</tspan>
</text>
</g>
<g transform="translate(97.4025, 28.3448)">
<rect x="-0.0757" y="-1.0000" width="0.1514" height="2.8287" ry="0.0500" fill="currentColor"/>
</g>
<g transform="translate(102.2354, 30.3448)">
<path transform="scale(0.0040, -0.0040)" d="M212 138c68 0 113 -38 113 -95c0 -90 -109 -181 -212 -181c-68 0 -113 38 -113 95c0 90 109 181 212 181z" fill="currentColor"/>
</g>
<g transform="translate(101.6482,34.3237)">
<text font-family="Songti SC" font-size="2.7" text-anchor="start" fill="currentColor">
<tspan font-size="2.7">也</tspan>
</text>
</g>
<g transform="translate(103.4606, 28.3448)">
<rect x="-0.0757" y="-1.0000" width="0.1514" height="2.8287" ry="0.0500" fill="currentColor"/>
</g>
<g transform="translate(111.8784, 25.7710)">
<text font-family="Hiragino Sans GB" font-size="1.9604" text-anchor="start" fill="currentColor">
<tspan>D</tspan>
</text>
</g>
<g transform="translate(111.8784, 29.8448)">
<path transform="scale(0.0040, -0.0040)" d="M212 138c68 0 113 -38 113 -95c0 -90 -109 -181 -212 -181c-68 0 -113 38 -113 95c0 90 109 181 212 181z" fill="currentColor"/>
</g>
<g transform="translate(111.2911,34.3237)">
<text font-family="Songti SC" font-size="2.7" text-anchor="start" fill="currentColor">
<tspan font-size="2.7">释</tspan>
</text>
</g>
<g transform="translate(113.1036, 28.3448)">
<rect x="-0.0757" y="-2.0000" width="0.1514" height="3.3287" ry="0.0500" fill="currentColor"/>
</g>
<g transform="translate(123.2767, 29.8448)">
<path transform="scale(0.0040, -0.0040)" d="M212 138c68 0 113 -38 113 -95c0 -90 -109 -181 -212 -181c-68 0 -113 38 -113 95c0 90 109 181 212 181z" fill="currentColor"/>
</g>
<g transform="translate(122.6894,34.3237)">
<text font-family="Songti SC" font-size="2.7" text-anchor="start" fill="currentColor">
<tspan font-size="2.7">放</tspan>
</text>
</g>
<g transform="translate(124.5019, 28.3448)">
<rect x="-0.0757" y="-2.0000" width="0.1514" height="3.3287" ry="0.0500" fill="currentColor"/>
</g>
<g transform="translate(20.3550, 27.5266)">
<polygon stroke-linejoin="round" stroke-linecap="round" stroke-width="0.1000" fill="currentColor" stroke="currentColor" points="8.5380 -0.1900 8.5380 0.1900 0.0500 0.1900 0.0500 -0.1900"/>
</g>
<g transform="translate(27.7674, 28.3448)">
<polygon stroke-linejoin="round" stroke-linecap="round" stroke-width="0.1000" fill="currentColor" stroke="currentColor" points="1.1257 -0.1900 1.1257 0.1900 0.0500 0.1900 0.0500 -0.1900"/>
</g>
<g transform="translate(134.6750, 30.3448)">
<path transform="scale(0.0040, -0.0040)" d="M212 138c68 0 113 -38 113 -95c0 -90 -109 -181 -212 -181c-68 0 -113 38 -113 95c0 90 109 181 212 181z" fill="currentColor"/>
</g>
<g transform="translate(134.0878,34.3237)">
<text font-family="Songti SC" font-size="2.7" text-anchor="start" fill="currentColor">
<tspan font-size="2.7">灵</tspan>
</text>
</g>
<g transform="translate(135.9002, 28.3448)">
<rect x="-0.0757" y="-1.0022" width="0.1514" height="2.8309" ry="0.0500" fill="currentColor"/>
</g>
<g transform="translate(140.7331, 29.8448)">
<path transform="scale(0.0040, -0.0040)" d="M212 138c68 0 113 -38 113 -95c0 -90 -109 -181 -212 -181c-68 0 -113 38 -113 95c0 90 109 181 212 181z" fill="currentColor"/>
</g>
<g transform="translate(140.1458,34.3237)">
<text font-family="Songti SC" font-size="2.7" text-anchor="start" fill="currentColor">
<tspan font-size="2.7">中</tspan>
</text>
</g>
<g transform="translate(141.9582, 28.3448)">
<rect x="-0.0757" y="-1.1796" width="0.1514" height="2.5082" ry="0.0500" fill="currentColor"/>
</g>
<g transform="translate(41.1292,62.3448)">
<rect x="0.0000" y="-2.0000" width="0.2212" height="4.0000" ry="0.0000" fill="currentColor"/>
</g>
<g transform="translate(9.0337,64.34479999999999)">
<line stroke-linejoin="round" stroke-linecap="round" stroke-width="0.1164" stroke="currentColor" x1="0.0582" y1="0" x2="138.1582" y2="0"/>
</g>
<g transform="translate(9.0337,63.3448)">
<line stroke-linejoin="round" stroke-linecap="round" stroke-width="0.1164" stroke="currentColor" x1="0.0582" y1="0" x2="138.1582" y2="0"/>
</g>
<g transform="translate(9.0337,62.3448)">
<line stroke-linejoin="round" stroke-linecap="round" stroke-width="0.1164" stroke="currentColor" x1="0.0582" y1="0" x2="138.1582" y2="0"/>
</g>
<g transform="translate(9.0337,61.3448)">
<line stroke-linejoin="round" stroke-linecap="round" stroke-width="0.1164" stroke="currentColor" x1="0.0582" y1="0" x2="138.1582" y2="0"/>
</g>
<g transform="translate(9.0337,60.3448)">
<line stroke-linejoin="round" stroke-linecap="round" stroke-width="0.1164" stroke="currentColor" x1="0.0582" y1="0" x2="138.1582" y2="0"/>
</g>
<g transform="translate(147.0289,62.3448)">
<rect x="0.0000" y="-2.0000" width="0.2212" height="4.0000" ry="0.0000" fill="currentColor"/>
</g>
<g transform="translate(121.691,62.3448)">
<rect x="0.0000" y="-2.0000" width="0.2212" height="4.0000" ry="0.0000" fill="currentColor"/>
</g>
<g transform="translate(94.8371,62.3448)">
<rect x="0.0000" y="-2.0000" width="0.2212" height="4.0000" ry="0.0000" fill="currentColor"/>
</g>
<g transform="translate(67.9831,62.3448)">
<rect x="0.0000" y="-2.0000" width="0.2212" height="4.0000" ry="0.0000" fill="currentColor"/>
</g>
<g transform="translate(9.8338,63.3448)">
<path transform="scale(0.0040, -0.0040)" d="M647 2c0 -114 -75 -214 -180 -248c3 -33 4 -66 4 -99c0 -21 0 -41 -1 -62c-7 -122 -92 -229 -211 -229c-108 0 -196 88 -196 197c0 58 54 103 113 103c54 0 95 -47 95 -103c0 -52 -43 -95 -95 -95c-9 0 -18 1 -27 4c25 -37 66 -61 113 -61c93 0 156 91 162 191 c1 19 2 38 2 57c0 29 -1 58 -3 87c-5 -1 -44 -8 -88 -8c-194 0 -333 181 -333 376c0 177 129 308 244 443c-34 103 -55 171 -55 347c0 114 54 221 147 288c8 6 18 5 25 -1c68 -79 135 -242 135 -356c0 -142 -84 -255 -176 -364c21 -68 40 -136 57 -205c1 0 5 1 10 1 c157 0 258 -129 258 -263zM463 -201c64 24 110 88 110 161c0 88 -64 175 -167 188c28 -133 49 -269 57 -349zM77 25c0 -144 141 -243 261 -243c1 0 46 -1 81 5c-7 66 -27 208 -60 362c-79 -8 -124 -60 -124 -118c0 -43 25 -88 80 -120c5 -5 7 -11 7 -17 c0 -12 -10 -23 -23 -23c-16 0 -128 62 -128 188c0 89 60 177 163 200c-14 57 -30 113 -47 169c-105 -122 -210 -243 -210 -403zM242 784c0 -39 10 -95 39 -188c78 97 142 199 142 324c0 33 0 60 -20 118c-99 -46 -161 -145 -161 -254z" fill="currentColor"/>
</g>
<g transform="translate(13.3337,60.3448)">
<path transform="scale(0.0040, -0.0040)" d="M0 116c0 10 6 19 16 23l40 15v154c0 12 9 21 21 21s21 -9 21 -21v-138l79 30v154c0 12 9 21 21 21s21 -9 21 -21v-138l22 8c3 1 6 2 9 2c13 0 25 -11 25 -25v-54c0 -10 -6 -20 -16 -24l-40 -15v-155l22 9c3 1 6 1 9 1c13 0 25 -11 25 -25v-54c0 -10 -6 -19 -16 -23 l-40 -15v-154c0 -12 -9 -21 -21 -21s-21 9 -21 21v138l-79 -30v-154c0 -12 -9 -21 -21 -21s-21 9 -21 21v138l-22 -8c-3 -1 -6 -2 -9 -2c-13 0 -25 11 -25 25v54c0 10 6 20 16 24l40 15v155l-22 -9c-3 -1 -6 -1 -9 -1c-13 0 -25 11 -25 25v54zM177 92l-79 -30v-154l79 30 v154z" fill="currentColor"/>
</g>
<g transform="translate(8.2228,59.3717)">
<text font-family="Songti SC" font-size="1.7463" text-anchor="start" fill="currentColor">
<tspan>4</tspan>
</text>
</g>
<g transform="translate(16.9338,59.3351)">
<text font-family="Hiragino Sans GB" font-size="1.9604" text-anchor="start" fill="currentColor">
<tspan>G</tspan>
</text>
</g>
<g transform="translate(16.9338,63.3448)">
<path transform="scale(0.0040, -0.0040)" d="M212 138c68 0 113 -38 113 -95c0 -90 -109 -181 -212 -181c-68 0 -113 38 -113 95c0 90 109 181 212 181z" fill="currentColor"/>
</g>
<g transform="translate(16.3465,68.2966)">
<text font-family="Songti SC" font-size="2.7" text-anchor="start" fill="currentColor">
<tspan font-size="2.7">基</tspan>
</text>
</g>
<g transform="translate(18.1589,62.3448)">
<rect x="-0.0757" y="-2.5000" width="0.1514" height="3.3287" ry="0.0500" fill="currentColor"/>
</g>
<g transform="translate(24.7017,63.3448)">
<path transform="scale(0.0040, -0.0040)" d="M212 138c68 0 113 -38 113 -95c0 -90 -109 -181 -212 -181c-68 0 -113 38 -113 95c0 90 109 181 212 181z" fill="currentColor"/>
</g>
<g transform="translate(22.8767,68.2966)">
<text font-family="Songti SC" font-size="2.7" text-anchor="start" fill="currentColor">
<tspan font-size="2.7">督；</tspan>
</text>
</g>
<g transform="translate(25.9268,62.3448)">
<rect x="-0.0757" y="-2.5000" width="0.1514" height="3.3287" ry="0.0500" fill="currentColor"/>
</g>
<g transform="translate(113.9074,61.3448)">
<polygon stroke-linejoin="round" stroke-linecap="round" stroke-width="0.1000" fill="currentColor" stroke="currentColor" points="4.4490 -0.3718 4.4490 0.0082 0.0500 0.1900 0.0500 -0.1900"/>
</g>
<g transform="translate(32.2196,64.84479999999999)">
<path transform="scale(0.0040, -0.0040)" d="M212 138c68 0 113 -38 113 -95c0 -90 -109 -181 -212 -181c-68 0 -113 38 -113 95c0 90 109 181 212 181z" fill="currentColor"/>
</g>
<g transform="translate(31.6323,68.2966)">
<text font-family="Songti SC" font-size="2.7" text-anchor="start" fill="currentColor">
<tspan font-size="2.7">借</tspan>
</text>
</g>
<g transform="translate(33.9618,64.84479999999999)">
<path transform="scale(0.0040, -0.0040)" d="M0 0c0 30 25 55 55 55s55 -25 55 -55s-25 -55 -55 -55s-55 25 -55 55z" fill="currentColor"/>
</g>
<g transform="translate(33.4447,62.3448)">
<rect x="-0.0757" y="-0.8182" width="0.1514" height="3.1469" ry="0.0500" fill="currentColor"/>
</g>
<g transform="translate(38.0906,64.84479999999999)">
<path transform="scale(0.0040, -0.0040)" d="M212 138c68 0 113 -38 113 -95c0 -90 -109 -181 -212 -181c-68 0 -113 38 -113 95c0 90 109 181 212 181z" fill="currentColor"/>
</g>
<g transform="translate(37.5034,68.2966)">
<text font-family="Songti SC" font-size="2.7" text-anchor="start" fill="currentColor">
<tspan font-size="2.7">祂</tspan>
</text>
</g>
<g transform="translate(39.3158,62.3448)">
<rect x="-0.0757" y="-0.8182" width="0.1514" height="3.1469" ry="0.0500" fill="currentColor"/>
</g>
<g transform="translate(43.5142,63.3448)">
<path transform="scale(0.0040, -0.0040)" d="M212 138c68 0 113 -38 113 -95c0 -90 -109 -181 -212 -181c-68 0 -113 38 -113 95c0 90 109 181 212 181z" fill="currentColor"/>
</g>
<g transform="translate(42.9269,68.2966)">
<text font-family="Songti SC" font-size="2.7" text-anchor="start" fill="currentColor">
<tspan font-size="2.7">生</tspan>
</text>
</g>
<g transform="translate(44.7394,62.3448)">
<rect x="-0.0757" y="-2.5000" width="0.1514" height="3.3287" ry="0.0500" fill="currentColor"/>
</g>
<g transform="translate(51.2821,63.3448)">
<path transform="scale(0.0040, -0.0040)" d="M212 138c68 0 113 -38 113 -95c0 -90 -109 -181 -212 -181c-68 0 -113 38 -113 95c0 90 109 181 212 181z" fill="currentColor"/>
</g>
<g transform="translate(50.6948,68.2966)">
<text font-family="Songti SC" font-size="2.7" text-anchor="start" fill="currentColor">
<tspan font-size="2.7">命</tspan>
</text>
</g>
<g transform="translate(52.5073,62.3448)">
<rect x="-0.0757" y="-2.5000" width="0.1514" height="3.3287" ry="0.0500" fill="currentColor"/>
</g>
<g transform="translate(87.0534,61.3448)">
<polygon stroke-linejoin="round" stroke-linecap="round" stroke-width="0.1000" fill="currentColor" stroke="currentColor" points="4.4490 -0.1900 4.4490 0.1900 0.0500 0.1900 0.0500 -0.1900"/>
</g>
<g transform="translate(59.05,63.3448)">
<path transform="scale(0.0040, -0.0040)" d="M212 138c68 0 113 -38 113 -95c0 -90 -109 -181 -212 -181c-68 0 -113 38 -113 95c0 90 109 181 212 181z" fill="currentColor"/>
</g>
<g transform="translate(58.4627,68.2966)">
<text font-family="Songti SC" font-size="2.7" text-anchor="start" fill="currentColor">
<tspan font-size="2.7">我</tspan>
</text>
</g>
<g transform="translate(60.7923,62.8448)">
<path transform="scale(0.0040, -0.0040)" d="M0 0c0 30 25 55 55 55s55 -25 55 -55s-25 -55 -55 -55s-55 25 -55 55z" fill="currentColor"/>
</g>
<g transform="translate(60.2752,62.3448)">
<rect x="-0.0757" y="-2.1772" width="0.1514" height="3.0059" ry="0.0500" fill="currentColor"/>
</g>
<g transform="translate(64.9211,63.8448)">
<path transform="scale(0.0040, -0.0040)" d="M212 138c68 0 113 -38 113 -95c0 -90 -109 -181 -212 -181c-68 0 -113 38 -113 95c0 90 109 181 212 181z" fill="currentColor"/>
</g>
<g transform="translate(64.3338,68.2966)">
<text font-family="Songti SC" font-size="2.7" text-anchor="start" fill="currentColor">
<tspan font-size="2.7">脱</tspan>
</text>
</g>
<g transform="translate(66.1463,62.3448)">
<rect x="-0.0757" y="-1.8228" width="0.1514" height="3.1515" ry="0.0500" fill="currentColor"/>
</g>
<g transform="translate(70.3682,59.3351)">
<text font-family="Hiragino Sans GB" font-size="1.9604" text-anchor="start" fill="currentColor">
<tspan>C</tspan>
</text>
</g>
<g transform="translate(70.3682,64.34479999999999)">
<path transform="scale(0.0040, -0.0040)" d="M212 138c68 0 113 -38 113 -95c0 -90 -109 -181 -212 -181c-68 0 -113 38 -113 95c0 90 109 181 212 181z" fill="currentColor"/>
</g>
<g transform="translate(69.7809,68.2966)">
<text font-family="Songti SC" font-size="2.7" text-anchor="start" fill="currentColor">
<tspan font-size="2.7">罪</tspan>
</text>
</g>
<g transform="translate(71.5933,62.3448)">
<rect x="-0.0757" y="-1.5000" width="0.1514" height="3.3287" ry="0.0500" fill="currentColor"/>
</g>
<g transform="translate(78.1361,64.34479999999999)">
<path transform="scale(0.0040, -0.0040)" d="M212 138c68 0 113 -38 113 -95c0 -90 -109 -181 -212 -181c-68 0 -113 38 -113 95c0 90 109 181 212 181z" fill="currentColor"/>
</g>
<g transform="translate(76.3111,68.2966)">
<text font-family="Songti SC" font-size="2.7" text-anchor="start" fill="currentColor">
<tspan font-size="2.7">律，</tspan>
</text>
</g>
<g transform="translate(79.3612,62.3448)">
<rect x="-0.0757" y="-1.5000" width="0.1514" height="3.3287" ry="0.0500" fill="currentColor"/>
</g>
<g transform="translate(85.904,64.34479999999999)">
<path transform="scale(0.0040, -0.0040)" d="M212 138c68 0 113 -38 113 -95c0 -90 -109 -181 -212 -181c-68 0 -113 38 -113 95c0 90 109 181 212 181z" fill="currentColor"/>
</g>
<g transform="translate(85.3167,68.2966)">
<text font-family="Songti SC" font-size="2.7" text-anchor="start" fill="currentColor">
<tspan font-size="2.7">借</tspan>
</text>
</g>
<g transform="translate(60.1995,60.1631)">
<polygon stroke-linejoin="round" stroke-linecap="round" stroke-width="0.1000" fill="currentColor" stroke="currentColor" points="5.9724 0.1736 5.9724 0.5536 0.0500 0.1900 0.0500 -0.1900"/>
</g>
<g transform="translate(65.0463,61.2739)">
<polygon stroke-linejoin="round" stroke-linecap="round" stroke-width="0.1000" fill="currentColor" stroke="currentColor" points="1.1257 -0.1190 1.1257 0.2610 0.0500 0.1900 0.0500 -0.1900"/>
</g>
<g transform="translate(90.2516,64.34479999999999)">
<path transform="scale(0.0040, -0.0040)" d="M212 138c68 0 113 -38 113 -95c0 -90 -109 -181 -212 -181c-68 0 -113 38 -113 95c0 90 109 181 212 181z" fill="currentColor"/>
</g>
<g transform="translate(89.6644,68.2966)">
<text font-family="Songti SC" font-size="2.7" text-anchor="start" fill="currentColor">
<tspan font-size="2.7">我</tspan>
</text>
</g>
<g transform="translate(91.4768,62.3448)">
<rect x="-0.0757" y="-1.0000" width="0.1514" height="2.8287" ry="0.0500" fill="currentColor"/>
</g>
<g transform="translate(97.2221,59.3351)">
<text font-family="Hiragino Sans GB" font-size="1.9604" text-anchor="start" fill="currentColor">
<tspan>D</tspan>
</text>
</g>
<g transform="translate(97.2221,63.8448)">
<path transform="scale(0.0040, -0.0040)" d="M212 138c68 0 113 -38 113 -95c0 -90 -109 -181 -212 -181c-68 0 -113 38 -113 95c0 90 109 181 212 181z" fill="currentColor"/>
</g>
<g transform="translate(96.6348,68.2966)">
<text font-family="Songti SC" font-size="2.7" text-anchor="start" fill="currentColor">
<tspan font-size="2.7">见</tspan>
</text>
</g>
<g transform="translate(98.4473,62.3448)">
<rect x="-0.0757" y="-2.0000" width="0.1514" height="3.3287" ry="0.0500" fill="currentColor"/>
</g>
<g transform="translate(104.99,63.8448)">
<path transform="scale(0.0040, -0.0040)" d="M212 138c68 0 113 -38 113 -95c0 -90 -109 -181 -212 -181c-68 0 -113 38 -113 95c0 90 109 181 212 181z" fill="currentColor"/>
</g>
<g transform="translate(104.4027,68.2966)">
<text font-family="Songti SC" font-size="2.7" text-anchor="start" fill="currentColor">
<tspan font-size="2.7">证</tspan>
</text>
</g>
<g transform="translate(106.2152,62.3448)">
<rect x="-0.0757" y="-2.0000" width="0.1514" height="3.3287" ry="0.0500" fill="currentColor"/>
</g>
<g transform="translate(33.369,61.5266)">
<polygon stroke-linejoin="round" stroke-linecap="round" stroke-width="0.1000" fill="currentColor" stroke="currentColor" points="5.9724 -0.1900 5.9724 0.1900 0.0500 0.1900 0.0500 -0.1900"/>
</g>
<g transform="translate(38.2158,62.3448)">
<polygon stroke-linejoin="round" stroke-linecap="round" stroke-width="0.1000" fill="currentColor" stroke="currentColor" points="1.1257 -0.1900 1.1257 0.1900 0.0500 0.1900 0.0500 -0.1900"/>
</g>
<g transform="translate(112.7579,64.34479999999999)">
<path transform="scale(0.0040, -0.0040)" d="M212 138c68 0 113 -38 113 -95c0 -90 -109 -181 -212 -181c-68 0 -113 38 -113 95c0 90 109 181 212 181z" fill="currentColor"/>
</g>
<g transform="translate(112.1706,68.2966)">
<text font-family="Songti SC" font-size="2.7" text-anchor="start" fill="currentColor">
<tspan font-size="2.7">祂</tspan>
</text>
</g>
<g transform="translate(113.9831,62.3448)">
<rect x="-0.0757" y="-1.0031" width="0.1514" height="2.8317" ry="0.0500" fill="currentColor"/>
</g>
<g transform="translate(117.1056,63.8448)">
<path transform="scale(0.0040, -0.0040)" d="M212 138c68 0 113 -38 113 -95c0 -90 -109 -181 -212 -181c-68 0 -113 38 -113 95c0 90 109 181 212 181z" fill="currentColor"/>
</g>
<g transform="translate(116.5183,68.2966)">
<text font-family="Songti SC" font-size="2.7" text-anchor="start" fill="currentColor">
<tspan font-size="2.7">得</tspan>
</text>
</g>
<g transform="translate(118.3307,62.3448)">
<rect x="-0.0757" y="-1.1787" width="0.1514" height="2.5074" ry="0.0500" fill="currentColor"/>
</g>
<g transform="translate(124.0761,59.3351)">
<text font-family="Hiragino Sans GB" font-size="1.9604" text-anchor="start" fill="currentColor">
<tspan>G</tspan>
</text>
</g>
<g transform="translate(124.0761,63.3448)">
<path transform="scale(0.0040, -0.0040)" d="M212 138c68 0 113 -38 113 -95c0 -90 -109 -181 -212 -181c-68 0 -113 38 -113 95c0 90 109 181 212 181z" fill="currentColor"/>
</g>
<g transform="translate(123.4888,68.2966)">
<text font-family="Songti SC" font-size="2.7" text-anchor="start" fill="currentColor">
<tspan font-size="2.7">显</tspan>
</text>
</g>
<g transform="translate(125.3012,62.3448)">
<rect x="-0.0757" y="-2.5000" width="0.1514" height="3.3287" ry="0.0500" fill="currentColor"/>
</g>
<g transform="translate(131.844,63.3448)">
<path transform="scale(0.0040, -0.0040)" d="M212 138c68 0 113 -38 113 -95c0 -90 -109 -181 -212 -181c-68 0 -113 38 -113 95c0 90 109 181 212 181z" fill="currentColor"/>
</g>
<g transform="translate(130.019,68.2966)">
<text font-family="Songti SC" font-size="2.7" text-anchor="start" fill="currentColor">
<tspan font-size="2.7">彰。</tspan>
</text>
</g>
<g transform="translate(133.0691,62.3448)">
<rect x="-0.0757" y="-2.5000" width="0.1514" height="3.3287" ry="0.0500" fill="currentColor"/>
</g>
<g transform="translate(139.6118,62.3448)">
<path transform="scale(0.0040, -0.0040)" d="M-9 78c0 59 124 84 124 182c0 25 -9 50 -26 70l-31 37c-3 4 -4 8 -4 12c0 10 9 18 19 18c5 0 9 -1 13 -6l149 -178c7 -9 11 -17 11 -26c0 -59 -124 -84 -124 -182c0 -25 9 -51 26 -71l79 -94c3 -4 4 -8 4 -12c0 -10 -9 -18 -19 -18c-11 0 -38 40 -102 40 c-23 0 -55 -4 -55 -65c0 -33 11 -73 27 -92c8 -9 -6 -20 -14 -11c-44 53 -92 145 -92 199c0 41 26 43 46 43c30 0 69 -9 106 -23l-126 151c-7 9 -11 17 -11 26z" fill="currentColor"/>
</g>
<g transform="translate(87.1291,62.3448)">
<rect x="-0.0757" y="-1.0000" width="0.1514" height="2.8287" ry="0.0500" fill="currentColor"/>
</g>
<g transform="translate(45.2401,99.4308)">
<rect x="0.0000" y="-2.0000" width="0.2212" height="4.0000" ry="0.0000" fill="currentColor"/>
</g>
<g transform="translate(9.0337,101.4308)">
<line stroke-linejoin="round" stroke-linecap="round" stroke-width="0.1164" stroke="currentColor" x1="0.0582" y1="0" x2="138.1582" y2="0"/>
</g>
<g transform="translate(9.0337,100.4308)">
<line stroke-linejoin="round" stroke-linecap="round" stroke-width="0.1164" stroke="currentColor" x1="0.0582" y1="0" x2="138.1582" y2="0"/>
</g>
<g transform="translate(9.0337,99.4308)">
<line stroke-linejoin="round" stroke-linecap="round" stroke-width="0.1164" stroke="currentColor" x1="0.0582" y1="0" x2="138.1582" y2="0"/>
</g>
<g transform="translate(9.0337,98.4308)">
<line stroke-linejoin="round" stroke-linecap="round" stroke-width="0.1164" stroke="currentColor" x1="0.0582" y1="0" x2="138.1582" y2="0"/>
</g>
<g transform="translate(9.0337,97.4308)">
<line stroke-linejoin="round" stroke-linecap="round" stroke-width="0.1164" stroke="currentColor" x1="0.0582" y1="0" x2="138.1582" y2="0"/>
</g>
<g transform="translate(147.0289,99.4308)">
<rect x="0.0000" y="-2.0000" width="0.2212" height="4.0000" ry="0.0000" fill="currentColor"/>
</g>
<g transform="translate(111.8241,99.4308)">
<rect x="0.0000" y="-2.0000" width="0.2212" height="4.0000" ry="0.0000" fill="currentColor"/>
</g>
<g transform="translate(80.4736,99.4308)">
<rect x="0.0000" y="-2.0000" width="0.2212" height="4.0000" ry="0.0000" fill="currentColor"/>
</g>
<g transform="translate(9.8338,100.4308)">
<path transform="scale(0.0040, -0.0040)" d="M647 2c0 -114 -75 -214 -180 -248c3 -33 4 -66 4 -99c0 -21 0 -41 -1 -62c-7 -122 -92 -229 -211 -229c-108 0 -196 88 -196 197c0 58 54 103 113 103c54 0 95 -47 95 -103c0 -52 -43 -95 -95 -95c-9 0 -18 1 -27 4c25 -37 66 -61 113 -61c93 0 156 91 162 191 c1 19 2 38 2 57c0 29 -1 58 -3 87c-5 -1 -44 -8 -88 -8c-194 0 -333 181 -333 376c0 177 129 308 244 443c-34 103 -55 171 -55 347c0 114 54 221 147 288c8 6 18 5 25 -1c68 -79 135 -242 135 -356c0 -142 -84 -255 -176 -364c21 -68 40 -136 57 -205c1 0 5 1 10 1 c157 0 258 -129 258 -263zM463 -201c64 24 110 88 110 161c0 88 -64 175 -167 188c28 -133 49 -269 57 -349zM77 25c0 -144 141 -243 261 -243c1 0 46 -1 81 5c-7 66 -27 208 -60 362c-79 -8 -124 -60 -124 -118c0 -43 25 -88 80 -120c5 -5 7 -11 7 -17 c0 -12 -10 -23 -23 -23c-16 0 -128 62 -128 188c0 89 60 177 163 200c-14 57 -30 113 -47 169c-105 -122 -210 -243 -210 -403zM242 784c0 -39 10 -95 39 -188c78 97 142 199 142 324c0 33 0 60 -20 118c-99 -46 -161 -145 -161 -254z" fill="currentColor"/>
</g>
<g transform="translate(13.3337,97.4308)">
<path transform="scale(0.0040, -0.0040)" d="M0 116c0 10 6 19 16 23l40 15v154c0 12 9 21 21 21s21 -9 21 -21v-138l79 30v154c0 12 9 21 21 21s21 -9 21 -21v-138l22 8c3 1 6 2 9 2c13 0 25 -11 25 -25v-54c0 -10 -6 -20 -16 -24l-40 -15v-155l22 9c3 1 6 1 9 1c13 0 25 -11 25 -25v-54c0 -10 -6 -19 -16 -23 l-40 -15v-154c0 -12 -9 -21 -21 -21s-21 9 -21 21v138l-79 -30v-154c0 -12 -9 -21 -21 -21s-21 9 -21 21v138l-22 -8c-3 -1 -6 -2 -9 -2c-13 0 -25 11 -25 25v54c0 10 6 20 16 24l40 15v155l-22 -9c-3 -1 -6 -1 -9 -1c-13 0 -25 11 -25 25v54zM177 92l-79 -30v-154l79 30 v154z" fill="currentColor"/>
</g>
<g transform="translate(8.2228,96.4524)">
<text font-family="Songti SC" font-size="1.7463" text-anchor="start" fill="currentColor">
<tspan>9</tspan>
</text>
</g>
<g transform="translate(16.9338,93.1637)">
<text font-family="Hiragino Sans GB" font-size="1.9604" text-anchor="start" fill="currentColor">
<tspan>G</tspan>
</text>
</g>
<g transform="translate(16.9338,99.4308)">
<path transform="scale(0.0040, -0.0040)" d="M310 63c0 22 -17 40 -40 40c-38 0 -197 -107 -224 -139c-7 -8 -10 -17 -10 -27c0 -22 17 -40 40 -40c38 0 197 107 224 139c7 8 10 17 10 27zM256 138c55 0 90 -22 90 -77c0 -25 -15 -112 -73 -151c-34 -23 -92 -48 -183 -48c-55 0 -90 22 -90 77c0 25 15 112 73 151 c34 23 92 48 183 48z" fill="currentColor"/>
</g>
<g transform="translate(16.9338,96.9126)">
<rect x="-0.6164" y="-0.1164" width="3.4522" height="0.1164" ry="0.0000" fill="currentColor"/>
</g>
<g transform="translate(16.9338,93.7899)">
<rect x="-0.6164" y="-0.1164" width="3.4522" height="0.1164" ry="0.0000" fill="currentColor"/>
</g>
<g transform="translate(16.3173,95.9464)">
<rect x="0" y="-2.1565" width="0.1164" height="3.0063" ry="0.0000" fill="currentColor"/>
</g>
<g transform="translate(19.6531,95.9464)">
<rect x="0" y="-2.1565" width="0.1164" height="3.0063" ry="0.0000" fill="currentColor"/>
</g>
<g transform="translate(16.9338,95.9464)">
<text font-family="Songti SC" font-weight="bold" font-size="2.2001" text-anchor="start" fill="currentColor">
<tspan>副</tspan>
</text>
</g>
<g transform="translate(16.388,105.7002)">
<text font-family="Songti SC" font-size="2.7" text-anchor="start" fill="currentColor">
<tspan font-size="2.7">阿</tspan>
</text>
</g>
<g transform="translate(17.0094,99.4308)">
<rect x="-0.0757" y="0.2456" width="0.1514" height="3.0878" ry="0.0500" fill="currentColor"/>
</g>
<g transform="translate(34.693,98.4308)">
<path transform="scale(0.0040, -0.0040)" d="M212 138c68 0 113 -38 113 -95c0 -90 -109 -181 -212 -181c-68 0 -113 38 -113 95c0 90 109 181 212 181z" fill="currentColor"/>
</g>
<g transform="translate(34.1058,105.7002)">
<text font-family="Songti SC" font-size="2.7" text-anchor="start" fill="currentColor">
<tspan font-size="2.7">利</tspan>
</text>
</g>
<g transform="translate(34.7687,99.4308)">
<rect x="-0.0757" y="-0.8287" width="0.1514" height="3.3287" ry="0.0500" fill="currentColor"/>
</g>
<g transform="translate(48.5769,93.1637)">
<text font-family="Hiragino Sans GB" font-size="1.9604" text-anchor="start" fill="currentColor">
<tspan>A</tspan>
</text>
</g>
<g transform="translate(50.028,93.1637)">
<text font-family="Hiragino Sans GB" font-size="1.9604" text-anchor="start" fill="currentColor">
<tspan>m</tspan>
</text>
</g>
<g transform="translate(48.5769,98.4308)">
<path transform="scale(0.0040, -0.0040)" d="M212 138c68 0 113 -38 113 -95c0 -90 -109 -181 -212 -181c-68 0 -113 38 -113 95c0 90 109 181 212 181z" fill="currentColor"/>
</g>
<g transform="translate(47.9896,105.7002)">
<text font-family="Songti SC" font-size="2.7" text-anchor="start" fill="currentColor">
<tspan font-size="2.7">路</tspan>
</text>
</g>
<g transform="translate(48.6526,99.4308)">
<rect x="-0.0757" y="-0.8287" width="0.1514" height="3.3287" ry="0.0500" fill="currentColor"/>
</g>
<g transform="translate(59.3261,98.9308)">
<path transform="scale(0.0040, -0.0040)" d="M212 138c68 0 113 -38 113 -95c0 -90 -109 -181 -212 -181c-68 0 -113 38 -113 95c0 90 109 181 212 181z" fill="currentColor"/>
</g>
<g transform="translate(57.5011,105.7002)">
<text font-family="Songti SC" font-size="2.7" text-anchor="start" fill="currentColor">
<tspan font-size="2.7">亚！</tspan>
</text>
</g>
<g transform="translate(59.4017,99.4308)">
<rect x="-0.0757" y="-0.3287" width="0.1514" height="3.3287" ry="0.0500" fill="currentColor"/>
</g>
<g transform="translate(70.0752,99.4308)">
<path transform="scale(0.0040, -0.0040)" d="M-9 78c0 59 124 84 124 182c0 25 -9 50 -26 70l-31 37c-3 4 -4 8 -4 12c0 10 9 18 19 18c5 0 9 -1 13 -6l149 -178c7 -9 11 -17 11 -26c0 -59 -124 -84 -124 -182c0 -25 9 -51 26 -71l79 -94c3 -4 4 -8 4 -12c0 -10 -9 -18 -19 -18c-11 0 -38 40 -102 40 c-23 0 -55 -4 -55 -65c0 -33 11 -73 27 -92c8 -9 -6 -20 -14 -11c-44 53 -92 145 -92 199c0 41 26 43 46 43c30 0 69 -9 106 -23l-126 151c-7 9 -11 17 -11 26z" fill="currentColor"/>
</g>
<g transform="translate(83.6487,93.1637)">
<text font-family="Hiragino Sans GB" font-size="1.9604" text-anchor="start" fill="currentColor">
<tspan>D</tspan>
</text>
</g>
<g transform="translate(85.1424,92.27279999999999)">
<text font-family="Hiragino Sans GB" font-size="1.3856" text-anchor="start" fill="currentColor">
<tspan>7</tspan>
</text>
</g>
<g transform="translate(83.6487,99.9308)">
<path transform="scale(0.0040, -0.0040)" d="M310 63c0 22 -17 40 -40 40c-38 0 -197 -107 -224 -139c-7 -8 -10 -17 -10 -27c0 -22 17 -40 40 -40c38 0 197 107 224 139c7 8 10 17 10 27zM256 138c55 0 90 -22 90 -77c0 -25 -15 -112 -73 -151c-34 -23 -92 -48 -183 -48c-55 0 -90 22 -90 77c0 25 15 112 73 151 c34 23 92 48 183 48z" fill="currentColor"/>
</g>
<g transform="translate(84.9569,99.4308)">
<rect x="-0.0757" y="-3.0000" width="0.1514" height="3.2544" ry="0.0500" fill="currentColor"/>
</g>
<g transform="translate(101.2413,98.9308)">
<path transform="scale(0.0040, -0.0040)" d="M212 138c68 0 113 -38 113 -95c0 -90 -109 -181 -212 -181c-68 0 -113 38 -113 95c0 90 109 181 212 181z" fill="currentColor"/>
</g>
<g transform="translate(100.654,105.7002)">
<text font-family="Songti SC" font-size="2.7" text-anchor="start" fill="currentColor">
<tspan font-size="2.7">耀</tspan>
</text>
</g>
<g transform="translate(101.3169,99.4308)">
<rect x="-0.0757" y="-0.3287" width="0.1514" height="3.3287" ry="0.0500" fill="currentColor"/>
</g>
<g transform="translate(115.1323,93.1637)">
<text font-family="Hiragino Sans GB" font-size="1.9604" text-anchor="start" fill="currentColor">
<tspan>G</tspan>
</text>
</g>
<g transform="translate(115.1323,98.9308)">
<path transform="scale(0.0040, -0.0040)" d="M212 138c68 0 113 -38 113 -95c0 -90 -109 -181 -212 -181c-68 0 -113 38 -113 95c0 90 109 181 212 181z" fill="currentColor"/>
</g>
<g transform="translate(114.545,105.7002)">
<text font-family="Songti SC" font-size="2.7" text-anchor="start" fill="currentColor">
<tspan font-size="2.7">释</tspan>
</text>
</g>
<g transform="translate(115.2079,99.4308)">
<rect x="-0.0757" y="-0.3287" width="0.1514" height="3.3287" ry="0.0500" fill="currentColor"/>
</g>
<g transform="translate(125.8814,99.4308)">
<path transform="scale(0.0040, -0.0040)" d="M212 138c68 0 113 -38 113 -95c0 -90 -109 -181 -212 -181c-68 0 -113 38 -113 95c0 90 109 181 212 181z" fill="currentColor"/>
</g>
<g transform="translate(124.0565,105.7002)">
<text font-family="Songti SC" font-size="2.7" text-anchor="start" fill="currentColor">
<tspan font-size="2.7">放！</tspan>
</text>
</g>
<g transform="translate(125.9571,99.4308)">
<rect x="-0.0757" y="0.1713" width="0.1514" height="3.1620" ry="0.0500" fill="currentColor"/>
</g>
<g transform="translate(136.6306,99.4308)">
<path transform="scale(0.0040, -0.0040)" d="M-9 78c0 59 124 84 124 182c0 25 -9 50 -26 70l-31 37c-3 4 -4 8 -4 12c0 10 9 18 19 18c5 0 9 -1 13 -6l149 -178c7 -9 11 -17 11 -26c0 -59 -124 -84 -124 -182c0 -25 9 -51 26 -71l79 -94c3 -4 4 -8 4 -12c0 -10 -9 -18 -19 -18c-11 0 -38 40 -102 40 c-23 0 -55 -4 -55 -65c0 -33 11 -73 27 -92c8 -9 -6 -20 -14 -11c-44 53 -92 145 -92 199c0 41 26 43 46 43c30 0 69 -9 106 -23l-126 151c-7 9 -11 17 -11 26z" fill="currentColor"/>
</g>
<g transform="translate(83.1029,105.7002)">
<text font-family="Songti SC" font-size="2.7" text-anchor="start" fill="currentColor">
<tspan font-size="2.7">荣</tspan>
</text>
</g>
<g transform="translate(44.7403,133.5426)">
<rect x="0.0000" y="-2.0000" width="0.2212" height="4.0000" ry="0.0000" fill="currentColor"/>
</g>
<g transform="translate(9.0337,135.5426)">
<line stroke-linejoin="round" stroke-linecap="round" stroke-width="0.1164" stroke="currentColor" x1="0.0582" y1="0" x2="138.1582" y2="0"/>
</g>
<g transform="translate(9.0337,134.5426)">
<line stroke-linejoin="round" stroke-linecap="round" stroke-width="0.1164" stroke="currentColor" x1="0.0582" y1="0" x2="138.1582" y2="0"/>
</g>
<g transform="translate(9.0337,133.5426)">
<line stroke-linejoin="round" stroke-linecap="round" stroke-width="0.1164" stroke="currentColor" x1="0.0582" y1="0" x2="138.1582" y2="0"/>
</g>
<g transform="translate(9.0337,132.5426)">
<line stroke-linejoin="round" stroke-linecap="round" stroke-width="0.1164" stroke="currentColor" x1="0.0582" y1="0" x2="138.1582" y2="0"/>
</g>
<g transform="translate(9.0337,131.5426)">
<line stroke-linejoin="round" stroke-linecap="round" stroke-width="0.1164" stroke="currentColor" x1="0.0582" y1="0" x2="138.1582" y2="0"/>
</g>
<g transform="translate(146.5516,133.5426)">
<rect x="0.0000" y="-2.0000" width="0.6986" height="4.0000" ry="0.0000" fill="currentColor"/>
</g>
<g transform="translate(145.9811,133.5426)">
<rect x="0.0000" y="-2.0000" width="0.2212" height="4.0000" ry="0.0000" fill="currentColor"/>
</g>
<g transform="translate(111.3973,133.5426)">
<rect x="0.0000" y="-2.0000" width="0.2212" height="4.0000" ry="0.0000" fill="currentColor"/>
</g>
<g transform="translate(79.4062,133.5426)">
<rect x="0.0000" y="-2.0000" width="0.2212" height="4.0000" ry="0.0000" fill="currentColor"/>
</g>
<g transform="translate(9.8338,134.5426)">
<path transform="scale(0.0040, -0.0040)" d="M647 2c0 -114 -75 -214 -180 -248c3 -33 4 -66 4 -99c0 -21 0 -41 -1 -62c-7 -122 -92 -229 -211 -229c-108 0 -196 88 -196 197c0 58 54 103 113 103c54 0 95 -47 95 -103c0 -52 -43 -95 -95 -95c-9 0 -18 1 -27 4c25 -37 66 -61 113 -61c93 0 156 91 162 191 c1 19 2 38 2 57c0 29 -1 58 -3 87c-5 -1 -44 -8 -88 -8c-194 0 -333 181 -333 376c0 177 129 308 244 443c-34 103 -55 171 -55 347c0 114 54 221 147 288c8 6 18 5 25 -1c68 -79 135 -242 135 -356c0 -142 -84 -255 -176 -364c21 -68 40 -136 57 -205c1 0 5 1 10 1 c157 0 258 -129 258 -263zM463 -201c64 24 110 88 110 161c0 88 -64 175 -167 188c28 -133 49 -269 57 -349zM77 25c0 -144 141 -243 261 -243c1 0 46 -1 81 5c-7 66 -27 208 -60 362c-79 -8 -124 -60 -124 -118c0 -43 25 -88 80 -120c5 -5 7 -11 7 -17 c0 -12 -10 -23 -23 -23c-16 0 -128 62 -128 188c0 89 60 177 163 200c-14 57 -30 113 -47 169c-105 -122 -210 -243 -210 -403zM242 784c0 -39 10 -95 39 -188c78 97 142 199 142 324c0 33 0 60 -20 118c-99 -46 -161 -145 -161 -254z" fill="currentColor"/>
</g>
<g transform="translate(13.3337,131.5426)">
<path transform="scale(0.0040, -0.0040)" d="M0 116c0 10 6 19 16 23l40 15v154c0 12 9 21 21 21s21 -9 21 -21v-138l79 30v154c0 12 9 21 21 21s21 -9 21 -21v-138l22 8c3 1 6 2 9 2c13 0 25 -11 25 -25v-54c0 -10 -6 -20 -16 -24l-40 -15v-155l22 9c3 1 6 1 9 1c13 0 25 -11 25 -25v-54c0 -10 -6 -19 -16 -23 l-40 -15v-154c0 -12 -9 -21 -21 -21s-21 9 -21 21v138l-79 -30v-154c0 -12 -9 -21 -21 -21s-21 9 -21 21v138l-22 -8c-3 -1 -6 -2 -9 -2c-13 0 -25 11 -25 25v54c0 10 6 20 16 24l40 15v155l-22 -9c-3 -1 -6 -1 -9 -1c-13 0 -25 11 -25 25v54zM177 92l-79 -30v-154l79 30 v154z" fill="currentColor"/>
</g>
<g transform="translate(7.4119,130.5694)">
<text font-family="Songti SC" font-size="1.7463" text-anchor="start" fill="currentColor">
<tspan>13</tspan>
</text>
</g>
<g transform="translate(16.9338,130.5328)">
<text font-family="Hiragino Sans GB" font-size="1.9604" text-anchor="start" fill="currentColor">
<tspan>E</tspan>
</text>
</g>
<g transform="translate(18.2141,130.5328)">
<text font-family="Hiragino Sans GB" font-size="1.9604" text-anchor="start" fill="currentColor">
<tspan>m</tspan>
</text>
</g>
<g transform="translate(16.9338,134.5426)">
<path transform="scale(0.0040, -0.0040)" d="M310 63c0 22 -17 40 -40 40c-38 0 -197 -107 -224 -139c-7 -8 -10 -17 -10 -27c0 -22 17 -40 40 -40c38 0 197 107 224 139c7 8 10 17 10 27zM256 138c55 0 90 -22 90 -77c0 -25 -15 -112 -73 -151c-34 -23 -92 -48 -183 -48c-55 0 -90 22 -90 77c0 25 15 112 73 151 c34 23 92 48 183 48z" fill="currentColor"/>
</g>
<g transform="translate(16.388,140.1476)">
<text font-family="Songti SC" font-size="2.7" text-anchor="start" fill="currentColor">
<tspan font-size="2.7">神</tspan>
</text>
</g>
<g transform="translate(18.242,133.5426)">
<rect x="-0.0757" y="-2.5000" width="0.1514" height="3.2544" ry="0.0500" fill="currentColor"/>
</g>
<g transform="translate(34.2713,133.5426)">
<path transform="scale(0.0040, -0.0040)" d="M212 138c68 0 113 -38 113 -95c0 -90 -109 -181 -212 -181c-68 0 -113 38 -113 95c0 90 109 181 212 181z" fill="currentColor"/>
</g>
<g transform="translate(33.684,140.1476)">
<text font-family="Songti SC" font-size="2.7" text-anchor="start" fill="currentColor">
<tspan font-size="2.7">人</tspan>
</text>
</g>
<g transform="translate(34.3469,133.5426)">
<rect x="-0.0757" y="0.1713" width="0.1514" height="3.1620" ry="0.0500" fill="currentColor"/>
</g>
<g transform="translate(100.9454,132.5426)">
<polygon stroke-linejoin="round" stroke-linecap="round" stroke-width="0.1000" fill="currentColor" stroke="currentColor" points="5.7832 -0.3718 5.7832 0.0082 0.0500 0.1900 0.0500 -0.1900"/>
</g>
<g transform="translate(47.9804,130.5328)">
<text font-family="Hiragino Sans GB" font-size="1.9604" text-anchor="start" fill="currentColor">
<tspan>C</tspan>
</text>
</g>
<g transform="translate(47.9804,133.5426)">
<path transform="scale(0.0040, -0.0040)" d="M212 138c68 0 113 -38 113 -95c0 -90 -109 -181 -212 -181c-68 0 -113 38 -113 95c0 90 109 181 212 181z" fill="currentColor"/>
</g>
<g transform="translate(47.3931,140.1476)">
<text font-family="Songti SC" font-size="2.7" text-anchor="start" fill="currentColor">
<tspan font-size="2.7">同</tspan>
</text>
</g>
<g transform="translate(48.056,133.5426)">
<rect x="-0.0757" y="0.1713" width="0.1514" height="3.1620" ry="0.0500" fill="currentColor"/>
</g>
<g transform="translate(58.5576,134.0426)">
<path transform="scale(0.0040, -0.0040)" d="M212 138c68 0 113 -38 113 -95c0 -90 -109 -181 -212 -181c-68 0 -113 38 -113 95c0 90 109 181 212 181z" fill="currentColor"/>
</g>
<g transform="translate(56.7326,140.1476)">
<text font-family="Songti SC" font-size="2.7" text-anchor="start" fill="currentColor">
<tspan font-size="2.7">工，</tspan>
</text>
</g>
<g transform="translate(59.7827,133.5426)">
<rect x="-0.0757" y="-3.0000" width="0.1514" height="3.3287" ry="0.0500" fill="currentColor"/>
</g>
<g transform="translate(69.1573,133.5426)">
<path transform="scale(0.0040, -0.0040)" d="M-9 78c0 59 124 84 124 182c0 25 -9 50 -26 70l-31 37c-3 4 -4 8 -4 12c0 10 9 18 19 18c5 0 9 -1 13 -6l149 -178c7 -9 11 -17 11 -26c0 -59 -124 -84 -124 -182c0 -25 9 -51 26 -71l79 -94c3 -4 4 -8 4 -12c0 -10 -9 -18 -19 -18c-11 0 -38 40 -102 40 c-23 0 -55 -4 -55 -65c0 -33 11 -73 27 -92c8 -9 -6 -20 -14 -11c-44 53 -92 145 -92 199c0 41 26 43 46 43c30 0 69 -9 106 -23l-126 151c-7 9 -11 17 -11 26z" fill="currentColor"/>
</g>
<g transform="translate(82.5417,130.5328)">
<text font-family="Hiragino Sans GB" font-size="1.9604" text-anchor="start" fill="currentColor">
<tspan>D</tspan>
</text>
</g>
<g transform="translate(84.0354,129.6419)">
<text font-family="Hiragino Sans GB" font-size="1.3856" text-anchor="start" fill="currentColor">
<tspan>7</tspan>
</text>
</g>
<g transform="translate(82.5417,135.0426)">
<path transform="scale(0.0040, -0.0040)" d="M310 63c0 22 -17 40 -40 40c-38 0 -197 -107 -224 -139c-7 -8 -10 -17 -10 -27c0 -22 17 -40 40 -40c38 0 197 107 224 139c7 8 10 17 10 27zM256 138c55 0 90 -22 90 -77c0 -25 -15 -112 -73 -151c-34 -23 -92 -48 -183 -48c-55 0 -90 22 -90 77c0 25 15 112 73 151 c34 23 92 48 183 48z" fill="currentColor"/>
</g>
<g transform="translate(81.9959,140.1476)">
<text font-family="Songti SC" font-size="2.7" text-anchor="start" fill="currentColor">
<tspan font-size="2.7">成</tspan>
</text>
</g>
<g transform="translate(83.8499,133.5426)">
<rect x="-0.0757" y="-2.0000" width="0.1514" height="3.2544" ry="0.0500" fill="currentColor"/>
</g>
<g transform="translate(99.7959,133.5426)">
<path stroke-width="0.0931" stroke-linejoin="round" stroke-linecap="round" stroke="currentColor" fill="currentColor" d="M0.6884 3.0527C2.0439 4.0796 5.2149 3.8006 6.3702 2.5527L6.3702 2.5527C5.2027 3.6614 2.0317 3.9405 0.6884 3.0527z"/>
</g>
<g transform="translate(99.7959,135.5426)">
<path transform="scale(0.0040, -0.0040)" d="M212 138c68 0 113 -38 113 -95c0 -90 -109 -181 -212 -181c-68 0 -113 38 -113 95c0 90 109 181 212 181z" fill="currentColor"/>
</g>
<g transform="translate(99.7959,140.1476)">
<text font-family="Songti SC" font-size="2.7" text-anchor="start" fill="currentColor">
<tspan font-size="2.7">祂</tspan>
</text>
</g>
<g transform="translate(101.021,133.5426)">
<rect x="-0.0757" y="-1.0024" width="0.1514" height="2.8310" ry="0.0500" fill="currentColor"/>
</g>
<g transform="translate(105.4777,135.0426)">
<path transform="scale(0.0040, -0.0040)" d="M212 138c68 0 113 -38 113 -95c0 -90 -109 -181 -212 -181c-68 0 -113 38 -113 95c0 90 109 181 212 181z" fill="currentColor"/>
</g>
<g transform="translate(106.7028,133.5426)">
<rect x="-0.0757" y="-1.1794" width="0.1514" height="2.5081" ry="0.0500" fill="currentColor"/>
</g>
<g transform="translate(114.5328,130.5328)">
<text font-family="Hiragino Sans GB" font-size="1.9604" text-anchor="start" fill="currentColor">
<tspan>G</tspan>
</text>
</g>
<g transform="translate(114.5328,134.5426)">
<path transform="scale(0.0040, -0.0040)" d="M212 138c68 0 113 -38 113 -95c0 -90 -109 -181 -212 -181c-68 0 -113 38 -113 95c0 90 109 181 212 181z" fill="currentColor"/>
</g>
<g transform="translate(113.9455,140.1476)">
<text font-family="Songti SC" font-size="2.7" text-anchor="start" fill="currentColor">
<tspan font-size="2.7">旨</tspan>
</text>
</g>
<g transform="translate(115.7579,133.5426)">
<rect x="-0.0757" y="-2.5000" width="0.1514" height="3.3287" ry="0.0500" fill="currentColor"/>
</g>
<g transform="translate(125.1325,134.5426)">
<path transform="scale(0.0040, -0.0040)" d="M212 138c68 0 113 -38 113 -95c0 -90 -109 -181 -212 -181c-68 0 -113 38 -113 95c0 90 109 181 212 181z" fill="currentColor"/>
</g>
<g transform="translate(123.3075,140.1476)">
<text font-family="Songti SC" font-size="2.7" text-anchor="start" fill="currentColor">
<tspan font-size="2.7">意。</tspan>
</text>
</g>
<g transform="translate(126.3576,133.5426)">
<rect x="-0.0757" y="-2.5000" width="0.1514" height="3.3287" ry="0.0500" fill="currentColor"/>
</g>
<g transform="translate(135.7322,133.5426)">
<path transform="scale(0.0040, -0.0040)" d="M-9 78c0 59 124 84 124 182c0 25 -9 50 -26 70l-31 37c-3 4 -4 8 -4 12c0 10 9 18 19 18c5 0 9 -1 13 -6l149 -178c7 -9 11 -17 11 -26c0 -59 -124 -84 -124 -182c0 -25 9 -51 26 -71l79 -94c3 -4 4 -8 4 -12c0 -10 -9 -18 -19 -18c-11 0 -38 40 -102 40 c-23 0 -55 -4 -55 -65c0 -33 11 -73 27 -92c8 -9 -6 -20 -14 -11c-44 53 -92 145 -92 199c0 41 26 43 46 43c30 0 69 -9 106 -23l-126 151c-7 9 -11 17 -11 26z" fill="currentColor"/>
</g>
<g transform="translate(11.1275,181.5426)">
<text font-family="Songti SC" font-size="1.5560" text-anchor="start" fill="currentColor">
<tspan> </tspan>
</text>
</g>
<g transform="translate(11.1275,195.5426)">
<text font-family="Songti SC" font-size="1.5560" text-anchor="start" fill="currentColor">
<tspan> </tspan>
</text>
</g>
<g transform="translate(11.1275,209.5426)">
<text font-family="Songti SC" font-size="1.5560" text-anchor="start" fill="currentColor">
<tspan> </tspan>
</text>
</g>
<g transform="translate(122.2828,181.5426)">
<text font-family="Songti SC" font-size="1.5560" text-anchor="start" fill="currentColor">
<tspan> </tspan>
</text>
</g>
<g transform="translate(122.2828,195.5426)">
<text font-family="Songti SC" font-size="1.5560" text-anchor="start" fill="currentColor">
<tspan> </tspan>
</text>
</g>
<g transform="translate(69.8408,279.96770000000004)">
<text font-family="Trebuchet MS" font-size="2.2001" text-anchor="start" fill="currentColor">
<tspan>www.hymnal.net</tspan>
</text>
</g>
<g transform="translate(16.1245,38.3237)">
<text font-family="Songti SC" font-weight="bold" font-size="2.7" text-anchor="start" fill="currentColor">2.</text></g>
<g transform="translate(18.6183,38.3237)">
<text font-family="Songti SC" font-size="2.7" text-anchor="start" fill="currentColor">在</text></g>
<g transform="translate(27.055,38.3237)">
<text font-family="Songti SC" font-size="2.7" text-anchor="start" fill="currentColor">基</text></g>
<g transform="translate(34.2958,38.3237)">
<text font-family="Songti SC" font-size="2.7" text-anchor="start" fill="currentColor">督</text></g>
<g transform="translate(45.6942,38.3237)">
<text font-family="Songti SC" font-size="2.7" text-anchor="start" fill="currentColor">里</text></g>
<g transform="translate(57.0925,38.3237)">
<text font-family="Songti SC" font-size="2.7" text-anchor="start" fill="currentColor">我</text></g>
<g transform="translate(65.5291,38.3237)">
<text font-family="Songti SC" font-size="2.7" text-anchor="start" fill="currentColor">得</text></g>
<g transform="translate(72.7935,38.3237)">
<text font-family="Songti SC" font-size="2.7" text-anchor="start" fill="currentColor">释</text></g>
<g transform="translate(82.9541,38.3237)">
<text font-family="Songti SC" font-size="2.7" text-anchor="start" fill="currentColor">放</text></g>
<g transform="translate(95.5901,38.3237)">
<text font-family="Songti SC" font-size="2.7" text-anchor="start" fill="currentColor">脱</text></g>
<g transform="translate(101.6482,38.3237)">
<text font-family="Songti SC" font-size="2.7" text-anchor="start" fill="currentColor">离</text></g>
<g transform="translate(111.2911,38.3237)">
<text font-family="Songti SC" font-size="2.7" text-anchor="start" fill="currentColor">今</text></g>
<g transform="translate(122.6894,38.3237)">
<text font-family="Songti SC" font-size="2.7" text-anchor="start" fill="currentColor">世</text></g>
<g transform="translate(134.0878,38.3237)">
<text font-family="Songti SC" font-size="2.7" text-anchor="start" fill="currentColor">所</text></g>
<g transform="translate(140.1458,38.3237)">
<text font-family="Songti SC" font-size="2.7" text-anchor="start" fill="currentColor">有</text></g>
<g transform="translate(16.3465,72.2966)">
<text font-family="Songti SC" font-size="2.7" text-anchor="start" fill="currentColor">辖</text></g>
<g transform="translate(22.8767,72.2966)">
<text font-family="Songti SC" font-size="2.7" text-anchor="start" fill="currentColor">制</text></g>
<g transform="translate(31.6323,72.2966)">
<text font-family="Songti SC" font-size="2.7" text-anchor="start" fill="currentColor">前</text></g>
<g transform="translate(37.5034,72.2966)">
<text font-family="Songti SC" font-size="2.7" text-anchor="start" fill="currentColor">途</text></g>
<g transform="translate(42.9269,72.2966)">
<text font-family="Songti SC" font-size="2.7" text-anchor="start" fill="currentColor">事</text></g>
<g transform="translate(50.6948,72.2966)">
<text font-family="Songti SC" font-size="2.7" text-anchor="start" fill="currentColor">业</text></g>
<g transform="translate(58.4627,72.2966)">
<text font-family="Songti SC" font-size="2.7" text-anchor="start" fill="currentColor">尽</text></g>
<g transform="translate(64.3338,72.2966)">
<text font-family="Songti SC" font-size="2.7" text-anchor="start" fill="currentColor">都</text></g>
<g transform="translate(69.7809,72.2966)">
<text font-family="Songti SC" font-size="2.7" text-anchor="start" fill="currentColor">撇</text></g>
<g transform="translate(76.3111,72.2966)">
<text font-family="Songti SC" font-size="2.7" text-anchor="start" fill="currentColor">弃</text></g>
<g transform="translate(85.3167,72.2966)">
<text font-family="Songti SC" font-size="2.7" text-anchor="start" fill="currentColor">为</text></g>
<g transform="translate(89.6644,72.2966)">
<text font-family="Songti SC" font-size="2.7" text-anchor="start" fill="currentColor">祂</text></g>
<g transform="translate(96.6348,72.2966)">
<text font-family="Songti SC" font-size="2.7" text-anchor="start" fill="currentColor">见</text></g>
<g transform="translate(104.4027,72.2966)">
<text font-family="Songti SC" font-size="2.7" text-anchor="start" fill="currentColor">证</text></g>
<g transform="translate(112.1706,72.2966)">
<text font-family="Songti SC" font-size="2.7" text-anchor="start" fill="currentColor">活</text></g>
<g transform="translate(116.5183,72.2966)">
<text font-family="Songti SC" font-size="2.7" text-anchor="start" fill="currentColor">在</text></g>
<g transform="translate(123.4888,72.2966)">
<text font-family="Songti SC" font-size="2.7" text-anchor="start" fill="currentColor">灵</text></g>
<g transform="translate(130.019,72.2966)">
<text font-family="Songti SC" font-size="2.7" text-anchor="start" fill="currentColor">里</text></g>
<g transform="translate(16.1245,42.3237)">
<text font-family="Songti SC" font-weight="bold" font-size="2.7" text-anchor="start" fill="currentColor">3.</text></g>
<g transform="translate(18.6183,42.3237)">
<text font-family="Songti SC" font-size="2.7" text-anchor="start" fill="currentColor">丰</text></g>
<g transform="translate(27.055,42.3237)">
<text font-family="Songti SC" font-size="2.7" text-anchor="start" fill="currentColor">富</text></g>
<g transform="translate(34.2958,42.3237)">
<text font-family="Songti SC" font-size="2.7" text-anchor="start" fill="currentColor">基</text></g>
<g transform="translate(45.6942,42.3237)">
<text font-family="Songti SC" font-size="2.7" text-anchor="start" fill="currentColor">督</text></g>
<g transform="translate(57.0925,42.3237)">
<text font-family="Songti SC" font-size="2.7" text-anchor="start" fill="currentColor">住</text></g>
<g transform="translate(65.5291,42.3237)">
<text font-family="Songti SC" font-size="2.7" text-anchor="start" fill="currentColor">在</text></g>
<g transform="translate(72.7935,42.3237)">
<text font-family="Songti SC" font-size="2.7" text-anchor="start" fill="currentColor">灵</text></g>
<g transform="translate(82.9541,42.3237)">
<text font-family="Songti SC" font-size="2.7" text-anchor="start" fill="currentColor">里</text></g>
<g transform="translate(95.5901,42.3237)">
<text font-family="Songti SC" font-size="2.7" text-anchor="start" fill="currentColor">等</text></g>
<g transform="translate(101.6482,42.3237)">
<text font-family="Songti SC" font-size="2.7" text-anchor="start" fill="currentColor">候</text></g>
<g transform="translate(111.2911,42.3237)">
<text font-family="Songti SC" font-size="2.7" text-anchor="start" fill="currentColor">我</text></g>
<g transform="translate(122.6894,42.3237)">
<text font-family="Songti SC" font-size="2.7" text-anchor="start" fill="currentColor">来</text></g>
<g transform="translate(134.0878,42.3237)">
<text font-family="Songti SC" font-size="2.7" text-anchor="start" fill="currentColor">把</text></g>
<g transform="translate(140.1458,42.3237)">
<text font-family="Songti SC" font-size="2.7" text-anchor="start" fill="currentColor">祂</text></g>
<g transform="translate(16.3465,76.2966)">
<text font-family="Songti SC" font-size="2.7" text-anchor="start" fill="currentColor">经</text></g>
<g transform="translate(22.8767,76.2966)">
<text font-family="Songti SC" font-size="2.7" text-anchor="start" fill="currentColor">历</text></g>
<g transform="translate(31.6323,76.2966)">
<text font-family="Songti SC" font-size="2.7" text-anchor="start" fill="currentColor">每</text></g>
<g transform="translate(37.5034,76.2966)">
<text font-family="Songti SC" font-size="2.7" text-anchor="start" fill="currentColor">当</text></g>
<g transform="translate(42.9269,76.2966)">
<text font-family="Songti SC" font-size="2.7" text-anchor="start" fill="currentColor">释</text></g>
<g transform="translate(50.6948,76.2966)">
<text font-family="Songti SC" font-size="2.7" text-anchor="start" fill="currentColor">放</text></g>
<g transform="translate(58.4627,76.2966)">
<text font-family="Songti SC" font-size="2.7" text-anchor="start" fill="currentColor">灵</text></g>
<g transform="translate(64.3338,76.2966)">
<text font-family="Songti SC" font-size="2.7" text-anchor="start" fill="currentColor">中</text></g>
<g transform="translate(69.7809,76.2966)">
<text font-family="Songti SC" font-size="2.7" text-anchor="start" fill="currentColor">基</text></g>
<g transform="translate(76.3111,76.2966)">
<text font-family="Songti SC" font-size="2.7" text-anchor="start" fill="currentColor">督</text></g>
<g transform="translate(85.3167,76.2966)">
<text font-family="Songti SC" font-size="2.7" text-anchor="start" fill="currentColor">能</text></g>
<g transform="translate(89.6644,76.2966)">
<text font-family="Songti SC" font-size="2.7" text-anchor="start" fill="currentColor">力</text></g>
<g transform="translate(96.6348,76.2966)">
<text font-family="Songti SC" font-size="2.7" text-anchor="start" fill="currentColor">智</text></g>
<g transform="translate(104.4027,76.2966)">
<text font-family="Songti SC" font-size="2.7" text-anchor="start" fill="currentColor">慧</text></g>
<g transform="translate(112.1706,76.2966)">
<text font-family="Songti SC" font-size="2.7" text-anchor="start" fill="currentColor">无</text></g>
<g transform="translate(116.5183,76.2966)">
<text font-family="Songti SC" font-size="2.7" text-anchor="start" fill="currentColor">不</text></g>
<g transform="translate(123.4888,76.2966)">
<text font-family="Songti SC" font-size="2.7" text-anchor="start" fill="currentColor">我</text></g>
<g transform="translate(130.019,76.2966)">
<text font-family="Songti SC" font-size="2.7" text-anchor="start" fill="currentColor">属</text></g>
<g transform="translate(16.1245,46.3237)">
<text font-family="Songti SC" font-weight="bold" font-size="2.7" text-anchor="start" fill="currentColor">4.</text></g>
<g transform="translate(18.6183,46.3237)">
<text font-family="Songti SC" font-size="2.7" text-anchor="start" fill="currentColor">哦</text></g>
<g transform="translate(27.055,46.3237)">
<text font-family="Songti SC" font-size="2.7" text-anchor="start" fill="currentColor">主</text></g>
<g transform="translate(34.2958,46.3237)">
<text font-family="Songti SC" font-size="2.7" text-anchor="start" fill="currentColor">求</text></g>
<g transform="translate(45.6942,46.3237)">
<text font-family="Songti SC" font-size="2.7" text-anchor="start" fill="currentColor">你</text></g>
<g transform="translate(57.0925,46.3237)">
<text font-family="Songti SC" font-size="2.7" text-anchor="start" fill="currentColor">救</text></g>
<g transform="translate(65.5291,46.3237)">
<text font-family="Songti SC" font-size="2.7" text-anchor="start" fill="currentColor">我</text></g>
<g transform="translate(72.7935,46.3237)">
<text font-family="Songti SC" font-size="2.7" text-anchor="start" fill="currentColor">脱</text></g>
<g transform="translate(82.9541,46.3237)">
<text font-family="Songti SC" font-size="2.7" text-anchor="start" fill="currentColor">离</text></g>
<g transform="translate(95.5901,46.3237)">
<text font-family="Songti SC" font-size="2.7" text-anchor="start" fill="currentColor">所</text></g>
<g transform="translate(101.6482,46.3237)">
<text font-family="Songti SC" font-size="2.7" text-anchor="start" fill="currentColor">有</text></g>
<g transform="translate(111.2911,46.3237)">
<text font-family="Songti SC" font-size="2.7" text-anchor="start" fill="currentColor">老</text></g>
<g transform="translate(122.6894,46.3237)">
<text font-family="Songti SC" font-size="2.7" text-anchor="start" fill="currentColor">旧</text></g>
<g transform="translate(134.0878,46.3237)">
<text font-family="Songti SC" font-size="2.7" text-anchor="start" fill="currentColor">空</text></g>
<g transform="translate(140.1458,46.3237)">
<text font-family="Songti SC" font-size="2.7" text-anchor="start" fill="currentColor">洞</text></g>
<g transform="translate(16.3465,80.2966)">
<text font-family="Songti SC" font-size="2.7" text-anchor="start" fill="currentColor">道</text></g>
<g transform="translate(22.8767,80.2966)">
<text font-family="Songti SC" font-size="2.7" text-anchor="start" fill="currentColor">理</text></g>
<g transform="translate(31.6323,80.2966)">
<text font-family="Songti SC" font-size="2.7" text-anchor="start" fill="currentColor">天</text></g>
<g transform="translate(37.5034,80.2966)">
<text font-family="Songti SC" font-size="2.7" text-anchor="start" fill="currentColor">天</text></g>
<g transform="translate(42.9269,80.2966)">
<text font-family="Songti SC" font-size="2.7" text-anchor="start" fill="currentColor">经</text></g>
<g transform="translate(50.6948,80.2966)">
<text font-family="Songti SC" font-size="2.7" text-anchor="start" fill="currentColor">营</text></g>
<g transform="translate(58.4627,80.2966)">
<text font-family="Songti SC" font-size="2.7" text-anchor="start" fill="currentColor">灵</text></g>
<g transform="translate(64.3338,80.2966)">
<text font-family="Songti SC" font-size="2.7" text-anchor="start" fill="currentColor">中</text></g>
<g transform="translate(69.7809,80.2966)">
<text font-family="Songti SC" font-size="2.7" text-anchor="start" fill="currentColor">丰</text></g>
<g transform="translate(76.3111,80.2966)">
<text font-family="Songti SC" font-size="2.7" text-anchor="start" fill="currentColor">富</text></g>
<g transform="translate(85.3167,80.2966)">
<text font-family="Songti SC" font-size="2.7" text-anchor="start" fill="currentColor">时</text></g>
<g transform="translate(89.6644,80.2966)">
<text font-family="Songti SC" font-size="2.7" text-anchor="start" fill="currentColor">时</text></g>
<g transform="translate(96.6348,80.2966)">
<text font-family="Songti SC" font-size="2.7" text-anchor="start" fill="currentColor">释</text></g>
<g transform="translate(104.4027,80.2966)">
<text font-family="Songti SC" font-size="2.7" text-anchor="start" fill="currentColor">放</text></g>
<g transform="translate(112.1706,80.2966)">
<text font-family="Songti SC" font-size="2.7" text-anchor="start" fill="currentColor">荣</text></g>
<g transform="translate(116.5183,80.2966)">
<text font-family="Songti SC" font-size="2.7" text-anchor="start" fill="currentColor">耀</text></g>
<g transform="translate(123.4888,80.2966)">
<text font-family="Songti SC" font-size="2.7" text-anchor="start" fill="currentColor">基</text></g>
<g transform="translate(130.019,80.2966)">
<text font-family="Songti SC" font-size="2.7" text-anchor="start" fill="currentColor">督</text></g>
<g transform="translate(16.1245,50.3237)">
<text font-family="Songti SC" font-weight="bold" font-size="2.7" text-anchor="start" fill="currentColor">5.</text></g>
<g transform="translate(18.6183,50.3237)">
<text font-family="Songti SC" font-size="2.7" text-anchor="start" fill="currentColor">基</text></g>
<g transform="translate(27.055,50.3237)">
<text font-family="Songti SC" font-size="2.7" text-anchor="start" fill="currentColor">督</text></g>
<g transform="translate(34.2958,50.3237)">
<text font-family="Songti SC" font-size="2.7" text-anchor="start" fill="currentColor">借</text></g>
<g transform="translate(45.6942,50.3237)">
<text font-family="Songti SC" font-size="2.7" text-anchor="start" fill="currentColor">我</text></g>
<g transform="translate(57.0925,50.3237)">
<text font-family="Songti SC" font-size="2.7" text-anchor="start" fill="currentColor">得</text></g>
<g transform="translate(65.5291,50.3237)">
<text font-family="Songti SC" font-size="2.7" text-anchor="start" fill="currentColor">以</text></g>
<g transform="translate(72.7935,50.3237)">
<text font-family="Songti SC" font-size="2.7" text-anchor="start" fill="currentColor">彰</text></g>
<g transform="translate(82.9541,50.3237)">
<text font-family="Songti SC" font-size="2.7" text-anchor="start" fill="currentColor">显</text></g>
<g transform="translate(95.5901,50.3237)">
<text font-family="Songti SC" font-size="2.7" text-anchor="start" fill="currentColor">祂</text></g>
<g transform="translate(101.6482,50.3237)">
<text font-family="Songti SC" font-size="2.7" text-anchor="start" fill="currentColor">的</text></g>
<g transform="translate(111.2911,50.3237)">
<text font-family="Songti SC" font-size="2.7" text-anchor="start" fill="currentColor">荣</text></g>
<g transform="translate(122.6894,50.3237)">
<text font-family="Songti SC" font-size="2.7" text-anchor="start" fill="currentColor">美</text></g>
<g transform="translate(134.0878,50.3237)">
<text font-family="Songti SC" font-size="2.7" text-anchor="start" fill="currentColor">为</text></g>
<g transform="translate(140.1458,50.3237)">
<text font-family="Songti SC" font-size="2.7" text-anchor="start" fill="currentColor">人</text></g>
<g transform="translate(16.3465,84.2966)">
<text font-family="Songti SC" font-size="2.7" text-anchor="start" fill="currentColor">所</text></g>
<g transform="translate(22.8767,84.2966)">
<text font-family="Songti SC" font-size="2.7" text-anchor="start" fill="currentColor">见</text></g>
<g transform="translate(31.6323,84.2966)">
<text font-family="Songti SC" font-size="2.7" text-anchor="start" fill="currentColor">每</text></g>
<g transform="translate(37.5034,84.2966)">
<text font-family="Songti SC" font-size="2.7" text-anchor="start" fill="currentColor">当</text></g>
<g transform="translate(42.9269,84.2966)">
<text font-family="Songti SC" font-size="2.7" text-anchor="start" fill="currentColor">我</text></g>
<g transform="translate(50.6948,84.2966)">
<text font-family="Songti SC" font-size="2.7" text-anchor="start" fill="currentColor">把</text></g>
<g transform="translate(58.4627,84.2966)">
<text font-family="Songti SC" font-size="2.7" text-anchor="start" fill="currentColor">祂</text></g>
<g transform="translate(64.3338,84.2966)">
<text font-family="Songti SC" font-size="2.7" text-anchor="start" fill="currentColor">来</text></g>
<g transform="translate(69.7809,84.2966)">
<text font-family="Songti SC" font-size="2.7" text-anchor="start" fill="currentColor">释</text></g>
<g transform="translate(76.3111,84.2966)">
<text font-family="Songti SC" font-size="2.7" text-anchor="start" fill="currentColor">放</text></g>
<g transform="translate(85.3167,84.2966)">
<text font-family="Songti SC" font-size="2.7" text-anchor="start" fill="currentColor">祂</text></g>
<g transform="translate(89.6644,84.2966)">
<text font-family="Songti SC" font-size="2.7" text-anchor="start" fill="currentColor">的</text></g>
<g transform="translate(96.6348,84.2966)">
<text font-family="Songti SC" font-size="2.7" text-anchor="start" fill="currentColor">喜</text></g>
<g transform="translate(104.4027,84.2966)">
<text font-family="Songti SC" font-size="2.7" text-anchor="start" fill="currentColor">乐</text></g>
<g transform="translate(112.1706,84.2966)">
<text font-family="Songti SC" font-size="2.7" text-anchor="start" fill="currentColor">满</text></g>
<g transform="translate(116.5183,84.2966)">
<text font-family="Songti SC" font-size="2.7" text-anchor="start" fill="currentColor">我</text></g>
<g transform="translate(123.4888,84.2966)">
<text font-family="Songti SC" font-size="2.7" text-anchor="start" fill="currentColor">心</text></g>
<g transform="translate(130.019,84.2966)">
<text font-family="Songti SC" font-size="2.7" text-anchor="start" fill="currentColor">房</text></g>
<g transform="translate(16.1245,54.3237)">
<text font-family="Songti SC" font-weight="bold" font-size="2.7" text-anchor="start" fill="currentColor">6.</text></g>
<g transform="translate(18.6183,54.3237)">
<text font-family="Songti SC" font-size="2.7" text-anchor="start" fill="currentColor">主</text></g>
<g transform="translate(27.055,54.3237)">
<text font-family="Songti SC" font-size="2.7" text-anchor="start" fill="currentColor">我</text></g>
<g transform="translate(34.2958,54.3237)">
<text font-family="Songti SC" font-size="2.7" text-anchor="start" fill="currentColor">今</text></g>
<g transform="translate(45.6942,54.3237)">
<text font-family="Songti SC" font-size="2.7" text-anchor="start" fill="currentColor">在</text></g>
<g transform="translate(57.0925,54.3237)">
<text font-family="Songti SC" font-size="2.7" text-anchor="start" fill="currentColor">你</text></g>
<g transform="translate(65.5291,54.3237)">
<text font-family="Songti SC" font-size="2.7" text-anchor="start" fill="currentColor">前</text></g>
<g transform="translate(72.7935,54.3237)">
<text font-family="Songti SC" font-size="2.7" text-anchor="start" fill="currentColor">抛</text></g>
<g transform="translate(82.9541,54.3237)">
<text font-family="Songti SC" font-size="2.7" text-anchor="start" fill="currentColor">弃</text></g>
<g transform="translate(95.5901,54.3237)">
<text font-family="Songti SC" font-size="2.7" text-anchor="start" fill="currentColor">已</text></g>
<g transform="translate(101.6482,54.3237)">
<text font-family="Songti SC" font-size="2.7" text-anchor="start" fill="currentColor">往</text></g>
<g transform="translate(111.2911,54.3237)">
<text font-family="Songti SC" font-size="2.7" text-anchor="start" fill="currentColor">自</text></g>
<g transform="translate(122.6894,54.3237)">
<text font-family="Songti SC" font-size="2.7" text-anchor="start" fill="currentColor">大</text></g>
<g transform="translate(134.0878,54.3237)">
<text font-family="Songti SC" font-size="2.7" text-anchor="start" fill="currentColor">属</text></g>
<g transform="translate(140.1458,54.3237)">
<text font-family="Songti SC" font-size="2.7" text-anchor="start" fill="currentColor">灵</text></g>
<g transform="translate(16.3465,88.2966)">
<text font-family="Songti SC" font-size="2.7" text-anchor="start" fill="currentColor">经</text></g>
<g transform="translate(22.8767,88.2966)">
<text font-family="Songti SC" font-size="2.7" text-anchor="start" fill="currentColor">历</text></g>
<g transform="translate(31.6323,88.2966)">
<text font-family="Songti SC" font-size="2.7" text-anchor="start" fill="currentColor">今</text></g>
<g transform="translate(37.5034,88.2966)">
<text font-family="Songti SC" font-size="2.7" text-anchor="start" fill="currentColor">后</text></g>
<g transform="translate(42.9269,88.2966)">
<text font-family="Songti SC" font-size="2.7" text-anchor="start" fill="currentColor">不</text></g>
<g transform="translate(50.6948,88.2966)">
<text font-family="Songti SC" font-size="2.7" text-anchor="start" fill="currentColor">再</text></g>
<g transform="translate(58.4627,88.2966)">
<text font-family="Songti SC" font-size="2.7" text-anchor="start" fill="currentColor">自</text></g>
<g transform="translate(64.3338,88.2966)">
<text font-family="Songti SC" font-size="2.7" text-anchor="start" fill="currentColor">是</text></g>
<g transform="translate(69.7809,88.2966)">
<text font-family="Songti SC" font-size="2.7" text-anchor="start" fill="currentColor">自</text></g>
<g transform="translate(76.3111,88.2966)">
<text font-family="Songti SC" font-size="2.7" text-anchor="start" fill="currentColor">觉</text></g>
<g transform="translate(85.3167,88.2966)">
<text font-family="Songti SC" font-size="2.7" text-anchor="start" fill="currentColor">运</text></g>
<g transform="translate(89.6644,88.2966)">
<text font-family="Songti SC" font-size="2.7" text-anchor="start" fill="currentColor">用</text></g>
<g transform="translate(96.6348,88.2966)">
<text font-family="Songti SC" font-size="2.7" text-anchor="start" fill="currentColor">我</text></g>
<g transform="translate(104.4027,88.2966)">
<text font-family="Songti SC" font-size="2.7" text-anchor="start" fill="currentColor">灵</text></g>
<g transform="translate(112.1706,88.2966)">
<text font-family="Songti SC" font-size="2.7" text-anchor="start" fill="currentColor">将</text></g>
<g transform="translate(116.5183,88.2966)">
<text font-family="Songti SC" font-size="2.7" text-anchor="start" fill="currentColor">你</text></g>
<g transform="translate(123.4888,88.2966)">
<text font-family="Songti SC" font-size="2.7" text-anchor="start" fill="currentColor">释</text></g>
<g transform="translate(130.019,88.2966)">
<text font-family="Songti SC" font-size="2.7" text-anchor="start" fill="currentColor">放</text></g>
</svg>